<?xml version="1.0" encoding="UTF-8"?>
<svg xmlns="http://www.w3.org/2000/svg" xmlns:xlink="http://www.w3.org/1999/xlink" width="100px" height="100px" viewBox="0 0 100 100" version="1.1">
<g id="surface1">
<path style=" stroke:none;fill-rule:nonzero;fill:rgb(0%,0%,0%);fill-opacity:1;" d="M 29.167969 51.800781 C 25.433594 43.800781 26 36.265625 30.898438 29.167969 C 34.332031 24.234375 39.566406 21.199219 46.667969 20.101562 C 47.199219 19.964844 47.800781 19.867188 48.464844 19.832031 L 50.566406 19.832031 C 60.265625 20.132812 67.398438 24.433594 71.898438 32.765625 C 74.035156 36.699219 74.566406 41.035156 73.5 45.800781 C 72.632812 49.566406 71.234375 53.101562 69.234375 56.367188 C 64.933594 63.066406 60.464844 68.5 55.898438 72.632812 C 55.667969 72.867188 55.332031 73.167969 54.898438 73.5 C 53.367188 74.667969 51.933594 75.265625 50.632812 75.300781 C 49.332031 75.332031 47.867188 74.832031 46.265625 73.800781 C 45.300781 73.234375 44.5 72.566406 43.800781 71.832031 C 37.265625 65.167969 32.367188 58.5 29.167969 51.800781 Z M 29.535156 44.433594 C 29.601562 44.800781 29.699219 45.265625 29.832031 45.898438 C 29.964844 46.535156 30.066406 46.964844 30.132812 47.234375 C 31.066406 51.433594 33 54.667969 35.898438 57 C 38.832031 59.332031 42.433594 60.699219 46.765625 61.101562 C 47.734375 61.199219 48.300781 61.167969 48.464844 61 C 48.632812 60.832031 48.734375 60.234375 48.765625 59.265625 C 48.734375 59 48.667969 58.566406 48.601562 57.964844 C 48.535156 57.367188 48.464844 56.933594 48.398438 56.667969 C 47.566406 52.199219 45.464844 48.933594 42.066406 46.898438 C 41.464844 46.535156 40.765625 46.167969 40 45.765625 C 39.234375 45.367188 38.535156 45.101562 37.964844 44.867188 C 37.398438 44.632812 36.632812 44.332031 35.667969 43.964844 C 34.699219 43.601562 34 43.332031 33.566406 43.132812 C 33.035156 42.933594 32.167969 42.800781 30.898438 42.765625 C 29.832031 42.765625 29.367188 43.332031 29.535156 44.433594 Z M 52.199219 59.101562 C 52.132812 60.132812 52.199219 60.734375 52.398438 60.964844 C 52.632812 61.199219 53.234375 61.234375 54.234375 61.101562 C 55.5 60.964844 56.832031 60.699219 58.234375 60.367188 C 61.800781 59.464844 64.699219 57.566406 66.964844 54.667969 C 68.101562 53.300781 68.964844 51.800781 69.535156 50.199219 C 70.101562 48.601562 70.667969 46.699219 71.101562 44.464844 C 71.265625 43.699219 71.234375 43.199219 71 42.933594 C 70.765625 42.667969 70.265625 42.566406 69.535156 42.667969 C 67.566406 43 65.800781 43.433594 64.234375 44 C 60.398438 45.433594 57.5 47.367188 55.5 49.800781 C 53.5 52.265625 52.398438 55.332031 52.199219 59.101562 Z M 52.199219 59.101562 "/>
</g>
</svg>
