<?xml version="1.0" encoding="UTF-8"?>
<svg xmlns="http://www.w3.org/2000/svg" xmlns:xlink="http://www.w3.org/1999/xlink" width="100px" height="100px" viewBox="0 0 100 100" version="1.1">
<g id="surface1">
<path style=" stroke:none;fill-rule:nonzero;fill:rgb(0%,0%,0%);fill-opacity:1;" d="M 25.632812 44 C 25.632812 40.699219 26.265625 37.535156 27.566406 34.5 C 28.867188 31.464844 30.601562 28.898438 32.800781 26.734375 C 35 24.566406 37.601562 22.832031 40.601562 21.535156 C 43.601562 20.234375 46.765625 19.601562 50.066406 19.601562 C 53.367188 19.601562 56.535156 20.234375 59.566406 21.535156 C 62.566406 22.832031 65.167969 24.566406 67.332031 26.734375 C 69.5 28.898438 71.234375 31.5 72.535156 34.5 C 73.832031 37.5 74.464844 40.667969 74.464844 44 C 74.464844 49.398438 72.867188 54.199219 69.667969 58.464844 C 66.464844 62.699219 62.332031 65.601562 57.300781 67.167969 L 57.300781 78.132812 L 43.167969 78.132812 L 43.167969 67.300781 C 38.035156 65.800781 33.800781 62.898438 30.535156 58.601562 C 27.265625 54.300781 25.632812 49.433594 25.632812 44 Z M 31 44 C 31 49.167969 32.867188 53.601562 36.632812 57.300781 C 40.332031 61.035156 44.800781 62.898438 50.035156 62.898438 C 53.464844 62.898438 56.667969 62.066406 59.566406 60.367188 C 62.5 58.667969 64.800781 56.367188 66.535156 53.464844 C 68.234375 50.566406 69.101562 47.398438 69.101562 43.964844 C 69.101562 41.398438 68.601562 38.964844 67.601562 36.601562 C 66.601562 34.234375 65.234375 32.234375 63.535156 30.535156 C 61.832031 28.832031 59.800781 27.464844 57.433594 26.464844 C 55.066406 25.464844 52.632812 24.964844 50.066406 24.964844 C 47.5 24.964844 45.066406 25.464844 42.699219 26.464844 C 40.332031 27.464844 38.332031 28.832031 36.632812 30.535156 C 34.933594 32.234375 33.566406 34.265625 32.566406 36.601562 C 31.5 39 31 41.433594 31 44 Z M 32.933594 45.199219 L 32.933594 42.800781 L 40.167969 42.800781 L 40.167969 45.199219 Z M 36.566406 33.398438 L 38.300781 31.667969 L 43.367188 36.734375 L 41.632812 38.5 Z M 45 49.832031 C 45 48.433594 45.5 47.234375 46.464844 46.199219 C 47.433594 45.167969 48.632812 44.632812 50 44.601562 L 59.101562 29.632812 L 61.300781 30.800781 L 54.566406 46.898438 C 55.167969 47.734375 55.433594 48.699219 55.433594 49.832031 C 55.433594 51.300781 54.933594 52.535156 53.898438 53.535156 C 52.867188 54.535156 51.632812 55.035156 50.167969 55.035156 C 48.734375 55.035156 47.5 54.535156 46.5 53.535156 C 45.5 52.535156 45 51.300781 45 49.832031 Z M 49.367188 34.265625 L 49.367188 27.066406 L 51.667969 27.066406 L 51.667969 34.300781 L 49.367188 34.300781 Z M 59.167969 45.167969 L 59.167969 42.699219 L 66.398438 42.699219 L 66.398438 45.167969 Z M 59.167969 45.167969 "/>
</g>
</svg>
