<?xml version="1.0" encoding="UTF-8"?>
<svg xmlns="http://www.w3.org/2000/svg" xmlns:xlink="http://www.w3.org/1999/xlink" width="100px" height="100px" viewBox="0 0 100 100" version="1.1">
<g id="surface1">
<path style=" stroke:none;fill-rule:nonzero;fill:rgb(0%,0%,0%);fill-opacity:1;" d="M 12.066406 70.035156 C 12.066406 69.199219 12.332031 68.5 12.898438 67.933594 C 13.464844 67.398438 14.132812 67.132812 14.898438 67.132812 L 32.964844 67.132812 C 35.433594 67.132812 37.535156 68 39.265625 69.765625 C 41 71.535156 41.867188 73.632812 41.867188 76.101562 C 41.867188 78.566406 41 80.699219 39.265625 82.433594 C 37.535156 84.167969 35.433594 85.035156 32.964844 85.035156 C 30.5 85.035156 28.367188 84.167969 26.632812 82.398438 C 26.101562 81.867188 25.867188 81.199219 25.867188 80.398438 C 25.867188 79.601562 26.132812 78.898438 26.632812 78.398438 C 27.132812 77.867188 27.800781 77.601562 28.632812 77.601562 C 29.398438 77.601562 30.066406 77.867188 30.667969 78.398438 C 31.332031 79.035156 32.101562 79.367188 32.964844 79.367188 C 33.832031 79.367188 34.601562 79.035156 35.234375 78.398438 C 35.867188 77.765625 36.199219 77 36.199219 76.066406 C 36.199219 75.199219 35.867188 74.433594 35.234375 73.800781 C 34.601562 73.167969 33.832031 72.832031 32.964844 72.832031 L 14.898438 72.832031 C 14.132812 72.832031 13.464844 72.566406 12.898438 72 C 12.332031 71.433594 12.066406 70.832031 12.066406 70.035156 Z M 12.066406 59.898438 C 12.066406 59.101562 12.332031 58.398438 12.898438 57.832031 C 13.464844 57.300781 14.132812 57.035156 14.898438 57.035156 L 50.066406 57.035156 C 50.933594 57.035156 51.699219 56.699219 52.332031 56.066406 C 52.964844 55.433594 53.300781 54.632812 53.300781 53.765625 C 53.300781 52.898438 52.964844 52.101562 52.332031 51.464844 C 51.699219 50.832031 50.933594 50.5 50.066406 50.5 C 49.132812 50.5 48.398438 50.800781 47.800781 51.433594 C 47.199219 51.933594 46.5 52.199219 45.667969 52.199219 C 44.867188 52.199219 44.199219 51.933594 43.667969 51.433594 C 43.167969 50.933594 42.898438 50.265625 42.898438 49.433594 C 42.898438 48.601562 43.132812 47.933594 43.667969 47.398438 C 45.367188 45.699219 47.5 44.867188 50.066406 44.867188 C 52.535156 44.867188 54.667969 45.734375 56.398438 47.464844 C 58.132812 49.199219 59 51.300781 59 53.734375 C 59 56.167969 58.132812 58.300781 56.398438 60.035156 C 54.667969 61.765625 52.566406 62.632812 50.066406 62.632812 L 14.898438 62.632812 C 14.101562 62.632812 13.433594 62.367188 12.898438 61.832031 C 12.332031 61.332031 12.066406 60.667969 12.066406 59.898438 Z M 19.234375 52.035156 C 19.234375 52.300781 19.398438 52.433594 19.765625 52.433594 L 24.566406 52.433594 C 24.832031 52.433594 25.066406 52.265625 25.300781 51.933594 C 26.035156 50.132812 27.234375 48.632812 28.800781 47.433594 C 30.398438 46.234375 32.167969 45.566406 34.101562 45.433594 L 35.867188 45.167969 C 36.300781 45.167969 36.535156 44.964844 36.535156 44.601562 L 36.765625 42.867188 C 37.132812 39.265625 38.632812 36.234375 41.332031 33.800781 C 44.035156 31.367188 47.199219 30.132812 50.867188 30.132812 C 54.566406 30.132812 57.765625 31.332031 60.464844 33.765625 C 63.167969 36.199219 64.699219 39.234375 65.101562 42.867188 L 65.332031 44.832031 C 65.332031 45.199219 65.535156 45.398438 65.898438 45.398438 L 71.300781 45.398438 C 74.332031 45.398438 76.898438 46.464844 79.066406 48.601562 C 81.234375 50.734375 82.300781 53.265625 82.300781 56.265625 C 82.300781 59.234375 81.234375 61.800781 79.066406 63.933594 C 76.898438 66.066406 74.332031 67.132812 71.300781 67.132812 L 48.265625 67.132812 C 47.867188 67.132812 47.632812 67.332031 47.632812 67.699219 L 47.632812 72.332031 C 47.632812 72.699219 47.832031 72.898438 48.265625 72.898438 L 71.300781 72.898438 C 74.332031 72.898438 77.101562 72.167969 79.667969 70.667969 C 82.234375 69.199219 84.234375 67.167969 85.734375 64.632812 C 87.234375 62.066406 87.964844 59.300781 87.964844 56.300781 C 87.964844 53.265625 87.234375 50.5 85.734375 47.964844 C 84.234375 45.433594 82.234375 43.398438 79.667969 41.933594 C 77.101562 40.464844 74.332031 39.699219 71.300781 39.699219 L 70.265625 39.699219 C 69.234375 35.265625 66.898438 31.632812 63.265625 28.800781 C 59.667969 25.964844 55.5 24.566406 50.832031 24.566406 C 46.132812 24.566406 41.964844 26.035156 38.332031 28.964844 C 34.699219 31.898438 32.398438 35.632812 31.433594 40.199219 C 28.566406 40.867188 26.035156 42.234375 23.832031 44.300781 C 21.632812 46.367188 20.101562 48.832031 19.234375 51.667969 L 19.234375 51.800781 C 19.234375 51.867188 19.234375 51.933594 19.234375 52.035156 Z M 19.234375 52.035156 "/>
</g>
</svg>
