<?xml version="1.0" encoding="UTF-8"?>
<svg xmlns="http://www.w3.org/2000/svg" xmlns:xlink="http://www.w3.org/1999/xlink" width="100px" height="100px" viewBox="0 0 100 100" version="1.1">
<g id="surface1">
<path style=" stroke:none;fill-rule:nonzero;fill:rgb(0%,0%,0%);fill-opacity:1;" d="M 12.964844 58.667969 C 12.964844 55.367188 14 52.398438 16.066406 49.832031 C 18.132812 47.265625 20.765625 45.601562 24 44.867188 C 24.867188 40.964844 26.832031 37.734375 29.933594 35.265625 C 33.035156 32.765625 36.601562 31.535156 40.667969 31.535156 C 44.601562 31.535156 48.132812 32.734375 51.199219 35.167969 C 54.300781 37.601562 56.300781 40.699219 57.199219 44.5 L 58.101562 44.5 C 62.035156 44.5 65.367188 45.867188 68.132812 48.632812 C 70.898438 51.398438 72.300781 54.734375 72.300781 58.632812 C 72.300781 62.566406 70.898438 65.898438 68.132812 68.667969 C 65.367188 71.433594 62.035156 72.832031 58.101562 72.832031 L 27.199219 72.832031 C 25.265625 72.832031 23.433594 72.464844 21.699219 71.699219 C 19.964844 70.933594 18.398438 70 17.132812 68.734375 C 15.867188 67.464844 14.867188 65.933594 14.101562 64.199219 C 13.332031 62.464844 12.964844 60.566406 12.964844 58.667969 Z M 17.800781 58.667969 C 17.800781 61.199219 18.734375 63.398438 20.535156 65.199219 C 22.332031 67 24.566406 67.933594 27.167969 67.933594 L 58.101562 67.933594 C 60.667969 67.933594 62.898438 67.035156 64.734375 65.199219 C 66.566406 63.367188 67.5 61.199219 67.5 58.667969 C 67.5 56.132812 66.601562 53.933594 64.734375 52.132812 C 62.898438 50.332031 60.699219 49.398438 58.101562 49.398438 L 53.464844 49.398438 C 53.132812 49.398438 52.964844 49.234375 52.964844 48.898438 L 52.734375 47.265625 C 52.398438 44.132812 51.066406 41.5 48.765625 39.433594 C 46.464844 37.367188 43.734375 36.332031 40.601562 36.332031 C 37.464844 36.332031 34.734375 37.367188 32.398438 39.464844 C 30.066406 41.535156 28.765625 44.167969 28.464844 47.265625 L 28.234375 48.667969 C 28.234375 49 28.066406 49.167969 27.699219 49.167969 L 26.199219 49.398438 C 23.800781 49.601562 21.800781 50.601562 20.167969 52.367188 C 18.632812 54.132812 17.800781 56.234375 17.800781 58.667969 Z M 47.300781 29.601562 C 46.964844 29.898438 47.035156 30.132812 47.535156 30.300781 C 48.964844 30.933594 50.167969 31.535156 51.132812 32.132812 C 51.5 32.234375 51.765625 32.199219 51.867188 32.035156 C 53.898438 30.132812 56.234375 29.167969 58.933594 29.167969 C 61.632812 29.167969 63.933594 30.066406 65.933594 31.867188 C 67.898438 33.667969 69 35.898438 69.234375 38.535156 L 69.535156 40.667969 L 74.265625 40.667969 C 76.433594 40.667969 78.300781 41.433594 79.867188 43 C 81.433594 44.566406 82.199219 46.398438 82.199219 48.535156 C 82.199219 50.535156 81.5 52.265625 80.132812 53.765625 C 78.765625 55.265625 77.066406 56.101562 75.035156 56.332031 C 74.699219 56.332031 74.535156 56.5 74.535156 56.867188 L 74.535156 60.632812 C 74.535156 61 74.699219 61.167969 75.035156 61.167969 C 78.398438 60.964844 81.234375 59.632812 83.535156 57.199219 C 85.832031 54.765625 87 51.867188 87 48.535156 C 87 45 85.765625 42 83.265625 39.535156 C 80.765625 37.035156 77.765625 35.800781 74.265625 35.800781 L 73.765625 35.800781 C 72.898438 32.464844 71.066406 29.734375 68.265625 27.566406 C 65.5 25.398438 62.367188 24.332031 58.933594 24.332031 C 54.265625 24.300781 50.367188 26.066406 47.300781 29.601562 Z M 47.300781 29.601562 "/>
</g>
</svg>
