<?xml version="1.0" encoding="UTF-8"?>
<svg xmlns="http://www.w3.org/2000/svg" xmlns:xlink="http://www.w3.org/1999/xlink" width="100px" height="100px" viewBox="0 0 100 100" version="1.1">
<g id="surface1">
<path style=" stroke:none;fill-rule:nonzero;fill:rgb(0%,0%,0%);fill-opacity:1;" d="M 15.367188 56.265625 C 15.367188 52.433594 16.566406 49.035156 18.964844 46.035156 C 21.367188 43.035156 24.398438 41.101562 28.101562 40.265625 C 29.132812 35.699219 31.5 31.964844 35.132812 29.035156 C 38.765625 26.101562 42.964844 24.632812 47.667969 24.632812 C 52.265625 24.632812 56.367188 26.066406 59.964844 28.898438 C 63.566406 31.734375 65.898438 35.398438 66.964844 39.867188 L 68.066406 39.867188 C 71.066406 39.867188 73.832031 40.601562 76.367188 42.035156 C 78.898438 43.464844 80.933594 45.464844 82.398438 48 C 83.867188 50.535156 84.632812 53.265625 84.632812 56.265625 C 84.632812 59.199219 83.933594 61.933594 82.535156 64.433594 C 81.132812 66.933594 79.199219 68.933594 76.765625 70.433594 C 74.332031 71.933594 71.632812 72.734375 68.734375 72.832031 L 31.367188 72.832031 C 26.898438 72.632812 23.132812 70.933594 20.035156 67.734375 C 16.933594 64.566406 15.367188 60.734375 15.367188 56.265625 Z M 21.066406 56.265625 C 21.066406 59.167969 22.066406 61.667969 24.066406 63.800781 C 26.066406 65.933594 28.5 67.066406 31.367188 67.234375 L 68.667969 67.234375 C 71.535156 67.101562 73.964844 65.933594 75.964844 63.800781 C 78 61.667969 79 59.132812 79 56.265625 C 79 53.332031 77.898438 50.832031 75.734375 48.699219 C 73.566406 46.566406 71 45.5 68 45.5 L 62.667969 45.5 C 62.300781 45.5 62.101562 45.300781 62.101562 44.898438 L 61.867188 43 C 61.5 39.398438 59.933594 36.367188 57.199219 33.933594 C 54.464844 31.5 51.300781 30.265625 47.667969 30.265625 C 44.035156 30.265625 40.832031 31.5 38.167969 33.933594 C 35.464844 36.367188 33.933594 39.398438 33.601562 43 L 33.332031 44.898438 C 33.332031 45.300781 33.101562 45.5 32.667969 45.5 L 30.898438 45.5 C 28.101562 45.832031 25.765625 47.035156 23.898438 49.066406 C 22.035156 51.101562 21.066406 53.5 21.066406 56.265625 Z M 21.066406 56.265625 "/>
</g>
</svg>
