<?xml version="1.0" encoding="UTF-8"?>
<svg xmlns="http://www.w3.org/2000/svg" xmlns:xlink="http://www.w3.org/1999/xlink" width="100px" height="100px" viewBox="0 0 100 100" version="1.1">
<g id="surface1">
<path style=" stroke:none;fill-rule:nonzero;fill:rgb(0%,0%,0%);fill-opacity:1;" d="M 10.332031 70.132812 C 10.332031 69.332031 10.601562 68.632812 11.167969 68.101562 C 11.734375 67.566406 12.433594 67.300781 13.265625 67.300781 L 43.167969 67.300781 C 43.964844 67.300781 44.601562 67.566406 45.132812 68.101562 C 45.667969 68.632812 45.898438 69.300781 45.898438 70.132812 C 45.898438 70.933594 45.632812 71.601562 45.101562 72.132812 C 44.566406 72.667969 43.933594 72.933594 43.132812 72.933594 L 13.265625 72.933594 C 12.433594 72.933594 11.734375 72.667969 11.167969 72.132812 C 10.601562 71.601562 10.332031 70.898438 10.332031 70.132812 Z M 19.101562 59.933594 C 19.101562 59.132812 19.398438 58.464844 20 57.933594 C 20.464844 57.433594 21.132812 57.167969 21.964844 57.167969 L 51.964844 57.167969 C 52.734375 57.167969 53.367188 57.433594 53.898438 57.933594 C 54.433594 58.433594 54.667969 59.101562 54.667969 59.898438 C 54.667969 60.699219 54.398438 61.367188 53.898438 61.933594 C 53.398438 62.5 52.734375 62.765625 51.964844 62.765625 L 21.964844 62.765625 C 21.199219 62.765625 20.535156 62.464844 19.964844 61.898438 C 19.398438 61.332031 19.101562 60.699219 19.101562 59.933594 Z M 21.167969 52.167969 C 21.167969 52.464844 21.367188 52.632812 21.734375 52.632812 L 26.5 52.632812 C 26.800781 52.632812 27.066406 52.464844 27.265625 52.167969 C 28.035156 50.367188 29.167969 48.867188 30.734375 47.667969 C 32.300781 46.464844 34.035156 45.800781 36 45.667969 L 37.800781 45.433594 C 38.167969 45.433594 38.367188 45.234375 38.367188 44.832031 L 38.601562 43.101562 C 38.964844 39.464844 40.535156 36.464844 43.234375 34.035156 C 45.964844 31.601562 49.132812 30.398438 52.800781 30.398438 C 56.433594 30.398438 59.566406 31.601562 62.234375 33.964844 C 64.898438 36.367188 66.464844 39.367188 66.933594 42.964844 L 67.167969 44.933594 C 67.167969 45.300781 67.367188 45.464844 67.765625 45.464844 L 73.101562 45.464844 C 76.132812 45.464844 78.699219 46.535156 80.832031 48.667969 C 82.964844 50.800781 84.035156 53.367188 84.035156 56.398438 C 84.035156 59.332031 82.933594 61.867188 80.800781 64 C 78.632812 66.167969 76.066406 67.234375 73.101562 67.234375 L 50.132812 67.234375 C 49.734375 67.234375 49.535156 67.433594 49.535156 67.800781 L 49.535156 72.265625 C 49.535156 72.667969 49.734375 72.867188 50.132812 72.867188 L 73.101562 72.867188 C 75.367188 72.867188 77.5 72.433594 79.566406 71.566406 C 81.632812 70.699219 83.367188 69.535156 84.832031 68.066406 C 86.300781 66.601562 87.464844 64.832031 88.332031 62.800781 C 89.199219 60.765625 89.632812 58.632812 89.632812 56.398438 C 89.632812 53.398438 88.898438 50.632812 87.433594 48.101562 C 85.964844 45.566406 83.964844 43.566406 81.433594 42.101562 C 78.898438 40.632812 76.101562 39.898438 73.101562 39.898438 L 72.066406 39.898438 C 70.964844 35.433594 68.632812 31.765625 65.066406 28.898438 C 61.464844 26.066406 57.398438 24.632812 52.800781 24.632812 C 48.066406 24.632812 43.898438 26.101562 40.265625 29.066406 C 36.632812 32 34.332031 35.765625 33.332031 40.367188 C 30.464844 41 27.933594 42.367188 25.765625 44.398438 C 23.601562 46.433594 22.101562 48.898438 21.234375 51.800781 L 21.234375 51.867188 C 21.199219 52 21.167969 52.066406 21.167969 52.167969 Z M 25 80.433594 C 25 79.632812 25.300781 78.964844 25.867188 78.433594 C 26.367188 77.898438 27.035156 77.667969 27.832031 77.667969 L 57.800781 77.667969 C 58.601562 77.667969 59.300781 77.933594 59.832031 78.464844 C 60.398438 79 60.667969 79.667969 60.667969 80.464844 C 60.667969 81.265625 60.398438 81.933594 59.832031 82.5 C 59.265625 83.066406 58.601562 83.332031 57.800781 83.332031 L 27.832031 83.332031 C 27.066406 83.332031 26.398438 83.066406 25.832031 82.5 C 25.265625 81.898438 25 81.234375 25 80.433594 Z M 25 80.433594 "/>
</g>
</svg>
