<?xml version="1.0" encoding="UTF-8"?>
<svg xmlns="http://www.w3.org/2000/svg" xmlns:xlink="http://www.w3.org/1999/xlink" width="100px" height="100px" viewBox="0 0 100 100" version="1.1">
<g id="surface1">
<path style=" stroke:none;fill-rule:nonzero;fill:rgb(0%,0%,0%);fill-opacity:1;" d="M 32.5 36.601562 C 32.5 34.933594 33.101562 33.5 34.265625 32.332031 C 35.464844 31.132812 36.867188 30.566406 38.535156 30.566406 C 40.167969 30.566406 41.601562 31.167969 42.765625 32.332031 C 43.933594 33.535156 44.535156 34.933594 44.535156 36.601562 C 44.535156 38.265625 43.933594 39.699219 42.765625 40.867188 C 41.601562 42.066406 40.167969 42.632812 38.535156 42.632812 C 36.867188 42.632812 35.433594 42.035156 34.265625 40.867188 C 33.101562 39.699219 32.5 38.265625 32.5 36.601562 Z M 35.433594 36.601562 C 35.433594 37.464844 35.734375 38.199219 36.332031 38.832031 C 36.964844 39.464844 37.699219 39.765625 38.566406 39.765625 C 39.433594 39.765625 40.167969 39.464844 40.800781 38.832031 C 41.433594 38.199219 41.734375 37.464844 41.734375 36.601562 C 41.734375 35.734375 41.433594 35 40.800781 34.367188 C 40.167969 33.734375 39.433594 33.433594 38.566406 33.433594 C 37.699219 33.433594 36.964844 33.734375 36.332031 34.367188 C 35.734375 34.964844 35.433594 35.734375 35.433594 36.601562 Z M 48.398438 51.332031 C 48.398438 53.898438 49.101562 56.167969 50.535156 58.167969 C 51.265625 59.199219 52.300781 60.035156 53.632812 60.667969 C 54.933594 61.265625 56.433594 61.601562 58.101562 61.601562 C 62.964844 61.601562 66.035156 59.734375 67.265625 56.035156 C 67.398438 55.566406 67.332031 55.101562 67.066406 54.667969 C 66.800781 54.234375 66.433594 54 65.964844 53.898438 C 65.5 53.765625 65.035156 53.832031 64.632812 54.132812 C 64.234375 54.398438 63.964844 54.765625 63.867188 55.265625 C 63.867188 55.300781 63.867188 55.332031 63.832031 55.433594 L 63.765625 55.667969 C 63.398438 56.300781 62.898438 56.800781 62.265625 57.167969 C 61.234375 57.800781 59.867188 58.101562 58.167969 58.101562 C 57.132812 58.101562 56.199219 57.933594 55.398438 57.566406 C 54.066406 57 53.132812 56 52.566406 54.601562 C 52.199219 53.699219 52 52.601562 52 51.367188 L 52 40.632812 C 52 40.132812 52.035156 39.632812 52.101562 39.132812 C 52.234375 37.867188 52.734375 36.699219 53.601562 35.667969 C 54.566406 34.5 56.101562 33.933594 58.199219 33.933594 C 59.933594 33.933594 61.300781 34.234375 62.300781 34.832031 C 62.964844 35.234375 63.464844 35.734375 63.800781 36.332031 C 63.832031 36.398438 63.832031 36.5 63.867188 36.601562 C 63.898438 36.699219 63.898438 36.765625 63.898438 36.800781 C 64.035156 37.265625 64.300781 37.601562 64.667969 37.800781 C 65.066406 38.035156 65.5 38.066406 66 37.964844 C 66.464844 37.867188 66.832031 37.601562 67.101562 37.199219 C 67.367188 36.800781 67.433594 36.367188 67.300781 35.867188 L 67.300781 35.832031 L 67.035156 35.066406 C 66.867188 34.699219 66.566406 34.199219 66.101562 33.632812 C 65.667969 33.035156 65.132812 32.566406 64.601562 32.167969 C 63.898438 31.667969 63 31.265625 61.867188 30.898438 C 60.734375 30.566406 59.5 30.398438 58.167969 30.398438 C 56.464844 30.398438 55 30.699219 53.667969 31.300781 C 52.367188 31.898438 51.332031 32.699219 50.632812 33.734375 C 49.199219 35.699219 48.464844 38 48.464844 40.632812 L 48.464844 51.332031 Z M 48.398438 51.332031 "/>
</g>
</svg>
