<?xml version="1.0" encoding="UTF-8"?>
<svg xmlns="http://www.w3.org/2000/svg" xmlns:xlink="http://www.w3.org/1999/xlink" width="100px" height="100px" viewBox="0 0 100 100" version="1.1">
<g id="surface1">
<path style=" stroke:none;fill-rule:nonzero;fill:rgb(0%,0%,0%);fill-opacity:1;" d="M 15.367188 56.265625 C 15.367188 60.734375 16.933594 64.535156 20.035156 67.734375 C 23.132812 70.933594 26.933594 72.632812 31.367188 72.832031 C 31.734375 72.832031 31.933594 72.632812 31.933594 72.265625 L 31.933594 67.800781 C 31.933594 67.398438 31.734375 67.199219 31.367188 67.199219 C 28.5 67.066406 26.066406 65.933594 24.066406 63.800781 C 22.066406 61.667969 21.066406 59.167969 21.066406 56.265625 C 21.066406 53.5 22 51.101562 23.898438 49.035156 C 25.800781 46.964844 28.132812 45.800781 30.898438 45.464844 L 32.667969 45.332031 C 33.101562 45.332031 33.332031 45.132812 33.332031 44.765625 L 33.601562 42.933594 C 33.933594 39.332031 35.433594 36.300781 38.132812 33.898438 C 40.832031 31.464844 44 30.265625 47.667969 30.265625 C 51.300781 30.265625 54.464844 31.464844 57.199219 33.898438 C 59.933594 36.332031 61.464844 39.332031 61.867188 42.933594 L 62.101562 44.867188 C 62.101562 45.234375 62.300781 45.433594 62.667969 45.433594 L 68.066406 45.433594 C 71.035156 45.433594 73.601562 46.5 75.765625 48.667969 C 77.933594 50.800781 79.035156 53.332031 79.035156 56.265625 C 79.035156 59.167969 78.035156 61.667969 76 63.800781 C 73.964844 65.933594 71.535156 67.066406 68.699219 67.199219 C 68.265625 67.199219 68.066406 67.398438 68.066406 67.800781 L 68.066406 72.265625 C 68.066406 72.632812 68.265625 72.832031 68.699219 72.832031 C 71.632812 72.765625 74.300781 71.964844 76.734375 70.433594 C 79.167969 68.933594 81.101562 66.933594 82.5 64.433594 C 83.898438 61.933594 84.601562 59.199219 84.601562 56.265625 C 84.601562 53.265625 83.867188 50.5 82.367188 48 C 80.898438 45.464844 78.867188 43.5 76.332031 42.035156 C 73.800781 40.566406 71.035156 39.867188 68.035156 39.867188 L 66.933594 39.867188 C 65.832031 35.398438 63.5 31.765625 59.933594 28.898438 C 56.367188 26.035156 52.234375 24.632812 47.632812 24.632812 C 42.933594 24.632812 38.734375 26.101562 35.101562 29 C 31.464844 31.898438 29.101562 35.667969 28.066406 40.234375 C 24.398438 41.101562 21.367188 43.035156 18.964844 46.035156 C 16.566406 49.035156 15.367188 52.433594 15.367188 56.265625 Z M 38.601562 61.332031 C 38.601562 62.132812 38.867188 62.800781 39.398438 63.332031 L 48.035156 72.035156 C 48.433594 72.566406 49.101562 72.800781 49.933594 72.800781 C 50.867188 72.800781 51.535156 72.535156 51.964844 72.035156 L 60.632812 63.332031 C 61.167969 62.765625 61.433594 62.066406 61.433594 61.332031 C 61.433594 60.566406 61.167969 59.898438 60.632812 59.398438 C 60.101562 58.898438 59.433594 58.632812 58.632812 58.632812 C 57.832031 58.632812 57.167969 58.898438 56.566406 59.398438 L 52.832031 63.101562 L 52.832031 49.832031 C 52.832031 49.035156 52.566406 48.398438 52 47.867188 C 51.433594 47.332031 50.765625 47.101562 49.964844 47.101562 C 49.167969 47.101562 48.535156 47.367188 48 47.867188 C 47.464844 48.398438 47.234375 49.035156 47.234375 49.832031 L 47.234375 63.101562 L 43.566406 59.398438 C 42.964844 58.867188 42.300781 58.632812 41.464844 58.632812 C 40.632812 58.632812 39.964844 58.898438 39.433594 59.398438 C 38.867188 59.898438 38.601562 60.566406 38.601562 61.332031 Z M 38.601562 61.332031 "/>
</g>
</svg>
