<?xml version="1.0" encoding="UTF-8"?>
<svg xmlns="http://www.w3.org/2000/svg" xmlns:xlink="http://www.w3.org/1999/xlink" width="100px" height="100px" viewBox="0 0 100 100" version="1.1">
<g id="surface1">
<path style=" stroke:none;fill-rule:nonzero;fill:rgb(0%,0%,0%);fill-opacity:1;" d="M 15.433594 56.367188 C 15.433594 58.566406 15.832031 60.632812 16.699219 62.632812 C 17.535156 64.632812 18.667969 66.332031 20.101562 67.800781 C 21.535156 69.234375 23.234375 70.433594 25.199219 71.300781 C 27.167969 72.199219 29.234375 72.699219 31.433594 72.800781 C 31.800781 72.800781 32 72.601562 32 72.234375 L 32 67.800781 C 32 67.398438 31.800781 67.167969 31.433594 67.167969 C 28.535156 66.964844 26.101562 65.800781 24.132812 63.734375 C 22.167969 61.667969 21.167969 59.199219 21.167969 56.367188 C 21.167969 53.566406 22.101562 51.132812 24 49.066406 C 25.898438 47 28.199219 45.832031 31 45.601562 L 32.734375 45.367188 C 33.167969 45.367188 33.398438 45.167969 33.398438 44.800781 L 33.632812 43.066406 C 33.867188 40.699219 34.632812 38.535156 35.933594 36.566406 C 37.234375 34.632812 38.933594 33.101562 41 32 C 43.066406 30.898438 45.300781 30.367188 47.699219 30.367188 C 51.332031 30.367188 54.535156 31.566406 57.234375 33.964844 C 59.964844 36.367188 61.5 39.367188 61.867188 42.964844 L 62.066406 44.867188 C 62.066406 45.265625 62.265625 45.464844 62.699219 45.464844 L 68.066406 45.464844 C 71.066406 45.464844 73.632812 46.535156 75.800781 48.699219 C 77.933594 50.832031 79.035156 53.398438 79.035156 56.367188 C 79.035156 59.199219 78.035156 61.667969 76.066406 63.734375 C 74.101562 65.800781 71.667969 66.964844 68.765625 67.167969 C 68.332031 67.167969 68.101562 67.367188 68.101562 67.800781 L 68.101562 72.234375 C 68.101562 72.601562 68.332031 72.800781 68.765625 72.800781 C 73.234375 72.601562 77 70.898438 80.066406 67.765625 C 83.132812 64.632812 84.667969 60.800781 84.667969 56.367188 C 84.667969 53.398438 83.933594 50.632812 82.433594 48.101562 C 80.933594 45.566406 78.933594 43.566406 76.398438 42.101562 C 73.867188 40.632812 71.101562 39.867188 68.132812 39.867188 L 67.066406 39.867188 C 65.964844 35.433594 63.601562 31.800781 60.035156 28.933594 C 56.332031 26.066406 52.234375 24.667969 47.667969 24.667969 C 42.964844 24.667969 38.800781 26.132812 35.167969 29.101562 C 31.535156 32.066406 29.167969 35.800781 28.132812 40.367188 C 24.433594 41.234375 21.398438 43.167969 19.035156 46.167969 C 16.632812 49.132812 15.433594 52.535156 15.433594 56.367188 Z M 36.199219 60.601562 C 36.199219 63.066406 36.832031 65.367188 38.066406 67.5 C 39.300781 69.632812 41 71.300781 43.101562 72.535156 C 45.199219 73.800781 47.5 74.398438 49.964844 74.398438 C 53.800781 74.398438 57.066406 73.035156 59.800781 70.332031 C 62.535156 67.601562 63.898438 64.367188 63.898438 60.601562 C 63.898438 59.832031 63.632812 59.167969 63.066406 58.601562 C 62.5 58.035156 61.832031 57.765625 61.035156 57.765625 C 60.234375 57.765625 59.566406 58.035156 59 58.601562 C 58.433594 59.167969 58.132812 59.832031 58.132812 60.601562 C 58.132812 62.832031 57.332031 64.734375 55.734375 66.367188 C 54.132812 67.964844 52.234375 68.765625 49.964844 68.765625 C 47.765625 68.765625 45.867188 67.964844 44.265625 66.367188 C 42.667969 64.765625 41.867188 62.832031 41.867188 60.601562 C 41.867188 58.601562 42.464844 56.832031 43.632812 55.265625 C 44.832031 53.699219 46.265625 52.832031 48 52.699219 L 46.632812 54 C 46.132812 54.5 45.867188 55.132812 45.867188 55.898438 C 45.867188 56.734375 46.101562 57.464844 46.632812 58.101562 C 47.101562 58.601562 47.667969 58.867188 48.398438 58.867188 C 49.132812 58.898438 49.898438 58.632812 50.734375 58.101562 L 56.800781 51.867188 C 57.367188 51.300781 57.632812 50.667969 57.632812 49.933594 C 57.632812 49.101562 57.367188 48.433594 56.800781 47.898438 L 50.734375 41.800781 C 50.101562 41.199219 49.433594 40.933594 48.667969 40.933594 C 47.898438 40.933594 47.234375 41.199219 46.699219 41.765625 C 46.167969 42.332031 45.898438 43 45.898438 43.800781 C 45.898438 44.601562 46.132812 45.234375 46.667969 45.734375 L 47.832031 46.933594 C 44.5 47.5 41.734375 49.035156 39.535156 51.601562 C 37.300781 54.132812 36.199219 57.132812 36.199219 60.601562 Z M 36.199219 60.601562 "/>
</g>
</svg>
