<?xml version="1.0" encoding="UTF-8"?>
<svg xmlns="http://www.w3.org/2000/svg" xmlns:xlink="http://www.w3.org/1999/xlink" width="100px" height="100px" viewBox="0 0 100 100" version="1.1">
<g id="surface1">
<path style=" stroke:none;fill-rule:nonzero;fill:rgb(0%,0%,0%);fill-opacity:1;" d="M 15.464844 56.265625 C 15.464844 60.699219 17 64.535156 20.101562 67.699219 C 23.199219 70.898438 26.964844 72.601562 31.433594 72.800781 C 31.800781 72.800781 32 72.601562 32 72.234375 L 32 67.800781 C 32 67.398438 31.800781 67.167969 31.433594 67.167969 C 28.566406 67.035156 26.167969 65.898438 24.167969 63.765625 C 22.167969 61.632812 21.167969 59.132812 21.167969 56.265625 C 21.167969 53.535156 22.101562 51.132812 23.964844 49.066406 C 25.832031 47.035156 28.167969 45.832031 30.964844 45.5 L 32.734375 45.5 C 33.167969 45.5 33.398438 45.300781 33.398438 44.898438 L 33.601562 43 C 33.964844 39.398438 35.5 36.367188 38.199219 33.933594 C 40.898438 31.5 44.101562 30.265625 47.734375 30.265625 C 51.332031 30.265625 54.5 31.5 57.234375 33.933594 C 59.964844 36.367188 61.5 39.398438 61.867188 43 L 62.132812 44.898438 C 62.132812 45.300781 62.332031 45.5 62.734375 45.5 L 68.101562 45.5 C 71.066406 45.5 73.632812 46.566406 75.800781 48.699219 C 77.964844 50.832031 79.066406 53.367188 79.066406 56.234375 C 79.066406 59.101562 78.066406 61.601562 76.066406 63.734375 C 74.066406 65.867188 71.632812 67 68.800781 67.132812 C 68.367188 67.132812 68.132812 67.332031 68.132812 67.765625 L 68.132812 72.199219 C 68.132812 72.566406 68.367188 72.765625 68.800781 72.765625 C 71.699219 72.699219 74.367188 71.898438 76.800781 70.398438 C 79.234375 68.898438 81.167969 66.898438 82.566406 64.398438 C 83.964844 61.898438 84.667969 59.167969 84.667969 56.265625 C 84.667969 54.035156 84.234375 51.898438 83.367188 49.898438 C 82.5 47.867188 81.300781 46.132812 79.832031 44.667969 C 78.367188 43.199219 76.601562 42.035156 74.566406 41.167969 C 72.535156 40.300781 70.398438 39.867188 68.167969 39.867188 L 67.101562 39.867188 C 66 35.398438 63.667969 31.765625 60.066406 28.898438 C 56.5 26.066406 52.398438 24.632812 47.800781 24.632812 C 43.101562 24.632812 38.898438 26.101562 35.265625 29.035156 C 31.632812 31.964844 29.300781 35.699219 28.265625 40.234375 C 24.566406 41.101562 21.535156 43 19.167969 46 C 16.632812 49.035156 15.464844 52.433594 15.464844 56.265625 Z M 38.601562 58.367188 C 38.601562 59.199219 38.867188 59.898438 39.398438 60.5 C 39.898438 61 40.566406 61.265625 41.433594 61.265625 C 42.234375 61.265625 42.933594 61 43.5 60.5 L 47.199219 56.699219 L 47.199219 69.964844 C 47.199219 70.765625 47.464844 71.433594 47.964844 72 C 48.5 72.566406 49.132812 72.832031 49.933594 72.832031 C 50.699219 72.832031 51.367188 72.566406 51.933594 72 C 52.5 71.433594 52.765625 70.765625 52.765625 69.964844 L 52.765625 56.832031 L 56.5 60.535156 C 57.832031 61.566406 59.199219 61.566406 60.566406 60.535156 C 61.101562 60.035156 61.367188 59.332031 61.367188 58.464844 C 61.367188 57.667969 61.101562 57 60.566406 56.398438 L 51.933594 47.832031 C 51.398438 47.300781 50.734375 47.035156 49.933594 47.035156 C 49.132812 47.035156 48.464844 47.300781 47.964844 47.832031 L 39.367188 56.398438 C 38.867188 56.933594 38.601562 57.566406 38.601562 58.367188 Z M 38.601562 58.367188 "/>
</g>
</svg>
