<?xml version="1.0" encoding="UTF-8"?>
<svg xmlns="http://www.w3.org/2000/svg" xmlns:xlink="http://www.w3.org/1999/xlink" width="100px" height="100px" viewBox="0 0 100 100" version="1.1">
<g id="surface1">
<path style=" stroke:none;fill-rule:nonzero;fill:rgb(0%,0%,0%);fill-opacity:1;" d="M 1.5 69.898438 C 1.5 70.699219 1.765625 71.398438 2.300781 71.933594 C 3.765625 72.535156 4.734375 72.832031 5.234375 72.832031 L 31.5 72.832031 C 32.300781 72.832031 32.964844 72.535156 33.5 71.964844 C 34.066406 71.398438 34.332031 70.699219 34.332031 69.933594 C 34.332031 69.167969 34.066406 68.5 33.5 67.964844 C 32.933594 67.433594 32.265625 67.167969 31.5 67.167969 L 5.234375 67.167969 C 4.367188 67.167969 3.5 67.433594 2.699219 67.964844 C 1.898438 68.5 1.5 69.167969 1.5 69.898438 Z M 6.132812 59.898438 C 6.132812 60.699219 6.398438 61.332031 6.964844 61.867188 C 7.464844 62.433594 8.101562 62.734375 8.898438 62.734375 L 40.234375 62.734375 C 41.035156 62.734375 41.699219 62.464844 42.265625 61.898438 C 42.832031 61.332031 43.101562 60.667969 43.101562 59.898438 C 43.101562 59.101562 42.832031 58.433594 42.265625 57.867188 C 41.699219 57.300781 41.035156 57.035156 40.234375 57.035156 L 8.898438 57.035156 C 8.132812 57.035156 7.464844 57.300781 6.933594 57.867188 C 6.398438 58.433594 6.132812 59.101562 6.132812 59.898438 Z M 9.632812 52 C 9.632812 52.300781 9.832031 52.433594 10.199219 52.433594 L 14.832031 52.433594 C 15.234375 52.433594 15.464844 52.300781 15.566406 52 C 16.433594 50.234375 17.632812 48.765625 19.199219 47.601562 C 20.765625 46.433594 22.535156 45.765625 24.464844 45.535156 L 26.265625 45.535156 C 26.632812 45.535156 26.800781 45.332031 26.800781 44.898438 L 27.035156 43.035156 C 27.265625 40.667969 28.035156 38.5 29.332031 36.535156 C 30.632812 34.601562 32.332031 33.066406 34.433594 31.964844 C 36.535156 30.867188 38.765625 30.300781 41.167969 30.300781 C 44.800781 30.300781 47.964844 31.535156 50.667969 33.964844 C 53.367188 36.398438 54.898438 39.433594 55.300781 43.035156 L 55.535156 44.898438 C 55.535156 45.300781 55.734375 45.535156 56.132812 45.535156 L 61.464844 45.535156 C 64.433594 45.535156 66.964844 46.601562 69.132812 48.734375 C 71.300781 50.867188 72.367188 53.367188 72.367188 56.300781 C 72.367188 59.300781 71.300781 61.867188 69.132812 64 C 67 66.132812 64.433594 67.199219 61.433594 67.199219 L 38.464844 67.199219 C 38.101562 67.199219 37.898438 67.398438 37.898438 67.832031 L 37.898438 72.265625 C 37.898438 72.667969 38.101562 72.867188 38.464844 72.867188 L 61.433594 72.867188 C 64.433594 72.867188 67.199219 72.132812 69.734375 70.632812 C 72.265625 69.167969 74.300781 67.132812 75.765625 64.601562 C 77.234375 62.066406 78 59.300781 78 56.300781 C 78 53.867188 77.535156 51.667969 76.566406 49.601562 C 79.167969 46.398438 80.433594 42.734375 80.433594 38.667969 C 80.433594 35.535156 79.632812 32.632812 78.066406 29.933594 C 76.5 27.234375 74.367188 25.101562 71.667969 23.535156 C 68.964844 21.964844 66.035156 21.167969 62.898438 21.167969 C 60.464844 21.167969 58.132812 21.667969 55.898438 22.667969 C 53.667969 23.667969 51.734375 25.035156 50.101562 26.832031 C 47.332031 25.398438 44.332031 24.667969 41.101562 24.667969 C 36.398438 24.667969 32.199219 26.132812 28.566406 29.035156 C 24.933594 31.933594 22.601562 35.667969 21.601562 40.234375 C 18.765625 40.933594 16.265625 42.332031 14.101562 44.398438 C 11.933594 46.464844 10.433594 48.933594 9.601562 51.765625 C 9.667969 51.832031 9.632812 51.898438 9.632812 52 Z M 12 80.535156 C 12 81.332031 12.300781 81.964844 12.867188 82.5 C 13.398438 83.066406 14.066406 83.332031 14.832031 83.332031 L 46.234375 83.332031 C 47 83.332031 47.667969 83.066406 48.199219 82.5 C 48.734375 81.933594 49 81.300781 49 80.5 C 49 79.667969 48.734375 78.964844 48.199219 78.433594 C 47.667969 77.898438 47 77.601562 46.199219 77.601562 L 14.832031 77.601562 C 14.035156 77.601562 13.367188 77.867188 12.832031 78.433594 C 12.300781 79 12 79.699219 12 80.535156 Z M 36.964844 15.5 C 36.964844 16.332031 37.234375 17 37.765625 17.5 L 39.898438 19.699219 C 40.433594 20.234375 41.101562 20.5 41.898438 20.5 C 42.765625 20.5 43.433594 20.234375 43.964844 19.699219 C 44.5 19.167969 44.765625 18.5 44.765625 17.667969 C 44.765625 16.898438 44.5 16.234375 43.964844 15.699219 L 41.800781 13.535156 C 41.234375 12.964844 40.601562 12.699219 39.898438 12.699219 C 39.066406 12.699219 38.367188 12.964844 37.800781 13.535156 C 37.234375 14.101562 36.964844 14.734375 36.964844 15.5 Z M 54.832031 30.101562 C 57.035156 28 59.765625 26.933594 63 26.933594 C 66.234375 26.933594 69 28.066406 71.300781 30.367188 C 73.566406 32.632812 74.734375 35.398438 74.734375 38.667969 C 74.734375 40.898438 74.234375 42.898438 73.199219 44.699219 C 70.066406 41.535156 66.167969 39.933594 61.535156 39.933594 L 60.535156 39.933594 C 59.566406 36.101562 57.667969 32.832031 54.832031 30.101562 Z M 60.167969 12.699219 C 60.167969 13.5 60.433594 14.132812 61 14.667969 C 61.566406 15.199219 62.199219 15.433594 63 15.433594 C 63.832031 15.433594 64.5 15.167969 65 14.667969 C 65.5 14.167969 65.765625 13.5 65.765625 12.667969 L 65.765625 5.867188 C 65.765625 5.066406 65.5 4.367188 65 3.832031 C 64.464844 3.265625 63.800781 3 63 3 C 62.234375 3 61.566406 3.265625 61 3.832031 C 60.433594 4.398438 60.167969 5.066406 60.167969 5.867188 Z M 78.566406 20.300781 C 78.566406 21.101562 78.832031 21.765625 79.398438 22.300781 C 79.800781 22.832031 80.5 23.101562 81.398438 23.101562 C 82.300781 23.101562 82.964844 22.832031 83.367188 22.300781 L 88.234375 17.5 C 88.765625 17 89.035156 16.300781 89.035156 15.433594 C 89.035156 14.667969 88.765625 14 88.199219 13.433594 C 87.632812 12.867188 86.964844 12.601562 86.199219 12.601562 C 85.433594 12.601562 84.734375 12.867188 84.167969 13.367188 L 79.433594 18.332031 C 78.867188 18.898438 78.566406 19.535156 78.566406 20.300781 Z M 81.234375 59.832031 C 81.234375 60.632812 81.5 61.300781 82 61.832031 L 84.199219 63.933594 C 85 64.535156 85.699219 64.832031 86.234375 64.832031 C 86.765625 64.832031 87.464844 64.535156 88.265625 63.933594 C 88.800781 63.398438 89.066406 62.734375 89.066406 61.933594 C 89.066406 61.167969 88.800781 60.5 88.265625 59.898438 L 86.132812 57.867188 C 85.5 57.300781 84.800781 57 83.964844 57 C 83.167969 57 82.535156 57.265625 82 57.800781 C 81.5 58.367188 81.234375 59.035156 81.234375 59.832031 Z M 86.035156 38.765625 C 86.035156 39.566406 86.332031 40.265625 86.933594 40.800781 C 87.535156 41.367188 88.199219 41.632812 88.933594 41.632812 L 95.699219 41.632812 C 96.464844 41.632812 97.101562 41.367188 97.667969 40.800781 C 98.234375 40.234375 98.5 39.566406 98.5 38.765625 C 98.5 38.035156 98.234375 37.398438 97.699219 36.867188 C 97.167969 36.367188 96.5 36.101562 95.734375 36.101562 L 88.964844 36.101562 C 88.167969 36.101562 87.464844 36.367188 86.898438 36.867188 C 86.332031 37.398438 86.035156 38.035156 86.035156 38.765625 Z M 86.035156 38.765625 "/>
</g>
</svg>
