<?xml version="1.0" encoding="UTF-8"?>
<svg xmlns="http://www.w3.org/2000/svg" xmlns:xlink="http://www.w3.org/1999/xlink" width="100px" height="100px" viewBox="0 0 100 100" version="1.1">
<g id="surface1">
<path style=" stroke:none;fill-rule:nonzero;fill:rgb(0%,0%,0%);fill-opacity:1;" d="M 1.066406 70.199219 C 1.066406 70.964844 1.332031 71.632812 1.898438 72.167969 C 2.464844 72.699219 3.167969 72.964844 4 72.964844 L 66.367188 72.964844 C 67.167969 72.964844 67.832031 72.699219 68.398438 72.167969 C 68.964844 71.632812 69.234375 71 69.234375 70.199219 C 69.234375 69.398438 68.964844 68.734375 68.398438 68.199219 C 67.832031 67.632812 67.167969 67.367188 66.367188 67.367188 L 4 67.367188 C 3.167969 67.367188 2.464844 67.632812 1.898438 68.199219 C 1.332031 68.765625 1.066406 69.398438 1.066406 70.199219 Z M 9.800781 59.734375 C 9.800781 60.5 10.066406 61.167969 10.632812 61.667969 C 11.199219 62.265625 11.867188 62.566406 12.632812 62.566406 L 75.035156 62.566406 C 75.800781 62.566406 76.464844 62.300781 77 61.734375 C 77.535156 61.167969 77.800781 60.5 77.800781 59.734375 C 77.800781 58.964844 77.535156 58.300781 77.035156 57.765625 C 76.5 57.234375 75.867188 56.964844 75.066406 56.964844 L 12.667969 56.964844 C 11.867188 56.964844 11.199219 57.234375 10.667969 57.765625 C 10.101562 58.332031 9.800781 58.964844 9.800781 59.734375 Z M 10.234375 51.734375 C 10.234375 52.035156 10.398438 52.167969 10.765625 52.167969 L 15.535156 52.167969 C 15.765625 52.167969 16 52 16.234375 51.632812 C 17.035156 49.898438 18.199219 48.5 19.765625 47.398438 C 21.332031 46.300781 23.066406 45.667969 24.964844 45.535156 L 26.765625 45.300781 C 27.132812 45.300781 27.332031 45.101562 27.332031 44.699219 L 27.566406 43 C 27.933594 39.398438 29.433594 36.398438 32.132812 33.964844 C 34.832031 31.566406 38 30.332031 41.667969 30.332031 C 45.265625 30.332031 48.433594 31.535156 51.132812 33.933594 C 53.832031 36.332031 55.367188 39.300781 55.734375 42.867188 L 55.964844 44.800781 C 55.964844 45.167969 56.167969 45.367188 56.601562 45.367188 L 61.964844 45.367188 C 64.101562 45.367188 66.066406 45.933594 67.832031 47.101562 C 69.601562 48.234375 70.898438 49.765625 71.765625 51.667969 C 72 52.035156 72.199219 52.199219 72.433594 52.199219 L 77.234375 52.199219 C 77.667969 52.199219 77.832031 51.964844 77.667969 51.433594 L 77 49.601562 C 79.535156 46.464844 80.765625 42.800781 80.765625 38.566406 C 80.765625 36.199219 80.300781 33.964844 79.398438 31.800781 C 78.5 29.632812 77.265625 27.800781 75.699219 26.234375 C 74.167969 24.667969 72.300781 23.433594 70.132812 22.5 C 67.964844 21.566406 65.734375 21.167969 63.332031 21.167969 C 58.199219 21.167969 53.933594 23.035156 50.601562 26.765625 C 47.765625 25.367188 44.800781 24.667969 41.667969 24.667969 C 37 24.667969 32.832031 26.132812 29.199219 29.066406 C 25.566406 32 23.234375 35.734375 22.199219 40.300781 C 16.265625 41.867188 12.265625 45.566406 10.265625 51.464844 C 10.234375 51.5 10.234375 51.601562 10.234375 51.734375 Z M 15.632812 80.433594 C 15.632812 81.234375 15.933594 81.898438 16.535156 82.433594 C 17.066406 83 17.699219 83.300781 18.5 83.300781 L 80.964844 83.300781 C 81.734375 83.300781 82.398438 83.035156 82.964844 82.464844 C 83.535156 81.898438 83.800781 81.234375 83.800781 80.433594 C 83.800781 79.667969 83.535156 79.035156 82.964844 78.5 C 82.398438 78 81.734375 77.734375 80.964844 77.734375 L 18.5 77.734375 C 17.699219 77.734375 17.035156 78 16.464844 78.5 C 15.898438 79.035156 15.632812 79.667969 15.632812 80.433594 Z M 37.535156 15.535156 C 37.535156 16.332031 37.800781 16.964844 38.300781 17.5 L 40.464844 19.632812 C 41.035156 20.234375 41.667969 20.535156 42.398438 20.535156 C 43.132812 20.535156 43.800781 20.265625 44.398438 19.699219 C 44.964844 19.132812 45.265625 18.464844 45.265625 17.667969 C 45.265625 16.867188 45 16.167969 44.433594 15.566406 L 42.300781 13.535156 C 41.765625 12.964844 41.101562 12.667969 40.300781 12.667969 C 39.5 12.667969 38.832031 12.933594 38.300781 13.5 C 37.800781 14.035156 37.535156 14.734375 37.535156 15.535156 Z M 55.265625 30.132812 C 57.5 27.867188 60.199219 26.765625 63.367188 26.765625 C 66.632812 26.765625 69.433594 27.933594 71.734375 30.234375 C 74.035156 32.535156 75.199219 35.332031 75.199219 38.566406 C 75.199219 40.734375 74.667969 42.734375 73.566406 44.566406 C 70.398438 41.398438 66.535156 39.832031 62 39.832031 L 60.867188 39.832031 C 59.898438 35.898438 58.035156 32.667969 55.265625 30.132812 Z M 60.601562 12.699219 C 60.601562 13.464844 60.867188 14.132812 61.398438 14.667969 C 61.933594 15.199219 62.566406 15.464844 63.367188 15.464844 C 64.199219 15.464844 64.898438 15.199219 65.464844 14.667969 C 66.035156 14.132812 66.300781 13.5 66.300781 12.699219 L 66.300781 5.867188 C 66.300781 5.101562 66 4.433594 65.433594 3.867188 C 64.832031 3.300781 64.132812 3.035156 63.332031 3.035156 C 62.566406 3.035156 61.898438 3.300781 61.367188 3.867188 C 60.832031 4.433594 60.566406 5.101562 60.566406 5.867188 L 60.566406 12.699219 Z M 78.898438 20.265625 C 78.898438 21 79.167969 21.699219 79.699219 22.265625 C 80.933594 23.464844 82.300781 23.464844 83.800781 22.265625 L 88.566406 17.5 C 89.101562 16.898438 89.367188 16.199219 89.367188 15.367188 C 89.367188 14.601562 89.101562 13.933594 88.566406 13.398438 C 88.035156 12.867188 87.367188 12.601562 86.601562 12.601562 C 85.800781 12.601562 85.132812 12.867188 84.601562 13.398438 L 79.734375 18.300781 C 79.167969 18.898438 78.898438 19.566406 78.898438 20.265625 Z M 81.601562 59.601562 C 81.601562 60.398438 81.898438 61.066406 82.464844 61.601562 L 84.601562 63.765625 C 85.132812 64.300781 85.800781 64.566406 86.535156 64.566406 C 87.234375 64.566406 87.898438 64.300781 88.566406 63.765625 C 89.101562 63.199219 89.367188 62.464844 89.367188 61.632812 C 89.367188 60.898438 89.101562 60.265625 88.566406 59.765625 L 86.398438 57.566406 C 85.800781 57.035156 85.132812 56.765625 84.398438 56.765625 C 83.601562 56.765625 82.933594 57.035156 82.398438 57.601562 C 81.867188 58.132812 81.601562 58.800781 81.601562 59.601562 Z M 86.535156 38.566406 C 86.535156 39.367188 86.832031 40.035156 87.398438 40.566406 C 87.898438 41.132812 88.566406 41.398438 89.367188 41.398438 L 96.199219 41.398438 C 96.964844 41.398438 97.632812 41.132812 98.167969 40.566406 C 98.699219 40 98.964844 39.332031 98.964844 38.566406 C 98.964844 37.765625 98.699219 37.101562 98.167969 36.566406 C 97.632812 36.035156 97 35.765625 96.199219 35.765625 L 89.367188 35.765625 C 88.566406 35.765625 87.898438 36.035156 87.367188 36.601562 C 86.800781 37.132812 86.535156 37.800781 86.535156 38.566406 Z M 86.535156 38.566406 "/>
</g>
</svg>
