<?xml version="1.0" encoding="UTF-8"?>
<svg xmlns="http://www.w3.org/2000/svg" xmlns:xlink="http://www.w3.org/1999/xlink" width="100px" height="100px" viewBox="0 0 100 100" version="1.1">
<g id="surface1">
<path style=" stroke:none;fill-rule:nonzero;fill:rgb(0%,0%,0%);fill-opacity:1;" d="M 4.933594 56.5 C 4.933594 60.898438 6.464844 64.699219 9.5 67.832031 C 12.535156 70.964844 16.300781 72.667969 20.765625 72.867188 C 21.167969 72.867188 21.367188 72.667969 21.367188 72.300781 L 21.367188 67.867188 C 21.367188 67.464844 21.167969 67.265625 20.765625 67.265625 C 17.898438 67.132812 15.5 66 13.535156 63.933594 C 11.566406 61.867188 10.601562 59.367188 10.601562 56.464844 C 10.601562 53.667969 11.535156 51.199219 13.398438 49.167969 C 15.265625 47.101562 17.601562 45.964844 20.398438 45.734375 L 22.167969 45.464844 C 22.535156 45.464844 22.699219 45.300781 22.699219 45 L 22.964844 43.167969 C 23.367188 39.535156 24.933594 36.5 27.566406 34.101562 C 30.199219 31.699219 33.332031 30.535156 37 30.535156 C 40.667969 30.535156 43.832031 31.734375 46.535156 34.132812 C 49.265625 36.535156 50.800781 39.535156 51.132812 43.101562 L 51.367188 45.035156 C 51.433594 45.398438 51.699219 45.601562 52.101562 45.601562 L 57.433594 45.601562 C 60.398438 45.601562 62.933594 46.667969 65.066406 48.800781 C 67.199219 50.933594 68.265625 53.5 68.265625 56.5 C 68.265625 59.398438 67.300781 61.867188 65.332031 63.964844 C 63.367188 66.066406 60.964844 67.132812 58.101562 67.300781 C 57.667969 67.300781 57.433594 67.5 57.433594 67.898438 L 57.433594 72.332031 C 57.433594 72.699219 57.667969 72.898438 58.101562 72.898438 C 62.535156 72.765625 66.265625 71.101562 69.332031 67.933594 C 72.367188 64.765625 73.898438 60.964844 73.898438 56.535156 C 73.898438 54.265625 73.464844 52.066406 72.632812 49.832031 C 75.234375 46.632812 76.5 42.898438 76.5 38.667969 C 76.5 36.300781 76.035156 34.066406 75.132812 31.898438 C 74.234375 29.734375 72.964844 27.898438 71.398438 26.332031 C 69.832031 24.765625 67.964844 23.535156 65.832031 22.601562 C 63.699219 21.667969 61.398438 21.199219 59.035156 21.199219 C 53.898438 21.199219 49.601562 23.132812 46.167969 27 C 43.199219 25.535156 40.132812 24.800781 37.035156 24.800781 C 32.332031 24.800781 28.167969 26.265625 24.566406 29.167969 C 20.964844 32.066406 18.667969 35.832031 17.632812 40.433594 C 13.898438 41.300781 10.832031 43.199219 8.464844 46.199219 C 6.101562 49.199219 4.933594 52.632812 4.933594 56.5 Z M 22.765625 79.933594 C 22.765625 80.5 22.933594 81.066406 23.300781 81.632812 C 23.667969 82.199219 24.199219 82.566406 24.867188 82.800781 C 25.632812 83.035156 26.367188 83 27 82.667969 C 27.667969 82.367188 28.101562 81.734375 28.332031 80.800781 L 28.800781 78.765625 C 28.964844 78 28.867188 77.300781 28.464844 76.667969 C 28.066406 76 27.5 75.566406 26.734375 75.332031 C 25.964844 75.101562 25.265625 75.199219 24.601562 75.601562 C 23.933594 76 23.535156 76.566406 23.332031 77.332031 L 22.867188 79.300781 C 22.800781 79.5 22.765625 79.699219 22.765625 79.933594 Z M 25.332031 70.265625 C 25.332031 71 25.601562 71.632812 26.132812 72.167969 C 26.667969 72.765625 27.300781 73.035156 28 73.035156 C 28.800781 73.035156 29.464844 72.765625 30 72.234375 C 30.566406 71.699219 30.832031 71.066406 30.832031 70.265625 C 30.832031 69.5 30.566406 68.832031 30 68.300781 C 29.433594 67.765625 28.765625 67.5 28 67.5 C 27.234375 67.5 26.601562 67.765625 26.066406 68.265625 C 25.535156 68.765625 25.332031 69.5 25.332031 70.265625 Z M 27.367188 62.699219 C 27.332031 63.234375 27.464844 63.734375 27.800781 64.199219 C 28.132812 64.699219 28.667969 65.035156 29.398438 65.265625 C 30.101562 65.464844 30.765625 65.398438 31.464844 65.035156 C 32.167969 64.667969 32.632812 64.101562 32.867188 63.332031 L 33.765625 60.332031 C 34 59.535156 33.933594 58.800781 33.535156 58.167969 C 33.132812 57.535156 32.535156 57.101562 31.734375 56.867188 C 31 56.632812 30.300781 56.699219 29.632812 57.101562 C 28.964844 57.464844 28.5 58.035156 28.265625 58.765625 L 27.464844 61.832031 C 27.398438 62.367188 27.367188 62.667969 27.367188 62.699219 Z M 31.199219 90.332031 C 31.199219 90.898438 31.367188 91.433594 31.734375 91.964844 C 32.101562 92.5 32.632812 92.867188 33.367188 93.066406 C 33.667969 93.132812 33.933594 93.167969 34.167969 93.167969 C 35.601562 93.167969 36.5 92.5 36.832031 91.132812 L 37.265625 89.167969 C 37.464844 88.300781 37.367188 87.566406 37 86.898438 C 36.632812 86.234375 36.035156 85.832031 35.265625 85.667969 C 34.566406 85.433594 33.867188 85.5 33.167969 85.898438 C 32.464844 86.300781 32.035156 86.867188 31.800781 87.601562 L 31.332031 89.601562 C 31.234375 89.964844 31.199219 90.234375 31.199219 90.332031 Z M 33.066406 15.535156 C 33.066406 16.332031 33.332031 17 33.867188 17.535156 L 36.066406 19.667969 C 36.535156 20.199219 37.132812 20.464844 37.867188 20.535156 C 38.601562 20.601562 39.300781 20.300781 39.933594 19.667969 C 40.464844 19.132812 40.734375 18.464844 40.734375 17.699219 C 40.734375 16.898438 40.464844 16.234375 39.933594 15.699219 L 37.832031 13.535156 C 37.332031 13 36.667969 12.734375 35.898438 12.667969 C 35.132812 12.667969 34.464844 12.933594 33.898438 13.5 C 33.367188 14.066406 33.066406 14.734375 33.066406 15.535156 Z M 33.832031 80.667969 C 33.832031 81.433594 34.101562 82.066406 34.632812 82.601562 C 35.167969 83.132812 35.832031 83.398438 36.566406 83.398438 C 37.367188 83.398438 38 83.132812 38.535156 82.632812 C 39.066406 82.101562 39.300781 81.464844 39.300781 80.667969 C 39.300781 79.898438 39.035156 79.265625 38.535156 78.734375 C 38 78.199219 37.367188 77.964844 36.566406 77.964844 C 35.765625 77.964844 35.132812 78.234375 34.601562 78.734375 C 34.066406 79.234375 33.832031 79.898438 33.832031 80.667969 Z M 35.898438 73.101562 C 35.867188 73.601562 36 74.132812 36.367188 74.667969 C 36.699219 75.199219 37.199219 75.535156 37.867188 75.667969 C 38.632812 75.867188 39.332031 75.800781 40 75.464844 C 40.667969 75.132812 41.101562 74.5 41.367188 73.601562 L 42.234375 70.601562 C 42.464844 69.867188 42.398438 69.167969 42 68.5 C 41.601562 67.832031 41.035156 67.398438 40.234375 67.167969 C 39.5 66.933594 38.800781 67.035156 38.101562 67.433594 C 37.398438 67.832031 36.964844 68.433594 36.734375 69.199219 L 36 72.199219 C 35.933594 72.464844 35.898438 72.765625 35.898438 73.101562 Z M 45.101562 80.265625 C 45.101562 80.832031 45.265625 81.367188 45.601562 81.867188 C 45.933594 82.367188 46.433594 82.734375 47.132812 82.933594 C 47.234375 82.933594 47.398438 82.964844 47.601562 83 C 47.800781 83.035156 47.964844 83.066406 48.066406 83.066406 C 49.433594 83.066406 50.265625 82.332031 50.601562 80.867188 L 51.066406 78.867188 C 51.300781 78.167969 51.234375 77.464844 50.832031 76.765625 C 50.433594 76.066406 49.867188 75.632812 49.132812 75.398438 C 48.300781 75.199219 47.535156 75.265625 46.867188 75.667969 C 46.199219 76.066406 45.734375 76.632812 45.5 77.433594 L 45.199219 79.398438 C 45.199219 79.433594 45.199219 79.566406 45.167969 79.765625 C 45.132812 80 45.101562 80.132812 45.101562 80.265625 Z M 47.566406 70.398438 C 47.566406 71.167969 47.832031 71.800781 48.367188 72.300781 C 48.867188 72.832031 49.5 73.101562 50.300781 73.101562 C 51.101562 73.101562 51.734375 72.832031 52.265625 72.332031 C 52.800781 71.800781 53.035156 71.167969 53.035156 70.398438 C 53.035156 69.601562 52.765625 68.964844 52.265625 68.433594 C 51.734375 67.898438 51.101562 67.667969 50.300781 67.667969 C 49.5 67.667969 48.867188 67.933594 48.332031 68.433594 C 47.800781 68.933594 47.566406 69.601562 47.566406 70.398438 Z M 49.601562 62.699219 C 49.601562 63.265625 49.765625 63.800781 50.132812 64.300781 C 50.5 64.800781 51.035156 65.167969 51.765625 65.367188 C 51.832031 65.367188 51.964844 65.398438 52.167969 65.433594 C 52.367188 65.464844 52.535156 65.5 52.632812 65.5 C 53 65.5 53.398438 65.398438 53.867188 65.199219 C 54.566406 64.832031 55 64.265625 55.199219 63.464844 L 56 60.464844 C 56.199219 59.699219 56.132812 59 55.765625 58.367188 C 55.398438 57.734375 54.832031 57.265625 54.101562 57.035156 C 53.332031 56.800781 52.601562 56.867188 51.964844 57.234375 C 51.300781 57.601562 50.867188 58.132812 50.632812 58.933594 L 49.699219 61.964844 C 49.699219 62.035156 49.699219 62.132812 49.667969 62.332031 C 49.632812 62.433594 49.601562 62.566406 49.601562 62.699219 Z M 50.765625 30.300781 C 52.964844 28.101562 55.699219 27 59 27 C 62.300781 27 65.101562 28.132812 67.398438 30.398438 C 69.699219 32.667969 70.867188 35.398438 70.867188 38.667969 C 70.867188 40.867188 70.265625 42.964844 69.101562 44.933594 C 65.832031 41.667969 61.933594 40.035156 57.433594 40.035156 L 56.398438 40.035156 C 55.464844 36.367188 53.566406 33.132812 50.765625 30.300781 Z M 56.265625 12.765625 C 56.265625 13.535156 56.535156 14.167969 57.035156 14.699219 C 57.535156 15.199219 58.199219 15.464844 59 15.464844 C 59.800781 15.464844 60.5 15.199219 61.066406 14.699219 C 61.632812 14.199219 61.898438 13.535156 61.898438 12.765625 L 61.898438 5.867188 C 61.898438 5.101562 61.601562 4.433594 61.035156 3.867188 C 60.464844 3.300781 59.765625 3.035156 59 3.035156 C 58.234375 3.035156 57.566406 3.300781 57.066406 3.867188 C 56.535156 4.433594 56.300781 5.101562 56.300781 5.867188 L 56.300781 12.765625 Z M 74.667969 20.300781 C 74.667969 21.132812 74.933594 21.800781 75.433594 22.300781 C 76.632812 23.5 77.964844 23.5 79.464844 22.300781 L 84.234375 17.535156 C 84.800781 16.964844 85.066406 16.265625 85.066406 15.433594 C 85.066406 14.632812 84.800781 13.964844 84.234375 13.433594 C 83.667969 12.867188 83 12.601562 82.234375 12.601562 C 81.464844 12.601562 80.800781 12.867188 80.199219 13.398438 L 75.433594 18.332031 C 74.933594 18.832031 74.667969 19.464844 74.667969 20.300781 Z M 77.265625 59.800781 C 77.265625 60.566406 77.566406 61.234375 78.167969 61.765625 L 80.199219 63.867188 C 80.867188 64.398438 81.535156 64.667969 82.234375 64.667969 C 82.898438 64.667969 83.566406 64.398438 84.234375 63.867188 C 84.800781 63.332031 85.066406 62.699219 85.066406 61.898438 C 85.066406 61.132812 84.800781 60.464844 84.234375 59.832031 L 82.066406 57.800781 C 81.566406 57.234375 80.933594 56.964844 80.167969 56.964844 C 79.398438 56.964844 78.734375 57.234375 78.167969 57.800781 C 77.566406 58.367188 77.265625 59.035156 77.265625 59.800781 Z M 82.199219 38.667969 C 82.199219 39.464844 82.5 40.101562 83.066406 40.632812 C 83.667969 41.234375 84.367188 41.535156 85.132812 41.535156 L 91.898438 41.535156 C 92.667969 41.535156 93.332031 41.265625 93.867188 40.699219 C 94.398438 40.132812 94.667969 39.464844 94.667969 38.667969 C 94.667969 37.867188 94.398438 37.199219 93.867188 36.667969 C 93.332031 36.101562 92.699219 35.832031 91.898438 35.832031 L 85.132812 35.832031 C 84.332031 35.832031 83.667969 36.101562 83.066406 36.667969 C 82.464844 37.234375 82.199219 37.898438 82.199219 38.667969 Z M 82.199219 38.667969 "/>
</g>
</svg>
