<?xml version="1.0" encoding="UTF-8"?>
<svg xmlns="http://www.w3.org/2000/svg" xmlns:xlink="http://www.w3.org/1999/xlink" width="100px" height="100px" viewBox="0 0 100 100" version="1.1">
<g id="surface1">
<path style=" stroke:none;fill-rule:nonzero;fill:rgb(0%,0%,0%);fill-opacity:1;" d="M 24.433594 55.265625 C 24.433594 54.5 24.699219 53.898438 25.199219 53.398438 C 25.734375 52.898438 26.433594 52.667969 27.332031 52.667969 L 46.367188 52.667969 C 47.265625 52.667969 47.964844 52.898438 48.5 53.398438 C 49.035156 53.898438 49.265625 54.5 49.265625 55.265625 C 49.265625 56.167969 49 56.898438 48.5 57.398438 C 48 57.898438 47.265625 58.167969 46.367188 58.167969 L 27.332031 58.167969 C 26.433594 58.167969 25.734375 57.898438 25.199219 57.398438 C 24.667969 56.898438 24.433594 56.199219 24.433594 55.265625 Z M 24.433594 35.566406 C 24.433594 34.832031 24.699219 34.199219 25.199219 33.734375 C 25.734375 33.234375 26.433594 33 27.332031 33 L 37.199219 33 C 38.101562 33 38.800781 33.234375 39.332031 33.734375 C 39.867188 34.199219 40.132812 34.832031 40.132812 35.566406 C 40.132812 36.464844 39.867188 37.167969 39.332031 37.699219 C 38.800781 38.234375 38.101562 38.5 37.199219 38.5 L 27.332031 38.5 C 26.433594 38.5 25.734375 38.234375 25.199219 37.734375 C 24.667969 37.234375 24.433594 36.464844 24.433594 35.566406 Z M 27.734375 65.132812 C 27.734375 64.398438 28.035156 63.734375 28.667969 63.132812 C 29.265625 62.535156 29.964844 62.199219 30.667969 62.199219 C 31.535156 62.199219 32.199219 62.5 32.734375 63.101562 C 33.265625 63.699219 33.535156 64.367188 33.535156 65.132812 C 33.535156 66.035156 33.265625 66.765625 32.765625 67.300781 C 32.265625 67.832031 31.566406 68.066406 30.667969 68.066406 C 29.898438 68.066406 29.199219 67.800781 28.632812 67.265625 C 28 66.699219 27.734375 66 27.734375 65.132812 Z M 32.464844 45.367188 C 32.464844 44.601562 32.699219 43.898438 33.199219 43.332031 C 33.699219 42.734375 34.300781 42.433594 35 42.433594 C 35.867188 42.433594 36.601562 42.734375 37.132812 43.332031 C 37.667969 43.933594 37.933594 44.601562 37.933594 45.367188 C 37.933594 46.265625 37.667969 47 37.167969 47.535156 C 36.632812 48.066406 35.933594 48.300781 35 48.300781 C 34.234375 48.300781 33.632812 48.035156 33.167969 47.5 C 32.699219 46.964844 32.464844 46.265625 32.464844 45.367188 Z M 35.765625 65.132812 C 35.765625 64.367188 36.035156 63.667969 36.566406 63.101562 C 37.101562 62.535156 37.832031 62.199219 38.699219 62.199219 L 51.464844 62.199219 L 54.398438 65.132812 C 54.398438 66 54.101562 66.699219 53.5 67.265625 C 52.898438 67.832031 52.234375 68.066406 51.464844 68.066406 L 38.699219 68.066406 C 37.800781 68.066406 37.066406 67.800781 36.535156 67.265625 C 36 66.734375 35.765625 66.035156 35.765625 65.132812 Z M 40.167969 45.367188 C 40.167969 44.632812 40.464844 43.964844 41.101562 43.367188 C 41.699219 42.765625 42.398438 42.433594 43.101562 42.433594 L 55.867188 42.433594 C 56.734375 42.433594 57.433594 42.734375 57.964844 43.332031 C 58.5 43.933594 58.765625 44.601562 58.765625 45.367188 C 58.765625 46.265625 58.5 47 58 47.535156 C 57.464844 48.066406 56.765625 48.300781 55.867188 48.300781 L 43.101562 48.300781 C 42.332031 48.300781 41.632812 48.035156 41.066406 47.5 C 40.464844 46.964844 40.167969 46.265625 40.167969 45.367188 Z M 42.699219 35.566406 C 42.699219 34.832031 42.964844 34.199219 43.5 33.734375 C 44.035156 33.265625 44.734375 33 45.632812 33 L 64.667969 33 C 65.433594 33 66.101562 33.265625 66.699219 33.765625 C 67.300781 34.265625 67.601562 34.867188 67.601562 35.566406 C 67.601562 36.433594 67.300781 37.167969 66.699219 37.699219 C 66.101562 38.234375 65.433594 38.5 64.667969 38.5 L 45.632812 38.5 C 44.734375 38.5 44 38.234375 43.464844 37.699219 C 42.933594 37.167969 42.699219 36.464844 42.699219 35.566406 Z M 51.464844 55.265625 C 51.464844 54.566406 51.765625 53.933594 52.367188 53.433594 C 52.964844 52.933594 53.632812 52.667969 54.398438 52.667969 C 55.167969 52.667969 55.832031 52.933594 56.433594 53.433594 C 57.035156 53.933594 57.332031 54.566406 57.332031 55.265625 C 57.332031 56.132812 57.035156 56.832031 56.433594 57.367188 C 55.832031 57.898438 55.167969 58.167969 54.398438 58.167969 C 53.632812 58.167969 52.933594 57.898438 52.367188 57.367188 C 51.765625 56.867188 51.464844 56.167969 51.464844 55.265625 Z M 56.601562 65.132812 C 56.601562 64.367188 56.867188 63.667969 57.398438 63.101562 C 57.933594 62.5 58.632812 62.199219 59.5 62.199219 L 65.734375 62.199219 C 66.601562 62.199219 67.300781 62.5 67.832031 63.066406 C 68.367188 63.632812 68.632812 64.332031 68.632812 65.132812 C 68.632812 66.035156 68.367188 66.765625 67.867188 67.300781 C 67.367188 67.832031 66.632812 68.066406 65.734375 68.066406 L 59.5 68.066406 C 58.601562 68.066406 57.898438 67.800781 57.367188 67.300781 C 56.867188 66.765625 56.601562 66.035156 56.601562 65.132812 Z M 59.5 55.265625 C 59.5 54.566406 59.800781 53.933594 60.398438 53.433594 C 61 52.933594 61.667969 52.667969 62.433594 52.667969 L 72.667969 52.667969 C 73.398438 52.667969 74 52.933594 74.464844 53.433594 C 74.933594 53.933594 75.199219 54.535156 75.199219 55.265625 C 75.199219 56.167969 74.964844 56.867188 74.5 57.398438 C 74.035156 57.933594 73.433594 58.167969 72.667969 58.167969 L 62.433594 58.167969 C 61.667969 58.167969 60.964844 57.898438 60.398438 57.367188 C 59.800781 56.867188 59.5 56.167969 59.5 55.265625 Z M 60.964844 45.367188 C 60.964844 44.632812 61.265625 43.964844 61.898438 43.367188 C 62.5 42.765625 63.199219 42.433594 63.898438 42.433594 L 70.433594 42.433594 C 71.132812 42.433594 71.734375 42.734375 72.234375 43.332031 C 72.734375 43.933594 73 44.601562 73 45.367188 C 73 46.265625 72.765625 46.964844 72.265625 47.5 C 71.800781 48.035156 71.167969 48.300781 70.433594 48.300781 L 63.898438 48.300781 C 63.132812 48.300781 62.433594 48.035156 61.867188 47.5 C 61.265625 46.964844 60.964844 46.265625 60.964844 45.367188 Z M 70.101562 35.566406 C 70.101562 34.832031 70.332031 34.234375 70.832031 33.734375 C 71.332031 33.234375 71.933594 33 72.667969 33 C 73.566406 33 74.265625 33.234375 74.800781 33.734375 C 75.332031 34.199219 75.601562 34.832031 75.601562 35.566406 C 75.601562 36.464844 75.332031 37.167969 74.800781 37.699219 C 74.265625 38.234375 73.566406 38.5 72.667969 38.5 C 71.898438 38.5 71.300781 38.234375 70.832031 37.699219 C 70.332031 37.167969 70.101562 36.464844 70.101562 35.566406 Z M 70.101562 35.566406 "/>
</g>
</svg>
