<?xml version="1.0" encoding="UTF-8" standalone="no"?>
<svg
   xmlns:dc="http://purl.org/dc/elements/1.1/"
   xmlns:cc="http://creativecommons.org/ns#"
   xmlns:rdf="http://www.w3.org/1999/02/22-rdf-syntax-ns#"
   xmlns:svg="http://www.w3.org/2000/svg"
   xmlns="http://www.w3.org/2000/svg"
   xmlns:sodipodi="http://sodipodi.sourceforge.net/DTD/sodipodi-0.dtd"
   xmlns:inkscape="http://www.inkscape.org/namespaces/inkscape"
   width="100px"
   height="100px"
   viewBox="0 0 100 100"
   version="1.1"
   id="svg5"
   sodipodi:docname="wi-day-cloudy.svg"
   inkscape:version="1.0.2 (e86c870879, 2021-01-15)">
  <metadata
     id="metadata11">
    <rdf:RDF>
      <cc:Work
         rdf:about="">
        <dc:format>image/svg+xml</dc:format>
        <dc:type
           rdf:resource="http://purl.org/dc/dcmitype/StillImage" />
      </cc:Work>
    </rdf:RDF>
  </metadata>
  <defs
     id="defs9" />
  <sodipodi:namedview
     pagecolor="#ffffff"
     bordercolor="#666666"
     borderopacity="1"
     objecttolerance="10"
     gridtolerance="10"
     guidetolerance="10"
     inkscape:pageopacity="0"
     inkscape:pageshadow="2"
     inkscape:window-width="1920"
     inkscape:window-height="1016"
     id="namedview7"
     showgrid="false"
     inkscape:zoom="7.94"
     inkscape:cx="50"
     inkscape:cy="49.48835"
     inkscape:window-x="0"
     inkscape:window-y="0"
     inkscape:window-maximized="1"
     inkscape:current-layer="svg5" />
  <g
     id="g70">
    <g
       id="surface1"
       style="fill:#ffff00">
      <path
         id="path2"
         style="fill:#ffff00;fill-opacity:1;fill-rule:nonzero;stroke:none"
         d="m 59.199219,21.199219 c -4.8494,0 -9.083954,1.878911 -12.740235,5.615234 1.096586,0.576047 2.157496,1.252689 3.173828,2.052735 3.601563,2.835937 5.933594,6.5 7,10.96875 h 1.101563 c 3,0 5.765624,0.734374 8.300781,2.167968 2.53125,1.429688 4.566406,3.429688 6.03125,5.964844 0.313288,0.540755 0.587238,1.093096 0.835938,1.652344 2.506265,-3.057489 3.765625,-6.743618 3.765625,-10.953125 0,-2.367188 -0.46875,-4.632813 -1.367188,-6.800781 -0.902343,-2.167969 -2.167969,-4 -3.734375,-5.566407 C 70,24.734375 68.167969,23.464844 66,22.566406 63.832031,21.632812 61.566406,21.199219 59.199219,21.199219 Z"
         sodipodi:nodetypes="scccscccscscs" />
      <path
         style="stroke:none;fill-rule:nonzero;fill:#ffff00;fill-opacity:1"
         d="M 82.398438,38.667969"
         id="path29" />
      <path
         style="stroke:none;fill-rule:nonzero;fill:#ffff00;fill-opacity:1"
         d="m 82.398438,38.667969 c 0,0.765625 0.300781,1.398437 0.867187,1.933593 0.535156,0.53125 1.234375,0.796876 2.035156,0.796876 h 6.800781 c 0.765626,0 1.398438,-0.265626 1.933594,-0.765626 0.53125,-0.5 0.765625,-1.167968 0.765625,-1.964843 0,-0.800781 -0.265625,-1.46875 -0.765625,-2 -0.5,-0.535157 -1.167968,-0.835938 -1.933594,-0.835938 h -6.800781 c -0.800781,0 -1.46875,0.269531 -2.035156,0.835938 -0.597656,0.566406 -0.867187,1.230469 -0.867187,2 z"
         id="path27" />
      <path
         style="stroke:none;fill-rule:nonzero;fill:#ffff00;fill-opacity:1"
         d="m 77.5,59.699219 c 0,0.800781 0.265625,1.5 0.832031,2.101562 L 80.5,63.898438 c 0.5,0.535156 1.132812,0.800781 1.933594,0.800781 0.800781,0 1.464844,-0.265625 2,-0.832031 0.53125,-0.566407 0.800781,-1.234376 0.800781,-2.066407 0,-0.734375 -0.269531,-1.402343 -0.800781,-1.933593 l -2.167969,-2.167969 c -0.53125,-0.53125 -1.164063,-0.800781 -1.898437,-0.800781 -0.800782,0 -1.46875,0.269531 -2,0.800781 -0.566407,0.535156 -0.867188,1.199219 -0.867188,2 z"
         id="path25" />
      <path
         style="stroke:none;fill-rule:nonzero;fill:#ffff00;fill-opacity:1"
         d="m 74.867188,20.234375 c 0,0.867187 0.234374,1.53125 0.734374,2.066406 0.699219,0.53125 1.398438,0.800781 2.066407,0.800781 0.597656,0 1.265625,-0.269531 1.964843,-0.800781 l 4.765626,-4.765625 c 0.535156,-0.601562 0.800781,-1.300781 0.800781,-2.136718 0,-0.796876 -0.265625,-1.464844 -0.800781,-2 -0.53125,-0.53125 -1.199219,-0.796876 -1.964844,-0.796876 -0.800782,0 -1.433594,0.265626 -1.933594,0.796876 l -4.898438,4.769531 c -0.5,0.632812 -0.734374,1.296875 -0.734374,2.066406 z"
         id="path23" />
      <path
         style="stroke:none;fill-rule:nonzero;fill:#ffff00;fill-opacity:1"
         d="m 56.464844,12.601562 c 0,0.863282 0.269531,1.53125 0.769531,2.066407 0.5,0.53125 1.164063,0.765625 1.964844,0.765625 0.867187,0 1.535156,-0.265625 2.066406,-0.765625 0.535156,-0.535157 0.769531,-1.203125 0.769531,-2.066407 V 5.765625 c 0,-0.800781 -0.269531,-1.433594 -0.800781,-1.964844 -0.535156,-0.535156 -1.199219,-0.765625 -2.035156,-0.765625 -0.800781,0 -1.433594,0.265625 -1.964844,0.765625 -0.535156,0.5 -0.769531,1.164063 -0.769531,1.964844 z"
         id="path21" />
      <path
         style="stroke:none;fill-rule:nonzero;fill:#ffff00;fill-opacity:1"
         d="m 51.035156,30.199219 c 2.296875,-2.234375 5.03125,-3.332031 8.164063,-3.332031 3.300781,0 6.101562,1.132812 8.402343,3.433593 2.296876,2.300781 3.464844,5.066407 3.464844,8.367188 0,2.066406 -0.566406,4.132812 -1.699218,6.132812 C 66.132812,41.601562 62.265625,40 57.734375,40 h -1.066406 c -0.835938,-3.632812 -2.703125,-6.898438 -5.632813,-9.800781 z"
         id="path19" />
      <path
         style="stroke:none;fill-rule:nonzero;fill:#ffff00;fill-opacity:1"
         d="m 33.234375,15.433594 c 0,0.800781 0.265625,1.5 0.800781,2.101562 l 2.199219,2.132813 c 0.832031,0.632812 1.53125,0.898437 2.132813,0.832031 0.699218,0 1.300781,-0.300781 1.832031,-0.867188 C 40.734375,19.066406 41,18.367188 41,17.566406 41,16.765625 40.699219,16.101562 40.132812,15.601562 l -1.964843,-2.203124 c -0.601563,-0.53125 -1.269531,-0.796876 -2.035157,-0.796876 -0.800781,0 -1.5,0.265626 -2.066406,0.832032 -0.566406,0.53125 -0.832031,1.199218 -0.832031,2 z"
         id="path17" />
    </g>
    <g
       id="surface1-3"
       transform="translate(-10.332031,-0.03125)" />
    <g
       id="surface1-7"
       transform="translate(-10.332032,-0.03125)">
      <path
         style="fill:#000000;fill-opacity:1;fill-rule:nonzero;stroke:none"
         d="m 15.367188,56.265625 c 0,-3.832031 1.199218,-7.230469 3.597656,-10.230469 2.402344,-3 5.433594,-4.933594 9.136718,-5.769531 1.03125,-4.566406 3.398438,-8.300781 7.03125,-11.230469 3.632813,-2.933594 7.832032,-4.402344 12.535157,-4.402344 4.597656,0 8.699219,1.433594 12.296875,4.265626 3.601562,2.835937 5.933594,6.5 7,10.96875 h 1.101562 c 3,0 5.765625,0.734374 8.300782,2.167968 2.53125,1.429688 4.566406,3.429688 6.03125,5.964844 1.46875,2.535156 2.234374,5.265625 2.234374,8.265625 0,2.933594 -0.699218,5.667969 -2.097656,8.167969 -1.402344,2.5 -3.335937,4.5 -5.769531,6 -2.433594,1.5 -5.132813,2.300781 -8.03125,2.398437 H 31.367188 c -4.46875,-0.199219 -8.234376,-1.898437 -11.332032,-5.097656 -3.101562,-3.167969 -4.667968,-7 -4.667968,-11.46875 z m 5.699218,0 c 0,2.902344 1,5.402344 3,7.535156 2,2.132813 4.433594,3.265625 7.300782,3.433594 h 37.300781 c 2.867187,-0.132813 5.296875,-1.300781 7.296875,-3.433594 C 78,61.667969 79,59.132812 79,56.265625 79,53.332031 77.898438,50.832031 75.734375,48.699219 73.566406,46.566406 71,45.5 68,45.5 h -5.332031 c -0.367188,0 -0.566407,-0.199219 -0.566407,-0.601562 L 61.867188,43 C 61.5,39.398438 59.933594,36.367188 57.199219,33.933594 54.464844,31.5 51.300781,30.265625 47.667969,30.265625 c -3.632813,0 -6.835938,1.234375 -9.5,3.667969 C 35.464844,36.367188 33.933594,39.398438 33.601562,43 l -0.269531,1.898438 c 0,0.402343 -0.230469,0.601562 -0.664062,0.601562 h -1.769531 c -2.796876,0.332031 -5.132813,1.535156 -7,3.566406 -1.863282,2.035156 -2.832032,4.433594 -2.832032,7.199219 z m 0,0"
         id="path2-5" />
    </g>
  </g>
</svg>
