<?xml version="1.0" encoding="UTF-8"?>
<svg xmlns="http://www.w3.org/2000/svg" xmlns:xlink="http://www.w3.org/1999/xlink" width="100px" height="100px" viewBox="0 0 100 100" version="1.1">
<g id="surface1">
<path style=" stroke:none;fill-rule:nonzero;fill:rgb(0%,0%,0%);fill-opacity:1;" d="M 33.132812 47.867188 C 33.132812 48.601562 33.398438 49.265625 33.898438 49.765625 C 34.398438 50.265625 35.035156 50.5 35.765625 50.433594 L 57.699219 50.433594 L 54.265625 54.035156 C 53.734375 54.566406 53.464844 55.199219 53.464844 55.867188 C 53.464844 56.601562 53.734375 57.265625 54.265625 57.765625 C 54.800781 58.300781 55.433594 58.535156 56.199219 58.535156 C 56.898438 58.5 57.5 58.199219 57.964844 57.632812 L 66.132812 49.601562 C 66.667969 49.066406 66.898438 48.433594 66.898438 47.667969 C 66.867188 46.867188 66.601562 46.234375 66.101562 45.734375 L 57.867188 37.765625 C 57.367188 37.234375 56.765625 36.964844 56.066406 37 C 55.300781 37 54.667969 37.234375 54.167969 37.734375 C 53.632812 38.234375 53.398438 38.867188 53.398438 39.601562 C 53.398438 40.367188 53.667969 41 54.167969 41.5 L 57.699219 45.101562 L 35.734375 45.101562 C 34.964844 45.132812 34.367188 45.398438 33.867188 45.933594 C 33.367188 46.5 33.132812 47.132812 33.132812 47.867188 Z M 33.132812 47.867188 "/>
</g>
</svg>
