<?xml version="1.0" encoding="UTF-8"?>
<svg xmlns="http://www.w3.org/2000/svg" xmlns:xlink="http://www.w3.org/1999/xlink" width="100px" height="100px" viewBox="0 0 100 100" version="1.1">
<g id="surface1">
<path style=" stroke:none;fill-rule:nonzero;fill:rgb(0%,0%,0%);fill-opacity:1;" d="M 5.265625 56.300781 C 5.265625 59.199219 5.964844 61.898438 7.398438 64.367188 C 8.800781 66.867188 10.734375 68.867188 13.167969 70.367188 C 15.601562 71.867188 18.265625 72.667969 21.167969 72.800781 C 21.566406 72.800781 21.765625 72.601562 21.765625 72.234375 L 21.765625 67.800781 C 21.765625 67.398438 21.566406 67.167969 21.167969 67.167969 C 18.332031 67.035156 15.898438 65.898438 13.898438 63.765625 C 11.898438 61.632812 10.898438 59.167969 10.898438 56.265625 C 10.898438 53.535156 11.832031 51.132812 13.699219 49.101562 C 15.566406 47.066406 17.898438 45.898438 20.667969 45.566406 L 22.398438 45.464844 C 22.800781 45.464844 23.035156 45.265625 23.035156 44.867188 L 23.300781 43.066406 C 23.667969 39.464844 25.167969 36.464844 27.832031 34.035156 C 30.5 31.601562 33.667969 30.398438 37.332031 30.398438 C 40.898438 30.398438 44.066406 31.601562 46.800781 34.035156 C 49.535156 36.464844 51.066406 39.464844 51.464844 43.035156 L 51.699219 44.964844 C 51.699219 45.332031 51.898438 45.535156 52.265625 45.535156 L 57.667969 45.535156 C 60.601562 45.535156 63.167969 46.601562 65.300781 48.734375 C 67.464844 50.867188 68.535156 53.367188 68.535156 56.265625 C 68.535156 59.132812 67.535156 61.632812 65.535156 63.765625 C 63.535156 65.867188 61.101562 67 58.265625 67.167969 C 57.867188 67.167969 57.667969 67.367188 57.667969 67.800781 L 57.667969 72.234375 C 57.667969 72.601562 57.867188 72.800781 58.265625 72.800781 C 61.167969 72.734375 63.832031 71.933594 66.265625 70.398438 C 68.699219 68.867188 70.632812 66.898438 72.035156 64.398438 C 73.433594 61.898438 74.132812 59.199219 74.132812 56.300781 C 74.132812 53.832031 73.667969 51.632812 72.765625 49.632812 C 75.367188 46.464844 76.632812 42.800781 76.632812 38.632812 C 76.632812 35.5 75.867188 32.566406 74.300781 29.898438 C 72.734375 27.234375 70.632812 25.101562 67.964844 23.566406 C 65.300781 22 62.398438 21.234375 59.265625 21.234375 C 54.101562 21.234375 49.800781 23.167969 46.367188 27 C 43.632812 25.535156 40.632812 24.800781 37.398438 24.800781 C 32.699219 24.800781 28.566406 26.265625 24.933594 29.167969 C 21.300781 32.066406 19 35.800781 17.964844 40.300781 C 14.300781 41.167969 11.265625 43.101562 8.898438 46.066406 C 6.433594 49.101562 5.265625 52.5 5.265625 56.300781 Z M 24.933594 59.234375 C 24.933594 60.5 25.398438 61.601562 26.332031 62.5 C 27.265625 63.398438 28.398438 63.832031 29.699219 63.832031 C 31.035156 63.832031 32.132812 63.398438 33.035156 62.5 C 33.933594 61.601562 34.367188 60.535156 34.367188 59.234375 C 34.367188 58.433594 33.964844 57.300781 33.199219 55.898438 C 32.433594 54.464844 31.699219 53.367188 31.035156 52.601562 C 30.332031 51.867188 29.867188 51.367188 29.699219 51.199219 L 28.5 52.535156 C 27.601562 53.5 26.765625 54.632812 26.035156 55.964844 C 25.300781 57.300781 24.933594 58.398438 24.933594 59.234375 Z M 33.234375 15.535156 C 33.234375 16.398438 33.5 17.066406 34.035156 17.566406 L 36.199219 19.765625 C 37.601562 20.800781 38.933594 20.800781 40.234375 19.765625 C 40.765625 19.132812 41.035156 18.398438 41.035156 17.632812 C 41.035156 16.867188 40.765625 16.199219 40.234375 15.667969 L 38.101562 13.5 C 37.464844 12.933594 36.800781 12.667969 36.066406 12.667969 C 35.265625 12.667969 34.566406 12.933594 34.035156 13.5 C 33.5 14.066406 33.234375 14.734375 33.234375 15.535156 Z M 34.832031 72.433594 C 34.832031 74.632812 35.601562 76.464844 37.101562 77.933594 C 38.601562 79.398438 40.433594 80.167969 42.601562 80.167969 C 44.765625 80.167969 46.601562 79.398438 48.132812 77.898438 C 49.667969 76.367188 50.398438 74.566406 50.398438 72.433594 C 50.398438 70.632812 49.5 68.464844 47.699219 65.867188 C 46.167969 63.832031 44.734375 62.199219 43.433594 60.898438 C 43.167969 60.699219 42.867188 60.464844 42.566406 60.132812 L 41.800781 60.898438 C 40.601562 61.964844 39.199219 63.632812 37.566406 65.800781 C 35.765625 68.332031 34.832031 70.535156 34.832031 72.433594 Z M 39.765625 50.367188 C 39.765625 51.199219 40.101562 51.933594 40.734375 52.535156 C 41.367188 53.132812 42.132812 53.433594 43.035156 53.433594 C 43.898438 53.433594 44.632812 53.132812 45.234375 52.535156 C 45.832031 51.933594 46.132812 51.199219 46.132812 50.367188 C 46.132812 49 45.101562 47.199219 43.035156 45.035156 L 42.234375 45.867188 C 41.632812 46.535156 41.066406 47.300781 40.566406 48.199219 C 40 49.101562 39.765625 49.800781 39.765625 50.367188 Z M 51 30.199219 C 53.199219 28 55.933594 26.898438 59.234375 26.898438 C 62.5 26.898438 65.234375 28.035156 67.535156 30.332031 C 69.800781 32.632812 70.964844 35.398438 70.964844 38.667969 C 70.964844 40.632812 70.398438 42.667969 69.234375 44.800781 C 66 41.601562 62.132812 40 57.667969 40 L 56.566406 40 C 55.601562 36.132812 53.734375 32.867188 51 30.199219 Z M 56.332031 12.667969 C 56.332031 13.464844 56.632812 14.132812 57.199219 14.699219 C 57.765625 15.265625 58.433594 15.535156 59.199219 15.535156 C 59.964844 15.535156 60.632812 15.265625 61.132812 14.699219 C 61.667969 14.132812 61.898438 13.464844 61.898438 12.667969 L 61.898438 5.867188 C 61.898438 5.066406 61.632812 4.433594 61.132812 3.898438 C 60.632812 3.367188 60 3.132812 59.234375 3.132812 C 58.464844 3.132812 57.765625 3.398438 57.199219 3.898438 C 56.632812 4.398438 56.332031 5.066406 56.332031 5.867188 Z M 74.734375 20.367188 C 74.734375 21.167969 75 21.832031 75.566406 22.332031 C 76.132812 22.867188 76.765625 23.132812 77.433594 23.132812 C 78 23.132812 78.699219 22.867188 79.464844 22.332031 L 84.234375 17.566406 C 84.832031 16.964844 85.132812 16.265625 85.132812 15.5 C 85.132812 14.699219 84.867188 14 84.300781 13.464844 C 83.734375 12.933594 83.066406 12.667969 82.265625 12.667969 C 81.535156 12.667969 80.898438 12.933594 80.332031 13.5 L 75.566406 18.265625 C 75 18.832031 74.734375 19.535156 74.734375 20.367188 Z M 77.398438 59.632812 C 77.398438 60.464844 77.667969 61.167969 78.167969 61.765625 L 80.332031 63.699219 C 80.800781 64.300781 81.464844 64.601562 82.300781 64.601562 C 83.101562 64.601562 83.765625 64.300781 84.234375 63.699219 C 84.832031 63.167969 85.132812 62.5 85.132812 61.765625 C 85.132812 61.035156 84.832031 60.398438 84.234375 59.832031 L 82.199219 57.667969 C 81.601562 57.132812 80.933594 56.867188 80.167969 56.867188 C 79.367188 56.867188 78.699219 57.132812 78.167969 57.667969 C 77.632812 58.199219 77.398438 58.867188 77.398438 59.632812 Z M 82.234375 38.667969 C 82.234375 39.398438 82.5 40.066406 83.066406 40.601562 C 83.632812 41.132812 84.332031 41.398438 85.167969 41.398438 L 91.898438 41.398438 C 92.699219 41.398438 93.367188 41.132812 93.898438 40.601562 C 94.464844 40.066406 94.734375 39.433594 94.734375 38.632812 C 94.734375 37.832031 94.464844 37.167969 93.898438 36.632812 C 93.332031 36.101562 92.667969 35.800781 91.898438 35.800781 L 85.167969 35.800781 C 84.367188 35.800781 83.699219 36.066406 83.101562 36.632812 C 82.5 37.199219 82.234375 37.898438 82.234375 38.667969 Z M 82.234375 38.667969 "/>
</g>
</svg>
