<?xml version="1.0" encoding="UTF-8"?>
<svg xmlns="http://www.w3.org/2000/svg" xmlns:xlink="http://www.w3.org/1999/xlink" width="100px" height="100px" viewBox="0 0 100 100" version="1.1">
<g id="surface1">
<path style=" stroke:none;fill-rule:nonzero;fill:rgb(0%,0%,0%);fill-opacity:1;" d="M 7.734375 49.5 C 7.734375 50.300781 8.035156 50.964844 8.601562 51.5 C 9.132812 52.066406 9.800781 52.332031 10.601562 52.332031 L 42 52.332031 C 42.765625 52.332031 43.433594 52.066406 43.964844 51.5 C 44.5 50.933594 44.765625 50.265625 44.765625 49.5 C 44.765625 48.734375 44.5 48.066406 44 47.535156 C 43.464844 47 42.832031 46.734375 42.035156 46.734375 L 10.601562 46.734375 C 9.800781 46.734375 9.132812 47 8.566406 47.535156 C 8 48.066406 7.734375 48.734375 7.734375 49.5 Z M 8.832031 70 C 8.832031 70.800781 9.101562 71.464844 9.667969 72 C 10.199219 72.566406 10.867188 72.832031 11.667969 72.832031 L 43.101562 72.832031 C 43.898438 72.832031 44.566406 72.566406 45.132812 72 C 45.699219 71.433594 45.964844 70.765625 45.964844 70 C 45.964844 69.234375 45.699219 68.566406 45.132812 68.035156 C 44.566406 67.5 43.898438 67.234375 43.101562 67.234375 L 11.699219 67.234375 C 10.898438 67.234375 10.234375 67.5 9.699219 68.035156 C 9.132812 68.566406 8.832031 69.234375 8.832031 70 Z M 13.398438 59.667969 C 13.398438 60.464844 13.667969 61.101562 14.234375 61.632812 C 14.800781 62.167969 15.5 62.398438 16.332031 62.398438 L 47.667969 62.398438 C 48.464844 62.398438 49.101562 62.132812 49.632812 61.632812 C 50.167969 61.101562 50.398438 60.464844 50.398438 59.667969 C 50.398438 58.832031 50.132812 58.167969 49.632812 57.632812 C 49.101562 57.101562 48.464844 56.832031 47.667969 56.832031 L 16.332031 56.832031 C 15.5 56.832031 14.800781 57.101562 14.234375 57.632812 C 13.699219 58.167969 13.398438 58.832031 13.398438 59.667969 Z M 21.5 38.5 C 21.5 37.699219 21.800781 37.035156 22.367188 36.433594 C 22.933594 35.898438 23.632812 35.632812 24.367188 35.632812 L 31.132812 35.632812 C 31.898438 35.632812 32.535156 35.898438 33.066406 36.464844 C 33.601562 37.035156 33.832031 37.699219 33.832031 38.5 C 33.832031 39.300781 33.566406 39.964844 33.066406 40.5 C 32.535156 41.066406 31.898438 41.332031 31.132812 41.332031 L 24.367188 41.332031 C 23.566406 41.332031 22.898438 41.066406 22.332031 40.5 C 21.765625 39.933594 21.5 39.265625 21.5 38.5 Z M 31.035156 15.433594 C 31.035156 14.699219 31.300781 14 31.832031 13.398438 C 32.464844 12.867188 33.167969 12.601562 33.933594 12.601562 C 34.667969 12.601562 35.332031 12.867188 35.898438 13.398438 L 40.632812 18.300781 C 41.167969 18.800781 41.433594 19.464844 41.433594 20.265625 C 41.433594 21.066406 41.167969 21.734375 40.632812 22.265625 C 40.101562 22.800781 39.433594 23.066406 38.632812 23.066406 C 37.832031 23.066406 37.167969 22.800781 36.667969 22.265625 L 31.832031 17.5 C 31.300781 16.898438 31.035156 16.234375 31.035156 15.433594 Z M 39.535156 38.101562 L 39.535156 37.867188 C 39.601562 34.832031 40.433594 32.035156 42 29.433594 C 43.566406 26.867188 45.699219 24.832031 48.332031 23.332031 C 50.964844 21.832031 53.832031 21.101562 56.898438 21.101562 C 59.234375 21.101562 61.464844 21.566406 63.632812 22.5 C 65.765625 23.433594 67.632812 24.667969 69.167969 26.234375 C 70.734375 27.800781 71.964844 29.632812 72.867188 31.765625 C 73.765625 33.898438 74.234375 36.167969 74.234375 38.5 C 74.234375 41.632812 73.464844 44.5 71.933594 47.167969 C 70.398438 49.832031 68.300781 51.933594 65.667969 53.464844 C 63.035156 55.035156 60.132812 55.800781 57 55.832031 L 56.332031 55.832031 C 56.101562 55.832031 55.898438 55.765625 55.734375 55.601562 C 55.566406 55.433594 55.464844 55.234375 55.464844 55 L 55.464844 50.933594 C 55.464844 50.5 55.699219 50.265625 56.199219 50.265625 L 57 50.265625 C 60.199219 50.234375 62.964844 49.101562 65.234375 46.765625 C 67.5 44.464844 68.667969 41.699219 68.667969 38.464844 C 68.667969 35.265625 67.5 32.535156 65.199219 30.234375 C 62.898438 27.964844 60.132812 26.832031 56.867188 26.832031 C 53.734375 26.832031 51 27.898438 48.734375 30.101562 C 46.464844 32.265625 45.265625 34.898438 45.132812 38 C 45.132812 38.199219 45.066406 38.367188 44.898438 38.566406 C 44.734375 38.765625 44.464844 38.867188 44.066406 38.867188 L 40.265625 38.867188 C 39.765625 38.898438 39.535156 38.632812 39.535156 38.101562 Z M 54.101562 71.035156 L 54.101562 64.398438 C 54.101562 63.601562 54.367188 62.933594 54.898438 62.398438 C 55.433594 61.867188 56.101562 61.601562 56.898438 61.601562 C 57.699219 61.601562 58.398438 61.867188 58.933594 62.398438 C 59.464844 62.933594 59.734375 63.601562 59.734375 64.398438 L 59.734375 71.035156 C 59.734375 71.832031 59.464844 72.535156 58.898438 73.101562 C 58.332031 73.667969 57.667969 73.933594 56.898438 73.933594 C 56.101562 73.933594 55.433594 73.667969 54.898438 73.101562 C 54.367188 72.535156 54.101562 71.867188 54.101562 71.035156 Z M 54.101562 12.765625 L 54.101562 5.933594 C 54.101562 5.132812 54.367188 4.464844 54.933594 3.933594 C 55.5 3.398438 56.132812 3.101562 56.933594 3.101562 C 57.699219 3.101562 58.367188 3.367188 58.933594 3.933594 C 59.5 4.5 59.765625 5.167969 59.765625 5.933594 L 59.765625 12.734375 C 59.765625 13.5 59.5 14.132812 58.933594 14.667969 C 58.367188 15.167969 57.699219 15.433594 56.933594 15.433594 C 56.132812 15.433594 55.464844 15.167969 54.933594 14.667969 C 54.367188 14.167969 54.101562 13.535156 54.101562 12.765625 Z M 72.464844 56.699219 C 72.464844 55.933594 72.699219 55.300781 73.234375 54.832031 C 73.734375 54.300781 74.367188 54.066406 75.132812 54.066406 C 75.933594 54.066406 76.601562 54.332031 77.132812 54.832031 L 81.964844 59.566406 C 82.5 60.132812 82.765625 60.832031 82.765625 61.601562 C 82.765625 62.367188 82.5 63.035156 81.964844 63.566406 C 80.632812 64.601562 79.300781 64.601562 77.964844 63.566406 L 73.234375 58.800781 C 72.734375 58.265625 72.464844 57.535156 72.464844 56.699219 Z M 72.464844 20.265625 C 72.464844 19.433594 72.699219 18.765625 73.234375 18.300781 L 77.964844 13.398438 C 78.566406 12.867188 79.199219 12.601562 79.933594 12.601562 C 80.734375 12.601562 81.398438 12.867188 81.933594 13.433594 C 82.5 14 82.765625 14.667969 82.765625 15.433594 C 82.765625 16.265625 82.5 16.964844 81.964844 17.5 L 77.132812 22.265625 C 76.535156 22.800781 75.867188 23.066406 75.132812 23.066406 C 74.367188 23.066406 73.765625 22.800781 73.234375 22.265625 C 72.699219 21.734375 72.464844 21.066406 72.464844 20.265625 Z M 80 38.5 C 80 37.734375 80.265625 37.035156 80.832031 36.433594 C 81.367188 35.898438 82 35.632812 82.699219 35.632812 L 89.464844 35.632812 C 90.234375 35.632812 90.898438 35.933594 91.5 36.5 C 92.066406 37.066406 92.367188 37.734375 92.367188 38.5 C 92.367188 39.265625 92.066406 39.933594 91.5 40.5 C 90.898438 41.066406 90.234375 41.332031 89.464844 41.332031 L 82.699219 41.332031 C 81.933594 41.332031 81.300781 41.066406 80.765625 40.5 C 80.265625 39.964844 80 39.300781 80 38.5 Z M 80 38.5 "/>
</g>
</svg>
