<?xml version="1.0" encoding="UTF-8"?>
<svg xmlns="http://www.w3.org/2000/svg" xmlns:xlink="http://www.w3.org/1999/xlink" width="100px" height="100px" viewBox="0 0 100 100" version="1.1">
<g id="surface1">
<path style=" stroke:none;fill-rule:nonzero;fill:rgb(0%,0%,0%);fill-opacity:1;" d="M 5.066406 56.332031 C 5.066406 60.035156 6.167969 63.300781 8.332031 66.199219 C 10.5 69.101562 13.367188 71.066406 16.898438 72.132812 L 14.765625 77.800781 C 14.632812 78.265625 14.765625 78.5 15.234375 78.5 L 22.332031 78.5 L 18.167969 91.667969 L 19.132812 91.667969 L 33.035156 73.699219 C 33.167969 73.566406 33.167969 73.398438 33.066406 73.234375 C 33 73.066406 32.832031 73 32.601562 73 L 25.367188 73 L 33.601562 57.566406 C 33.832031 57.101562 33.667969 56.832031 33.132812 56.832031 L 23.332031 56.832031 C 23.035156 56.832031 22.765625 57 22.566406 57.300781 L 19 66.898438 C 16.632812 66.300781 14.667969 65 13.101562 63.035156 C 11.535156 61.066406 10.765625 58.832031 10.765625 56.332031 C 10.765625 53.566406 11.699219 51.167969 13.601562 49.101562 C 15.5 47.035156 17.832031 45.867188 20.601562 45.535156 L 22.332031 45.332031 C 22.765625 45.332031 23 45.132812 23 44.734375 L 23.199219 43.035156 C 23.566406 39.433594 25.101562 36.398438 27.800781 33.964844 C 30.5 31.535156 33.699219 30.300781 37.332031 30.300781 C 40.964844 30.300781 44.132812 31.535156 46.832031 33.964844 C 49.535156 36.398438 51.101562 39.433594 51.5 43.035156 L 51.699219 44.964844 C 51.699219 45.332031 51.898438 45.535156 52.300781 45.535156 L 57.667969 45.535156 C 60.699219 45.535156 63.265625 46.601562 65.398438 48.699219 C 67.535156 50.800781 68.601562 53.332031 68.601562 56.332031 C 68.601562 59.167969 67.601562 61.632812 65.632812 63.699219 C 63.667969 65.765625 61.234375 66.933594 58.332031 67.167969 C 57.898438 67.167969 57.667969 67.367188 57.667969 67.765625 L 57.667969 72.332031 C 57.667969 72.699219 57.898438 72.898438 58.332031 72.898438 C 62.765625 72.765625 66.535156 71.066406 69.632812 67.867188 C 72.734375 64.667969 74.265625 60.832031 74.265625 56.367188 C 74.265625 53.898438 73.800781 51.667969 72.832031 49.667969 C 75.464844 46.464844 76.765625 42.800781 76.765625 38.601562 C 76.765625 35.464844 75.964844 32.566406 74.398438 29.867188 C 72.832031 27.167969 70.699219 25.035156 68 23.464844 C 65.300781 21.898438 62.398438 21.101562 59.265625 21.101562 C 54.132812 21.101562 49.800781 23.035156 46.332031 26.867188 C 43.632812 25.433594 40.632812 24.699219 37.332031 24.699219 C 32.632812 24.699219 28.433594 26.167969 24.800781 29.066406 C 21.167969 31.964844 18.832031 35.699219 17.800781 40.265625 C 14.101562 41.132812 11.066406 43.035156 8.699219 46.035156 C 6.332031 49.035156 5.066406 52.5 5.066406 56.332031 Z M 32.035156 88.265625 C 32 88.765625 32.132812 89.265625 32.5 89.734375 C 32.867188 90.199219 33.367188 90.566406 34.035156 90.832031 C 34.265625 90.898438 34.5 90.933594 34.734375 90.933594 C 35.300781 90.933594 35.867188 90.765625 36.433594 90.433594 C 37 90.101562 37.367188 89.566406 37.566406 88.867188 L 45.199219 60.300781 C 45.398438 59.535156 45.332031 58.800781 44.964844 58.167969 C 44.601562 57.5 44.066406 57.066406 43.332031 56.832031 C 42.566406 56.601562 41.832031 56.667969 41.167969 57.066406 C 40.5 57.433594 40.035156 58 39.832031 58.765625 L 32.132812 87.433594 C 32.066406 87.667969 32.035156 87.964844 32.035156 88.265625 Z M 33.132812 15.433594 C 33.132812 16.234375 33.398438 16.867188 33.964844 17.398438 L 36.101562 19.601562 C 36.667969 20.167969 37.332031 20.433594 38.132812 20.464844 C 38.933594 20.464844 39.566406 20.199219 40.035156 19.601562 C 40.667969 19.101562 40.964844 18.433594 40.964844 17.601562 C 40.964844 16.800781 40.699219 16.167969 40.132812 15.632812 L 38.035156 13.433594 C 37.464844 12.898438 36.765625 12.632812 36 12.632812 C 35.167969 12.632812 34.464844 12.898438 33.933594 13.433594 C 33.398438 13.964844 33.132812 14.632812 33.132812 15.433594 Z M 45.898438 78.101562 C 45.898438 78.5 46.035156 78.898438 46.265625 79.367188 C 46.699219 80.035156 47.234375 80.5 47.933594 80.800781 C 48.167969 80.898438 48.5 80.964844 48.933594 80.964844 C 49.433594 80.964844 49.800781 80.898438 50.035156 80.765625 C 50.699219 80.5 51.167969 79.832031 51.398438 78.832031 L 56.367188 60.332031 C 56.566406 59.535156 56.5 58.832031 56.132812 58.167969 C 55.765625 57.535156 55.199219 57.101562 54.433594 56.867188 C 53.667969 56.632812 52.933594 56.699219 52.300781 57.101562 C 51.632812 57.464844 51.199219 58.035156 51 58.800781 L 46 77.332031 C 46 77.398438 45.964844 77.535156 45.933594 77.699219 C 45.898438 77.898438 45.898438 78 45.898438 78.101562 Z M 51 30.132812 C 53.234375 28 55.964844 26.898438 59.265625 26.898438 C 62.5 26.898438 65.300781 28.035156 67.601562 30.300781 C 69.898438 32.566406 71.066406 35.332031 71.066406 38.566406 C 71.066406 40.632812 70.5 42.699219 69.332031 44.734375 C 66.035156 41.464844 62.132812 39.832031 57.667969 39.832031 L 56.632812 39.832031 C 55.601562 35.933594 53.699219 32.699219 51 30.132812 Z M 56.367188 12.632812 C 56.367188 13.398438 56.667969 14.066406 57.234375 14.632812 C 57.800781 15.199219 58.464844 15.5 59.234375 15.5 C 60.035156 15.5 60.667969 15.234375 61.199219 14.667969 C 61.734375 14.101562 61.964844 13.433594 61.964844 12.632812 L 61.964844 5.765625 C 61.964844 4.964844 61.699219 4.300781 61.199219 3.734375 C 60.699219 3.167969 60.035156 2.898438 59.234375 2.898438 C 58.464844 2.898438 57.800781 3.167969 57.234375 3.734375 C 56.667969 4.300781 56.367188 4.964844 56.367188 5.765625 Z M 74.800781 20.234375 C 74.800781 21.035156 75.101562 21.699219 75.667969 22.234375 C 76.132812 22.800781 76.765625 23.066406 77.566406 23.066406 C 78.367188 23.066406 79.035156 22.800781 79.566406 22.234375 L 84.367188 17.398438 C 84.933594 16.867188 85.234375 16.234375 85.234375 15.433594 C 85.234375 14.632812 84.964844 13.964844 84.398438 13.398438 C 83.832031 12.832031 83.167969 12.566406 82.367188 12.566406 C 81.632812 12.566406 81 12.867188 80.464844 13.433594 L 75.667969 18.234375 C 75.101562 18.765625 74.800781 19.433594 74.800781 20.234375 Z M 77.5 59.765625 C 77.5 60.5 77.765625 61.167969 78.300781 61.765625 L 80.5 63.867188 C 80.898438 64.332031 81.535156 64.632812 82.300781 64.667969 L 82.332031 64.699219 C 82.367188 64.699219 82.433594 64.699219 82.5 64.699219 C 82.566406 64.699219 82.601562 64.699219 82.667969 64.699219 C 83.300781 64.699219 83.867188 64.398438 84.433594 63.832031 C 85 63.300781 85.300781 62.632812 85.300781 61.832031 C 85.300781 61.066406 85 60.398438 84.433594 59.800781 L 82.265625 57.765625 C 81.734375 57.167969 81.066406 56.867188 80.332031 56.867188 C 79.566406 56.867188 78.898438 57.132812 78.332031 57.699219 C 77.765625 58.300781 77.5 59 77.5 59.765625 Z M 82.332031 38.601562 C 82.332031 39.367188 82.632812 40.035156 83.234375 40.601562 C 83.832031 41.199219 84.5 41.5 85.265625 41.5 L 92.035156 41.5 C 92.800781 41.5 93.464844 41.199219 94.035156 40.632812 C 94.601562 40.066406 94.898438 39.367188 94.898438 38.601562 C 94.898438 37.832031 94.632812 37.167969 94.066406 36.632812 C 93.5 36.101562 92.832031 35.832031 92.035156 35.832031 L 85.265625 35.832031 C 84.433594 35.832031 83.734375 36.101562 83.167969 36.632812 C 82.601562 37.167969 82.332031 37.832031 82.332031 38.601562 Z M 82.332031 38.601562 "/>
</g>
</svg>
