<?xml version="1.0" encoding="UTF-8"?>
<svg xmlns="http://www.w3.org/2000/svg" xmlns:xlink="http://www.w3.org/1999/xlink" width="100px" height="100px" viewBox="0 0 100 100" version="1.1">
<g id="surface1">
<path style=" stroke:none;fill-rule:nonzero;fill:rgb(0%,0%,0%);fill-opacity:1;" d="M 4.964844 56.398438 C 4.964844 52.5 6.167969 49.101562 8.566406 46.101562 C 10.964844 43.101562 14.035156 41.167969 17.699219 40.300781 C 18.734375 35.734375 21.066406 32 24.699219 29.035156 C 28.367188 26.101562 32.535156 24.632812 37.265625 24.632812 C 40.566406 24.632812 43.601562 25.367188 46.332031 26.832031 C 48 25.066406 49.964844 23.667969 52.199219 22.667969 C 54.433594 21.667969 56.765625 21.167969 59.167969 21.167969 C 62.332031 21.167969 65.265625 21.964844 67.964844 23.535156 C 70.667969 25.101562 72.800781 27.234375 74.367188 29.933594 C 75.933594 32.632812 76.734375 35.566406 76.734375 38.734375 C 76.734375 42.832031 75.464844 46.5 72.933594 49.699219 C 73.898438 51.734375 74.367188 53.964844 74.367188 56.433594 C 74.367188 59.367188 73.667969 62.101562 72.234375 64.601562 C 70.832031 67.101562 68.898438 69.132812 66.433594 70.632812 C 64 72.167969 61.300781 72.964844 58.367188 73.035156 C 57.933594 73.035156 57.699219 72.832031 57.699219 72.433594 L 57.699219 67.964844 C 57.699219 67.566406 57.933594 67.367188 58.367188 67.367188 C 61.234375 67.234375 63.632812 66.066406 65.632812 63.933594 C 67.632812 61.800781 68.632812 59.265625 68.632812 56.398438 C 68.632812 53.433594 67.566406 50.898438 65.398438 48.765625 C 63.234375 46.632812 60.699219 45.566406 57.699219 45.566406 L 52.332031 45.566406 C 51.933594 45.566406 51.734375 45.367188 51.734375 45 L 51.464844 43.035156 C 51.101562 39.433594 49.535156 36.398438 46.800781 33.964844 C 44.066406 31.535156 40.867188 30.300781 37.265625 30.300781 C 33.601562 30.300781 30.433594 31.535156 27.734375 33.964844 C 25.035156 36.398438 23.5 39.433594 23.167969 43.035156 L 22.933594 45 C 22.832031 45.300781 22.566406 45.433594 22.199219 45.433594 L 20.5 45.566406 C 17.699219 45.898438 15.332031 47.066406 13.464844 49.101562 C 11.601562 51.132812 10.667969 53.566406 10.667969 56.367188 L 10.667969 56.535156 L 10.765625 56.535156 C 10.800781 59.800781 12.035156 62.464844 14.464844 64.632812 C 15.199219 65.265625 16.035156 65.832031 16.933594 66.265625 L 16.933594 66.332031 C 18.300781 66.964844 19.667969 67.300781 20.964844 67.367188 C 21.332031 67.367188 21.535156 67.566406 21.535156 67.933594 L 21.535156 72.398438 C 21.535156 72.765625 21.332031 72.964844 20.964844 72.964844 C 19.234375 72.867188 17.601562 72.535156 16.035156 71.964844 L 16.035156 72.035156 C 13.265625 71.066406 10.898438 69.464844 9 67.265625 C 7.101562 65.066406 5.832031 62.464844 5.300781 59.566406 L 5.300781 59.433594 C 5.265625 59.398438 5.265625 59.367188 5.265625 59.332031 C 5.035156 58.464844 4.964844 57.5 4.964844 56.398438 Z M 23.300781 80.300781 C 23.300781 80.199219 23.332031 80.066406 23.367188 79.867188 C 23.398438 79.699219 23.433594 79.566406 23.433594 79.464844 L 23.734375 77.5 C 23.964844 76.699219 24.398438 76.132812 25.101562 75.734375 C 25.765625 75.332031 26.535156 75.265625 27.367188 75.464844 C 28.132812 75.699219 28.667969 76.132812 29.066406 76.832031 C 29.433594 77.5 29.5 78.199219 29.300781 78.898438 L 28.832031 80.898438 C 28.5 82.367188 27.667969 83.101562 26.300781 83.101562 C 26.199219 83.101562 26.035156 83.101562 25.800781 83.066406 C 25.566406 83.035156 25.433594 83.035156 25.367188 83.035156 C 24.667969 82.832031 24.167969 82.464844 23.832031 81.933594 C 23.464844 81.433594 23.300781 80.867188 23.300781 80.300781 Z M 25.765625 70.5 C 25.765625 69.699219 26.035156 69.066406 26.535156 68.535156 C 27.066406 68 27.699219 67.765625 28.5 67.765625 C 29.300781 67.765625 29.933594 68.035156 30.464844 68.535156 C 31 69.066406 31.234375 69.699219 31.234375 70.5 C 31.234375 71.265625 30.964844 71.898438 30.464844 72.433594 C 29.964844 72.964844 29.300781 73.199219 28.5 73.199219 C 27.734375 73.199219 27.101562 72.933594 26.601562 72.398438 C 26.035156 71.867188 25.765625 71.234375 25.765625 70.5 Z M 31.234375 90.433594 C 31.234375 90.300781 31.265625 90.066406 31.367188 89.667969 L 31.800781 87.734375 C 32.035156 86.964844 32.5 86.398438 33.167969 86.035156 C 33.867188 85.632812 34.566406 85.566406 35.265625 85.800781 C 36.035156 85.933594 36.632812 86.367188 37.035156 87.035156 C 37.433594 87.699219 37.535156 88.464844 37.300781 89.300781 L 36.867188 91.265625 C 36.535156 92.632812 35.632812 93.300781 34.199219 93.300781 C 34.035156 93.300781 33.765625 93.265625 33.398438 93.167969 C 32.667969 92.964844 32.132812 92.601562 31.765625 92.066406 C 31.398438 91.535156 31.234375 91 31.234375 90.433594 Z M 33 15.398438 C 33 14.601562 33.265625 13.933594 33.832031 13.398438 C 34.398438 12.867188 35.101562 12.601562 35.933594 12.601562 C 36.734375 12.601562 37.398438 12.867188 37.933594 13.398438 L 40.035156 15.601562 C 40.601562 16.167969 40.867188 16.832031 40.867188 17.601562 C 40.867188 18.398438 40.535156 19.132812 39.867188 19.734375 C 39.199219 20.332031 38.535156 20.601562 37.832031 20.5 C 37.132812 20.433594 36.535156 20.132812 36 19.601562 L 33.832031 17.398438 C 33.300781 16.832031 33 16.167969 33 15.398438 Z M 33.867188 80.765625 C 33.867188 80 34.132812 79.332031 34.632812 78.832031 C 35.167969 78.300781 35.800781 78.066406 36.601562 78.066406 C 37.398438 78.066406 38.035156 78.332031 38.566406 78.832031 C 39.101562 79.367188 39.332031 80 39.332031 80.765625 C 39.332031 81.566406 39.066406 82.199219 38.566406 82.734375 C 38.035156 83.265625 37.398438 83.5 36.601562 83.5 C 35.867188 83.5 35.234375 83.234375 34.667969 82.667969 C 34.132812 82.132812 33.867188 81.5 33.867188 80.765625 Z M 35.933594 73.199219 C 35.933594 72.898438 35.964844 72.601562 36.035156 72.332031 L 36.800781 69.332031 C 37.035156 68.566406 37.5 67.964844 38.167969 67.566406 C 38.867188 67.167969 39.566406 67.066406 40.300781 67.300781 C 41.101562 67.535156 41.667969 67.964844 42.066406 68.632812 C 42.464844 69.300781 42.535156 69.964844 42.300781 70.699219 L 41.433594 73.699219 C 41.167969 74.601562 40.699219 75.234375 40.066406 75.601562 C 39.433594 75.964844 38.699219 76 37.933594 75.800781 C 37.265625 75.667969 36.765625 75.332031 36.433594 74.800781 C 36.035156 74.199219 35.867188 73.699219 35.933594 73.199219 Z M 45.132812 80.332031 C 45.132812 80.234375 45.132812 80.101562 45.167969 79.898438 C 45.199219 79.699219 45.199219 79.601562 45.199219 79.535156 L 45.5 77.566406 C 45.734375 76.765625 46.167969 76.199219 46.867188 75.800781 C 47.535156 75.398438 48.300781 75.332031 49.132812 75.535156 C 49.898438 75.765625 50.464844 76.234375 50.832031 76.898438 C 51.234375 77.601562 51.300781 78.300781 51.066406 79 L 50.601562 81 C 50.265625 82.433594 49.433594 83.167969 48.066406 83.167969 C 47.964844 83.167969 47.800781 83.167969 47.566406 83.132812 C 47.332031 83.101562 47.199219 83.101562 47.132812 83.101562 C 46.464844 82.898438 45.964844 82.535156 45.632812 82 C 45.300781 81.433594 45.132812 80.898438 45.132812 80.332031 Z M 47.601562 70.535156 C 47.601562 69.734375 47.867188 69.101562 48.367188 68.566406 C 48.898438 68.035156 49.535156 67.800781 50.332031 67.800781 C 51.132812 67.800781 51.765625 68.066406 52.300781 68.566406 C 52.832031 69.101562 53.066406 69.734375 53.066406 70.535156 C 53.066406 71.300781 52.800781 71.964844 52.300781 72.464844 C 51.765625 73 51.132812 73.234375 50.332031 73.234375 C 49.566406 73.234375 48.898438 72.964844 48.398438 72.398438 C 47.867188 71.898438 47.601562 71.265625 47.601562 70.535156 Z M 51.035156 30.167969 C 53.832031 32.699219 55.699219 35.964844 56.699219 39.933594 L 57.734375 39.933594 C 62.332031 39.933594 66.234375 41.535156 69.464844 44.765625 C 70.5 42.933594 71.035156 40.898438 71.035156 38.699219 C 71.035156 35.433594 69.867188 32.667969 67.566406 30.367188 C 65.265625 28.101562 62.464844 26.933594 59.199219 26.933594 C 56 26.933594 53.265625 28 51.035156 30.167969 Z M 56.367188 12.601562 L 56.367188 5.765625 C 56.367188 4.964844 56.632812 4.300781 57.199219 3.734375 C 57.765625 3.167969 58.433594 2.867188 59.199219 2.867188 C 60 2.867188 60.667969 3.132812 61.199219 3.699219 C 61.734375 4.265625 62 4.964844 62 5.765625 L 62 12.601562 C 62 13.398438 61.734375 14.101562 61.199219 14.667969 C 60.667969 15.234375 60 15.5 59.199219 15.5 C 58.433594 15.5 57.765625 15.199219 57.199219 14.632812 C 56.632812 14.066406 56.367188 13.398438 56.367188 12.601562 Z M 74.964844 20.234375 C 74.964844 19.433594 75.234375 18.765625 75.734375 18.234375 L 80.535156 13.398438 C 81.035156 12.832031 81.667969 12.566406 82.464844 12.566406 C 83.265625 12.566406 83.933594 12.832031 84.464844 13.398438 C 85.066406 13.933594 85.332031 14.601562 85.332031 15.398438 C 85.332031 16.199219 85.035156 16.867188 84.464844 17.398438 L 79.667969 22.265625 C 79.035156 22.898438 78.332031 23.167969 77.566406 23.132812 C 76.800781 23.066406 76.199219 22.800781 75.734375 22.265625 C 75.199219 21.734375 74.964844 21.066406 74.964844 20.234375 Z M 77.535156 59.933594 C 77.535156 59.132812 77.800781 58.464844 78.367188 57.898438 C 78.933594 57.332031 79.601562 57.066406 80.367188 57.066406 C 81.132812 57.066406 81.800781 57.367188 82.398438 57.933594 L 84.464844 60.035156 C 85.066406 60.601562 85.332031 61.300781 85.332031 62.066406 C 85.332031 62.867188 85.035156 63.535156 84.464844 64.066406 C 84 64.632812 83.398438 64.933594 82.667969 64.933594 L 82.601562 64.867188 C 81.800781 64.867188 81.132812 64.601562 80.535156 64.066406 L 78.367188 61.933594 C 77.832031 61.367188 77.535156 60.699219 77.535156 59.933594 Z M 82.433594 38.699219 C 82.433594 37.898438 82.699219 37.234375 83.265625 36.699219 C 83.832031 36.167969 84.5 35.898438 85.300781 35.898438 L 92.167969 35.898438 C 92.964844 35.898438 93.667969 36.167969 94.199219 36.699219 C 94.734375 37.234375 95.035156 37.898438 95.035156 38.699219 C 95.035156 39.5 94.765625 40.167969 94.199219 40.734375 C 93.632812 41.300781 92.964844 41.566406 92.167969 41.566406 L 85.300781 41.566406 C 84.5 41.566406 83.832031 41.265625 83.300781 40.667969 C 82.699219 40.167969 82.433594 39.5 82.433594 38.699219 Z M 82.433594 38.699219 "/>
</g>
</svg>
