<?xml version="1.0" encoding="UTF-8"?>
<svg xmlns="http://www.w3.org/2000/svg" xmlns:xlink="http://www.w3.org/1999/xlink" width="100px" height="100px" viewBox="0 0 100 100" version="1.1">
<g id="surface1">
<path style=" stroke:none;fill-rule:nonzero;fill:rgb(0%,0%,0%);fill-opacity:1;" d="M 4.933594 70.332031 C 4.933594 71.132812 5.234375 71.800781 5.832031 72.332031 C 6.398438 72.898438 7.066406 73.167969 7.867188 73.167969 L 27.464844 73.167969 C 28.332031 73.167969 29.066406 73.464844 29.734375 74.101562 C 30.398438 74.734375 30.734375 75.5 30.734375 76.367188 C 30.734375 77.234375 30.398438 78.035156 29.734375 78.667969 C 29.066406 79.300781 28.332031 79.632812 27.464844 79.632812 C 26.601562 79.632812 25.867188 79.300781 25.199219 78.632812 C 24.601562 78.101562 23.933594 77.832031 23.167969 77.832031 C 22.367188 77.832031 21.699219 78.101562 21.167969 78.632812 C 20.632812 79.167969 20.367188 79.832031 20.367188 80.632812 C 20.367188 81.433594 20.632812 82.101562 21.167969 82.632812 C 22.933594 84.398438 25.035156 85.300781 27.464844 85.300781 C 29.933594 85.300781 32.035156 84.433594 33.734375 82.699219 C 35.433594 80.964844 36.332031 78.867188 36.332031 76.398438 C 36.332031 73.933594 35.464844 71.832031 33.734375 70.101562 C 32 68.367188 29.898438 67.5 27.464844 67.5 L 7.867188 67.5 C 7.066406 67.5 6.398438 67.765625 5.800781 68.332031 C 5.234375 68.898438 4.933594 69.566406 4.933594 70.332031 Z M 4.933594 60.300781 C 4.933594 61.066406 5.234375 61.699219 5.832031 62.234375 C 6.367188 62.765625 7.066406 63.035156 7.867188 63.035156 L 44.433594 63.035156 C 46.898438 63.035156 49 62.167969 50.734375 60.433594 C 52.464844 58.699219 53.332031 56.601562 53.332031 54.132812 C 53.332031 51.667969 52.464844 49.601562 50.734375 47.867188 C 49 46.167969 46.898438 45.300781 44.433594 45.300781 C 41.898438 45.300781 39.832031 46.132812 38.167969 47.832031 C 37.632812 48.367188 37.398438 49.066406 37.398438 49.867188 C 37.398438 50.667969 37.667969 51.332031 38.167969 51.867188 C 38.667969 52.367188 39.332031 52.632812 40.167969 52.632812 C 40.964844 52.632812 41.632812 52.367188 42.234375 51.867188 C 42.867188 51.234375 43.601562 50.933594 44.5 50.933594 C 45.398438 50.933594 46.132812 51.234375 46.765625 51.867188 C 47.398438 52.5 47.734375 53.265625 47.734375 54.132812 C 47.734375 55.035156 47.398438 55.800781 46.765625 56.433594 C 46.132812 57.066406 45.367188 57.398438 44.5 57.398438 L 7.867188 57.398438 C 7.066406 57.398438 6.398438 57.699219 5.800781 58.265625 C 5.234375 58.867188 4.933594 59.535156 4.933594 60.300781 Z M 24.234375 38.5 C 24.234375 37.699219 24.535156 37.035156 25.101562 36.433594 C 25.699219 35.898438 26.367188 35.632812 27.101562 35.632812 L 33.867188 35.632812 C 34.632812 35.632812 35.265625 35.898438 35.800781 36.464844 C 36.332031 37.035156 36.566406 37.699219 36.566406 38.5 C 36.566406 39.300781 36.300781 39.964844 35.800781 40.5 C 35.265625 41.066406 34.632812 41.332031 33.867188 41.332031 L 27.101562 41.332031 C 26.300781 41.332031 25.632812 41.066406 25.066406 40.5 C 24.5 39.933594 24.234375 39.265625 24.234375 38.5 Z M 33.734375 15.433594 C 33.734375 14.667969 34 14 34.5 13.398438 C 35.132812 12.867188 35.867188 12.601562 36.632812 12.601562 C 37.367188 12.601562 38.035156 12.867188 38.601562 13.398438 L 43.367188 18.300781 C 43.898438 18.800781 44.167969 19.464844 44.167969 20.265625 C 44.167969 21.066406 43.898438 21.734375 43.367188 22.265625 C 42.832031 22.800781 42.167969 23.066406 41.398438 23.066406 C 40.601562 23.066406 39.933594 22.800781 39.433594 22.265625 L 34.535156 17.5 C 34 16.933594 33.734375 16.265625 33.734375 15.433594 Z M 42.265625 38.101562 L 42.265625 37.867188 C 42.332031 34.832031 43.167969 32.035156 44.734375 29.433594 C 46.332031 26.867188 48.433594 24.832031 51.066406 23.332031 C 53.699219 21.832031 56.566406 21.101562 59.632812 21.101562 C 61.964844 21.101562 64.199219 21.566406 66.367188 22.5 C 68.5 23.433594 70.367188 24.667969 71.898438 26.234375 C 73.464844 27.800781 74.699219 29.632812 75.601562 31.765625 C 76.5 33.898438 76.964844 36.167969 76.964844 38.5 C 76.964844 41.632812 76.199219 44.5 74.667969 47.167969 C 73.132812 49.832031 71.035156 51.933594 68.398438 53.464844 C 65.765625 55.035156 62.867188 55.800781 59.734375 55.832031 L 59.035156 55.832031 C 58.800781 55.832031 58.601562 55.765625 58.464844 55.601562 C 58.300781 55.433594 58.234375 55.234375 58.234375 55 L 58.234375 50.933594 C 58.234375 50.5 58.464844 50.265625 58.964844 50.265625 L 59.765625 50.265625 C 62.964844 50.234375 65.734375 49.101562 68 46.765625 C 70.265625 44.464844 71.433594 41.699219 71.433594 38.464844 C 71.433594 35.265625 70.265625 32.535156 67.964844 30.234375 C 65.667969 27.964844 62.898438 26.832031 59.632812 26.832031 C 56.5 26.832031 53.765625 27.898438 51.5 30.101562 C 49.234375 32.265625 48.035156 34.898438 47.898438 38 C 47.898438 38.199219 47.800781 38.367188 47.632812 38.566406 C 47.464844 38.765625 47.167969 38.867188 46.765625 38.867188 L 43 38.867188 C 42.5 38.898438 42.265625 38.632812 42.265625 38.101562 Z M 56.765625 71.035156 L 56.765625 64.398438 C 56.765625 63.601562 57.035156 62.933594 57.601562 62.398438 C 58.167969 61.867188 58.832031 61.601562 59.601562 61.601562 C 60.433594 61.601562 61.101562 61.867188 61.632812 62.398438 C 62.167969 62.933594 62.433594 63.601562 62.433594 64.398438 L 62.433594 71.035156 C 62.433594 71.832031 62.167969 72.535156 61.601562 73.101562 C 61.035156 73.667969 60.367188 73.933594 59.601562 73.933594 C 58.800781 73.933594 58.132812 73.667969 57.601562 73.101562 C 57.066406 72.535156 56.765625 71.832031 56.765625 71.035156 Z M 56.765625 12.765625 L 56.765625 5.933594 C 56.765625 5.167969 57.035156 4.5 57.601562 3.933594 C 58.167969 3.367188 58.832031 3.101562 59.601562 3.101562 C 60.398438 3.101562 61.066406 3.367188 61.601562 3.933594 C 62.132812 4.5 62.433594 5.167969 62.433594 5.933594 L 62.433594 12.734375 C 62.433594 13.5 62.167969 14.132812 61.601562 14.667969 C 61.035156 15.167969 60.367188 15.433594 59.601562 15.433594 C 58.800781 15.433594 58.132812 15.167969 57.601562 14.667969 C 57.066406 14.167969 56.765625 13.535156 56.765625 12.765625 Z M 75.199219 56.699219 C 75.199219 55.933594 75.464844 55.300781 75.964844 54.832031 C 76.464844 54.300781 77.101562 54.066406 77.867188 54.066406 C 78.667969 54.066406 79.332031 54.332031 79.867188 54.832031 L 84.699219 59.566406 C 85.234375 60.132812 85.5 60.832031 85.5 61.601562 C 85.5 62.367188 85.234375 63.035156 84.699219 63.566406 C 83.367188 64.601562 82.035156 64.601562 80.699219 63.566406 L 75.964844 58.800781 C 75.433594 58.265625 75.199219 57.535156 75.199219 56.699219 Z M 75.199219 20.265625 C 75.199219 19.433594 75.464844 18.765625 75.964844 18.300781 L 80.699219 13.398438 C 81.300781 12.867188 81.933594 12.601562 82.667969 12.601562 C 83.433594 12.601562 84.101562 12.867188 84.667969 13.433594 C 85.234375 14 85.5 14.667969 85.5 15.433594 C 85.5 16.265625 85.234375 16.964844 84.699219 17.5 L 79.867188 22.265625 C 79.265625 22.800781 78.601562 23.066406 77.867188 23.066406 C 77.101562 23.066406 76.5 22.800781 75.964844 22.265625 C 75.433594 21.734375 75.199219 21.066406 75.199219 20.265625 Z M 82.734375 38.5 C 82.734375 37.699219 83 37.035156 83.535156 36.433594 C 84.066406 35.898438 84.699219 35.632812 85.433594 35.632812 L 92.167969 35.632812 C 92.933594 35.632812 93.601562 35.933594 94.199219 36.5 C 94.800781 37.066406 95.066406 37.734375 95.066406 38.5 C 95.066406 39.265625 94.765625 39.933594 94.199219 40.5 C 93.601562 41.066406 92.933594 41.332031 92.167969 41.332031 L 85.433594 41.332031 C 84.667969 41.332031 84.035156 41.066406 83.5 40.5 C 82.964844 39.964844 82.734375 39.300781 82.734375 38.5 Z M 82.734375 38.5 "/>
</g>
</svg>
