<?xml version="1.0" encoding="UTF-8"?>
<svg xmlns="http://www.w3.org/2000/svg" xmlns:xlink="http://www.w3.org/1999/xlink" width="100px" height="100px" viewBox="0 0 100 100" version="1.1">
<g id="surface1">
<path style=" stroke:none;fill-rule:nonzero;fill:rgb(0%,0%,0%);fill-opacity:1;" d="M 33.5 58.5 C 33.5 59.5 33.800781 60.332031 34.367188 60.933594 C 35.035156 61.566406 35.898438 61.867188 37 61.867188 C 38 61.867188 38.832031 61.566406 39.433594 60.933594 L 59.566406 40.765625 L 59.566406 47.265625 C 59.566406 48.265625 59.898438 49.101562 60.566406 49.765625 C 61.234375 50.433594 62.066406 50.765625 63.066406 50.765625 C 64.035156 50.765625 64.867188 50.433594 65.535156 49.734375 C 66.199219 49.035156 66.535156 48.234375 66.535156 47.234375 L 66.535156 32.332031 C 66.535156 31.332031 66.199219 30.5 65.535156 29.832031 C 64.867188 29.167969 64.035156 28.832031 63.066406 28.832031 L 48.066406 28.832031 C 47.101562 28.832031 46.265625 29.167969 45.632812 29.832031 C 45 30.5 44.667969 31.300781 44.667969 32.332031 C 44.667969 33.300781 45 34.132812 45.632812 34.765625 C 46.265625 35.398438 47.101562 35.734375 48.066406 35.734375 L 54.566406 35.734375 L 34.367188 55.933594 C 33.800781 56.632812 33.5 57.5 33.5 58.5 Z M 33.5 58.5 "/>
</g>
</svg>
