<?xml version="1.0" encoding="UTF-8"?>
<svg xmlns="http://www.w3.org/2000/svg" xmlns:xlink="http://www.w3.org/1999/xlink" width="100px" height="100px" viewBox="0 0 100 100" version="1.1">
<g id="surface1">
<path style=" stroke:none;fill-rule:nonzero;fill:rgb(0%,0%,0%);fill-opacity:1;" d="M 5.199219 56.332031 C 5.199219 60.765625 6.734375 64.566406 9.832031 67.765625 C 12.933594 70.964844 16.699219 72.667969 21.167969 72.867188 C 21.535156 72.867188 21.734375 72.667969 21.734375 72.300781 L 21.734375 67.734375 C 21.734375 67.332031 21.535156 67.132812 21.167969 67.132812 C 18.265625 66.898438 15.832031 65.765625 13.867188 63.667969 C 11.898438 61.601562 10.898438 59.132812 10.898438 56.300781 C 10.898438 53.5 11.832031 51.066406 13.734375 49 C 15.632812 46.933594 17.933594 45.765625 20.734375 45.535156 L 22.464844 45.265625 C 22.898438 45.265625 23.132812 45.066406 23.132812 44.699219 L 23.332031 43 C 23.699219 39.398438 25.199219 36.367188 27.898438 33.964844 C 30.601562 31.535156 33.765625 30.332031 37.433594 30.332031 C 41.066406 30.332031 44.234375 31.535156 46.933594 33.964844 C 49.632812 36.367188 51.167969 39.398438 51.566406 43.035156 L 51.800781 44.964844 C 51.800781 45.332031 52 45.535156 52.433594 45.535156 L 57.765625 45.535156 C 60.800781 45.535156 63.367188 46.601562 65.5 48.699219 C 67.632812 50.800781 68.699219 53.332031 68.699219 56.300781 C 68.699219 59.132812 67.699219 61.601562 65.734375 63.667969 C 63.765625 65.734375 61.332031 66.898438 58.433594 67.132812 C 58 67.132812 57.765625 67.332031 57.765625 67.734375 L 57.765625 72.300781 C 57.765625 72.667969 58 72.867188 58.433594 72.867188 C 62.867188 72.734375 66.632812 71.035156 69.699219 67.832031 C 72.765625 64.632812 74.300781 60.800781 74.300781 56.332031 C 74.300781 54.066406 73.765625 51.765625 72.734375 49.433594 C 75.332031 46.300781 76.667969 42.667969 76.667969 38.535156 C 76.667969 36.167969 76.199219 33.898438 75.265625 31.734375 C 74.332031 29.566406 73.101562 27.734375 71.535156 26.167969 C 69.964844 24.601562 68.101562 23.367188 65.964844 22.433594 C 63.800781 21.535156 61.566406 21.066406 59.199219 21.066406 C 54.066406 21.066406 49.734375 23 46.265625 26.832031 C 43.398438 25.464844 40.464844 24.765625 37.433594 24.765625 C 32.699219 24.765625 28.535156 26.199219 24.898438 29.101562 C 21.265625 32 18.933594 35.734375 17.898438 40.332031 C 14.234375 41.199219 11.199219 43.101562 8.800781 46.101562 C 6.398438 49.101562 5.199219 52.5 5.199219 56.332031 Z M 30.199219 93.898438 L 31.199219 93.898438 L 48.933594 67.734375 C 49.066406 67.601562 49.101562 67.433594 49 67.265625 C 48.898438 67.101562 48.765625 67.035156 48.535156 67.035156 L 41.265625 67.035156 L 48.933594 53 C 49.167969 52.535156 49.035156 52.265625 48.464844 52.265625 L 38.667969 52.265625 C 38.398438 52.265625 38.167969 52.433594 37.933594 52.734375 L 30.734375 71.800781 C 30.667969 72.265625 30.800781 72.5 31.199219 72.5 L 38.433594 72.5 Z M 33.132812 15.300781 C 33.132812 16.132812 33.398438 16.832031 33.933594 17.367188 L 36.132812 19.535156 C 37.535156 20.601562 38.867188 20.601562 40.167969 19.535156 C 40.699219 18.933594 40.964844 18.234375 40.964844 17.398438 C 40.964844 16.632812 40.699219 15.964844 40.167969 15.433594 L 38.035156 13.265625 C 37.398438 12.699219 36.734375 12.433594 35.964844 12.433594 C 35.199219 12.433594 34.535156 12.699219 33.964844 13.265625 C 33.398438 13.832031 33.132812 14.535156 33.132812 15.300781 Z M 50.933594 30.066406 C 53.199219 27.800781 55.964844 26.667969 59.199219 26.667969 C 62.464844 26.667969 65.234375 27.832031 67.5 30.132812 C 69.800781 32.433594 70.933594 35.234375 70.933594 38.535156 C 70.933594 40.566406 70.367188 42.566406 69.234375 44.566406 C 65.964844 41.433594 62.132812 39.867188 57.699219 39.867188 L 56.667969 39.867188 C 55.800781 36.066406 53.867188 32.800781 50.933594 30.066406 Z M 56.332031 12.433594 C 56.332031 13.265625 56.601562 13.964844 57.132812 14.5 C 57.667969 15.035156 58.332031 15.300781 59.167969 15.300781 C 59.964844 15.300781 60.601562 15.035156 61.132812 14.5 C 61.667969 13.964844 61.898438 13.265625 61.898438 12.433594 L 61.898438 5.632812 C 61.898438 4.832031 61.632812 4.199219 61.132812 3.667969 C 60.601562 3.132812 59.964844 2.898438 59.167969 2.898438 C 58.367188 2.898438 57.699219 3.167969 57.167969 3.667969 C 56.632812 4.167969 56.332031 4.832031 56.332031 5.632812 Z M 74.734375 20.167969 C 74.734375 20.933594 75.035156 21.601562 75.632812 22.167969 C 76.234375 22.734375 76.867188 23 77.464844 23 C 78 23 78.699219 22.734375 79.535156 22.167969 L 84.332031 17.398438 C 84.898438 16.800781 85.167969 16.101562 85.167969 15.300781 C 85.167969 14.5 84.898438 13.800781 84.332031 13.265625 C 83.765625 12.734375 83.101562 12.464844 82.332031 12.464844 C 81.601562 12.464844 80.964844 12.734375 80.398438 13.300781 L 75.632812 18.066406 C 75.035156 18.699219 74.734375 19.398438 74.734375 20.167969 Z M 77.433594 59.566406 C 77.433594 60.332031 77.699219 61 78.234375 61.601562 L 80.398438 63.800781 C 80.933594 64.332031 81.601562 64.601562 82.332031 64.601562 C 83.132812 64.601562 83.800781 64.332031 84.332031 63.765625 C 84.898438 63.199219 85.167969 62.5 85.167969 61.667969 C 85.167969 60.898438 84.898438 60.265625 84.332031 59.765625 L 82.265625 57.566406 C 81.632812 57.035156 80.964844 56.800781 80.199219 56.800781 C 79.433594 56.800781 78.765625 57.066406 78.234375 57.601562 C 77.699219 58.132812 77.433594 58.800781 77.433594 59.566406 Z M 82.265625 38.535156 C 82.265625 39.265625 82.566406 39.898438 83.132812 40.433594 C 83.699219 41 84.367188 41.265625 85.132812 41.265625 L 91.933594 41.265625 C 92.734375 41.265625 93.398438 41 93.964844 40.464844 C 94.535156 39.933594 94.800781 39.300781 94.800781 38.5 C 94.800781 37.699219 94.5 37.035156 93.933594 36.464844 C 93.367188 35.898438 92.699219 35.632812 91.933594 35.632812 L 85.132812 35.632812 C 84.367188 35.632812 83.699219 35.898438 83.132812 36.464844 C 82.566406 37.066406 82.265625 37.734375 82.265625 38.535156 Z M 82.265625 38.535156 "/>
</g>
</svg>
