<?xml version="1.0" encoding="UTF-8"?>
<svg xmlns="http://www.w3.org/2000/svg" xmlns:xlink="http://www.w3.org/1999/xlink" width="100px" height="100px" viewBox="0 0 100 100" version="1.1">
<g id="surface1">
<path style=" stroke:none;fill-rule:nonzero;fill:rgb(0%,0%,0%);fill-opacity:1;" d="M 43.964844 30.699219 C 43.964844 29.035156 44.566406 27.601562 45.734375 26.433594 C 46.933594 25.234375 48.332031 24.667969 50 24.667969 C 51.632812 24.667969 53.066406 25.265625 54.234375 26.433594 C 55.398438 27.632812 56 29.035156 56 30.699219 C 56 32.367188 55.398438 33.800781 54.234375 35 C 53.066406 36.199219 51.632812 36.800781 50 36.800781 C 48.367188 36.800781 46.933594 36.199219 45.734375 35 C 44.535156 33.800781 43.964844 32.367188 43.964844 30.699219 Z M 46.898438 30.699219 C 46.898438 31.566406 47.199219 32.300781 47.800781 32.933594 C 48.433594 33.566406 49.167969 33.867188 50.035156 33.867188 C 50.898438 33.867188 51.632812 33.566406 52.265625 32.933594 C 52.898438 32.300781 53.199219 31.566406 53.199219 30.699219 C 53.199219 29.832031 52.898438 29.101562 52.265625 28.5 C 51.632812 27.898438 50.898438 27.566406 50.035156 27.566406 C 49.167969 27.566406 48.433594 27.867188 47.800781 28.464844 C 47.199219 29.066406 46.898438 29.800781 46.898438 30.699219 Z M 46.898438 30.699219 "/>
</g>
</svg>
