<?xml version="1.0" encoding="UTF-8"?>
<svg xmlns="http://www.w3.org/2000/svg" xmlns:xlink="http://www.w3.org/1999/xlink" width="100px" height="100px" viewBox="0 0 100 100" version="1.1">
<g id="surface1">
<path style=" stroke:none;fill-rule:nonzero;fill:rgb(0%,0%,0%);fill-opacity:1;" d="M 4.933594 56.367188 C 4.933594 60.101562 6.035156 63.464844 8.265625 66.398438 C 10.5 69.332031 13.367188 71.300781 16.867188 72.300781 C 17.167969 72.332031 17.433594 72.265625 17.667969 72.035156 L 21.566406 67.332031 C 18.601562 67.332031 16.035156 66.265625 13.898438 64.101562 C 11.765625 61.933594 10.699219 59.367188 10.699219 56.332031 C 10.699219 53.566406 11.632812 51.167969 13.535156 49.101562 C 15.433594 47.066406 17.765625 45.867188 20.566406 45.535156 L 22.199219 45.433594 C 22.632812 45.433594 22.867188 45.234375 22.867188 44.800781 L 23.101562 43 C 23.464844 39.398438 25 36.367188 27.699219 33.933594 C 30.398438 31.5 33.601562 30.265625 37.234375 30.265625 C 40.898438 30.265625 44.101562 31.5 46.832031 33.933594 C 49.566406 36.367188 51.101562 39.398438 51.464844 43 L 51.699219 44.964844 C 51.832031 45.332031 52.101562 45.535156 52.433594 45.535156 L 57.898438 45.535156 C 60.832031 45.535156 63.367188 46.601562 65.5 48.699219 C 67.632812 50.800781 68.699219 53.367188 68.699219 56.300781 C 68.699219 59.101562 67.765625 61.566406 65.867188 63.667969 C 63.964844 65.765625 61.699219 66.933594 58.964844 67.167969 C 57.332031 67.367188 56.332031 67.667969 55.964844 68.101562 L 48.667969 77.5 C 48.199219 78.132812 48.035156 78.832031 48.132812 79.601562 C 48.234375 80.367188 48.566406 81 49.167969 81.464844 C 49.667969 82.035156 50.332031 82.265625 51.167969 82.167969 C 52 82.066406 52.667969 81.667969 53.167969 80.964844 L 59.566406 72.765625 C 62.300781 72.5 64.800781 71.601562 67.066406 70.035156 C 69.332031 68.5 71.101562 66.5 72.433594 64.066406 C 73.734375 61.632812 74.398438 59.035156 74.398438 56.265625 C 74.398438 53.867188 73.933594 51.632812 73 49.566406 C 75.632812 46.367188 76.933594 42.667969 76.933594 38.464844 C 76.933594 36.101562 76.464844 33.867188 75.535156 31.699219 C 74.601562 29.535156 73.332031 27.667969 71.765625 26.101562 C 70.199219 24.535156 68.332031 23.300781 66.167969 22.367188 C 64 21.433594 61.734375 20.964844 59.367188 20.964844 C 54.367188 20.964844 50.066406 22.898438 46.433594 26.765625 C 43.800781 25.300781 40.765625 24.566406 37.367188 24.566406 C 32.667969 24.566406 28.5 26.035156 24.867188 28.964844 C 21.234375 31.898438 18.933594 35.632812 17.964844 40.199219 C 14.199219 41.066406 11.101562 42.964844 8.667969 45.964844 C 6.234375 48.964844 4.933594 52.535156 4.933594 56.367188 Z M 17.933594 83.832031 C 18.167969 84.566406 18.699219 85.101562 19.464844 85.433594 C 20.199219 85.765625 20.933594 85.765625 21.699219 85.464844 C 22.464844 85.167969 22.964844 84.632812 23.234375 83.898438 C 23.535156 83.199219 23.566406 82.535156 23.234375 81.832031 C 22.933594 81.132812 22.433594 80.632812 21.734375 80.300781 C 21 79.964844 20.265625 79.933594 19.535156 80.234375 C 18.800781 80.535156 18.300781 81.035156 18.035156 81.765625 C 17.734375 82.601562 17.699219 83.300781 17.933594 83.832031 Z M 23.964844 74.699219 L 23.964844 75.066406 C 24.035156 75.800781 24.367188 76.398438 24.964844 76.898438 C 25.566406 77.398438 26.234375 77.632812 27.066406 77.566406 C 27.867188 77.5 28.5 77.167969 28.964844 76.601562 L 36.234375 67.199219 C 36.699219 66.601562 36.933594 65.898438 36.867188 65.101562 C 36.800781 64.300781 36.464844 63.667969 35.898438 63.199219 C 35.300781 62.699219 34.601562 62.5 33.800781 62.566406 C 33 62.632812 32.332031 63 31.800781 63.601562 L 24.632812 72.933594 C 24.167969 73.464844 23.964844 74.066406 23.964844 74.699219 Z M 25.667969 90.898438 C 25.667969 91.101562 25.734375 91.433594 25.867188 91.898438 C 26.167969 92.632812 26.667969 93.132812 27.398438 93.433594 C 27.765625 93.566406 28.167969 93.667969 28.601562 93.667969 C 28.898438 93.667969 29.265625 93.601562 29.632812 93.5 C 30.332031 93.234375 30.832031 92.734375 31.101562 92.035156 C 31.433594 91.300781 31.464844 90.566406 31.167969 89.800781 C 30.898438 89.035156 30.398438 88.535156 29.667969 88.265625 C 28.933594 87.933594 28.199219 87.933594 27.433594 88.234375 C 26.667969 88.535156 26.167969 89.035156 25.933594 89.734375 C 25.765625 90.101562 25.667969 90.5 25.667969 90.898438 Z M 31.234375 83 L 31.234375 83.332031 C 31.300781 84.101562 31.667969 84.734375 32.332031 85.265625 C 32.832031 85.800781 33.5 86.035156 34.332031 85.933594 C 35.167969 85.832031 35.832031 85.464844 36.332031 84.800781 L 50.132812 67.367188 C 50.601562 66.699219 50.765625 66 50.699219 65.234375 C 50.632812 64.464844 50.265625 63.832031 49.667969 63.265625 C 49.066406 62.800781 48.367188 62.601562 47.601562 62.699219 C 46.832031 62.800781 46.199219 63.132812 45.734375 63.734375 L 31.867188 81.265625 C 31.433594 81.765625 31.234375 82.367188 31.234375 83 Z M 33.167969 15.367188 C 33.167969 16.167969 33.464844 16.832031 34.066406 17.332031 L 36.101562 19.535156 C 36.632812 20.066406 37.234375 20.332031 37.898438 20.398438 C 38.601562 20.5 39.265625 20.265625 39.933594 19.667969 C 40.601562 19.066406 40.933594 18.367188 40.933594 17.535156 C 40.933594 16.800781 40.667969 16.101562 40.132812 15.535156 L 38 13.367188 C 37.5 12.832031 36.867188 12.566406 36.066406 12.566406 C 35.265625 12.566406 34.566406 12.832031 34 13.367188 C 33.464844 13.933594 33.167969 14.601562 33.167969 15.367188 Z M 43 86.800781 C 43 87.199219 43.066406 87.535156 43.234375 87.832031 C 43.535156 88.566406 44.035156 89.066406 44.734375 89.367188 C 45.101562 89.535156 45.464844 89.632812 45.898438 89.632812 C 46.101562 89.632812 46.433594 89.566406 46.898438 89.433594 C 47.632812 89.132812 48.167969 88.632812 48.433594 87.898438 C 48.765625 87.167969 48.800781 86.433594 48.5 85.699219 C 48.234375 84.964844 47.734375 84.464844 47 84.199219 C 46.265625 83.867188 45.535156 83.832031 44.765625 84.132812 C 44 84.433594 43.5 84.933594 43.234375 85.632812 C 43.066406 86 43 86.398438 43 86.800781 Z M 51 30.101562 C 53.367188 27.964844 56.101562 26.867188 59.265625 26.867188 C 62.566406 26.867188 65.367188 28 67.699219 30.300781 C 70.035156 32.601562 71.199219 35.332031 71.199219 38.601562 C 71.199219 40.800781 70.632812 42.867188 69.464844 44.800781 C 66.234375 41.566406 62.367188 39.964844 57.867188 39.964844 L 56.734375 39.964844 C 55.832031 36.101562 53.933594 32.832031 51 30.101562 Z M 56.433594 12.566406 C 56.433594 13.332031 56.699219 14 57.265625 14.535156 C 57.832031 15.066406 58.5 15.332031 59.265625 15.332031 C 60.066406 15.332031 60.765625 15.066406 61.332031 14.535156 C 61.898438 14 62.167969 13.332031 62.167969 12.566406 L 62.167969 5.667969 C 62.167969 4.898438 61.867188 4.234375 61.300781 3.667969 C 60.734375 3.101562 60.035156 2.832031 59.265625 2.832031 C 58.5 2.832031 57.832031 3.101562 57.265625 3.667969 C 56.699219 4.234375 56.433594 4.898438 56.433594 5.667969 Z M 75 20.167969 C 75 20.964844 75.234375 21.632812 75.734375 22.167969 C 76.332031 22.734375 77 23 77.765625 23.035156 C 78.535156 23.035156 79.167969 22.765625 79.667969 22.167969 L 84.667969 17.332031 C 85.199219 16.800781 85.464844 16.101562 85.464844 15.300781 C 85.464844 14.5 85.167969 13.832031 84.601562 13.265625 C 84.035156 12.699219 83.367188 12.398438 82.601562 12.398438 C 81.867188 12.398438 81.199219 12.667969 80.601562 13.234375 L 75.765625 18.132812 C 75.265625 18.699219 75 19.367188 75 20.167969 Z M 77.601562 59.832031 C 77.601562 60.632812 77.867188 61.300781 78.398438 61.832031 L 80.601562 63.933594 C 81.132812 64.464844 81.734375 64.765625 82.398438 64.832031 L 82.601562 64.832031 C 83.199219 64.832031 83.867188 64.535156 84.667969 63.933594 C 85.199219 63.398438 85.464844 62.734375 85.464844 62 C 85.464844 61.199219 85.199219 60.5 84.667969 59.898438 L 82.464844 57.832031 C 81.933594 57.265625 81.265625 57 80.5 57 C 79.699219 57 79 57.265625 78.433594 57.832031 C 77.898438 58.367188 77.601562 59.066406 77.601562 59.832031 Z M 82.601562 38.601562 C 82.601562 39.398438 82.867188 40.066406 83.398438 40.601562 C 83.933594 41.199219 84.601562 41.5 85.398438 41.5 L 92.199219 41.5 C 93 41.5 93.667969 41.199219 94.234375 40.632812 C 94.800781 40.066406 95.066406 39.367188 95.066406 38.601562 C 95.066406 37.832031 94.800781 37.167969 94.234375 36.632812 C 93.667969 36.101562 93 35.832031 92.199219 35.832031 L 85.398438 35.832031 C 84.601562 35.832031 83.933594 36.101562 83.398438 36.632812 C 82.867188 37.167969 82.601562 37.832031 82.601562 38.601562 Z M 82.601562 38.601562 "/>
</g>
</svg>
