<?xml version="1.0" encoding="UTF-8"?>
<svg xmlns="http://www.w3.org/2000/svg" xmlns:xlink="http://www.w3.org/1999/xlink" width="100px" height="100px" viewBox="0 0 100 100" version="1.1">
<g id="surface1">
<path style=" stroke:none;fill-rule:nonzero;fill:rgb(0%,0%,0%);fill-opacity:1;" d="M 1.167969 70.035156 C 1.167969 70.832031 1.464844 71.5 2.066406 72.035156 C 2.632812 72.601562 3.300781 72.867188 4.101562 72.867188 L 23.699219 72.867188 C 24.566406 72.867188 25.300781 73.167969 25.964844 73.800781 C 26.632812 74.433594 26.964844 75.199219 26.964844 76.066406 C 26.964844 76.933594 26.632812 77.734375 25.964844 78.367188 C 25.300781 79 24.566406 79.332031 23.699219 79.332031 C 22.832031 79.332031 22.101562 79 21.433594 78.332031 C 20.832031 77.800781 20.167969 77.535156 19.398438 77.535156 C 18.601562 77.535156 17.933594 77.800781 17.398438 78.332031 C 16.867188 78.867188 16.601562 79.535156 16.601562 80.332031 C 16.601562 81.132812 16.867188 81.800781 17.398438 82.332031 C 19.167969 84.101562 21.265625 85 23.699219 85 C 26.167969 85 28.265625 84.132812 29.964844 82.398438 C 31.699219 80.667969 32.566406 78.566406 32.566406 76.101562 C 32.566406 73.632812 31.699219 71.535156 29.964844 69.800781 C 28.234375 68.035156 26.132812 67.167969 23.699219 67.167969 L 4.101562 67.167969 C 3.300781 67.167969 2.632812 67.464844 2.035156 68.035156 C 1.433594 68.601562 1.167969 69.265625 1.167969 70.035156 Z M 1.167969 60 C 1.167969 60.734375 1.464844 61.367188 2.066406 61.898438 C 2.632812 62.464844 3.300781 62.734375 4.101562 62.734375 L 40.667969 62.734375 C 43.132812 62.734375 45.234375 61.867188 46.964844 60.132812 C 48.699219 58.398438 49.566406 56.300781 49.566406 53.832031 C 49.566406 51.367188 48.699219 49.300781 46.964844 47.566406 C 45.234375 45.867188 43.132812 45 40.667969 45 C 38.132812 45 36.066406 45.832031 34.398438 47.535156 C 33.867188 48.066406 33.632812 48.765625 33.632812 49.566406 C 33.632812 50.367188 33.898438 51.035156 34.398438 51.566406 C 34.898438 52.066406 35.566406 52.332031 36.398438 52.332031 C 37.199219 52.332031 37.867188 52.066406 38.464844 51.566406 C 39.101562 50.933594 39.832031 50.632812 40.699219 50.632812 C 41.566406 50.632812 42.332031 50.933594 42.964844 51.566406 C 43.601562 52.199219 43.933594 52.964844 43.933594 53.832031 C 43.933594 54.734375 43.601562 55.5 42.964844 56.132812 C 42.332031 56.765625 41.566406 57.101562 40.699219 57.101562 L 4.101562 57.101562 C 3.300781 57.101562 2.632812 57.398438 2.035156 57.964844 C 1.433594 58.566406 1.167969 59.234375 1.167969 60 Z M 10 52.167969 C 10 52.433594 10.199219 52.566406 10.566406 52.566406 L 15.332031 52.566406 C 15.566406 52.566406 15.765625 52.398438 16 52.101562 C 16.734375 50.300781 17.898438 48.800781 19.5 47.601562 C 21.066406 46.433594 22.832031 45.765625 24.832031 45.601562 L 26.601562 45.367188 C 27 45.367188 27.234375 45.167969 27.234375 44.800781 L 27.464844 43.066406 C 27.832031 39.464844 29.332031 36.464844 32.035156 34.035156 C 34.734375 31.601562 37.898438 30.398438 41.535156 30.398438 C 45.199219 30.398438 48.367188 31.601562 51.066406 34 C 53.765625 36.398438 55.300781 39.433594 55.667969 43.035156 L 55.898438 44.964844 C 55.898438 45.367188 56.101562 45.566406 56.5 45.566406 L 61.933594 45.566406 C 64.933594 45.566406 67.5 46.601562 69.601562 48.699219 C 71.699219 50.800781 72.765625 53.332031 72.765625 56.265625 C 72.765625 59.234375 71.699219 61.800781 69.601562 63.898438 C 67.5 66 64.933594 67.066406 61.933594 67.066406 L 38.933594 67.066406 C 38.5 67.066406 38.300781 67.265625 38.300781 67.667969 L 38.300781 72.234375 C 38.300781 72.601562 38.5 72.800781 38.933594 72.800781 L 61.933594 72.800781 C 64.898438 72.800781 67.667969 72.066406 70.199219 70.566406 C 72.734375 69.101562 74.734375 67.066406 76.199219 64.535156 C 77.667969 62 78.398438 59.234375 78.398438 56.265625 C 78.398438 53.800781 77.933594 51.566406 77 49.5 C 79.535156 46.199219 80.765625 42.5 80.765625 38.464844 C 80.765625 35.332031 79.964844 32.433594 78.398438 29.734375 C 76.832031 27.035156 74.699219 24.898438 72 23.332031 C 69.300781 21.765625 66.398438 20.964844 63.265625 20.964844 C 58.132812 20.964844 53.832031 22.898438 50.398438 26.734375 C 47.734375 25.367188 44.765625 24.699219 41.5 24.699219 C 36.800781 24.699219 32.667969 26.167969 29.066406 29.066406 C 25.464844 31.964844 23.167969 35.699219 22.199219 40.199219 C 19.367188 40.867188 16.867188 42.234375 14.699219 44.300781 C 12.535156 46.367188 11 48.800781 10.167969 51.601562 L 10.167969 51.734375 C 10.035156 51.964844 10 52.066406 10 52.167969 Z M 37.265625 15.398438 C 37.265625 16.167969 37.566406 16.832031 38.167969 17.398438 L 40.199219 19.566406 C 40.734375 20.101562 41.433594 20.367188 42.234375 20.367188 C 43.066406 20.367188 43.734375 20.101562 44.265625 19.601562 C 44.800781 19.101562 45.066406 18.433594 45.066406 17.601562 C 45.066406 16.800781 44.832031 16.132812 44.300781 15.601562 L 42.101562 13.433594 C 41.566406 12.867188 40.933594 12.566406 40.132812 12.566406 C 39.332031 12.566406 38.667969 12.832031 38.101562 13.398438 C 37.535156 13.964844 37.265625 14.632812 37.265625 15.398438 Z M 55 30.101562 C 57.398438 27.832031 60.132812 26.699219 63.265625 26.699219 C 66.5 26.699219 69.265625 27.867188 71.632812 30.199219 C 73.964844 32.535156 75.132812 35.332031 75.132812 38.566406 C 75.132812 40.734375 74.566406 42.765625 73.398438 44.667969 C 70.199219 41.464844 66.367188 39.898438 61.867188 39.898438 L 60.734375 39.898438 C 59.964844 36.265625 58.035156 33 55 30.101562 Z M 60.398438 12.632812 C 60.398438 13.398438 60.667969 14.066406 61.234375 14.601562 C 61.800781 15.132812 62.464844 15.398438 63.234375 15.398438 C 64.035156 15.398438 64.699219 15.132812 65.265625 14.601562 C 65.832031 14.066406 66.101562 13.433594 66.101562 12.632812 L 66.101562 5.800781 C 66.101562 5 65.832031 4.332031 65.265625 3.765625 C 64.699219 3.199219 64.035156 2.933594 63.234375 2.933594 C 62.433594 2.933594 61.765625 3.199219 61.234375 3.765625 C 60.699219 4.332031 60.398438 5 60.398438 5.800781 Z M 78.898438 20.199219 C 78.898438 21 79.167969 21.667969 79.667969 22.199219 C 80.234375 22.765625 80.898438 23.035156 81.699219 23.066406 C 82.5 23.101562 83.132812 22.800781 83.601562 22.199219 L 88.464844 17.433594 C 89.035156 16.867188 89.300781 16.199219 89.300781 15.398438 C 89.300781 14.632812 89.035156 13.964844 88.464844 13.398438 C 87.898438 12.832031 87.234375 12.566406 86.433594 12.566406 C 85.632812 12.566406 84.964844 12.800781 84.433594 13.332031 L 79.667969 18.234375 C 79.167969 18.765625 78.898438 19.398438 78.898438 20.199219 Z M 81.464844 59.632812 C 81.464844 60.398438 81.734375 61.066406 82.300781 61.632812 L 84.433594 63.800781 C 85.101562 64.332031 85.800781 64.601562 86.5 64.601562 C 87.132812 64.601562 87.800781 64.332031 88.464844 63.800781 C 89.035156 63.234375 89.300781 62.566406 89.300781 61.800781 C 89.300781 61.066406 89.035156 60.398438 88.464844 59.765625 L 86.332031 57.601562 C 85.800781 57.066406 85.132812 56.800781 84.398438 56.800781 C 83.566406 56.800781 82.867188 57.066406 82.300781 57.632812 C 81.734375 58.167969 81.464844 58.832031 81.464844 59.632812 Z M 86.5 38.566406 C 86.5 39.367188 86.765625 40 87.332031 40.535156 C 87.832031 41.132812 88.464844 41.398438 89.234375 41.398438 L 95.964844 41.398438 C 96.765625 41.398438 97.433594 41.132812 98 40.566406 C 98.566406 40 98.832031 39.332031 98.832031 38.566406 C 98.832031 37.800781 98.535156 37.132812 97.964844 36.566406 C 97.398438 36 96.734375 35.699219 95.964844 35.699219 L 89.234375 35.699219 C 88.433594 35.699219 87.800781 35.964844 87.265625 36.535156 C 86.765625 37.101562 86.5 37.765625 86.5 38.566406 Z M 86.5 38.566406 "/>
</g>
</svg>
