<?xml version="1.0" encoding="UTF-8"?>
<svg xmlns="http://www.w3.org/2000/svg" xmlns:xlink="http://www.w3.org/1999/xlink" width="100px" height="100px" viewBox="0 0 100 100" version="1.1">
<g id="surface1">
<path style=" stroke:none;fill-rule:nonzero;fill:rgb(0%,0%,0%);fill-opacity:1;" d="M 5.199219 56.265625 C 5.199219 60.699219 6.734375 64.5 9.832031 67.699219 C 12.933594 70.898438 16.699219 72.566406 21.167969 72.800781 C 21.535156 72.800781 21.734375 72.601562 21.734375 72.234375 L 21.734375 67.765625 C 21.734375 67.367188 21.535156 67.167969 21.167969 67.167969 C 18.332031 67.035156 15.933594 65.898438 13.933594 63.765625 C 11.933594 61.632812 10.964844 59.132812 10.964844 56.265625 C 10.964844 53.464844 11.898438 51.066406 13.765625 49.035156 C 15.632812 47 17.964844 45.832031 20.765625 45.5 L 22.433594 45.367188 C 22.867188 45.367188 23.101562 45.167969 23.101562 44.765625 L 23.300781 43 C 23.667969 39.398438 25.167969 36.367188 27.867188 33.964844 C 30.566406 31.535156 33.734375 30.332031 37.398438 30.332031 C 41.035156 30.332031 44.234375 31.535156 46.933594 33.964844 C 49.632812 36.398438 51.167969 39.398438 51.5 43 L 51.734375 44.898438 C 51.734375 45.300781 51.933594 45.5 52.332031 45.5 L 57.898438 45.5 C 60.832031 45.5 63.332031 46.566406 65.464844 48.699219 C 67.601562 50.832031 68.667969 53.332031 68.667969 56.265625 C 68.667969 59.101562 67.667969 61.566406 65.667969 63.667969 C 63.667969 65.765625 61.265625 66.933594 58.464844 67.167969 C 58.101562 67.167969 57.898438 67.367188 57.898438 67.765625 L 57.898438 72.234375 C 57.898438 72.601562 58.101562 72.800781 58.464844 72.800781 C 61.398438 72.734375 64.035156 71.933594 66.464844 70.398438 C 68.898438 68.867188 70.800781 66.898438 72.167969 64.398438 C 73.566406 61.898438 74.234375 59.199219 74.234375 56.265625 C 74.234375 53.898438 73.765625 51.699219 72.867188 49.734375 C 75.398438 46.601562 76.632812 42.964844 76.632812 38.800781 C 76.632812 36.433594 76.167969 34.167969 75.265625 32 C 74.367188 29.832031 73.101562 28 71.535156 26.433594 C 70 24.867188 68.132812 23.632812 66 22.734375 C 63.832031 21.800781 61.566406 21.367188 59.199219 21.367188 C 54.167969 21.367188 49.933594 23.199219 46.5 26.898438 C 43.867188 25.464844 40.832031 24.765625 37.398438 24.765625 C 32.699219 24.765625 28.535156 26.234375 24.898438 29.132812 C 21.265625 32.035156 19 35.765625 18 40.300781 C 14.265625 41.167969 11.167969 43.066406 8.765625 46.035156 C 6.398438 49 5.199219 52.433594 5.199219 56.265625 Z M 23.234375 78.601562 C 23.234375 79.199219 23.398438 79.800781 23.765625 80.367188 C 24.132812 80.964844 24.632812 81.332031 25.265625 81.566406 C 25.898438 81.800781 26.601562 81.734375 27.300781 81.367188 C 28.035156 81 28.5 80.398438 28.765625 79.535156 L 29.601562 76.035156 C 29.832031 75.332031 29.765625 74.667969 29.367188 73.964844 C 28.964844 73.265625 28.398438 72.800781 27.667969 72.566406 C 26.832031 72.367188 26.101562 72.464844 25.433594 72.832031 C 24.765625 73.199219 24.367188 73.832031 24.199219 74.601562 L 23.265625 77.898438 C 23.265625 78.066406 23.234375 78.300781 23.234375 78.601562 Z M 27.601562 62.867188 C 27.601562 64.132812 28.300781 65 29.734375 65.5 C 30.464844 65.765625 31.167969 65.699219 31.867188 65.332031 C 32.566406 64.964844 33 64.367188 33.234375 63.566406 L 34.035156 60.132812 C 34.265625 59.433594 34.199219 58.765625 33.800781 58.066406 C 33.433594 57.367188 32.867188 56.898438 32.101562 56.667969 C 31.300781 56.464844 30.535156 56.535156 29.867188 56.933594 C 29.199219 57.332031 28.800781 57.898438 28.632812 58.667969 L 27.632812 62.066406 C 27.632812 62.332031 27.601562 62.601562 27.601562 62.867188 Z M 31.667969 89.167969 C 31.667969 89.699219 31.867188 90.265625 32.234375 90.832031 C 32.601562 91.398438 33.167969 91.800781 33.867188 92.035156 C 33.898438 92.035156 34 92.035156 34.199219 92.066406 C 34.398438 92.101562 34.566406 92.101562 34.699219 92.101562 C 35.167969 92.101562 35.566406 92.035156 35.933594 91.867188 C 36.566406 91.601562 37.035156 90.964844 37.300781 89.933594 L 38.199219 86.632812 C 38.433594 85.867188 38.367188 85.132812 37.964844 84.464844 C 37.566406 83.800781 37 83.332031 36.265625 83.132812 C 35.5 82.898438 34.765625 82.964844 34.101562 83.367188 C 33.433594 83.765625 32.964844 84.332031 32.765625 85.066406 L 31.832031 88.464844 C 31.699219 88.765625 31.667969 89 31.667969 89.167969 Z M 33.199219 15.601562 C 33.199219 16.433594 33.464844 17.132812 34.035156 17.667969 L 36.234375 19.832031 C 37.367188 20.964844 38.667969 20.964844 40.132812 19.832031 C 40.667969 19.265625 40.933594 18.566406 40.933594 17.800781 C 40.933594 17.035156 40.667969 16.367188 40.132812 15.765625 L 38.035156 13.566406 C 37.5 13.035156 36.832031 12.765625 36.035156 12.765625 C 35.265625 12.765625 34.601562 13.035156 34.035156 13.601562 C 33.464844 14.132812 33.199219 14.800781 33.199219 15.601562 Z M 36.167969 73.199219 C 36.167969 73.765625 36.332031 74.332031 36.699219 74.898438 C 37.066406 75.464844 37.566406 75.832031 38.265625 76.066406 C 39.035156 76.300781 39.734375 76.234375 40.398438 75.898438 C 41.035156 75.566406 41.5 74.933594 41.734375 74.035156 L 42.535156 70.667969 C 42.765625 69.898438 42.699219 69.167969 42.332031 68.5 C 41.964844 67.832031 41.398438 67.367188 40.667969 67.132812 C 39.832031 66.898438 39.066406 67 38.398438 67.398438 C 37.734375 67.800781 37.300781 68.398438 37.167969 69.167969 L 36.234375 72.601562 C 36.167969 72.699219 36.167969 72.898438 36.167969 73.199219 Z M 45.433594 78.933594 C 45.5 80.199219 46.199219 81.101562 47.535156 81.699219 L 48.367188 81.832031 C 48.898438 81.832031 49.433594 81.667969 49.933594 81.300781 C 50.433594 80.933594 50.800781 80.398438 51 79.632812 L 51.964844 76.265625 C 52.167969 75.464844 52.066406 74.734375 51.667969 74.066406 C 51.265625 73.398438 50.667969 72.964844 49.898438 72.832031 C 49.199219 72.601562 48.535156 72.667969 47.832031 73.066406 C 47.132812 73.464844 46.699219 74.035156 46.464844 74.765625 L 45.566406 78.167969 C 45.535156 78.234375 45.535156 78.332031 45.5 78.433594 C 45.464844 78.535156 45.464844 78.632812 45.433594 78.699219 C 45.398438 78.765625 45.433594 78.867188 45.433594 78.933594 Z M 50.101562 63.066406 C 50.101562 63.601562 50.265625 64.132812 50.601562 64.667969 C 50.933594 65.199219 51.433594 65.566406 52.101562 65.734375 L 52.933594 65.832031 C 53.566406 65.832031 54.167969 65.632812 54.667969 65.234375 C 55.167969 64.832031 55.464844 64.300781 55.601562 63.667969 L 56.5 60.367188 C 56.734375 59.566406 56.667969 58.867188 56.265625 58.199219 C 55.898438 57.535156 55.332031 57.101562 54.566406 56.898438 C 53.800781 56.667969 53.066406 56.734375 52.433594 57.101562 C 51.765625 57.464844 51.332031 58.035156 51.132812 58.765625 L 50.132812 62.300781 C 50.132812 62.566406 50.101562 62.832031 50.101562 63.066406 Z M 51.199219 30.199219 C 53.398438 28.066406 56.066406 27 59.199219 27 C 62.464844 27 65.265625 28.167969 67.566406 30.464844 C 69.867188 32.765625 71.035156 35.566406 71.035156 38.832031 C 71.035156 40.699219 70.5 42.667969 69.464844 44.699219 C 66.265625 41.5 62.433594 39.933594 57.898438 39.933594 L 56.765625 39.933594 C 55.898438 36.132812 54.035156 32.898438 51.199219 30.199219 Z M 56.332031 12.765625 C 56.332031 13.601562 56.601562 14.265625 57.132812 14.800781 C 57.667969 15.332031 58.332031 15.601562 59.167969 15.601562 C 60 15.601562 60.667969 15.332031 61.199219 14.800781 C 61.734375 14.265625 62 13.601562 62 12.765625 L 62 6.035156 C 62 5.199219 61.734375 4.5 61.199219 3.964844 C 60.667969 3.433594 60 3.167969 59.167969 3.167969 C 58.332031 3.167969 57.667969 3.433594 57.132812 3.964844 C 56.601562 4.5 56.332031 5.199219 56.332031 6.035156 Z M 74.832031 20.398438 C 74.832031 21.234375 75.101562 21.898438 75.601562 22.433594 C 76.300781 23 76.964844 23.265625 77.667969 23.265625 C 78.300781 23.265625 78.933594 23 79.632812 22.433594 L 84.398438 17.667969 C 84.933594 17.066406 85.199219 16.367188 85.199219 15.566406 C 85.199219 14.765625 84.933594 14.101562 84.398438 13.566406 C 83.867188 13.035156 83.199219 12.765625 82.433594 12.765625 C 81.667969 12.765625 81 13.035156 80.398438 13.566406 L 75.601562 18.332031 C 75.101562 18.933594 74.832031 19.601562 74.832031 20.398438 Z M 77.464844 59.832031 C 77.464844 60.601562 77.765625 61.300781 78.332031 61.933594 L 80.398438 64.066406 C 81.101562 64.765625 81.765625 65.101562 82.464844 65.101562 C 83.101562 65.101562 83.765625 64.765625 84.398438 64.066406 C 85 63.464844 85.300781 62.765625 85.265625 62.035156 C 85.234375 61.265625 84.964844 60.601562 84.398438 60.035156 L 82.234375 57.832031 C 81.699219 57.300781 81.066406 57.035156 80.332031 57.035156 C 79.535156 57.035156 78.867188 57.300781 78.300781 57.867188 C 77.765625 58.398438 77.464844 59.066406 77.464844 59.832031 Z M 82.367188 38.800781 C 82.367188 39.535156 82.632812 40.199219 83.167969 40.734375 C 83.699219 41.265625 84.367188 41.535156 85.101562 41.535156 L 91.898438 41.535156 C 92.765625 41.535156 93.464844 41.265625 94 40.765625 C 94.535156 40.234375 94.800781 39.601562 94.800781 38.800781 C 94.800781 37.964844 94.535156 37.265625 93.964844 36.734375 C 93.398438 36.199219 92.734375 35.933594 91.898438 35.933594 L 85.101562 35.933594 C 84.332031 35.933594 83.667969 36.199219 83.132812 36.765625 C 82.632812 37.332031 82.367188 38.035156 82.367188 38.800781 Z M 82.367188 38.800781 "/>
</g>
</svg>
