<?xml version="1.0" encoding="UTF-8"?>
<svg xmlns="http://www.w3.org/2000/svg" xmlns:xlink="http://www.w3.org/1999/xlink" width="100px" height="100px" viewBox="0 0 100 100" version="1.1">
<g id="surface1">
<path style=" stroke:none;fill-rule:nonzero;fill:rgb(0%,0%,0%);fill-opacity:1;" d="M 39.234375 54.898438 C 39.234375 55.632812 39.5 56.234375 40.066406 56.734375 L 48.066406 64.898438 C 48.601562 65.433594 49.234375 65.667969 50 65.667969 C 50.800781 65.667969 51.433594 65.398438 51.964844 64.898438 L 59.964844 56.734375 C 60.5 56.265625 60.765625 55.632812 60.765625 54.898438 C 60.765625 54.167969 60.5 53.535156 60 53 C 59.5 52.464844 58.867188 52.234375 58.132812 52.234375 C 57.398438 52.234375 56.734375 52.5 56.234375 53 L 52.699219 56.5 L 52.699219 34.535156 C 52.699219 33.800781 52.433594 33.167969 51.898438 32.667969 C 51.398438 32.199219 50.765625 31.933594 50 31.933594 C 49.234375 31.933594 48.601562 32.167969 48.066406 32.667969 C 47.535156 33.167969 47.265625 33.800781 47.265625 34.535156 L 47.265625 56.5 L 43.734375 53 C 43.199219 52.464844 42.601562 52.234375 41.898438 52.234375 C 41.167969 52.234375 40.5 52.5 40 53 C 39.5 53.5 39.234375 54.167969 39.234375 54.898438 Z M 39.234375 54.898438 "/>
</g>
</svg>
