<?xml version="1.0" encoding="UTF-8"?>
<svg xmlns="http://www.w3.org/2000/svg" xmlns:xlink="http://www.w3.org/1999/xlink" width="100px" height="100px" viewBox="0 0 100 100" version="1.1">
<g id="surface1">
<path style=" stroke:none;fill-rule:nonzero;fill:rgb(0%,0%,0%);fill-opacity:1;" d="M 5.035156 56.300781 C 5.035156 60.734375 6.566406 64.566406 9.667969 67.765625 C 12.765625 70.964844 16.535156 72.667969 21.035156 72.867188 C 21.398438 72.867188 21.601562 72.667969 21.601562 72.300781 L 21.601562 67.832031 C 21.601562 67.464844 21.398438 67.265625 21.035156 67.265625 C 18.167969 67.132812 15.734375 65.964844 13.734375 63.832031 C 11.734375 61.699219 10.734375 59.167969 10.734375 56.300781 C 10.734375 53.566406 11.667969 51.167969 13.566406 49.101562 C 15.464844 47.035156 17.800781 45.867188 20.566406 45.535156 L 22.332031 45.367188 C 22.765625 45.367188 23 45.167969 23 44.800781 L 23.234375 43 C 23.601562 39.398438 25.101562 36.367188 27.800781 33.933594 C 30.5 31.5 33.667969 30.265625 37.300781 30.265625 C 40.933594 30.265625 44.101562 31.5 46.832031 33.933594 C 49.566406 36.367188 51.101562 39.398438 51.5 43 L 51.734375 44.898438 C 51.734375 45.300781 51.933594 45.535156 52.300781 45.535156 L 57.699219 45.535156 C 60.667969 45.535156 63.199219 46.601562 65.367188 48.734375 C 67.535156 50.867188 68.601562 53.367188 68.601562 56.300781 C 68.601562 59.199219 67.601562 61.699219 65.601562 63.832031 C 63.601562 65.964844 61.167969 67.101562 58.332031 67.265625 C 57.933594 67.265625 57.699219 67.464844 57.699219 67.832031 L 57.699219 72.300781 C 57.699219 72.667969 57.898438 72.867188 58.332031 72.867188 C 62.765625 72.734375 66.535156 71.035156 69.632812 67.832031 C 72.734375 64.601562 74.265625 60.765625 74.265625 56.332031 C 74.265625 53.933594 73.800781 51.699219 72.867188 49.632812 C 75.464844 46.398438 76.765625 42.734375 76.765625 38.601562 C 76.765625 35.433594 75.964844 32.5 74.398438 29.800781 C 72.832031 27.101562 70.699219 24.964844 68 23.398438 C 65.300781 21.832031 62.398438 21.066406 59.265625 21.066406 C 54.066406 21.066406 49.765625 23 46.332031 26.867188 C 43.601562 25.398438 40.601562 24.667969 37.300781 24.667969 C 32.601562 24.667969 28.398438 26.132812 24.765625 29.066406 C 21.132812 32 18.800781 35.734375 17.765625 40.265625 C 14.066406 41.132812 11.035156 43.066406 8.632812 46.066406 C 6.234375 49.066406 5.035156 52.464844 5.035156 56.300781 Z M 23.035156 79.167969 C 23.035156 79.734375 23.199219 80.265625 23.566406 80.800781 C 23.933594 81.332031 24.464844 81.699219 25.199219 81.898438 C 25.566406 81.964844 25.867188 82.035156 26.101562 82.035156 C 27.398438 82.035156 28.265625 81.332031 28.667969 79.898438 L 33.933594 60.300781 C 34.167969 59.5 34.066406 58.765625 33.667969 58.066406 C 33.265625 57.367188 32.667969 56.964844 31.898438 56.800781 C 31.167969 56.566406 30.464844 56.632812 29.800781 57.035156 C 29.132812 57.398438 28.667969 57.964844 28.433594 58.734375 L 23.167969 78.433594 C 23.101562 78.867188 23.035156 79.101562 23.035156 79.167969 Z M 31.734375 89.433594 C 31.734375 90.066406 31.898438 90.632812 32.234375 91.167969 C 32.566406 91.699219 33.132812 92.035156 33.964844 92.167969 C 34.332031 92.234375 34.632812 92.300781 34.832031 92.300781 C 35.367188 92.300781 35.867188 92.101562 36.332031 91.734375 C 36.800781 91.332031 37.101562 90.800781 37.234375 90.132812 L 45.234375 60.367188 C 45.433594 59.601562 45.367188 58.867188 45 58.234375 C 44.632812 57.601562 44.066406 57.132812 43.332031 56.898438 C 42.566406 56.667969 41.832031 56.734375 41.167969 57.132812 C 40.5 57.5 40.035156 58.066406 39.832031 58.832031 L 31.832031 88.601562 C 31.765625 89.101562 31.734375 89.398438 31.734375 89.433594 Z M 33.132812 15.332031 C 33.132812 16.132812 33.398438 16.800781 33.964844 17.367188 L 36.132812 19.566406 C 36.765625 20.066406 37.464844 20.300781 38.199219 20.300781 C 38.898438 20.300781 39.566406 20.035156 40.132812 19.535156 C 40.699219 19 41 18.367188 41 17.566406 C 41 16.765625 40.734375 16.035156 40.199219 15.433594 L 38.066406 13.265625 C 37.464844 12.699219 36.800781 12.433594 36.066406 12.433594 C 35.265625 12.433594 34.566406 12.734375 34 13.300781 C 33.433594 13.867188 33.132812 14.566406 33.132812 15.332031 Z M 45.566406 79.234375 C 45.566406 79.765625 45.734375 80.300781 46.066406 80.800781 C 46.398438 81.300781 46.933594 81.667969 47.601562 81.867188 C 47.964844 81.933594 48.265625 82 48.433594 82 C 49 82 49.566406 81.832031 50.066406 81.5 C 50.566406 81.167969 50.898438 80.632812 51.066406 79.867188 L 56.332031 60.265625 C 56.535156 59.5 56.464844 58.765625 56.101562 58.132812 C 55.734375 57.464844 55.167969 57.035156 54.433594 56.800781 C 53.632812 56.566406 52.933594 56.632812 52.265625 57.035156 C 51.601562 57.398438 51.167969 57.964844 50.964844 58.734375 L 45.699219 78.433594 C 45.632812 78.933594 45.566406 79.199219 45.566406 79.234375 Z M 51 30.101562 C 53.367188 27.867188 56.101562 26.765625 59.265625 26.765625 C 62.535156 26.765625 65.332031 27.933594 67.601562 30.234375 C 69.898438 32.535156 71.035156 35.332031 71.035156 38.632812 C 71.035156 40.699219 70.464844 42.765625 69.300781 44.800781 C 66.066406 41.566406 62.199219 39.964844 57.667969 39.964844 L 56.566406 39.964844 C 55.667969 36.035156 53.800781 32.765625 51 30.101562 Z M 56.398438 12.601562 C 56.398438 13.367188 56.667969 14.035156 57.234375 14.566406 C 57.800781 15.101562 58.464844 15.367188 59.265625 15.367188 C 60.035156 15.367188 60.699219 15.101562 61.234375 14.601562 C 61.765625 14.066406 62.035156 13.433594 62.035156 12.632812 L 62.035156 5.765625 C 62.035156 4.898438 61.765625 4.199219 61.265625 3.667969 C 60.734375 3.132812 60.101562 2.867188 59.300781 2.867188 C 58.464844 2.867188 57.765625 3.132812 57.234375 3.699219 C 56.699219 4.265625 56.433594 4.933594 56.433594 5.765625 L 56.433594 12.601562 Z M 74.832031 20.199219 C 74.832031 21 75.132812 21.667969 75.734375 22.167969 C 76.199219 22.699219 76.800781 22.964844 77.566406 23.035156 C 78.332031 23.101562 79.035156 22.800781 79.632812 22.167969 L 84.433594 17.398438 C 85.035156 16.832031 85.300781 16.132812 85.300781 15.300781 C 85.300781 14.5 85.035156 13.800781 84.464844 13.265625 C 83.898438 12.734375 83.234375 12.464844 82.433594 12.464844 C 81.734375 12.464844 81.101562 12.734375 80.5 13.300781 L 75.734375 18.101562 C 75.132812 18.667969 74.832031 19.367188 74.832031 20.199219 Z M 77.535156 59.699219 C 77.535156 60.5 77.800781 61.199219 78.332031 61.800781 L 80.5 63.898438 C 81.101562 64.367188 81.765625 64.601562 82.5 64.601562 L 82.566406 64.667969 C 83.332031 64.667969 83.964844 64.398438 84.5 63.867188 C 85.035156 63.332031 85.300781 62.632812 85.300781 61.832031 C 85.300781 61.035156 85 60.398438 84.433594 59.898438 L 82.367188 57.699219 C 81.765625 57.167969 81.066406 56.898438 80.300781 56.898438 C 79.535156 56.898438 78.867188 57.167969 78.332031 57.734375 C 77.800781 58.300781 77.535156 58.898438 77.535156 59.699219 Z M 82.398438 38.601562 C 82.398438 39.398438 82.699219 40.035156 83.265625 40.566406 C 83.867188 41.167969 84.535156 41.433594 85.332031 41.433594 L 92.101562 41.433594 C 92.898438 41.433594 93.566406 41.167969 94.132812 40.601562 C 94.699219 40.035156 94.964844 39.367188 94.964844 38.601562 C 94.964844 37.800781 94.699219 37.132812 94.132812 36.566406 C 93.566406 36 92.898438 35.699219 92.101562 35.699219 L 85.332031 35.699219 C 84.535156 35.699219 83.867188 36 83.265625 36.566406 C 82.667969 37.132812 82.398438 37.800781 82.398438 38.601562 Z M 82.398438 38.601562 "/>
</g>
</svg>
