<?xml version="1.0" encoding="UTF-8"?>
<svg xmlns="http://www.w3.org/2000/svg" xmlns:xlink="http://www.w3.org/1999/xlink" width="100px" height="100px" viewBox="0 0 100 100" version="1.1">
<g id="surface1">
<path style=" stroke:none;fill-rule:nonzero;fill:rgb(0%,0%,0%);fill-opacity:1;" d="M 39.433594 55.898438 C 39.433594 56.535156 39.632812 57.066406 40.066406 57.5 C 40.5 57.933594 41.035156 58.132812 41.632812 58.132812 L 51.199219 58.132812 C 51.832031 58.132812 52.367188 57.933594 52.765625 57.5 C 53.199219 57.066406 53.398438 56.535156 53.398438 55.898438 C 53.398438 55.265625 53.199219 54.765625 52.765625 54.367188 C 52.332031 53.964844 51.800781 53.765625 51.199219 53.765625 L 47.066406 53.765625 L 60 40.800781 C 60.398438 40.332031 60.601562 39.800781 60.601562 39.132812 C 60.601562 38.535156 60.398438 38.035156 60 37.601562 C 59.601562 37.199219 59.035156 37 58.332031 37 C 57.667969 37 57.132812 37.199219 56.734375 37.601562 L 43.867188 50.5 L 43.867188 46.332031 C 43.867188 45.699219 43.667969 45.167969 43.234375 44.734375 C 42.800781 44.300781 42.265625 44.101562 41.632812 44.101562 C 41 44.101562 40.464844 44.332031 40.066406 44.765625 C 39.632812 45.199219 39.433594 45.734375 39.433594 46.367188 Z M 39.433594 55.898438 "/>
</g>
</svg>
