<?xml version="1.0" encoding="UTF-8"?>
<svg xmlns="http://www.w3.org/2000/svg" xmlns:xlink="http://www.w3.org/1999/xlink" width="100px" height="100px" viewBox="0 0 100 100" version="1.1">
<g id="surface1">
<path style=" stroke:none;fill-rule:nonzero;fill:rgb(0%,0%,0%);fill-opacity:1;" d="M 23.632812 49.867188 C 23.632812 51.101562 24.035156 52.132812 24.867188 52.933594 L 37.667969 65.433594 C 38.398438 66.265625 39.367188 66.699219 40.5 66.699219 C 41.667969 66.699219 42.667969 66.300781 43.464844 65.535156 C 44.265625 64.765625 44.699219 63.765625 44.699219 62.601562 C 44.699219 61.433594 44.300781 60.433594 43.464844 59.632812 L 38 54.167969 L 72.332031 54.167969 C 73.5 54.167969 74.464844 53.765625 75.234375 52.933594 C 76 52.101562 76.367188 51.101562 76.367188 49.933594 C 76.367188 48.765625 76 47.765625 75.234375 46.933594 C 74.464844 46.101562 73.5 45.667969 72.332031 45.632812 L 38 45.632812 L 43.464844 40.101562 C 44.265625 39.300781 44.699219 38.332031 44.699219 37.234375 C 44.699219 36.066406 44.300781 35.066406 43.464844 34.265625 C 42.632812 33.464844 41.667969 33 40.464844 33 C 39.398438 33 38.433594 33.464844 37.632812 34.367188 L 24.832031 46.867188 C 24.035156 47.699219 23.632812 48.667969 23.632812 49.867188 Z M 23.632812 49.867188 "/>
</g>
</svg>
