<?xml version="1.0" encoding="UTF-8"?>
<svg xmlns="http://www.w3.org/2000/svg" xmlns:xlink="http://www.w3.org/1999/xlink" width="100px" height="100px" viewBox="0 0 100 100" version="1.1">
<g id="surface1">
<path style=" stroke:none;fill-rule:nonzero;fill:rgb(0%,0%,0%);fill-opacity:1;" d="M 33.464844 33.601562 C 33.464844 32.601562 33.765625 31.765625 34.332031 31.167969 C 35 30.535156 35.867188 30.234375 36.964844 30.234375 C 37.964844 30.234375 38.800781 30.535156 39.398438 31.167969 L 59.566406 51.332031 L 59.566406 44.832031 C 59.566406 43.832031 59.898438 43 60.566406 42.332031 C 61.234375 41.667969 62.066406 41.332031 63.066406 41.332031 C 64.035156 41.332031 64.867188 41.667969 65.535156 42.367188 C 66.199219 43.066406 66.535156 43.867188 66.535156 44.867188 L 66.535156 59.800781 C 66.535156 60.800781 66.199219 61.632812 65.535156 62.300781 C 64.867188 62.964844 64.035156 63.300781 63.066406 63.300781 L 48.132812 63.300781 C 47.167969 63.300781 46.332031 62.964844 45.667969 62.300781 C 45 61.632812 44.667969 60.800781 44.667969 59.800781 C 44.667969 58.832031 45 58 45.667969 57.367188 C 46.332031 56.734375 47.167969 56.398438 48.132812 56.398438 L 54.566406 56.398438 L 34.300781 36.199219 C 33.765625 35.433594 33.464844 34.601562 33.464844 33.601562 Z M 33.464844 33.601562 "/>
</g>
</svg>
