<?xml version="1.0" encoding="UTF-8"?>
<svg xmlns="http://www.w3.org/2000/svg" xmlns:xlink="http://www.w3.org/1999/xlink" width="100px" height="100px" viewBox="0 0 100 100" version="1.1">
<g id="surface1">
<path style=" stroke:none;fill-rule:nonzero;fill:rgb(0%,0%,0%);fill-opacity:1;" d="M 5.199219 56.332031 C 5.199219 59.332031 5.933594 62.101562 7.398438 64.632812 C 8.867188 67.167969 10.867188 69.167969 13.398438 70.632812 C 15.933594 72.101562 18.667969 72.832031 21.632812 72.832031 L 57.734375 72.832031 C 60.699219 72.832031 63.464844 72.101562 66 70.632812 C 68.535156 69.167969 70.566406 67.167969 72.035156 64.632812 C 73.5 62.101562 74.265625 59.332031 74.265625 56.332031 C 74.265625 54.132812 73.800781 51.898438 72.867188 49.667969 C 75.398438 46.601562 76.667969 42.898438 76.667969 38.667969 C 76.667969 36.300781 76.199219 34.035156 75.300781 31.867188 C 74.398438 29.699219 73.132812 27.867188 71.566406 26.300781 C 70 24.734375 68.167969 23.464844 66 22.566406 C 63.832031 21.632812 61.566406 21.199219 59.199219 21.199219 C 54.265625 21.199219 49.964844 23.132812 46.265625 27 C 43.699219 25.535156 40.699219 24.800781 37.265625 24.800781 C 32.566406 24.800781 28.433594 26.265625 24.832031 29.167969 C 21.234375 32.066406 18.898438 35.800781 17.898438 40.332031 C 14.167969 41.199219 11.132812 43.101562 8.765625 46.101562 C 6.398438 49.101562 5.199219 52.5 5.199219 56.332031 Z M 10.898438 56.332031 C 10.898438 53.535156 11.832031 51.132812 13.699219 49.101562 C 15.566406 47.066406 17.898438 45.898438 20.699219 45.566406 L 22.367188 45.464844 C 22.765625 45.464844 23 45.265625 23 44.867188 L 23.234375 43.066406 C 23.699219 39.464844 25.265625 36.433594 27.933594 34.035156 C 30.601562 31.601562 33.734375 30.398438 37.300781 30.398438 C 40.964844 30.398438 44.167969 31.632812 46.867188 34.066406 C 49.601562 36.5 51.101562 39.5 51.433594 43.101562 L 51.667969 45.035156 C 51.734375 45.398438 51.964844 45.601562 52.367188 45.601562 L 57.734375 45.601562 C 60.667969 45.601562 63.199219 46.667969 65.332031 48.800781 C 67.464844 50.933594 68.535156 53.433594 68.535156 56.367188 C 68.535156 59.398438 67.464844 61.964844 65.367188 64.101562 C 63.265625 66.234375 60.699219 67.300781 57.765625 67.300781 L 21.632812 67.300781 C 18.699219 67.300781 16.199219 66.234375 14.066406 64.066406 C 11.964844 61.898438 10.898438 59.332031 10.898438 56.332031 Z M 33.234375 15.433594 C 33.234375 16.234375 33.5 16.933594 34.035156 17.535156 L 36.234375 19.667969 C 37.066406 20.300781 37.765625 20.566406 38.367188 20.5 C 39.066406 20.5 39.667969 20.199219 40.199219 19.632812 C 40.734375 19.066406 41 18.367188 41 17.566406 C 41 16.765625 40.699219 16.101562 40.132812 15.601562 L 38.167969 13.398438 C 37.566406 12.867188 36.898438 12.601562 36.132812 12.601562 C 35.332031 12.601562 34.632812 12.867188 34.066406 13.433594 C 33.5 13.964844 33.234375 14.632812 33.234375 15.433594 Z M 51.035156 30.199219 C 53.332031 27.964844 56.066406 26.867188 59.199219 26.867188 C 62.5 26.867188 65.300781 28 67.601562 30.300781 C 69.898438 32.601562 71.066406 35.367188 71.066406 38.667969 C 71.066406 40.734375 70.5 42.800781 69.367188 44.800781 C 66.132812 41.601562 62.265625 40 57.734375 40 L 56.667969 40 C 55.832031 36.367188 53.964844 33.101562 51.035156 30.199219 Z M 56.464844 12.601562 C 56.464844 13.464844 56.734375 14.132812 57.234375 14.667969 C 57.734375 15.199219 58.398438 15.433594 59.199219 15.433594 C 60.066406 15.433594 60.734375 15.167969 61.265625 14.667969 C 61.800781 14.132812 62.035156 13.464844 62.035156 12.601562 L 62.035156 5.765625 C 62.035156 4.964844 61.765625 4.332031 61.234375 3.800781 C 60.699219 3.265625 60.035156 3.035156 59.199219 3.035156 C 58.398438 3.035156 57.765625 3.300781 57.234375 3.800781 C 56.699219 4.300781 56.464844 4.964844 56.464844 5.765625 Z M 74.867188 20.234375 C 74.867188 21.101562 75.101562 21.765625 75.601562 22.300781 C 76.300781 22.832031 77 23.101562 77.667969 23.101562 C 78.265625 23.101562 78.933594 22.832031 79.632812 22.300781 L 84.398438 17.535156 C 84.933594 16.933594 85.199219 16.234375 85.199219 15.398438 C 85.199219 14.601562 84.933594 13.933594 84.398438 13.398438 C 83.867188 12.867188 83.199219 12.601562 82.433594 12.601562 C 81.632812 12.601562 81 12.867188 80.5 13.398438 L 75.601562 18.167969 C 75.101562 18.800781 74.867188 19.464844 74.867188 20.234375 Z M 77.5 59.699219 C 77.5 60.5 77.765625 61.199219 78.332031 61.800781 L 80.5 63.898438 C 81 64.433594 81.632812 64.699219 82.433594 64.699219 C 83.234375 64.699219 83.898438 64.433594 84.433594 63.867188 C 84.964844 63.300781 85.234375 62.632812 85.234375 61.800781 C 85.234375 61.066406 84.964844 60.398438 84.433594 59.867188 L 82.265625 57.699219 C 81.734375 57.167969 81.101562 56.898438 80.367188 56.898438 C 79.566406 56.898438 78.898438 57.167969 78.367188 57.699219 C 77.800781 58.234375 77.5 58.898438 77.5 59.699219 Z M 82.398438 38.667969 C 82.398438 39.433594 82.699219 40.066406 83.265625 40.601562 C 83.800781 41.132812 84.5 41.398438 85.300781 41.398438 L 92.101562 41.398438 C 92.867188 41.398438 93.5 41.132812 94.035156 40.632812 C 94.566406 40.132812 94.800781 39.464844 94.800781 38.667969 C 94.800781 37.867188 94.535156 37.199219 94.035156 36.667969 C 93.535156 36.132812 92.867188 35.832031 92.101562 35.832031 L 85.300781 35.832031 C 84.5 35.832031 83.832031 36.101562 83.265625 36.667969 C 82.667969 37.234375 82.398438 37.898438 82.398438 38.667969 Z M 82.398438 38.667969 "/>
</g>
</svg>
