<?xml version="1.0" encoding="UTF-8"?>
<svg xmlns="http://www.w3.org/2000/svg" xmlns:xlink="http://www.w3.org/1999/xlink" width="100px" height="100px" viewBox="0 0 100 100" version="1.1">
<g id="surface1">
<path style=" stroke:none;fill-rule:nonzero;fill:rgb(0%,0%,0%);fill-opacity:1;" d="M 33.167969 36.234375 C 33.132812 37.398438 33.5 38.398438 34.300781 39.234375 C 35.101562 40.066406 36.066406 40.464844 37.265625 40.433594 C 38.398438 40.5 39.367188 40.101562 40.199219 39.199219 L 45.734375 33.734375 L 45.734375 68.066406 C 45.699219 69.234375 46.101562 70.199219 46.933594 71 C 47.765625 71.800781 48.765625 72.167969 50 72.132812 C 51.132812 72.199219 52.132812 71.832031 52.964844 71.066406 C 53.800781 70.300781 54.265625 69.300781 54.300781 68.132812 L 54.300781 33.800781 L 59.765625 39.265625 C 60.535156 40.066406 61.535156 40.5 62.699219 40.5 C 63.898438 40.5 64.898438 40.101562 65.699219 39.300781 C 66.5 38.5 66.898438 37.535156 66.898438 36.332031 C 66.832031 35.132812 66.398438 34.199219 65.566406 33.5 L 53.101562 20.699219 C 52.300781 19.933594 51.265625 19.464844 50.035156 19.367188 C 48.800781 19.433594 47.765625 19.898438 46.964844 20.734375 L 34.464844 33.433594 C 33.601562 34.167969 33.167969 35.101562 33.167969 36.234375 Z M 33.167969 36.234375 "/>
</g>
</svg>
