<?xml version="1.0" encoding="UTF-8"?>
<svg xmlns="http://www.w3.org/2000/svg" xmlns:xlink="http://www.w3.org/1999/xlink" width="100px" height="100px" viewBox="0 0 100 100" version="1.1">
<g id="surface1">
<path style=" stroke:none;fill-rule:nonzero;fill:rgb(0%,0%,0%);fill-opacity:1;" d="M 10.300781 44.765625 C 10.300781 45.667969 10.601562 46.398438 11.234375 47 C 11.867188 47.601562 12.667969 47.867188 13.632812 47.867188 L 19.265625 47.867188 C 20.167969 47.867188 20.933594 47.566406 21.566406 46.964844 C 22.199219 46.367188 22.535156 45.632812 22.535156 44.765625 C 22.535156 43.800781 22.234375 43 21.601562 42.398438 C 20.964844 41.800781 20.199219 41.464844 19.300781 41.464844 L 13.632812 41.464844 C 12.667969 41.464844 11.867188 41.765625 11.234375 42.398438 C 10.601562 42.964844 10.300781 43.765625 10.300781 44.765625 Z M 16.199219 65.367188 C 16.199219 68.601562 17.367188 71.398438 19.734375 73.765625 C 22.101562 76.132812 24.867188 77.300781 28.101562 77.300781 L 50.964844 77.300781 C 54.199219 77.300781 56.964844 76.132812 59.265625 73.800781 C 61.566406 71.464844 62.734375 68.667969 62.734375 65.367188 C 62.734375 63.765625 62.5 62.398438 62.035156 61.265625 C 64.800781 59.5 67 57.132812 68.601562 54.199219 C 70.199219 51.265625 71.035156 48.101562 71.035156 44.734375 C 71.035156 42.035156 70.5 39.433594 69.433594 36.964844 C 68.367188 34.5 66.933594 32.367188 65.167969 30.601562 C 63.398438 28.832031 61.265625 27.398438 58.800781 26.332031 C 56.332031 25.265625 53.765625 24.734375 51.066406 24.734375 C 47.433594 24.734375 44.066406 25.632812 41 27.433594 C 37.933594 29.234375 35.5 31.667969 33.734375 34.699219 C 31.964844 37.765625 31.101562 41.101562 31.101562 44.734375 L 31.101562 45.867188 C 27.765625 47.765625 25.566406 50.535156 24.5 54.167969 C 21.964844 54.964844 19.964844 56.367188 18.464844 58.398438 C 16.964844 60.433594 16.199219 62.765625 16.199219 65.367188 Z M 21.398438 18.167969 C 21.398438 19.101562 21.699219 19.867188 22.265625 20.398438 L 27.632812 26.035156 C 29.199219 27.234375 30.765625 27.234375 32.332031 26.035156 C 32.964844 25.398438 33.265625 24.632812 33.265625 23.699219 C 33.265625 22.800781 32.964844 22.035156 32.332031 21.367188 L 26.832031 15.867188 C 26.132812 15.234375 25.332031 14.898438 24.5 14.898438 C 23.566406 14.898438 22.800781 15.199219 22.234375 15.832031 C 21.667969 16.464844 21.398438 17.234375 21.398438 18.167969 Z M 22.800781 65.367188 C 22.800781 63.964844 23.234375 62.765625 24.132812 61.765625 C 25.035156 60.765625 26.167969 60.199219 27.535156 60.066406 L 29.601562 59.800781 C 30.035156 59.800781 30.265625 59.535156 30.265625 59.035156 L 30.566406 57.167969 C 30.800781 55.234375 31.601562 53.632812 33 52.367188 C 34.398438 51.066406 36.035156 50.433594 37.933594 50.433594 C 39.867188 50.433594 41.566406 51.066406 42.964844 52.367188 C 44.398438 53.667969 45.234375 55.265625 45.464844 57.167969 L 45.734375 59.332031 C 45.933594 59.832031 46.199219 60.101562 46.535156 60.101562 L 50.933594 60.101562 C 52.367188 60.101562 53.601562 60.632812 54.667969 61.667969 C 55.734375 62.699219 56.234375 63.933594 56.234375 65.398438 C 56.234375 66.898438 55.699219 68.167969 54.667969 69.234375 C 53.632812 70.300781 52.367188 70.832031 50.933594 70.832031 L 28.101562 70.832031 C 26.601562 70.832031 25.332031 70.300781 24.332031 69.234375 C 23.300781 68.167969 22.800781 66.867188 22.800781 65.367188 Z M 37.535156 44.066406 C 37.765625 40.433594 39.167969 37.367188 41.765625 34.867188 C 44.332031 32.398438 47.464844 31.132812 51.066406 31.132812 C 54.765625 31.132812 57.933594 32.464844 60.535156 35.101562 C 63.132812 37.734375 64.433594 40.964844 64.433594 44.734375 C 64.433594 47.066406 63.867188 49.234375 62.734375 51.234375 C 61.601562 53.234375 60.066406 54.832031 58.132812 56.066406 C 56.167969 54.433594 53.898438 53.632812 51.367188 53.632812 C 50.398438 50.699219 48.667969 48.398438 46.234375 46.667969 C 43.800781 44.933594 41.035156 44.066406 37.964844 44.066406 Z M 47.832031 14.898438 C 47.832031 15.800781 48.167969 16.601562 48.800781 17.234375 C 49.433594 17.867188 50.199219 18.199219 51.101562 18.199219 C 52.035156 18.199219 52.800781 17.867188 53.433594 17.234375 C 54.066406 16.601562 54.398438 15.832031 54.398438 14.898438 L 54.398438 7.101562 C 54.398438 6.234375 54.066406 5.5 53.433594 4.898438 C 52.800781 4.300781 52.035156 4 51.101562 4 C 50.199219 4 49.433594 4.300781 48.800781 4.898438 C 48.167969 5.5 47.832031 6.234375 47.832031 7.101562 Z M 68.898438 65.667969 C 68.898438 66.566406 69.199219 67.332031 69.800781 68 L 75.265625 73.398438 C 76.667969 74.800781 78.234375 74.800781 79.964844 73.398438 C 80.566406 72.832031 80.832031 72.101562 80.832031 71.132812 C 80.832031 70.234375 80.535156 69.5 79.964844 68.898438 L 74.332031 63.332031 C 73.734375 62.765625 72.964844 62.5 72.066406 62.5 C 71.132812 62.5 70.398438 62.800781 69.800781 63.398438 C 69.199219 64 68.898438 64.765625 68.898438 65.667969 Z M 68.898438 23.632812 C 68.898438 24.566406 69.199219 25.367188 69.800781 26.035156 C 70.398438 26.632812 71.167969 26.933594 72.066406 26.933594 C 72.964844 26.933594 73.734375 26.632812 74.332031 26.035156 L 79.964844 20.398438 C 80.566406 19.832031 80.832031 19.101562 80.832031 18.167969 C 80.832031 17.234375 80.5 16.464844 79.867188 15.867188 C 79.234375 15.265625 78.464844 14.933594 77.535156 14.933594 C 76.667969 14.933594 75.898438 15.265625 75.265625 15.898438 L 69.800781 21.332031 C 69.199219 21.933594 68.898438 22.699219 68.898438 23.632812 Z M 77.5 44.765625 C 77.5 45.667969 77.800781 46.398438 78.433594 47 C 79.066406 47.601562 79.867188 47.867188 80.832031 47.867188 L 86.464844 47.867188 C 87.367188 47.867188 88.132812 47.566406 88.765625 46.964844 C 89.398438 46.367188 89.734375 45.632812 89.734375 44.765625 C 89.734375 43.800781 89.433594 43 88.800781 42.398438 C 88.167969 41.800781 87.398438 41.464844 86.5 41.464844 L 80.867188 41.464844 C 79.898438 41.464844 79.101562 41.765625 78.464844 42.398438 C 77.832031 42.964844 77.5 43.765625 77.5 44.765625 Z M 77.5 44.765625 "/>
</g>
</svg>
