<?xml version="1.0" encoding="UTF-8"?>
<svg xmlns="http://www.w3.org/2000/svg" xmlns:xlink="http://www.w3.org/1999/xlink" width="100px" height="100px" viewBox="0 0 100 100" version="1.1">
<g id="surface1">
<path style=" stroke:none;fill-rule:nonzero;fill:rgb(0%,0%,0%);fill-opacity:1;" d="M 5.265625 56.433594 C 5.265625 59.300781 5.964844 62 7.398438 64.464844 C 8.800781 66.933594 10.734375 68.933594 13.199219 70.433594 C 15.632812 71.933594 18.332031 72.734375 21.199219 72.800781 C 21.566406 72.800781 21.765625 72.601562 21.765625 72.234375 L 21.765625 67.800781 C 21.765625 67.398438 21.566406 67.167969 21.199219 67.167969 C 18.367188 67.035156 15.933594 65.898438 13.933594 63.765625 C 11.933594 61.632812 10.933594 59.199219 10.933594 56.398438 C 10.933594 53.667969 11.867188 51.265625 13.765625 49.199219 C 15.667969 47.167969 17.964844 45.964844 20.765625 45.632812 L 22.535156 45.433594 C 22.933594 45.433594 23.132812 45.234375 23.132812 44.800781 L 23.398438 43.101562 C 23.765625 39.464844 25.265625 36.433594 27.933594 34 C 30.601562 31.566406 33.765625 30.367188 37.433594 30.367188 C 41.066406 30.367188 44.234375 31.566406 46.933594 34 C 49.667969 36.433594 51.199219 39.433594 51.535156 43 L 51.765625 44.933594 C 51.765625 45.300781 51.964844 45.5 52.332031 45.5 L 57.699219 45.5 C 60.699219 45.5 63.265625 46.566406 65.398438 48.699219 C 67.535156 50.832031 68.601562 53.367188 68.601562 56.332031 C 68.601562 59.132812 67.601562 61.566406 65.601562 63.699219 C 63.601562 65.800781 61.167969 66.933594 58.367188 67.101562 C 57.964844 67.101562 57.734375 67.300781 57.734375 67.734375 L 57.734375 72.167969 C 57.734375 72.535156 57.933594 72.734375 58.367188 72.734375 C 62.800781 72.601562 66.535156 70.933594 69.632812 67.734375 C 72.734375 64.535156 74.265625 60.765625 74.265625 56.367188 C 74.265625 53.832031 73.800781 51.601562 72.832031 49.601562 C 75.332031 46.5 76.667969 42.832031 76.667969 38.667969 C 76.667969 35.535156 75.898438 32.632812 74.332031 29.964844 C 72.765625 27.300781 70.632812 25.167969 67.964844 23.601562 C 65.300781 22.035156 62.367188 21.265625 59.234375 21.265625 C 54.101562 21.265625 49.800781 23.199219 46.332031 27.035156 C 43.632812 25.566406 40.632812 24.832031 37.367188 24.832031 C 32.667969 24.832031 28.535156 26.300781 24.898438 29.199219 C 21.265625 32.101562 18.964844 35.832031 17.933594 40.332031 C 14.199219 41.265625 11.167969 43.199219 8.800781 46.167969 C 6.433594 49.167969 5.265625 52.566406 5.265625 56.433594 Z M 26.398438 69.933594 C 26.398438 70.734375 26.667969 71.398438 27.199219 71.964844 C 27.734375 72.535156 28.367188 72.800781 29.167969 72.800781 C 29.933594 72.800781 30.601562 72.535156 31.132812 71.964844 C 31.667969 71.398438 31.933594 70.734375 31.933594 69.933594 C 31.933594 69.167969 31.667969 68.535156 31.132812 68 C 30.601562 67.464844 29.964844 67.199219 29.167969 67.199219 C 28.398438 67.199219 27.734375 67.464844 27.199219 68 C 26.667969 68.535156 26.398438 69.199219 26.398438 69.933594 Z M 26.398438 82.035156 C 26.398438 82.734375 26.667969 83.367188 27.199219 83.933594 C 27.800781 84.464844 28.433594 84.734375 29.132812 84.734375 C 29.933594 84.734375 30.566406 84.464844 31.101562 83.964844 C 31.632812 83.433594 31.867188 82.800781 31.867188 82.035156 C 31.867188 81.234375 31.601562 80.601562 31.066406 80.066406 C 30.535156 79.535156 29.898438 79.300781 29.101562 79.300781 C 28.332031 79.300781 27.667969 79.566406 27.132812 80.066406 C 26.667969 80.566406 26.398438 81.234375 26.398438 82.035156 Z M 33.234375 15.601562 C 33.234375 16.398438 33.5 17.066406 34.035156 17.566406 L 36.234375 19.765625 C 36.765625 20.300781 37.367188 20.601562 38 20.601562 C 38.699219 20.699219 39.367188 20.464844 40.035156 19.867188 C 40.699219 19.265625 41.035156 18.566406 41.035156 17.765625 C 41.035156 16.964844 40.765625 16.234375 40.234375 15.632812 L 38.101562 13.601562 C 37.601562 13.035156 36.964844 12.765625 36.167969 12.765625 C 35.332031 12.765625 34.632812 13.035156 34.066406 13.601562 C 33.5 14.132812 33.234375 14.800781 33.234375 15.601562 Z M 37 76.332031 C 37 77.066406 37.265625 77.734375 37.800781 78.332031 C 38.332031 78.867188 39 79.132812 39.734375 79.132812 C 40.535156 79.132812 41.199219 78.867188 41.734375 78.332031 C 42.265625 77.800781 42.566406 77.132812 42.566406 76.332031 C 42.566406 75.566406 42.300781 74.898438 41.734375 74.332031 C 41.167969 73.765625 40.5 73.5 39.734375 73.5 C 38.964844 73.5 38.332031 73.765625 37.800781 74.332031 C 37.265625 74.898438 37 75.566406 37 76.332031 Z M 37 64.332031 C 37 65.101562 37.265625 65.734375 37.800781 66.265625 C 38.332031 66.800781 39 67.066406 39.734375 67.066406 C 40.535156 67.066406 41.199219 66.800781 41.734375 66.265625 C 42.300781 65.734375 42.566406 65.101562 42.566406 64.300781 C 42.566406 63.535156 42.300781 62.867188 41.734375 62.332031 C 41.167969 61.800781 40.5 61.535156 39.734375 61.535156 C 38.964844 61.535156 38.332031 61.800781 37.800781 62.332031 C 37.265625 62.867188 37 63.566406 37 64.332031 Z M 37 88.535156 C 37 89.265625 37.265625 89.898438 37.800781 90.433594 C 38.367188 91 39 91.265625 39.734375 91.265625 C 40.535156 91.265625 41.199219 91 41.734375 90.5 C 42.300781 89.964844 42.566406 89.332031 42.566406 88.535156 C 42.566406 87.734375 42.300781 87.066406 41.734375 86.535156 C 41.167969 85.964844 40.5 85.699219 39.734375 85.699219 C 39 85.699219 38.367188 85.964844 37.800781 86.535156 C 37.265625 87.101562 37 87.765625 37 88.535156 Z M 47.734375 69.933594 C 47.734375 70.734375 48 71.398438 48.535156 71.964844 C 49.066406 72.535156 49.734375 72.800781 50.5 72.800781 C 51.265625 72.800781 51.933594 72.535156 52.464844 71.964844 C 53 71.398438 53.265625 70.734375 53.265625 69.933594 C 53.265625 69.167969 53 68.535156 52.464844 68 C 51.933594 67.464844 51.300781 67.199219 50.5 67.199219 C 49.699219 67.199219 49.066406 67.464844 48.535156 68 C 48 68.535156 47.734375 69.199219 47.734375 69.933594 Z M 47.734375 82.035156 C 47.734375 82.734375 48 83.367188 48.5 83.933594 C 49.101562 84.464844 49.765625 84.734375 50.5 84.734375 C 51.300781 84.734375 51.933594 84.464844 52.464844 83.964844 C 53 83.433594 53.234375 82.800781 53.234375 82.035156 C 53.234375 81.234375 52.964844 80.601562 52.433594 80.066406 C 51.898438 79.535156 51.265625 79.300781 50.464844 79.300781 C 49.667969 79.300781 49 79.566406 48.464844 80.101562 C 48 80.601562 47.734375 81.265625 47.734375 82.035156 Z M 51 30.199219 C 53.300781 28 56.035156 26.898438 59.234375 26.898438 C 62.464844 26.898438 65.234375 28.066406 67.5 30.367188 C 69.800781 32.667969 70.933594 35.464844 70.933594 38.667969 C 70.933594 40.734375 70.367188 42.800781 69.234375 44.800781 C 66.066406 41.601562 62.199219 40 57.667969 40 L 56.601562 40 C 55.601562 36.101562 53.734375 32.832031 51 30.199219 Z M 56.332031 12.800781 C 56.332031 13.566406 56.601562 14.234375 57.167969 14.734375 C 57.734375 15.234375 58.398438 15.5 59.199219 15.5 C 60 15.5 60.632812 15.234375 61.167969 14.734375 C 61.699219 14.199219 61.933594 13.566406 61.933594 12.800781 L 61.933594 6 C 61.933594 5.199219 61.667969 4.535156 61.132812 3.964844 C 60.601562 3.398438 60 3.132812 59.234375 3.132812 C 58.464844 3.132812 57.800781 3.433594 57.234375 4 C 56.667969 4.566406 56.367188 5.234375 56.367188 6 L 56.367188 12.800781 Z M 74.734375 20.367188 C 74.734375 21.132812 75 21.800781 75.566406 22.332031 C 76.066406 22.867188 76.699219 23.132812 77.433594 23.199219 C 78.167969 23.265625 78.867188 22.964844 79.5 22.332031 L 84.265625 17.566406 C 84.867188 16.964844 85.132812 16.300781 85.132812 15.535156 C 85.132812 14.734375 84.832031 14.066406 84.265625 13.5 C 83.699219 12.933594 83.035156 12.667969 82.265625 12.667969 C 81.535156 12.667969 80.898438 12.933594 80.332031 13.5 L 75.566406 18.367188 C 75 18.898438 74.734375 19.566406 74.734375 20.367188 Z M 77.398438 59.699219 C 77.398438 60.535156 77.667969 61.234375 78.199219 61.765625 L 80.332031 63.867188 C 81.132812 64.398438 81.867188 64.667969 82.464844 64.667969 C 83.167969 64.667969 83.765625 64.367188 84.332031 63.800781 C 84.898438 63.234375 85.167969 62.535156 85.167969 61.765625 C 85.167969 61 84.867188 60.367188 84.300781 59.832031 L 82.234375 57.667969 C 81.632812 57.132812 80.964844 56.867188 80.199219 56.867188 C 79.433594 56.867188 78.765625 57.132812 78.234375 57.699219 C 77.667969 58.234375 77.398438 58.898438 77.398438 59.699219 Z M 82.234375 38.667969 C 82.234375 39.464844 82.535156 40.101562 83.101562 40.632812 C 83.667969 41.234375 84.367188 41.535156 85.167969 41.535156 L 91.898438 41.535156 C 92.667969 41.535156 93.332031 41.265625 93.898438 40.699219 C 94.464844 40.132812 94.734375 39.464844 94.734375 38.667969 C 94.734375 37.867188 94.464844 37.199219 93.898438 36.667969 C 93.332031 36.132812 92.667969 35.832031 91.898438 35.832031 L 85.167969 35.832031 C 84.367188 35.832031 83.699219 36.101562 83.101562 36.667969 C 82.5 37.234375 82.234375 37.898438 82.234375 38.667969 Z M 82.234375 38.667969 "/>
</g>
</svg>
