<?xml version="1.0" encoding="UTF-8" standalone="no"?>
<svg
   xmlns:dc="http://purl.org/dc/elements/1.1/"
   xmlns:cc="http://creativecommons.org/ns#"
   xmlns:rdf="http://www.w3.org/1999/02/22-rdf-syntax-ns#"
   xmlns:svg="http://www.w3.org/2000/svg"
   xmlns="http://www.w3.org/2000/svg"
   xmlns:sodipodi="http://sodipodi.sourceforge.net/DTD/sodipodi-0.dtd"
   xmlns:inkscape="http://www.inkscape.org/namespaces/inkscape"
   width="100px"
   height="100px"
   viewBox="0 0 100 100"
   version="1.1"
   id="svg10016"
   sodipodi:docname="wi-day-sunny.svg"
   inkscape:version="1.0.2 (e86c870879, 2021-01-15)">
  <metadata
     id="metadata10022">
    <rdf:RDF>
      <cc:Work
         rdf:about="">
        <dc:format>image/svg+xml</dc:format>
        <dc:type
           rdf:resource="http://purl.org/dc/dcmitype/StillImage" />
      </cc:Work>
    </rdf:RDF>
  </metadata>
  <defs
     id="defs10020" />
  <sodipodi:namedview
     pagecolor="#ffffff"
     bordercolor="#666666"
     borderopacity="1"
     objecttolerance="10"
     gridtolerance="10"
     guidetolerance="10"
     inkscape:pageopacity="0"
     inkscape:pageshadow="2"
     inkscape:window-width="1920"
     inkscape:window-height="1016"
     id="namedview10018"
     showgrid="false"
     inkscape:zoom="7.94"
     inkscape:cx="45.906801"
     inkscape:cy="50"
     inkscape:window-x="0"
     inkscape:window-y="0"
     inkscape:window-maximized="1"
     inkscape:current-layer="svg10016"
     inkscape:document-rotation="0" />
  <g
     id="surface1"
     style="fill:#ff8c00;fill-opacity:1">
    <path
       style="fill:#ff8c00;fill-opacity:1;fill-rule:nonzero;stroke:none"
       d="m 14.566406,48.734375 c 0,-0.800781 0.265625,-1.5 0.832032,-2.066406 0.566406,-0.535157 1.269531,-0.800781 2,-0.800781 h 6.800781 c 0.765625,0 1.402343,0.265624 1.933593,0.832031 0.5,0.566406 0.765626,1.234375 0.765626,2.035156 0,0.800781 -0.230469,1.464844 -0.730469,2.03125 -0.5,0.566406 -1.167969,0.835937 -1.933594,0.835937 h -6.800781 c -0.765625,0 -1.433594,-0.269531 -2,-0.835937 -0.566406,-0.566406 -0.867188,-1.230469 -0.867188,-2.03125 z m 9.535156,23.097656 c 0,-0.765625 0.265626,-1.433593 0.765626,-2.03125 l 4.898437,-4.765625 c 0.5,-0.535156 1.167969,-0.769531 1.96875,-0.769531 0.800781,0 1.464844,0.269531 2,0.769531 0.53125,0.5 0.800781,1.132813 0.800781,1.898438 0,0.800781 -0.269531,1.53125 -0.800781,2.132812 L 29,73.800781 c -1.367188,1.066407 -2.734375,1.066407 -4.101562,0 -0.53125,-0.535156 -0.796876,-1.199219 -0.796876,-1.96875 z m 0,-46.132812 c 0,-0.765625 0.265626,-1.433594 0.765626,-2.03125 0.667968,-0.566407 1.367187,-0.835938 2.132812,-0.835938 0.734375,0 1.398438,0.269531 1.964844,0.800781 l 4.769531,4.902344 c 0.53125,0.5 0.800781,1.164063 0.800781,1.964844 0,0.800781 -0.269531,1.464844 -0.800781,2 -0.535156,0.535156 -1.199219,0.800781 -2,0.800781 -0.800781,0 -1.46875,-0.265625 -1.96875,-0.800781 L 24.898438,27.734375 C 24.367188,27.199219 24.101562,26.5 24.101562,25.699219 Z m 8.5,23.035156 c 0,-3.101563 0.765626,-6 2.332032,-8.667969 C 36.5,37.398438 38.601562,35.265625 41.300781,33.699219 44,32.132812 46.867188,31.367188 49.964844,31.367188 c 2.335937,0 4.570312,0.464843 6.734375,1.398437 2.132812,0.933594 4,2.167969 5.535156,3.734375 1.566406,1.566406 2.800781,3.398438 3.699219,5.535156 0.898437,2.132813 1.367187,4.398438 1.367187,6.730469 0,3.132813 -0.765625,6.035156 -2.335937,8.699219 -1.566406,2.667968 -3.664063,4.769531 -6.332032,6.335937 -2.667968,1.566407 -5.566406,2.332031 -8.699218,2.332031 -3.132813,0 -6.035156,-0.765624 -8.699219,-2.332031 -2.667969,-1.566406 -4.769531,-3.667969 -6.335937,-6.335937 -1.5,-2.699219 -2.296876,-5.597656 -2.296876,-8.730469 z m 5.664063,0 c 0,3.265625 1.132813,6.03125 3.433594,8.332031 2.265625,2.300782 5.035156,3.46875 8.300781,3.46875 3.265625,0 6.035156,-1.167968 8.332031,-3.46875 2.300781,-2.300781 3.46875,-5.066406 3.46875,-8.332031 0,-3.199219 -1.167969,-5.933594 -3.46875,-8.234375 C 56.035156,38.234375 53.265625,37.101562 50,37.101562 c -3.234375,0 -6,1.132813 -8.265625,3.398438 -2.335937,2.300781 -3.46875,5.035156 -3.46875,8.234375 z m 8.867187,25.933594 c 0,-0.800781 0.265626,-1.46875 0.832032,-2 0.570312,-0.535157 1.234375,-0.800781 2,-0.800781 0.800781,0 1.5,0.265624 2.035156,0.800781 0.535156,0.53125 0.800781,1.199219 0.800781,2 v 6.632812 c 0,0.800781 -0.265625,1.5 -0.835937,2.066407 -0.566406,0.566406 -1.230469,0.832031 -2,0.832031 -0.765625,0 -1.464844,-0.265625 -2,-0.832031 -0.566406,-0.566407 -0.832032,-1.265626 -0.832032,-2.066407 z m 0,-51.667969 v -6.800781 c 0,-0.765625 0.265626,-1.433594 0.832032,-2 0.570312,-0.566407 1.234375,-0.867188 2.035156,-0.867188 0.800781,0 1.433594,0.269531 2,0.835938 0.566406,0.566406 0.832031,1.230469 0.832031,2 V 23 c 0,0.765625 -0.265625,1.398438 -0.832031,1.933594 -0.566406,0.53125 -1.234375,0.765625 -2,0.765625 -0.765625,0 -1.464844,-0.265625 -2,-0.765625 -0.535156,-0.5 -0.867188,-1.167969 -0.867188,-1.933594 z m 18.402344,43.933594 c 0,-0.765625 0.265625,-1.398438 0.765625,-1.867188 0.5,-0.53125 1.132813,-0.765625 1.867188,-0.765625 0.796875,0 1.464843,0.265625 2,0.765625 l 4.867187,4.765625 c 0.53125,0.566407 0.796875,1.269531 0.796875,2.035157 0,0.765624 -0.265625,1.433593 -0.796875,1.964843 -1.335937,1.035157 -2.667968,1.035157 -4,0 l -4.734375,-4.730469 c -0.5,-0.601562 -0.765625,-1.300781 -0.765625,-2.167968 z m 0,-36.398438 c 0,-0.835937 0.265625,-1.5 0.765625,-1.96875 l 4.734375,-4.898437 C 71.601562,23.132812 72.265625,22.867188 73,22.867188 c 0.800781,0 1.464844,0.265624 2,0.832031 0.566406,0.566406 0.832031,1.234375 0.832031,2 0,0.835937 -0.265625,1.535156 -0.796875,2.066406 l -4.867187,4.769531 c -0.601563,0.53125 -1.269531,0.796875 -2,0.796875 -0.769531,0 -1.367188,-0.265625 -1.867188,-0.796875 -0.5,-0.535156 -0.765625,-1.203125 -0.765625,-2 z m 7.53125,18.199219 c 0,-0.800781 0.265625,-1.46875 0.800782,-2.066406 0.53125,-0.535157 1.167968,-0.800781 1.898437,-0.800781 H 82.5 c 0.765625,0 1.433594,0.300781 2,0.867187 0.566406,0.566406 0.867188,1.230469 0.867188,2 0,0.765625 -0.300782,1.433594 -0.867188,2 -0.566406,0.566406 -1.234375,0.832031 -2,0.832031 h -6.734375 c -0.765625,0 -1.433594,-0.265625 -1.933594,-0.832031 -0.5,-0.566406 -0.765625,-1.199219 -0.765625,-2 z m 0,0"
       id="path10013" />
  </g>
</svg>
