<?xml version="1.0" encoding="UTF-8"?>
<svg xmlns="http://www.w3.org/2000/svg" xmlns:xlink="http://www.w3.org/1999/xlink" width="100px" height="100px" viewBox="0 0 100 100" version="1.1">
<g id="surface1">
<path style=" stroke:none;fill-rule:nonzero;fill:rgb(0%,0%,0%);fill-opacity:1;" d="M 14.566406 52.066406 C 14.566406 51.265625 14.832031 50.601562 15.398438 50.035156 C 16 49.464844 16.667969 49.199219 17.398438 49.199219 L 24.199219 49.199219 C 24.964844 49.199219 25.601562 49.464844 26.132812 50.035156 C 26.632812 50.601562 26.898438 51.265625 26.898438 52.066406 C 26.898438 52.867188 26.632812 53.535156 26.132812 54.066406 C 25.632812 54.632812 24.964844 54.898438 24.199219 54.898438 L 17.433594 54.898438 C 16.667969 54.898438 16 54.632812 15.433594 54.066406 C 14.867188 53.5 14.566406 52.832031 14.566406 52.066406 Z M 24.101562 29.035156 C 24.101562 28.265625 24.367188 27.601562 24.867188 27 C 25.535156 26.433594 26.234375 26.167969 27 26.167969 C 27.699219 26.167969 28.367188 26.433594 28.964844 27 L 33.734375 31.867188 C 34.265625 32.367188 34.535156 33.035156 34.535156 33.832031 C 34.535156 34.632812 34.265625 35.300781 33.734375 35.832031 C 33.199219 36.367188 32.535156 36.632812 31.734375 36.632812 C 30.933594 36.632812 30.265625 36.367188 29.765625 35.832031 L 24.898438 31.066406 C 24.367188 30.5 24.101562 29.832031 24.101562 29.035156 Z M 24.632812 60.066406 C 24.632812 59.332031 24.898438 58.699219 25.398438 58.234375 C 25.933594 57.765625 26.632812 57.5 27.535156 57.5 L 46.566406 57.5 C 47.464844 57.5 48.167969 57.734375 48.699219 58.234375 C 49.234375 58.699219 49.5 59.332031 49.5 60.066406 C 49.5 60.964844 49.234375 61.667969 48.734375 62.199219 C 48.199219 62.734375 47.5 63 46.566406 63 L 27.535156 63 C 26.632812 63 25.933594 62.734375 25.398438 62.234375 C 24.867188 61.734375 24.632812 60.964844 24.632812 60.066406 Z M 27.933594 69.898438 C 27.933594 69.167969 28.234375 68.5 28.867188 67.898438 C 29.464844 67.300781 30.167969 67 30.867188 67 C 31.734375 67 32.433594 67.300781 32.964844 67.867188 C 33.5 68.464844 33.765625 69.132812 33.765625 69.898438 C 33.765625 70.832031 33.5 71.535156 33 72.066406 C 32.5 72.601562 31.765625 72.832031 30.867188 72.832031 C 30.101562 72.832031 29.398438 72.566406 28.832031 72.035156 C 28.234375 71.5 27.933594 70.765625 27.933594 69.898438 Z M 32.632812 53.035156 L 32.632812 52.800781 C 32.734375 48.601562 34.199219 44.964844 37 41.867188 C 39.800781 38.765625 43.234375 36.898438 47.332031 36.234375 L 47.5 36.234375 C 48.132812 36.101562 49 36.035156 50.035156 36.035156 C 51.066406 36.035156 51.933594 36.101562 52.566406 36.234375 L 52.699219 36.234375 C 56.765625 36.867188 60.234375 38.765625 63.035156 41.867188 C 65.832031 44.964844 67.300781 48.601562 67.398438 52.800781 L 67.398438 53.035156 C 67.398438 53.566406 67.132812 53.832031 66.632812 53.832031 L 62.867188 53.832031 C 62.464844 53.832031 62.199219 53.734375 62.035156 53.535156 C 61.867188 53.332031 61.800781 53.132812 61.800781 52.933594 C 61.667969 49.832031 60.464844 47.199219 58.199219 45.035156 C 55.933594 42.867188 53.234375 41.800781 50.066406 41.800781 C 46.898438 41.800781 44.199219 42.867188 41.933594 45.035156 C 39.667969 47.199219 38.464844 49.832031 38.332031 52.933594 C 38.332031 53.132812 38.234375 53.332031 38.066406 53.535156 C 37.898438 53.734375 37.601562 53.832031 37.199219 53.832031 L 33.433594 53.832031 C 32.898438 53.832031 32.632812 53.566406 32.632812 53.035156 Z M 36 69.898438 C 36 69.132812 36.265625 68.464844 36.800781 67.867188 C 37.332031 67.300781 38.035156 67 38.898438 67 L 51.667969 67 C 52.398438 67 53.066406 67.300781 53.667969 67.898438 C 54.265625 68.5 54.601562 69.167969 54.601562 69.898438 C 54.601562 70.765625 54.300781 71.5 53.699219 72.035156 C 53.101562 72.566406 52.433594 72.832031 51.667969 72.832031 L 38.898438 72.832031 C 38 72.832031 37.300781 72.566406 36.765625 72.066406 C 36.234375 71.535156 36 70.832031 36 69.898438 Z M 47.132812 26.300781 L 47.132812 19.535156 C 47.132812 18.734375 47.398438 18.066406 47.964844 17.5 C 48.535156 16.933594 49.199219 16.667969 50 16.667969 C 50.800781 16.667969 51.433594 16.933594 52 17.5 C 52.566406 18.066406 52.832031 18.734375 52.832031 19.535156 L 52.832031 26.300781 C 52.832031 27.066406 52.566406 27.734375 52 28.234375 C 51.433594 28.734375 50.765625 29.035156 50 29.035156 C 49.234375 29.035156 48.535156 28.765625 48 28.265625 C 47.464844 27.765625 47.132812 27.066406 47.132812 26.300781 Z M 51.667969 60.066406 C 51.667969 59.367188 51.964844 58.765625 52.566406 58.265625 C 53.167969 57.765625 53.832031 57.5 54.601562 57.5 C 55.367188 57.5 56.035156 57.765625 56.632812 58.265625 C 57.234375 58.765625 57.535156 59.367188 57.535156 60.066406 C 57.535156 60.933594 57.234375 61.667969 56.632812 62.199219 C 56.035156 62.734375 55.367188 63 54.601562 63 C 53.832031 63 53.132812 62.734375 52.566406 62.199219 C 51.964844 61.632812 51.667969 60.933594 51.667969 60.066406 Z M 56.800781 69.898438 C 56.800781 69.132812 57.066406 68.464844 57.601562 67.867188 C 58.132812 67.300781 58.867188 67 59.734375 67 L 65.933594 67 C 66.800781 67 67.5 67.300781 68.035156 67.867188 C 68.566406 68.464844 68.832031 69.132812 68.832031 69.898438 C 68.832031 70.832031 68.566406 71.535156 68.066406 72.066406 C 67.566406 72.601562 66.832031 72.832031 65.933594 72.832031 L 59.734375 72.832031 C 58.832031 72.832031 58.132812 72.566406 57.601562 72.066406 C 57.066406 71.535156 56.800781 70.832031 56.800781 69.898438 Z M 59.734375 60.066406 C 59.734375 59.367188 60.035156 58.765625 60.632812 58.265625 C 61.234375 57.765625 61.898438 57.5 62.632812 57.5 L 72.867188 57.5 C 73.601562 57.5 74.199219 57.734375 74.667969 58.234375 C 75.132812 58.734375 75.398438 59.332031 75.398438 60.066406 C 75.398438 60.964844 75.167969 61.667969 74.699219 62.199219 C 74.234375 62.734375 73.632812 63 72.867188 63 L 62.632812 63 C 61.867188 63 61.199219 62.734375 60.601562 62.199219 C 60.035156 61.632812 59.734375 60.933594 59.734375 60.066406 Z M 65.535156 33.832031 C 65.535156 33 65.800781 32.332031 66.300781 31.867188 L 71.035156 27 C 71.632812 26.433594 72.300781 26.167969 73 26.167969 C 73.765625 26.167969 74.433594 26.433594 75 27 C 75.566406 27.566406 75.832031 28.234375 75.832031 29.035156 C 75.832031 29.832031 75.566406 30.535156 75.035156 31.066406 L 70.167969 35.800781 C 69.566406 36.332031 68.898438 36.601562 68.167969 36.601562 C 67.398438 36.601562 66.800781 36.332031 66.300781 35.800781 C 65.800781 35.300781 65.535156 34.632812 65.535156 33.832031 Z M 73.066406 52.066406 C 73.066406 51.300781 73.332031 50.632812 73.867188 50.035156 C 74.433594 49.464844 75.066406 49.199219 75.765625 49.199219 L 82.5 49.199219 C 83.265625 49.199219 83.933594 49.5 84.5 50.066406 C 85.066406 50.632812 85.367188 51.300781 85.367188 52.066406 C 85.367188 52.832031 85.066406 53.5 84.5 54.066406 C 83.933594 54.632812 83.265625 54.898438 82.5 54.898438 L 75.765625 54.898438 C 75 54.898438 74.332031 54.632812 73.832031 54.066406 C 73.332031 53.5 73.066406 52.867188 73.066406 52.066406 Z M 73.066406 52.066406 "/>
</g>
</svg>
