<?xml version="1.0" encoding="UTF-8"?>
<svg xmlns="http://www.w3.org/2000/svg" xmlns:xlink="http://www.w3.org/1999/xlink" width="100px" height="100px" viewBox="0 0 100 100" version="1.1">
<g id="surface1">
<path style=" stroke:none;fill-rule:nonzero;fill:rgb(0%,0%,0%);fill-opacity:1;" d="M 4.933594 56.265625 C 4.933594 60.734375 6.5 64.566406 9.601562 67.765625 C 12.699219 70.964844 16.5 72.667969 20.933594 72.867188 C 21.332031 72.867188 21.535156 72.667969 21.535156 72.300781 L 21.535156 67.832031 C 21.535156 67.433594 21.332031 67.234375 20.933594 67.234375 C 18.066406 67.101562 15.632812 65.933594 13.632812 63.800781 C 11.632812 61.667969 10.632812 59.132812 10.632812 56.265625 C 10.632812 53.5 11.566406 51.101562 13.464844 49.035156 C 15.367188 46.964844 17.699219 45.800781 20.464844 45.464844 L 22.234375 45.332031 C 22.667969 45.332031 22.898438 45.132812 22.898438 44.734375 L 23.132812 42.898438 C 23.5 39.300781 25 36.265625 27.699219 33.867188 C 30.398438 31.433594 33.566406 30.234375 37.234375 30.234375 C 40.867188 30.234375 44.035156 31.433594 46.765625 33.867188 C 49.5 36.300781 51.066406 39.300781 51.433594 42.898438 L 51.667969 44.832031 C 51.667969 45.234375 51.867188 45.464844 52.234375 45.464844 L 57.632812 45.464844 C 60.601562 45.464844 63.199219 46.535156 65.367188 48.667969 C 67.535156 50.800781 68.632812 53.332031 68.632812 56.234375 C 68.632812 59.132812 67.632812 61.632812 65.601562 63.765625 C 63.566406 65.898438 61.132812 67.035156 58.300781 67.199219 C 57.867188 67.199219 57.632812 67.398438 57.632812 67.800781 L 57.632812 72.265625 C 57.632812 72.632812 57.867188 72.832031 58.300781 72.832031 C 62.765625 72.699219 66.535156 71 69.601562 67.800781 C 72.699219 64.566406 74.234375 60.734375 74.234375 56.265625 C 74.234375 53.800781 73.765625 51.566406 72.867188 49.566406 C 75.5 46.367188 76.800781 42.667969 76.800781 38.464844 C 76.800781 35.332031 76 32.398438 74.433594 29.699219 C 72.832031 27 70.699219 24.867188 68 23.265625 C 65.300781 21.699219 62.367188 20.898438 59.234375 20.898438 C 54.035156 20.898438 49.699219 22.832031 46.234375 26.734375 C 43.566406 25.265625 40.566406 24.535156 37.199219 24.535156 C 32.5 24.535156 28.300781 26 24.667969 28.898438 C 21.035156 31.800781 18.667969 35.566406 17.632812 40.132812 C 13.933594 41 10.898438 42.933594 8.5 45.933594 C 6.132812 49 4.933594 52.433594 4.933594 56.265625 Z M 22.734375 79.800781 C 23.066406 80.535156 23.566406 81.035156 24.265625 81.300781 C 24.933594 81.632812 25.632812 81.667969 26.367188 81.367188 C 27.101562 81.101562 27.601562 80.601562 27.867188 79.867188 C 28.199219 79.132812 28.234375 78.433594 27.933594 77.699219 C 27.667969 77 27.167969 76.5 26.433594 76.234375 C 25.765625 75.867188 25.066406 75.832031 24.367188 76.132812 C 23.632812 76.433594 23.132812 76.933594 22.800781 77.699219 C 22.464844 78.300781 22.433594 79 22.734375 79.800781 Z M 24.867188 70.332031 C 24.867188 70.800781 24.964844 71.234375 25.167969 71.601562 C 25.800781 72.632812 26.800781 73.132812 28.132812 73.132812 C 29.199219 73.132812 29.964844 72.398438 30.433594 70.964844 L 33.898438 60.234375 C 34.167969 59.433594 34.101562 58.667969 33.667969 58 C 33.234375 57.332031 32.632812 56.898438 31.832031 56.765625 C 31.132812 56.601562 30.433594 56.667969 29.765625 57 C 29.101562 57.367188 28.632812 57.933594 28.398438 58.667969 L 24.964844 69.398438 C 24.898438 69.734375 24.867188 70.066406 24.867188 70.332031 Z M 31.101562 89.066406 C 31.101562 89.5 31.167969 89.832031 31.265625 90.035156 C 31.566406 90.765625 32.066406 91.265625 32.765625 91.535156 C 33.066406 91.699219 33.464844 91.765625 33.933594 91.765625 C 34.132812 91.765625 34.464844 91.699219 34.933594 91.566406 C 35.667969 91.300781 36.199219 90.800781 36.5 90.066406 C 36.800781 89.332031 36.832031 88.601562 36.5 87.867188 C 36.167969 87.132812 35.667969 86.632812 35 86.367188 C 34.332031 86.101562 33.632812 86.101562 32.933594 86.367188 C 32.300781 86.601562 31.832031 87 31.535156 87.535156 C 31.234375 88.066406 31.101562 88.601562 31.101562 89.066406 Z M 33.132812 15.234375 C 33.132812 16.066406 33.398438 16.734375 33.933594 17.234375 L 36.101562 19.398438 C 36.632812 19.933594 37.234375 20.234375 37.898438 20.300781 C 38.601562 20.398438 39.265625 20.132812 39.933594 19.535156 C 40.601562 18.933594 40.933594 18.199219 40.933594 17.398438 C 40.933594 16.601562 40.667969 15.933594 40.132812 15.398438 L 38 13.265625 C 37.367188 12.699219 36.699219 12.433594 35.933594 12.433594 C 35.132812 12.433594 34.433594 12.699219 33.898438 13.234375 C 33.398438 13.800781 33.132812 14.464844 33.132812 15.234375 Z M 33.535156 80.101562 C 33.535156 80.632812 33.699219 81.167969 34.066406 81.699219 C 34.433594 82.234375 34.964844 82.601562 35.667969 82.800781 C 36.035156 82.867188 36.300781 82.933594 36.464844 82.933594 C 36.964844 82.933594 37.398438 82.832031 37.734375 82.667969 C 38.398438 82.398438 38.867188 81.765625 39.167969 80.765625 L 45.167969 60.300781 C 45.398438 59.5 45.332031 58.800781 44.964844 58.132812 C 44.601562 57.464844 44.066406 57.035156 43.300781 56.832031 C 42.5 56.601562 41.765625 56.667969 41.101562 57.035156 C 40.433594 57.398438 39.964844 57.933594 39.734375 58.734375 L 33.601562 79.367188 C 33.566406 79.734375 33.535156 80 33.535156 80.101562 Z M 45.035156 78.800781 C 45.035156 79.234375 45.101562 79.566406 45.265625 79.832031 C 45.566406 80.535156 46.066406 81 46.765625 81.300781 C 47.132812 81.464844 47.5 81.566406 47.933594 81.566406 C 48.132812 81.566406 48.464844 81.5 48.933594 81.367188 C 49.699219 81.066406 50.199219 80.601562 50.464844 79.898438 C 50.734375 79.167969 50.734375 78.464844 50.464844 77.800781 C 50.199219 77.132812 49.734375 76.632812 49.066406 76.300781 C 48.300781 75.933594 47.601562 75.898438 46.867188 76.199219 C 46.167969 76.5 45.632812 77 45.265625 77.765625 C 45.101562 78.035156 45.035156 78.367188 45.035156 78.800781 Z M 47.433594 70.265625 C 47.433594 70.800781 47.601562 71.300781 47.933594 71.765625 C 48.265625 72.265625 48.800781 72.601562 49.464844 72.800781 C 49.765625 72.867188 50.035156 72.898438 50.300781 72.898438 C 51.601562 72.898438 52.464844 72.234375 52.933594 70.867188 L 56.367188 60.265625 C 56.632812 59.5 56.535156 58.765625 56.132812 58.101562 C 55.734375 57.433594 55.167969 57 54.398438 56.800781 C 53.601562 56.566406 52.898438 56.632812 52.265625 57 C 51.632812 57.367188 51.199219 57.898438 50.933594 58.699219 L 47.535156 69.367188 C 47.5 69.800781 47.433594 70.101562 47.433594 70.265625 Z M 51 30 C 53.234375 27.867188 56 26.765625 59.265625 26.765625 C 62.535156 26.765625 65.300781 27.898438 67.601562 30.199219 C 69.898438 32.464844 71.066406 35.234375 71.066406 38.5 C 71.066406 40.566406 70.5 42.632812 69.332031 44.667969 C 66.132812 41.464844 62.265625 39.867188 57.632812 39.867188 L 56.667969 39.867188 C 55.667969 36 53.800781 32.699219 51 30 Z M 56.398438 12.433594 C 56.398438 13.234375 56.667969 13.898438 57.234375 14.464844 C 57.800781 15.035156 58.464844 15.300781 59.265625 15.300781 C 60.035156 15.300781 60.699219 15.035156 61.234375 14.464844 C 61.765625 13.898438 62.035156 13.234375 62.035156 12.433594 L 62.035156 5.566406 C 62.035156 4.765625 61.765625 4.101562 61.234375 3.535156 C 60.699219 2.964844 60.066406 2.699219 59.265625 2.699219 C 58.464844 2.699219 57.800781 2.964844 57.234375 3.535156 C 56.667969 4.101562 56.398438 4.765625 56.398438 5.566406 Z M 74.898438 20.066406 C 74.898438 20.867188 75.167969 21.535156 75.734375 22.066406 C 76.234375 22.632812 76.867188 22.933594 77.667969 22.933594 C 78.433594 22.933594 79.132812 22.632812 79.667969 22.066406 L 84.464844 17.265625 C 85.066406 16.765625 85.367188 16.101562 85.367188 15.265625 C 85.367188 14.464844 85.066406 13.800781 84.5 13.234375 C 83.933594 12.667969 83.234375 12.398438 82.464844 12.398438 C 81.734375 12.398438 81.101562 12.699219 80.566406 13.300781 L 75.734375 18.066406 C 75.199219 18.566406 74.898438 19.265625 74.898438 20.066406 Z M 77.601562 59.734375 C 77.601562 60.5 77.867188 61.167969 78.398438 61.734375 L 80.601562 63.832031 C 81.066406 64.433594 81.734375 64.734375 82.601562 64.734375 C 83.398438 64.734375 84.035156 64.433594 84.5 63.832031 C 85.101562 63.300781 85.398438 62.632812 85.398438 61.832031 C 85.398438 61.035156 85.101562 60.367188 84.5 59.800781 L 82.332031 57.734375 C 81.800781 57.132812 81.167969 56.867188 80.398438 56.867188 C 79.632812 56.867188 78.964844 57.132812 78.398438 57.699219 C 77.867188 58.265625 77.601562 58.964844 77.601562 59.734375 Z M 82.464844 38.5 C 82.464844 39.300781 82.765625 39.964844 83.332031 40.5 C 83.933594 41.101562 84.601562 41.367188 85.398438 41.367188 L 92.167969 41.367188 C 92.964844 41.367188 93.632812 41.101562 94.199219 40.535156 C 94.765625 39.964844 95.066406 39.300781 95.066406 38.5 C 95.066406 37.734375 94.800781 37.066406 94.234375 36.535156 C 93.667969 36 92.964844 35.734375 92.167969 35.734375 L 85.398438 35.734375 C 84.566406 35.734375 83.867188 36 83.300781 36.535156 C 82.765625 37.066406 82.464844 37.734375 82.464844 38.5 Z M 82.464844 38.5 "/>
</g>
</svg>
