<?xml version="1.0" encoding="UTF-8"?>
<svg xmlns="http://www.w3.org/2000/svg" xmlns:xlink="http://www.w3.org/1999/xlink" width="100px" height="100px" viewBox="0 0 100 100" version="1.1">
<g id="surface1">
<path style=" stroke:none;fill-rule:nonzero;fill:rgb(0%,0%,0%);fill-opacity:1;" d="M 13.167969 43.5 C 13.167969 40.398438 14.132812 37.667969 16.066406 35.234375 C 18 32.800781 20.433594 31.234375 23.367188 30.566406 C 24.234375 26.898438 26.101562 23.898438 29.035156 21.535156 C 31.964844 19.167969 35.300781 18 39.066406 18 C 42.734375 18 46 19.167969 48.898438 21.464844 C 51.800781 23.765625 53.667969 26.699219 54.5 30.300781 L 55.367188 30.300781 C 59.035156 30.300781 62.167969 31.601562 64.765625 34.167969 C 67.367188 36.734375 68.667969 39.867188 68.667969 43.535156 C 68.667969 43.566406 68.667969 43.601562 68.667969 43.667969 C 68.667969 43.734375 68.667969 43.800781 68.667969 43.867188 C 71.167969 46.535156 72.398438 49.699219 72.398438 53.367188 C 72.398438 55.898438 71.765625 58.234375 70.5 60.367188 C 69.234375 62.535156 67.535156 64.234375 65.398438 65.464844 C 63.265625 66.734375 60.933594 67.332031 58.433594 67.332031 C 55.234375 67.332031 52.367188 66.332031 49.898438 64.367188 C 47.433594 62.398438 45.765625 59.867188 44.964844 56.832031 L 25.964844 56.832031 C 22.398438 56.667969 19.367188 55.300781 16.898438 52.734375 C 14.433594 50.167969 13.167969 47.066406 13.167969 43.5 Z M 17.699219 43.5 C 17.699219 45.832031 18.5 47.867188 20.132812 49.566406 C 21.765625 51.265625 23.699219 52.199219 25.964844 52.300781 L 55.933594 52.300781 C 58.199219 52.199219 60.167969 51.300781 61.765625 49.566406 C 63.398438 47.832031 64.199219 45.832031 64.199219 43.5 C 64.199219 41.132812 63.332031 39.101562 61.566406 37.398438 C 59.800781 35.667969 57.765625 34.832031 55.367188 34.832031 L 51.066406 34.832031 C 50.765625 34.832031 50.601562 34.667969 50.601562 34.367188 L 50.367188 32.800781 C 50.066406 29.898438 48.832031 27.464844 46.632812 25.5 C 44.433594 23.535156 41.898438 22.535156 39.035156 22.535156 C 36.066406 22.535156 33.5 23.5 31.332031 25.464844 C 29.167969 27.433594 28 29.867188 27.699219 32.765625 L 27.5 34.332031 C 27.5 34.632812 27.332031 34.800781 26.964844 34.800781 L 25.632812 34.800781 C 23.398438 35.066406 21.5 36 20 37.667969 C 18.464844 39.300781 17.699219 41.265625 17.699219 43.5 Z M 38.367188 73.535156 C 37.535156 72.433594 37.535156 71.367188 38.367188 70.265625 L 42.132812 66.433594 C 42.601562 66.035156 43.167969 65.832031 43.867188 65.832031 C 44.5 65.832031 45 66.035156 45.398438 66.433594 C 45.800781 66.832031 46 67.367188 46 68 C 46 68.667969 45.800781 69.199219 45.398438 69.601562 L 41.601562 73.535156 C 41.199219 73.933594 40.632812 74.167969 39.964844 74.167969 C 39.300781 74.167969 38.765625 73.933594 38.367188 73.535156 Z M 49.667969 56.800781 C 50.367188 58.601562 51.535156 60.035156 53.132812 61.132812 C 54.734375 62.234375 56.5 62.800781 58.464844 62.800781 C 61.035156 62.800781 63.234375 61.867188 65.035156 60.035156 C 66.832031 58.167969 67.734375 55.933594 67.734375 53.300781 C 67.734375 52 67.535156 50.832031 67.101562 49.800781 C 66 51.832031 64.433594 53.5 62.464844 54.765625 C 60.464844 56.035156 58.300781 56.699219 55.933594 56.800781 Z M 56.167969 74.101562 C 56.167969 73.464844 56.398438 72.964844 56.832031 72.535156 C 57.265625 72.132812 57.832031 71.898438 58.433594 71.898438 C 59.035156 71.898438 59.601562 72.132812 60.101562 72.601562 C 60.5 73 60.734375 73.5 60.734375 74.101562 L 60.734375 79.566406 C 60.734375 80.199219 60.5 80.734375 60.066406 81.199219 C 59.632812 81.667969 59.066406 81.898438 58.464844 81.898438 C 57.867188 81.898438 57.300781 81.667969 56.867188 81.199219 C 56.433594 80.734375 56.199219 80.199219 56.199219 79.566406 L 56.199219 74.101562 Z M 70.867188 68 C 70.867188 67.398438 71.066406 66.898438 71.5 66.464844 C 71.933594 66.066406 72.464844 65.832031 73.066406 65.832031 C 73.699219 65.832031 74.234375 66.035156 74.632812 66.433594 L 78.566406 70.265625 C 79 70.734375 79.234375 71.265625 79.234375 71.867188 C 79.234375 72.5 79 73.035156 78.566406 73.464844 C 78.132812 73.898438 77.566406 74.132812 76.933594 74.132812 C 76.234375 74.132812 75.699219 73.933594 75.265625 73.5 L 71.5 69.566406 C 71.066406 69.101562 70.867188 68.566406 70.867188 68 Z M 70.867188 38.632812 C 70.867188 38 71.066406 37.464844 71.5 37.066406 L 75.265625 33.132812 C 75.734375 32.734375 76.265625 32.5 76.933594 32.5 C 77.566406 32.5 78.101562 32.699219 78.601562 33.132812 C 79.035156 33.632812 79.265625 34.199219 79.265625 34.832031 C 79.265625 35.433594 79.035156 35.933594 78.601562 36.433594 L 74.667969 40.265625 C 74.265625 40.667969 73.734375 40.898438 73.101562 40.898438 C 72.464844 40.898438 71.933594 40.699219 71.535156 40.265625 C 71.066406 39.800781 70.867188 39.265625 70.867188 38.632812 Z M 76.933594 53.300781 C 76.933594 52.667969 77.132812 52.132812 77.566406 51.699219 C 77.964844 51.265625 78.5 51.035156 79.132812 51.035156 L 84.535156 51.035156 C 85.167969 51.035156 85.734375 51.265625 86.199219 51.699219 C 86.667969 52.132812 86.898438 52.667969 86.898438 53.300781 C 86.898438 53.933594 86.667969 54.5 86.199219 54.933594 C 85.734375 55.367188 85.199219 55.601562 84.535156 55.601562 L 79.132812 55.601562 C 78.5 55.601562 78 55.367188 77.566406 54.933594 C 77.132812 54.5 76.933594 53.964844 76.933594 53.300781 Z M 76.933594 53.300781 "/>
</g>
</svg>
