<?xml version="1.0" encoding="UTF-8"?>
<svg xmlns="http://www.w3.org/2000/svg" xmlns:xlink="http://www.w3.org/1999/xlink" width="100px" height="100px" viewBox="0 0 100 100" version="1.1">
<g id="surface1">
<path style=" stroke:none;fill-rule:nonzero;fill:rgb(0%,0%,0%);fill-opacity:1;" d="M 33.433594 47.699219 L 33.433594 32.800781 C 33.433594 31.800781 33.765625 30.964844 34.433594 30.300781 C 35.101562 29.632812 35.933594 29.300781 36.898438 29.300781 L 51.832031 29.300781 C 52.800781 29.300781 53.632812 29.632812 54.300781 30.300781 C 54.964844 30.964844 55.300781 31.800781 55.300781 32.800781 C 55.300781 33.765625 54.964844 34.566406 54.300781 35.234375 C 53.632812 35.898438 52.800781 36.199219 51.832031 36.199219 L 45.332031 36.199219 L 65.535156 56.398438 C 66.132812 57.101562 66.398438 57.933594 66.398438 59 C 66.398438 59.964844 66.101562 60.765625 65.535156 61.398438 C 64.867188 62.035156 64 62.332031 62.898438 62.332031 C 61.898438 62.332031 61.066406 62.035156 60.464844 61.398438 L 40.398438 41.234375 L 40.398438 47.734375 C 40.398438 48.734375 40.066406 49.566406 39.398438 50.234375 C 38.734375 50.898438 37.898438 51.234375 36.898438 51.234375 C 35.933594 51.234375 35.101562 50.898438 34.433594 50.199219 C 33.765625 49.5 33.433594 48.667969 33.433594 47.699219 Z M 33.433594 47.699219 "/>
</g>
</svg>
