<?xml version="1.0" encoding="UTF-8"?>
<svg xmlns="http://www.w3.org/2000/svg" xmlns:xlink="http://www.w3.org/1999/xlink" width="100px" height="100px" viewBox="0 0 100 100" version="1.1">
<g id="surface1">
<path style=" stroke:none;fill-rule:nonzero;fill:rgb(0%,0%,0%);fill-opacity:1;" d="M 4.964844 56.265625 C 4.964844 60 6.066406 63.332031 8.300781 66.265625 C 10.535156 69.199219 13.398438 71.167969 16.898438 72.132812 L 14.699219 77.800781 C 14.535156 78.265625 14.699219 78.535156 15.167969 78.535156 L 22.265625 78.535156 L 17.5 92.566406 L 18.464844 92.566406 L 33 73.699219 C 33.132812 73.566406 33.132812 73.398438 33.066406 73.234375 C 33 73.066406 32.832031 73 32.601562 73 L 25.300781 73 L 33.601562 57.5 C 33.832031 57.035156 33.699219 56.765625 33.132812 56.765625 L 23.265625 56.765625 C 22.964844 56.765625 22.699219 56.933594 22.5 57.265625 L 18.933594 66.867188 C 16.535156 66.265625 14.535156 65 13 63 C 11.433594 61.035156 10.667969 58.800781 10.667969 56.265625 C 10.667969 53.464844 11.601562 51.035156 13.464844 49 C 15.332031 46.964844 17.699219 45.765625 20.5 45.433594 L 22.199219 45.332031 C 22.601562 45.332031 22.832031 45.167969 22.933594 44.867188 L 23.167969 42.898438 C 23.535156 39.300781 25.035156 36.265625 27.734375 33.832031 C 30.433594 31.398438 33.601562 30.167969 37.265625 30.167969 C 40.898438 30.167969 44.066406 31.398438 46.800781 33.832031 C 49.535156 36.265625 51.101562 39.300781 51.464844 42.898438 L 51.734375 44.867188 C 51.734375 45.234375 51.933594 45.433594 52.332031 45.433594 L 57.699219 45.433594 C 60.667969 45.433594 63.234375 46.5 65.398438 48.632812 C 67.566406 50.765625 68.632812 53.300781 68.632812 56.265625 C 68.632812 59.167969 67.632812 61.667969 65.632812 63.800781 C 63.632812 65.933594 61.234375 67.066406 58.367188 67.234375 C 57.933594 67.234375 57.699219 67.433594 57.699219 67.832031 L 57.699219 72.300781 C 57.699219 72.667969 57.933594 72.867188 58.367188 72.867188 C 61.300781 72.800781 64 72 66.433594 70.464844 C 68.867188 68.964844 70.800781 66.933594 72.234375 64.433594 C 73.667969 61.933594 74.367188 59.199219 74.367188 56.265625 C 74.367188 53.832031 73.898438 51.601562 72.933594 49.535156 C 75.464844 46.332031 76.734375 42.667969 76.734375 38.566406 C 76.734375 35.398438 75.933594 32.464844 74.367188 29.765625 C 72.800781 27.066406 70.667969 24.933594 67.964844 23.367188 C 65.265625 21.800781 62.332031 21 59.167969 21 C 56.765625 21 54.433594 21.5 52.167969 22.5 C 49.898438 23.5 47.964844 24.898438 46.300781 26.667969 C 43.601562 25.234375 40.601562 24.5 37.234375 24.5 C 32.5 24.5 28.300781 25.964844 24.667969 28.898438 C 21.035156 31.832031 18.667969 35.566406 17.667969 40.132812 C 13.964844 41 10.933594 42.933594 8.535156 45.933594 C 6.167969 49 4.964844 52.433594 4.964844 56.265625 Z M 33 15.300781 C 33 16.066406 33.265625 16.734375 33.832031 17.300781 L 36 19.5 C 36.535156 20.035156 37.132812 20.300781 37.832031 20.367188 C 38.535156 20.464844 39.199219 20.234375 39.867188 19.601562 C 40.535156 19 40.867188 18.300781 40.867188 17.464844 C 40.867188 16.699219 40.601562 16.035156 40.035156 15.464844 L 37.933594 13.265625 C 37.398438 12.734375 36.734375 12.464844 35.933594 12.464844 C 35.101562 12.464844 34.398438 12.734375 33.832031 13.265625 C 33.300781 13.867188 33 14.535156 33 15.300781 Z M 36.933594 76.535156 C 36.933594 77.332031 37.199219 78 37.734375 78.5 C 38.265625 79.035156 38.933594 79.300781 39.667969 79.300781 C 40.464844 79.300781 41.132812 79.035156 41.699219 78.5 C 42.265625 77.964844 42.535156 77.300781 42.535156 76.535156 C 42.535156 75.734375 42.265625 75.066406 41.699219 74.5 C 41.132812 73.933594 40.464844 73.632812 39.667969 73.632812 C 38.933594 73.632812 38.300781 73.933594 37.734375 74.5 C 37.167969 75.066406 36.933594 75.734375 36.933594 76.535156 Z M 36.933594 64.398438 C 36.933594 65.199219 37.199219 65.832031 37.734375 66.332031 C 38.265625 66.867188 38.933594 67.132812 39.667969 67.132812 C 40.464844 67.132812 41.167969 66.867188 41.699219 66.367188 C 42.234375 65.867188 42.535156 65.199219 42.535156 64.398438 C 42.535156 63.632812 42.265625 62.964844 41.699219 62.398438 C 41.132812 61.832031 40.464844 61.566406 39.667969 61.566406 C 38.898438 61.566406 38.265625 61.832031 37.734375 62.398438 C 37.199219 62.964844 36.933594 63.632812 36.933594 64.398438 Z M 36.933594 88.765625 C 36.933594 89.5 37.199219 90.132812 37.734375 90.667969 C 38.300781 91.234375 38.933594 91.5 39.667969 91.5 C 40.464844 91.5 41.132812 91.234375 41.699219 90.699219 C 42.265625 90.167969 42.535156 89.535156 42.535156 88.734375 C 42.535156 87.933594 42.265625 87.265625 41.699219 86.699219 C 41.132812 86.132812 40.464844 85.832031 39.667969 85.832031 C 38.933594 85.832031 38.300781 86.132812 37.734375 86.699219 C 37.199219 87.300781 36.933594 88 36.933594 88.765625 Z M 47.699219 70.066406 C 47.699219 70.867188 47.964844 71.535156 48.535156 72.066406 C 49.101562 72.601562 49.734375 72.898438 50.535156 72.898438 C 51.300781 72.898438 51.964844 72.632812 52.5 72.066406 C 53.035156 71.5 53.300781 70.832031 53.300781 70.066406 C 53.300781 69.332031 53.035156 68.667969 52.5 68.132812 C 51.964844 67.601562 51.332031 67.332031 50.535156 67.332031 C 49.765625 67.332031 49.101562 67.601562 48.535156 68.132812 C 47.964844 68.667969 47.699219 69.300781 47.699219 70.066406 Z M 47.699219 82.199219 C 47.699219 82.964844 47.964844 83.601562 48.5 84.132812 C 49.035156 84.667969 49.699219 84.933594 50.5 84.933594 C 51.300781 84.933594 51.933594 84.667969 52.464844 84.132812 C 53 83.601562 53.234375 82.964844 53.234375 82.167969 C 53.234375 81.367188 52.964844 80.734375 52.464844 80.199219 C 51.933594 79.667969 51.300781 79.433594 50.5 79.433594 C 49.699219 79.433594 49.035156 79.699219 48.5 80.199219 C 47.964844 80.734375 47.699219 81.398438 47.699219 82.199219 Z M 51.035156 30.066406 C 53.265625 27.933594 55.964844 26.832031 59.199219 26.832031 C 62.464844 26.832031 65.265625 27.964844 67.566406 30.265625 C 69.867188 32.535156 71.035156 35.332031 71.035156 38.601562 C 71.035156 40.800781 70.5 42.800781 69.464844 44.632812 C 66.265625 41.433594 62.367188 39.832031 57.734375 39.832031 L 56.699219 39.832031 C 55.734375 35.867188 53.832031 32.601562 51.035156 30.066406 Z M 56.367188 12.5 C 56.367188 13.300781 56.632812 13.964844 57.199219 14.535156 C 57.765625 15.101562 58.433594 15.367188 59.199219 15.367188 C 60 15.367188 60.667969 15.101562 61.199219 14.535156 C 61.734375 13.964844 62 13.300781 62 12.5 L 62 5.632812 C 62 4.832031 61.734375 4.132812 61.199219 3.601562 C 60.667969 3.035156 60 2.734375 59.199219 2.734375 C 58.398438 2.734375 57.734375 3 57.199219 3.566406 C 56.667969 4.132812 56.367188 4.800781 56.367188 5.601562 Z M 74.964844 20.132812 C 74.964844 20.933594 75.234375 21.601562 75.734375 22.132812 C 76.199219 22.667969 76.800781 22.933594 77.566406 23 C 78.332031 23.066406 79.035156 22.765625 79.667969 22.132812 L 84.464844 17.332031 C 85.066406 16.800781 85.332031 16.132812 85.332031 15.332031 C 85.332031 14.535156 85.035156 13.867188 84.464844 13.332031 C 83.933594 12.734375 83.265625 12.464844 82.464844 12.464844 C 81.699219 12.464844 81.066406 12.765625 80.535156 13.332031 L 75.734375 18.132812 C 75.199219 18.632812 74.964844 19.300781 74.964844 20.132812 Z M 77.535156 59.832031 C 77.535156 60.601562 77.800781 61.265625 78.367188 61.832031 L 80.535156 63.933594 C 81.132812 64.5 81.832031 64.765625 82.601562 64.765625 L 82.667969 64.832031 C 83.398438 64.832031 84 64.535156 84.464844 63.933594 C 85.066406 63.398438 85.332031 62.734375 85.332031 61.933594 C 85.332031 61.167969 85.035156 60.5 84.464844 59.898438 L 82.398438 57.832031 C 81.800781 57.234375 81.132812 56.933594 80.367188 56.933594 C 79.566406 56.933594 78.898438 57.234375 78.367188 57.800781 C 77.832031 58.367188 77.535156 59.066406 77.535156 59.832031 Z M 82.433594 38.601562 C 82.433594 39.398438 82.734375 40.066406 83.300781 40.566406 C 83.832031 41.167969 84.5 41.433594 85.300781 41.433594 L 92.167969 41.433594 C 92.964844 41.433594 93.632812 41.167969 94.199219 40.601562 C 94.765625 40.035156 95.035156 39.367188 95.035156 38.601562 C 95.035156 37.832031 94.765625 37.132812 94.199219 36.601562 C 93.632812 36.066406 92.964844 35.800781 92.167969 35.800781 L 85.300781 35.800781 C 84.5 35.800781 83.800781 36.066406 83.265625 36.601562 C 82.699219 37.132812 82.433594 37.800781 82.433594 38.601562 Z M 82.433594 38.601562 "/>
</g>
</svg>
