<?xml version="1.0" encoding="UTF-8"?>
<svg xmlns="http://www.w3.org/2000/svg" xmlns:xlink="http://www.w3.org/1999/xlink" width="100px" height="100px" viewBox="0 0 100 100" version="1.1">
<g id="surface1">
<path style=" stroke:none;fill-rule:nonzero;fill:rgb(0%,0%,0%);fill-opacity:1;" d="M 17.5 51 C 17.5 51.535156 17.699219 51.964844 18.066406 52.332031 C 18.433594 52.699219 18.898438 52.867188 19.398438 52.867188 L 29.332031 52.867188 C 29.800781 52.867188 30.234375 52.734375 30.601562 52.433594 C 30.964844 52.132812 31.167969 51.765625 31.265625 51.300781 L 34.265625 33.734375 L 39.667969 77.667969 C 39.734375 78.132812 39.964844 78.535156 40.300781 78.867188 C 40.632812 79.167969 41.035156 79.332031 41.5 79.332031 C 42 79.332031 42.433594 79.167969 42.765625 78.867188 C 43.101562 78.566406 43.332031 78.167969 43.433594 77.667969 L 47.601562 45.433594 L 51.066406 54.765625 C 51.199219 55.132812 51.398438 55.433594 51.734375 55.667969 C 52.066406 55.898438 52.398438 56 52.800781 56 L 52.964844 56 C 53.367188 55.964844 53.734375 55.832031 54.035156 55.566406 C 54.367188 55.300781 54.566406 54.964844 54.667969 54.535156 L 59.765625 31.667969 L 62.132812 75.601562 C 62.167969 76.066406 62.332031 76.5 62.632812 76.832031 C 62.933594 77.167969 63.332031 77.367188 63.832031 77.398438 C 64.300781 77.433594 64.734375 77.332031 65.101562 77.066406 C 65.464844 76.800781 65.699219 76.433594 65.832031 75.964844 L 71.332031 52.832031 L 80.566406 52.832031 C 81.101562 52.832031 81.535156 52.667969 81.898438 52.300781 C 82.265625 51.933594 82.464844 51.5 82.464844 50.964844 C 82.464844 50.433594 82.265625 50 81.898438 49.632812 C 81.535156 49.265625 81.066406 49.066406 80.566406 49.066406 L 69.800781 49.066406 C 69.367188 49.066406 68.964844 49.199219 68.632812 49.464844 C 68.300781 49.734375 68.066406 50.066406 67.964844 50.5 L 65.199219 62.300781 L 62.800781 17.765625 C 62.765625 17.300781 62.601562 16.867188 62.265625 16.535156 C 61.933594 16.199219 61.535156 16 61.066406 16 C 60.601562 15.964844 60.167969 16.066406 59.765625 16.367188 C 59.367188 16.667969 59.132812 17.035156 59.035156 17.5 L 52.367188 47.398438 L 48.5 36.867188 C 48.367188 36.464844 48.101562 36.167969 47.699219 35.933594 C 47.300781 35.699219 46.898438 35.601562 46.5 35.667969 C 46.066406 35.699219 45.699219 35.898438 45.398438 36.199219 C 45.101562 36.5 44.898438 36.898438 44.832031 37.332031 L 41.566406 62.367188 L 36.464844 20.5 C 36.367188 20.035156 36.167969 19.632812 35.832031 19.332031 C 35.5 19.035156 35.101562 18.867188 34.632812 18.832031 C 34.167969 18.800781 33.734375 18.933594 33.367188 19.234375 C 33 19.535156 32.765625 19.898438 32.699219 20.398438 L 27.765625 49.101562 L 19.398438 49.101562 C 18.867188 49.101562 18.433594 49.300781 18.066406 49.667969 C 17.699219 50.035156 17.5 50.464844 17.5 51 Z M 17.5 51 "/>
</g>
</svg>
