<?xml version="1.0" encoding="UTF-8"?>
<svg xmlns="http://www.w3.org/2000/svg" xmlns:xlink="http://www.w3.org/1999/xlink" width="100px" height="100px" viewBox="0 0 100 100" version="1.1">
<g id="surface1">
<path style=" stroke:none;fill-rule:nonzero;fill:rgb(0%,0%,0%);fill-opacity:1;" d="M 22.398438 69.199219 C 22.398438 69.035156 22.433594 68.800781 22.464844 68.5 L 22.464844 52.632812 C 23.398438 54.265625 24.667969 55.601562 26.300781 56.601562 C 27.933594 57.601562 29.734375 58.101562 31.667969 58.101562 C 33.632812 58.101562 35.433594 57.601562 37.066406 56.601562 C 38.699219 55.601562 39.964844 54.300781 40.898438 52.632812 C 41.800781 54.265625 43.101562 55.601562 44.734375 56.601562 C 46.367188 57.601562 48.167969 58.101562 50.132812 58.101562 C 52.066406 58.101562 53.867188 57.601562 55.5 56.601562 C 57.132812 55.601562 58.398438 54.300781 59.332031 52.632812 C 60.265625 54.265625 61.566406 55.601562 63.167969 56.601562 C 64.800781 57.601562 66.566406 58.101562 68.5 58.101562 C 70.433594 58.101562 72.234375 57.601562 73.867188 56.601562 C 75.5 55.601562 76.800781 54.300781 77.699219 52.632812 L 77.699219 68.667969 C 77.699219 68.734375 77.699219 68.832031 77.699219 68.933594 C 77.699219 69.035156 77.699219 69.132812 77.699219 69.199219 C 77.699219 69.234375 77.699219 69.332031 77.699219 69.433594 C 77.699219 69.535156 77.699219 69.632812 77.699219 69.699219 C 77.601562 70.464844 77.265625 71.132812 76.699219 71.699219 C 76.132812 72.265625 75.464844 72.601562 74.699219 72.699219 C 74.632812 72.699219 74.535156 72.699219 74.433594 72.734375 C 74.332031 72.765625 74.234375 72.765625 74.167969 72.765625 C 74.132812 72.765625 74.035156 72.765625 73.933594 72.734375 C 73.832031 72.699219 73.734375 72.699219 73.667969 72.699219 L 26.464844 72.699219 C 26.398438 72.699219 26.332031 72.699219 26.199219 72.734375 C 26.101562 72.765625 26 72.765625 25.964844 72.765625 C 25.898438 72.765625 25.800781 72.765625 25.699219 72.734375 C 25.601562 72.699219 25.5 72.699219 25.464844 72.699219 C 24.734375 72.601562 24.066406 72.300781 23.535156 71.765625 C 23 71.234375 22.632812 70.632812 22.464844 69.898438 C 22.433594 69.601562 22.398438 69.367188 22.398438 69.199219 Z M 40.765625 32.234375 C 40.765625 31.699219 40.964844 31.234375 41.332031 30.832031 L 48.699219 23.433594 L 48.800781 23.367188 C 48.832031 23.367188 48.832031 23.367188 48.832031 23.332031 C 48.867188 23.332031 48.867188 23.332031 48.867188 23.300781 C 48.898438 23.300781 48.898438 23.300781 48.898438 23.265625 L 48.933594 23.265625 C 48.964844 23.265625 48.964844 23.265625 48.964844 23.234375 C 48.964844 23.199219 48.964844 23.199219 49 23.167969 L 49.066406 23.167969 L 49.101562 23.132812 L 49.132812 23.132812 L 49.167969 23.101562 L 49.199219 23.101562 L 49.234375 23.066406 L 49.265625 23.066406 C 49.300781 23.035156 49.300781 23.035156 49.332031 23.035156 L 49.367188 23.035156 C 49.367188 23 49.398438 23 49.433594 23 C 49.464844 22.964844 49.464844 22.964844 49.5 22.964844 L 49.632812 22.898438 L 49.667969 22.898438 C 49.699219 22.898438 49.699219 22.898438 49.699219 22.867188 L 49.933594 22.867188 L 49.964844 22.832031 L 50.367188 22.832031 C 50.398438 22.832031 50.398438 22.832031 50.433594 22.867188 L 50.632812 22.867188 C 50.632812 22.898438 50.632812 22.898438 50.667969 22.898438 L 50.734375 22.898438 C 50.765625 22.933594 50.800781 22.964844 50.832031 22.964844 L 50.898438 23 L 50.964844 23 L 51 23.035156 L 51.035156 23.035156 L 51.066406 23.066406 C 51.101562 23.066406 51.101562 23.066406 51.101562 23.101562 L 51.167969 23.101562 C 51.199219 23.101562 51.199219 23.101562 51.199219 23.101562 C 51.199219 23.101562 51.199219 23.101562 51.234375 23.101562 C 51.265625 23.132812 51.265625 23.132812 51.300781 23.132812 C 51.300781 23.167969 51.300781 23.199219 51.332031 23.199219 L 51.367188 23.234375 L 51.433594 23.234375 L 51.464844 23.265625 L 51.367188 23.332031 L 51.398438 23.367188 L 51.464844 23.433594 L 58.867188 30.832031 C 59.265625 31.234375 59.464844 31.699219 59.464844 32.234375 C 59.464844 32.765625 59.265625 33.234375 58.867188 33.601562 C 58.5 34 58.035156 34.199219 57.5 34.199219 C 56.964844 34.199219 56.5 34 56.132812 33.601562 L 52.035156 29.535156 L 52.035156 52.535156 C 52.035156 53.066406 51.832031 53.5 51.464844 53.867188 C 51.101562 54.234375 50.632812 54.433594 50.101562 54.433594 C 49.566406 54.433594 49.101562 54.234375 48.699219 53.867188 C 48.300781 53.5 48.132812 53.035156 48.132812 52.535156 L 48.132812 29.535156 L 44.066406 33.601562 C 43.667969 34 43.199219 34.199219 42.667969 34.199219 C 42.132812 34.199219 41.667969 34 41.300781 33.601562 C 40.964844 33.234375 40.765625 32.765625 40.765625 32.234375 Z M 40.765625 32.234375 "/>
</g>
</svg>
