<?xml version="1.0" encoding="UTF-8"?>
<svg xmlns="http://www.w3.org/2000/svg" xmlns:xlink="http://www.w3.org/1999/xlink" width="100px" height="100px" viewBox="0 0 100 100" version="1.1">
<g id="surface1">
<path style=" stroke:none;fill-rule:nonzero;fill:rgb(0%,0%,0%);fill-opacity:1;" d="M 8.734375 70.167969 C 8.734375 69.367188 9 68.667969 9.566406 68.132812 C 10.132812 67.601562 10.832031 67.332031 11.667969 67.332031 L 73.898438 67.332031 C 74.734375 67.332031 75.398438 67.601562 75.933594 68.132812 C 76.464844 68.667969 76.734375 69.332031 76.734375 70.167969 C 76.734375 70.933594 76.464844 71.601562 75.898438 72.101562 C 75.332031 72.632812 74.667969 72.867188 73.898438 72.867188 L 11.667969 72.867188 C 10.832031 72.867188 10.132812 72.601562 9.566406 72.101562 C 9 71.566406 8.734375 70.933594 8.734375 70.167969 Z M 17.464844 59.699219 C 17.464844 58.898438 17.765625 58.234375 18.332031 57.699219 C 18.832031 57.199219 19.5 56.933594 20.300781 56.933594 L 82.535156 56.933594 C 83.300781 56.933594 83.933594 57.199219 84.464844 57.734375 C 85 58.265625 85.234375 58.898438 85.234375 59.699219 C 85.234375 60.5 84.964844 61.167969 84.464844 61.699219 C 83.933594 62.265625 83.300781 62.535156 82.535156 62.535156 L 20.300781 62.535156 C 19.5 62.535156 18.832031 62.265625 18.300781 61.699219 C 17.734375 61.132812 17.464844 60.464844 17.464844 59.699219 Z M 17.898438 51.734375 C 17.898438 52.035156 18.066406 52.167969 18.398438 52.167969 L 23.167969 52.167969 C 23.367188 52.167969 23.601562 52 23.832031 51.632812 C 24.632812 49.898438 25.800781 48.5 27.367188 47.398438 C 28.933594 46.300781 30.667969 45.667969 32.535156 45.535156 L 34.367188 45.300781 C 34.734375 45.300781 34.933594 45.101562 34.933594 44.699219 L 35.167969 43.035156 C 35.535156 39.433594 37.035156 36.433594 39.734375 34.035156 C 42.433594 31.632812 45.601562 30.433594 49.234375 30.433594 C 52.832031 30.433594 55.964844 31.632812 58.667969 34 C 61.332031 36.367188 62.867188 39.367188 63.234375 42.933594 L 63.5 44.832031 C 63.5 45.199219 63.734375 45.398438 64.167969 45.398438 L 69.464844 45.398438 C 71.601562 45.398438 73.566406 45.964844 75.332031 47.132812 C 77.101562 48.300781 78.398438 49.800781 79.265625 51.699219 C 79.5 52.066406 79.734375 52.234375 79.964844 52.234375 L 84.734375 52.234375 C 85.132812 52.234375 85.300781 52 85.199219 51.464844 C 84.234375 48.066406 82.265625 45.265625 79.398438 43.101562 C 76.5 40.933594 73.199219 39.867188 69.5 39.867188 L 68.433594 39.867188 C 67.332031 35.433594 65 31.800781 61.433594 28.964844 C 57.867188 26.132812 53.832031 24.734375 49.265625 24.734375 C 44.601562 24.734375 40.464844 26.199219 36.832031 29.132812 C 33.199219 32.066406 30.898438 35.800781 29.867188 40.332031 C 27.035156 41 24.535156 42.332031 22.398438 44.367188 C 20.265625 46.398438 18.765625 48.800781 17.933594 51.632812 L 17.933594 51.5 C 17.898438 51.5 17.898438 51.601562 17.898438 51.734375 Z M 23.265625 80.367188 C 23.265625 79.566406 23.566406 78.933594 24.132812 78.398438 C 24.632812 77.898438 25.300781 77.632812 26.132812 77.632812 L 88.398438 77.632812 C 89.199219 77.632812 89.867188 77.898438 90.398438 78.398438 C 90.964844 78.933594 91.234375 79.566406 91.234375 80.332031 C 91.234375 81.132812 90.964844 81.800781 90.398438 82.367188 C 89.832031 82.933594 89.167969 83.199219 88.398438 83.199219 L 26.132812 83.199219 C 25.367188 83.199219 24.699219 82.898438 24.132812 82.332031 C 23.566406 81.832031 23.265625 81.132812 23.265625 80.367188 Z M 23.265625 80.367188 "/>
</g>
</svg>
