<?xml version="1.0" encoding="UTF-8"?>
<svg xmlns="http://www.w3.org/2000/svg" xmlns:xlink="http://www.w3.org/1999/xlink" width="100px" height="100px" viewBox="0 0 100 100" version="1.1">
<g id="surface1">
<path style=" stroke:none;fill-rule:nonzero;fill:rgb(0%,0%,0%);fill-opacity:1;" d="M 32.234375 36.699219 C 32.234375 35.035156 32.832031 33.601562 34 32.433594 C 35.167969 31.265625 36.601562 30.667969 38.265625 30.667969 C 39.898438 30.667969 41.332031 31.265625 42.5 32.433594 C 43.667969 33.632812 44.265625 35.035156 44.265625 36.699219 C 44.265625 38.367188 43.667969 39.800781 42.5 41 C 41.332031 42.199219 39.898438 42.800781 38.265625 42.800781 C 36.632812 42.800781 35.199219 42.199219 34 41 C 32.832031 39.800781 32.234375 38.367188 32.234375 36.699219 Z M 35.167969 36.699219 C 35.167969 37.566406 35.464844 38.300781 36.066406 38.933594 C 36.699219 39.566406 37.433594 39.867188 38.300781 39.867188 C 39.167969 39.867188 39.898438 39.566406 40.535156 38.933594 C 41.167969 38.300781 41.464844 37.566406 41.464844 36.699219 C 41.464844 35.832031 41.167969 35.101562 40.535156 34.5 C 39.898438 33.898438 39.167969 33.566406 38.300781 33.566406 C 37.433594 33.566406 36.699219 33.867188 36.066406 34.464844 C 35.464844 35.066406 35.167969 35.800781 35.167969 36.699219 Z M 49.867188 59.667969 C 49.867188 60.132812 50.035156 60.566406 50.367188 60.898438 C 50.699219 61.234375 51.132812 61.398438 51.601562 61.398438 C 52.066406 61.398438 52.5 61.234375 52.832031 60.898438 C 53.167969 60.566406 53.332031 60.132812 53.332031 59.667969 L 53.332031 47.035156 L 62.867188 47.035156 C 63.332031 47.035156 63.765625 46.867188 64.101562 46.5 C 64.433594 46.132812 64.601562 45.734375 64.601562 45.234375 C 64.601562 44.734375 64.433594 44.332031 64.101562 43.964844 C 63.765625 43.632812 63.332031 43.464844 62.832031 43.464844 L 53.300781 43.464844 L 53.300781 34.367188 L 66.035156 34.367188 C 66.5 34.367188 66.898438 34.199219 67.234375 33.867188 C 67.566406 33.535156 67.699219 33.101562 67.699219 32.601562 C 67.699219 32.101562 67.535156 31.699219 67.234375 31.332031 C 66.933594 30.964844 66.535156 30.832031 66.035156 30.832031 L 50.132812 30.832031 C 49.898438 30.832031 49.800781 30.964844 49.800781 31.199219 L 49.800781 59.667969 Z M 49.867188 59.667969 "/>
</g>
</svg>
