<?xml version="1.0" encoding="UTF-8"?>
<svg xmlns="http://www.w3.org/2000/svg" xmlns:xlink="http://www.w3.org/1999/xlink" width="100px" height="100px" viewBox="0 0 100 100" version="1.1">
<g id="surface1">
<path style=" stroke:none;fill-rule:nonzero;fill:rgb(0%,0%,0%);fill-opacity:1;" d="M 24.601562 72.765625 C 24.601562 71.765625 24.933594 70.933594 25.566406 70.234375 C 26.199219 69.535156 27 69.199219 27.898438 69.199219 L 27.898438 69.132812 L 71.765625 69.265625 C 71.964844 69.234375 72.101562 69.199219 72.101562 69.199219 C 73 69.234375 73.800781 69.601562 74.433594 70.300781 C 75.066406 71 75.398438 71.867188 75.367188 72.867188 C 75.367188 73.867188 75.035156 74.699219 74.398438 75.398438 C 73.765625 76.101562 72.964844 76.433594 72.066406 76.433594 L 72.066406 76.464844 L 28.632812 76.332031 C 28.300781 76.367188 28.066406 76.398438 27.898438 76.398438 C 26.964844 76.367188 26.199219 76.035156 25.566406 75.332031 C 24.898438 74.632812 24.566406 73.765625 24.601562 72.765625 Z M 27.332031 54.566406 C 27.300781 53.132812 27.464844 51.464844 27.867188 49.5 C 28.066406 48.5 28.535156 46.964844 29.332031 44.933594 C 29.398438 44.765625 29.566406 44.464844 29.765625 44 C 29.800781 44.066406 29.867188 44.101562 29.898438 44.167969 C 29.933594 44.234375 29.964844 44.234375 29.964844 44.265625 C 30.332031 45.734375 30.867188 47.066406 31.601562 48.265625 C 32.300781 49.332031 33.199219 50.132812 34.332031 50.566406 C 35.199219 50.933594 36.433594 51.132812 38 51.167969 C 38.066406 51.167969 38.167969 51.167969 38.265625 51.167969 C 38.367188 51.167969 38.464844 51.167969 38.535156 51.167969 C 37.433594 50.066406 36.566406 48.933594 35.898438 47.832031 C 34.898438 46.101562 34.265625 44.101562 34 41.800781 C 33.800781 40 33.898438 37.832031 34.300781 35.265625 C 34.367188 34.765625 34.699219 33.632812 35.265625 31.898438 C 35.765625 30.332031 36.464844 28.898438 37.398438 27.632812 C 38.464844 26 40 24.332031 42.035156 22.601562 C 43.265625 21.566406 45 20.367188 47.234375 19.035156 C 47.464844 18.898438 47.832031 18.667969 48.398438 18.398438 C 48.398438 18.464844 48.398438 18.535156 48.398438 18.566406 C 48.398438 18.601562 48.398438 18.667969 48.398438 18.699219 L 48.398438 18.765625 C 47.601562 20.667969 47.035156 22.601562 46.765625 24.535156 C 46.566406 26.300781 46.832031 27.933594 47.566406 29.464844 C 48.132812 30.667969 49.167969 31.964844 50.632812 33.300781 C 50.933594 33.601562 51.601562 34.265625 52.632812 35.234375 C 53.632812 36.199219 54.433594 36.964844 54.964844 37.5 L 55.800781 38.332031 C 56.667969 37.066406 57.167969 35.566406 57.265625 33.832031 C 57.398438 32 57.265625 30 56.800781 27.832031 C 56.800781 27.800781 56.800781 27.699219 56.832031 27.464844 C 56.898438 27.535156 57.265625 27.800781 57.832031 28.265625 C 59.699219 29.933594 61.101562 31.433594 62.101562 32.734375 C 63.699219 34.800781 64.867188 36.765625 65.632812 38.535156 C 66.265625 40.066406 66.667969 41.601562 66.898438 43.199219 C 67.101562 44.601562 67.167969 45.765625 67.132812 46.699219 C 67.101562 49.300781 66.800781 51.464844 66.300781 53.234375 C 66.066406 53.933594 65.867188 54.5 65.667969 54.964844 C 66.5 54.734375 67.234375 54.433594 67.832031 54.101562 C 68.667969 53.566406 69.332031 52.867188 69.832031 51.898438 C 70.367188 50.933594 70.800781 49.832031 71.101562 48.632812 C 71.101562 48.601562 71.132812 48.535156 71.199219 48.464844 C 71.234375 48.535156 71.265625 48.632812 71.367188 48.765625 C 71.433594 48.898438 71.5 49 71.535156 49.101562 C 71.964844 50.132812 72.265625 51.199219 72.433594 52.332031 C 72.699219 53.601562 72.765625 54.832031 72.699219 56.101562 C 72.632812 57.066406 72.464844 57.964844 72.167969 58.800781 C 71.898438 59.601562 71.632812 60.234375 71.433594 60.734375 C 70.800781 62 70.132812 63.101562 69.367188 64 C 69.167969 64.234375 69 64.433594 68.898438 64.535156 L 32.234375 64.535156 C 32.199219 64.5 32.132812 64.433594 32 64.332031 C 31.867188 64.234375 31.800781 64.167969 31.734375 64.101562 C 30.867188 63.265625 29.933594 62 29 60.332031 C 28.734375 59.832031 28.398438 59.066406 28.035156 58.035156 C 27.632812 57 27.398438 55.832031 27.332031 54.566406 Z M 27.332031 54.566406 "/>
</g>
</svg>
