<?xml version="1.0" encoding="UTF-8" standalone="no"?>
<svg
   xmlns:dc="http://purl.org/dc/elements/1.1/"
   xmlns:cc="http://creativecommons.org/ns#"
   xmlns:rdf="http://www.w3.org/1999/02/22-rdf-syntax-ns#"
   xmlns:svg="http://www.w3.org/2000/svg"
   xmlns="http://www.w3.org/2000/svg"
   xmlns:sodipodi="http://sodipodi.sourceforge.net/DTD/sodipodi-0.dtd"
   xmlns:inkscape="http://www.inkscape.org/namespaces/inkscape"
   width="100px"
   height="100px"
   viewBox="0 0 100 100"
   version="1.1"
   id="svg5"
   sodipodi:docname="wi-flood.svg"
   inkscape:version="1.0.2 (e86c870879, 2021-01-15)">
  <metadata
     id="metadata11">
    <rdf:RDF>
      <cc:Work
         rdf:about="">
        <dc:format>image/svg+xml</dc:format>
        <dc:type
           rdf:resource="http://purl.org/dc/dcmitype/StillImage" />
      </cc:Work>
    </rdf:RDF>
  </metadata>
  <defs
     id="defs9" />
  <sodipodi:namedview
     pagecolor="#ffffff"
     bordercolor="#666666"
     borderopacity="1"
     objecttolerance="10"
     gridtolerance="10"
     guidetolerance="10"
     inkscape:pageopacity="0"
     inkscape:pageshadow="2"
     inkscape:window-width="1920"
     inkscape:window-height="1016"
     id="namedview7"
     showgrid="false"
     inkscape:zoom="7.94"
     inkscape:cx="50"
     inkscape:cy="50"
     inkscape:window-x="0"
     inkscape:window-y="0"
     inkscape:window-maximized="1"
     inkscape:current-layer="surface1" />
  <g
     id="surface1">
    <path
       style=" stroke:none;fill-rule:nonzero;fill:rgb(0%,0%,0%);fill-opacity:1;"
       d="M 40.765625,32.234375"
       id="path17" />
    <path
       style=" stroke:none;fill-rule:nonzero;fill:rgb(0%,0%,0%);fill-opacity:1;"
       d="m 40.765625,32.234375 c 0,-0.535156 0.199219,-1 0.566406,-1.402344 l 7.367188,-7.398437 0.101562,-0.06641 c 0.03125,0 0.03125,0 0.03125,-0.03516 0.03516,0 0.03516,0 0.03516,-0.03125 0.03125,0 0.03125,0 0.03125,-0.03516 h 0.03516 c 0.03125,0 0.03125,0 0.03125,-0.03125 0,-0.03516 0,-0.03516 0.03516,-0.06641 h 0.06641 l 0.03516,-0.03516 h 0.03125 l 0.03516,-0.03125 h 0.03125 l 0.03516,-0.03516 h 0.03125 c 0.03516,-0.03125 0.03516,-0.03125 0.06641,-0.03125 h 0.03516 C 49.367188,23 49.398438,23 49.433594,23 c 0.03125,-0.03516 0.03125,-0.03516 0.06641,-0.03516 l 0.132812,-0.06641 h 0.03516 c 0.03125,0 0.03125,0 0.03125,-0.03125 h 0.234375 l 0.03125,-0.03516 h 0.402344 c 0.03125,0 0.03125,0 0.06641,0.03516 h 0.199218 c 0,0.03125 0,0.03125 0.03516,0.03125 h 0.06641 c 0.03125,0.03516 0.06641,0.06641 0.09766,0.06641 L 50.898438,23 h 0.06641 L 51,23.035156 h 0.03516 l 0.03125,0.03125 c 0.03516,0 0.03516,0 0.03516,0.03516 h 0.06641 c 0.03125,0 0.03125,0 0.03125,0 0,0 0,0 0.03516,0 0.03125,0.03125 0.03125,0.03125 0.06641,0.03125 0,0.03516 0,0.06641 0.03125,0.06641 l 0.03516,0.03516 h 0.06641 l 0.03125,0.03125 -0.09766,0.06641 0.03125,0.03516 0.06641,0.06641 7.402344,7.398437 c 0.398437,0.402344 0.597656,0.867188 0.597656,1.402344 0,0.53125 -0.199219,1 -0.597656,1.367187 C 58.5,34 58.035156,34.199219 57.5,34.199219 c -0.535156,0 -1,-0.199219 -1.367188,-0.597657 l -4.097656,-4.066406 v 23 c 0,0.53125 -0.203125,0.964844 -0.570312,1.332032 -0.363282,0.367187 -0.832032,0.566406 -1.363282,0.566406 -0.535156,0 -1,-0.199219 -1.402343,-0.566406 C 48.300781,53.5 48.132812,53.035156 48.132812,52.535156 v -23 l -4.066406,4.066406 C 43.667969,34 43.199219,34.199219 42.667969,34.199219 c -0.535157,0 -1,-0.199219 -1.367188,-0.597657 -0.335937,-0.367187 -0.535156,-0.835937 -0.535156,-1.367187 z"
       id="path15" />
    <path
       style="stroke:none;fill-rule:nonzero;fill:#0000ff;fill-opacity:1"
       d="m 22.398438,69.199219 c 0,-0.164063 0.03516,-0.398438 0.06641,-0.699219 V 52.632812 c 0.933594,1.632813 2.203125,2.96875 3.835937,3.96875 1.632813,1 3.433594,1.5 5.367188,1.5 1.964843,0 3.765625,-0.5 5.398437,-1.5 1.632813,-1 2.898438,-2.300781 3.832032,-3.96875 0.902343,1.632813 2.203124,2.96875 3.835937,3.96875 1.632813,1 3.433594,1.5 5.398437,1.5 1.933594,0 3.734376,-0.5 5.367188,-1.5 1.632812,-1 2.898438,-2.300781 3.832031,-3.96875 0.933594,1.632813 2.234375,2.96875 3.835938,3.96875 1.632812,1 3.398437,1.5 5.332031,1.5 1.933594,0 3.734375,-0.5 5.367188,-1.5 1.632812,-1 2.933593,-2.300781 3.832031,-3.96875 v 16.035157 c 0,0.06641 0,0.164062 0,0.265625 0,0.101562 0,0.199218 0,0.265625 0,0.03516 0,0.132812 0,0.234375 0,0.101562 0,0.199218 0,0.265625 -0.09766,0.765625 -0.433594,1.433593 -1,2 -0.566407,0.566406 -1.234375,0.902343 -2,1 -0.06641,0 -0.164063,0 -0.265625,0.03516 -0.101563,0.03125 -0.199219,0.03125 -0.265625,0.03125 -0.03516,0 -0.132813,0 -0.234375,-0.03125 -0.101563,-0.03516 -0.199219,-0.03516 -0.265625,-0.03516 H 26.464844 c -0.06641,0 -0.132813,0 -0.265625,0.03516 -0.09766,0.03125 -0.199219,0.03125 -0.234375,0.03125 -0.06641,0 -0.164063,0 -0.265625,-0.03125 C 25.601562,72.699219 25.5,72.699219 25.464844,72.699219 24.734375,72.601562 24.066406,72.300781 23.535156,71.765625 23,71.234375 22.632812,70.632812 22.464844,69.898438 c -0.03125,-0.296876 -0.06641,-0.53125 -0.06641,-0.699219 z"
       id="path2" />
  </g>
</svg>
