<?xml version="1.0" encoding="UTF-8"?>
<svg xmlns="http://www.w3.org/2000/svg" xmlns:xlink="http://www.w3.org/1999/xlink" width="100px" height="100px" viewBox="0 0 100 100" version="1.1">
<g id="surface1">
<path style=" stroke:none;fill-rule:nonzero;fill:rgb(0%,0%,0%);fill-opacity:1;" d="M 25.199219 57.300781 C 25.199219 54.367188 26 51 27.601562 47.199219 C 29.199219 43.398438 31.265625 39.699219 33.800781 36.167969 C 39 29.300781 43.535156 24.101562 47.332031 20.601562 L 49.832031 18.199219 C 50.667969 19.066406 51.601562 19.867188 52.601562 20.601562 C 53.964844 22 56.066406 24.300781 58.867188 27.566406 C 61.667969 30.832031 64.101562 33.734375 66.101562 36.398438 C 68.464844 39.765625 70.5 43.398438 72.132812 47.234375 C 73.765625 51.066406 74.601562 54.433594 74.601562 57.332031 C 74.601562 60.667969 73.964844 63.832031 72.667969 66.867188 C 71.367188 69.898438 69.632812 72.535156 67.433594 74.734375 C 65.234375 76.933594 62.601562 78.699219 59.535156 80 C 56.464844 81.300781 53.234375 81.964844 49.832031 81.964844 C 46.5 81.964844 43.332031 81.332031 40.300781 80.066406 C 37.265625 78.800781 34.632812 77.101562 32.433594 74.898438 C 30.234375 72.734375 28.464844 70.101562 27.167969 67.066406 C 25.867188 64.035156 25.199219 60.765625 25.199219 57.300781 Z M 32.734375 47.535156 C 32.734375 50.300781 33.300781 52.5 34.464844 54.167969 C 35.632812 55.800781 37.398438 56.632812 39.765625 56.632812 C 42.167969 56.632812 43.933594 55.800781 45.132812 54.167969 C 46.300781 52.535156 46.898438 50.332031 46.933594 47.535156 C 46.898438 44.734375 46.300781 42.535156 45.132812 40.867188 C 43.964844 39.234375 42.167969 38.398438 39.765625 38.398438 C 37.398438 38.398438 35.632812 39.234375 34.464844 40.867188 C 33.300781 42.535156 32.734375 44.734375 32.734375 47.535156 Z M 37.964844 47.535156 C 37.964844 47.035156 37.964844 46.632812 37.964844 46.367188 C 37.964844 46.101562 38 45.734375 38.035156 45.265625 C 38.066406 44.800781 38.101562 44.433594 38.199219 44.199219 C 38.300781 43.964844 38.367188 43.667969 38.5 43.398438 C 38.632812 43.132812 38.800781 42.898438 39 42.800781 C 39.234375 42.667969 39.464844 42.601562 39.765625 42.601562 C 40.234375 42.601562 40.601562 42.734375 40.867188 43 C 41.132812 43.265625 41.332031 43.699219 41.433594 44.265625 C 41.535156 44.867188 41.601562 45.332031 41.632812 45.765625 C 41.667969 46.199219 41.667969 46.765625 41.667969 47.5 C 41.667969 48.265625 41.667969 48.832031 41.632812 49.234375 C 41.601562 49.632812 41.535156 50.132812 41.433594 50.734375 C 41.332031 51.300781 41.132812 51.734375 40.867188 52 C 40.601562 52.265625 40.234375 52.398438 39.765625 52.398438 C 39.464844 52.398438 39.234375 52.332031 39 52.199219 C 38.765625 52.066406 38.601562 51.867188 38.5 51.601562 C 38.367188 51.332031 38.265625 51.035156 38.199219 50.800781 C 38.132812 50.535156 38.066406 50.167969 38.035156 49.734375 C 38 49.265625 37.964844 48.898438 37.964844 48.667969 C 37.964844 48.433594 37.964844 48.035156 37.964844 47.535156 Z M 39.933594 73.367188 L 44.332031 73.367188 L 60.964844 37.566406 L 56.464844 37.566406 Z M 54.265625 63.398438 C 54.300781 66.199219 54.933594 68.398438 56.101562 70.066406 C 57.265625 71.699219 59.066406 72.535156 61.433594 72.535156 C 63.832031 72.535156 65.601562 71.699219 66.765625 70.066406 C 67.933594 68.433594 68.5 66.199219 68.535156 63.398438 C 68.5 60.601562 67.933594 58.398438 66.765625 56.765625 C 65.601562 55.132812 63.832031 54.300781 61.433594 54.300781 C 59.066406 54.300781 57.265625 55.132812 56.101562 56.765625 C 54.898438 58.398438 54.300781 60.601562 54.265625 63.398438 Z M 59.5 63.398438 C 59.5 62.632812 59.5 62.066406 59.535156 61.667969 C 59.566406 61.265625 59.632812 60.765625 59.734375 60.167969 C 59.832031 59.566406 60.035156 59.167969 60.300781 58.898438 C 60.566406 58.632812 60.933594 58.5 61.398438 58.5 C 61.699219 58.5 61.964844 58.566406 62.199219 58.699219 C 62.433594 58.832031 62.601562 59.035156 62.734375 59.332031 C 62.867188 59.632812 62.964844 59.898438 63.066406 60.132812 C 63.167969 60.367188 63.199219 60.734375 63.234375 61.199219 L 63.265625 62.265625 L 63.265625 63.398438 C 63.265625 63.933594 63.265625 64.332031 63.265625 64.566406 L 63.234375 65.632812 L 63.066406 66.699219 L 62.734375 67.5 L 62.199219 68.132812 L 61.398438 68.332031 C 60.933594 68.332031 60.566406 68.199219 60.300781 67.933594 C 60.035156 67.667969 59.832031 67.234375 59.734375 66.667969 C 59.632812 66.066406 59.566406 65.566406 59.535156 65.167969 C 59.5 64.765625 59.5 64.167969 59.5 63.398438 Z M 59.5 63.398438 "/>
</g>
</svg>
