<?xml version="1.0" encoding="UTF-8"?>
<svg xmlns="http://www.w3.org/2000/svg" xmlns:xlink="http://www.w3.org/1999/xlink" width="100px" height="100px" viewBox="0 0 100 100" version="1.1">
<g id="surface1">
<path style=" stroke:none;fill-rule:nonzero;fill:rgb(0%,0%,0%);fill-opacity:1;" d="M 16.433594 69.898438 C 16.433594 69.035156 16.734375 68.332031 17.367188 67.832031 C 17.832031 67.300781 18.535156 67.066406 19.464844 67.066406 L 80.601562 67.066406 C 81.433594 67.066406 82.132812 67.332031 82.734375 67.867188 C 83.332031 68.398438 83.601562 69.101562 83.601562 69.898438 C 83.601562 70.699219 83.300781 71.398438 82.699219 71.964844 C 82.101562 72.535156 81.398438 72.867188 80.601562 72.867188 L 19.464844 72.867188 C 18.632812 72.867188 17.933594 72.566406 17.332031 71.964844 C 16.734375 71.398438 16.433594 70.699219 16.433594 69.898438 Z M 23 42.265625 C 23 41.398438 23.265625 40.699219 23.765625 40.167969 C 24.332031 39.566406 25.035156 39.300781 25.933594 39.300781 C 26.699219 39.300781 27.367188 39.601562 27.933594 40.167969 L 32.933594 45.167969 C 33.535156 45.765625 33.832031 46.464844 33.832031 47.265625 C 33.832031 48.035156 33.535156 48.734375 32.933594 49.332031 C 32.433594 49.933594 31.765625 50.234375 30.933594 50.234375 C 30.101562 50.234375 29.367188 49.933594 28.800781 49.332031 L 23.800781 44.332031 C 23.265625 43.832031 23 43.167969 23 42.265625 Z M 32.765625 60.898438 C 32.632812 61.433594 32.800781 61.667969 33.265625 61.667969 L 38.234375 61.667969 C 38.464844 61.667969 38.699219 61.464844 38.964844 61.101562 C 39.964844 58.964844 41.433594 57.300781 43.398438 56.035156 C 45.367188 54.765625 47.535156 54.167969 49.933594 54.167969 C 52.367188 54.167969 54.566406 54.800781 56.566406 56.035156 C 58.566406 57.265625 60.066406 58.964844 61.066406 61.101562 C 61.332031 61.464844 61.601562 61.667969 61.832031 61.667969 L 66.765625 61.667969 C 67.199219 61.667969 67.367188 61.398438 67.265625 60.898438 C 66.132812 57.132812 63.964844 54.066406 60.765625 51.699219 C 57.566406 49.332031 53.964844 48.167969 49.933594 48.167969 C 45.933594 48.167969 42.332031 49.332031 39.167969 51.699219 C 36.066406 54.066406 33.898438 57.132812 32.765625 60.898438 Z M 47.132812 39.367188 L 47.132812 32.265625 C 47.132812 31.433594 47.398438 30.734375 47.933594 30.132812 C 48.464844 29.535156 49.167969 29.265625 49.964844 29.265625 C 50.800781 29.265625 51.5 29.566406 52.066406 30.132812 C 52.632812 30.699219 52.898438 31.433594 52.898438 32.265625 L 52.898438 39.398438 C 52.898438 40.265625 52.632812 40.964844 52.066406 41.535156 C 51.5 42.101562 50.800781 42.367188 49.964844 42.367188 C 49.167969 42.367188 48.464844 42.066406 47.933594 41.5 C 47.398438 40.933594 47.132812 40.199219 47.132812 39.367188 Z M 66.199219 47.265625 C 66.199219 46.464844 66.464844 45.765625 67.035156 45.167969 L 72.167969 40.167969 C 72.699219 39.566406 73.367188 39.300781 74.234375 39.300781 C 75.035156 39.300781 75.699219 39.566406 76.234375 40.132812 C 76.765625 40.699219 77 41.398438 77 42.265625 C 77 43.132812 76.734375 43.832031 76.234375 44.332031 L 71.300781 49.332031 C 70.734375 49.898438 70.101562 50.199219 69.433594 50.265625 C 68.667969 50.332031 67.964844 50.066406 67.265625 49.464844 C 66.566406 48.867188 66.199219 48.101562 66.199219 47.265625 Z M 66.199219 47.265625 "/>
</g>
</svg>
