<?xml version="1.0" encoding="UTF-8"?>
<svg xmlns="http://www.w3.org/2000/svg" xmlns:xlink="http://www.w3.org/1999/xlink" width="100px" height="100px" viewBox="0 0 100 100" version="1.1">
<g id="surface1">
<path style=" stroke:none;fill-rule:nonzero;fill:rgb(0%,0%,0%);fill-opacity:1;" d="M 13.800781 49.199219 C 13.800781 48.398438 14.101562 47.734375 14.699219 47.167969 C 15.265625 46.601562 15.964844 46.332031 16.765625 46.332031 L 23.632812 46.332031 C 24.433594 46.332031 25.101562 46.601562 25.632812 47.167969 C 26.199219 47.734375 26.464844 48.398438 26.464844 49.199219 C 26.464844 50.035156 26.199219 50.734375 25.632812 51.300781 C 25.066406 51.867188 24.398438 52.132812 23.632812 52.132812 L 16.765625 52.132812 C 15.933594 52.132812 15.234375 51.867188 14.667969 51.300781 C 14.066406 50.734375 13.800781 50.035156 13.800781 49.199219 Z M 23.535156 25.800781 C 23.535156 25.035156 23.800781 24.332031 24.332031 23.734375 C 25 23.199219 25.699219 22.898438 26.535156 22.898438 C 27.234375 22.898438 27.898438 23.167969 28.5 23.734375 L 33.332031 28.667969 C 33.898438 29.199219 34.167969 29.867188 34.167969 30.667969 C 34.167969 31.464844 33.898438 32.132812 33.332031 32.667969 C 32.765625 33.234375 32.132812 33.5 31.332031 33.5 C 30.464844 33.5 29.800781 33.234375 29.300781 32.667969 L 24.300781 27.867188 C 23.832031 27.300781 23.535156 26.601562 23.535156 25.800781 Z M 32.234375 49.199219 C 32.234375 46.832031 32.699219 44.566406 33.667969 42.398438 C 34.601562 40.234375 35.898438 38.332031 37.464844 36.765625 C 39.066406 35.199219 40.964844 33.933594 43.132812 33 C 45.300781 32.066406 47.601562 31.566406 50 31.566406 C 53.199219 31.566406 56.132812 32.367188 58.867188 33.964844 C 61.601562 35.566406 63.765625 37.699219 65.332031 40.433594 C 66.898438 43.132812 67.699219 46.066406 67.699219 49.199219 C 67.699219 49.699219 67.667969 50.167969 67.601562 50.601562 C 66.667969 50.035156 65.601562 49.765625 64.367188 49.765625 C 63.566406 49.765625 62.765625 49.933594 61.964844 50.265625 C 62 50.035156 62 49.667969 62 49.199219 C 62 45.933594 60.832031 43.167969 58.464844 40.867188 C 56.101562 38.566406 53.265625 37.398438 49.964844 37.398438 C 46.667969 37.398438 43.867188 38.566406 41.5 40.867188 C 39.132812 43.167969 38 45.933594 38 49.199219 L 38 49.800781 C 37.035156 49.867188 36.101562 50.132812 35.199219 50.632812 C 35.167969 50.667969 35.066406 50.734375 34.867188 50.867188 C 34.667969 51 34.464844 51.167969 34.234375 51.332031 C 34 51.5 33.765625 51.699219 33.464844 51.964844 C 33.167969 52.234375 32.867188 52.5 32.601562 52.765625 C 32.332031 51.699219 32.234375 50.5 32.234375 49.199219 Z M 32.332031 61.367188 L 32.332031 60.867188 C 32.300781 60.566406 32.332031 60.199219 32.398438 59.765625 C 32.566406 58.566406 33.035156 57.433594 33.800781 56.367188 C 34.234375 55.832031 34.535156 55.464844 34.699219 55.332031 C 34.734375 55.265625 34.765625 55.199219 34.832031 55.132812 L 34.964844 55 C 35.066406 54.964844 35.199219 54.832031 35.367188 54.667969 C 35.433594 54.601562 35.535156 54.5 35.632812 54.398438 C 35.734375 54.300781 35.832031 54.265625 35.867188 54.199219 C 36.035156 54.035156 36.199219 53.933594 36.332031 53.867188 L 36.898438 53.5 C 37.367188 53.199219 37.933594 53.035156 38.566406 53.035156 L 38.667969 53.035156 C 39 53.035156 39.300781 53.066406 39.535156 53.132812 C 39.632812 53.167969 39.765625 53.234375 39.964844 53.367188 L 39.964844 53.398438 C 40.433594 53.601562 40.832031 53.933594 41.101562 54.367188 C 41.367188 54.800781 41.535156 55.265625 41.535156 55.765625 C 41.535156 56.332031 41.367188 56.800781 41.066406 57.167969 C 40.867188 57.464844 40.601562 57.734375 40.332031 57.933594 C 40.265625 57.964844 40.199219 58 40.132812 58.035156 C 40.066406 58.066406 40 58.101562 40 58.101562 L 39.800781 58.234375 C 39.667969 58.332031 39.566406 58.433594 39.464844 58.5 C 39.367188 58.566406 39.265625 58.699219 39.101562 58.867188 C 38.964844 59.035156 38.832031 59.167969 38.734375 59.332031 C 38.632812 59.464844 38.535156 59.667969 38.433594 59.832031 C 38.332031 60.035156 38.265625 60.234375 38.265625 60.398438 L 38.265625 60.898438 C 38.398438 61.398438 38.535156 61.800781 38.632812 62.101562 C 38.867188 62.566406 39.234375 63.035156 39.765625 63.566406 C 39.800781 63.632812 40.066406 63.898438 40.566406 64.398438 C 43.433594 67 44.800781 69.800781 44.601562 72.734375 C 44.535156 73.734375 44.300781 74.699219 43.898438 75.632812 C 43.5 76.566406 43.035156 77.332031 42.464844 77.964844 C 41.933594 78.601562 41.5 79.066406 41.167969 79.398438 C 40.832031 79.699219 40.566406 79.933594 40.332031 80.101562 C 40.300781 80.132812 40.234375 80.167969 40.132812 80.234375 C 40.035156 80.300781 39.933594 80.367188 39.898438 80.367188 C 39.632812 80.5 39.398438 80.566406 39.167969 80.601562 C 38.867188 80.632812 38.667969 80.667969 38.5 80.667969 C 37.5 80.667969 36.699219 80.332031 36.132812 79.667969 C 35.667969 79.101562 35.464844 78.433594 35.535156 77.699219 C 35.601562 76.964844 35.964844 76.367188 36.632812 75.933594 L 36.667969 75.832031 C 36.699219 75.800781 36.765625 75.734375 36.832031 75.699219 C 36.898438 75.632812 36.964844 75.566406 37.066406 75.5 C 37.167969 75.433594 37.265625 75.332031 37.332031 75.234375 C 37.433594 75.132812 37.535156 75 37.601562 74.898438 C 37.699219 74.765625 37.800781 74.632812 37.867188 74.5 C 37.964844 74.367188 38.066406 74.199219 38.132812 74.035156 C 38.234375 73.867188 38.300781 73.699219 38.367188 73.535156 C 38.433594 73.367188 38.464844 73.199219 38.535156 73 C 38.566406 72.800781 38.601562 72.601562 38.601562 72.433594 C 38.667969 71.765625 38.5 71.101562 38.101562 70.433594 C 37.933594 70.066406 37.699219 69.699219 37.367188 69.332031 C 37.132812 69.066406 36.964844 68.898438 36.867188 68.800781 C 36.566406 68.433594 36.398438 68.234375 36.367188 68.199219 C 36.300781 68.167969 36.234375 68.101562 36.132812 68 C 36.035156 67.898438 35.964844 67.867188 35.933594 67.832031 C 35.433594 67.367188 35.066406 66.964844 34.800781 66.632812 C 34.398438 66.101562 34.101562 65.765625 34 65.566406 C 33.367188 64.699219 32.933594 63.832031 32.699219 62.964844 C 32.566406 62.5 32.464844 62.132812 32.433594 61.898438 C 32.433594 61.832031 32.398438 61.734375 32.367188 61.632812 C 32.332031 61.535156 32.332031 61.464844 32.332031 61.367188 Z M 45.265625 60.265625 C 45.265625 60.066406 45.265625 59.933594 45.300781 59.800781 C 45.367188 59.066406 45.601562 58.367188 45.964844 57.667969 C 46.332031 56.964844 46.699219 56.367188 47.132812 55.898438 C 47.566406 55.433594 47.964844 55 48.398438 54.632812 C 48.832031 54.265625 49.167969 54 49.433594 53.800781 L 49.832031 53.566406 C 50.332031 53.265625 50.898438 53.101562 51.5 53.101562 C 51.867188 53.101562 52.199219 53.132812 52.5 53.199219 C 52.535156 53.199219 52.566406 53.234375 52.667969 53.265625 C 52.765625 53.332031 52.832031 53.367188 52.867188 53.398438 C 52.898438 53.398438 52.933594 53.398438 52.964844 53.433594 C 53 53.433594 53.066406 53.5 53.199219 53.601562 C 53.867188 54 54.265625 54.601562 54.464844 55.398438 C 54.464844 55.464844 54.464844 55.535156 54.464844 55.632812 C 54.464844 55.699219 54.464844 55.765625 54.464844 55.800781 C 54.464844 55.898438 54.433594 56.035156 54.398438 56.199219 C 54.367188 56.367188 54.332031 56.464844 54.332031 56.5 C 54.101562 57.265625 53.632812 57.800781 52.933594 58.167969 C 51.832031 58.898438 51.234375 59.667969 51.167969 60.464844 C 51.132812 60.734375 51.132812 60.964844 51.167969 61.199219 C 51.234375 61.601562 51.433594 62.035156 51.734375 62.5 C 52.101562 63.035156 52.367188 63.398438 52.535156 63.566406 C 53.066406 64.101562 53.367188 64.398438 53.464844 64.464844 C 53.867188 64.832031 54.398438 65.398438 55.035156 66.167969 C 56.832031 68.332031 57.667969 70.566406 57.5 72.832031 C 57.433594 73.832031 57.199219 74.800781 56.800781 75.734375 C 56.398438 76.667969 55.933594 77.433594 55.367188 78.066406 C 54.832031 78.667969 54.367188 79.167969 54.035156 79.5 C 53.667969 79.832031 53.398438 80.066406 53.199219 80.199219 L 52.800781 80.464844 C 52.433594 80.601562 52.234375 80.667969 52.101562 80.699219 C 51.734375 80.734375 51.5 80.765625 51.433594 80.765625 L 51.332031 80.765625 C 51.066406 80.765625 50.867188 80.734375 50.699219 80.699219 C 50.632812 80.699219 50.535156 80.699219 50.433594 80.667969 C 50.332031 80.632812 50.234375 80.632812 50.199219 80.632812 C 50.167969 80.632812 50.132812 80.632812 50.101562 80.601562 C 50.066406 80.566406 50.035156 80.566406 49.964844 80.535156 C 49.933594 80.5 49.898438 80.5 49.867188 80.5 C 49.367188 80.132812 49.066406 79.933594 49 79.800781 C 48.464844 79.199219 48.265625 78.535156 48.367188 77.800781 C 48.464844 77.066406 48.832031 76.5 49.5 76.035156 L 49.601562 75.898438 C 49.667969 75.832031 49.765625 75.734375 49.898438 75.632812 L 50.300781 75.234375 L 50.734375 74.699219 L 51.132812 74.066406 L 51.433594 73.332031 L 51.566406 72.535156 C 51.601562 71.199219 50.832031 69.800781 49.265625 68.300781 C 48.632812 67.734375 48.167969 67.265625 47.800781 66.867188 C 45.964844 64.566406 45.132812 62.398438 45.265625 60.265625 Z M 47.066406 23.066406 L 47.066406 16.167969 C 47.066406 15.367188 47.367188 14.667969 47.933594 14.101562 C 48.5 13.535156 49.199219 13.265625 49.964844 13.265625 C 50.765625 13.265625 51.464844 13.535156 52.035156 14.101562 C 52.601562 14.667969 52.867188 15.367188 52.867188 16.167969 L 52.867188 23.066406 C 52.867188 23.867188 52.601562 24.5 52.035156 25.035156 C 51.464844 25.566406 50.800781 25.800781 50 25.800781 C 49.199219 25.800781 48.535156 25.535156 47.964844 25.035156 C 47.367188 24.5 47.066406 23.867188 47.066406 23.066406 Z M 58.265625 59.765625 C 58.332031 59.035156 58.566406 58.332031 58.933594 57.632812 C 59.300781 56.933594 59.667969 56.332031 60.101562 55.867188 C 60.535156 55.398438 60.933594 54.964844 61.367188 54.601562 C 61.765625 54.234375 62.101562 53.964844 62.367188 53.765625 L 62.800781 53.535156 C 62.867188 53.464844 63 53.398438 63.132812 53.265625 C 63.5 53.132812 63.933594 53.035156 64.398438 53.035156 C 65.535156 53.035156 66.367188 53.464844 66.964844 54.300781 C 67.132812 54.535156 67.234375 54.765625 67.300781 55.066406 C 67.332031 55.132812 67.367188 55.234375 67.367188 55.332031 L 67.367188 55.699219 C 67.367188 56.734375 66.867188 57.535156 65.867188 58.035156 C 64.800781 58.734375 64.234375 59.5 64.132812 60.332031 C 64 61.464844 64.765625 62.800781 66.398438 64.332031 C 69.332031 66.898438 70.667969 69.699219 70.5 72.667969 C 70.433594 73.667969 70.199219 74.632812 69.800781 75.566406 C 69.398438 76.5 68.898438 77.265625 68.367188 77.898438 C 67.800781 78.535156 67.367188 79 67.066406 79.332031 C 66.765625 79.667969 66.464844 79.867188 66.234375 80.035156 C 65.699219 80.367188 65.234375 80.535156 64.867188 80.566406 C 64.765625 80.601562 64.601562 80.601562 64.367188 80.601562 C 63.367188 80.601562 62.601562 80.265625 62.066406 79.601562 C 61.566406 79.035156 61.367188 78.367188 61.433594 77.632812 C 61.5 76.898438 61.867188 76.300781 62.5 75.867188 C 62.601562 75.832031 62.800781 75.667969 63.101562 75.398438 C 63.398438 75.132812 63.699219 74.699219 64.066406 74.132812 C 64.398438 73.535156 64.601562 72.964844 64.632812 72.367188 C 64.699219 71.035156 63.898438 69.632812 62.300781 68.132812 C 60.933594 66.933594 59.867188 65.632812 59.167969 64.265625 C 58.367188 62.867188 58.066406 61.332031 58.265625 59.765625 Z M 65.898438 30.699219 C 65.898438 29.867188 66.167969 29.199219 66.667969 28.699219 L 71.535156 23.765625 C 72.132812 23.199219 72.800781 22.933594 73.566406 22.933594 C 74.367188 22.933594 75.035156 23.234375 75.601562 23.800781 C 76.167969 24.367188 76.464844 25.066406 76.464844 25.832031 C 76.464844 26.667969 76.167969 27.367188 75.601562 27.898438 L 70.667969 32.699219 C 70.066406 33.265625 69.398438 33.535156 68.632812 33.535156 C 67.867188 33.535156 67.199219 33.265625 66.699219 32.699219 C 66.167969 32.167969 65.898438 31.464844 65.898438 30.699219 Z M 73.566406 49.199219 C 73.566406 48.464844 73.867188 47.800781 74.433594 47.167969 C 74.964844 46.601562 75.601562 46.332031 76.367188 46.332031 L 83.234375 46.332031 C 84.035156 46.332031 84.734375 46.632812 85.300781 47.199219 C 85.867188 47.765625 86.199219 48.433594 86.199219 49.199219 C 86.199219 50 85.898438 50.699219 85.332031 51.265625 C 84.734375 51.832031 84.066406 52.132812 83.234375 52.132812 L 76.367188 52.132812 C 75.566406 52.132812 74.867188 51.867188 74.367188 51.300781 C 73.832031 50.734375 73.566406 50.035156 73.566406 49.199219 Z M 73.566406 49.199219 "/>
</g>
</svg>
