<?xml version="1.0" encoding="UTF-8"?>
<svg xmlns="http://www.w3.org/2000/svg" xmlns:xlink="http://www.w3.org/1999/xlink" width="100px" height="100px" viewBox="0 0 100 100" version="1.1">
<g id="surface1">
<path style=" stroke:none;fill-rule:nonzero;fill:rgb(0%,0%,0%);fill-opacity:1;" d="M 15.464844 56.332031 C 15.464844 60.765625 17 64.566406 20.101562 67.765625 C 23.199219 70.964844 26.964844 72.667969 31.433594 72.867188 C 31.800781 72.867188 32 72.667969 32 72.300781 L 32 67.832031 C 32 67.464844 31.800781 67.265625 31.433594 67.265625 C 28.566406 67.132812 26.167969 66 24.167969 63.867188 C 22.167969 61.734375 21.167969 59.234375 21.167969 56.332031 C 21.167969 53.566406 22.101562 51.199219 23.964844 49.132812 C 25.832031 47.101562 28.167969 45.898438 30.933594 45.566406 L 32.699219 45.464844 C 33.132812 45.464844 33.367188 45.265625 33.367188 44.832031 L 33.566406 43.066406 C 33.933594 39.464844 35.433594 36.433594 38.132812 34.035156 C 40.832031 31.601562 44 30.398438 47.632812 30.398438 C 51.265625 30.398438 54.433594 31.601562 57.132812 34.035156 C 59.832031 36.464844 61.367188 39.464844 61.765625 43.066406 L 62.035156 45 C 62.035156 45.367188 62.234375 45.566406 62.632812 45.566406 L 68 45.566406 C 70.964844 45.566406 73.535156 46.632812 75.699219 48.765625 C 77.867188 50.898438 78.964844 53.398438 78.964844 56.332031 C 78.964844 59.234375 77.964844 61.734375 75.964844 63.867188 C 73.964844 66 71.535156 67.132812 68.699219 67.265625 C 68.265625 67.265625 68.035156 67.464844 68.035156 67.832031 L 68.035156 72.300781 C 68.035156 72.667969 68.265625 72.867188 68.699219 72.867188 C 71.601562 72.800781 74.265625 72 76.699219 70.5 C 79.132812 69 81.066406 67 82.464844 64.5 C 83.867188 62 84.566406 59.265625 84.566406 56.367188 C 84.566406 53.398438 83.832031 50.632812 82.332031 48.132812 C 80.867188 45.632812 78.832031 43.632812 76.300781 42.199219 C 73.765625 40.765625 70.964844 40 68 40 L 66.933594 40 C 65.867188 35.535156 63.5 31.898438 59.933594 29.066406 C 56.367188 26.234375 52.265625 24.800781 47.667969 24.800781 C 42.964844 24.800781 38.800781 26.265625 35.167969 29.167969 C 31.535156 32.066406 29.199219 35.800781 28.167969 40.332031 C 24.464844 41.199219 21.433594 43.101562 19.066406 46.101562 C 16.699219 49.101562 15.464844 52.5 15.464844 56.332031 Z M 33.632812 80.332031 C 33.933594 81.035156 34.464844 81.566406 35.167969 81.867188 C 35.832031 82.199219 36.535156 82.234375 37.234375 81.933594 C 37.964844 81.632812 38.433594 81.132812 38.734375 80.433594 C 39.066406 79.699219 39.101562 79 38.800781 78.300781 C 38.535156 77.601562 38 77.132812 37.300781 76.832031 C 36.632812 76.464844 35.964844 76.433594 35.265625 76.734375 C 34.566406 77.035156 34.066406 77.535156 33.734375 78.300781 C 33.367188 78.867188 33.367188 79.535156 33.632812 80.332031 Z M 35.734375 70.933594 C 35.734375 71.464844 35.898438 71.964844 36.234375 72.433594 C 36.566406 72.933594 37.101562 73.265625 37.765625 73.5 C 38.398438 73.867188 39.101562 73.898438 39.832031 73.535156 C 40.566406 73.199219 41.066406 72.535156 41.300781 71.535156 L 44.300781 60.265625 C 44.5 59.433594 44.433594 58.699219 44.035156 58.035156 C 43.632812 57.367188 43.066406 56.964844 42.265625 56.832031 C 42 56.765625 41.734375 56.734375 41.464844 56.734375 C 40.933594 56.734375 40.398438 56.898438 39.898438 57.234375 C 39.398438 57.566406 39.035156 58.066406 38.832031 58.699219 L 35.898438 70 C 35.765625 70.535156 35.734375 70.832031 35.734375 70.933594 Z M 41.933594 89.566406 C 41.933594 89.964844 42 90.300781 42.132812 90.535156 C 42.433594 91.265625 42.933594 91.765625 43.632812 92.035156 C 43.933594 92.199219 44.300781 92.300781 44.734375 92.300781 C 44.933594 92.300781 45.265625 92.234375 45.734375 92.101562 C 46.464844 91.832031 47 91.332031 47.300781 90.601562 C 47.632812 89.867188 47.632812 89.132812 47.300781 88.398438 C 46.964844 87.667969 46.464844 87.167969 45.800781 86.867188 C 45.132812 86.566406 44.464844 86.566406 43.734375 86.867188 C 43.101562 87.132812 42.667969 87.535156 42.367188 88.066406 C 42.066406 88.601562 41.933594 89.101562 41.933594 89.566406 Z M 44.367188 80.867188 C 44.367188 82.101562 45.066406 82.898438 46.464844 83.300781 C 46.832031 83.398438 47.101562 83.433594 47.265625 83.433594 C 47.765625 83.433594 48.199219 83.332031 48.535156 83.167969 C 49.234375 82.898438 49.699219 82.265625 49.933594 81.265625 L 55.5 60.300781 C 55.699219 59.5 55.632812 58.800781 55.300781 58.132812 C 54.964844 57.5 54.398438 57.066406 53.667969 56.867188 C 53.398438 56.800781 53.101562 56.765625 52.765625 56.765625 C 52.234375 56.765625 51.699219 56.933594 51.167969 57.265625 C 50.632812 57.601562 50.300781 58.101562 50.167969 58.734375 L 44.464844 79.867188 C 44.398438 80.332031 44.367188 80.667969 44.367188 80.867188 Z M 55.800781 79.332031 C 55.800781 79.734375 55.867188 80.101562 56.066406 80.398438 C 56.332031 81.035156 56.832031 81.535156 57.535156 81.867188 C 57.898438 82 58.300781 82.101562 58.699219 82.101562 C 58.898438 82.101562 59.234375 82.035156 59.699219 81.898438 C 60.398438 81.632812 60.933594 81.132812 61.234375 80.433594 C 61.464844 79.699219 61.464844 79 61.199219 78.332031 C 60.933594 77.667969 60.464844 77.167969 59.800781 76.832031 C 59.035156 76.464844 58.332031 76.433594 57.632812 76.734375 C 56.933594 77.035156 56.433594 77.535156 56.101562 78.300781 C 55.898438 78.632812 55.800781 78.964844 55.800781 79.332031 Z M 58.234375 70.765625 C 58.234375 71.234375 58.398438 71.734375 58.765625 72.265625 C 59.132812 72.800781 59.632812 73.167969 60.265625 73.367188 C 60.800781 73.464844 61.101562 73.535156 61.167969 73.535156 C 61.464844 73.535156 61.898438 73.433594 62.398438 73.199219 C 63.066406 72.898438 63.5 72.300781 63.734375 71.464844 L 66.734375 60.332031 C 66.800781 59.765625 66.832031 59.464844 66.832031 59.464844 C 66.832031 58.933594 66.667969 58.433594 66.332031 57.933594 C 66 57.433594 65.5 57.101562 64.832031 56.898438 C 64.535156 56.832031 64.234375 56.800781 63.964844 56.800781 C 63.433594 56.800781 62.898438 56.964844 62.398438 57.300781 C 61.898438 57.632812 61.566406 58.132812 61.367188 58.800781 L 58.367188 70 Z M 58.234375 70.765625 "/>
</g>
</svg>
