<?xml version="1.0" encoding="UTF-8"?>
<svg xmlns="http://www.w3.org/2000/svg" xmlns:xlink="http://www.w3.org/1999/xlink" width="100px" height="100px" viewBox="0 0 100 100" version="1.1">
<g id="surface1">
<path style=" stroke:none;fill-rule:nonzero;fill:rgb(0%,0%,0%);fill-opacity:1;" d="M 36.933594 48.433594 L 36.933594 48.367188 C 36.898438 48.101562 36.933594 47.699219 36.933594 47.132812 C 36.964844 46.601562 37.066406 45.699219 37.265625 44.433594 C 37.464844 43.167969 37.734375 41.898438 38.101562 40.601562 C 38.464844 39.300781 39.035156 37.800781 39.800781 36.101562 C 40.566406 34.398438 41.464844 32.800781 42.535156 31.300781 C 43.601562 29.800781 45 28.234375 46.734375 26.667969 C 48.464844 25.101562 50.398438 23.699219 52.5 22.535156 C 53.035156 22.234375 53.566406 22.167969 54.132812 22.332031 C 54.699219 22.5 55.132812 22.832031 55.398438 23.367188 C 55.699219 23.898438 55.765625 24.433594 55.601562 25.035156 C 55.433594 25.601562 55.101562 26.066406 54.601562 26.332031 C 50.234375 28.734375 46.867188 32.101562 44.5 36.5 C 46.300781 35.667969 48.101562 35.234375 49.933594 35.234375 C 53.5 35.234375 56.601562 36.5 59.167969 39.066406 C 61.734375 41.632812 63 44.699219 63 48.265625 C 63 48.535156 63 48.800781 63 49.066406 C 63 49.332031 62.933594 49.898438 62.867188 50.800781 C 62.800781 51.699219 62.667969 52.535156 62.5 53.367188 C 62.332031 54.199219 62.066406 55.234375 61.734375 56.464844 C 61.367188 57.699219 60.964844 58.898438 60.464844 60 C 59.964844 61.101562 59.332031 62.332031 58.535156 63.667969 C 57.734375 65 56.832031 66.234375 55.832031 67.398438 C 54.832031 68.566406 53.632812 69.734375 52.234375 70.898438 C 50.800781 72.066406 49.265625 73.132812 47.601562 74.066406 C 47.300781 74.265625 46.933594 74.332031 46.566406 74.332031 C 45.699219 74.332031 45.066406 73.933594 44.632812 73.167969 C 44.332031 72.632812 44.265625 72.101562 44.433594 71.535156 C 44.601562 70.964844 44.933594 70.535156 45.464844 70.265625 C 49.933594 67.765625 53.332031 64.332031 55.667969 60 C 53.867188 60.867188 51.964844 61.265625 49.964844 61.265625 C 47.667969 61.265625 45.5 60.699219 43.5 59.535156 C 41.5 58.398438 39.933594 56.832031 38.734375 54.832031 C 37.566406 52.898438 36.964844 50.765625 36.933594 48.433594 Z M 42.601562 48.265625 C 42.601562 50.300781 43.332031 52.035156 44.765625 53.5 C 46.199219 54.933594 47.933594 55.667969 49.964844 55.667969 C 51.867188 55.667969 53.5 55.035156 54.933594 53.765625 C 56.332031 52.5 57.132812 50.933594 57.367188 49.066406 L 57.398438 48.300781 C 57.398438 48.234375 57.398438 48.167969 57.433594 48.132812 C 57.398438 46.132812 56.667969 44.433594 55.234375 43.066406 C 53.800781 41.667969 52.035156 41 50 41 C 48.132812 41 46.535156 41.601562 45.132812 42.800781 C 43.734375 44 42.933594 45.535156 42.699219 47.332031 L 42.632812 48.167969 L 42.632812 48.265625 Z M 42.601562 48.265625 "/>
</g>
</svg>
