<?xml version="1.0" encoding="UTF-8"?>
<svg xmlns="http://www.w3.org/2000/svg" xmlns:xlink="http://www.w3.org/1999/xlink" width="100px" height="100px" viewBox="0 0 100 100" version="1.1">
<g id="surface1">
<path style=" stroke:none;fill-rule:nonzero;fill:rgb(0%,0%,0%);fill-opacity:1;" d="M 13.699219 53 C 13.699219 52.132812 14 51.433594 14.601562 50.933594 C 15.066406 50.433594 15.765625 50.167969 16.667969 50.167969 L 23.601562 50.167969 C 24.398438 50.167969 25.101562 50.433594 25.601562 50.964844 C 26.132812 51.5 26.398438 52.167969 26.398438 52.964844 C 26.398438 53.765625 26.132812 54.433594 25.601562 55 C 25.066406 55.566406 24.398438 55.832031 23.601562 55.832031 L 16.667969 55.832031 C 15.867188 55.832031 15.167969 55.566406 14.566406 55 C 13.964844 54.464844 13.699219 53.800781 13.699219 53 Z M 16.765625 69.933594 C 16.765625 69.167969 17.066406 68.5 17.632812 67.898438 C 18.167969 67.367188 18.867188 67.132812 19.667969 67.132812 L 80.367188 67.132812 C 81.167969 67.132812 81.867188 67.398438 82.433594 67.933594 C 83 68.464844 83.265625 69.132812 83.265625 69.933594 C 83.265625 70.734375 82.964844 71.398438 82.398438 71.964844 C 81.832031 72.535156 81.132812 72.832031 80.367188 72.832031 L 19.699219 72.832031 C 18.898438 72.832031 18.234375 72.535156 17.667969 71.964844 C 17.101562 71.398438 16.765625 70.734375 16.765625 69.933594 Z M 23.601562 29.367188 C 23.601562 28.5 23.867188 27.867188 24.367188 27.398438 C 24.933594 26.800781 25.632812 26.5 26.433594 26.5 C 27.234375 26.5 27.898438 26.800781 28.464844 27.398438 L 33.265625 32.265625 C 33.867188 32.800781 34.132812 33.464844 34.132812 34.265625 C 34.132812 35.101562 33.867188 35.765625 33.332031 36.300781 C 32.800781 36.832031 32.132812 37.101562 31.332031 37.101562 C 30.601562 37.101562 29.933594 36.832031 29.332031 36.300781 L 24.367188 31.398438 C 23.867188 30.933594 23.601562 30.265625 23.601562 29.367188 Z M 32.265625 53 C 32.265625 55.898438 32.867188 58.5 34.035156 60.765625 C 34.132812 61.066406 34.398438 61.234375 34.832031 61.234375 L 40.398438 61.234375 C 40.632812 61.234375 40.800781 61.167969 40.867188 61.035156 C 40.933594 60.898438 40.832031 60.699219 40.632812 60.5 C 38.867188 58.332031 37.964844 55.832031 37.964844 53 C 37.964844 49.699219 39.167969 46.867188 41.535156 44.535156 C 43.898438 42.199219 46.734375 41.035156 50.035156 41.035156 C 53.332031 41.035156 56.167969 42.199219 58.535156 44.535156 C 60.898438 46.867188 62.035156 49.699219 62.035156 53 C 62.035156 55.867188 61.132812 58.367188 59.367188 60.5 C 59.234375 60.699219 59.167969 60.832031 59.167969 60.898438 C 59.132812 61 59.167969 61.101562 59.265625 61.132812 C 59.332031 61.199219 59.464844 61.234375 59.601562 61.234375 L 65.265625 61.234375 C 65.566406 61.234375 65.800781 61.066406 65.964844 60.765625 C 67.234375 58.398438 67.832031 55.832031 67.832031 53 C 67.832031 49.800781 67.035156 46.832031 65.433594 44.101562 C 63.832031 41.367188 61.667969 39.199219 58.933594 37.601562 C 56.199219 36 53.234375 35.199219 50.035156 35.199219 C 46.832031 35.199219 43.867188 36 41.132812 37.601562 C 38.398438 39.199219 36.234375 41.367188 34.632812 44.101562 C 33.035156 46.832031 32.265625 49.800781 32.265625 53 Z M 47.167969 26.566406 L 47.167969 19.601562 C 47.167969 18.800781 47.433594 18.132812 48 17.535156 C 48.566406 16.933594 49.234375 16.667969 50.035156 16.667969 C 50.832031 16.667969 51.5 16.964844 52.101562 17.535156 C 52.667969 18.101562 52.964844 18.800781 52.964844 19.601562 L 52.964844 26.566406 C 52.964844 27.367188 52.667969 28.035156 52.101562 28.632812 C 51.5 29.234375 50.832031 29.5 50.035156 29.5 C 49.234375 29.5 48.566406 29.199219 48 28.632812 C 47.433594 28.035156 47.167969 27.367188 47.167969 26.566406 Z M 65.898438 34.265625 C 65.898438 33.464844 66.167969 32.800781 66.699219 32.265625 L 71.5 27.398438 C 72.066406 26.800781 72.765625 26.5 73.566406 26.5 C 74.398438 26.5 75.101562 26.765625 75.632812 27.332031 C 76.199219 27.898438 76.464844 28.566406 76.464844 29.367188 C 76.464844 30.234375 76.199219 30.898438 75.699219 31.398438 L 70.667969 36.300781 C 70.132812 36.800781 69.464844 37.035156 68.699219 37.035156 C 67.867188 37.066406 67.199219 36.800781 66.667969 36.300781 C 66.167969 35.800781 65.898438 35.101562 65.898438 34.265625 Z M 73.667969 53 C 73.667969 52.101562 73.933594 51.433594 74.464844 50.933594 C 74.933594 50.433594 75.601562 50.167969 76.433594 50.167969 L 83.398438 50.167969 C 84.199219 50.167969 84.898438 50.433594 85.464844 50.964844 C 86.035156 51.5 86.332031 52.167969 86.332031 52.964844 C 86.332031 53.765625 86.035156 54.433594 85.464844 55 C 84.867188 55.566406 84.199219 55.832031 83.398438 55.832031 L 76.433594 55.832031 C 75.667969 55.832031 75 55.566406 74.464844 55 C 73.933594 54.464844 73.667969 53.800781 73.667969 53 Z M 73.667969 53 "/>
</g>
</svg>
