<?xml version="1.0" encoding="UTF-8"?>
<svg xmlns="http://www.w3.org/2000/svg" xmlns:xlink="http://www.w3.org/1999/xlink" width="100px" height="100px" viewBox="0 0 100 100" version="1.1">
<g id="surface1">
<path style=" stroke:none;fill-rule:nonzero;fill:rgb(0%,0%,0%);fill-opacity:1;" d="M 26.535156 81.699219 L 27.832031 81.699219 L 50.765625 47.765625 C 51.066406 47.167969 50.898438 46.867188 50.265625 46.867188 L 40.800781 46.867188 L 50.765625 28.699219 C 51.066406 28.101562 50.832031 27.800781 50.101562 27.800781 L 37.398438 27.800781 C 37.035156 27.800781 36.734375 28 36.433594 28.398438 L 27.167969 53.066406 C 27.101562 53.667969 27.300781 53.964844 27.800781 53.964844 L 36.964844 53.964844 Z M 54.867188 60.601562 L 55.765625 60.601562 L 73.167969 35.035156 C 73.332031 34.765625 73.367188 34.535156 73.300781 34.367188 C 73.234375 34.199219 73.035156 34.132812 72.734375 34.132812 L 65.734375 34.132812 L 73 20.699219 C 73.398438 20.035156 73.199219 19.699219 72.398438 19.699219 L 63.265625 19.699219 C 62.832031 19.699219 62.5 19.898438 62.265625 20.332031 L 55.332031 38.601562 C 55.234375 38.898438 55.234375 39.132812 55.367188 39.300781 C 55.5 39.464844 55.699219 39.535156 56 39.535156 L 62.800781 39.535156 Z M 54.867188 60.601562 "/>
</g>
</svg>
