<?xml version="1.0" encoding="UTF-8"?>
<svg xmlns="http://www.w3.org/2000/svg" xmlns:xlink="http://www.w3.org/1999/xlink" width="100px" height="100px" viewBox="0 0 100 100" version="1.1">
<g id="surface1">
<path style=" stroke:none;fill-rule:nonzero;fill:rgb(0%,0%,0%);fill-opacity:1;" d="M 32.667969 48.734375 C 32.667969 45.632812 33.433594 42.734375 35 40.066406 C 36.566406 37.398438 38.667969 35.265625 41.332031 33.699219 C 44 32.132812 46.898438 31.367188 50 31.367188 C 53.132812 31.367188 56.035156 32.132812 58.699219 33.699219 C 61.367188 35.265625 63.464844 37.367188 65.035156 40.035156 C 66.601562 42.699219 67.367188 45.601562 67.367188 48.734375 C 67.367188 51.867188 66.601562 54.765625 65.035156 57.433594 C 63.464844 60.101562 61.367188 62.199219 58.699219 63.765625 C 56.035156 65.332031 53.132812 66.101562 50 66.101562 C 46.867188 66.101562 44 65.332031 41.332031 63.765625 C 38.667969 62.199219 36.566406 60.101562 35 57.433594 C 33.433594 54.765625 32.667969 51.867188 32.667969 48.734375 Z M 47.5 37.398438 C 50.398438 37.765625 52.832031 39.035156 54.800781 41.234375 C 56.765625 43.433594 57.765625 46.035156 57.765625 49 C 57.765625 51.765625 56.898438 54.199219 55.167969 56.332031 C 53.433594 58.464844 51.234375 59.800781 48.566406 60.367188 C 49.234375 60.433594 49.699219 60.5 50 60.5 C 53.265625 60.5 56.035156 59.332031 58.332031 57.035156 C 60.632812 54.734375 61.800781 51.964844 61.800781 48.699219 C 61.800781 45.5 60.632812 42.765625 58.332031 40.464844 C 56.035156 38.199219 53.234375 37.066406 50 37.066406 C 49.132812 37.132812 48.300781 37.234375 47.5 37.398438 Z M 47.5 37.398438 "/>
</g>
</svg>
