<?xml version="1.0" encoding="UTF-8"?>
<svg xmlns="http://www.w3.org/2000/svg" xmlns:xlink="http://www.w3.org/1999/xlink" width="100px" height="100px" viewBox="0 0 100 100" version="1.1">
<g id="surface1">
<path style=" stroke:none;fill-rule:nonzero;fill:rgb(0%,0%,0%);fill-opacity:1;" d="M 50.035156 85.699219 C 56.832031 85.699219 63.101562 84.035156 68.867188 80.667969 C 74.632812 77.300781 79.167969 72.765625 82.5 67 C 85.832031 61.234375 87.535156 54.964844 87.535156 48.167969 C 87.535156 41.367188 85.867188 35.101562 82.5 29.332031 C 79.132812 23.566406 74.601562 19.035156 68.867188 15.699219 C 63.132812 12.367188 56.832031 10.667969 50.035156 10.667969 C 55.734375 14.867188 59.933594 20.332031 62.632812 27.035156 C 65.332031 33.734375 66.667969 40.800781 66.667969 48.132812 C 66.667969 51.132812 66.566406 53.898438 66.332031 56.464844 C 66.101562 59.035156 65.632812 61.765625 64.898438 64.699219 C 64.167969 67.632812 63.199219 70.300781 62.035156 72.699219 C 60.867188 75.101562 59.265625 77.433594 57.199219 79.765625 C 55.132812 82.101562 52.765625 84.035156 50.035156 85.699219 Z M 50.035156 85.699219 "/>
</g>
</svg>
