<?xml version="1.0" encoding="UTF-8"?>
<svg xmlns="http://www.w3.org/2000/svg" xmlns:xlink="http://www.w3.org/1999/xlink" width="100px" height="100px" viewBox="0 0 100 100" version="1.1">
<g id="surface1">
<path style=" stroke:none;fill-rule:nonzero;fill:rgb(0%,0%,0%);fill-opacity:1;" d="M 12.464844 48.132812 C 12.464844 41.367188 14.132812 35.101562 17.5 29.332031 C 20.867188 23.566406 25.398438 19 31.167969 15.667969 C 36.933594 12.332031 43.199219 10.632812 49.964844 10.632812 C 55.035156 10.632812 59.898438 11.632812 64.535156 13.601562 C 69.167969 15.566406 73.167969 18.265625 76.535156 21.601562 C 79.898438 24.933594 82.566406 28.933594 84.535156 33.566406 C 86.5 38.199219 87.5 43.035156 87.5 48.132812 C 87.5 53.234375 86.5 58.066406 84.535156 62.699219 C 82.566406 67.332031 79.867188 71.332031 76.535156 74.699219 C 73.199219 78.066406 69.199219 80.734375 64.535156 82.699219 C 59.867188 84.667969 55.035156 85.667969 49.964844 85.667969 C 44.898438 85.667969 40.035156 84.667969 35.398438 82.699219 C 30.765625 80.734375 26.765625 78.035156 23.433594 74.699219 C 20.101562 71.367188 17.433594 67.367188 15.433594 62.699219 C 13.433594 58.035156 12.464844 53.234375 12.464844 48.132812 Z M 35.132812 48.132812 C 35.132812 62.933594 39.035156 74.066406 46.800781 81.535156 C 47.035156 81.535156 47.367188 81.535156 47.800781 81.566406 C 48.234375 81.601562 48.632812 81.632812 48.964844 81.632812 C 49.300781 81.632812 49.632812 81.667969 49.964844 81.667969 C 54.5 81.667969 58.832031 80.765625 62.964844 79 C 67.101562 77.234375 70.699219 74.832031 73.699219 71.832031 C 76.699219 68.832031 79.066406 65.265625 80.867188 61.132812 C 82.667969 57 83.535156 52.667969 83.535156 48.101562 C 83.535156 43.566406 82.632812 39.234375 80.867188 35.101562 C 79.101562 30.964844 76.699219 27.398438 73.699219 24.398438 C 70.699219 21.398438 67.132812 19.035156 62.964844 17.234375 C 58.800781 15.433594 54.464844 14.566406 49.964844 14.566406 C 48.765625 14.566406 47.867188 14.601562 47.265625 14.667969 C 43.667969 18.734375 40.734375 23.632812 38.464844 29.398438 C 36.199219 35.167969 35.132812 41.433594 35.132812 48.132812 Z M 35.132812 48.132812 "/>
</g>
</svg>
