<?xml version="1.0" encoding="UTF-8"?>
<svg xmlns="http://www.w3.org/2000/svg" xmlns:xlink="http://www.w3.org/1999/xlink" width="100px" height="100px" viewBox="0 0 100 100" version="1.1">
<g id="surface1">
<path style=" stroke:none;fill-rule:nonzero;fill:rgb(0%,0%,0%);fill-opacity:1;" d="M 35.765625 48.101562 C 35.765625 52.066406 36 55.734375 36.433594 59.101562 C 36.867188 62.464844 37.601562 65.765625 38.667969 69.066406 C 39.734375 72.367188 41.199219 75.398438 43.101562 78.234375 C 45 81.066406 47.332031 83.535156 50.066406 85.734375 C 55.167969 85.734375 60.035156 84.734375 64.667969 82.765625 C 69.300781 80.800781 73.265625 78.101562 76.632812 74.765625 C 80 71.433594 82.667969 67.433594 84.632812 62.765625 C 86.601562 58.101562 87.601562 53.265625 87.601562 48.132812 C 87.601562 41.332031 85.933594 35.035156 82.566406 29.300781 C 79.199219 23.566406 74.667969 18.964844 68.898438 15.632812 C 63.132812 12.300781 56.867188 10.601562 50.066406 10.601562 C 45.566406 14.933594 42.066406 20.398438 39.535156 27.035156 C 37 33.667969 35.765625 40.632812 35.765625 48.101562 Z M 35.765625 48.101562 "/>
</g>
</svg>
