<?xml version="1.0" encoding="UTF-8"?>
<svg xmlns="http://www.w3.org/2000/svg" xmlns:xlink="http://www.w3.org/1999/xlink" width="100px" height="100px" viewBox="0 0 100 100" version="1.1">
<g id="surface1">
<path style=" stroke:none;fill-rule:nonzero;fill:rgb(0%,0%,0%);fill-opacity:1;" d="M 12.464844 48.199219 C 12.464844 55 14.132812 61.265625 17.5 67.035156 C 20.867188 72.800781 25.398438 77.332031 31.132812 80.667969 C 36.867188 84 43.167969 85.699219 49.964844 85.699219 C 54.765625 75.433594 57.132812 62.933594 57.132812 48.199219 C 57.132812 36.667969 54.734375 24.199219 49.964844 10.734375 C 44.898438 10.734375 40.035156 11.734375 35.398438 13.699219 C 30.765625 15.667969 26.765625 18.332031 23.433594 21.667969 C 20.101562 25 17.433594 29 15.433594 33.632812 C 13.433594 38.265625 12.464844 43.101562 12.464844 48.199219 Z M 12.464844 48.199219 "/>
</g>
</svg>
