<?xml version="1.0" encoding="UTF-8"?>
<svg xmlns="http://www.w3.org/2000/svg" xmlns:xlink="http://www.w3.org/1999/xlink" width="100px" height="100px" viewBox="0 0 100 100" version="1.1">
<g id="surface1">
<path style=" stroke:none;fill-rule:nonzero;fill:rgb(0%,0%,0%);fill-opacity:1;" d="M 12.464844 48.300781 C 12.464844 52.367188 13.101562 56.300781 14.332031 60.101562 C 15.566406 63.898438 17.367188 67.332031 19.667969 70.398438 C 21.964844 73.464844 24.667969 76.132812 27.734375 78.464844 C 30.800781 80.800781 34.234375 82.566406 38.035156 83.800781 C 41.832031 85.035156 45.765625 85.667969 49.832031 85.667969 C 61.867188 78.765625 67.898438 66.300781 67.898438 48.265625 C 67.898438 43.898438 67.398438 39.734375 66.398438 35.800781 C 65.398438 31.867188 64.035156 28.332031 62.300781 25.234375 C 60.566406 22.132812 58.632812 19.398438 56.566406 17.035156 C 54.5 14.667969 52.234375 12.601562 49.832031 10.832031 C 44.765625 10.832031 39.898438 11.832031 35.265625 13.800781 C 30.632812 15.765625 26.667969 18.433594 23.332031 21.800781 C 20 25.167969 17.332031 29.132812 15.367188 33.765625 C 13.398438 38.398438 12.464844 43.199219 12.464844 48.300781 Z M 12.464844 48.300781 "/>
</g>
</svg>
