<?xml version="1.0" encoding="UTF-8"?>
<svg xmlns="http://www.w3.org/2000/svg" xmlns:xlink="http://www.w3.org/1999/xlink" width="100px" height="100px" viewBox="0 0 100 100" version="1.1">
<g id="surface1">
<path style=" stroke:none;fill-rule:nonzero;fill:rgb(0%,0%,0%);fill-opacity:1;" d="M 49.964844 85.699219 C 56.765625 85.699219 63.066406 84.035156 68.800781 80.667969 C 74.535156 77.300781 79.132812 72.765625 82.464844 67 C 85.800781 61.234375 87.5 54.964844 87.5 48.167969 C 87.5 41.367188 85.832031 35.101562 82.464844 29.332031 C 79.101562 23.566406 74.566406 19.035156 68.800781 15.699219 C 63.035156 12.367188 56.765625 10.667969 49.964844 10.667969 C 55.535156 20.332031 58.300781 32.832031 58.300781 48.167969 C 58.300781 55.933594 57.734375 62.933594 56.566406 69.167969 C 55.398438 75.398438 53.234375 80.867188 49.964844 85.699219 Z M 49.964844 85.699219 "/>
</g>
</svg>
