<?xml version="1.0" encoding="UTF-8"?>
<svg xmlns="http://www.w3.org/2000/svg" xmlns:xlink="http://www.w3.org/1999/xlink" width="100px" height="100px" viewBox="0 0 100 100" version="1.1">
<g id="surface1">
<path style=" stroke:none;fill-rule:nonzero;fill:rgb(0%,0%,0%);fill-opacity:1;" d="M 12.464844 48.300781 C 12.464844 52.367188 13.101562 56.300781 14.332031 60.101562 C 15.566406 63.898438 17.367188 67.332031 19.667969 70.398438 C 21.964844 73.464844 24.667969 76.132812 27.734375 78.464844 C 30.800781 80.800781 34.234375 82.566406 38.035156 83.800781 C 41.832031 85.035156 45.765625 85.667969 49.832031 85.667969 C 66.601562 81 74.964844 68.535156 74.964844 48.265625 C 74.964844 44.332031 74.5 40.601562 73.566406 37.035156 C 72.632812 33.464844 71.398438 30.332031 69.800781 27.601562 C 68.199219 24.867188 66.332031 22.367188 64.199219 20.132812 C 62.066406 17.898438 59.734375 16 57.332031 14.535156 C 54.933594 13.066406 52.433594 11.832031 49.800781 10.964844 C 44.734375 10.964844 39.867188 11.964844 35.234375 13.933594 C 30.601562 15.898438 26.734375 18.566406 23.398438 21.898438 C 20.066406 25.234375 17.398438 29.199219 15.433594 33.800781 C 13.464844 38.398438 12.464844 43.234375 12.464844 48.300781 Z M 12.464844 48.300781 "/>
</g>
</svg>
