<?xml version="1.0" encoding="UTF-8"?>
<svg xmlns="http://www.w3.org/2000/svg" xmlns:xlink="http://www.w3.org/1999/xlink" width="100px" height="100px" viewBox="0 0 100 100" version="1.1">
<g id="surface1">
<path style=" stroke:none;fill-rule:nonzero;fill:rgb(0%,0%,0%);fill-opacity:1;" d="M 12.464844 48.132812 C 12.464844 43.035156 13.464844 38.132812 15.433594 33.5 C 17.398438 28.867188 20.101562 24.867188 23.433594 21.5 C 26.765625 18.132812 30.765625 15.464844 35.433594 13.5 C 40.101562 11.535156 44.933594 10.535156 50 10.535156 C 55.101562 10.535156 60 11.535156 64.632812 13.5 C 69.265625 15.464844 73.265625 18.167969 76.632812 21.5 C 80 24.832031 82.667969 28.832031 84.632812 33.5 C 86.601562 38.167969 87.601562 43 87.601562 48.132812 C 87.601562 53.199219 86.601562 58.066406 84.632812 62.699219 C 82.667969 67.332031 79.964844 71.332031 76.632812 74.699219 C 73.300781 78.066406 69.300781 80.734375 64.632812 82.699219 C 59.964844 84.667969 55.132812 85.667969 50 85.667969 C 44.933594 85.667969 40.066406 84.667969 35.433594 82.699219 C 30.800781 80.734375 26.800781 78.035156 23.433594 74.699219 C 20.066406 71.367188 17.398438 67.367188 15.433594 62.699219 C 13.464844 58.035156 12.464844 53.234375 12.464844 48.132812 Z M 21.398438 48.132812 C 21.398438 50.734375 21.566406 53.132812 21.898438 55.300781 C 22.234375 57.464844 22.867188 59.800781 23.800781 62.265625 C 24.734375 64.734375 26 66.964844 27.566406 69.035156 C 29.132812 71.101562 31.199219 73.167969 33.832031 75.234375 C 36.464844 77.300781 39.5 79.234375 43.066406 80.933594 C 45.300781 81.433594 47.632812 81.667969 50.035156 81.667969 C 54.601562 81.667969 58.933594 80.765625 63.066406 79 C 67.199219 77.234375 70.765625 74.832031 73.800781 71.832031 C 76.832031 68.832031 79.199219 65.265625 80.964844 61.101562 C 82.734375 56.933594 83.632812 52.601562 83.632812 48.101562 C 83.632812 42.035156 82.132812 36.433594 79.132812 31.265625 C 76.132812 26.101562 72.035156 22.035156 66.867188 19 C 61.699219 15.964844 56.101562 14.5 50.035156 14.5 C 47.199219 14.5 44.632812 14.800781 42.332031 15.367188 C 39.367188 16.832031 36.765625 18.367188 34.5 20 C 32.234375 21.632812 30.332031 23.367188 28.867188 25.132812 C 27.398438 26.898438 26.132812 28.734375 25.101562 30.535156 C 24.066406 32.332031 23.300781 34.265625 22.800781 36.332031 C 22.300781 38.398438 21.933594 40.332031 21.734375 42.167969 C 21.535156 44 21.398438 46 21.398438 48.132812 Z M 21.398438 48.132812 "/>
</g>
</svg>
