<?xml version="1.0" encoding="UTF-8"?>
<svg xmlns="http://www.w3.org/2000/svg" xmlns:xlink="http://www.w3.org/1999/xlink" width="100px" height="100px" viewBox="0 0 100 100" version="1.1">
<g id="surface1">
<path style=" stroke:none;fill-rule:nonzero;fill:rgb(0%,0%,0%);fill-opacity:1;" d="M 12.464844 48.132812 C 12.464844 43.066406 13.464844 38.199219 15.433594 33.566406 C 17.398438 28.933594 20.101562 24.964844 23.433594 21.601562 C 26.765625 18.234375 30.765625 15.566406 35.398438 13.601562 C 40.035156 11.632812 44.867188 10.632812 49.964844 10.632812 C 55.066406 10.632812 59.898438 11.632812 64.535156 13.601562 C 69.167969 15.566406 73.167969 18.265625 76.535156 21.601562 C 79.898438 24.933594 82.566406 28.933594 84.535156 33.566406 C 86.5 38.199219 87.5 43.035156 87.5 48.132812 C 87.5 53.234375 86.5 58.066406 84.535156 62.699219 C 82.566406 67.332031 79.867188 71.332031 76.535156 74.699219 C 73.199219 78.066406 69.199219 80.734375 64.535156 82.699219 C 59.867188 84.667969 55.035156 85.667969 49.964844 85.667969 C 44.898438 85.667969 40.035156 84.667969 35.398438 82.699219 C 30.765625 80.734375 26.800781 78.035156 23.433594 74.699219 C 20.066406 71.367188 17.398438 67.367188 15.433594 62.699219 C 13.464844 58.035156 12.464844 53.234375 12.464844 48.132812 Z M 39.867188 48.132812 C 39.867188 61.964844 42.566406 73.132812 47.933594 81.632812 C 48.433594 81.667969 49.101562 81.667969 50 81.667969 C 54.566406 81.667969 58.898438 80.765625 63.035156 79 C 67.167969 77.234375 70.734375 74.832031 73.734375 71.832031 C 76.734375 68.832031 79.101562 65.265625 80.898438 61.132812 C 82.699219 57 83.566406 52.667969 83.566406 48.101562 C 83.566406 43.566406 82.667969 39.234375 80.898438 35.101562 C 79.132812 30.964844 76.734375 27.398438 73.734375 24.398438 C 70.734375 21.398438 67.167969 19.035156 63.035156 17.234375 C 58.898438 15.433594 54.566406 14.566406 50 14.566406 C 49.234375 14.566406 48.601562 14.566406 48.199219 14.601562 C 42.632812 25.167969 39.867188 36.332031 39.867188 48.132812 Z M 39.867188 48.132812 "/>
</g>
</svg>
