<?xml version="1.0" encoding="UTF-8"?>
<svg xmlns="http://www.w3.org/2000/svg" xmlns:xlink="http://www.w3.org/1999/xlink" width="100px" height="100px" viewBox="0 0 100 100" version="1.1">
<g id="surface1">
<path style=" stroke:none;fill-rule:nonzero;fill:rgb(0%,0%,0%);fill-opacity:1;" d="M 12.464844 48.132812 C 12.464844 54.933594 14.132812 61.234375 17.5 66.964844 C 20.867188 72.699219 25.398438 77.300781 31.167969 80.632812 C 36.933594 83.964844 43.199219 85.667969 50 85.667969 C 56.800781 85.667969 63.066406 84 68.832031 80.632812 C 74.601562 77.265625 79.132812 72.734375 82.464844 66.964844 C 85.800781 61.199219 87.5 54.933594 87.5 48.132812 C 87.5 41.332031 85.832031 35.066406 82.464844 29.300781 C 79.101562 23.535156 74.566406 19 68.832031 15.667969 C 63.101562 12.332031 56.800781 10.632812 50 10.632812 C 43.199219 10.632812 36.933594 12.332031 31.167969 15.667969 C 25.398438 19 20.832031 23.566406 17.5 29.300781 C 14.167969 35.035156 12.464844 41.332031 12.464844 48.132812 Z M 12.464844 48.132812 "/>
</g>
</svg>
