<?xml version="1.0" encoding="UTF-8"?>
<svg xmlns="http://www.w3.org/2000/svg" xmlns:xlink="http://www.w3.org/1999/xlink" width="100px" height="100px" viewBox="0 0 100 100" version="1.1">
<g id="surface1">
<path style=" stroke:none;fill-rule:nonzero;fill:rgb(0%,0%,0%);fill-opacity:1;" d="M 12.464844 48.132812 C 12.464844 43.066406 13.464844 38.199219 15.433594 33.566406 C 17.398438 28.933594 20.101562 24.964844 23.433594 21.601562 C 26.765625 18.234375 30.765625 15.566406 35.398438 13.601562 C 40.035156 11.632812 44.867188 10.632812 49.964844 10.632812 C 55.066406 10.632812 59.898438 11.632812 64.535156 13.601562 C 69.167969 15.566406 73.167969 18.265625 76.535156 21.601562 C 79.898438 24.933594 82.566406 28.933594 84.535156 33.566406 C 86.5 38.199219 87.5 43.035156 87.5 48.132812 C 87.5 53.234375 86.5 58.066406 84.535156 62.699219 C 82.566406 67.332031 79.867188 71.332031 76.535156 74.699219 C 73.199219 78.066406 69.199219 80.734375 64.535156 82.699219 C 59.867188 84.667969 55.035156 85.667969 49.964844 85.667969 C 44.898438 85.667969 40.035156 84.667969 35.398438 82.699219 C 30.765625 80.734375 26.800781 78.035156 23.433594 74.699219 C 20.066406 71.367188 17.398438 67.367188 15.433594 62.699219 C 13.464844 58.035156 12.464844 53.234375 12.464844 48.132812 Z M 50.035156 14.632812 C 54.132812 26.433594 56.199219 37.601562 56.199219 48.132812 C 56.199219 61.234375 54.234375 72.398438 50.300781 81.667969 C 54.800781 81.632812 59.101562 80.734375 63.199219 78.964844 C 67.300781 77.199219 70.867188 74.800781 73.832031 71.800781 C 76.800781 68.800781 79.167969 65.234375 80.898438 61.101562 C 82.632812 56.964844 83.535156 52.632812 83.535156 48.101562 C 83.535156 43.566406 82.632812 39.234375 80.867188 35.101562 C 79.101562 30.964844 76.699219 27.398438 73.699219 24.398438 C 70.699219 21.398438 67.132812 19.035156 63 17.234375 C 58.867188 15.433594 54.535156 14.632812 50.035156 14.632812 Z M 50.035156 14.632812 "/>
</g>
</svg>
