<?xml version="1.0" encoding="UTF-8"?>
<svg xmlns="http://www.w3.org/2000/svg" xmlns:xlink="http://www.w3.org/1999/xlink" width="100px" height="100px" viewBox="0 0 100 100" version="1.1">
<g id="surface1">
<path style=" stroke:none;fill-rule:nonzero;fill:rgb(0%,0%,0%);fill-opacity:1;" d="M 12.464844 48.132812 C 12.464844 54.933594 14.132812 61.234375 17.5 66.964844 C 20.867188 72.699219 25.398438 77.300781 31.167969 80.632812 C 36.933594 83.964844 43.199219 85.667969 50 85.667969 C 43.101562 82.300781 38.035156 77.5 34.800781 71.234375 C 31.566406 64.964844 30 57.300781 30 48.132812 C 30 39.699219 31.867188 32.199219 35.632812 25.632812 C 39.398438 19.066406 44.199219 14.066406 50 10.632812 C 43.199219 10.632812 36.898438 12.300781 31.167969 15.667969 C 25.433594 19.035156 20.832031 23.566406 17.5 29.300781 C 14.167969 35.035156 12.464844 41.332031 12.464844 48.132812 Z M 12.464844 48.132812 "/>
</g>
</svg>
