<?xml version="1.0" encoding="UTF-8"?>
<svg xmlns="http://www.w3.org/2000/svg" xmlns:xlink="http://www.w3.org/1999/xlink" width="100px" height="100px" viewBox="0 0 100 100" version="1.1">
<g id="surface1">
<path style=" stroke:none;fill-rule:nonzero;fill:rgb(0%,0%,0%);fill-opacity:1;" d="M 23.632812 64.632812 C 23.632812 64.199219 23.632812 63.867188 23.667969 63.667969 L 23.667969 63.398438 C 23.667969 63.332031 23.667969 63.265625 23.667969 63.199219 C 23.667969 63.132812 23.667969 63.101562 23.667969 63.035156 C 23.667969 62.964844 23.667969 62.933594 23.667969 62.867188 C 23.667969 62.800781 23.667969 62.765625 23.667969 62.734375 L 23.667969 62.667969 C 23.667969 62.566406 23.699219 62.433594 23.734375 62.265625 C 23.765625 62.101562 23.800781 62 23.800781 61.964844 L 23.800781 61.867188 C 23.800781 61.832031 23.800781 61.765625 23.800781 61.699219 C 23.800781 61.632812 23.800781 61.601562 23.800781 61.566406 L 24.066406 60.332031 C 24.066406 60.300781 24.066406 60.300781 24.101562 60.265625 L 24.101562 60.199219 L 24.234375 59.734375 C 24.265625 59.699219 24.265625 59.699219 24.265625 59.667969 C 24.300781 59.632812 24.300781 59.601562 24.300781 59.566406 L 24.300781 59.464844 C 24.433594 59.066406 24.535156 58.734375 24.632812 58.535156 C 24.632812 58.5 24.667969 58.464844 24.699219 58.433594 C 24.734375 58.398438 24.765625 58.234375 24.867188 57.933594 C 25.433594 56.667969 26.132812 55.464844 26.964844 54.332031 L 27.167969 54.101562 C 27.199219 54.066406 27.234375 54.035156 27.265625 53.964844 C 27.300781 53.898438 27.332031 53.867188 27.367188 53.832031 C 27.398438 53.800781 27.464844 53.734375 27.601562 53.632812 C 27.632812 53.566406 27.667969 53.5 27.734375 53.433594 C 27.800781 53.367188 27.832031 53.300781 27.867188 53.234375 C 28 53.167969 28.066406 53.066406 28.101562 53 C 28.132812 52.964844 28.199219 52.933594 28.332031 52.800781 L 28.566406 52.566406 L 53.898438 24.800781 L 52.632812 32.132812 L 75.367188 7.832031 L 61.433594 34.964844 L 75.367188 24.433594 L 62.734375 49.765625 L 71.765625 43.535156 L 56.167969 71.300781 C 56.167969 71.332031 56.132812 71.367188 56.101562 71.433594 C 56.066406 71.5 56.035156 71.566406 56 71.601562 C 55.964844 71.632812 55.964844 71.667969 55.933594 71.734375 C 55.898438 71.800781 55.898438 71.832031 55.867188 71.898438 C 55.832031 71.933594 55.832031 71.964844 55.800781 72.066406 C 55.765625 72.132812 55.734375 72.199219 55.734375 72.234375 C 54.300781 75.035156 52.234375 77.265625 49.535156 78.964844 C 46.832031 80.667969 43.867188 81.5 40.632812 81.5 C 37.566406 81.5 34.734375 80.734375 32.132812 79.234375 C 29.535156 77.699219 27.464844 75.667969 25.933594 73.035156 C 24.398438 70.398438 23.632812 67.699219 23.632812 64.632812 Z M 27.632812 64.632812 C 27.632812 68.234375 28.898438 71.265625 31.433594 73.800781 C 33.964844 76.332031 37.035156 77.601562 40.601562 77.601562 C 43.332031 77.601562 45.800781 76.800781 48 75.234375 C 50.199219 73.667969 51.765625 71.601562 52.699219 69.101562 C 53.265625 67.667969 53.535156 66.199219 53.535156 64.632812 C 53.535156 61.066406 52.265625 58 49.765625 55.464844 C 47.234375 52.933594 44.199219 51.699219 40.601562 51.699219 C 37.265625 51.699219 34.367188 52.800781 31.933594 55.035156 C 30.566406 56.234375 29.535156 57.632812 28.765625 59.300781 C 28 61 27.632812 62.765625 27.632812 64.632812 Z M 27.632812 64.632812 "/>
</g>
</svg>
