<?xml version="1.0" encoding="UTF-8"?>
<svg xmlns="http://www.w3.org/2000/svg" xmlns:xlink="http://www.w3.org/1999/xlink" width="100px" height="100px" viewBox="0 0 100 100" version="1.1">
<g id="surface1">
<path style=" stroke:none;fill-rule:nonzero;fill:rgb(0%,0%,0%);fill-opacity:1;" d="M 50.035156 85.699219 C 56.832031 85.699219 63.101562 84.035156 68.867188 80.667969 C 74.632812 77.300781 79.167969 72.765625 82.5 67 C 85.832031 61.234375 87.535156 54.964844 87.535156 48.167969 C 87.535156 41.367188 85.867188 35.101562 82.5 29.332031 C 79.132812 23.566406 74.601562 19.035156 68.867188 15.699219 C 63.132812 12.367188 56.832031 10.667969 50.035156 10.667969 C 54.433594 12.398438 58.300781 14.667969 61.601562 17.535156 C 64.898438 20.398438 67.535156 23.5 69.433594 26.933594 C 71.332031 30.367188 72.734375 33.832031 73.667969 37.367188 C 74.601562 40.898438 75.035156 44.5 75.035156 48.167969 C 75.035156 50.300781 74.964844 52.367188 74.800781 54.300781 C 74.632812 56.234375 74.300781 58.300781 73.832031 60.535156 C 73.367188 62.765625 72.734375 64.800781 71.964844 66.734375 C 71.199219 68.667969 70.167969 70.566406 68.898438 72.535156 C 67.632812 74.5 66.132812 76.234375 64.398438 77.800781 C 62.667969 79.367188 60.601562 80.867188 58.167969 82.234375 C 55.734375 83.601562 53 84.734375 50.035156 85.699219 Z M 50.035156 85.699219 "/>
</g>
</svg>
