<?xml version="1.0" encoding="UTF-8"?>
<svg xmlns="http://www.w3.org/2000/svg" xmlns:xlink="http://www.w3.org/1999/xlink" width="100px" height="100px" viewBox="0 0 100 100" version="1.1">
<g id="surface1">
<path style=" stroke:none;fill-rule:nonzero;fill:rgb(0%,0%,0%);fill-opacity:1;" d="M 39.332031 48.101562 C 39.332031 56.066406 40.132812 63.167969 41.699219 69.398438 C 43.265625 75.632812 46.066406 81.066406 50.066406 85.699219 C 55.132812 85.699219 60 84.699219 64.632812 82.734375 C 69.265625 80.765625 73.265625 78.066406 76.632812 74.734375 C 80 71.398438 82.667969 67.398438 84.632812 62.734375 C 86.601562 58.066406 87.601562 53.234375 87.601562 48.101562 C 87.601562 42.964844 86.601562 38.132812 84.632812 33.5 C 82.667969 28.867188 79.964844 24.898438 76.632812 21.535156 C 73.300781 18.167969 69.300781 15.5 64.632812 13.535156 C 59.964844 11.566406 55.132812 10.566406 50.066406 10.566406 C 46.667969 15.433594 44.035156 21.101562 42.167969 27.667969 C 40.300781 34.234375 39.332031 41 39.332031 48.101562 Z M 39.332031 48.101562 "/>
</g>
</svg>
