<?xml version="1.0" encoding="UTF-8"?>
<svg xmlns="http://www.w3.org/2000/svg" xmlns:xlink="http://www.w3.org/1999/xlink" width="100px" height="100px" viewBox="0 0 100 100" version="1.1">
<g id="surface1">
<path style=" stroke:none;fill-rule:nonzero;fill:rgb(0%,0%,0%);fill-opacity:1;" d="M 12.464844 48.101562 C 12.464844 41.300781 14.167969 35.035156 17.535156 29.265625 C 20.898438 23.5 25.464844 19 31.234375 15.632812 C 37 12.265625 43.265625 10.632812 50.066406 10.632812 C 56.867188 10.632812 63.132812 12.300781 68.898438 15.632812 C 74.667969 18.964844 79.199219 23.5 82.535156 29.265625 C 85.867188 35.035156 87.535156 41.300781 87.535156 48.101562 C 87.535156 54.898438 85.867188 61.199219 82.535156 66.933594 C 79.199219 72.667969 74.667969 77.265625 68.898438 80.632812 C 63.132812 84 56.867188 85.699219 50.066406 85.699219 C 43.265625 85.699219 36.964844 84 31.234375 80.632812 C 25.5 77.265625 20.898438 72.699219 17.535156 66.933594 C 14.167969 61.167969 12.464844 54.898438 12.464844 48.101562 Z M 16.464844 48.101562 C 16.464844 52.632812 17.367188 56.964844 19.167969 61.101562 C 20.964844 65.234375 23.332031 68.832031 26.332031 71.832031 C 29.332031 74.832031 32.898438 77.234375 37.066406 79 C 41.234375 80.765625 45.566406 81.699219 50.066406 81.699219 C 52.933594 81.699219 55.464844 81.398438 57.699219 80.765625 C 60.464844 79.300781 62.867188 77.566406 64.933594 75.535156 C 67 73.5 68.601562 71.464844 69.800781 69.367188 C 71 67.265625 71.933594 64.933594 72.667969 62.398438 C 73.398438 59.867188 73.867188 57.464844 74.101562 55.265625 C 74.332031 53.066406 74.433594 50.699219 74.433594 48.101562 C 74.433594 45 74.101562 41.964844 73.433594 38.964844 C 72.765625 35.964844 71.734375 33 70.332031 30.066406 C 68.933594 27.132812 67.035156 24.332031 64.601562 21.734375 C 62.167969 19.132812 59.367188 16.898438 56.132812 15.101562 C 54.800781 14.800781 52.765625 14.667969 50.066406 14.667969 C 45.535156 14.667969 41.199219 15.535156 37.066406 17.300781 C 32.933594 19.066406 29.332031 21.433594 26.332031 24.398438 C 23.332031 27.367188 20.933594 30.964844 19.167969 35.066406 C 17.398438 39.167969 16.464844 43.535156 16.464844 48.101562 Z M 16.464844 48.101562 "/>
</g>
</svg>
