<?xml version="1.0" encoding="UTF-8"?>
<svg xmlns="http://www.w3.org/2000/svg" xmlns:xlink="http://www.w3.org/1999/xlink" width="100px" height="100px" viewBox="0 0 100 100" version="1.1">
<g id="surface1">
<path style=" stroke:none;fill-rule:nonzero;fill:rgb(0%,0%,0%);fill-opacity:1;" d="M 12.464844 48.132812 C 12.464844 43.066406 13.464844 38.199219 15.433594 33.566406 C 17.398438 28.933594 20.101562 24.964844 23.433594 21.601562 C 26.765625 18.234375 30.765625 15.566406 35.398438 13.601562 C 40.035156 11.632812 44.867188 10.632812 49.964844 10.632812 C 55.066406 10.632812 59.898438 11.632812 64.535156 13.601562 C 69.167969 15.566406 73.167969 18.265625 76.535156 21.601562 C 79.898438 24.933594 82.566406 28.933594 84.535156 33.566406 C 86.5 38.199219 87.5 43.035156 87.5 48.132812 C 87.5 53.234375 86.5 58.066406 84.535156 62.699219 C 82.566406 67.332031 79.867188 71.332031 76.535156 74.699219 C 73.199219 78.066406 69.199219 80.734375 64.535156 82.699219 C 59.867188 84.667969 55.035156 85.667969 49.964844 85.667969 C 44.898438 85.667969 40.035156 84.667969 35.398438 82.699219 C 30.765625 80.734375 26.800781 78.035156 23.433594 74.699219 C 20.066406 71.367188 17.398438 67.367188 15.433594 62.699219 C 13.464844 58.035156 12.464844 53.234375 12.464844 48.132812 Z M 16.464844 48.132812 C 16.464844 56.398438 19.132812 63.667969 24.5 69.898438 C 29.867188 76.132812 36.566406 79.933594 44.601562 81.265625 C 41.234375 79.601562 38.398438 77.601562 36.066406 75.199219 C 33.734375 72.800781 31.898438 70.199219 30.632812 67.300781 C 29.367188 64.398438 28.433594 61.398438 27.867188 58.300781 C 27.300781 55.199219 27 51.800781 27 48.101562 C 27 41.066406 28.667969 34.566406 31.964844 28.632812 C 35.265625 22.699219 39.867188 18.101562 45.699219 14.898438 C 40.265625 15.601562 35.332031 17.464844 30.867188 20.566406 C 26.398438 23.667969 22.898438 27.667969 20.332031 32.535156 C 17.765625 37.398438 16.464844 42.566406 16.464844 48.132812 Z M 16.464844 48.132812 "/>
</g>
</svg>
