<?xml version="1.0" encoding="UTF-8"?>
<svg xmlns="http://www.w3.org/2000/svg" xmlns:xlink="http://www.w3.org/1999/xlink" width="100px" height="100px" viewBox="0 0 100 100" version="1.1">
<g id="surface1">
<path style=" stroke:none;fill-rule:nonzero;fill:rgb(0%,0%,0%);fill-opacity:1;" d="M 12.464844 48.132812 C 12.464844 54.933594 14.132812 61.234375 17.5 66.964844 C 20.867188 72.699219 25.398438 77.300781 31.132812 80.632812 C 36.867188 83.964844 43.167969 85.667969 49.964844 85.667969 C 40 77.898438 35.035156 65.367188 35.035156 48.132812 C 35.035156 40.398438 36.433594 33.265625 39.199219 26.800781 C 41.964844 20.332031 45.566406 14.933594 49.964844 10.632812 C 43.167969 10.632812 36.898438 12.300781 31.132812 15.667969 C 25.367188 19.035156 20.867188 23.566406 17.5 29.332031 C 14.132812 35.101562 12.464844 41.332031 12.464844 48.132812 Z M 12.464844 48.132812 "/>
</g>
</svg>
