<?xml version="1.0" encoding="UTF-8"?>
<svg xmlns="http://www.w3.org/2000/svg" xmlns:xlink="http://www.w3.org/1999/xlink" width="100px" height="100px" viewBox="0 0 100 100" version="1.1">
<g id="surface1">
<path style=" stroke:none;fill-rule:nonzero;fill:rgb(0%,0%,0%);fill-opacity:1;" d="M 26 49.535156 C 26 46.265625 26.632812 43.132812 27.933594 40.132812 C 29.199219 37.132812 30.933594 34.566406 33.101562 32.398438 C 35.265625 30.234375 37.867188 28.5 40.832031 27.199219 C 43.800781 25.898438 46.964844 25.265625 50.265625 25.265625 L 54.167969 25.265625 C 54.699219 25.398438 54.964844 25.734375 54.964844 26.199219 L 55.101562 29.199219 C 55.234375 33.535156 56.800781 37.234375 59.800781 40.300781 C 62.800781 43.367188 66.464844 45 70.734375 45.167969 L 73.566406 45.398438 C 74.101562 45.398438 74.332031 45.667969 74.332031 46.167969 L 74.332031 49.535156 C 74.367188 52.964844 73.699219 56.199219 72.398438 59.265625 L 65.566406 59.265625 C 67.265625 56.800781 68.332031 53.964844 68.800781 50.832031 C 63.234375 49.667969 58.734375 47.265625 55.367188 43.632812 C 52 40 50.066406 35.734375 49.535156 30.867188 C 46.300781 31.035156 43.367188 32.035156 40.667969 33.867188 C 38 35.699219 35.898438 38 34.433594 40.800781 C 32.964844 43.601562 32.234375 46.535156 32.234375 49.566406 C 32.234375 53.132812 33.167969 56.367188 35 59.300781 L 28 59.300781 C 26.667969 56.167969 26 52.933594 26 49.535156 Z M 26.964844 69.566406 C 26.964844 68.601562 27.265625 67.832031 27.898438 67.300781 C 28.5 66.699219 29.265625 66.433594 30.199219 66.433594 L 38.964844 66.433594 L 49.332031 56.667969 C 49.667969 56.398438 50.066406 56.398438 50.5 56.667969 L 61.035156 66.398438 L 70.265625 66.398438 C 71.167969 66.398438 71.933594 66.699219 72.566406 67.332031 C 73.199219 67.933594 73.535156 68.699219 73.535156 69.566406 C 73.535156 70.464844 73.199219 71.234375 72.566406 71.867188 C 71.933594 72.5 71.167969 72.832031 70.265625 72.832031 L 59 72.832031 C 58.667969 72.832031 58.332031 72.765625 58.035156 72.601562 L 50 65.035156 L 42.035156 72.601562 C 41.765625 72.765625 41.464844 72.832031 41.101562 72.832031 L 30.199219 72.832031 C 29.300781 72.832031 28.535156 72.5 27.898438 71.867188 C 27.265625 71.234375 26.964844 70.464844 26.964844 69.566406 Z M 26.964844 69.566406 "/>
</g>
</svg>
