<?xml version="1.0" encoding="UTF-8"?>
<svg xmlns="http://www.w3.org/2000/svg" xmlns:xlink="http://www.w3.org/1999/xlink" width="100px" height="100px" viewBox="0 0 100 100" version="1.1">
<g id="surface1">
<path style=" stroke:none;fill-rule:nonzero;fill:rgb(0%,0%,0%);fill-opacity:1;" d="M 12.464844 48.234375 C 12.464844 53.300781 13.464844 58.167969 15.433594 62.800781 C 17.398438 67.433594 20.066406 71.398438 23.433594 74.765625 C 26.800781 78.132812 30.765625 80.765625 35.398438 82.765625 C 40.035156 84.765625 44.867188 85.734375 49.964844 85.734375 C 59.601562 77.765625 64.433594 65.265625 64.433594 48.265625 C 64.433594 40.464844 63.066406 33.367188 60.367188 27.066406 C 57.667969 20.765625 54.199219 15.332031 50 10.832031 C 43.234375 10.832031 36.964844 12.5 31.199219 15.867188 C 25.433594 19.234375 20.832031 23.734375 17.464844 29.464844 C 14.101562 35.199219 12.464844 41.464844 12.464844 48.234375 Z M 12.464844 48.234375 "/>
</g>
</svg>
