<?xml version="1.0" encoding="UTF-8"?>
<svg xmlns="http://www.w3.org/2000/svg" xmlns:xlink="http://www.w3.org/1999/xlink" width="100px" height="100px" viewBox="0 0 100 100" version="1.1">
<g id="surface1">
<path style=" stroke:none;fill-rule:nonzero;fill:rgb(0%,0%,0%);fill-opacity:1;" d="M 50.035156 85.699219 C 56.832031 85.699219 63.101562 84.035156 68.867188 80.667969 C 74.632812 77.300781 79.167969 72.765625 82.5 67 C 85.832031 61.234375 87.535156 54.964844 87.535156 48.167969 C 87.535156 41.367188 85.867188 35.101562 82.5 29.332031 C 79.132812 23.566406 74.601562 19.035156 68.867188 15.699219 C 63.132812 12.367188 56.832031 10.667969 50.035156 10.667969 C 53.699219 12.632812 56.933594 15.066406 59.667969 17.964844 C 62.398438 20.867188 64.566406 24.035156 66.167969 27.398438 C 67.765625 30.765625 68.933594 34.167969 69.667969 37.632812 C 70.398438 41.101562 70.800781 44.601562 70.800781 48.167969 C 70.800781 51.199219 70.667969 54.035156 70.367188 56.632812 C 70.066406 59.234375 69.464844 62.066406 68.601562 65.066406 C 67.734375 68.066406 66.535156 70.765625 65.066406 73.167969 C 63.601562 75.566406 61.601562 77.898438 59 80.132812 C 56.398438 82.367188 53.433594 84.199219 50.035156 85.699219 Z M 50.035156 85.699219 "/>
</g>
</svg>
