<?xml version="1.0" encoding="UTF-8"?>
<svg xmlns="http://www.w3.org/2000/svg" xmlns:xlink="http://www.w3.org/1999/xlink" width="100px" height="100px" viewBox="0 0 100 100" version="1.1">
<g id="surface1">
<path style=" stroke:none;fill-rule:nonzero;fill:rgb(0%,0%,0%);fill-opacity:1;" d="M 12.464844 48.132812 C 12.464844 54.933594 14.132812 61.234375 17.5 66.964844 C 20.867188 72.699219 25.398438 77.300781 31.132812 80.632812 C 36.867188 83.964844 43.167969 85.667969 49.964844 85.667969 C 41.332031 83.035156 35.035156 78.566406 31 72.265625 C 26.964844 65.964844 24.964844 57.933594 24.964844 48.132812 C 24.964844 43.5 25.632812 39.132812 26.964844 34.964844 C 28.300781 30.800781 30.101562 27.167969 32.398438 24.066406 C 34.699219 20.964844 37.332031 18.234375 40.300781 15.933594 C 43.265625 13.632812 46.5 11.867188 49.933594 10.632812 C 43.132812 10.632812 36.867188 12.300781 31.101562 15.667969 C 25.332031 19.035156 20.867188 23.566406 17.5 29.332031 C 14.132812 35.101562 12.464844 41.332031 12.464844 48.132812 Z M 12.464844 48.132812 "/>
</g>
</svg>
