<?xml version="1.0" encoding="UTF-8"?>
<svg xmlns="http://www.w3.org/2000/svg" xmlns:xlink="http://www.w3.org/1999/xlink" width="100px" height="100px" viewBox="0 0 100 100" version="1.1">
<g id="surface1">
<path style=" stroke:none;fill-rule:nonzero;fill:rgb(0%,0%,0%);fill-opacity:1;" d="M 12.464844 48.132812 C 12.464844 43.066406 13.464844 38.199219 15.433594 33.566406 C 17.398438 28.933594 20.101562 24.964844 23.433594 21.601562 C 26.765625 18.234375 30.765625 15.566406 35.398438 13.601562 C 40.035156 11.632812 44.867188 10.632812 49.964844 10.632812 C 55.066406 10.632812 59.898438 11.632812 64.535156 13.601562 C 69.167969 15.566406 73.167969 18.265625 76.535156 21.601562 C 79.898438 24.933594 82.566406 28.933594 84.535156 33.566406 C 86.5 38.199219 87.5 43.035156 87.5 48.132812 C 87.5 53.234375 86.5 58.066406 84.535156 62.699219 C 82.566406 67.332031 79.867188 71.332031 76.535156 74.699219 C 73.199219 78.066406 69.199219 80.734375 64.535156 82.699219 C 59.867188 84.667969 55.035156 85.667969 49.964844 85.667969 C 44.898438 85.667969 40.035156 84.667969 35.398438 82.699219 C 30.765625 80.734375 26.800781 78.035156 23.433594 74.699219 C 20.066406 71.367188 17.398438 67.367188 15.433594 62.699219 C 13.464844 58.035156 12.464844 53.234375 12.464844 48.132812 Z M 53 14.734375 C 57.933594 18.035156 62 22.535156 65.167969 28.234375 C 68.332031 33.933594 69.898438 40.566406 69.898438 48.132812 C 69.898438 64.132812 64.566406 75.234375 53.933594 81.433594 C 59.433594 80.765625 64.433594 78.898438 68.933594 75.832031 C 73.433594 72.765625 77 68.765625 79.601562 63.898438 C 82.199219 59.035156 83.5 53.800781 83.5 48.167969 C 83.5 42.433594 82.132812 37.101562 79.433594 32.167969 C 76.734375 27.234375 73.066406 23.199219 68.398438 20.132812 C 63.734375 17.066406 58.632812 15.234375 53 14.734375 Z M 53 14.734375 "/>
</g>
</svg>
