<?xml version="1.0" encoding="UTF-8"?>
<svg xmlns="http://www.w3.org/2000/svg" xmlns:xlink="http://www.w3.org/1999/xlink" width="100px" height="100px" viewBox="0 0 100 100" version="1.1">
<g id="surface1">
<path style=" stroke:none;fill-rule:nonzero;fill:rgb(0%,0%,0%);fill-opacity:1;" d="M 12.464844 48.132812 C 12.464844 54.933594 14.132812 61.234375 17.5 66.964844 C 20.867188 72.699219 25.398438 77.300781 31.132812 80.632812 C 36.867188 83.964844 43.167969 85.667969 49.964844 85.667969 C 45.101562 83.800781 40.898438 81.734375 37.332031 79.398438 C 33.765625 77.066406 30.898438 74.765625 28.765625 72.398438 C 26.632812 70.035156 24.933594 67.433594 23.667969 64.601562 C 22.398438 61.765625 21.535156 59.066406 21.101562 56.535156 C 20.667969 54 20.433594 51.199219 20.433594 48.132812 C 20.433594 45.964844 20.535156 43.933594 20.699219 42.101562 C 20.867188 40.265625 21.234375 38.300781 21.765625 36.199219 C 22.300781 34.101562 23.035156 32.167969 23.898438 30.367188 C 24.765625 28.566406 26 26.734375 27.5 24.832031 C 29 22.933594 30.765625 21.167969 32.800781 19.601562 C 34.832031 18.035156 37.265625 16.433594 40.167969 14.867188 C 43.066406 13.300781 46.332031 11.898438 49.933594 10.632812 C 43.132812 10.632812 36.867188 12.300781 31.101562 15.667969 C 25.332031 19.035156 20.867188 23.566406 17.5 29.332031 C 14.132812 35.101562 12.464844 41.332031 12.464844 48.132812 Z M 12.464844 48.132812 "/>
</g>
</svg>
