<?xml version="1.0" encoding="UTF-8"?>
<svg xmlns="http://www.w3.org/2000/svg" xmlns:xlink="http://www.w3.org/1999/xlink" width="100px" height="100px" viewBox="0 0 100 100" version="1.1">
<g id="surface1">
<path style=" stroke:none;fill-rule:nonzero;fill:rgb(0%,0%,0%);fill-opacity:1;" d="M 32.167969 48.101562 C 32.167969 52.234375 32.433594 56.035156 33 59.464844 C 33.566406 62.898438 34.464844 66.300781 35.765625 69.601562 C 37.066406 72.898438 38.933594 75.898438 41.332031 78.632812 C 43.734375 81.367188 46.667969 83.699219 50.066406 85.699219 C 55.132812 85.699219 60 84.699219 64.632812 82.734375 C 69.265625 80.765625 73.265625 78.066406 76.632812 74.734375 C 80 71.398438 82.667969 67.398438 84.632812 62.734375 C 86.601562 58.066406 87.601562 53.234375 87.601562 48.101562 C 87.601562 42.964844 86.601562 38.132812 84.632812 33.5 C 82.667969 28.867188 79.964844 24.898438 76.632812 21.535156 C 73.300781 18.167969 69.300781 15.5 64.632812 13.535156 C 59.964844 11.566406 55.132812 10.566406 50.066406 10.566406 C 44.5 14.367188 40.132812 19.632812 36.933594 26.367188 C 33.734375 33.101562 32.167969 40.300781 32.167969 48.101562 Z M 32.167969 48.101562 "/>
</g>
</svg>
