<?xml version="1.0" encoding="UTF-8"?>
<svg xmlns="http://www.w3.org/2000/svg" xmlns:xlink="http://www.w3.org/1999/xlink" width="100px" height="100px" viewBox="0 0 100 100" version="1.1">
<g id="surface1">
<path style=" stroke:none;fill-rule:nonzero;fill:rgb(0%,0%,0%);fill-opacity:1;" d="M 12.464844 48.132812 C 12.464844 43.066406 13.464844 38.199219 15.433594 33.566406 C 17.398438 28.933594 20.101562 24.964844 23.433594 21.601562 C 26.765625 18.234375 30.765625 15.566406 35.398438 13.601562 C 40.035156 11.632812 44.867188 10.632812 49.964844 10.632812 C 55.066406 10.632812 59.898438 11.632812 64.535156 13.601562 C 69.167969 15.566406 73.167969 18.265625 76.535156 21.601562 C 79.898438 24.933594 82.566406 28.933594 84.535156 33.566406 C 86.5 38.199219 87.5 43.035156 87.5 48.132812 C 87.5 53.234375 86.5 58.066406 84.535156 62.699219 C 82.566406 67.332031 79.867188 71.332031 76.535156 74.699219 C 73.199219 78.066406 69.199219 80.734375 64.535156 82.699219 C 59.867188 84.667969 55.035156 85.667969 49.964844 85.667969 C 44.898438 85.667969 40.035156 84.667969 35.398438 82.699219 C 30.765625 80.734375 26.800781 78.035156 23.433594 74.699219 C 20.066406 71.367188 17.398438 67.367188 15.433594 62.699219 C 13.464844 58.035156 12.464844 53.234375 12.464844 48.132812 Z M 16.464844 48.132812 C 16.464844 52.601562 17.332031 56.867188 19.035156 60.964844 C 20.734375 65.066406 23.066406 68.601562 25.964844 71.601562 C 28.867188 74.601562 32.367188 77 36.398438 78.800781 C 40.433594 80.601562 44.667969 81.566406 49.101562 81.699219 C 43.398438 73.964844 40.566406 62.765625 40.566406 48.167969 C 40.566406 41.933594 41.332031 35.933594 42.867188 30.132812 C 44.398438 24.332031 46.566406 19.167969 49.367188 14.667969 C 43.367188 14.765625 37.867188 16.332031 32.832031 19.367188 C 27.800781 22.398438 23.832031 26.464844 20.898438 31.535156 C 17.964844 36.601562 16.464844 42.167969 16.464844 48.132812 Z M 16.464844 48.132812 "/>
</g>
</svg>
