<?xml version="1.0" encoding="UTF-8"?>
<svg xmlns="http://www.w3.org/2000/svg" xmlns:xlink="http://www.w3.org/1999/xlink" width="100px" height="100px" viewBox="0 0 100 100" version="1.1">
<g id="surface1">
<path style=" stroke:none;fill-rule:nonzero;fill:rgb(0%,0%,0%);fill-opacity:1;" d="M 12.464844 48.300781 C 12.464844 52.367188 13.101562 56.300781 14.332031 60.101562 C 15.566406 63.898438 17.367188 67.332031 19.667969 70.398438 C 21.964844 73.464844 24.667969 76.132812 27.734375 78.464844 C 30.800781 80.800781 34.234375 82.566406 38.035156 83.800781 C 41.832031 85.035156 45.765625 85.667969 49.832031 85.667969 C 64.265625 79.898438 71.464844 67.433594 71.464844 48.265625 C 71.464844 43.632812 70.867188 39.265625 69.667969 35.167969 C 68.464844 31.066406 66.832031 27.464844 64.765625 24.398438 C 62.699219 21.332031 60.398438 18.699219 57.898438 16.433594 C 55.398438 14.167969 52.699219 12.332031 49.832031 10.898438 C 43.066406 10.898438 36.800781 12.566406 31.066406 15.898438 C 25.332031 19.234375 20.832031 23.800781 17.464844 29.535156 C 14.101562 35.265625 12.464844 41.535156 12.464844 48.300781 Z M 12.464844 48.300781 "/>
</g>
</svg>
