<?xml version="1.0" encoding="UTF-8"?>
<svg xmlns="http://www.w3.org/2000/svg" xmlns:xlink="http://www.w3.org/1999/xlink" width="100px" height="100px" viewBox="0 0 100 100" version="1.1">
<g id="surface1">
<path style=" stroke:none;fill-rule:nonzero;fill:rgb(0%,0%,0%);fill-opacity:1;" d="M 25.800781 49.535156 C 25.800781 46.265625 26.433594 43.132812 27.734375 40.132812 C 29 37.132812 30.734375 34.566406 32.898438 32.398438 C 35.066406 30.234375 37.667969 28.5 40.632812 27.199219 C 43.632812 25.898438 46.765625 25.265625 50.066406 25.265625 L 53.964844 25.265625 C 54.5 25.398438 54.765625 25.734375 54.765625 26.199219 L 54.933594 29.199219 C 55 31.332031 55.433594 33.367188 56.265625 35.300781 C 57.101562 37.234375 58.199219 38.898438 59.601562 40.300781 C 61 41.734375 62.632812 42.867188 64.535156 43.734375 C 66.433594 44.601562 68.433594 45.066406 70.535156 45.167969 L 73.367188 45.398438 C 73.898438 45.398438 74.167969 45.667969 74.167969 46.167969 L 74.167969 49.535156 C 74.199219 52.898438 73.535156 56.132812 72.199219 59.265625 L 65.367188 59.265625 C 67.066406 56.800781 68.132812 53.964844 68.601562 50.832031 C 63 49.667969 58.535156 47.265625 55.167969 43.632812 C 51.800781 40 49.867188 35.734375 49.332031 30.867188 C 46.101562 31.035156 43.167969 32.035156 40.464844 33.867188 C 37.800781 35.699219 35.734375 38 34.234375 40.800781 C 32.765625 43.601562 32.035156 46.535156 32.035156 49.566406 C 32.035156 53.132812 32.964844 56.367188 34.800781 59.300781 L 27.800781 59.300781 C 26.464844 56.167969 25.800781 52.933594 25.800781 49.535156 Z M 26.632812 69.632812 C 26.632812 68.765625 26.964844 68 27.632812 67.332031 C 28.234375 66.734375 29 66.433594 29.898438 66.433594 L 40.632812 66.433594 C 41 66.433594 41.300781 66.5 41.566406 66.699219 L 49.398438 74.101562 L 57.367188 66.667969 C 57.601562 66.5 57.933594 66.398438 58.332031 66.398438 L 69.332031 66.398438 C 70.234375 66.398438 71 66.699219 71.632812 67.332031 C 72.265625 67.964844 72.601562 68.734375 72.601562 69.601562 C 72.601562 70.5 72.265625 71.265625 71.632812 71.898438 C 71 72.535156 70.234375 72.867188 69.332031 72.867188 L 60.398438 72.867188 L 49.964844 82.332031 C 49.566406 82.632812 49.167969 82.632812 48.832031 82.332031 L 38.566406 72.867188 L 29.898438 72.867188 C 29 72.867188 28.234375 72.535156 27.601562 71.898438 C 26.964844 71.300781 26.632812 70.535156 26.632812 69.632812 Z M 26.632812 69.632812 "/>
</g>
</svg>
