<?xml version="1.0" encoding="UTF-8"?>
<svg xmlns="http://www.w3.org/2000/svg" xmlns:xlink="http://www.w3.org/1999/xlink" width="100px" height="100px" viewBox="0 0 100 100" version="1.1">
<g id="surface1">
<path style=" stroke:none;fill-rule:nonzero;fill:rgb(0%,0%,0%);fill-opacity:1;" d="M 12.464844 48.132812 C 12.464844 43.066406 13.464844 38.199219 15.433594 33.566406 C 17.398438 28.933594 20.101562 24.964844 23.433594 21.601562 C 26.765625 18.234375 30.765625 15.566406 35.398438 13.601562 C 40.035156 11.632812 44.867188 10.632812 49.964844 10.632812 C 55.066406 10.632812 59.898438 11.632812 64.535156 13.601562 C 69.167969 15.566406 73.167969 18.265625 76.535156 21.601562 C 79.898438 24.933594 82.566406 28.933594 84.535156 33.566406 C 86.5 38.199219 87.5 43.035156 87.5 48.132812 C 87.5 53.234375 86.5 58.066406 84.535156 62.699219 C 82.566406 67.332031 79.867188 71.332031 76.535156 74.699219 C 73.199219 78.066406 69.199219 80.734375 64.535156 82.699219 C 59.867188 84.667969 55.035156 85.667969 49.964844 85.667969 C 44.898438 85.667969 40.035156 84.667969 35.398438 82.699219 C 30.765625 80.734375 26.800781 78.035156 23.433594 74.699219 C 20.066406 71.367188 17.398438 67.367188 15.433594 62.699219 C 13.464844 58.035156 12.464844 53.234375 12.464844 48.132812 Z M 16.464844 48.132812 C 16.464844 52.367188 17.234375 56.433594 18.800781 60.332031 C 20.367188 64.234375 22.433594 67.667969 25.101562 70.601562 C 27.765625 73.535156 30.933594 75.964844 34.601562 77.898438 C 38.265625 79.832031 42.199219 81.035156 46.332031 81.5 C 40.5 78.035156 36.398438 73.535156 34 67.933594 C 31.601562 62.332031 30.398438 55.734375 30.398438 48.167969 C 30.398438 41.265625 31.867188 34.832031 34.800781 28.898438 C 37.734375 22.964844 41.800781 18.234375 47 14.765625 C 42.800781 15.132812 38.800781 16.265625 35.035156 18.167969 C 31.265625 20.066406 28.035156 22.5 25.300781 25.464844 C 22.566406 28.433594 20.433594 31.867188 18.867188 35.832031 C 17.300781 39.800781 16.464844 43.832031 16.464844 48.132812 Z M 16.464844 48.132812 "/>
</g>
</svg>
