<?xml version="1.0" encoding="UTF-8"?>
<svg xmlns="http://www.w3.org/2000/svg" xmlns:xlink="http://www.w3.org/1999/xlink" width="100px" height="100px" viewBox="0 0 100 100" version="1.1">
<g id="surface1">
<path style=" stroke:none;fill-rule:nonzero;fill:rgb(0%,0%,0%);fill-opacity:1;" d="M 50.035156 85.699219 C 56.832031 85.699219 63.101562 84.035156 68.867188 80.667969 C 74.632812 77.300781 79.167969 72.765625 82.5 67 C 85.832031 61.234375 87.535156 54.964844 87.535156 48.167969 C 87.535156 41.367188 85.867188 35.101562 82.5 29.332031 C 79.132812 23.566406 74.601562 19.035156 68.867188 15.699219 C 63.132812 12.367188 56.832031 10.667969 50.035156 10.667969 C 54.332031 15.300781 57.5 20.898438 59.5 27.5 C 61.5 34.101562 62.535156 41 62.535156 48.167969 C 62.535156 51.101562 62.433594 53.800781 62.265625 56.300781 C 62.101562 58.800781 61.734375 61.464844 61.199219 64.332031 C 60.667969 67.199219 59.933594 69.832031 59.066406 72.234375 C 58.199219 74.632812 56.964844 77 55.433594 79.398438 C 53.898438 81.800781 52.066406 83.832031 50.035156 85.699219 Z M 50.035156 85.699219 "/>
</g>
</svg>
