<?xml version="1.0" encoding="UTF-8"?>
<svg xmlns="http://www.w3.org/2000/svg" xmlns:xlink="http://www.w3.org/1999/xlink" width="100px" height="100px" viewBox="0 0 100 100" version="1.1">
<g id="surface1">
<path style=" stroke:none;fill-rule:nonzero;fill:rgb(0%,0%,0%);fill-opacity:1;" d="M 12.464844 48.132812 C 12.464844 43.066406 13.464844 38.199219 15.433594 33.566406 C 17.398438 28.933594 20.101562 24.964844 23.433594 21.601562 C 26.765625 18.234375 30.765625 15.566406 35.398438 13.601562 C 40.035156 11.632812 44.867188 10.632812 49.964844 10.632812 C 55.066406 10.632812 59.898438 11.632812 64.535156 13.601562 C 69.167969 15.566406 73.167969 18.265625 76.535156 21.601562 C 79.898438 24.933594 82.566406 28.933594 84.535156 33.566406 C 86.5 38.199219 87.5 43.035156 87.5 48.132812 C 87.5 53.234375 86.5 58.066406 84.535156 62.699219 C 82.566406 67.332031 79.867188 71.332031 76.535156 74.699219 C 73.199219 78.066406 69.199219 80.734375 64.535156 82.699219 C 59.867188 84.667969 55.035156 85.667969 49.964844 85.667969 C 44.898438 85.667969 40.035156 84.667969 35.398438 82.699219 C 30.765625 80.734375 26.800781 78.035156 23.433594 74.699219 C 20.066406 71.367188 17.398438 67.367188 15.433594 62.699219 C 13.464844 58.035156 12.464844 53.234375 12.464844 48.132812 Z M 16.464844 48.132812 C 16.464844 52.699219 17.367188 57.035156 19.132812 61.167969 C 20.898438 65.300781 23.300781 68.867188 26.300781 71.867188 C 29.300781 74.867188 32.867188 77.234375 37 79.035156 C 41.132812 80.832031 45.464844 81.699219 50 81.699219 C 51.101562 81.699219 51.933594 81.699219 52.433594 81.667969 C 55.035156 79.632812 57.234375 77.300781 58.964844 74.632812 C 60.699219 71.964844 62.035156 69.101562 62.898438 66.066406 C 63.765625 63.035156 64.367188 60.101562 64.699219 57.300781 C 65.035156 54.5 65.199219 51.464844 65.199219 48.167969 C 65.199219 41.800781 64.132812 35.632812 61.964844 29.699219 C 59.800781 23.765625 56.464844 18.765625 51.898438 14.734375 C 51.464844 14.699219 50.832031 14.699219 49.933594 14.699219 C 45.398438 14.699219 41.066406 15.601562 36.933594 17.367188 C 32.800781 19.132812 29.300781 21.464844 26.300781 24.464844 C 23.300781 27.464844 20.933594 31.035156 19.132812 35.167969 C 17.332031 39.300781 16.464844 43.632812 16.464844 48.132812 Z M 16.464844 48.132812 "/>
</g>
</svg>
