<?xml version="1.0" encoding="UTF-8"?>
<svg xmlns="http://www.w3.org/2000/svg" xmlns:xlink="http://www.w3.org/1999/xlink" width="100px" height="100px" viewBox="0 0 100 100" version="1.1">
<g id="surface1">
<path style=" stroke:none;fill-rule:nonzero;fill:rgb(0%,0%,0%);fill-opacity:1;" d="M 12.464844 48.132812 C 12.464844 43.035156 13.464844 38.132812 15.433594 33.5 C 17.398438 28.867188 20.101562 24.867188 23.433594 21.5 C 26.765625 18.132812 30.765625 15.464844 35.433594 13.5 C 40.101562 11.535156 44.933594 10.535156 50 10.535156 C 55.101562 10.535156 60 11.535156 64.632812 13.5 C 69.265625 15.464844 73.265625 18.167969 76.632812 21.5 C 80 24.832031 82.667969 28.832031 84.632812 33.5 C 86.601562 38.167969 87.601562 43 87.601562 48.132812 C 87.601562 53.199219 86.601562 58.066406 84.632812 62.699219 C 82.667969 67.332031 79.964844 71.332031 76.632812 74.699219 C 73.300781 78.066406 69.300781 80.734375 64.632812 82.699219 C 59.964844 84.667969 55.132812 85.667969 50 85.667969 C 44.933594 85.667969 40.066406 84.667969 35.433594 82.699219 C 30.800781 80.734375 26.800781 78.035156 23.433594 74.699219 C 20.066406 71.367188 17.398438 67.367188 15.433594 62.699219 C 13.464844 58.035156 12.464844 53.234375 12.464844 48.132812 Z M 30.433594 48.101562 C 30.433594 63.699219 35.367188 74.765625 45.265625 81.367188 C 46.734375 81.601562 48.300781 81.699219 50 81.699219 C 54.566406 81.699219 58.898438 80.800781 63.035156 79.035156 C 67.167969 77.265625 70.734375 74.867188 73.765625 71.867188 C 76.800781 68.867188 79.167969 65.300781 80.933594 61.132812 C 82.699219 56.964844 83.601562 52.632812 83.601562 48.132812 C 83.601562 42.066406 82.101562 36.464844 79.101562 31.300781 C 76.101562 26.132812 72 22.066406 66.832031 19.035156 C 61.667969 16 56.066406 14.535156 50 14.535156 C 48.5 14.535156 47.199219 14.601562 46.035156 14.734375 C 41.367188 18.265625 37.601562 22.933594 34.734375 28.734375 C 31.867188 34.535156 30.433594 40.964844 30.433594 48.101562 Z M 30.433594 48.101562 "/>
</g>
</svg>
