<?xml version="1.0" encoding="UTF-8"?>
<svg xmlns="http://www.w3.org/2000/svg" xmlns:xlink="http://www.w3.org/1999/xlink" width="100px" height="100px" viewBox="0 0 100 100" version="1.1">
<g id="surface1">
<path style=" stroke:none;fill-rule:nonzero;fill:rgb(0%,0%,0%);fill-opacity:1;" d="M 12.5 48.132812 C 12.5 43.066406 13.5 38.199219 15.464844 33.566406 C 17.433594 28.933594 20.132812 24.964844 23.464844 21.601562 C 26.800781 18.234375 30.800781 15.566406 35.433594 13.601562 C 40.066406 11.632812 44.933594 10.632812 50 10.632812 C 55.066406 10.632812 59.933594 11.632812 64.566406 13.601562 C 69.199219 15.566406 73.199219 18.265625 76.566406 21.601562 C 79.933594 24.933594 82.601562 28.933594 84.566406 33.566406 C 86.535156 38.199219 87.535156 43.035156 87.535156 48.132812 C 87.535156 53.234375 86.535156 58.066406 84.566406 62.699219 C 82.601562 67.332031 79.898438 71.332031 76.566406 74.699219 C 73.234375 78.066406 69.234375 80.734375 64.566406 82.699219 C 59.898438 84.667969 55.066406 85.667969 50 85.667969 C 44.933594 85.667969 40.066406 84.667969 35.433594 82.699219 C 30.800781 80.734375 26.832031 78.035156 23.464844 74.699219 C 20.101562 71.367188 17.433594 67.367188 15.464844 62.699219 C 13.5 58.035156 12.5 53.234375 12.5 48.132812 Z M 51.167969 14.632812 C 54.667969 18.867188 57.535156 23.800781 59.734375 29.433594 C 61.933594 35.066406 63.035156 41.300781 63.035156 48.132812 C 63.035156 62.765625 59.234375 73.964844 51.601562 81.667969 C 55.964844 81.464844 60.101562 80.433594 64.066406 78.601562 C 68.035156 76.765625 71.398438 74.332031 74.234375 71.332031 C 77.066406 68.332031 79.332031 64.832031 81.035156 60.800781 C 82.734375 56.765625 83.535156 52.535156 83.535156 48.101562 C 83.535156 42.167969 82.101562 36.667969 79.199219 31.632812 C 76.300781 26.601562 72.398438 22.535156 67.433594 19.464844 C 62.464844 16.398438 57.066406 14.832031 51.167969 14.632812 Z M 51.167969 14.632812 "/>
</g>
</svg>
