<?xml version="1.0" encoding="UTF-8"?>
<svg xmlns="http://www.w3.org/2000/svg" xmlns:xlink="http://www.w3.org/1999/xlink" width="100px" height="100px" viewBox="0 0 100 100" version="1.1">
<g id="surface1">
<path style=" stroke:none;fill-rule:nonzero;fill:rgb(0%,0%,0%);fill-opacity:1;" d="M 12.464844 48.132812 C 12.464844 43.035156 13.464844 38.132812 15.433594 33.5 C 17.398438 28.867188 20.101562 24.867188 23.433594 21.5 C 26.765625 18.132812 30.765625 15.464844 35.433594 13.5 C 40.101562 11.535156 44.933594 10.535156 50 10.535156 C 55.101562 10.535156 60 11.535156 64.632812 13.5 C 69.265625 15.464844 73.265625 18.167969 76.632812 21.5 C 80 24.832031 82.667969 28.832031 84.632812 33.5 C 86.601562 38.167969 87.601562 43 87.601562 48.132812 C 87.601562 53.199219 86.601562 58.066406 84.632812 62.699219 C 82.667969 67.332031 79.964844 71.332031 76.632812 74.699219 C 73.300781 78.066406 69.300781 80.734375 64.632812 82.699219 C 59.964844 84.667969 55.132812 85.667969 50 85.667969 C 44.933594 85.667969 40.066406 84.667969 35.433594 82.699219 C 30.800781 80.734375 26.800781 78.035156 23.433594 74.699219 C 20.066406 71.367188 17.398438 67.367188 15.433594 62.699219 C 13.464844 58.035156 12.464844 53.234375 12.464844 48.132812 Z M 25.699219 48.132812 C 25.699219 64 31.234375 74.867188 42.265625 80.765625 C 44.699219 81.398438 47.300781 81.699219 50.035156 81.699219 C 54.601562 81.699219 58.933594 80.800781 63.066406 79.035156 C 67.199219 77.265625 70.765625 74.867188 73.800781 71.867188 C 76.832031 68.867188 79.199219 65.300781 80.964844 61.132812 C 82.734375 56.964844 83.632812 52.632812 83.632812 48.132812 C 83.632812 42.066406 82.132812 36.464844 79.132812 31.300781 C 76.132812 26.132812 72.035156 22.066406 66.867188 19.035156 C 61.699219 16 56.101562 14.535156 50.035156 14.535156 C 47.765625 14.535156 45.699219 14.699219 43.867188 15.066406 C 38.433594 18.199219 34.035156 22.632812 30.699219 28.367188 C 27.367188 34.101562 25.699219 40.734375 25.699219 48.132812 Z M 25.699219 48.132812 "/>
</g>
</svg>
