<?xml version="1.0" encoding="UTF-8"?>
<svg xmlns="http://www.w3.org/2000/svg" xmlns:xlink="http://www.w3.org/1999/xlink" width="100px" height="100px" viewBox="0 0 100 100" version="1.1">
<g id="surface1">
<path style=" stroke:none;fill-rule:nonzero;fill:rgb(0%,0%,0%);fill-opacity:1;" d="M 28.601562 48.101562 C 28.601562 51.535156 28.800781 54.667969 29.199219 57.535156 C 29.601562 60.398438 30.265625 63.300781 31.265625 66.167969 C 32.265625 69.035156 33.566406 71.667969 35.132812 73.964844 C 36.699219 76.265625 38.800781 78.464844 41.300781 80.5 C 43.800781 82.535156 46.734375 84.234375 50.066406 85.667969 C 55.167969 85.667969 60.035156 84.667969 64.667969 82.699219 C 69.300781 80.734375 73.265625 78.035156 76.632812 74.699219 C 80 71.367188 82.667969 67.367188 84.632812 62.699219 C 86.601562 58.035156 87.601562 53.199219 87.601562 48.066406 C 87.601562 41.265625 85.933594 34.964844 82.566406 29.234375 C 79.199219 23.5 74.667969 18.898438 68.898438 15.566406 C 63.132812 12.234375 56.867188 10.535156 50.066406 10.535156 C 43.433594 13.867188 38.199219 18.898438 34.332031 25.699219 C 30.464844 32.5 28.601562 39.964844 28.601562 48.101562 Z M 28.601562 48.101562 "/>
</g>
</svg>
