<?xml version="1.0" encoding="UTF-8"?>
<svg xmlns="http://www.w3.org/2000/svg" xmlns:xlink="http://www.w3.org/1999/xlink" width="100px" height="100px" viewBox="0 0 100 100" version="1.1">
<g id="surface1">
<path style=" stroke:none;fill-rule:nonzero;fill:rgb(0%,0%,0%);fill-opacity:1;" d="M 14.300781 56.433594 C 14.300781 58.632812 14.699219 60.699219 15.566406 62.699219 C 16.433594 64.699219 17.535156 66.398438 18.964844 67.867188 C 20.398438 69.332031 22.101562 70.5 24.035156 71.367188 C 25.964844 72.234375 28.066406 72.765625 30.265625 72.867188 C 30.667969 72.867188 30.867188 72.667969 30.867188 72.300781 L 30.867188 67.832031 C 30.867188 67.464844 30.667969 67.265625 30.265625 67.265625 C 27.367188 67.066406 24.933594 65.898438 22.964844 63.832031 C 21 61.765625 20 59.265625 20 56.433594 C 20 53.632812 20.933594 51.199219 22.832031 49.167969 C 24.734375 47.101562 27.035156 45.933594 29.832031 45.699219 L 31.566406 45.5 C 31.964844 45.5 32.199219 45.300781 32.199219 44.898438 L 32.464844 43.167969 C 32.699219 40.800781 33.464844 38.632812 34.765625 36.699219 C 36.066406 34.765625 37.765625 33.234375 39.832031 32.167969 C 41.898438 31.101562 44.132812 30.535156 46.566406 30.535156 C 50.199219 30.535156 53.367188 31.734375 56.066406 34.132812 C 58.765625 36.535156 60.300781 39.535156 60.699219 43.101562 L 60.933594 45.035156 C 60.933594 45.398438 61.132812 45.601562 61.566406 45.601562 L 66.898438 45.601562 C 69.898438 45.601562 72.464844 46.667969 74.632812 48.800781 C 76.765625 50.933594 77.867188 53.464844 77.867188 56.433594 C 77.867188 59.300781 76.867188 61.765625 74.898438 63.832031 C 72.933594 65.898438 70.464844 67.066406 67.601562 67.265625 C 67.167969 67.265625 66.933594 67.464844 66.933594 67.832031 L 66.933594 72.300781 C 66.933594 72.667969 67.167969 72.867188 67.601562 72.867188 C 72.066406 72.667969 75.832031 70.964844 78.867188 67.832031 C 81.800781 64.667969 83.332031 60.867188 83.332031 56.433594 C 83.332031 54.300781 82.800781 52.035156 81.765625 49.566406 C 84.398438 46.265625 85.734375 42.632812 85.734375 38.667969 C 85.734375 35.5 84.933594 32.566406 83.367188 29.898438 C 81.800781 27.199219 79.667969 25.101562 77 23.535156 C 74.332031 21.964844 71.398438 21.199219 68.265625 21.199219 C 62.964844 21.199219 58.667969 23.132812 55.367188 26.964844 C 52.667969 25.535156 49.699219 24.832031 46.5 24.832031 C 41.800781 24.832031 37.632812 26.300781 34 29.234375 C 30.367188 32.167969 28.035156 35.898438 27 40.464844 C 23.265625 41.332031 20.234375 43.234375 17.867188 46.199219 C 15.464844 49.167969 14.300781 52.566406 14.300781 56.433594 Z M 39.800781 71.832031 C 39.734375 72.300781 39.867188 72.535156 40.265625 72.535156 L 47.5 72.535156 L 43.101562 86.433594 L 44.066406 86.433594 L 58 67.832031 C 58.132812 67.699219 58.167969 67.535156 58.066406 67.367188 C 57.964844 67.199219 57.832031 67.132812 57.601562 67.132812 L 50.332031 67.132812 L 58 53 C 58.234375 52.535156 58.101562 52.265625 57.535156 52.265625 L 47.734375 52.265625 C 47.464844 52.265625 47.265625 52.433594 47.035156 52.734375 Z M 60 30.167969 C 62.234375 27.964844 64.964844 26.867188 68.234375 26.867188 C 71.5 26.867188 74.265625 28 76.566406 30.300781 C 78.867188 32.566406 80 35.367188 80 38.667969 C 80 40.632812 79.433594 42.632812 78.265625 44.667969 C 75.035156 41.566406 71.199219 40 66.765625 40 L 65.734375 40 C 64.800781 36.035156 62.867188 32.765625 60 30.167969 Z M 60 30.167969 "/>
</g>
</svg>
