<?xml version="1.0" encoding="UTF-8"?>
<svg xmlns="http://www.w3.org/2000/svg" xmlns:xlink="http://www.w3.org/1999/xlink" width="100px" height="100px" viewBox="0 0 100 100" version="1.1">
<g id="surface1">
<path style=" stroke:none;fill-rule:nonzero;fill:rgb(0%,0%,0%);fill-opacity:1;" d="M 14.199219 56.433594 C 14.199219 58.632812 14.601562 60.699219 15.464844 62.699219 C 16.332031 64.699219 17.433594 66.398438 18.867188 67.867188 C 20.300781 69.300781 22 70.5 23.964844 71.367188 C 25.933594 72.234375 28 72.765625 30.199219 72.867188 C 30.566406 72.867188 30.765625 72.667969 30.765625 72.300781 L 30.765625 67.832031 C 30.765625 67.464844 30.566406 67.265625 30.199219 67.265625 C 27.300781 67.066406 24.867188 65.898438 22.898438 63.832031 C 20.933594 61.765625 19.933594 59.265625 19.933594 56.433594 C 19.933594 53.632812 20.867188 51.199219 22.765625 49.132812 C 24.667969 47.066406 26.964844 45.898438 29.765625 45.667969 L 31.535156 45.464844 C 31.964844 45.464844 32.199219 45.265625 32.199219 44.832031 L 32.398438 43.132812 C 32.765625 39.5 34.265625 36.5 36.964844 34.101562 C 39.667969 31.699219 42.832031 30.5 46.5 30.5 C 50.132812 30.5 53.332031 31.699219 56 34.066406 C 58.699219 36.464844 60.234375 39.433594 60.601562 43.035156 L 60.832031 44.964844 C 60.832031 45.367188 61.035156 45.566406 61.464844 45.566406 L 66.800781 45.566406 C 69.800781 45.566406 72.367188 46.632812 74.535156 48.765625 C 76.699219 50.898438 77.765625 53.433594 77.765625 56.398438 C 77.765625 59.265625 76.765625 61.734375 74.800781 63.800781 C 72.832031 65.867188 70.367188 67.035156 67.5 67.234375 C 67.066406 67.234375 66.832031 67.433594 66.832031 67.800781 L 66.832031 72.265625 C 66.832031 72.632812 67.066406 72.832031 67.5 72.832031 C 71.964844 72.632812 75.734375 70.933594 78.800781 67.800781 C 81.867188 64.632812 83.398438 60.832031 83.398438 56.398438 C 83.398438 54 82.933594 51.800781 82 49.765625 C 84.601562 46.632812 85.898438 42.898438 85.898438 38.566406 C 85.898438 35.433594 85.132812 32.535156 83.566406 29.832031 C 82 27.132812 79.867188 25 77.199219 23.433594 C 74.535156 21.867188 71.601562 21.066406 68.464844 21.066406 C 63.265625 21.066406 58.964844 23 55.535156 26.832031 C 52.601562 25.398438 49.601562 24.667969 46.535156 24.667969 C 41.832031 24.667969 37.667969 26.132812 34.035156 29.066406 C 30.398438 32 28.066406 35.734375 27.035156 40.332031 C 23.367188 41.199219 20.332031 43.101562 17.933594 46.101562 C 15.398438 49.199219 14.199219 52.601562 14.199219 56.433594 Z M 32.5 78.699219 C 32.5 80.035156 33.234375 80.898438 34.667969 81.300781 C 35.367188 81.535156 36.066406 81.464844 36.765625 81.101562 C 37.464844 80.734375 37.933594 80.167969 38.132812 79.433594 L 43.132812 60.332031 C 43.332031 59.601562 43.234375 58.898438 42.832031 58.234375 C 42.433594 57.566406 41.832031 57.132812 41.035156 56.898438 C 40.300781 56.667969 39.601562 56.734375 38.933594 57.132812 C 38.265625 57.535156 37.832031 58.101562 37.632812 58.867188 L 32.632812 77.867188 C 32.535156 78.234375 32.5 78.5 32.5 78.699219 Z M 41.132812 88.867188 C 41.132812 89.265625 41.234375 89.667969 41.398438 90.101562 C 41.734375 90.800781 42.300781 91.265625 43.101562 91.535156 C 43.167969 91.535156 43.300781 91.535156 43.433594 91.566406 C 43.566406 91.601562 43.699219 91.601562 43.800781 91.601562 C 43.898438 91.601562 44 91.601562 44.101562 91.601562 C 45.535156 91.601562 46.367188 90.867188 46.632812 89.398438 L 54.300781 60.265625 C 54.535156 59.535156 54.464844 58.832031 54.101562 58.167969 C 53.734375 57.5 53.167969 57.066406 52.433594 56.832031 C 51.632812 56.601562 50.867188 56.667969 50.167969 57.066406 C 49.464844 57.464844 49.066406 58.035156 48.898438 58.800781 L 41.199219 87.964844 C 41.167969 88.300781 41.132812 88.601562 41.132812 88.867188 Z M 55 78.667969 C 55 79.199219 55.167969 79.699219 55.535156 80.234375 C 55.898438 80.765625 56.398438 81.101562 57.035156 81.300781 C 57.234375 81.367188 57.5 81.398438 57.800781 81.398438 C 58.367188 81.398438 58.898438 81.234375 59.433594 80.933594 C 59.964844 80.632812 60.300781 80.132812 60.5 79.433594 L 65.5 60.332031 C 65.765625 59.632812 65.667969 58.964844 65.265625 58.265625 C 64.867188 57.566406 64.300781 57.132812 63.535156 56.898438 C 62.734375 56.667969 62 56.734375 61.332031 57.132812 C 60.667969 57.535156 60.265625 58.101562 60.132812 58.867188 L 55.132812 77.867188 C 55.035156 78.234375 55 78.5 55 78.667969 Z M 60.101562 30.265625 C 62.332031 28.035156 65.066406 26.933594 68.367188 26.933594 C 71.632812 26.933594 74.398438 28.066406 76.667969 30.332031 C 78.964844 32.601562 80.101562 35.367188 80.101562 38.601562 C 80.101562 40.699219 79.535156 42.734375 78.367188 44.765625 C 75.199219 41.601562 71.332031 40 66.734375 40 L 65.699219 40 C 64.765625 36.101562 62.898438 32.867188 60.101562 30.265625 Z M 60.101562 30.265625 "/>
</g>
</svg>
