<?xml version="1.0" encoding="UTF-8"?>
<svg xmlns="http://www.w3.org/2000/svg" xmlns:xlink="http://www.w3.org/1999/xlink" width="100px" height="100px" viewBox="0 0 100 100" version="1.1">
<g id="surface1">
<path style=" stroke:none;fill-rule:nonzero;fill:rgb(0%,0%,0%);fill-opacity:1;" d="M 13.566406 56.433594 C 13.566406 60.867188 15.132812 64.667969 18.234375 67.867188 C 21.332031 71.066406 25.132812 72.765625 29.566406 72.898438 C 29.964844 72.898438 30.167969 72.699219 30.167969 72.332031 L 30.167969 67.867188 C 30.167969 67.5 29.964844 67.300781 29.566406 67.300781 C 26.734375 67.167969 24.300781 66 22.300781 63.867188 C 20.300781 61.734375 19.265625 59.234375 19.265625 56.433594 C 19.265625 53.601562 20.199219 51.132812 22.101562 49.066406 C 24 47 26.332031 45.832031 29.101562 45.601562 L 30.867188 45.367188 C 31.300781 45.367188 31.535156 45.167969 31.535156 44.765625 L 31.765625 43.066406 C 32.132812 39.398438 33.632812 36.332031 36.332031 33.898438 C 39.035156 31.464844 42.199219 30.234375 45.867188 30.234375 C 49.5 30.234375 52.667969 31.464844 55.398438 33.898438 C 58.132812 36.332031 59.699219 39.367188 60.066406 42.964844 L 60.300781 44.867188 C 60.300781 45.265625 60.5 45.5 60.867188 45.5 L 66.265625 45.5 C 69.300781 45.5 71.867188 46.566406 74.035156 48.734375 C 76.199219 50.867188 77.265625 53.433594 77.265625 56.433594 C 77.265625 58.265625 76.800781 60 75.898438 61.632812 C 75 63.265625 73.734375 64.601562 72.132812 65.632812 C 70.535156 66.667969 68.800781 67.234375 66.933594 67.332031 C 66.5 67.332031 66.265625 67.535156 66.265625 67.898438 L 66.265625 72.367188 C 66.265625 72.734375 66.5 72.933594 66.933594 72.933594 C 69.867188 72.867188 72.566406 72.066406 75 70.566406 C 77.433594 69.066406 79.367188 67.066406 80.765625 64.566406 C 82.167969 62.066406 82.867188 59.367188 82.867188 56.464844 C 82.867188 53.535156 82.101562 50.734375 80.601562 48.101562 C 83.367188 45.632812 85.132812 42.699219 85.867188 39.367188 L 86.332031 37.101562 C 86.398438 37.035156 86.433594 36.964844 86.433594 36.867188 C 86.433594 36.667969 86.234375 36.5 85.867188 36.332031 L 84.035156 35.734375 C 82.132812 35.167969 80.464844 34.234375 79.132812 32.898438 C 77.765625 31.566406 76.800781 30.199219 76.234375 28.734375 C 75.667969 27.300781 75.367188 25.867188 75.367188 24.433594 C 75.300781 23.734375 75.398438 22.800781 75.667969 21.699219 L 76.101562 19.765625 C 76.234375 19.433594 76.101562 19.167969 75.667969 19 L 73 18.199219 C 71.632812 17.832031 70.199219 17.632812 68.699219 17.632812 C 67.5 17.632812 66.234375 17.765625 64.964844 18.066406 C 63.699219 18.367188 62.367188 18.800781 61 19.433594 C 59.632812 20.066406 58.300781 20.964844 57 22.132812 C 55.699219 23.300781 54.601562 24.667969 53.667969 26.234375 C 50.964844 25.199219 48.332031 24.699219 45.832031 24.699219 C 41.132812 24.699219 36.933594 26.167969 33.300781 29.101562 C 29.667969 32.035156 27.300781 35.765625 26.265625 40.332031 C 22.535156 41.300781 19.464844 43.265625 17.101562 46.234375 C 14.734375 49.132812 13.566406 52.566406 13.566406 56.433594 Z M 31.601562 79.933594 C 31.601562 80.5 31.765625 81.066406 32.132812 81.632812 C 32.5 82.199219 33.035156 82.566406 33.699219 82.800781 C 34.464844 83.035156 35.167969 83 35.832031 82.667969 C 36.5 82.332031 36.898438 81.734375 37.132812 80.800781 L 37.601562 78.765625 C 37.765625 78 37.667969 77.300781 37.300781 76.667969 C 36.933594 76 36.367188 75.566406 35.566406 75.332031 C 34.800781 75.101562 34.101562 75.199219 33.433594 75.601562 C 32.765625 76 32.300781 76.601562 32.101562 77.367188 L 31.667969 79.300781 C 31.601562 79.433594 31.601562 79.632812 31.601562 79.933594 Z M 34.132812 70.265625 C 34.132812 70.964844 34.398438 71.601562 34.964844 72.167969 C 35.5 72.734375 36.101562 73 36.832031 73 C 37.632812 73 38.300781 72.734375 38.832031 72.199219 C 39.367188 71.667969 39.632812 71.035156 39.632812 70.234375 C 39.632812 69.464844 39.367188 68.800781 38.832031 68.265625 C 38.300781 67.734375 37.632812 67.464844 36.832031 67.464844 C 36.066406 67.464844 35.398438 67.734375 34.898438 68.234375 C 34.398438 68.734375 34.132812 69.5 34.132812 70.265625 Z M 36.167969 62.699219 C 36.132812 63.234375 36.265625 63.734375 36.632812 64.199219 C 36.964844 64.699219 37.5 65.035156 38.234375 65.265625 C 38.933594 65.464844 39.601562 65.398438 40.300781 65.035156 C 41 64.667969 41.433594 64.101562 41.667969 63.332031 L 42.601562 60.332031 C 42.832031 59.535156 42.765625 58.800781 42.367188 58.167969 C 41.964844 57.535156 41.367188 57.101562 40.566406 56.867188 C 39.832031 56.632812 39.132812 56.699219 38.464844 57.101562 C 37.800781 57.464844 37.332031 58.035156 37.101562 58.765625 L 36.300781 61.832031 C 36.300781 61.898438 36.265625 62.035156 36.234375 62.234375 C 36.167969 62.398438 36.167969 62.566406 36.167969 62.699219 Z M 40.035156 90.332031 C 40.035156 90.933594 40.199219 91.464844 40.535156 92 C 40.867188 92.535156 41.398438 92.898438 42.132812 93.101562 C 42.398438 93.167969 42.699219 93.199219 42.964844 93.199219 C 44.398438 93.199219 45.265625 92.535156 45.601562 91.167969 L 46.066406 89.199219 C 46.265625 88.332031 46.167969 87.601562 45.800781 86.933594 C 45.433594 86.265625 44.832031 85.867188 44.066406 85.699219 C 43.367188 85.464844 42.667969 85.535156 41.964844 85.933594 C 41.265625 86.332031 40.832031 86.898438 40.601562 87.632812 L 40.132812 89.601562 C 40.066406 89.898438 40.035156 90.132812 40.035156 90.332031 Z M 42.632812 80.667969 C 42.632812 81.398438 42.898438 82.035156 43.464844 82.601562 C 44 83.132812 44.632812 83.398438 45.367188 83.398438 C 46.167969 83.398438 46.800781 83.132812 47.332031 82.632812 C 47.867188 82.101562 48.101562 81.464844 48.101562 80.667969 C 48.101562 79.898438 47.832031 79.265625 47.332031 78.734375 C 46.832031 78.199219 46.167969 77.964844 45.367188 77.964844 C 44.566406 77.964844 43.933594 78.234375 43.398438 78.734375 C 42.898438 79.234375 42.632812 79.898438 42.632812 80.667969 Z M 44.734375 73.101562 C 44.699219 73.601562 44.832031 74.132812 45.167969 74.667969 C 45.5 75.199219 46 75.535156 46.667969 75.667969 C 47.433594 75.867188 48.132812 75.800781 48.800781 75.464844 C 49.433594 75.132812 49.898438 74.5 50.167969 73.601562 L 51.066406 70.601562 C 51.300781 69.867188 51.234375 69.167969 50.832031 68.5 C 50.433594 67.832031 49.867188 67.398438 49.066406 67.167969 C 48.332031 66.933594 47.632812 67.035156 46.933594 67.433594 C 46.234375 67.832031 45.800781 68.433594 45.566406 69.199219 L 44.832031 72.199219 C 44.765625 72.464844 44.734375 72.765625 44.734375 73.101562 Z M 53.898438 80.265625 C 53.898438 80.800781 54.066406 81.332031 54.398438 81.867188 C 54.734375 82.398438 55.265625 82.765625 55.933594 82.964844 C 56.035156 82.964844 56.199219 83 56.398438 83.035156 C 56.601562 83.066406 56.734375 83.101562 56.867188 83.101562 C 58.234375 83.101562 59.066406 82.367188 59.398438 80.898438 L 59.867188 78.898438 C 60.101562 78.199219 60.035156 77.5 59.632812 76.800781 C 59.265625 76.101562 58.699219 75.667969 57.933594 75.433594 C 57.101562 75.234375 56.332031 75.300781 55.667969 75.699219 C 55 76.101562 54.535156 76.667969 54.300781 77.464844 L 54 79.433594 C 54 79.5 53.964844 79.667969 53.933594 79.832031 C 53.933594 80 53.898438 80.132812 53.898438 80.265625 Z M 56.367188 70.398438 C 56.367188 71.132812 56.632812 71.800781 57.199219 72.300781 C 57.699219 72.832031 58.332031 73.101562 59.101562 73.101562 C 59.898438 73.101562 60.535156 72.832031 61.066406 72.332031 C 61.601562 71.832031 61.832031 71.167969 61.832031 70.398438 C 61.832031 69.601562 61.566406 68.964844 61.066406 68.433594 C 60.566406 67.898438 59.898438 67.667969 59.101562 67.667969 C 58.300781 67.667969 57.667969 67.933594 57.132812 68.433594 C 56.601562 68.933594 56.367188 69.601562 56.367188 70.398438 Z M 58.398438 62.699219 C 58.398438 63.265625 58.566406 63.800781 58.933594 64.300781 C 59.300781 64.800781 59.832031 65.167969 60.566406 65.367188 C 60.632812 65.367188 60.765625 65.398438 60.964844 65.433594 C 61.167969 65.464844 61.332031 65.5 61.433594 65.5 C 61.765625 65.5 62.167969 65.398438 62.632812 65.199219 C 63.332031 64.832031 63.800781 64.234375 64 63.464844 L 64.800781 60.464844 C 65 59.699219 64.933594 59 64.535156 58.367188 C 64.167969 57.699219 63.601562 57.265625 62.832031 57.035156 C 62.066406 56.800781 61.367188 56.867188 60.699219 57.234375 C 60.035156 57.601562 59.632812 58.132812 59.398438 58.933594 L 58.464844 61.964844 C 58.464844 62.035156 58.433594 62.167969 58.398438 62.367188 C 58.433594 62.464844 58.398438 62.601562 58.398438 62.699219 Z M 58.632812 29.199219 C 59.699219 27.265625 61.167969 25.800781 63 24.734375 C 64.867188 23.667969 66.765625 23.167969 68.765625 23.199219 C 69.066406 23.199219 69.398438 23.234375 69.765625 23.300781 L 69.765625 24.332031 C 69.734375 27.601562 70.601562 30.667969 72.332031 33.535156 C 74.101562 36.398438 76.566406 38.535156 79.734375 40 C 79.101562 41.367188 78.199219 42.601562 77.066406 43.699219 C 74 41.167969 70.398438 39.898438 66.300781 39.898438 L 65.265625 39.898438 C 64.234375 35.535156 62.035156 31.964844 58.632812 29.199219 Z M 58.632812 29.199219 "/>
</g>
</svg>
