<?xml version="1.0" encoding="UTF-8"?>
<svg xmlns="http://www.w3.org/2000/svg" xmlns:xlink="http://www.w3.org/1999/xlink" width="100px" height="100px" viewBox="0 0 100 100" version="1.1">
<g id="surface1">
<path style=" stroke:none;fill-rule:nonzero;fill:rgb(0%,0%,0%);fill-opacity:1;" d="M 9.933594 70.066406 C 9.933594 70.832031 10.234375 71.5 10.832031 72.066406 C 11.398438 72.632812 12.066406 72.898438 12.867188 72.898438 L 32 72.898438 C 32.867188 72.898438 33.632812 73.234375 34.300781 73.867188 C 34.964844 74.5 35.300781 75.265625 35.300781 76.132812 C 35.300781 77.035156 34.964844 77.800781 34.300781 78.433594 C 33.632812 79.066406 32.867188 79.398438 32 79.398438 C 31.132812 79.398438 30.398438 79.066406 29.734375 78.398438 C 29.132812 77.867188 28.464844 77.601562 27.699219 77.601562 C 26.898438 77.601562 26.234375 77.867188 25.699219 78.398438 C 25.167969 78.933594 24.898438 79.601562 24.898438 80.398438 C 24.898438 81.132812 25.167969 81.800781 25.699219 82.398438 C 27.433594 84.167969 29.566406 85.035156 32 85.035156 C 34.433594 85.035156 36.566406 84.167969 38.300781 82.433594 C 40.035156 80.699219 40.898438 78.601562 40.898438 76.132812 C 40.898438 73.667969 40.035156 71.566406 38.300781 69.832031 C 36.566406 68.101562 34.464844 67.199219 32 67.199219 L 12.867188 67.199219 C 12.066406 67.199219 11.398438 67.5 10.800781 68.066406 C 10.234375 68.632812 9.933594 69.300781 9.933594 70.066406 Z M 9.933594 60 C 9.933594 60.734375 10.234375 61.367188 10.832031 61.933594 C 11.398438 62.464844 12.101562 62.734375 12.867188 62.734375 L 49.035156 62.734375 C 51.5 62.734375 53.601562 61.867188 55.332031 60.132812 C 57.066406 58.398438 57.933594 56.300781 57.933594 53.867188 C 57.933594 51.398438 57.066406 49.332031 55.332031 47.601562 C 53.601562 45.867188 51.5 45.035156 49.035156 45.035156 C 46.5 45.035156 44.398438 45.867188 42.734375 47.566406 C 42.234375 48.101562 41.964844 48.765625 41.964844 49.601562 C 41.964844 50.433594 42.234375 51.101562 42.734375 51.601562 C 43.234375 52.101562 43.898438 52.367188 44.699219 52.367188 C 45.5 52.367188 46.167969 52.132812 46.765625 51.601562 C 47.398438 50.964844 48.167969 50.667969 49.035156 50.667969 C 49.898438 50.667969 50.632812 50.964844 51.265625 51.601562 C 51.898438 52.234375 52.234375 53 52.234375 53.867188 C 52.234375 54.734375 51.898438 55.5 51.265625 56.132812 C 50.632812 56.765625 49.867188 57.101562 49.035156 57.101562 L 12.867188 57.101562 C 12.066406 57.101562 11.398438 57.398438 10.800781 57.964844 C 10.234375 58.566406 9.933594 59.234375 9.933594 60 Z M 18.332031 52.167969 C 18.332031 52.464844 18.5 52.601562 18.867188 52.601562 L 23.667969 52.601562 C 23.933594 52.601562 24.167969 52.433594 24.398438 52.101562 C 25.132812 50.300781 26.300781 48.800781 27.898438 47.601562 C 29.464844 46.433594 31.234375 45.765625 33.167969 45.601562 L 34.898438 45.367188 C 35.300781 45.367188 35.535156 45.167969 35.535156 44.800781 L 35.800781 43.066406 C 36.167969 39.464844 37.699219 36.433594 40.398438 34.035156 C 43.101562 31.601562 46.300781 30.398438 49.933594 30.398438 C 53.566406 30.398438 56.765625 31.601562 59.433594 34.035156 C 62.132812 36.433594 63.667969 39.464844 64.035156 43.101562 L 64.265625 45.035156 C 64.265625 45.433594 64.464844 45.632812 64.898438 45.632812 L 70.300781 45.632812 C 73.332031 45.632812 75.898438 46.699219 78.035156 48.800781 C 80.167969 50.898438 81.234375 53.433594 81.234375 56.398438 C 81.234375 59.367188 80.167969 61.898438 78.035156 64.035156 C 75.898438 66.167969 73.332031 67.234375 70.332031 67.234375 L 47.300781 67.234375 C 46.933594 67.234375 46.734375 67.433594 46.734375 67.832031 L 46.734375 72.398438 C 46.734375 72.765625 46.933594 72.964844 47.300781 72.964844 L 70.332031 72.964844 C 73.300781 72.964844 76.066406 72.234375 78.601562 70.734375 C 81.132812 69.234375 83.132812 67.234375 84.601562 64.699219 C 86.066406 62.167969 86.832031 59.398438 86.832031 56.433594 C 86.832031 53.5 86.066406 50.734375 84.566406 48.167969 C 87 45.800781 88.667969 42.933594 89.601562 39.566406 L 90 37.265625 C 90.066406 37.199219 90.101562 37.132812 90.101562 37.035156 C 90.101562 36.898438 89.933594 36.699219 89.632812 36.5 L 87.632812 35.800781 C 84.832031 34.933594 82.699219 33.433594 81.234375 31.265625 C 79.765625 29.101562 79.035156 26.867188 79.035156 24.535156 C 79.035156 23.734375 79.132812 22.832031 79.332031 21.898438 L 79.765625 19.832031 C 79.832031 19.5 79.699219 19.234375 79.332031 19.101562 L 76.667969 18.300781 C 75.199219 17.933594 73.832031 17.765625 72.5 17.765625 C 71.265625 17.765625 70.035156 17.898438 68.765625 18.199219 C 67.5 18.5 66.199219 18.933594 64.832031 19.566406 C 63.5 20.167969 62.167969 21.066406 60.898438 22.234375 C 59.632812 23.398438 58.5 24.734375 57.566406 26.300781 C 55.199219 25.300781 52.632812 24.800781 49.832031 24.800781 C 45.132812 24.800781 40.964844 26.265625 37.332031 29.167969 C 33.699219 32.066406 31.433594 35.800781 30.433594 40.332031 C 27.566406 41 25.066406 42.367188 22.867188 44.433594 C 20.667969 46.5 19.167969 48.933594 18.332031 51.765625 L 18.332031 51.867188 C 18.367188 51.933594 18.332031 52.035156 18.332031 52.167969 Z M 62.433594 29.199219 C 63.464844 27.367188 64.898438 25.964844 66.734375 25 C 68.566406 24.035156 70.464844 23.535156 72.433594 23.535156 C 72.898438 23.535156 73.234375 23.535156 73.464844 23.566406 C 73.433594 23.867188 73.398438 24.265625 73.398438 24.765625 C 73.398438 27.898438 74.265625 30.933594 76.035156 33.800781 C 77.765625 36.667969 80.199219 38.832031 83.265625 40.265625 C 82.734375 41.535156 81.898438 42.667969 80.765625 43.699219 C 77.800781 41.167969 74.300781 39.898438 70.234375 39.898438 L 69.132812 39.898438 C 68.265625 35.699219 66.035156 32.132812 62.433594 29.199219 Z M 62.433594 29.199219 "/>
</g>
</svg>
