<?xml version="1.0" encoding="UTF-8"?>
<svg xmlns="http://www.w3.org/2000/svg" xmlns:xlink="http://www.w3.org/1999/xlink" width="100px" height="100px" viewBox="0 0 100 100" version="1.1">
<g id="surface1">
<path style=" stroke:none;fill-rule:nonzero;fill:rgb(0%,0%,0%);fill-opacity:1;" d="M 13.964844 56.367188 C 13.964844 59.265625 14.667969 61.964844 16.101562 64.464844 C 17.5 66.964844 19.464844 68.964844 21.898438 70.464844 C 24.332031 72 27.035156 72.800781 30 72.867188 C 30.398438 72.867188 30.632812 72.667969 30.632812 72.300781 L 30.632812 67.832031 C 30.632812 67.433594 30.433594 67.234375 30 67.234375 C 27.132812 67.101562 24.699219 65.933594 22.699219 63.800781 C 20.699219 61.667969 19.667969 59.167969 19.667969 56.332031 C 19.667969 53.5 20.601562 51.035156 22.5 48.964844 C 24.398438 46.898438 26.734375 45.734375 29.535156 45.5 L 31.265625 45.265625 C 31.699219 45.265625 31.933594 45.066406 31.933594 44.699219 L 32.167969 42.964844 C 32.535156 39.300781 34.066406 36.234375 36.765625 33.765625 C 39.464844 31.300781 42.667969 30.066406 46.332031 30.066406 C 49.964844 30.066406 53.132812 31.300781 55.867188 33.734375 C 58.601562 36.167969 60.132812 39.234375 60.535156 42.832031 L 60.800781 44.765625 C 60.800781 45.132812 61 45.332031 61.398438 45.332031 L 66.800781 45.332031 C 69.800781 45.332031 72.367188 46.398438 74.535156 48.566406 C 76.699219 50.734375 77.765625 53.300781 77.765625 56.300781 C 77.765625 59.132812 76.765625 61.632812 74.734375 63.765625 C 72.699219 65.898438 70.300781 67.035156 67.464844 67.199219 C 67.035156 67.199219 66.800781 67.398438 66.800781 67.800781 L 66.800781 72.265625 C 66.800781 72.632812 67.035156 72.832031 67.464844 72.832031 C 70.398438 72.765625 73.101562 71.964844 75.535156 70.433594 C 77.964844 68.933594 79.898438 66.933594 81.300781 64.433594 C 82.699219 61.933594 83.398438 59.234375 83.398438 56.332031 C 83.398438 53.898438 82.933594 51.667969 82 49.601562 C 84.699219 46.300781 86.035156 42.535156 86.035156 38.367188 C 86.035156 35.167969 85.234375 32.234375 83.667969 29.535156 C 82.101562 26.832031 79.964844 24.699219 77.265625 23.132812 C 74.566406 21.566406 71.632812 20.765625 68.464844 20.765625 C 66 20.765625 63.601562 21.265625 61.300781 22.300781 C 59.035156 23.433594 57.066406 24.832031 55.398438 26.667969 C 52.464844 25.234375 49.464844 24.5 46.367188 24.5 C 41.632812 24.5 37.433594 25.964844 33.765625 28.898438 C 30.101562 31.832031 27.734375 35.566406 26.699219 40.132812 C 22.964844 41.101562 19.898438 43.066406 17.5 46.066406 C 15.132812 49.066406 13.964844 52.5 13.964844 56.367188 Z M 31.734375 79.933594 C 31.734375 80.5 31.898438 81.066406 32.265625 81.632812 C 32.632812 82.199219 33.167969 82.566406 33.832031 82.800781 C 34.601562 83.035156 35.300781 83 35.964844 82.667969 C 36.601562 82.367188 37.035156 81.734375 37.265625 80.800781 L 37.734375 78.765625 C 37.898438 78 37.800781 77.300781 37.433594 76.667969 C 37.066406 76 36.5 75.566406 35.699219 75.332031 C 34.964844 75.101562 34.234375 75.199219 33.566406 75.601562 C 32.898438 76 32.433594 76.601562 32.234375 77.367188 L 31.765625 79.332031 C 31.765625 79.433594 31.734375 79.632812 31.734375 79.933594 Z M 34.265625 70.265625 C 34.265625 70.964844 34.535156 71.601562 35.101562 72.167969 C 35.632812 72.734375 36.234375 73 36.964844 73 C 37.765625 73 38.433594 72.734375 38.964844 72.199219 C 39.5 71.667969 39.765625 71.035156 39.765625 70.234375 C 39.765625 69.464844 39.5 68.800781 38.964844 68.265625 C 38.433594 67.734375 37.765625 67.464844 36.964844 67.464844 C 36.199219 67.464844 35.566406 67.734375 35.035156 68.234375 C 34.535156 68.832031 34.265625 69.5 34.265625 70.265625 Z M 36.300781 62.699219 C 36.265625 63.234375 36.398438 63.734375 36.765625 64.199219 C 37.101562 64.699219 37.632812 65.035156 38.367188 65.265625 C 39.066406 65.464844 39.734375 65.398438 40.433594 65.035156 C 41.132812 64.667969 41.566406 64.101562 41.800781 63.332031 L 42.734375 60.332031 C 42.964844 59.535156 42.898438 58.800781 42.5 58.167969 C 42.101562 57.535156 41.5 57.101562 40.699219 56.867188 C 39.964844 56.632812 39.265625 56.699219 38.601562 57.101562 C 37.933594 57.464844 37.464844 58.035156 37.234375 58.765625 L 36.433594 61.832031 C 36.433594 61.898438 36.398438 62.035156 36.367188 62.234375 C 36.332031 62.398438 36.300781 62.566406 36.300781 62.699219 Z M 40.167969 90.332031 C 40.167969 90.933594 40.332031 91.464844 40.667969 92 C 41 92.535156 41.535156 92.898438 42.265625 93.101562 C 42.535156 93.167969 42.832031 93.199219 43.101562 93.199219 C 44.535156 93.199219 45.398438 92.535156 45.734375 91.167969 L 46.199219 89.199219 C 46.398438 88.332031 46.300781 87.601562 45.933594 86.933594 C 45.566406 86.265625 44.964844 85.867188 44.199219 85.699219 C 43.5 85.464844 42.800781 85.535156 42.101562 85.933594 C 41.398438 86.332031 40.964844 86.898438 40.734375 87.632812 L 40.265625 89.601562 C 40.199219 89.898438 40.167969 90.132812 40.167969 90.332031 Z M 42.765625 80.667969 C 42.765625 81.398438 43.035156 82.035156 43.601562 82.601562 C 44.132812 83.132812 44.765625 83.398438 45.5 83.398438 C 46.300781 83.398438 46.933594 83.132812 47.464844 82.632812 C 48 82.101562 48.234375 81.464844 48.234375 80.667969 C 48.234375 79.898438 47.964844 79.265625 47.464844 78.734375 C 46.933594 78.199219 46.300781 77.964844 45.5 77.964844 C 44.699219 77.964844 44.066406 78.234375 43.535156 78.734375 C 43.035156 79.234375 42.765625 79.898438 42.765625 80.667969 Z M 44.867188 73.101562 C 44.832031 73.601562 44.964844 74.132812 45.300781 74.667969 C 45.632812 75.199219 46.132812 75.535156 46.800781 75.667969 C 47.566406 75.867188 48.265625 75.800781 48.933594 75.464844 C 49.601562 75.132812 50.035156 74.5 50.300781 73.601562 L 51.199219 70.601562 C 51.433594 69.867188 51.367188 69.167969 50.964844 68.5 C 50.566406 67.832031 50 67.398438 49.199219 67.167969 C 48.464844 66.933594 47.765625 67.035156 47.066406 67.433594 C 46.367188 67.832031 45.933594 68.433594 45.699219 69.199219 L 44.933594 72.199219 C 44.898438 72.464844 44.867188 72.765625 44.867188 73.101562 Z M 54.035156 80.265625 C 54.035156 80.800781 54.199219 81.332031 54.535156 81.867188 C 54.867188 82.398438 55.398438 82.765625 56.066406 82.964844 C 56.167969 82.964844 56.332031 83 56.535156 83.035156 C 56.734375 83.066406 56.867188 83.101562 57 83.101562 C 58.367188 83.101562 59.199219 82.367188 59.535156 80.898438 L 60 78.898438 C 60.234375 78.199219 60.167969 77.5 59.765625 76.800781 C 59.398438 76.101562 58.832031 75.667969 58.066406 75.433594 C 57.234375 75.234375 56.464844 75.300781 55.800781 75.699219 C 55.132812 76.101562 54.667969 76.667969 54.433594 77.464844 L 54.132812 79.433594 C 54.132812 79.5 54.101562 79.667969 54.066406 79.832031 C 54.035156 80 54.035156 80.132812 54.035156 80.265625 Z M 56.5 70.398438 C 56.5 71.132812 56.765625 71.800781 57.332031 72.300781 C 57.832031 72.832031 58.464844 73.101562 59.234375 73.101562 C 60.035156 73.101562 60.667969 72.832031 61.199219 72.332031 C 61.734375 71.800781 61.964844 71.167969 61.964844 70.398438 C 61.964844 69.601562 61.699219 68.964844 61.199219 68.433594 C 60.667969 67.898438 60.035156 67.667969 59.234375 67.667969 C 58.433594 67.667969 57.800781 67.933594 57.265625 68.433594 C 56.734375 68.933594 56.5 69.601562 56.5 70.398438 Z M 58.535156 62.699219 C 58.535156 63.265625 58.699219 63.800781 59.066406 64.300781 C 59.433594 64.800781 59.964844 65.167969 60.699219 65.367188 C 60.765625 65.367188 60.898438 65.398438 61.101562 65.433594 C 61.300781 65.464844 61.464844 65.5 61.566406 65.5 C 61.898438 65.5 62.300781 65.398438 62.765625 65.199219 C 63.464844 64.832031 63.933594 64.234375 64.132812 63.464844 L 64.933594 60.464844 C 65.132812 59.699219 65.066406 59 64.699219 58.367188 C 64.332031 57.699219 63.765625 57.265625 63 57.035156 C 62.234375 56.800781 61.535156 56.867188 60.867188 57.234375 C 60.234375 57.601562 59.800781 58.132812 59.566406 58.933594 L 58.632812 61.964844 C 58.632812 62.035156 58.601562 62.167969 58.566406 62.367188 C 58.566406 62.464844 58.535156 62.601562 58.535156 62.699219 Z M 60.101562 30.035156 C 62.398438 27.734375 65.199219 26.566406 68.464844 26.566406 C 71.734375 26.566406 74.535156 27.734375 76.832031 30.066406 C 79.132812 32.398438 80.300781 35.199219 80.300781 38.464844 C 80.300781 40.699219 79.734375 42.734375 78.601562 44.632812 C 75.398438 41.433594 71.464844 39.832031 66.800781 39.832031 L 65.734375 39.832031 C 64.800781 35.898438 62.933594 32.632812 60.101562 30.035156 Z M 60.101562 30.035156 "/>
</g>
</svg>
