<?xml version="1.0" encoding="UTF-8"?>
<svg xmlns="http://www.w3.org/2000/svg" xmlns:xlink="http://www.w3.org/1999/xlink" width="100px" height="100px" viewBox="0 0 100 100" version="1.1">
<g id="surface1">
<path style=" stroke:none;fill-rule:nonzero;fill:rgb(0%,0%,0%);fill-opacity:1;" d="M 13.734375 56.367188 C 13.734375 60.800781 15.265625 64.632812 18.367188 67.800781 C 21.464844 70.964844 25.234375 72.699219 29.699219 72.898438 C 30.066406 72.898438 30.265625 72.699219 30.265625 72.332031 L 30.265625 67.765625 C 30.265625 67.367188 30.066406 67.167969 29.699219 67.167969 C 26.800781 66.933594 24.367188 65.800781 22.398438 63.699219 C 20.433594 61.632812 19.433594 59.167969 19.433594 56.332031 C 19.433594 53.535156 20.367188 51.101562 22.265625 49.035156 C 24.167969 46.964844 26.464844 45.800781 29.265625 45.566406 L 31.035156 45.332031 C 31.464844 45.332031 31.699219 45.132812 31.699219 44.765625 L 31.933594 43.035156 C 32.300781 39.433594 33.800781 36.398438 36.5 34 C 39.199219 31.566406 42.367188 30.367188 46 30.367188 C 49.632812 30.367188 52.800781 31.566406 55.5 34 C 58.199219 36.398438 59.734375 39.433594 60.132812 43.066406 L 60.367188 45 C 60.367188 45.398438 60.566406 45.601562 60.964844 45.601562 L 66.332031 45.601562 C 69.367188 45.601562 71.933594 46.667969 74.066406 48.765625 C 76.199219 50.867188 77.265625 53.398438 77.265625 56.367188 C 77.265625 59.199219 76.265625 61.667969 74.300781 63.734375 C 72.332031 65.800781 69.898438 66.964844 67 67.199219 C 66.566406 67.199219 66.332031 67.398438 66.332031 67.800781 L 66.332031 72.367188 C 66.332031 72.734375 66.566406 72.933594 67 72.933594 C 71.433594 72.800781 75.199219 71.101562 78.265625 67.898438 C 81.332031 64.699219 82.867188 60.867188 82.867188 56.398438 C 82.867188 53.433594 82.101562 50.667969 80.601562 48.132812 C 83.265625 45.734375 85 42.867188 85.765625 39.535156 L 86.265625 37.132812 C 86.300781 37.101562 86.300781 37.035156 86.300781 36.898438 C 86.300781 36.667969 86.132812 36.464844 85.765625 36.367188 L 83.832031 35.800781 C 81.933594 35.265625 80.332031 34.332031 79 33.066406 C 77.667969 31.765625 76.734375 30.398438 76.167969 28.964844 C 75.601562 27.535156 75.332031 26.066406 75.332031 24.566406 C 75.332031 23.765625 75.433594 22.867188 75.632812 21.933594 L 76.101562 19.867188 C 76.199219 19.566406 76.035156 19.300781 75.632812 19.132812 L 73 18.332031 C 71.535156 17.964844 70.167969 17.800781 68.832031 17.800781 C 67.632812 17.800781 66.398438 17.933594 65.101562 18.234375 C 63.832031 18.535156 62.5 18.964844 61.132812 19.601562 C 59.765625 20.199219 58.433594 21.101562 57.132812 22.265625 C 55.832031 23.433594 54.734375 24.765625 53.800781 26.332031 C 51.433594 25.332031 48.867188 24.832031 46.035156 24.832031 C 41.332031 24.832031 37.167969 26.300781 33.535156 29.199219 C 29.898438 32.101562 27.566406 35.832031 26.535156 40.367188 C 22.867188 41.234375 19.832031 43.167969 17.433594 46.167969 C 14.933594 49.132812 13.734375 52.535156 13.734375 56.367188 Z M 39.300781 71.867188 C 39.132812 72.332031 39.300781 72.601562 39.765625 72.601562 L 46.964844 72.601562 L 42.601562 86.398438 L 43.601562 86.398438 L 57.5 67.765625 C 57.632812 67.632812 57.667969 67.464844 57.601562 67.300781 C 57.535156 67.132812 57.398438 67.066406 57.167969 67.066406 L 49.832031 67.066406 L 57.535156 53.035156 C 57.765625 52.566406 57.601562 52.300781 57.066406 52.300781 L 47.265625 52.300781 C 47 52.300781 46.765625 52.464844 46.535156 52.765625 Z M 58.667969 29.367188 C 59.765625 27.464844 61.234375 26.035156 63.101562 25.035156 C 64.933594 24.035156 66.867188 23.535156 68.832031 23.535156 C 69.265625 23.535156 69.566406 23.566406 69.734375 23.601562 L 69.734375 24.632812 C 69.734375 27.832031 70.601562 30.867188 72.332031 33.734375 C 74.066406 36.601562 76.464844 38.765625 79.566406 40.265625 C 79.035156 41.5 78.199219 42.699219 77.066406 43.832031 C 74 41.199219 70.433594 39.898438 66.332031 39.898438 L 65.265625 39.898438 C 64.300781 35.699219 62.101562 32.199219 58.667969 29.367188 Z M 58.667969 29.367188 "/>
</g>
</svg>
