<?xml version="1.0" encoding="UTF-8"?>
<svg xmlns="http://www.w3.org/2000/svg" xmlns:xlink="http://www.w3.org/1999/xlink" width="100px" height="100px" viewBox="0 0 100 100" version="1.1">
<g id="surface1">
<path style=" stroke:none;fill-rule:nonzero;fill:rgb(0%,0%,0%);fill-opacity:1;" d="M 14.332031 56.300781 C 14.332031 59.265625 15.066406 62.035156 16.535156 64.566406 C 18 67.101562 19.964844 69.101562 22.5 70.566406 C 25.035156 72.035156 27.765625 72.800781 30.765625 72.800781 L 66.800781 72.800781 C 69.765625 72.800781 72.535156 72.066406 75.066406 70.566406 C 77.601562 69.066406 79.601562 67.066406 81.066406 64.566406 C 82.535156 62.035156 83.300781 59.265625 83.300781 56.300781 C 83.300781 54.167969 82.832031 51.964844 81.898438 49.632812 C 84.433594 46.535156 85.667969 42.867188 85.667969 38.632812 C 85.667969 35.464844 84.898438 32.535156 83.367188 29.867188 C 81.832031 27.199219 79.699219 25.066406 77.035156 23.5 C 74.367188 21.933594 71.433594 21.167969 68.265625 21.167969 C 63.300781 21.167969 59 23.101562 55.367188 26.964844 C 52.832031 25.535156 49.832031 24.800781 46.398438 24.800781 C 41.699219 24.800781 37.566406 26.234375 33.964844 29.132812 C 30.367188 32.035156 28.066406 35.734375 27.035156 40.300781 C 23.300781 41.132812 20.265625 43.035156 17.898438 46.035156 C 15.535156 49.035156 14.332031 52.464844 14.332031 56.300781 Z M 20.035156 56.300781 C 20.035156 53.535156 20.964844 51.132812 22.800781 49.101562 C 24.667969 47.066406 27 45.898438 29.800781 45.566406 L 32.066406 45.464844 L 32.300781 43.066406 C 32.765625 39.464844 34.332031 36.433594 37 34.035156 C 39.667969 31.601562 42.800781 30.398438 46.367188 30.398438 C 50 30.398438 53.199219 31.632812 55.898438 34.066406 C 58.601562 36.5 60.132812 39.5 60.5 43.101562 L 60.832031 45.601562 L 66.765625 45.601562 C 69.699219 45.601562 72.234375 46.667969 74.367188 48.765625 C 76.5 50.867188 77.566406 53.398438 77.566406 56.300781 C 77.566406 59.300781 76.5 61.867188 74.398438 64.035156 C 72.300781 66.199219 69.734375 67.265625 66.800781 67.265625 L 30.765625 67.265625 C 27.867188 67.265625 25.367188 66.199219 23.234375 64.035156 C 21.101562 61.832031 20.035156 59.265625 20.035156 56.300781 Z M 60.132812 30.199219 C 62.433594 28 65.132812 26.898438 68.265625 26.898438 C 71.566406 26.898438 74.367188 28.035156 76.667969 30.332031 C 78.964844 32.601562 80.132812 35.398438 80.132812 38.699219 C 80.132812 40.765625 79.566406 42.800781 78.398438 44.832031 C 75.199219 41.601562 71.332031 40 66.765625 40 L 65.734375 40 C 64.832031 36.300781 62.964844 33.035156 60.132812 30.199219 Z M 60.132812 30.199219 "/>
</g>
</svg>
