<?xml version="1.0" encoding="UTF-8"?>
<svg xmlns="http://www.w3.org/2000/svg" xmlns:xlink="http://www.w3.org/1999/xlink" width="100px" height="100px" viewBox="0 0 100 100" version="1.1">
<g id="surface1">
<path style=" stroke:none;fill-rule:nonzero;fill:rgb(0%,0%,0%);fill-opacity:1;" d="M 14.101562 56.265625 C 14.101562 60 15.199219 63.332031 17.433594 66.265625 C 19.667969 69.199219 22.535156 71.167969 26.035156 72.132812 L 23.832031 77.800781 C 23.667969 78.265625 23.832031 78.535156 24.300781 78.535156 L 31.398438 78.535156 L 26.667969 92.566406 L 27.632812 92.566406 L 42.167969 73.699219 C 42.300781 73.566406 42.300781 73.398438 42.234375 73.234375 C 42.167969 73.066406 42 73 41.765625 73 L 34.464844 73 L 42.765625 57.5 C 43 57.035156 42.867188 56.765625 42.300781 56.765625 L 32.398438 56.765625 C 32.101562 56.765625 31.832031 56.933594 31.632812 57.265625 L 28.066406 66.867188 C 25.667969 66.265625 23.699219 65 22.132812 63 C 20.566406 61.035156 19.800781 58.800781 19.800781 56.265625 C 19.800781 53.464844 20.734375 51.035156 22.601562 49 C 24.464844 46.964844 26.832031 45.765625 29.632812 45.433594 L 31.332031 45.332031 C 31.734375 45.332031 31.964844 45.167969 32.066406 44.867188 L 32.332031 42.898438 C 32.699219 39.300781 34.199219 36.265625 36.898438 33.832031 C 39.601562 31.398438 42.765625 30.167969 46.433594 30.167969 C 50.066406 30.167969 53.234375 31.398438 55.964844 33.832031 C 58.699219 36.265625 60.265625 39.300781 60.632812 42.898438 L 60.898438 44.867188 C 60.898438 45.234375 61.101562 45.433594 61.5 45.433594 L 66.867188 45.433594 C 69.832031 45.433594 72.398438 46.5 74.566406 48.632812 C 76.734375 50.765625 77.800781 53.300781 77.800781 56.265625 C 77.800781 59.167969 76.800781 61.667969 74.800781 63.800781 C 72.800781 65.933594 70.398438 67.066406 67.535156 67.234375 C 67.101562 67.234375 66.867188 67.433594 66.867188 67.832031 L 66.867188 72.300781 C 66.867188 72.667969 67.101562 72.867188 67.535156 72.867188 C 70.464844 72.800781 73.167969 72 75.601562 70.464844 C 78.035156 68.964844 79.964844 66.933594 81.398438 64.433594 C 82.832031 61.933594 83.535156 59.199219 83.535156 56.265625 C 83.535156 53.832031 83.066406 51.601562 82.101562 49.535156 C 84.632812 46.332031 85.898438 42.667969 85.898438 38.566406 C 85.898438 35.398438 85.101562 32.464844 83.535156 29.765625 C 81.964844 27.066406 79.832031 24.933594 77.132812 23.367188 C 74.433594 21.800781 71.5 21 68.332031 21 C 65.933594 21 63.601562 21.5 61.332031 22.5 C 59.066406 23.5 57.132812 24.898438 55.464844 26.667969 C 52.765625 25.234375 49.765625 24.5 46.398438 24.5 C 41.667969 24.5 37.464844 25.964844 33.832031 28.898438 C 30.199219 31.832031 27.832031 35.566406 26.832031 40.132812 C 23.132812 41 20.101562 42.933594 17.699219 45.933594 C 15.300781 49 14.101562 52.433594 14.101562 56.265625 Z M 46.066406 76.535156 C 46.066406 77.332031 46.332031 78 46.867188 78.5 C 47.398438 79.035156 48.066406 79.300781 48.800781 79.300781 C 49.601562 79.300781 50.265625 79.035156 50.832031 78.5 C 51.398438 77.964844 51.667969 77.300781 51.667969 76.535156 C 51.667969 75.734375 51.398438 75.066406 50.832031 74.5 C 50.265625 73.933594 49.601562 73.632812 48.800781 73.632812 C 48.066406 73.632812 47.433594 73.933594 46.867188 74.5 C 46.300781 75.066406 46.066406 75.734375 46.066406 76.535156 Z M 46.066406 64.398438 C 46.066406 65.199219 46.332031 65.832031 46.867188 66.332031 C 47.398438 66.867188 48.066406 67.132812 48.800781 67.132812 C 49.601562 67.132812 50.300781 66.867188 50.832031 66.367188 C 51.367188 65.867188 51.667969 65.199219 51.667969 64.398438 C 51.667969 63.632812 51.398438 62.964844 50.832031 62.398438 C 50.265625 61.832031 49.601562 61.566406 48.800781 61.566406 C 48.035156 61.566406 47.398438 61.832031 46.867188 62.398438 C 46.332031 62.964844 46.066406 63.632812 46.066406 64.398438 Z M 46.066406 88.765625 C 46.066406 89.5 46.332031 90.132812 46.867188 90.667969 C 47.433594 91.234375 48.066406 91.5 48.800781 91.5 C 49.601562 91.5 50.265625 91.234375 50.832031 90.699219 C 51.398438 90.167969 51.667969 89.535156 51.667969 88.734375 C 51.667969 87.933594 51.398438 87.265625 50.832031 86.699219 C 50.265625 86.132812 49.601562 85.832031 48.800781 85.832031 C 48.066406 85.832031 47.433594 86.132812 46.867188 86.699219 C 46.332031 87.300781 46.066406 88 46.066406 88.765625 Z M 56.832031 70.066406 C 56.832031 70.867188 57.101562 71.535156 57.667969 72.066406 C 58.234375 72.601562 58.867188 72.898438 59.667969 72.898438 C 60.433594 72.898438 61.101562 72.632812 61.632812 72.066406 C 62.167969 71.5 62.433594 70.832031 62.433594 70.066406 C 62.433594 69.332031 62.167969 68.667969 61.632812 68.132812 C 61.101562 67.601562 60.464844 67.332031 59.667969 67.332031 C 58.898438 67.332031 58.234375 67.601562 57.667969 68.132812 C 57.101562 68.667969 56.832031 69.300781 56.832031 70.066406 Z M 56.832031 82.199219 C 56.832031 82.964844 57.101562 83.601562 57.632812 84.132812 C 58.167969 84.667969 58.832031 84.933594 59.632812 84.933594 C 60.433594 84.933594 61.066406 84.667969 61.601562 84.132812 C 62.132812 83.601562 62.367188 82.964844 62.367188 82.167969 C 62.367188 81.367188 62.101562 80.734375 61.601562 80.199219 C 61.066406 79.667969 60.433594 79.433594 59.632812 79.433594 C 58.832031 79.433594 58.167969 79.699219 57.632812 80.199219 C 57.101562 80.734375 56.832031 81.398438 56.832031 82.199219 Z M 60.199219 30.066406 C 62.433594 27.933594 65.132812 26.832031 68.367188 26.832031 C 71.632812 26.832031 74.433594 27.964844 76.734375 30.265625 C 79.035156 32.535156 80.199219 35.332031 80.199219 38.601562 C 80.199219 40.800781 79.667969 42.800781 78.632812 44.632812 C 75.433594 41.433594 71.535156 39.832031 66.898438 39.832031 L 65.867188 39.832031 C 64.867188 35.867188 62.964844 32.601562 60.199219 30.066406 Z M 60.199219 30.066406 "/>
</g>
</svg>
