<?xml version="1.0" encoding="UTF-8"?>
<svg xmlns="http://www.w3.org/2000/svg" xmlns:xlink="http://www.w3.org/1999/xlink" width="100px" height="100px" viewBox="0 0 100 100" version="1.1">
<g id="surface1">
<path style=" stroke:none;fill-rule:nonzero;fill:rgb(0%,0%,0%);fill-opacity:1;" d="M 13.667969 56.367188 C 13.667969 60.800781 15.199219 64.632812 18.300781 67.800781 C 21.398438 70.964844 25.167969 72.699219 29.632812 72.898438 C 30.035156 72.898438 30.234375 72.699219 30.234375 72.332031 L 30.234375 67.867188 C 30.234375 67.5 30.035156 67.300781 29.632812 67.300781 C 26.765625 67.167969 24.367188 66.035156 22.367188 63.898438 C 20.367188 61.765625 19.367188 59.265625 19.367188 56.367188 C 19.367188 53.601562 20.300781 51.199219 22.167969 49.132812 C 24.035156 47.101562 26.367188 45.898438 29.167969 45.566406 L 30.933594 45.464844 C 31.367188 45.464844 31.601562 45.265625 31.601562 44.867188 L 31.832031 43.066406 C 32.199219 39.464844 33.699219 36.433594 36.398438 34 C 39.101562 31.566406 42.265625 30.332031 45.898438 30.332031 C 49.5 30.332031 52.667969 31.566406 55.398438 34 C 58.132812 36.433594 59.667969 39.464844 60.066406 43.066406 L 60.332031 45 C 60.332031 45.367188 60.535156 45.566406 60.898438 45.566406 L 66.265625 45.566406 C 69.234375 45.566406 71.800781 46.632812 73.964844 48.765625 C 76.132812 50.898438 77.234375 53.433594 77.234375 56.332031 C 77.234375 59.234375 76.234375 61.734375 74.234375 63.867188 C 72.234375 66 69.800781 67.132812 66.964844 67.265625 C 66.535156 67.265625 66.300781 67.464844 66.300781 67.832031 L 66.300781 72.300781 C 66.300781 72.667969 66.535156 72.867188 66.964844 72.867188 C 71.398438 72.734375 75.167969 71.035156 78.234375 67.832031 C 81.332031 64.632812 82.867188 60.800781 82.867188 56.332031 C 82.867188 53.464844 82.132812 50.800781 80.699219 48.300781 C 83.332031 45.832031 85.035156 42.898438 85.867188 39.566406 L 86.300781 37.300781 C 86.367188 37.265625 86.398438 37.199219 86.398438 37.066406 C 86.398438 36.832031 86.234375 36.632812 85.867188 36.535156 L 84 35.964844 C 82.101562 35.398438 80.5 34.464844 79.132812 33.132812 C 77.800781 31.800781 76.832031 30.433594 76.265625 28.964844 C 75.699219 27.535156 75.433594 26.066406 75.433594 24.566406 C 75.398438 23.765625 75.5 22.867188 75.699219 21.933594 L 76.167969 20 C 76.265625 19.699219 76.101562 19.464844 75.699219 19.265625 L 73.035156 18.433594 C 71.632812 18.035156 70.167969 17.800781 68.667969 17.800781 C 67.5 17.800781 66.300781 17.933594 65.066406 18.234375 C 63.832031 18.535156 62.535156 18.964844 61.167969 19.566406 C 59.800781 20.167969 58.5 21.066406 57.199219 22.234375 C 55.933594 23.398438 54.800781 24.734375 53.867188 26.300781 C 51.367188 25.234375 48.734375 24.667969 45.964844 24.667969 C 41.265625 24.667969 37.066406 26.132812 33.433594 29.035156 C 29.800781 31.933594 27.464844 35.667969 26.433594 40.234375 C 22.734375 41.101562 19.699219 43 17.300781 46 C 14.898438 49 13.667969 52.535156 13.667969 56.367188 Z M 31.933594 79.800781 C 32.234375 80.5 32.734375 81 33.464844 81.300781 C 34.101562 81.632812 34.800781 81.667969 35.535156 81.367188 C 36.265625 81.101562 36.765625 80.601562 37.035156 79.867188 C 37.367188 79.132812 37.398438 78.433594 37.101562 77.699219 C 36.832031 77 36.332031 76.5 35.601562 76.234375 C 34.933594 75.898438 34.234375 75.867188 33.535156 76.167969 C 32.832031 76.464844 32.300781 76.964844 31.964844 77.699219 C 31.667969 78.265625 31.632812 78.964844 31.933594 79.800781 Z M 34 70.367188 C 34 70.867188 34.167969 71.367188 34.535156 71.867188 C 34.898438 72.367188 35.398438 72.734375 36.066406 72.933594 C 36.933594 73.265625 37.667969 73.265625 38.300781 72.933594 C 38.933594 72.601562 39.367188 71.964844 39.632812 71.035156 L 42.566406 60.332031 C 42.800781 59.5 42.699219 58.765625 42.300781 58.101562 C 41.898438 57.433594 41.300781 57.035156 40.5 56.867188 C 39.765625 56.632812 39.066406 56.699219 38.398438 57.101562 C 37.734375 57.464844 37.300781 58.035156 37.066406 58.800781 L 34.132812 69.535156 C 34.132812 69.601562 34.101562 69.734375 34.066406 69.933594 C 34.035156 70.101562 34 70.265625 34 70.367188 Z M 40.234375 89.035156 C 40.234375 89.433594 40.300781 89.765625 40.433594 90 C 40.734375 90.734375 41.234375 91.234375 41.933594 91.5 C 42.234375 91.667969 42.601562 91.734375 43.035156 91.734375 C 43.234375 91.734375 43.566406 91.667969 44.035156 91.535156 C 44.800781 91.265625 45.332031 90.765625 45.632812 90.035156 C 45.964844 89.300781 45.964844 88.566406 45.632812 87.832031 C 45.300781 87.101562 44.800781 86.601562 44.132812 86.300781 C 43.464844 86 42.800781 86 42.101562 86.300781 C 41.464844 86.566406 41 86.964844 40.699219 87.5 C 40.367188 88.066406 40.234375 88.566406 40.234375 89.035156 Z M 42.699219 80.199219 C 42.699219 81.464844 43.398438 82.332031 44.832031 82.800781 C 45.132812 82.898438 45.398438 82.964844 45.601562 82.964844 C 45.964844 82.964844 46.367188 82.867188 46.765625 82.699219 C 47.535156 82.433594 48.066406 81.800781 48.332031 80.800781 L 53.832031 60.398438 C 54.035156 59.601562 53.964844 58.898438 53.601562 58.234375 C 53.234375 57.601562 52.667969 57.167969 51.933594 56.933594 C 51.167969 56.699219 50.433594 56.765625 49.765625 57.167969 C 49.101562 57.535156 48.632812 58.101562 48.433594 58.867188 L 42.832031 79.433594 C 42.734375 79.734375 42.699219 80 42.699219 80.199219 Z M 54.167969 78.800781 C 54.167969 79.234375 54.234375 79.566406 54.398438 79.832031 C 54.667969 80.5 55.167969 81 55.867188 81.300781 C 56.265625 81.464844 56.632812 81.566406 57.035156 81.566406 C 57.234375 81.566406 57.566406 81.5 58.035156 81.367188 C 58.765625 81.066406 59.265625 80.601562 59.535156 79.898438 C 59.800781 79.167969 59.800781 78.464844 59.535156 77.800781 C 59.265625 77.132812 58.800781 76.632812 58.132812 76.300781 C 57.398438 75.964844 56.667969 75.933594 55.964844 76.234375 C 55.234375 76.5 54.734375 77.035156 54.398438 77.765625 C 54.234375 78.035156 54.167969 78.367188 54.167969 78.800781 Z M 56.566406 70.265625 C 56.566406 70.800781 56.734375 71.332031 57.066406 71.800781 C 57.398438 72.265625 57.898438 72.632812 58.566406 72.832031 C 59.132812 72.898438 59.433594 72.933594 59.464844 72.933594 C 60.832031 72.933594 61.667969 72.265625 62.035156 70.898438 L 64.933594 60.332031 C 65.132812 59.535156 65.066406 58.832031 64.699219 58.167969 C 64.332031 57.535156 63.765625 57.101562 63.035156 56.867188 C 62.265625 56.632812 61.535156 56.699219 60.898438 57.101562 C 60.234375 57.464844 59.800781 58.035156 59.566406 58.800781 L 56.667969 69.367188 C 56.601562 69.667969 56.566406 69.964844 56.566406 70.265625 Z M 58.734375 29.433594 C 59.765625 27.535156 61.234375 26.066406 63.066406 25.066406 C 64.898438 24.066406 66.867188 23.566406 68.933594 23.601562 C 69.300781 23.601562 69.601562 23.632812 69.765625 23.667969 L 69.765625 24.699219 C 69.765625 27.964844 70.632812 31 72.367188 33.867188 C 74.101562 36.734375 76.535156 38.898438 79.601562 40.367188 C 78.964844 41.832031 78.132812 43 77.101562 43.933594 C 74.167969 41.300781 70.566406 40 66.265625 40 L 65.199219 40 C 64.332031 35.832031 62.199219 32.300781 58.734375 29.433594 Z M 58.734375 29.433594 "/>
</g>
</svg>
