<?xml version="1.0" encoding="UTF-8"?>
<svg xmlns="http://www.w3.org/2000/svg" xmlns:xlink="http://www.w3.org/1999/xlink" width="100px" height="100px" viewBox="0 0 100 100" version="1.1">
<g id="surface1">
<path style=" stroke:none;fill-rule:nonzero;fill:rgb(0%,0%,0%);fill-opacity:1;" d="M 13.601562 56.265625 C 13.601562 59.964844 14.699219 63.265625 16.898438 66.199219 C 19.101562 69.132812 21.964844 71.101562 25.5 72.167969 L 23.300781 77.800781 C 23.199219 78.265625 23.367188 78.5 23.800781 78.5 L 30.867188 78.5 L 27.632812 90.199219 L 28.601562 90.199219 L 41.632812 73.734375 C 41.765625 73.566406 41.765625 73.398438 41.667969 73.234375 C 41.566406 73.066406 41.398438 73 41.167969 73 L 33.898438 73 L 42.167969 57.566406 C 42.398438 57.101562 42.265625 56.832031 41.734375 56.832031 L 31.867188 56.832031 C 31.566406 56.832031 31.332031 57 31.101562 57.300781 L 27.535156 66.898438 C 25.132812 66.300781 23.167969 65 21.601562 63 C 20.035156 61 19.265625 58.765625 19.265625 56.300781 C 19.265625 53.535156 20.199219 51.132812 22.101562 49.066406 C 24 47 26.332031 45.832031 29.101562 45.5 L 30.832031 45.234375 C 31.265625 45.234375 31.5 45.035156 31.5 44.667969 L 31.734375 42.933594 C 32.101562 39.332031 33.601562 36.300781 36.300781 33.867188 C 39 31.433594 42.167969 30.199219 45.800781 30.199219 C 49.398438 30.199219 52.566406 31.433594 55.300781 33.867188 C 58.035156 36.300781 59.601562 39.332031 60 42.898438 L 60.234375 44.867188 C 60.234375 45.234375 60.433594 45.433594 60.832031 45.433594 L 66.234375 45.433594 C 69.265625 45.433594 71.832031 46.5 74 48.601562 C 76.167969 50.699219 77.234375 53.265625 77.234375 56.234375 C 77.234375 59.066406 76.234375 61.535156 74.234375 63.601562 C 72.234375 65.667969 69.800781 66.832031 66.898438 67.066406 C 66.5 67.066406 66.265625 67.265625 66.265625 67.632812 L 66.265625 72.234375 C 66.265625 72.632812 66.464844 72.832031 66.898438 72.832031 C 69.832031 72.734375 72.5 71.933594 74.933594 70.433594 C 77.367188 68.933594 79.300781 66.933594 80.699219 64.433594 C 82.101562 61.933594 82.800781 59.199219 82.800781 56.265625 C 82.800781 53.367188 82.066406 50.667969 80.601562 48.101562 C 83.234375 45.566406 84.964844 42.667969 85.800781 39.367188 L 86.265625 36.964844 C 86.300781 36.933594 86.332031 36.832031 86.332031 36.734375 C 86.332031 36.5 86.167969 36.332031 85.800781 36.234375 L 83.933594 35.632812 C 82.035156 35.101562 80.398438 34.167969 79.066406 32.898438 C 77.699219 31.632812 76.734375 30.234375 76.167969 28.800781 C 75.601562 27.332031 75.300781 25.867188 75.300781 24.398438 C 75.300781 23.535156 75.398438 22.632812 75.566406 21.734375 L 76.035156 19.699219 C 76.167969 19.367188 76.035156 19.101562 75.566406 18.933594 C 74.867188 18.632812 73.867188 18.367188 72.566406 18.066406 C 71.265625 17.765625 70 17.632812 68.734375 17.632812 C 67.535156 17.632812 66.300781 17.765625 65 18.066406 C 63.734375 18.367188 62.398438 18.800781 61.035156 19.433594 C 59.667969 20.035156 58.332031 20.933594 57.035156 22.101562 C 55.734375 23.265625 54.632812 24.601562 53.699219 26.167969 C 50.964844 25.167969 48.300781 24.667969 45.765625 24.667969 C 41.066406 24.667969 36.867188 26.132812 33.234375 29.035156 C 29.601562 31.933594 27.234375 35.667969 26.199219 40.234375 C 22.5 41.101562 19.464844 43.035156 17.066406 46.035156 C 14.800781 48.964844 13.601562 52.398438 13.601562 56.265625 Z M 40.601562 89 C 40.601562 89.535156 40.765625 90.066406 41.101562 90.535156 C 41.433594 91.035156 41.933594 91.367188 42.601562 91.535156 C 42.964844 91.601562 43.300781 91.632812 43.601562 91.632812 C 44.964844 91.632812 45.800781 90.933594 46.132812 89.535156 L 53.867188 60.234375 C 54.066406 59.433594 54 58.734375 53.632812 58.066406 C 53.265625 57.398438 52.699219 56.964844 51.964844 56.765625 C 51.199219 56.535156 50.464844 56.601562 49.800781 56.964844 C 49.132812 57.332031 48.667969 57.867188 48.464844 58.601562 L 40.734375 88.066406 C 40.632812 88.398438 40.601562 88.699219 40.601562 89 Z M 54.5 78.933594 C 54.5 79.464844 54.667969 80 55 80.464844 C 55.332031 80.933594 55.832031 81.300781 56.535156 81.5 C 56.632812 81.5 56.800781 81.5 57.035156 81.535156 C 57.265625 81.566406 57.464844 81.566406 57.566406 81.566406 C 58.832031 81.566406 59.632812 80.867188 59.964844 79.464844 L 64.964844 60.234375 C 65.167969 59.433594 65.101562 58.699219 64.699219 58.035156 C 64.332031 57.398438 63.765625 56.964844 63 56.765625 C 62.234375 56.535156 61.5 56.601562 60.832031 56.964844 C 60.167969 57.332031 59.734375 57.867188 59.535156 58.632812 L 54.535156 78.035156 C 54.535156 78.367188 54.5 78.667969 54.5 78.933594 Z M 58.632812 29.167969 C 59.734375 27.265625 61.199219 25.832031 63.066406 24.832031 C 64.898438 23.832031 66.867188 23.332031 68.933594 23.332031 C 69.332031 23.332031 69.667969 23.332031 69.832031 23.367188 L 69.832031 24.433594 C 69.832031 27.632812 70.699219 30.667969 72.433594 33.535156 C 74.167969 36.398438 76.601562 38.566406 79.667969 40.101562 C 79.066406 41.5 78.199219 42.667969 77.035156 43.667969 C 73.964844 41.035156 70.398438 39.734375 66.300781 39.734375 L 65.234375 39.734375 C 64.300781 35.535156 62.101562 32.035156 58.632812 29.167969 Z M 58.632812 29.167969 "/>
</g>
</svg>
