<?xml version="1.0" encoding="UTF-8"?>
<svg xmlns="http://www.w3.org/2000/svg" xmlns:xlink="http://www.w3.org/1999/xlink" width="100px" height="100px" viewBox="0 0 100 100" version="1.1">
<g id="surface1">
<path style=" stroke:none;fill-rule:nonzero;fill:rgb(0%,0%,0%);fill-opacity:1;" d="M 10.199219 69.933594 C 10.199219 70.734375 10.5 71.398438 11.101562 71.933594 C 11.699219 72.535156 12.367188 72.832031 13.132812 72.832031 L 32.734375 72.832031 C 33.601562 72.832031 34.367188 73.132812 35.035156 73.765625 C 35.699219 74.398438 36.035156 75.167969 36.035156 76.035156 C 36.035156 76.898438 35.699219 77.632812 35.035156 78.300781 C 34.367188 78.964844 33.601562 79.300781 32.765625 79.300781 C 31.933594 79.300781 31.167969 78.964844 30.5 78.300781 C 29.867188 77.734375 29.199219 77.433594 28.433594 77.433594 C 27.667969 77.433594 27 77.699219 26.464844 78.265625 C 25.933594 78.832031 25.667969 79.5 25.667969 80.300781 C 25.667969 81.101562 25.933594 81.765625 26.464844 82.300781 C 28.199219 84.035156 30.300781 84.898438 32.734375 84.898438 C 35.199219 84.898438 37.332031 84.035156 39.035156 82.332031 C 40.765625 80.601562 41.632812 78.535156 41.632812 76.066406 C 41.632812 73.601562 40.765625 71.464844 39.035156 69.734375 C 37.300781 68 35.199219 67.101562 32.734375 67.101562 L 13.132812 67.101562 C 12.332031 67.101562 11.667969 67.367188 11.066406 67.933594 C 10.464844 68.5 10.199219 69.167969 10.199219 69.933594 Z M 10.199219 59.898438 C 10.199219 60.667969 10.5 61.300781 11.101562 61.832031 C 11.601562 62.367188 12.265625 62.632812 13.132812 62.632812 L 49.765625 62.632812 C 52.234375 62.632812 54.332031 61.765625 56.066406 60.035156 C 57.800781 58.300781 58.667969 56.199219 58.667969 53.765625 C 58.667969 51.332031 57.800781 49.234375 56.066406 47.5 C 54.332031 45.765625 52.234375 44.933594 49.765625 44.933594 C 47.234375 44.933594 45.132812 45.765625 43.464844 47.433594 C 42.964844 48 42.699219 48.699219 42.699219 49.535156 C 42.699219 50.332031 42.964844 50.964844 43.464844 51.5 C 43.964844 52.035156 44.632812 52.265625 45.464844 52.265625 C 46.300781 52.265625 46.964844 52.035156 47.5 51.5 C 48.132812 50.867188 48.898438 50.566406 49.765625 50.566406 C 50.632812 50.566406 51.367188 50.867188 52.035156 51.5 C 52.667969 52.132812 53 52.898438 53 53.765625 C 53 54.632812 52.667969 55.433594 52.035156 56.066406 C 51.398438 56.699219 50.632812 57.035156 49.765625 57.035156 L 13.132812 57.035156 C 12.332031 57.035156 11.667969 57.300781 11.066406 57.867188 C 10.464844 58.464844 10.199219 59.132812 10.199219 59.898438 Z M 19.035156 52.101562 C 19.035156 52.367188 19.234375 52.5 19.601562 52.5 L 24.367188 52.5 C 24.632812 52.5 24.867188 52.332031 25.101562 52.035156 C 25.867188 50.234375 27 48.734375 28.601562 47.535156 C 30.167969 46.332031 31.933594 45.667969 33.898438 45.535156 L 35.632812 45.300781 C 36.035156 45.300781 36.265625 45.101562 36.265625 44.667969 L 36.5 43 C 36.867188 39.398438 38.398438 36.367188 41.101562 33.964844 C 43.800781 31.535156 47 30.332031 50.632812 30.332031 C 54.265625 30.332031 57.433594 31.535156 60.132812 33.933594 C 62.832031 36.332031 64.367188 39.367188 64.765625 43 L 65 44.898438 C 65 45.300781 65.199219 45.5 65.601562 45.5 L 71.035156 45.5 C 74.035156 45.5 76.601562 46.566406 78.734375 48.667969 C 80.867188 50.765625 81.933594 53.300781 81.933594 56.265625 C 81.933594 59.234375 80.867188 61.800781 78.734375 63.898438 C 76.601562 66 74.035156 67.066406 71.035156 67.066406 L 48 67.066406 C 47.632812 67.066406 47.433594 67.265625 47.433594 67.667969 L 47.433594 72.234375 C 47.433594 72.632812 47.632812 72.832031 48 72.832031 L 71.035156 72.832031 C 74 72.832031 76.765625 72.101562 79.300781 70.601562 C 81.832031 69.132812 83.832031 67.101562 85.300781 64.566406 C 86.765625 62.035156 87.5 59.265625 87.5 56.265625 C 87.5 53.800781 87.035156 51.535156 86.101562 49.535156 C 88.632812 46.199219 89.898438 42.5 89.898438 38.433594 C 89.898438 36.066406 89.433594 33.800781 88.5 31.632812 C 87.566406 29.464844 86.332031 27.632812 84.765625 26.066406 C 83.199219 24.5 81.332031 23.265625 79.199219 22.367188 C 77.066406 21.464844 74.734375 21 72.367188 21 C 67.234375 21 62.898438 22.933594 59.433594 26.765625 C 56.832031 25.398438 53.867188 24.734375 50.601562 24.734375 C 45.898438 24.734375 41.734375 26.199219 38.101562 29.101562 C 34.464844 32 32.199219 35.734375 31.199219 40.265625 C 28.367188 40.933594 25.867188 42.300781 23.667969 44.367188 C 21.464844 46.433594 19.964844 48.867188 19.101562 51.632812 L 19.101562 51.765625 C 19.066406 51.933594 19.035156 52.066406 19.035156 52.101562 Z M 64.132812 30 C 66.535156 27.734375 69.265625 26.601562 72.398438 26.601562 C 75.667969 26.601562 78.433594 27.765625 80.765625 30.101562 C 83.101562 32.433594 84.265625 35.199219 84.265625 38.433594 C 84.265625 40.464844 83.699219 42.5 82.566406 44.601562 C 79.367188 41.398438 75.535156 39.832031 71 39.832031 L 69.898438 39.832031 C 69.101562 36.265625 67.199219 32.964844 64.132812 30 Z M 64.132812 30 "/>
</g>
</svg>
