<?xml version="1.0" encoding="UTF-8"?>
<svg xmlns="http://www.w3.org/2000/svg" xmlns:xlink="http://www.w3.org/1999/xlink" width="100px" height="100px" viewBox="0 0 100 100" version="1.1">
<g id="surface1">
<path style=" stroke:none;fill-rule:nonzero;fill:rgb(0%,0%,0%);fill-opacity:1;" d="M 13.699219 56.300781 C 13.699219 60.734375 15.234375 64.566406 18.332031 67.734375 C 21.433594 70.933594 25.199219 72.632812 29.667969 72.867188 C 30.066406 72.867188 30.265625 72.667969 30.265625 72.265625 L 30.265625 67.832031 C 30.265625 67.433594 30.066406 67.234375 29.667969 67.234375 C 26.800781 67.101562 24.398438 65.964844 22.398438 63.832031 C 20.398438 61.699219 19.398438 59.199219 19.398438 56.300781 C 19.398438 53.535156 20.332031 51.132812 22.199219 49.066406 C 24.066406 47.035156 26.398438 45.832031 29.199219 45.5 L 30.933594 45.367188 C 31.367188 45.367188 31.601562 45.167969 31.601562 44.765625 L 31.832031 42.964844 C 32.199219 39.367188 33.699219 36.332031 36.398438 33.933594 C 39.101562 31.5 42.265625 30.300781 45.898438 30.300781 C 49.535156 30.300781 52.699219 31.535156 55.433594 33.964844 C 58.167969 36.398438 59.699219 39.398438 60.101562 43 L 60.332031 44.898438 C 60.332031 45.300781 60.535156 45.535156 60.933594 45.535156 L 66.332031 45.535156 C 69.300781 45.535156 71.832031 46.601562 74 48.734375 C 76.167969 50.867188 77.234375 53.398438 77.234375 56.300781 C 77.234375 59.199219 76.234375 61.699219 74.234375 63.832031 C 72.234375 65.964844 69.800781 67.101562 66.964844 67.234375 C 66.566406 67.234375 66.332031 67.433594 66.332031 67.832031 L 66.332031 72.265625 C 66.332031 72.667969 66.535156 72.867188 66.964844 72.867188 C 69.898438 72.765625 72.566406 71.964844 75 70.464844 C 77.433594 68.964844 79.367188 66.964844 80.765625 64.464844 C 82.167969 61.964844 82.867188 59.234375 82.867188 56.332031 C 82.867188 53.433594 82.101562 50.734375 80.601562 48.167969 C 83.199219 45.699219 84.898438 42.832031 85.734375 39.566406 L 86.199219 37.132812 C 86.234375 37.101562 86.265625 37.035156 86.265625 36.898438 C 86.265625 36.667969 86.101562 36.464844 85.734375 36.367188 L 83.832031 35.800781 C 81.933594 35.265625 80.300781 34.332031 78.964844 33.066406 C 77.601562 31.800781 76.632812 30.433594 76.066406 29.035156 C 75.5 27.601562 75.199219 26.199219 75.199219 24.765625 C 75.199219 23.800781 75.332031 22.867188 75.566406 21.933594 L 76 19.898438 C 76.066406 19.566406 75.933594 19.300781 75.566406 19.132812 L 72.898438 18.332031 C 71.398438 18 70 17.832031 68.667969 17.832031 C 67.464844 17.832031 66.234375 17.964844 64.933594 18.265625 C 63.667969 18.566406 62.332031 19 60.964844 19.601562 C 59.601562 20.199219 58.265625 21.066406 56.964844 22.234375 C 55.667969 23.398438 54.566406 24.699219 53.632812 26.234375 C 50.933594 25.199219 48.332031 24.699219 45.867188 24.699219 C 41.167969 24.699219 36.964844 26.167969 33.332031 29.101562 C 29.699219 32.035156 27.332031 35.765625 26.300781 40.300781 C 22.601562 41.167969 19.566406 43.101562 17.199219 46.101562 C 14.898438 49.035156 13.699219 52.464844 13.699219 56.300781 Z M 33.5 59.234375 C 33.5 60.5 33.964844 61.601562 34.898438 62.5 C 35.832031 63.398438 36.964844 63.832031 38.300781 63.832031 C 39.632812 63.832031 40.734375 63.398438 41.632812 62.5 C 42.535156 61.601562 42.964844 60.535156 42.964844 59.234375 C 42.964844 58.367188 42.566406 57.234375 41.800781 55.832031 C 41.035156 54.433594 40.300781 53.332031 39.632812 52.566406 C 39.265625 52.167969 38.832031 51.699219 38.265625 51.132812 L 37.101562 52.5 C 36.199219 53.464844 35.367188 54.632812 34.601562 55.964844 C 33.832031 57.300781 33.5 58.367188 33.5 59.234375 Z M 43.464844 72.535156 C 43.464844 74.734375 44.234375 76.566406 45.734375 78.066406 C 47.265625 79.566406 49.101562 80.300781 51.234375 80.300781 C 53.433594 80.300781 55.265625 79.535156 56.765625 78.035156 C 58.265625 76.5 59.035156 74.667969 59.035156 72.535156 C 59.035156 70.699219 58.132812 68.464844 56.367188 65.867188 C 54.898438 63.933594 53.464844 62.265625 52.101562 60.898438 C 51.832031 60.699219 51.535156 60.464844 51.234375 60.132812 L 50.464844 60.898438 C 49.167969 62.101562 47.734375 63.765625 46.199219 65.832031 C 45.398438 66.933594 44.765625 68.101562 44.234375 69.300781 C 43.699219 70.535156 43.464844 71.601562 43.464844 72.535156 Z M 48.367188 50.300781 C 48.367188 51.167969 48.699219 51.867188 49.332031 52.5 C 49.964844 53.132812 50.734375 53.398438 51.667969 53.398438 C 52.535156 53.398438 53.234375 53.101562 53.867188 52.5 C 54.464844 51.898438 54.765625 51.167969 54.765625 50.300781 C 54.765625 48.867188 53.734375 47.066406 51.667969 44.898438 L 50.832031 45.800781 C 50.234375 46.464844 49.667969 47.234375 49.167969 48.132812 C 48.601562 49.035156 48.367188 49.765625 48.367188 50.300781 Z M 58.535156 29.234375 C 59.699219 27.332031 61.199219 25.898438 63 24.933594 C 64.800781 23.964844 66.734375 23.464844 68.734375 23.464844 C 69.132812 23.464844 69.433594 23.5 69.632812 23.535156 L 69.632812 24.535156 C 69.632812 27.734375 70.5 30.765625 72.265625 33.667969 C 74.035156 36.566406 76.433594 38.734375 79.535156 40.234375 C 79 41.5 78.167969 42.632812 77.035156 43.667969 C 73.933594 41.132812 70.398438 39.867188 66.332031 39.867188 L 65.234375 39.867188 C 64.234375 35.5 62 31.964844 58.535156 29.234375 Z M 58.535156 29.234375 "/>
</g>
</svg>
