<?xml version="1.0" encoding="UTF-8"?>
<svg xmlns="http://www.w3.org/2000/svg" xmlns:xlink="http://www.w3.org/1999/xlink" width="100px" height="100px" viewBox="0 0 100 100" version="1.1">
<g id="surface1">
<path style=" stroke:none;fill-rule:nonzero;fill:rgb(0%,0%,0%);fill-opacity:1;" d="M 14.066406 56.300781 C 14.066406 60.734375 15.601562 64.566406 18.699219 67.765625 C 21.800781 70.964844 25.566406 72.667969 30.066406 72.867188 C 30.433594 72.867188 30.632812 72.667969 30.632812 72.300781 L 30.632812 67.734375 C 30.632812 67.300781 30.433594 67.101562 30.066406 67.101562 C 27.132812 66.898438 24.699219 65.734375 22.699219 63.667969 C 20.699219 61.601562 19.699219 59.132812 19.699219 56.300781 C 19.699219 53.5 20.632812 51.035156 22.535156 48.964844 C 24.433594 46.898438 26.765625 45.734375 29.566406 45.5 L 31.300781 45.265625 C 31.699219 45.265625 31.933594 45.066406 31.933594 44.632812 L 32.167969 42.964844 C 32.535156 39.367188 34.066406 36.332031 36.765625 33.898438 C 39.464844 31.464844 42.667969 30.234375 46.332031 30.234375 C 49.964844 30.234375 53.167969 31.433594 55.867188 33.867188 C 58.566406 36.300781 60.132812 39.332031 60.535156 42.933594 L 60.734375 44.832031 C 60.734375 45.234375 60.933594 45.433594 61.367188 45.433594 L 66.699219 45.433594 C 69.734375 45.433594 72.300781 46.5 74.433594 48.601562 C 76.566406 50.699219 77.667969 53.265625 77.667969 56.199219 C 77.667969 59.035156 76.667969 61.5 74.699219 63.566406 C 72.734375 65.632812 70.265625 66.800781 67.398438 67 C 66.933594 67 66.699219 67.199219 66.699219 67.632812 L 66.699219 72.199219 C 66.699219 72.566406 66.933594 72.765625 67.398438 72.765625 C 71.832031 72.632812 75.601562 70.933594 78.699219 67.734375 C 81.800781 64.5 83.332031 60.667969 83.332031 56.234375 C 83.332031 53.765625 82.867188 51.535156 81.898438 49.535156 C 84.535156 46.332031 85.832031 42.632812 85.832031 38.332031 C 85.832031 35.199219 85.035156 32.265625 83.464844 29.566406 C 81.898438 26.867188 79.765625 24.734375 77.066406 23.167969 C 74.367188 21.601562 71.464844 20.800781 68.332031 20.800781 C 63.265625 20.800781 58.898438 22.734375 55.234375 26.632812 C 52.464844 25.367188 49.5 24.667969 46.332031 24.667969 C 41.632812 24.667969 37.433594 26.132812 33.800781 29.035156 C 30.167969 31.933594 27.800781 35.699219 26.800781 40.265625 C 23.101562 41.132812 20.066406 43.066406 17.667969 46.066406 C 15.265625 49.035156 14.066406 52.464844 14.066406 56.300781 Z M 33.832031 59.234375 C 33.832031 60.5 34.300781 61.566406 35.265625 62.5 C 36.199219 63.398438 37.332031 63.867188 38.667969 63.867188 C 40 63.867188 41.101562 63.433594 42 62.535156 C 42.898438 61.632812 43.367188 60.535156 43.367188 59.265625 C 43.367188 58.398438 42.964844 57.265625 42.199219 55.867188 C 41.433594 54.464844 40.699219 53.332031 40 52.535156 C 39.933594 52.464844 39.734375 52.234375 39.398438 51.867188 C 39.066406 51.5 38.832031 51.234375 38.699219 51.066406 L 37.5 52.398438 C 36.566406 53.398438 35.734375 54.566406 35 55.898438 C 34.234375 57.234375 33.832031 58.367188 33.832031 59.234375 Z M 43.800781 72.535156 C 43.800781 74.632812 44.566406 76.464844 46.101562 78 C 47.632812 79.535156 49.464844 80.300781 51.601562 80.300781 C 53.734375 80.300781 55.601562 79.535156 57.132812 78 C 58.667969 76.464844 59.433594 74.632812 59.433594 72.535156 C 59.433594 71.632812 59.167969 70.566406 58.667969 69.300781 C 58.132812 68.035156 57.535156 66.898438 56.800781 65.832031 C 55.265625 63.867188 53.832031 62.199219 52.5 60.867188 C 52.300781 60.734375 52.035156 60.433594 51.632812 60.066406 L 49.667969 62 C 48.199219 63.398438 46.832031 65.167969 45.632812 67.199219 C 44.398438 69.265625 43.800781 71.035156 43.800781 72.535156 Z M 48.734375 50.199219 C 48.734375 51.101562 49.035156 51.832031 49.667969 52.433594 C 50.300781 53.035156 51.101562 53.332031 52.035156 53.332031 C 52.898438 53.332031 53.632812 53.035156 54.234375 52.433594 C 54.832031 51.832031 55.132812 51.101562 55.132812 50.199219 C 55.132812 48.832031 54.101562 47.066406 52.035156 44.832031 L 51.199219 45.699219 C 50.566406 46.367188 50 47.132812 49.5 48.035156 C 48.964844 48.898438 48.734375 49.632812 48.734375 50.199219 Z M 60.035156 30.066406 C 62.265625 27.867188 65.035156 26.765625 68.300781 26.765625 C 71.566406 26.765625 74.332031 27.898438 76.601562 30.167969 C 78.867188 32.433594 80.035156 35.199219 80.035156 38.433594 C 80.035156 40.535156 79.464844 42.601562 78.332031 44.601562 C 75 41.398438 71.101562 39.800781 66.632812 39.800781 L 65.667969 39.800781 C 64.734375 35.867188 62.832031 32.632812 60.035156 30.066406 Z M 60.035156 30.066406 "/>
</g>
</svg>
