<?xml version="1.0" encoding="UTF-8"?>
<svg xmlns="http://www.w3.org/2000/svg" xmlns:xlink="http://www.w3.org/1999/xlink" width="100px" height="100px" viewBox="0 0 100 100" version="1.1">
<g id="surface1">
<path style=" stroke:none;fill-rule:nonzero;fill:rgb(0%,0%,0%);fill-opacity:1;" d="M 13.566406 56.332031 C 13.566406 60.765625 15.132812 64.601562 18.234375 67.800781 C 21.332031 71 25.132812 72.699219 29.566406 72.898438 C 29.964844 72.898438 30.167969 72.699219 30.167969 72.332031 L 30.167969 67.867188 C 30.167969 67.5 29.964844 67.300781 29.566406 67.300781 C 26.699219 67.132812 24.265625 66 22.265625 63.867188 C 20.265625 61.734375 19.265625 59.234375 19.265625 56.332031 C 19.265625 53.566406 20.199219 51.167969 22.101562 49.101562 C 24 47.035156 26.332031 45.867188 29.101562 45.535156 L 30.867188 45.398438 C 31.300781 45.398438 31.535156 45.199219 31.535156 44.832031 L 31.765625 43.035156 C 32.132812 39.433594 33.667969 36.398438 36.367188 33.964844 C 39.066406 31.535156 42.265625 30.300781 45.898438 30.300781 C 49.535156 30.300781 52.699219 31.535156 55.433594 33.964844 C 58.167969 36.398438 59.699219 39.433594 60.101562 43.035156 L 60.367188 44.933594 C 60.367188 45.332031 60.566406 45.535156 60.933594 45.535156 L 66.332031 45.535156 C 69.300781 45.535156 71.898438 46.601562 74.066406 48.734375 C 76.234375 50.867188 77.332031 53.398438 77.332031 56.332031 C 77.332031 59.234375 76.332031 61.734375 74.332031 63.867188 C 72.332031 66 69.898438 67.132812 67.035156 67.300781 C 66.566406 67.300781 66.332031 67.5 66.332031 67.867188 L 66.332031 72.332031 C 66.332031 72.699219 66.566406 72.898438 67.035156 72.898438 C 71.464844 72.765625 75.234375 71.066406 78.300781 67.867188 C 81.398438 64.632812 82.933594 60.800781 82.933594 56.367188 C 82.933594 53.433594 82.167969 50.699219 80.667969 48.167969 C 83.367188 45.734375 85.101562 42.832031 85.933594 39.433594 L 86.398438 37.035156 C 86.433594 37 86.464844 36.933594 86.464844 36.800781 C 86.464844 36.566406 86.300781 36.367188 85.933594 36.265625 L 84.066406 35.667969 C 82.167969 35.132812 80.535156 34.199219 79.199219 32.898438 C 77.832031 31.601562 76.867188 30.234375 76.300781 28.800781 C 75.734375 27.367188 75.433594 25.933594 75.433594 24.535156 C 75.367188 23.800781 75.464844 22.867188 75.699219 21.800781 L 76.167969 19.765625 C 76.300781 19.433594 76.167969 19.167969 75.699219 18.964844 L 73.066406 18.167969 C 71.566406 17.832031 70.167969 17.667969 68.832031 17.667969 C 67.566406 17.667969 66.300781 17.800781 65.035156 18.101562 C 63.734375 18.398438 62.398438 18.832031 61.035156 19.464844 C 59.667969 20.066406 58.332031 20.964844 57.035156 22.132812 C 55.734375 23.300781 54.632812 24.632812 53.699219 26.199219 C 50.964844 25.199219 48.367188 24.699219 45.933594 24.699219 C 41.234375 24.699219 37.035156 26.167969 33.398438 29.101562 C 29.765625 32.035156 27.398438 35.765625 26.367188 40.332031 C 22.667969 41.199219 19.632812 43.101562 17.234375 46.101562 C 14.765625 49.066406 13.566406 52.5 13.566406 56.332031 Z M 32.101562 79.132812 C 32.101562 79.699219 32.265625 80.234375 32.632812 80.765625 C 33 81.300781 33.535156 81.667969 34.265625 81.867188 C 35.035156 82.101562 35.765625 82.035156 36.398438 81.734375 C 37.066406 81.398438 37.5 80.800781 37.734375 79.867188 L 42.5 60.300781 C 42.699219 59.464844 42.601562 58.699219 42.234375 58.066406 C 41.832031 57.398438 41.265625 57 40.5 56.832031 C 39.765625 56.601562 39.066406 56.667969 38.398438 57.066406 C 37.734375 57.433594 37.265625 58 37.035156 58.765625 L 32.234375 78.433594 C 32.234375 78.464844 32.199219 78.566406 32.167969 78.734375 C 32.132812 78.898438 32.101562 79.035156 32.101562 79.132812 Z M 40.800781 89.367188 C 40.800781 89.898438 40.964844 90.398438 41.300781 90.898438 C 41.632812 91.398438 42.132812 91.734375 42.800781 91.933594 C 43.167969 92.035156 43.433594 92.066406 43.601562 92.066406 C 45.066406 92.066406 45.964844 91.398438 46.332031 90.101562 L 53.832031 60.332031 C 54.035156 59.535156 53.964844 58.800781 53.601562 58.167969 C 53.234375 57.535156 52.667969 57.101562 51.933594 56.867188 C 51.167969 56.632812 50.433594 56.699219 49.734375 57.101562 C 49.035156 57.5 48.601562 58.035156 48.433594 58.765625 L 40.898438 88.5 C 40.898438 88.535156 40.898438 88.667969 40.867188 88.898438 C 40.800781 89.101562 40.800781 89.265625 40.800781 89.367188 Z M 54.667969 79.398438 C 54.667969 80.601562 55.367188 81.398438 56.765625 81.867188 C 57.234375 82 57.566406 82.066406 57.765625 82.066406 C 58.132812 82.066406 58.535156 82 58.933594 81.832031 C 59.632812 81.566406 60.066406 80.898438 60.234375 79.898438 L 65 60.332031 C 65.199219 59.535156 65.132812 58.832031 64.734375 58.167969 C 64.367188 57.535156 63.800781 57.101562 63.035156 56.867188 C 62.265625 56.632812 61.535156 56.699219 60.832031 57.101562 C 60.132812 57.464844 59.734375 58.035156 59.566406 58.800781 L 54.800781 78.464844 C 54.734375 79 54.667969 79.332031 54.667969 79.398438 Z M 58.601562 29.234375 C 59.667969 27.300781 61.101562 25.832031 62.964844 24.800781 C 64.800781 23.800781 66.765625 23.300781 68.832031 23.332031 C 69.234375 23.332031 69.535156 23.332031 69.734375 23.367188 L 69.734375 24.367188 C 69.699219 27.601562 70.535156 30.632812 72.300781 33.535156 C 74.035156 36.398438 76.5 38.601562 79.667969 40.101562 C 78.933594 41.632812 78.035156 42.800781 77.035156 43.667969 C 73.964844 41.132812 70.398438 39.898438 66.265625 39.898438 L 65.234375 39.898438 C 64.332031 35.667969 62.132812 32.132812 58.601562 29.234375 Z M 58.601562 29.234375 "/>
</g>
</svg>
