<?xml version="1.0" encoding="UTF-8"?>
<svg xmlns="http://www.w3.org/2000/svg" xmlns:xlink="http://www.w3.org/1999/xlink" width="100px" height="100px" viewBox="0 0 100 100" version="1.1">
<g id="surface1">
<path style=" stroke:none;fill-rule:nonzero;fill:rgb(0%,0%,0%);fill-opacity:1;" d="M 13.566406 56.433594 C 13.566406 60.867188 15.132812 64.667969 18.234375 67.867188 C 21.332031 71.066406 25.132812 72.765625 29.566406 72.898438 C 29.964844 72.898438 30.167969 72.699219 30.167969 72.332031 L 30.167969 67.867188 C 30.167969 67.5 29.964844 67.300781 29.566406 67.300781 C 26.734375 67.167969 24.300781 66 22.300781 63.867188 C 20.265625 61.734375 19.265625 59.234375 19.265625 56.398438 C 19.265625 53.566406 20.199219 51.132812 22.101562 49.066406 C 24 47 26.332031 45.867188 29.101562 45.632812 L 30.867188 45.398438 C 31.300781 45.398438 31.535156 45.199219 31.535156 44.832031 L 31.765625 43.101562 C 32.132812 39.464844 33.632812 36.398438 36.332031 33.933594 C 39.035156 31.464844 42.199219 30.234375 45.867188 30.234375 C 49.5 30.234375 52.667969 31.464844 55.398438 33.898438 C 58.132812 36.332031 59.667969 39.367188 60.066406 42.964844 L 60.332031 44.867188 C 60.332031 45.265625 60.535156 45.464844 60.898438 45.464844 L 66.300781 45.464844 C 69.332031 45.464844 71.898438 46.535156 74.066406 48.699219 C 76.234375 50.832031 77.300781 53.398438 77.300781 56.398438 C 77.300781 59.234375 76.300781 61.734375 74.265625 63.867188 C 72.234375 66 69.832031 67.132812 67 67.300781 C 66.535156 67.300781 66.300781 67.5 66.300781 67.867188 L 66.300781 72.332031 C 66.300781 72.699219 66.535156 72.898438 67 72.898438 C 69.933594 72.832031 72.601562 72.035156 75.035156 70.535156 C 77.464844 69.035156 79.398438 67.035156 80.800781 64.535156 C 82.199219 62.035156 82.898438 59.332031 82.898438 56.433594 C 82.898438 53.398438 82.167969 50.632812 80.734375 48.167969 C 83.199219 45.964844 84.867188 43.101562 85.800781 39.566406 L 86.367188 37.167969 C 86.398438 37.132812 86.433594 37.035156 86.433594 36.898438 C 86.433594 36.667969 86.265625 36.464844 85.898438 36.367188 L 83.867188 35.800781 C 82.398438 35.367188 81.101562 34.734375 79.964844 33.898438 C 78.832031 33.066406 77.933594 32.132812 77.265625 31.101562 C 76.601562 30.066406 76.132812 29.035156 75.800781 27.933594 C 75.464844 26.867188 75.300781 25.800781 75.300781 24.765625 C 75.300781 23.867188 75.398438 22.898438 75.632812 21.898438 L 76 19.832031 C 76.066406 19.535156 75.933594 19.265625 75.535156 19.101562 L 72.867188 18.300781 C 71.398438 17.933594 70.035156 17.765625 68.699219 17.765625 C 67.464844 17.765625 66.234375 17.898438 64.964844 18.199219 C 63.699219 18.5 62.398438 18.933594 61.035156 19.566406 C 59.667969 20.199219 58.367188 21.066406 57.101562 22.234375 C 55.832031 23.398438 54.734375 24.734375 53.800781 26.300781 C 51.101562 25.199219 48.464844 24.632812 45.867188 24.632812 C 41.167969 24.632812 36.964844 26.101562 33.332031 29.035156 C 29.699219 31.964844 27.332031 35.699219 26.300781 40.265625 C 22.566406 41.199219 19.5 43.167969 17.132812 46.132812 C 14.765625 49.132812 13.566406 52.566406 13.566406 56.433594 Z M 34.867188 70.066406 C 34.867188 70.867188 35.132812 71.535156 35.667969 72.066406 C 36.199219 72.632812 36.832031 72.898438 37.632812 72.898438 C 38.433594 72.898438 39.101562 72.632812 39.632812 72.066406 C 40.167969 71.5 40.433594 70.832031 40.433594 70.066406 C 40.433594 69.332031 40.167969 68.667969 39.632812 68.132812 C 39.101562 67.601562 38.433594 67.332031 37.632812 67.332031 C 36.867188 67.332031 36.199219 67.601562 35.667969 68.132812 C 35.132812 68.667969 34.867188 69.300781 34.867188 70.066406 Z M 34.867188 82.199219 C 34.867188 82.964844 35.132812 83.601562 35.667969 84.132812 C 36.199219 84.667969 36.867188 84.933594 37.601562 84.933594 C 38.398438 84.933594 39.066406 84.667969 39.601562 84.167969 C 40.132812 83.632812 40.398438 83 40.398438 82.199219 C 40.398438 81.398438 40.132812 80.765625 39.601562 80.234375 C 39.066406 79.699219 38.398438 79.464844 37.601562 79.464844 C 36.800781 79.464844 36.167969 79.734375 35.632812 80.234375 C 35.132812 80.734375 34.867188 81.398438 34.867188 82.199219 Z M 45.535156 76.535156 C 45.535156 77.332031 45.800781 78 46.332031 78.5 C 46.867188 79.035156 47.535156 79.300781 48.265625 79.300781 C 49.066406 79.300781 49.734375 79.035156 50.300781 78.5 C 50.867188 77.964844 51.132812 77.300781 51.132812 76.535156 C 51.132812 75.734375 50.867188 75.066406 50.300781 74.5 C 49.734375 73.933594 49.066406 73.632812 48.265625 73.632812 C 47.535156 73.632812 46.898438 73.933594 46.332031 74.5 C 45.765625 75.066406 45.535156 75.734375 45.535156 76.535156 Z M 45.535156 64.398438 C 45.535156 65.199219 45.800781 65.832031 46.332031 66.332031 C 46.867188 66.867188 47.535156 67.132812 48.265625 67.132812 C 49.066406 67.132812 49.765625 66.867188 50.300781 66.367188 C 50.832031 65.867188 51.132812 65.199219 51.132812 64.398438 C 51.132812 63.632812 50.867188 62.964844 50.300781 62.398438 C 49.734375 61.832031 49.066406 61.566406 48.265625 61.566406 C 47.535156 61.566406 46.867188 61.832031 46.332031 62.398438 C 45.800781 62.964844 45.535156 63.632812 45.535156 64.398438 Z M 45.535156 88.765625 C 45.535156 89.5 45.800781 90.132812 46.332031 90.667969 C 46.898438 91.234375 47.535156 91.5 48.265625 91.5 C 49.066406 91.5 49.734375 91.234375 50.300781 90.699219 C 50.867188 90.167969 51.132812 89.535156 51.132812 88.734375 C 51.132812 87.933594 50.867188 87.265625 50.300781 86.699219 C 49.734375 86.132812 49.066406 85.832031 48.265625 85.832031 C 47.535156 85.832031 46.898438 86.132812 46.332031 86.699219 C 45.832031 87.300781 45.535156 88 45.535156 88.765625 Z M 56.332031 70.066406 C 56.332031 70.867188 56.601562 71.535156 57.167969 72.066406 C 57.734375 72.601562 58.367188 72.898438 59.167969 72.898438 C 59.964844 72.898438 60.601562 72.632812 61.132812 72.066406 C 61.667969 71.5 61.933594 70.832031 61.933594 70.066406 C 61.933594 69.332031 61.667969 68.667969 61.132812 68.132812 C 60.601562 67.601562 59.964844 67.332031 59.167969 67.332031 C 58.367188 67.332031 57.734375 67.601562 57.167969 68.132812 C 56.601562 68.667969 56.332031 69.300781 56.332031 70.066406 Z M 56.332031 82.199219 C 56.332031 82.964844 56.601562 83.601562 57.132812 84.132812 C 57.667969 84.667969 58.332031 84.933594 59.132812 84.933594 C 59.933594 84.933594 60.566406 84.667969 61.101562 84.132812 C 61.632812 83.601562 61.867188 82.964844 61.867188 82.167969 C 61.867188 81.367188 61.601562 80.734375 61.101562 80.199219 C 60.566406 79.667969 59.933594 79.433594 59.132812 79.433594 C 58.332031 79.433594 57.667969 79.699219 57.132812 80.199219 C 56.601562 80.734375 56.332031 81.398438 56.332031 82.199219 Z M 58.601562 29.234375 C 59.632812 27.433594 61.101562 26.035156 62.933594 25.035156 C 64.765625 24.035156 66.667969 23.535156 68.632812 23.5 C 69.132812 23.5 69.5 23.535156 69.734375 23.566406 L 69.734375 24.601562 C 69.734375 27.832031 70.601562 30.867188 72.332031 33.734375 C 74.066406 36.601562 76.5 38.765625 79.566406 40.265625 C 79.035156 41.464844 78.199219 42.667969 77.035156 43.832031 C 74.066406 41.199219 70.5 39.898438 66.265625 39.898438 L 65.234375 39.898438 C 64.332031 35.800781 62.132812 32.265625 58.601562 29.234375 Z M 58.601562 29.234375 "/>
</g>
</svg>
