<?xml version="1.0" encoding="UTF-8"?>
<svg xmlns="http://www.w3.org/2000/svg" xmlns:xlink="http://www.w3.org/1999/xlink" width="100px" height="100px" viewBox="0 0 100 100" version="1.1">
<g id="surface1">
<path style=" stroke:none;fill-rule:nonzero;fill:rgb(0%,0%,0%);fill-opacity:1;" d="M 13.632812 56.300781 C 13.632812 60 14.734375 63.300781 16.933594 66.199219 C 19.132812 69.101562 22 71.101562 25.535156 72.167969 L 23.367188 77.832031 C 23.234375 78.300781 23.367188 78.535156 23.832031 78.535156 L 30.898438 78.535156 L 26.601562 92.464844 L 27.535156 92.464844 L 41.632812 73.734375 C 41.765625 73.601562 41.765625 73.433594 41.699219 73.265625 C 41.601562 73.101562 41.464844 73.035156 41.234375 73.035156 L 33.964844 73.035156 L 42.199219 57.566406 C 42.433594 57.101562 42.300781 56.832031 41.765625 56.832031 L 31.898438 56.832031 C 31.601562 56.832031 31.367188 57 31.167969 57.332031 L 27.601562 66.933594 C 25.234375 66.332031 23.265625 65.035156 21.667969 63.035156 C 20.066406 61.035156 19.300781 58.800781 19.300781 56.332031 C 19.300781 53.566406 20.234375 51.167969 22.132812 49.101562 C 24.035156 47.066406 26.367188 45.867188 29.132812 45.535156 L 30.898438 45.300781 C 31.332031 45.300781 31.566406 45.101562 31.566406 44.699219 L 31.800781 43 C 32.167969 39.398438 33.667969 36.367188 36.367188 33.933594 C 39.066406 31.5 42.234375 30.265625 45.867188 30.265625 C 49.5 30.265625 52.667969 31.5 55.398438 33.933594 C 58.132812 36.367188 59.667969 39.398438 60.066406 42.964844 L 60.300781 44.867188 C 60.300781 45.265625 60.5 45.5 60.867188 45.5 L 66.265625 45.5 C 69.300781 45.5 71.867188 46.566406 74.035156 48.667969 C 76.199219 50.765625 77.265625 53.332031 77.265625 56.265625 C 77.265625 59.101562 76.265625 61.566406 74.265625 63.632812 C 72.265625 65.699219 69.832031 66.867188 66.933594 67.066406 C 66.535156 67.066406 66.300781 67.265625 66.300781 67.699219 L 66.300781 72.234375 C 66.300781 72.632812 66.5 72.832031 66.933594 72.832031 C 71.367188 72.699219 75.132812 71 78.234375 67.800781 C 81.332031 64.566406 82.867188 60.734375 82.867188 56.300781 C 82.867188 53.398438 82.132812 50.699219 80.667969 48.132812 C 83.199219 45.667969 84.898438 42.765625 85.699219 39.398438 L 86.332031 37.132812 C 86.367188 37.101562 86.367188 37.035156 86.367188 36.898438 C 86.367188 36.632812 86.199219 36.464844 85.867188 36.367188 L 83.800781 35.800781 C 81.898438 35.234375 80.265625 34.300781 78.933594 33 C 77.601562 31.699219 76.667969 30.332031 76.101562 28.933594 C 75.535156 27.535156 75.265625 26.132812 75.300781 24.734375 C 75.300781 23.800781 75.398438 22.867188 75.632812 21.898438 L 76 19.867188 C 76.066406 19.535156 75.933594 19.265625 75.535156 19.101562 L 72.867188 18.300781 C 71.300781 18 69.933594 17.832031 68.734375 17.832031 C 67.5 17.800781 66.234375 17.933594 64.964844 18.234375 C 63.699219 18.5 62.367188 18.964844 61 19.566406 C 59.632812 20.167969 58.332031 21.066406 57.066406 22.199219 C 55.800781 23.332031 54.699219 24.667969 53.765625 26.199219 C 51 25.167969 48.367188 24.667969 45.898438 24.667969 C 41.199219 24.667969 37 26.132812 33.367188 29.066406 C 29.734375 32 27.367188 35.734375 26.332031 40.265625 C 22.632812 41.132812 19.601562 43.066406 17.199219 46.066406 C 14.832031 49.035156 13.632812 52.464844 13.632812 56.300781 Z M 40.867188 89.199219 C 40.867188 89.734375 41.035156 90.234375 41.367188 90.765625 C 41.699219 91.300781 42.199219 91.667969 42.867188 91.867188 C 43.398438 91.964844 43.699219 92.035156 43.765625 92.035156 C 44.066406 92.035156 44.5 91.933594 45 91.699219 C 45.699219 91.367188 46.167969 90.800781 46.398438 89.933594 L 47.332031 86.433594 C 47.535156 85.699219 47.464844 85 47.066406 84.332031 C 46.667969 83.667969 46.101562 83.199219 45.300781 82.964844 C 44.566406 82.765625 43.867188 82.867188 43.199219 83.234375 C 42.535156 83.632812 42.066406 84.234375 41.832031 85 L 40.933594 88.332031 Z M 45.332031 73.332031 C 45.332031 74.765625 46 75.601562 47.367188 75.832031 C 47.832031 75.933594 48.132812 76 48.265625 76 C 49.535156 76 50.367188 75.300781 50.832031 73.898438 L 51.832031 70.5 C 52.035156 69.765625 51.933594 69.066406 51.566406 68.398438 C 51.199219 67.734375 50.566406 67.265625 49.800781 67.035156 C 49.066406 66.800781 48.332031 66.867188 47.667969 67.265625 C 47 67.667969 46.535156 68.234375 46.300781 69.035156 L 45.464844 72.398438 C 45.367188 72.699219 45.332031 73 45.332031 73.332031 Z M 54.699219 78.898438 C 54.734375 79.464844 54.933594 80 55.300781 80.5 C 55.667969 81 56.199219 81.398438 56.898438 81.632812 C 57.433594 81.765625 57.800781 81.832031 58 81.832031 C 59.132812 81.832031 59.933594 81.066406 60.367188 79.566406 L 61.167969 76.167969 C 61.398438 75.398438 61.332031 74.667969 60.964844 73.964844 C 60.601562 73.265625 60.035156 72.832031 59.300781 72.601562 C 58.464844 72.398438 57.699219 72.5 57.035156 72.867188 C 56.367188 73.265625 55.933594 73.867188 55.800781 74.632812 L 54.832031 78.066406 C 54.832031 78.132812 54.800781 78.265625 54.765625 78.464844 C 54.699219 78.699219 54.699219 78.832031 54.699219 78.898438 Z M 58.632812 29.234375 C 59.734375 27.367188 61.234375 25.933594 63.101562 24.933594 C 64.964844 23.933594 66.933594 23.433594 68.964844 23.433594 L 69.699219 23.433594 L 69.699219 24.5 C 69.699219 26.632812 70.066406 28.699219 70.832031 30.699219 C 71.601562 32.699219 72.699219 34.535156 74.234375 36.234375 C 75.734375 37.933594 77.535156 39.265625 79.601562 40.265625 C 79.035156 41.535156 78.199219 42.667969 77.066406 43.699219 C 74.035156 41.101562 70.464844 39.800781 66.332031 39.800781 L 65.234375 39.800781 C 64.265625 35.601562 62.066406 32.066406 58.632812 29.234375 Z M 59.265625 62.898438 C 59.265625 64.332031 60 65.265625 61.433594 65.632812 C 61.898438 65.699219 62.234375 65.765625 62.433594 65.765625 C 63.632812 65.765625 64.464844 65.035156 64.898438 63.601562 L 65.832031 60.132812 C 65.867188 59.964844 65.867188 59.734375 65.867188 59.398438 C 65.898438 58.832031 65.765625 58.300781 65.398438 57.765625 C 65.035156 57.234375 64.5 56.867188 63.765625 56.667969 C 63.734375 56.667969 63.601562 56.667969 63.433594 56.632812 C 63.265625 56.601562 63.101562 56.601562 63 56.601562 C 62.464844 56.601562 61.933594 56.765625 61.398438 57.101562 C 60.867188 57.433594 60.5 57.964844 60.300781 58.667969 L 59.332031 62.066406 C 59.332031 62.101562 59.332031 62.199219 59.300781 62.398438 C 59.300781 62.632812 59.265625 62.800781 59.265625 62.898438 Z M 59.265625 62.898438 "/>
</g>
</svg>
