<?xml version="1.0" encoding="UTF-8"?>
<svg xmlns="http://www.w3.org/2000/svg" xmlns:xlink="http://www.w3.org/1999/xlink" width="100px" height="100px" viewBox="0 0 100 100" version="1.1">
<g id="surface1">
<path style=" stroke:none;fill-rule:nonzero;fill:rgb(0%,0%,0%);fill-opacity:1;" d="M 7.832031 70.167969 C 7.832031 70.964844 8.101562 71.601562 8.667969 72.132812 C 9.234375 72.667969 9.933594 72.898438 10.765625 72.898438 L 42.101562 72.898438 C 42.898438 72.898438 43.535156 72.632812 44.066406 72.132812 C 44.601562 71.601562 44.832031 70.964844 44.832031 70.167969 C 44.832031 69.332031 44.566406 68.667969 44.066406 68.132812 C 43.535156 67.601562 42.898438 67.332031 42.101562 67.332031 L 10.765625 67.332031 C 9.933594 67.332031 9.234375 67.601562 8.667969 68.132812 C 8.101562 68.667969 7.832031 69.332031 7.832031 70.167969 Z M 16.601562 60 C 16.601562 60.800781 16.898438 61.464844 17.464844 62 C 18 62.566406 18.667969 62.832031 19.464844 62.832031 L 50.867188 62.832031 C 51.632812 62.832031 52.300781 62.566406 52.832031 62 C 53.367188 61.433594 53.632812 60.765625 53.632812 60 C 53.632812 59.234375 53.367188 58.566406 52.867188 58.035156 C 52.367188 57.5 51.699219 57.234375 50.898438 57.234375 L 19.5 57.234375 C 18.699219 57.234375 18.035156 57.5 17.464844 58.035156 C 16.898438 58.566406 16.601562 59.234375 16.601562 60 Z M 20.066406 52.199219 C 20.066406 52.5 20.265625 52.667969 20.667969 52.667969 L 25.433594 52.667969 C 25.734375 52.667969 25.964844 52.5 26.167969 52.199219 C 26.933594 50.398438 28.066406 48.898438 29.632812 47.699219 C 31.199219 46.5 32.933594 45.832031 34.898438 45.699219 L 36.734375 45.464844 C 37.132812 45.464844 37.332031 45.265625 37.332031 44.898438 L 37.566406 43.167969 C 37.933594 39.535156 39.464844 36.5 42.167969 34.101562 C 44.898438 31.667969 48.066406 30.464844 51.734375 30.464844 C 55.367188 30.464844 58.535156 31.667969 61.199219 34.066406 C 63.867188 36.464844 65.433594 39.464844 65.898438 43.101562 L 66.167969 45.035156 C 66.167969 45.398438 66.367188 45.601562 66.765625 45.601562 L 72.132812 45.601562 C 75.167969 45.601562 77.734375 46.667969 79.867188 48.800781 C 82 50.933594 83.066406 53.5 83.066406 56.5 C 83.066406 59.433594 82 62 79.832031 64.132812 C 77.667969 66.300781 75.132812 67.367188 72.167969 67.367188 L 49.132812 67.367188 C 48.765625 67.367188 48.566406 67.566406 48.566406 67.933594 L 48.566406 72.398438 C 48.566406 72.765625 48.765625 72.964844 49.132812 72.964844 L 72.167969 72.964844 C 75.167969 72.964844 77.933594 72.234375 80.464844 70.765625 C 83 69.300781 85.035156 67.300781 86.5 64.765625 C 87.964844 62.234375 88.734375 59.464844 88.734375 56.464844 C 88.734375 53.464844 88 50.734375 86.566406 48.234375 C 88.964844 46.101562 90.632812 43.234375 91.601562 39.632812 L 92.199219 37.367188 C 92.234375 37.332031 92.234375 37.265625 92.234375 37.132812 C 92.234375 36.867188 92.066406 36.699219 91.734375 36.601562 L 89.667969 35.867188 C 88.199219 35.433594 86.898438 34.800781 85.800781 33.964844 C 84.667969 33.132812 83.800781 32.199219 83.132812 31.167969 C 82.464844 30.132812 82 29.101562 81.667969 28.035156 C 81.332031 26.964844 81.167969 25.933594 81.167969 24.867188 C 81.167969 24.066406 81.300781 23.101562 81.535156 21.964844 L 81.964844 19.933594 C 82.101562 19.632812 81.964844 19.367188 81.535156 19.167969 L 78.734375 18.332031 C 77.265625 17.964844 75.898438 17.800781 74.566406 17.800781 C 73.300781 17.800781 72.066406 17.933594 70.800781 18.234375 C 69.535156 18.535156 68.234375 18.964844 66.867188 19.601562 C 65.5 20.199219 64.199219 21.101562 62.933594 22.265625 C 61.667969 23.433594 60.566406 24.765625 59.632812 26.332031 C 57.066406 25.265625 54.398438 24.734375 51.734375 24.734375 C 47.035156 24.734375 42.867188 26.199219 39.234375 29.132812 C 35.601562 32.066406 33.300781 35.800781 32.300781 40.398438 C 29.398438 41.066406 26.867188 42.433594 24.699219 44.464844 C 22.535156 46.535156 21 48.964844 20.167969 51.832031 L 20.167969 51.933594 C 20.101562 51.964844 20.066406 52.066406 20.066406 52.199219 Z M 22.5 80.5 C 22.5 81.300781 22.765625 81.964844 23.332031 82.5 C 23.867188 83.066406 24.535156 83.332031 25.332031 83.332031 L 56.765625 83.332031 C 57.566406 83.332031 58.234375 83.066406 58.800781 82.5 C 59.367188 81.933594 59.632812 81.265625 59.632812 80.5 C 59.632812 79.734375 59.367188 79.066406 58.800781 78.535156 C 58.234375 78 57.566406 77.734375 56.765625 77.734375 L 25.332031 77.734375 C 24.535156 77.734375 23.867188 78 23.332031 78.535156 C 22.765625 79.066406 22.5 79.734375 22.5 80.5 Z M 64.433594 29.265625 C 65.566406 27.433594 67.066406 26 68.933594 25 C 70.765625 24 72.667969 23.5 74.601562 23.535156 C 74.964844 23.535156 75.265625 23.535156 75.433594 23.566406 L 75.433594 24.367188 C 75.433594 27.601562 76.300781 30.699219 78.066406 33.667969 C 79.832031 36.601562 82.234375 38.832031 85.300781 40.265625 C 84.734375 41.601562 83.867188 42.800781 82.765625 43.832031 C 79.832031 41.199219 76.265625 39.898438 72.101562 39.898438 L 71.035156 39.898438 C 70.199219 35.898438 68 32.367188 64.433594 29.265625 Z M 64.433594 29.265625 "/>
</g>
</svg>
