<?xml version="1.0" encoding="UTF-8"?>
<svg xmlns="http://www.w3.org/2000/svg" xmlns:xlink="http://www.w3.org/1999/xlink" width="100px" height="100px" viewBox="0 0 100 100" version="1.1">
<g id="surface1">
<path style=" stroke:none;fill-rule:nonzero;fill:rgb(0%,0%,0%);fill-opacity:1;" d="M 14.167969 56.398438 C 14.167969 58.601562 14.566406 60.667969 15.433594 62.667969 C 16.265625 64.667969 17.398438 66.367188 18.832031 67.832031 C 20.265625 69.300781 21.964844 70.464844 23.933594 71.367188 C 25.898438 72.265625 28 72.765625 30.199219 72.867188 C 30.601562 72.867188 30.800781 72.667969 30.800781 72.300781 L 30.800781 67.832031 C 30.800781 67.464844 30.601562 67.265625 30.199219 67.265625 C 27.367188 67.132812 24.933594 65.964844 22.933594 63.832031 C 20.933594 61.699219 19.933594 59.199219 19.933594 56.367188 C 19.933594 53.535156 20.867188 51.101562 22.734375 49.035156 C 24.601562 46.964844 26.933594 45.832031 29.734375 45.601562 L 31.5 45.367188 C 31.832031 45.367188 32 45.199219 32 44.867188 L 32.265625 43.101562 C 32.632812 39.464844 34.199219 36.433594 36.933594 34 C 39.667969 31.566406 42.867188 30.367188 46.535156 30.367188 C 50.167969 30.367188 53.332031 31.566406 56.035156 33.964844 C 58.765625 36.367188 60.300781 39.367188 60.699219 42.964844 L 60.933594 44.867188 C 60.933594 45.265625 61.132812 45.5 61.535156 45.5 L 66.933594 45.5 C 69.898438 45.5 72.433594 46.566406 74.566406 48.699219 C 76.699219 50.832031 77.765625 53.398438 77.765625 56.398438 C 77.765625 59.234375 76.765625 61.734375 74.800781 63.867188 C 72.832031 66 70.398438 67.132812 67.566406 67.300781 C 67.132812 67.300781 66.933594 67.5 66.933594 67.867188 L 66.933594 72.332031 C 66.933594 72.699219 67.132812 72.898438 67.566406 72.898438 C 72.035156 72.699219 75.800781 71 78.867188 67.832031 C 81.964844 64.667969 83.5 60.867188 83.5 56.433594 C 83.5 54.300781 83.035156 52.066406 82.132812 49.765625 C 84.667969 46.464844 85.898438 42.800781 85.898438 38.800781 C 85.898438 35.667969 85.101562 32.734375 83.535156 30.035156 C 81.964844 27.332031 79.832031 25.199219 77.132812 23.632812 C 74.433594 22.066406 71.535156 21.265625 68.398438 21.265625 C 63.300781 21.265625 59 23.132812 55.535156 26.832031 C 52.632812 25.398438 49.632812 24.667969 46.535156 24.667969 C 41.800781 24.667969 37.601562 26.132812 33.964844 29.066406 C 30.332031 32 28 35.765625 26.964844 40.332031 C 23.199219 41.199219 20.132812 43.132812 17.765625 46.066406 C 15.398438 49 14.167969 52.464844 14.167969 56.398438 Z M 32.132812 78.898438 C 32.132812 79.464844 32.300781 80 32.632812 80.5 C 32.964844 81 33.5 81.398438 34.234375 81.632812 C 34.601562 81.832031 35.035156 81.898438 35.464844 81.867188 C 35.898438 81.832031 36.367188 81.601562 36.800781 81.199219 C 37.234375 80.800781 37.566406 80.265625 37.734375 79.601562 L 38.667969 76.234375 C 38.867188 75.398438 38.800781 74.632812 38.398438 74 C 38 73.332031 37.433594 72.933594 36.632812 72.765625 C 35.933594 72.535156 35.234375 72.601562 34.535156 73 C 33.832031 73.398438 33.398438 73.933594 33.167969 74.667969 L 32.234375 78.132812 C 32.167969 78.433594 32.132812 78.699219 32.132812 78.898438 Z M 36.5 63 C 36.535156 63.632812 36.699219 64.234375 37.066406 64.734375 C 37.433594 65.234375 37.964844 65.566406 38.667969 65.667969 C 39.265625 65.765625 39.566406 65.832031 39.667969 65.832031 C 40.933594 65.832031 41.765625 65.101562 42.199219 63.632812 L 43.132812 60.300781 C 43.332031 59.535156 43.265625 58.800781 42.867188 58.101562 C 42.464844 57.398438 41.898438 56.933594 41.101562 56.699219 C 40.367188 56.5 39.632812 56.566406 38.964844 56.964844 C 38.300781 57.367188 37.867188 57.933594 37.632812 58.699219 L 36.632812 62.199219 C 36.566406 62.601562 36.5 62.867188 36.5 63 Z M 40.632812 89.332031 C 40.632812 89.933594 40.800781 90.464844 41.132812 91 C 41.464844 91.535156 42 91.898438 42.734375 92.101562 C 43.199219 92.199219 43.5 92.265625 43.667969 92.265625 C 43.964844 92.265625 44.367188 92.167969 44.933594 91.933594 C 45.5 91.667969 45.933594 91.035156 46.199219 90.101562 L 47.199219 86.734375 C 47.398438 85.898438 47.300781 85.132812 46.933594 84.464844 C 46.535156 83.800781 45.964844 83.367188 45.199219 83.234375 C 44.464844 83 43.765625 83.066406 43.066406 83.464844 C 42.367188 83.867188 41.898438 84.433594 41.667969 85.167969 L 40.734375 88.632812 C 40.667969 88.898438 40.632812 89.132812 40.632812 89.332031 Z M 45.066406 73.332031 C 45.066406 73.898438 45.234375 74.433594 45.601562 74.964844 C 45.964844 75.5 46.5 75.867188 47.234375 76.066406 C 47.964844 76.300781 48.699219 76.234375 49.332031 75.898438 C 50 75.566406 50.433594 74.933594 50.699219 74.035156 L 51.632812 70.667969 C 51.867188 69.832031 51.800781 69.101562 51.398438 68.433594 C 51 67.800781 50.433594 67.398438 49.632812 67.234375 C 48.898438 66.964844 48.199219 67.066406 47.5 67.433594 C 46.800781 67.800781 46.367188 68.398438 46.132812 69.132812 L 45.199219 72.601562 C 45.132812 72.933594 45.066406 73.167969 45.066406 73.332031 Z M 54.566406 79.167969 C 54.535156 79.699219 54.667969 80.199219 55.035156 80.699219 C 55.398438 81.199219 55.898438 81.566406 56.566406 81.800781 L 57.398438 81.898438 C 57.765625 81.933594 58.199219 81.832031 58.667969 81.667969 C 59.367188 81.398438 59.832031 80.800781 60.066406 79.867188 L 61 76.367188 C 61.234375 75.601562 61.167969 74.867188 60.765625 74.234375 C 60.367188 73.566406 59.800781 73.132812 59.066406 72.898438 C 58.234375 72.699219 57.5 72.800781 56.832031 73.167969 C 56.167969 73.535156 55.765625 74.167969 55.632812 74.933594 L 54.667969 78.265625 C 54.601562 78.832031 54.566406 79.132812 54.566406 79.167969 Z M 59.066406 63.167969 C 59.066406 63.734375 59.234375 64.300781 59.601562 64.832031 C 59.964844 65.367188 60.5 65.699219 61.199219 65.832031 L 62.035156 65.933594 C 63.464844 65.933594 64.367188 65.234375 64.734375 63.867188 L 65.667969 60.433594 C 65.867188 59.601562 65.765625 58.832031 65.398438 58.167969 C 65.035156 57.5 64.398438 57.101562 63.632812 56.933594 C 62.867188 56.699219 62.132812 56.765625 61.5 57.167969 C 60.832031 57.566406 60.398438 58.132812 60.199219 58.933594 L 59.199219 62.332031 C 59.132812 62.734375 59.066406 63 59.066406 63.167969 Z M 60.199219 30.167969 C 62.433594 28.035156 65.132812 26.933594 68.367188 26.933594 C 71.632812 26.933594 74.398438 28.101562 76.667969 30.433594 C 78.964844 32.765625 80.101562 35.535156 80.101562 38.800781 C 80.101562 40.933594 79.566406 42.898438 78.5 44.699219 C 75.300781 41.5 71.433594 39.898438 66.867188 39.898438 L 65.800781 39.898438 C 65 36.234375 63.132812 33 60.199219 30.167969 Z M 60.199219 30.167969 "/>
</g>
</svg>
