<?xml version="1.0" encoding="UTF-8"?>
<svg xmlns="http://www.w3.org/2000/svg" xmlns:xlink="http://www.w3.org/1999/xlink" width="100px" height="100px" viewBox="0 0 100 100" version="1.1">
<g id="surface1">
<path style=" stroke:none;fill-rule:nonzero;fill:rgb(0%,0%,0%);fill-opacity:1;" d="M 26.367188 48.265625 C 26.367188 45.066406 27 42.035156 28.234375 39.101562 C 29.464844 36.167969 31.167969 33.667969 33.265625 31.566406 C 35.367188 29.464844 37.898438 27.765625 40.832031 26.5 C 43.765625 25.234375 46.832031 24.601562 50 24.601562 L 53.800781 24.601562 C 54.332031 24.734375 54.566406 25.066406 54.566406 25.535156 L 54.734375 28.464844 C 54.867188 32.699219 56.367188 36.300781 59.300781 39.265625 C 62.234375 42.234375 65.765625 43.832031 69.933594 44 L 72.667969 44.234375 C 73.199219 44.234375 73.464844 44.5 73.464844 45 L 73.464844 48.265625 C 73.5 52.535156 72.464844 56.5 70.367188 60.132812 C 68.265625 63.765625 65.433594 66.632812 61.800781 68.765625 C 58.199219 70.867188 54.234375 71.933594 49.964844 71.933594 C 46.734375 71.933594 43.632812 71.300781 40.699219 70.066406 C 37.765625 68.832031 35.265625 67.132812 33.167969 65.035156 C 31.066406 62.933594 29.398438 60.398438 28.167969 57.5 C 27 54.566406 26.367188 51.5 26.367188 48.265625 Z M 32.464844 48.265625 C 32.464844 50.800781 32.964844 53.199219 33.964844 55.464844 C 34.964844 57.699219 36.300781 59.601562 37.933594 61.132812 C 39.566406 62.667969 41.433594 63.867188 43.566406 64.734375 C 45.667969 65.632812 47.832031 66.066406 50.035156 66.066406 C 51.964844 66.066406 53.933594 65.699219 55.898438 64.933594 C 57.867188 64.167969 59.699219 63.101562 61.398438 61.734375 C 63.101562 60.367188 64.535156 58.632812 65.765625 56.5 C 67 54.367188 67.765625 52.066406 68.132812 49.535156 C 62.699219 48.398438 58.332031 46.066406 55.066406 42.535156 C 51.800781 39 49.898438 34.867188 49.398438 30.066406 C 46.199219 30.265625 43.332031 31.234375 40.699219 33 C 38.101562 34.765625 36.066406 37 34.632812 39.734375 C 33.199219 42.464844 32.464844 45.300781 32.464844 48.265625 Z M 32.464844 48.265625 "/>
</g>
</svg>
