<?xml version="1.0" encoding="UTF-8"?>
<svg xmlns="http://www.w3.org/2000/svg" xmlns:xlink="http://www.w3.org/1999/xlink" width="100px" height="100px" viewBox="0 0 100 100" version="1.1">
<g id="surface1">
<path style=" stroke:none;fill-rule:nonzero;fill:rgb(0%,0%,0%);fill-opacity:1;" d="M 22.566406 65.5 C 22.566406 62.867188 23.332031 60.566406 24.832031 58.535156 C 26.332031 56.5 28.367188 55.101562 30.867188 54.300781 C 31.933594 50.667969 34.132812 47.898438 37.5 46 L 37.5 44.832031 C 37.5 39.964844 39.035156 35.699219 42.101562 32 C 45.167969 28.300781 49.066406 26 53.765625 25.132812 C 54.964844 24.933594 56.167969 24.832031 57.367188 24.832031 L 57.464844 24.832031 C 58.167969 24.832031 58.933594 24.898438 59.800781 25 C 60.667969 25.066406 61.464844 25.199219 62.234375 25.367188 L 65.265625 26.300781 C 65.699219 26.535156 65.867188 26.832031 65.800781 27.167969 L 65.367188 29.5 C 65.132812 30.601562 65 31.667969 65 32.734375 C 65 33.898438 65.167969 35.101562 65.535156 36.300781 C 65.898438 37.535156 66.433594 38.699219 67.199219 39.898438 C 67.964844 41.101562 68.933594 42.167969 70.234375 43.132812 C 71.5 44.101562 73 44.832031 74.667969 45.332031 L 77.035156 46.035156 C 77.398438 46.132812 77.601562 46.300781 77.601562 46.632812 C 77.601562 46.765625 77.601562 46.832031 77.566406 46.867188 L 76.964844 49.132812 C 76.765625 49.933594 76.535156 50.765625 76.234375 51.566406 C 75.734375 53.035156 74.964844 54.535156 73.898438 56.132812 C 73.898438 56.101562 73.898438 56.101562 73.867188 56.101562 C 72.398438 58.199219 70.601562 59.964844 68.398438 61.367188 C 68.867188 62.5 69.101562 63.867188 69.101562 65.5 C 69.101562 68.800781 67.933594 71.601562 65.632812 73.933594 C 63.332031 76.265625 60.566406 77.433594 57.332031 77.433594 L 34.5 77.433594 C 31.265625 77.433594 28.464844 76.265625 26.101562 73.898438 C 23.765625 71.535156 22.566406 68.734375 22.566406 65.5 Z M 29.167969 65.5 C 29.167969 67 29.667969 68.265625 30.699219 69.332031 C 31.734375 70.398438 33 70.898438 34.5 70.898438 L 57.332031 70.898438 C 58.765625 70.898438 60 70.367188 61.066406 69.300781 C 62.132812 68.234375 62.632812 66.964844 62.632812 65.5 C 62.632812 64.066406 62.101562 62.832031 61.066406 61.765625 C 60.035156 60.699219 58.765625 60.199219 57.332031 60.199219 L 53 60.199219 C 52.632812 60.199219 52.367188 59.964844 52.167969 59.433594 L 51.898438 57.300781 C 51.667969 55.367188 50.832031 53.765625 49.398438 52.5 C 47.964844 51.234375 46.300781 50.566406 44.367188 50.566406 C 42.464844 50.566406 40.832031 51.199219 39.433594 52.5 C 38.035156 53.800781 37.234375 55.398438 37 57.300781 L 36.667969 59.132812 C 36.667969 59.632812 36.464844 59.867188 36.035156 59.867188 L 33.933594 60.132812 C 32.566406 60.265625 31.433594 60.832031 30.535156 61.832031 C 29.632812 62.898438 29.167969 64.101562 29.167969 65.5 Z M 43.933594 44.167969 L 44.332031 44.167969 C 47.433594 44.167969 50.167969 45.035156 52.632812 46.765625 C 55.066406 48.5 56.800781 50.832031 57.765625 53.765625 C 60.332031 53.765625 62.601562 54.566406 64.535156 56.167969 C 66.832031 54.734375 68.535156 52.765625 69.632812 50.332031 C 66.167969 48.601562 63.464844 46.101562 61.535156 42.832031 C 59.601562 39.566406 58.601562 36.132812 58.601562 32.464844 L 58.601562 31.300781 C 58.5 31.300781 58.367188 31.300781 58.199219 31.300781 C 58.035156 31.300781 57.898438 31.300781 57.800781 31.300781 C 55.765625 31.300781 53.800781 31.734375 51.898438 32.601562 C 50 33.464844 48.398438 34.734375 47.101562 36.332031 L 47 36.265625 C 45.167969 38.535156 44.167969 41.167969 43.933594 44.167969 Z M 43.933594 44.167969 "/>
</g>
</svg>
