<?xml version="1.0" encoding="UTF-8"?>
<svg xmlns="http://www.w3.org/2000/svg" xmlns:xlink="http://www.w3.org/1999/xlink" width="100px" height="100px" viewBox="0 0 100 100" version="1.1">
<g id="surface1">
<path style=" stroke:none;fill-rule:nonzero;fill:rgb(0%,0%,0%);fill-opacity:1;" d="M 14.167969 56.199219 C 14.167969 59.867188 15.265625 63.167969 17.5 66.132812 C 19.734375 69.066406 22.566406 71.066406 26.066406 72.132812 L 23.898438 77.667969 C 23.765625 78.132812 23.898438 78.367188 24.367188 78.367188 L 31.433594 78.367188 L 27.632812 92 L 28.601562 92 L 42.199219 73.699219 C 42.332031 73.566406 42.332031 73.398438 42.234375 73.234375 C 42.132812 73.066406 41.964844 73 41.734375 73 L 34.5 73 L 42.734375 57.433594 C 42.964844 56.964844 42.832031 56.699219 42.300781 56.699219 L 32.433594 56.699219 C 32.132812 56.699219 31.898438 56.867188 31.800781 57.167969 L 28.101562 66.933594 C 25.734375 66.332031 23.765625 65.035156 22.167969 63.035156 C 20.601562 61.035156 19.800781 58.800781 19.800781 56.300781 C 19.800781 53.5 20.734375 51.066406 22.632812 49 C 24.535156 46.933594 26.867188 45.765625 29.632812 45.5 L 31.367188 45.265625 C 31.800781 45.265625 32.035156 45.066406 32.035156 44.699219 L 32.265625 42.964844 C 32.632812 39.332031 34.132812 36.300781 36.832031 33.898438 C 39.535156 31.464844 42.699219 30.265625 46.367188 30.265625 C 50 30.265625 53.199219 31.464844 55.898438 33.898438 C 58.601562 36.332031 60.167969 39.367188 60.566406 42.964844 L 60.800781 44.898438 C 60.800781 45.265625 61 45.464844 61.398438 45.464844 L 66.800781 45.464844 C 69.832031 45.464844 72.398438 46.535156 74.566406 48.632812 C 76.699219 50.734375 77.800781 53.300781 77.800781 56.234375 C 77.800781 59.101562 76.800781 61.566406 74.800781 63.667969 C 72.800781 65.765625 70.367188 66.898438 67.464844 67.132812 C 67.066406 67.132812 66.832031 67.332031 66.832031 67.734375 L 66.832031 72.332031 C 66.832031 72.699219 67.035156 72.898438 67.464844 72.898438 C 71.898438 72.765625 75.667969 71.066406 78.765625 67.832031 C 81.867188 64.601562 83.398438 60.765625 83.398438 56.265625 C 83.398438 53.832031 82.933594 51.632812 82.035156 49.601562 C 84.566406 46.265625 85.832031 42.601562 85.832031 38.632812 C 85.832031 36.265625 85.367188 34 84.433594 31.832031 C 83.5 29.667969 82.234375 27.832031 80.699219 26.265625 C 79.167969 24.699219 77.265625 23.464844 75.101562 22.535156 C 72.933594 21.601562 70.667969 21.132812 68.332031 21.132812 C 65.867188 21.132812 63.535156 21.632812 61.265625 22.632812 C 59.035156 23.632812 57.066406 25.035156 55.464844 26.832031 C 52.734375 25.367188 49.734375 24.632812 46.464844 24.632812 C 41.734375 24.632812 37.535156 26.101562 33.898438 29 C 30.265625 31.898438 27.898438 35.667969 26.867188 40.234375 C 23.167969 41.101562 20.132812 43 17.734375 46 C 15.332031 49 14.167969 52.367188 14.167969 56.199219 Z M 41.398438 89.101562 C 41.398438 89.699219 41.566406 90.265625 41.933594 90.800781 C 42.300781 91.367188 42.800781 91.699219 43.464844 91.800781 C 43.535156 91.800781 43.632812 91.800781 43.734375 91.832031 C 43.832031 91.867188 43.964844 91.867188 44.035156 91.867188 C 44.101562 91.867188 44.199219 91.867188 44.300781 91.867188 C 45.734375 91.765625 46.601562 91.101562 46.964844 89.832031 L 47.933594 86.300781 C 48.132812 85.566406 48.035156 84.867188 47.632812 84.199219 C 47.234375 83.535156 46.632812 83.066406 45.867188 82.832031 C 45.132812 82.632812 44.433594 82.734375 43.765625 83.101562 C 43.101562 83.5 42.632812 84.101562 42.398438 84.867188 L 41.566406 88.199219 C 41.464844 88.800781 41.398438 89.066406 41.398438 89.101562 Z M 45.867188 73.199219 C 45.867188 73.699219 46.035156 74.199219 46.367188 74.699219 C 46.699219 75.199219 47.234375 75.566406 47.898438 75.832031 C 48.632812 76.101562 49.332031 76.035156 50 75.667969 C 50.667969 75.300781 51.101562 74.699219 51.332031 73.898438 L 52.332031 70.433594 C 52.535156 69.601562 52.464844 68.832031 52.066406 68.167969 C 51.667969 67.5 51.101562 67.101562 50.300781 66.933594 C 49.566406 66.699219 48.832031 66.765625 48.167969 67.167969 C 47.5 67.566406 47.035156 68.132812 46.765625 68.933594 L 45.933594 72.332031 C 45.933594 72.398438 45.933594 72.5 45.898438 72.601562 C 45.867188 72.699219 45.867188 72.832031 45.867188 72.898438 C 45.867188 73 45.867188 73.101562 45.867188 73.199219 Z M 55.300781 78.601562 C 55.300781 79.234375 55.464844 79.800781 55.832031 80.332031 C 56.199219 80.867188 56.699219 81.234375 57.398438 81.398438 C 57.933594 81.5 58.234375 81.566406 58.300781 81.566406 C 59.601562 81.566406 60.464844 80.898438 60.867188 79.566406 L 61.667969 76.035156 C 61.898438 75.300781 61.832031 74.601562 61.464844 73.933594 C 61.101562 73.265625 60.566406 72.800781 59.800781 72.566406 C 58.964844 72.367188 58.199219 72.464844 57.535156 72.867188 C 56.832031 73.265625 56.433594 73.867188 56.265625 74.632812 L 55.332031 77.933594 C 55.332031 78.101562 55.300781 78.332031 55.300781 78.601562 Z M 59.832031 62.765625 C 59.832031 63.300781 60 63.832031 60.367188 64.332031 C 60.734375 64.832031 61.265625 65.234375 62 65.464844 C 62.566406 65.535156 62.867188 65.566406 62.867188 65.566406 C 63.265625 65.566406 63.667969 65.464844 64.132812 65.300781 C 64.765625 64.964844 65.234375 64.398438 65.433594 63.566406 L 66.398438 60.101562 C 66.601562 59.367188 66.5 58.667969 66.101562 58 C 65.699219 57.332031 65.101562 56.867188 64.332031 56.632812 C 63.566406 56.398438 62.867188 56.464844 62.199219 56.867188 C 61.535156 57.265625 61.101562 57.832031 60.867188 58.632812 L 59.933594 62.035156 C 59.867188 62.332031 59.832031 62.566406 59.832031 62.765625 Z M 60.199219 29.933594 C 62.398438 27.800781 65.132812 26.734375 68.367188 26.734375 C 71.632812 26.734375 74.433594 27.898438 76.699219 30.199219 C 79 32.5 80.132812 35.300781 80.132812 38.566406 C 80.132812 40.667969 79.601562 42.632812 78.5 44.5 C 75.199219 41.300781 71.332031 39.699219 66.867188 39.699219 L 65.800781 39.699219 C 64.800781 35.832031 62.933594 32.566406 60.199219 29.933594 Z M 60.199219 29.933594 "/>
</g>
</svg>
