<?xml version="1.0" encoding="UTF-8"?>
<svg xmlns="http://www.w3.org/2000/svg" xmlns:xlink="http://www.w3.org/1999/xlink" width="100px" height="100px" viewBox="0 0 100 100" version="1.1">
<g id="surface1">
<path style=" stroke:none;fill-rule:nonzero;fill:rgb(0%,0%,0%);fill-opacity:1;" d="M 8.101562 70 C 8.101562 70.832031 8.398438 71.5 9 72 C 9.566406 72.566406 10.234375 72.867188 11.035156 72.867188 L 42.832031 72.867188 C 43.601562 72.867188 44.265625 72.601562 44.800781 72.035156 C 45.332031 71.464844 45.601562 70.800781 45.601562 70 C 45.601562 69.199219 45.332031 68.535156 44.800781 67.964844 C 44.265625 67.398438 43.632812 67.132812 42.832031 67.132812 L 11.035156 67.132812 C 10.234375 67.132812 9.566406 67.433594 8.964844 68 C 8.398438 68.566406 8.101562 69.234375 8.101562 70 Z M 16.898438 59.898438 C 16.898438 60.667969 17.199219 61.300781 17.800781 61.832031 C 18.332031 62.367188 19 62.632812 19.800781 62.632812 L 51.632812 62.632812 C 52.433594 62.632812 53.066406 62.367188 53.601562 61.867188 C 54.132812 61.332031 54.367188 60.699219 54.367188 59.898438 C 54.367188 59.101562 54.101562 58.433594 53.566406 57.898438 C 53.035156 57.332031 52.398438 57.066406 51.601562 57.066406 L 19.800781 57.066406 C 19 57.066406 18.332031 57.332031 17.765625 57.898438 C 17.167969 58.464844 16.898438 59.132812 16.898438 59.898438 Z M 20.699219 52.132812 C 20.699219 52.367188 20.933594 52.5 21.367188 52.5 L 26.101562 52.5 C 26.398438 52.5 26.632812 52.332031 26.867188 52.035156 C 27.601562 50.234375 28.765625 48.734375 30.367188 47.535156 C 31.933594 46.332031 33.699219 45.667969 35.632812 45.535156 L 37.433594 45.300781 C 37.832031 45.300781 38.035156 45.101562 38.035156 44.699219 L 38.265625 43 C 38.632812 39.398438 40.167969 36.367188 42.867188 33.933594 C 45.566406 31.5 48.765625 30.265625 52.433594 30.265625 C 56.101562 30.265625 59.300781 31.464844 62 33.898438 C 64.699219 36.300781 66.265625 39.332031 66.632812 43 L 66.898438 44.898438 C 66.898438 45.300781 67.101562 45.535156 67.464844 45.535156 L 72.867188 45.535156 C 75.898438 45.535156 78.5 46.601562 80.632812 48.699219 C 82.765625 50.800781 83.832031 53.332031 83.832031 56.332031 C 83.832031 59.300781 82.765625 61.832031 80.632812 63.964844 C 78.5 66.101562 75.898438 67.167969 72.867188 67.167969 L 49.832031 67.167969 C 49.464844 67.167969 49.265625 67.367188 49.265625 67.734375 L 49.265625 72.332031 C 49.265625 72.734375 49.464844 72.933594 49.832031 72.933594 L 72.867188 72.933594 C 75.898438 72.933594 78.667969 72.199219 81.234375 70.699219 C 83.800781 69.234375 85.800781 67.199219 87.300781 64.667969 C 88.800781 62.132812 89.535156 59.367188 89.535156 56.367188 C 89.535156 54 89.035156 51.800781 88.066406 49.667969 C 90.632812 46.300781 91.898438 42.667969 91.898438 38.699219 C 91.898438 35.535156 91.101562 32.601562 89.535156 29.898438 C 87.964844 27.199219 85.832031 25.066406 83.132812 23.5 C 80.433594 21.933594 77.5 21.167969 74.332031 21.167969 C 69.265625 21.167969 64.964844 23.035156 61.535156 26.734375 C 58.667969 25.332031 55.667969 24.667969 52.464844 24.667969 C 49.367188 24.667969 46.433594 25.332031 43.699219 26.632812 C 40.964844 27.933594 38.667969 29.800781 36.800781 32.167969 C 34.933594 34.535156 33.667969 37.234375 33.035156 40.265625 C 30.101562 40.933594 27.566406 42.265625 25.398438 44.265625 C 23.234375 46.265625 21.699219 48.699219 20.867188 51.5 Z M 22.765625 80.300781 C 22.765625 81.066406 23.066406 81.734375 23.632812 82.234375 C 24.167969 82.765625 24.832031 83.035156 25.632812 83.035156 L 57.5 83.035156 C 58.300781 83.035156 58.964844 82.765625 59.5 82.265625 C 60.035156 81.765625 60.332031 81.101562 60.332031 80.300781 C 60.332031 79.5 60.066406 78.832031 59.5 78.265625 C 58.933594 77.699219 58.265625 77.433594 57.5 77.433594 L 25.632812 77.433594 C 24.867188 77.433594 24.199219 77.734375 23.632812 78.300781 C 23.066406 78.867188 22.765625 79.535156 22.765625 80.300781 Z M 66.101562 30.066406 C 68.332031 27.898438 71.101562 26.800781 74.332031 26.800781 C 77.632812 26.800781 80.433594 27.964844 82.734375 30.265625 C 85.035156 32.566406 86.199219 35.367188 86.199219 38.667969 C 86.199219 40.765625 85.667969 42.734375 84.566406 44.566406 C 81.300781 41.367188 77.398438 39.800781 72.832031 39.800781 L 71.765625 39.800781 C 71 36.132812 69.101562 32.898438 66.101562 30.066406 Z M 66.101562 30.066406 "/>
</g>
</svg>
