<?xml version="1.0" encoding="UTF-8"?>
<svg xmlns="http://www.w3.org/2000/svg" xmlns:xlink="http://www.w3.org/1999/xlink" width="100px" height="100px" viewBox="0 0 100 100" version="1.1">
<g id="surface1">
<path style=" stroke:none;fill-rule:nonzero;fill:rgb(0%,0%,0%);fill-opacity:1;" d="M 14.101562 56.300781 C 14.101562 60.734375 15.667969 64.566406 18.765625 67.765625 C 21.867188 70.964844 25.667969 72.667969 30.101562 72.867188 C 30.5 72.867188 30.699219 72.667969 30.699219 72.300781 L 30.699219 67.832031 C 30.699219 67.464844 30.5 67.265625 30.101562 67.265625 C 27.234375 67.101562 24.800781 65.964844 22.800781 63.832031 C 20.800781 61.699219 19.800781 59.199219 19.800781 56.300781 C 19.800781 53.535156 20.734375 51.132812 22.632812 49.066406 C 24.535156 47.035156 26.867188 45.832031 29.632812 45.5 L 31.398438 45.367188 C 31.832031 45.367188 32.066406 45.167969 32.066406 44.765625 L 32.300781 42.964844 C 32.667969 39.367188 34.167969 36.332031 36.867188 33.898438 C 39.566406 31.464844 42.734375 30.234375 46.367188 30.234375 C 50 30.234375 53.167969 31.464844 55.898438 33.898438 C 58.632812 36.332031 60.167969 39.367188 60.566406 42.964844 L 60.832031 44.867188 C 60.832031 45.265625 61.035156 45.5 61.398438 45.5 L 66.800781 45.5 C 69.832031 45.5 72.398438 46.566406 74.566406 48.667969 C 76.699219 50.765625 77.800781 53.332031 77.800781 56.265625 C 77.800781 59.132812 76.800781 61.632812 74.765625 63.765625 C 72.734375 65.898438 70.300781 67.066406 67.464844 67.234375 C 67.066406 67.234375 66.832031 67.433594 66.832031 67.800781 L 66.832031 72.265625 C 66.832031 72.632812 67.035156 72.832031 67.464844 72.832031 C 71.933594 72.699219 75.699219 71 78.800781 67.800781 C 81.898438 64.566406 83.433594 60.734375 83.433594 56.300781 C 83.433594 53.933594 82.964844 51.699219 82 49.601562 C 84.632812 46.398438 85.933594 42.699219 85.933594 38.535156 C 85.933594 35.367188 85.132812 32.433594 83.566406 29.734375 C 82 27.035156 79.867188 24.898438 77.167969 23.332031 C 74.464844 21.765625 71.566406 21 68.433594 21 C 63.265625 21 58.933594 22.933594 55.464844 26.765625 C 52.765625 25.332031 49.765625 24.601562 46.433594 24.601562 C 41.734375 24.601562 37.535156 26.066406 33.898438 29 C 30.265625 31.933594 27.898438 35.667969 26.867188 40.199219 C 23.167969 41.066406 20.132812 43 17.734375 46 C 15.300781 49.035156 14.101562 52.464844 14.101562 56.300781 Z M 35.398438 70.035156 C 35.398438 70.765625 35.667969 71.398438 36.199219 71.933594 C 36.765625 72.5 37.398438 72.765625 38.132812 72.765625 C 38.898438 72.765625 39.566406 72.5 40.101562 72 C 40.632812 71.5 40.898438 70.832031 40.898438 70.035156 C 40.898438 69.234375 40.632812 68.601562 40.132812 68.066406 C 39.601562 67.535156 38.964844 67.300781 38.167969 67.300781 C 37.367188 67.300781 36.734375 67.566406 36.199219 68.066406 C 35.667969 68.566406 35.398438 69.234375 35.398438 70.035156 Z M 35.398438 82.132812 C 35.398438 82.933594 35.667969 83.566406 36.199219 84.066406 C 36.734375 84.601562 37.398438 84.867188 38.132812 84.867188 C 38.933594 84.867188 39.566406 84.601562 40.101562 84.101562 C 40.632812 83.566406 40.867188 82.933594 40.867188 82.132812 C 40.867188 81.332031 40.601562 80.667969 40.066406 80.132812 C 39.535156 79.601562 38.898438 79.300781 38.101562 79.300781 C 37.332031 79.300781 36.667969 79.566406 36.132812 80.132812 C 35.601562 80.699219 35.398438 81.332031 35.398438 82.132812 Z M 46.035156 76.332031 C 46.035156 77.101562 46.300781 77.800781 46.867188 78.367188 C 47.433594 78.933594 48.066406 79.265625 48.800781 79.265625 C 49.566406 79.265625 50.234375 78.964844 50.800781 78.398438 C 51.367188 77.832031 51.632812 77.132812 51.632812 76.332031 C 51.632812 75.601562 51.367188 74.964844 50.800781 74.398438 C 50.234375 73.832031 49.566406 73.566406 48.800781 73.566406 C 48.066406 73.566406 47.433594 73.832031 46.867188 74.398438 C 46.300781 74.964844 46.035156 75.601562 46.035156 76.332031 Z M 46.035156 64.367188 C 46.035156 65.132812 46.300781 65.765625 46.832031 66.300781 C 47.367188 66.832031 48.035156 67.101562 48.800781 67.101562 C 49.601562 67.101562 50.265625 66.832031 50.800781 66.300781 C 51.332031 65.765625 51.632812 65.132812 51.632812 64.332031 C 51.632812 63.535156 51.367188 62.898438 50.800781 62.332031 C 50.234375 61.765625 49.566406 61.5 48.800781 61.5 C 48.035156 61.5 47.398438 61.765625 46.832031 62.332031 C 46.265625 62.898438 46.035156 63.601562 46.035156 64.367188 Z M 46.035156 88.601562 C 46.035156 89.367188 46.300781 90.035156 46.867188 90.601562 C 47.433594 91.167969 48.066406 91.433594 48.832031 91.433594 C 49.601562 91.433594 50.265625 91.167969 50.832031 90.601562 C 51.398438 90.035156 51.667969 89.367188 51.667969 88.601562 C 51.667969 87.867188 51.398438 87.234375 50.832031 86.667969 C 50.265625 86.101562 49.601562 85.832031 48.832031 85.832031 C 48.101562 85.832031 47.464844 86.101562 46.898438 86.667969 C 46.332031 87.234375 46.035156 87.867188 46.035156 88.601562 Z M 56.832031 70.035156 C 56.832031 70.734375 57.101562 71.367188 57.632812 71.933594 C 58.199219 72.5 58.867188 72.765625 59.632812 72.765625 C 60.398438 72.765625 61.066406 72.5 61.601562 72 C 62.132812 71.464844 62.398438 70.832031 62.398438 70.035156 C 62.398438 69.234375 62.132812 68.601562 61.632812 68.066406 C 61.101562 67.535156 60.464844 67.300781 59.667969 67.300781 C 58.867188 67.300781 58.199219 67.566406 57.667969 68.066406 C 57.101562 68.566406 56.832031 69.234375 56.832031 70.035156 Z M 56.832031 82.132812 C 56.832031 82.867188 57.101562 83.535156 57.632812 84.066406 C 58.167969 84.601562 58.832031 84.867188 59.632812 84.867188 C 60.433594 84.867188 61.066406 84.601562 61.601562 84.101562 C 62.132812 83.566406 62.367188 82.933594 62.367188 82.132812 C 62.367188 81.332031 62.101562 80.667969 61.566406 80.132812 C 61.035156 79.566406 60.398438 79.300781 59.601562 79.300781 C 58.832031 79.300781 58.167969 79.566406 57.601562 80.132812 C 57.035156 80.699219 56.832031 81.332031 56.832031 82.132812 Z M 60.101562 30.066406 C 62.367188 27.800781 65.101562 26.699219 68.367188 26.699219 C 71.632812 26.699219 74.398438 27.867188 76.699219 30.167969 C 79 32.464844 80.132812 35.265625 80.132812 38.566406 C 80.132812 40.535156 79.566406 42.566406 78.433594 44.699219 C 75.234375 41.5 71.332031 39.898438 66.765625 39.898438 L 65.734375 39.898438 C 64.800781 36 62.898438 32.734375 60.101562 30.066406 Z M 60.101562 30.066406 "/>
</g>
</svg>
