<?xml version="1.0" encoding="UTF-8"?>
<svg xmlns="http://www.w3.org/2000/svg" xmlns:xlink="http://www.w3.org/1999/xlink" width="100px" height="100px" viewBox="0 0 100 100" version="1.1">
<g id="surface1">
<path style=" stroke:none;fill-rule:nonzero;fill:rgb(0%,0%,0%);fill-opacity:1;" d="M 22.566406 65.367188 C 22.566406 68.601562 23.734375 71.398438 26.101562 73.765625 C 28.464844 76.132812 31.265625 77.300781 34.5 77.300781 L 57.332031 77.300781 C 60.566406 77.300781 63.332031 76.132812 65.632812 73.800781 C 67.933594 71.464844 69.101562 68.667969 69.101562 65.367188 C 69.101562 63.765625 68.867188 62.398438 68.398438 61.265625 C 71.167969 59.5 73.367188 57.132812 74.964844 54.199219 C 76.566406 51.265625 77.398438 48.101562 77.398438 44.734375 C 77.398438 42.035156 76.867188 39.433594 75.832031 36.964844 C 74.765625 34.5 73.367188 32.367188 71.566406 30.601562 C 69.765625 28.832031 67.667969 27.398438 65.199219 26.332031 C 62.734375 25.265625 60.167969 24.734375 57.464844 24.734375 C 53.832031 24.734375 50.464844 25.632812 47.398438 27.433594 C 44.332031 29.234375 41.898438 31.667969 40.132812 34.699219 C 38.367188 37.765625 37.5 41.101562 37.5 44.734375 L 37.5 45.867188 C 34.132812 47.765625 31.933594 50.566406 30.867188 54.167969 C 28.332031 54.964844 26.332031 56.367188 24.832031 58.398438 C 23.332031 60.433594 22.566406 62.765625 22.566406 65.367188 Z M 29.167969 65.367188 C 29.167969 63.964844 29.601562 62.765625 30.5 61.765625 C 31.398438 60.765625 32.535156 60.199219 33.898438 60.066406 L 36 59.800781 C 36.398438 59.800781 36.632812 59.535156 36.632812 59.035156 L 36.964844 57.167969 C 37.199219 55.234375 38 53.632812 39.398438 52.367188 C 40.800781 51.066406 42.433594 50.433594 44.332031 50.433594 C 46.265625 50.433594 47.964844 51.066406 49.367188 52.367188 C 50.800781 53.667969 51.632812 55.265625 51.867188 57.167969 L 52.132812 59.332031 C 52.332031 59.832031 52.632812 60.101562 52.964844 60.101562 L 57.332031 60.101562 C 58.765625 60.101562 60 60.632812 61.066406 61.667969 C 62.132812 62.699219 62.632812 63.933594 62.632812 65.398438 C 62.632812 66.898438 62.101562 68.167969 61.066406 69.234375 C 60.035156 70.300781 58.765625 70.832031 57.332031 70.832031 L 34.5 70.832031 C 33 70.832031 31.734375 70.300781 30.699219 69.234375 C 29.667969 68.167969 29.167969 66.867188 29.167969 65.367188 Z M 43.933594 44.066406 C 44.167969 40.433594 45.566406 37.367188 48.167969 34.867188 C 50.765625 32.398438 53.867188 31.132812 57.5 31.132812 C 61.199219 31.132812 64.367188 32.464844 66.964844 35.101562 C 69.566406 37.734375 70.867188 40.964844 70.867188 44.734375 C 70.867188 47.066406 70.300781 49.234375 69.167969 51.234375 C 68.035156 53.234375 66.5 54.832031 64.566406 56.066406 C 62.601562 54.433594 60.332031 53.632812 57.800781 53.632812 C 56.832031 50.699219 55.101562 48.398438 52.667969 46.667969 C 50.234375 44.933594 47.464844 44.066406 44.367188 44.066406 Z M 43.933594 44.066406 "/>
</g>
</svg>
