<?xml version="1.0" encoding="UTF-8"?>
<svg xmlns="http://www.w3.org/2000/svg" xmlns:xlink="http://www.w3.org/1999/xlink" width="100px" height="100px" viewBox="0 0 100 100" version="1.1">
<g id="surface1">
<path style=" stroke:none;fill-rule:nonzero;fill:rgb(0%,0%,0%);fill-opacity:1;" d="M 11.898438 44.765625 C 11.898438 40.933594 13.101562 37.5 15.5 34.5 C 17.898438 31.5 20.933594 29.566406 24.601562 28.699219 C 25.667969 24.132812 28 20.398438 31.667969 17.464844 C 35.332031 14.535156 39.5 13.101562 44.199219 13.101562 C 48.800781 13.101562 52.898438 14.535156 56.5 17.367188 C 60.101562 20.199219 62.433594 23.867188 63.5 28.332031 L 64.601562 28.332031 C 67.601562 28.332031 70.367188 29.066406 72.898438 30.5 C 75.433594 31.933594 77.464844 33.933594 78.933594 36.464844 C 80.398438 39 81.167969 41.734375 81.167969 44.734375 C 81.167969 48.566406 80 52 77.632812 55 C 79.765625 56.832031 82.300781 57.800781 85.167969 57.898438 L 87.367188 58.101562 C 87.765625 58.101562 87.964844 58.300781 87.964844 58.734375 L 87.964844 61.300781 C 88 64.667969 87.167969 67.800781 85.535156 70.632812 C 83.898438 73.5 81.632812 75.734375 78.800781 77.398438 C 75.964844 79.066406 72.867188 79.898438 69.5 79.898438 C 66.933594 79.898438 64.5 79.398438 62.199219 78.433594 C 59.898438 77.464844 57.933594 76.132812 56.265625 74.464844 C 54.632812 72.800781 53.300781 70.832031 52.332031 68.535156 C 51.367188 66.234375 50.867188 63.832031 50.867188 61.300781 L 27.898438 61.300781 C 23.433594 61.101562 19.667969 59.398438 16.566406 56.199219 C 13.464844 53 11.898438 49.199219 11.898438 44.765625 Z M 17.601562 44.765625 C 17.601562 47.667969 18.601562 50.167969 20.601562 52.300781 C 22.601562 54.433594 25.035156 55.566406 27.898438 55.699219 L 65.199219 55.699219 C 68.066406 55.566406 70.5 54.433594 72.5 52.300781 C 74.5 50.167969 75.5 47.667969 75.5 44.765625 C 75.5 41.832031 74.433594 39.332031 72.265625 37.167969 C 70.101562 35.035156 67.535156 33.933594 64.566406 33.933594 L 59.167969 33.933594 C 58.800781 33.933594 58.601562 33.734375 58.601562 33.367188 L 58.367188 31.433594 C 58 27.832031 56.433594 24.800781 53.699219 22.398438 C 50.964844 20 47.800781 18.765625 44.167969 18.765625 C 40.5 18.765625 37.332031 19.964844 34.632812 22.398438 C 31.933594 24.832031 30.433594 27.832031 30.101562 31.433594 L 29.867188 33.367188 C 29.867188 33.734375 29.632812 33.933594 29.199219 33.933594 L 27.433594 33.933594 C 24.632812 34.265625 22.300781 35.464844 20.433594 37.5 C 18.566406 39.535156 17.601562 41.964844 17.601562 44.765625 Z M 55.699219 61.300781 C 55.699219 63.933594 56.367188 66.367188 57.699219 68.535156 C 59.035156 70.699219 60.734375 72.367188 62.832031 73.535156 C 64.933594 74.699219 67.132812 75.265625 69.464844 75.265625 C 71.535156 75.265625 73.566406 74.765625 75.535156 73.765625 C 77.535156 72.765625 79.265625 71.265625 80.800781 69.234375 C 82.332031 67.199219 83.300781 64.867188 83.667969 62.234375 C 80.066406 61.5 77.066406 60.066406 74.601562 57.898438 C 71.800781 60.066406 68.667969 61.199219 65.199219 61.265625 L 55.699219 61.265625 Z M 55.699219 61.300781 "/>
</g>
</svg>
