<?xml version="1.0" encoding="UTF-8"?>
<svg xmlns="http://www.w3.org/2000/svg" xmlns:xlink="http://www.w3.org/1999/xlink" width="100px" height="100px" viewBox="0 0 100 100" version="1.1">
<g id="surface1">
<path style=" stroke:none;fill-rule:nonzero;fill:rgb(0%,0%,0%);fill-opacity:1;" d="M 22.898438 60.765625 L 29.367188 60.765625 L 29.367188 48.632812 L 29.433594 48.632812 L 36.265625 60.765625 L 42.898438 60.765625 L 42.898438 38.566406 L 36.433594 38.566406 L 36.433594 50.398438 L 36.367188 50.398438 L 29.898438 38.566406 L 22.898438 38.566406 Z M 44.632812 61.265625 L 49.398438 61.265625 L 58.101562 38.035156 L 53.367188 38.035156 Z M 54.199219 60.765625 L 61.101562 60.765625 L 62.066406 57.601562 L 69.132812 57.601562 L 70.066406 60.765625 L 77.167969 60.765625 L 69.066406 38.566406 L 62.367188 38.566406 Z M 63.566406 52.800781 L 65.699219 46 L 65.800781 46 L 67.800781 52.800781 Z M 63.566406 52.800781 "/>
</g>
</svg>
