<?xml version="1.0" encoding="UTF-8"?>
<svg xmlns="http://www.w3.org/2000/svg" xmlns:xlink="http://www.w3.org/1999/xlink" width="100px" height="100px" viewBox="0 0 100 100" version="1.1">
<g id="surface1">
<path style=" stroke:none;fill-rule:nonzero;fill:rgb(0%,0%,0%);fill-opacity:1;" d="M 11.933594 44.832031 C 11.933594 41 13.132812 37.566406 15.535156 34.601562 C 17.933594 31.601562 20.964844 29.667969 24.667969 28.800781 C 25.699219 24.234375 28.066406 20.5 31.699219 17.566406 C 35.332031 14.632812 39.535156 13.167969 44.234375 13.167969 C 48.832031 13.167969 52.933594 14.601562 56.535156 17.433594 C 60.132812 20.265625 62.464844 23.933594 63.535156 28.398438 L 64.632812 28.398438 C 67.632812 28.398438 70.398438 29.132812 72.933594 30.566406 C 75.464844 32 77.5 34 78.964844 36.535156 C 80.433594 39.066406 81.199219 41.800781 81.199219 44.800781 C 81.199219 45.464844 81.167969 46.132812 81.101562 46.832031 C 83.265625 48.535156 84.964844 50.667969 86.234375 53.199219 C 87.5 55.734375 88.101562 58.433594 88.101562 61.300781 C 88.101562 63.867188 87.601562 66.300781 86.601562 68.601562 C 85.601562 70.898438 84.265625 72.867188 82.601562 74.535156 C 80.933594 76.167969 78.933594 77.5 76.632812 78.464844 C 74.332031 79.433594 71.933594 79.933594 69.398438 79.933594 C 66.898438 79.933594 64.5 79.433594 62.199219 78.464844 C 59.898438 77.5 57.933594 76.167969 56.265625 74.5 C 54.601562 72.832031 53.300781 70.867188 52.300781 68.566406 C 51.300781 66.265625 50.800781 63.867188 50.800781 61.367188 L 27.933594 61.367188 C 23.464844 61.167969 19.699219 59.464844 16.601562 56.265625 C 13.5 53.132812 11.933594 49.300781 11.933594 44.832031 Z M 17.632812 44.832031 C 17.632812 47.734375 18.632812 50.234375 20.632812 52.367188 C 22.632812 54.5 25.066406 55.632812 27.933594 55.800781 L 65.234375 55.800781 C 68.101562 55.667969 70.535156 54.5 72.535156 52.367188 C 74.566406 50.234375 75.566406 47.699219 75.566406 44.832031 C 75.566406 41.898438 74.464844 39.398438 72.300781 37.265625 C 70.132812 35.132812 67.566406 34.066406 64.566406 34.066406 L 59.167969 34.066406 C 58.800781 34.066406 58.601562 33.867188 58.601562 33.5 L 58.367188 31.566406 C 58 27.964844 56.433594 24.933594 53.699219 22.5 C 50.964844 20.066406 47.800781 18.832031 44.167969 18.832031 C 40.535156 18.832031 37.332031 20.066406 34.667969 22.5 C 32 24.933594 30.464844 27.964844 30.132812 31.566406 L 29.867188 33.5 C 29.867188 33.867188 29.632812 34.066406 29.199219 34.066406 L 27.464844 34.066406 C 24.667969 34.398438 22.332031 35.601562 20.464844 37.632812 C 18.566406 39.667969 17.632812 42.066406 17.632812 44.832031 Z M 55.167969 61.867188 C 55.367188 65.601562 56.898438 68.765625 59.734375 71.300781 C 62.566406 73.832031 65.800781 75.101562 69.433594 75.101562 C 71.433594 75.101562 73.332031 74.699219 75.101562 73.933594 C 76.867188 73.167969 78.367188 72.101562 79.566406 70.832031 C 80.765625 69.535156 81.734375 68.066406 82.398438 66.398438 C 83.101562 64.734375 83.433594 63.066406 83.433594 61.332031 C 83.433594 59.699219 83.101562 58.066406 82.433594 56.433594 C 81.765625 54.800781 80.832031 53.300781 79.601562 51.933594 C 78.300781 54.667969 76.367188 56.933594 73.800781 58.667969 C 71.234375 60.398438 68.367188 61.300781 65.234375 61.433594 L 55.132812 61.433594 C 55.132812 61.464844 55.132812 61.566406 55.167969 61.867188 Z M 55.167969 61.867188 "/>
</g>
</svg>
