<?xml version="1.0" encoding="UTF-8"?>
<svg xmlns="http://www.w3.org/2000/svg" xmlns:xlink="http://www.w3.org/1999/xlink" width="100px" height="100px" viewBox="0 0 100 100" version="1.1">
<g id="surface1">
<path style=" stroke:none;fill-rule:nonzero;fill:rgb(0%,0%,0%);fill-opacity:1;" d="M 13.964844 56.265625 C 13.964844 60 15.066406 63.332031 17.300781 66.265625 C 19.535156 69.199219 22.398438 71.167969 25.898438 72.132812 L 23.699219 77.800781 C 23.535156 78.265625 23.699219 78.535156 24.167969 78.535156 L 31.265625 78.535156 L 26.5 92.566406 L 27.464844 92.566406 L 42 73.699219 C 42.132812 73.566406 42.132812 73.398438 42.066406 73.234375 C 42 73.066406 41.832031 73 41.601562 73 L 34.300781 73 L 42.601562 57.5 C 42.832031 57.035156 42.699219 56.765625 42.132812 56.765625 L 32.265625 56.765625 C 31.964844 56.765625 31.699219 56.933594 31.5 57.265625 L 27.933594 66.867188 C 25.535156 66.265625 23.566406 65 22 63 C 20.433594 61.035156 19.667969 58.800781 19.667969 56.265625 C 19.667969 53.464844 20.601562 51.035156 22.464844 49 C 24.332031 46.964844 26.667969 45.765625 29.5 45.433594 L 31.199219 45.332031 C 31.601562 45.332031 31.832031 45.167969 31.933594 44.867188 L 32.167969 42.898438 C 32.535156 39.300781 34.035156 36.265625 36.734375 33.832031 C 39.433594 31.398438 42.601562 30.167969 46.265625 30.167969 C 49.898438 30.167969 53.066406 31.398438 55.800781 33.832031 C 58.535156 36.265625 60.101562 39.300781 60.464844 42.898438 L 60.734375 44.867188 C 60.734375 45.234375 60.933594 45.433594 61.332031 45.433594 L 66.699219 45.433594 C 69.667969 45.433594 72.234375 46.5 74.398438 48.632812 C 76.566406 50.765625 77.632812 53.300781 77.632812 56.265625 C 77.632812 59.167969 76.632812 61.667969 74.632812 63.800781 C 72.632812 65.933594 70.234375 67.066406 67.367188 67.234375 C 66.933594 67.234375 66.699219 67.433594 66.699219 67.832031 L 66.699219 72.300781 C 66.699219 72.667969 66.933594 72.867188 67.367188 72.867188 C 70.300781 72.800781 73 72 75.433594 70.464844 C 77.867188 68.964844 79.800781 66.933594 81.234375 64.433594 C 82.667969 61.933594 83.367188 59.199219 83.367188 56.265625 C 83.367188 53.832031 82.898438 51.601562 81.933594 49.535156 C 84.464844 46.332031 85.734375 42.667969 85.734375 38.566406 C 85.734375 35.398438 84.933594 32.464844 83.367188 29.765625 C 81.800781 27.066406 79.667969 24.933594 76.964844 23.367188 C 74.265625 21.800781 71.332031 21 68.167969 21 C 65.765625 21 63.433594 21.5 61.167969 22.5 C 58.898438 23.5 56.964844 24.898438 55.300781 26.667969 C 52.601562 25.234375 49.601562 24.5 46.234375 24.5 C 41.5 24.5 37.300781 25.964844 33.667969 28.898438 C 30.035156 31.832031 27.667969 35.566406 26.667969 40.132812 C 22.964844 41 19.933594 42.933594 17.535156 45.933594 C 15.167969 49 13.964844 52.433594 13.964844 56.265625 Z M 40.234375 90.332031 C 40.234375 90.898438 40.398438 91.433594 40.765625 91.964844 C 41.132812 92.5 41.667969 92.867188 42.398438 93.066406 C 42.699219 93.132812 42.964844 93.167969 43.199219 93.167969 C 44.632812 93.167969 45.535156 92.5 45.867188 91.132812 L 46.300781 89.167969 C 46.5 88.300781 46.398438 87.566406 46.035156 86.898438 C 45.632812 86.234375 45.066406 85.832031 44.265625 85.667969 C 43.566406 85.433594 42.867188 85.5 42.167969 85.898438 C 41.464844 86.300781 41.035156 86.867188 40.800781 87.601562 L 40.367188 89.566406 C 40.265625 89.964844 40.234375 90.234375 40.234375 90.332031 Z M 42.867188 80.667969 C 42.867188 81.433594 43.132812 82.066406 43.667969 82.601562 C 44.199219 83.132812 44.867188 83.398438 45.601562 83.398438 C 46.398438 83.398438 47.035156 83.132812 47.566406 82.632812 C 48.101562 82.101562 48.332031 81.464844 48.332031 80.667969 C 48.332031 79.898438 48.066406 79.265625 47.566406 78.734375 C 47.035156 78.199219 46.398438 77.964844 45.601562 77.964844 C 44.800781 77.964844 44.167969 78.234375 43.632812 78.734375 C 43.101562 79.234375 42.867188 79.898438 42.867188 80.667969 Z M 44.933594 73.101562 C 44.898438 73.601562 45.035156 74.132812 45.398438 74.667969 C 45.734375 75.199219 46.234375 75.535156 46.898438 75.667969 C 47.667969 75.867188 48.367188 75.800781 49.035156 75.464844 C 49.699219 75.132812 50.132812 74.5 50.398438 73.601562 L 51.265625 70.601562 C 51.5 69.867188 51.433594 69.167969 51.035156 68.5 C 50.632812 67.832031 50.066406 67.398438 49.265625 67.167969 C 48.535156 66.933594 47.832031 67.035156 47.132812 67.433594 C 46.433594 67.832031 46 68.433594 45.765625 69.199219 L 45.035156 72.199219 C 44.964844 72.464844 44.933594 72.765625 44.933594 73.101562 Z M 54.132812 80.265625 C 54.132812 80.832031 54.300781 81.367188 54.632812 81.867188 C 54.964844 82.367188 55.464844 82.734375 56.167969 82.933594 C 56.265625 82.933594 56.433594 82.964844 56.632812 83 C 56.832031 83.035156 57 83.066406 57.101562 83.066406 C 58.464844 83.066406 59.300781 82.332031 59.632812 80.867188 L 60.101562 78.867188 C 60.332031 78.167969 60.265625 77.464844 59.867188 76.765625 C 59.464844 76.066406 58.898438 75.632812 58.167969 75.398438 C 57.332031 75.199219 56.566406 75.265625 55.898438 75.667969 C 55.234375 76.066406 54.765625 76.632812 54.535156 77.433594 L 54.234375 79.398438 C 54.234375 79.433594 54.234375 79.566406 54.199219 79.765625 C 54.167969 80 54.132812 80.132812 54.132812 80.265625 Z M 56.601562 70.398438 C 56.601562 71.167969 56.867188 71.800781 57.398438 72.300781 C 57.898438 72.832031 58.535156 73.101562 59.332031 73.101562 C 60.132812 73.101562 60.765625 72.832031 61.300781 72.332031 C 61.832031 71.800781 62.066406 71.167969 62.066406 70.398438 C 62.066406 69.601562 61.800781 68.964844 61.300781 68.433594 C 60.765625 67.898438 60.132812 67.667969 59.332031 67.667969 C 58.535156 67.667969 57.898438 67.933594 57.367188 68.433594 C 56.832031 68.933594 56.601562 69.601562 56.601562 70.398438 Z M 60.066406 30.066406 C 62.300781 27.933594 65 26.832031 68.234375 26.832031 C 71.5 26.832031 74.300781 27.964844 76.601562 30.265625 C 78.898438 32.535156 80.066406 35.332031 80.066406 38.601562 C 80.066406 40.800781 79.535156 42.800781 78.5 44.632812 C 75.300781 41.433594 71.398438 39.832031 66.765625 39.832031 L 65.734375 39.832031 C 64.734375 35.867188 62.832031 32.601562 60.066406 30.066406 Z M 60.066406 30.066406 "/>
</g>
</svg>
