<?xml version="1.0" encoding="UTF-8"?>
<svg xmlns="http://www.w3.org/2000/svg" xmlns:xlink="http://www.w3.org/1999/xlink" width="100px" height="100px" viewBox="0 0 100 100" version="1.1">
<g id="surface1">
<path style=" stroke:none;fill-rule:nonzero;fill:rgb(0%,0%,0%);fill-opacity:1;" d="M 13.632812 57.101562 L 13.632812 55.867188 C 13.765625 52.132812 15.035156 48.832031 17.398438 45.964844 C 19.765625 43.101562 22.765625 41.234375 26.332031 40.398438 C 27.367188 35.867188 29.734375 32.132812 33.367188 29.199219 C 37 26.265625 41.199219 24.832031 45.898438 24.832031 C 48.367188 24.832031 51 25.332031 53.832031 26.367188 C 54.765625 24.832031 55.867188 23.5 57.132812 22.367188 C 58.398438 21.234375 59.699219 20.367188 61.066406 19.734375 C 62.433594 19.132812 63.734375 18.667969 65.035156 18.398438 C 66.300781 18.132812 67.566406 18 68.800781 18 C 70.101562 18 71.464844 18.132812 72.933594 18.433594 L 75.601562 19.265625 C 76 19.464844 76.167969 19.699219 76.066406 20.035156 L 75.667969 22.101562 C 75.433594 23.066406 75.332031 24 75.332031 24.898438 C 75.332031 25.933594 75.5 26.964844 75.832031 28.066406 C 76.167969 29.132812 76.632812 30.199219 77.300781 31.234375 C 77.964844 32.265625 78.832031 33.199219 79.964844 34.066406 C 81.101562 34.933594 82.367188 35.566406 83.832031 36 L 85.898438 36.566406 C 86.234375 36.667969 86.398438 36.832031 86.398438 37.101562 C 86.398438 37.234375 86.398438 37.300781 86.367188 37.332031 L 85.734375 39.601562 C 84.933594 42.964844 83.234375 45.898438 80.699219 48.332031 C 82.167969 50.867188 82.898438 53.601562 82.898438 56.5 C 82.898438 60.964844 81.367188 64.800781 78.265625 68 C 75.167969 71.234375 71.398438 72.898438 66.964844 73.035156 C 66.566406 73.035156 66.332031 72.832031 66.332031 72.398438 L 66.332031 67.867188 C 66.332031 67.464844 66.535156 67.265625 66.964844 67.265625 C 69.867188 67.066406 72.300781 65.898438 74.300781 63.832031 C 76.300781 61.765625 77.300781 59.300781 77.300781 56.464844 C 77.300781 53.5 76.234375 50.933594 74.066406 48.832031 C 71.898438 46.734375 69.332031 45.667969 66.300781 45.667969 L 60.898438 45.667969 C 60.535156 45.667969 60.332031 45.464844 60.332031 45.066406 L 60.101562 43.132812 C 59.734375 39.566406 58.167969 36.535156 55.433594 34.101562 C 52.699219 31.667969 49.535156 30.433594 45.898438 30.433594 C 42.265625 30.433594 39.066406 31.667969 36.398438 34.101562 C 33.699219 36.535156 32.167969 39.566406 31.832031 43.167969 L 31.601562 44.898438 C 31.601562 45.265625 31.367188 45.464844 30.933594 45.464844 L 29.167969 45.699219 C 26.367188 46.035156 24.035156 47.234375 22.167969 49.265625 C 20.265625 51.332031 19.332031 53.734375 19.332031 56.5 L 19.332031 56.566406 L 19.367188 56.601562 L 19.433594 56.601562 C 19.433594 58.332031 19.832031 60 20.632812 61.535156 C 21.433594 63.066406 22.5 64.332031 23.867188 65.332031 L 23.898438 65.332031 L 23.964844 65.398438 C 24.699219 65.933594 25.367188 66.300781 26.035156 66.566406 C 27.167969 67.066406 28.332031 67.332031 29.601562 67.367188 C 29.964844 67.367188 30.167969 67.566406 30.167969 67.933594 L 30.167969 72.398438 C 30.167969 72.800781 29.964844 73 29.601562 73 C 26.5 72.867188 23.667969 71.933594 21.101562 70.265625 L 21.066406 70.265625 C 18.867188 68.832031 17.101562 66.964844 15.765625 64.632812 C 14.433594 62.300781 13.734375 59.800781 13.632812 57.101562 Z M 31.964844 80.332031 C 31.964844 80.234375 32 80.101562 32.035156 79.898438 C 32.066406 79.699219 32.101562 79.601562 32.101562 79.5 L 32.398438 77.535156 C 32.632812 76.734375 33.066406 76.167969 33.765625 75.765625 C 34.464844 75.367188 35.199219 75.300781 36.035156 75.5 C 36.800781 75.734375 37.332031 76.199219 37.734375 76.867188 C 38.101562 77.566406 38.167969 78.265625 37.964844 78.964844 L 37.5 80.964844 C 37.167969 82.398438 36.332031 83.132812 34.964844 83.132812 C 34.867188 83.132812 34.699219 83.132812 34.464844 83.101562 C 34.234375 83.066406 34.101562 83.066406 34.035156 83.066406 C 33.332031 82.867188 32.832031 82.5 32.5 81.964844 C 32.132812 81.433594 31.964844 80.898438 31.964844 80.332031 Z M 34.433594 70.535156 C 34.433594 69.734375 34.699219 69.101562 35.199219 68.566406 C 35.699219 68.035156 36.367188 67.800781 37.167969 67.800781 C 37.964844 67.800781 38.601562 68.066406 39.132812 68.566406 C 39.667969 69.066406 39.898438 69.734375 39.898438 70.535156 C 39.898438 71.300781 39.632812 71.964844 39.132812 72.464844 C 38.632812 72.964844 37.964844 73.234375 37.167969 73.234375 C 36.398438 73.234375 35.765625 72.964844 35.265625 72.398438 C 34.734375 71.898438 34.433594 71.265625 34.433594 70.535156 Z M 39.898438 90.535156 C 39.898438 90.398438 39.933594 90.167969 40.035156 89.800781 L 40.464844 87.832031 C 40.699219 87.066406 41.167969 86.5 41.832031 86.132812 C 42.535156 85.734375 43.234375 85.667969 43.933594 85.898438 C 44.699219 86.035156 45.300781 86.464844 45.699219 87.132812 C 46.101562 87.800781 46.199219 88.566406 45.964844 89.398438 L 45.535156 91.367188 C 45.199219 92.734375 44.300781 93.398438 42.867188 93.398438 C 42.632812 93.398438 42.332031 93.367188 42.066406 93.300781 C 41.332031 93.101562 40.800781 92.734375 40.433594 92.199219 C 40.101562 91.632812 39.898438 91.101562 39.898438 90.535156 Z M 42.535156 80.832031 C 42.535156 80.066406 42.800781 79.433594 43.300781 78.898438 C 43.832031 78.367188 44.464844 78.132812 45.265625 78.132812 C 46.066406 78.132812 46.699219 78.398438 47.234375 78.898438 C 47.765625 79.433594 48 80.066406 48 80.832031 C 48 81.632812 47.734375 82.265625 47.234375 82.800781 C 46.699219 83.332031 46.066406 83.566406 45.265625 83.566406 C 44.5 83.566406 43.867188 83.300781 43.332031 82.765625 C 42.800781 82.234375 42.535156 81.601562 42.535156 80.832031 Z M 44.601562 73.265625 C 44.601562 72.964844 44.632812 72.667969 44.699219 72.367188 L 45.464844 69.367188 C 45.699219 68.601562 46.167969 68 46.832031 67.601562 C 47.535156 67.199219 48.234375 67.101562 48.964844 67.332031 C 49.765625 67.566406 50.332031 68 50.734375 68.667969 C 51.132812 69.332031 51.199219 70.035156 50.964844 70.765625 L 50.101562 73.765625 C 49.832031 74.699219 49.367188 75.300781 48.734375 75.632812 C 48.101562 75.964844 47.367188 76.035156 46.601562 75.832031 C 45.933594 75.699219 45.433594 75.367188 45.101562 74.832031 C 44.699219 74.300781 44.566406 73.765625 44.601562 73.265625 Z M 53.800781 80.398438 C 53.800781 80.300781 53.800781 80.132812 53.832031 79.964844 C 53.867188 79.800781 53.867188 79.667969 53.867188 79.601562 L 54.167969 77.632812 C 54.398438 76.832031 54.832031 76.265625 55.535156 75.867188 C 56.234375 75.464844 56.964844 75.398438 57.800781 75.601562 C 58.566406 75.832031 59.132812 76.300781 59.5 76.964844 C 59.898438 77.667969 59.964844 78.367188 59.734375 79.066406 L 59.265625 81.066406 C 58.933594 82.535156 58.101562 83.265625 56.734375 83.265625 C 56.632812 83.265625 56.464844 83.234375 56.265625 83.199219 C 56.066406 83.167969 55.898438 83.132812 55.800781 83.132812 C 55.132812 82.933594 54.632812 82.566406 54.300781 82.035156 C 53.964844 81.5 53.800781 80.964844 53.800781 80.398438 Z M 56.265625 70.601562 C 56.265625 69.800781 56.535156 69.167969 57.035156 68.632812 C 57.535156 68.101562 58.199219 67.867188 59 67.867188 C 59.800781 67.867188 60.433594 68.132812 60.964844 68.632812 C 61.5 69.167969 61.734375 69.800781 61.734375 70.601562 C 61.734375 71.367188 61.464844 72 60.964844 72.535156 C 60.433594 73.066406 59.800781 73.300781 59 73.300781 C 58.199219 73.300781 57.566406 73.035156 57.066406 72.5 C 56.566406 72 56.265625 71.367188 56.265625 70.601562 Z M 58.632812 29.398438 C 62.101562 32.234375 64.300781 35.734375 65.234375 39.933594 L 66.332031 39.933594 C 70.433594 39.933594 74 41.234375 77.066406 43.867188 C 78.199219 42.832031 79.035156 41.699219 79.601562 40.398438 C 77.535156 39.398438 75.765625 38.066406 74.234375 36.367188 C 72.734375 34.667969 71.601562 32.832031 70.832031 30.832031 C 70.066406 28.832031 69.699219 26.765625 69.699219 24.632812 L 69.699219 23.632812 L 68.964844 23.632812 C 66.898438 23.632812 64.933594 24.132812 63.066406 25.132812 C 61.199219 26.132812 59.734375 27.566406 58.632812 29.398438 Z M 58.632812 29.398438 "/>
</g>
</svg>
