<?xml version="1.0" encoding="UTF-8"?>
<svg xmlns="http://www.w3.org/2000/svg" xmlns:xlink="http://www.w3.org/1999/xlink" width="100px" height="100px" viewBox="0 0 100 100" version="1.1">
<g id="surface1">
<path style=" stroke:none;fill-rule:nonzero;fill:rgb(0%,0%,0%);fill-opacity:1;" d="M 8.867188 69.734375 C 8.867188 70.5 9.132812 71.132812 9.699219 71.632812 C 10.265625 72.167969 10.964844 72.398438 11.765625 72.398438 L 73.800781 72.398438 C 74.601562 72.398438 75.265625 72.132812 75.800781 71.632812 C 76.367188 71.101562 76.632812 70.464844 76.632812 69.734375 C 76.632812 68.933594 76.367188 68.234375 75.832031 67.699219 C 75.300781 67.132812 74.601562 66.867188 73.800781 66.867188 L 11.765625 66.867188 C 10.964844 66.867188 10.300781 67.132812 9.734375 67.699219 C 9.167969 68.265625 8.867188 68.964844 8.867188 69.734375 Z M 17.566406 59.367188 C 17.566406 60.167969 17.867188 60.800781 18.433594 61.332031 C 18.898438 61.933594 19.535156 62.234375 20.398438 62.234375 L 82.433594 62.234375 C 83.199219 62.234375 83.832031 61.964844 84.367188 61.398438 C 84.898438 60.832031 85.132812 60.167969 85.132812 59.367188 C 85.132812 58.601562 84.867188 57.933594 84.367188 57.433594 C 83.867188 56.933594 83.199219 56.667969 82.433594 56.667969 L 20.398438 56.667969 C 19.601562 56.667969 18.933594 56.933594 18.398438 57.433594 C 17.832031 57.964844 17.566406 58.601562 17.566406 59.367188 Z M 18.066406 51.300781 L 18.066406 51.132812 C 17.933594 51.632812 18.066406 51.867188 18.464844 51.867188 L 23.265625 51.867188 C 23.464844 51.867188 23.667969 51.699219 23.898438 51.367188 C 24.699219 49.632812 25.867188 48.234375 27.433594 47.132812 C 29 46.035156 30.734375 45.398438 32.601562 45.265625 L 34.367188 45 C 34.765625 45 35 44.800781 35 44.398438 L 35.199219 42.734375 C 35.566406 39.132812 37.066406 36.167969 39.734375 33.734375 C 42.398438 31.332031 45.566406 30.132812 49.199219 30.132812 C 52.765625 30.132812 55.933594 31.332031 58.601562 33.699219 C 61.265625 36.066406 62.832031 39.035156 63.199219 42.601562 L 63.433594 44.5 C 63.433594 44.898438 63.667969 45.101562 64.132812 45.101562 L 69.398438 45.101562 C 71.535156 45.101562 73.5 45.667969 75.234375 46.832031 C 76.964844 47.964844 78.300781 49.5 79.132812 51.367188 C 79.367188 51.699219 79.601562 51.867188 79.867188 51.867188 L 84.601562 51.867188 C 85 51.867188 85.167969 51.632812 85.101562 51.132812 C 84.367188 49.265625 83.867188 48.101562 83.566406 47.601562 C 85.964844 45.433594 87.667969 42.566406 88.566406 39.035156 L 89.132812 36.832031 C 89.234375 36.632812 89.199219 36.433594 89.101562 36.300781 C 89 36.167969 88.867188 36.066406 88.699219 36.066406 L 86.632812 35.332031 C 83.667969 34.464844 81.398438 32.734375 79.832031 30.066406 C 78.265625 27.398438 77.867188 24.566406 78.601562 21.535156 L 79.035156 19.601562 C 79.199219 19.300781 79.066406 19.035156 78.601562 18.832031 L 75.800781 18.066406 C 72.167969 17.167969 68.566406 17.464844 65.066406 18.933594 C 61.566406 20.398438 58.832031 22.765625 56.832031 26 C 54.199219 24.964844 51.632812 24.464844 49.199219 24.464844 C 44.566406 24.464844 40.464844 25.933594 36.832031 28.832031 C 33.199219 31.734375 30.898438 35.464844 29.832031 40 C 27.035156 40.667969 24.566406 42 22.433594 44.035156 C 20.300781 46.066406 18.898438 48.5 18.066406 51.300781 Z M 23.332031 79.898438 C 23.332031 80.699219 23.632812 81.332031 24.199219 81.867188 C 24.765625 82.464844 25.433594 82.765625 26.167969 82.765625 L 88.332031 82.765625 C 89.101562 82.765625 89.765625 82.5 90.300781 81.933594 C 90.832031 81.367188 91.101562 80.699219 91.101562 79.898438 C 91.101562 79.132812 90.832031 78.5 90.300781 77.964844 C 89.765625 77.433594 89.101562 77.199219 88.332031 77.199219 L 26.199219 77.199219 C 25.398438 77.199219 24.734375 77.464844 24.199219 77.964844 C 23.632812 78.5 23.332031 79.132812 23.332031 79.898438 Z M 61.699219 29 C 62.867188 27.101562 64.433594 25.601562 66.398438 24.566406 C 68.367188 23.535156 70.433594 23.101562 72.632812 23.300781 C 72.398438 26.765625 73.199219 30.035156 74.964844 33.066406 C 76.765625 36.101562 79.234375 38.332031 82.367188 39.800781 C 81.867188 40.964844 81.035156 42.167969 79.867188 43.367188 C 76.800781 40.832031 73.300781 39.601562 69.398438 39.601562 L 68.332031 39.601562 C 67.265625 35.234375 65.066406 31.699219 61.699219 29 Z M 61.699219 29 "/>
</g>
</svg>
