<?xml version="1.0" encoding="UTF-8"?>
<svg xmlns="http://www.w3.org/2000/svg" xmlns:xlink="http://www.w3.org/1999/xlink" width="100px" height="100px" viewBox="0 0 100 100" version="1.1">
<g id="surface1">
<path style=" stroke:none;fill-rule:nonzero;fill:rgb(0%,0%,0%);fill-opacity:1;" d="M 14.101562 56.300781 C 14.101562 60.734375 15.667969 64.566406 18.765625 67.765625 C 21.867188 70.964844 25.667969 72.667969 30.101562 72.867188 C 30.5 72.867188 30.699219 72.667969 30.699219 72.300781 L 30.699219 67.832031 C 30.699219 67.464844 30.5 67.265625 30.101562 67.265625 C 27.234375 67.101562 24.800781 65.964844 22.800781 63.832031 C 20.800781 61.699219 19.800781 59.199219 19.800781 56.300781 C 19.800781 53.535156 20.734375 51.132812 22.632812 49.066406 C 24.535156 47.035156 26.867188 45.832031 29.632812 45.5 L 31.398438 45.367188 C 31.832031 45.367188 32.066406 45.167969 32.066406 44.765625 L 32.300781 42.964844 C 32.667969 39.367188 34.167969 36.332031 36.867188 33.898438 C 39.566406 31.464844 42.734375 30.234375 46.367188 30.234375 C 50 30.234375 53.167969 31.464844 55.898438 33.898438 C 58.632812 36.332031 60.167969 39.367188 60.566406 42.964844 L 60.832031 44.867188 C 60.832031 45.265625 61.035156 45.5 61.398438 45.5 L 66.800781 45.5 C 69.832031 45.5 72.398438 46.566406 74.566406 48.667969 C 76.699219 50.765625 77.800781 53.332031 77.800781 56.265625 C 77.800781 59.132812 76.800781 61.632812 74.765625 63.765625 C 72.734375 65.898438 70.300781 67.066406 67.464844 67.234375 C 67.066406 67.234375 66.832031 67.433594 66.832031 67.800781 L 66.832031 72.265625 C 66.832031 72.632812 67.035156 72.832031 67.464844 72.832031 C 71.933594 72.699219 75.699219 71 78.800781 67.800781 C 81.898438 64.566406 83.433594 60.734375 83.433594 56.300781 C 83.433594 53.933594 82.964844 51.699219 82 49.601562 C 84.632812 46.398438 85.933594 42.699219 85.933594 38.535156 C 85.933594 35.367188 85.132812 32.433594 83.566406 29.734375 C 82 27.035156 79.867188 24.898438 77.167969 23.332031 C 74.464844 21.765625 71.566406 21 68.433594 21 C 63.265625 21 58.933594 22.933594 55.464844 26.765625 C 52.765625 25.332031 49.765625 24.601562 46.433594 24.601562 C 41.734375 24.601562 37.535156 26.066406 33.898438 29 C 30.265625 31.933594 27.898438 35.667969 26.867188 40.199219 C 23.167969 41.066406 20.132812 43 17.734375 46 C 15.300781 49.035156 14.101562 52.464844 14.101562 56.300781 Z M 32.398438 82.035156 C 32.398438 82.734375 32.667969 83.367188 33.199219 83.933594 C 33.800781 84.464844 34.433594 84.734375 35.132812 84.734375 C 35.933594 84.734375 36.566406 84.464844 37.101562 83.964844 C 37.632812 83.433594 37.867188 82.800781 37.867188 82.035156 C 37.867188 81.234375 37.601562 80.601562 37.066406 80.066406 C 36.535156 79.535156 35.898438 79.300781 35.101562 79.300781 C 34.332031 79.300781 33.667969 79.566406 33.132812 80.066406 C 32.667969 80.566406 32.398438 81.234375 32.398438 82.035156 Z M 35.265625 69.933594 C 35.265625 70.734375 35.535156 71.398438 36.066406 71.964844 C 36.601562 72.535156 37.234375 72.800781 38.035156 72.800781 C 38.800781 72.800781 39.464844 72.535156 40 71.964844 C 40.535156 71.398438 40.800781 70.734375 40.800781 69.933594 C 40.800781 69.167969 40.535156 68.535156 40 68 C 39.464844 67.464844 38.832031 67.199219 38.035156 67.199219 C 37.265625 67.199219 36.601562 67.464844 36.066406 68 C 35.535156 68.535156 35.265625 69.199219 35.265625 69.933594 Z M 41.566406 88.535156 C 41.566406 89.265625 41.832031 89.898438 42.367188 90.433594 C 42.933594 91 43.566406 91.265625 44.300781 91.265625 C 45.101562 91.265625 45.765625 91 46.300781 90.5 C 46.867188 89.964844 47.132812 89.332031 47.132812 88.535156 C 47.132812 87.734375 46.867188 87.066406 46.300781 86.535156 C 45.734375 85.964844 45.066406 85.699219 44.300781 85.699219 C 43.566406 85.699219 42.933594 85.964844 42.367188 86.535156 C 41.867188 87.101562 41.566406 87.765625 41.566406 88.535156 Z M 44.433594 76.332031 C 44.433594 77.066406 44.699219 77.734375 45.265625 78.332031 C 45.800781 78.867188 46.433594 79.132812 47.167969 79.132812 C 47.964844 79.132812 48.632812 78.867188 49.199219 78.332031 C 49.765625 77.800781 50.035156 77.132812 50.035156 76.332031 C 50.035156 75.566406 49.765625 74.898438 49.199219 74.332031 C 48.632812 73.765625 47.964844 73.5 47.167969 73.5 C 46.398438 73.5 45.765625 73.765625 45.234375 74.332031 C 44.699219 74.898438 44.433594 75.566406 44.433594 76.332031 Z M 45.867188 64.332031 C 45.867188 65.101562 46.132812 65.734375 46.667969 66.265625 C 47.199219 66.800781 47.867188 67.066406 48.601562 67.066406 C 49.398438 67.066406 50.066406 66.800781 50.601562 66.265625 C 51.167969 65.734375 51.433594 65.101562 51.433594 64.300781 C 51.433594 63.535156 51.167969 62.867188 50.601562 62.332031 C 50.035156 61.800781 49.367188 61.535156 48.601562 61.535156 C 47.867188 61.535156 47.199219 61.800781 46.667969 62.332031 C 46.132812 62.867188 45.867188 63.566406 45.867188 64.332031 Z M 53.765625 82.035156 C 53.765625 82.734375 54.035156 83.367188 54.535156 83.933594 C 55.101562 84.464844 55.800781 84.734375 56.535156 84.734375 C 57.332031 84.734375 57.964844 84.464844 58.5 83.964844 C 59.035156 83.433594 59.265625 82.800781 59.265625 82.035156 C 59.265625 81.234375 59 80.601562 58.5 80.066406 C 57.964844 79.535156 57.332031 79.300781 56.535156 79.300781 C 55.734375 79.300781 55.066406 79.566406 54.535156 80.101562 C 54.035156 80.601562 53.765625 81.265625 53.765625 82.035156 Z M 56.601562 69.933594 C 56.601562 70.734375 56.867188 71.398438 57.398438 71.964844 C 57.933594 72.535156 58.601562 72.800781 59.367188 72.800781 C 60.132812 72.800781 60.800781 72.535156 61.332031 71.964844 C 61.867188 71.398438 62.132812 70.734375 62.132812 69.933594 C 62.132812 69.167969 61.867188 68.535156 61.332031 68 C 60.800781 67.464844 60.167969 67.199219 59.367188 67.199219 C 58.601562 67.199219 57.933594 67.464844 57.398438 68 C 56.867188 68.535156 56.601562 69.199219 56.601562 69.933594 Z M 60.101562 30.066406 C 62.367188 27.800781 65.101562 26.699219 68.367188 26.699219 C 71.632812 26.699219 74.398438 27.867188 76.699219 30.167969 C 79 32.464844 80.132812 35.265625 80.132812 38.566406 C 80.132812 40.535156 79.566406 42.566406 78.433594 44.699219 C 75.234375 41.5 71.332031 39.898438 66.765625 39.898438 L 65.734375 39.898438 C 64.800781 36 62.898438 32.734375 60.101562 30.066406 Z M 60.101562 30.066406 "/>
</g>
</svg>
