<?xml version="1.0" encoding="UTF-8"?>
<svg xmlns="http://www.w3.org/2000/svg" xmlns:xlink="http://www.w3.org/1999/xlink" width="100px" height="100px" viewBox="0 0 100 100" version="1.1">
<g id="surface1">
<path style=" stroke:none;fill-rule:nonzero;fill:rgb(0%,0%,0%);fill-opacity:1;" d="M 13.632812 56.300781 C 13.632812 60 14.734375 63.300781 16.933594 66.199219 C 19.132812 69.101562 22 71.101562 25.535156 72.167969 L 23.367188 77.832031 C 23.234375 78.300781 23.367188 78.535156 23.832031 78.535156 L 30.898438 78.535156 L 26.601562 92.464844 L 27.535156 92.464844 L 41.632812 73.734375 C 41.765625 73.601562 41.765625 73.433594 41.699219 73.265625 C 41.601562 73.101562 41.464844 73.035156 41.234375 73.035156 L 33.964844 73.035156 L 42.199219 57.566406 C 42.433594 57.101562 42.300781 56.832031 41.765625 56.832031 L 31.898438 56.832031 C 31.601562 56.832031 31.367188 57 31.167969 57.332031 L 27.601562 66.933594 C 25.234375 66.332031 23.265625 65.035156 21.667969 63.035156 C 20.066406 61.035156 19.300781 58.800781 19.300781 56.332031 C 19.300781 53.566406 20.234375 51.167969 22.132812 49.101562 C 24.035156 47.066406 26.367188 45.867188 29.132812 45.535156 L 30.898438 45.300781 C 31.332031 45.300781 31.566406 45.101562 31.566406 44.699219 L 31.800781 43 C 32.167969 39.398438 33.667969 36.367188 36.367188 33.933594 C 39.066406 31.5 42.234375 30.265625 45.867188 30.265625 C 49.5 30.265625 52.667969 31.5 55.398438 33.933594 C 58.132812 36.367188 59.667969 39.398438 60.066406 42.964844 L 60.300781 44.867188 C 60.300781 45.265625 60.5 45.5 60.867188 45.5 L 66.265625 45.5 C 69.300781 45.5 71.867188 46.566406 74.035156 48.667969 C 76.199219 50.765625 77.265625 53.332031 77.265625 56.265625 C 77.265625 59.101562 76.265625 61.566406 74.265625 63.632812 C 72.265625 65.699219 69.832031 66.867188 66.933594 67.066406 C 66.535156 67.066406 66.300781 67.265625 66.300781 67.699219 L 66.300781 72.234375 C 66.300781 72.632812 66.5 72.832031 66.933594 72.832031 C 71.367188 72.699219 75.132812 71 78.234375 67.800781 C 81.332031 64.566406 82.867188 60.734375 82.867188 56.300781 C 82.867188 53.398438 82.132812 50.699219 80.667969 48.132812 C 83.199219 45.667969 84.898438 42.765625 85.699219 39.398438 L 86.332031 37.132812 C 86.367188 37.101562 86.367188 37.035156 86.367188 36.898438 C 86.367188 36.632812 86.199219 36.464844 85.867188 36.367188 L 83.800781 35.800781 C 81.898438 35.234375 80.265625 34.300781 78.933594 33 C 77.601562 31.699219 76.667969 30.332031 76.101562 28.933594 C 75.535156 27.535156 75.265625 26.132812 75.300781 24.734375 C 75.300781 23.800781 75.398438 22.867188 75.632812 21.898438 L 76 19.867188 C 76.066406 19.535156 75.933594 19.265625 75.535156 19.101562 L 72.867188 18.300781 C 71.300781 18 69.933594 17.832031 68.734375 17.832031 C 67.5 17.800781 66.234375 17.933594 64.964844 18.234375 C 63.699219 18.5 62.367188 18.964844 61 19.566406 C 59.632812 20.167969 58.332031 21.066406 57.066406 22.199219 C 55.800781 23.332031 54.699219 24.667969 53.765625 26.199219 C 51 25.167969 48.367188 24.667969 45.898438 24.667969 C 41.199219 24.667969 37 26.132812 33.367188 29.066406 C 29.734375 32 27.367188 35.734375 26.332031 40.265625 C 22.632812 41.132812 19.601562 43.066406 17.199219 46.066406 C 14.832031 49.035156 13.632812 52.464844 13.632812 56.300781 Z M 39.898438 90.332031 C 39.898438 90.898438 40.066406 91.433594 40.433594 91.964844 C 40.800781 92.5 41.332031 92.867188 42.066406 93.066406 C 42.367188 93.132812 42.632812 93.167969 42.867188 93.167969 C 44.300781 93.167969 45.199219 92.5 45.535156 91.132812 L 45.964844 89.167969 C 46.167969 88.300781 46.066406 87.566406 45.699219 86.898438 C 45.300781 86.234375 44.734375 85.832031 43.933594 85.667969 C 43.234375 85.433594 42.535156 85.5 41.832031 85.898438 C 41.132812 86.300781 40.699219 86.867188 40.464844 87.601562 L 40.035156 89.566406 C 39.933594 89.964844 39.898438 90.234375 39.898438 90.332031 Z M 42.535156 80.667969 C 42.535156 81.433594 42.800781 82.066406 43.332031 82.601562 C 43.867188 83.132812 44.535156 83.398438 45.265625 83.398438 C 46.066406 83.398438 46.699219 83.132812 47.234375 82.632812 C 47.765625 82.101562 48 81.464844 48 80.667969 C 48 79.898438 47.734375 79.265625 47.234375 78.734375 C 46.699219 78.199219 46.066406 77.964844 45.265625 77.964844 C 44.464844 77.964844 43.832031 78.234375 43.300781 78.734375 C 42.800781 79.234375 42.535156 79.898438 42.535156 80.667969 Z M 44.601562 73.101562 C 44.566406 73.601562 44.699219 74.132812 45.066406 74.667969 C 45.398438 75.199219 45.898438 75.535156 46.566406 75.667969 C 47.332031 75.867188 48.035156 75.800781 48.699219 75.464844 C 49.367188 75.132812 49.800781 74.5 50.066406 73.601562 L 50.933594 70.601562 C 51.167969 69.867188 51.101562 69.167969 50.699219 68.5 C 50.300781 67.832031 49.734375 67.398438 48.933594 67.167969 C 48.199219 66.933594 47.5 67.035156 46.800781 67.433594 C 46.101562 67.832031 45.667969 68.433594 45.433594 69.199219 L 44.667969 72.199219 C 44.632812 72.464844 44.601562 72.765625 44.601562 73.101562 Z M 53.800781 80.265625 C 53.800781 80.832031 53.964844 81.367188 54.300781 81.867188 C 54.632812 82.367188 55.132812 82.734375 55.832031 82.933594 C 55.933594 82.933594 56.101562 82.964844 56.300781 83 C 56.5 83.035156 56.667969 83.066406 56.765625 83.066406 C 58.132812 83.066406 58.964844 82.332031 59.300781 80.867188 L 59.765625 78.867188 C 60 78.167969 59.933594 77.464844 59.535156 76.765625 C 59.132812 76.066406 58.566406 75.632812 57.832031 75.398438 C 57 75.199219 56.234375 75.265625 55.566406 75.667969 C 54.898438 76.066406 54.433594 76.632812 54.199219 77.433594 L 53.898438 79.398438 C 53.898438 79.433594 53.898438 79.566406 53.867188 79.765625 C 53.832031 80 53.800781 80.132812 53.800781 80.265625 Z M 56.265625 70.398438 C 56.265625 71.167969 56.535156 71.800781 57.066406 72.300781 C 57.566406 72.832031 58.199219 73.101562 59 73.101562 C 59.800781 73.101562 60.433594 72.832031 60.964844 72.332031 C 61.5 71.800781 61.734375 71.167969 61.734375 70.398438 C 61.734375 69.601562 61.464844 68.964844 60.964844 68.433594 C 60.433594 67.898438 59.800781 67.667969 59 67.667969 C 58.199219 67.667969 57.566406 67.933594 57.035156 68.433594 C 56.5 68.933594 56.265625 69.601562 56.265625 70.398438 Z M 58.632812 29.234375 C 59.734375 27.367188 61.234375 25.933594 63.101562 24.933594 C 64.964844 23.933594 66.933594 23.433594 68.964844 23.433594 L 69.699219 23.433594 L 69.699219 24.5 C 69.699219 26.632812 70.066406 28.699219 70.832031 30.699219 C 71.601562 32.699219 72.699219 34.535156 74.234375 36.234375 C 75.734375 37.933594 77.535156 39.265625 79.601562 40.265625 C 79.035156 41.535156 78.199219 42.667969 77.066406 43.699219 C 74.035156 41.101562 70.464844 39.800781 66.332031 39.800781 L 65.234375 39.800781 C 64.265625 35.601562 62.066406 32.066406 58.632812 29.234375 Z M 58.632812 29.234375 "/>
</g>
</svg>
