<?xml version="1.0" encoding="UTF-8"?>
<svg xmlns="http://www.w3.org/2000/svg" xmlns:xlink="http://www.w3.org/1999/xlink" width="100px" height="100px" viewBox="0 0 100 100" version="1.1">
<g id="surface1">
<path style=" stroke:none;fill-rule:nonzero;fill:rgb(0%,0%,0%);fill-opacity:1;" d="M 13.699219 56.734375 C 13.699219 60.5 14.800781 63.832031 17.035156 66.765625 C 19.265625 69.699219 22.167969 71.699219 25.765625 72.765625 C 26.101562 72.800781 26.367188 72.734375 26.601562 72.5 L 30.367188 67.632812 C 27.398438 67.632812 24.832031 66.566406 22.667969 64.433594 C 20.5 62.300781 19.433594 59.734375 19.433594 56.734375 C 19.433594 53.867188 20.398438 51.367188 22.300781 49.265625 C 24.199219 47.167969 26.601562 46 29.433594 45.765625 L 31.167969 45.535156 C 31.535156 45.535156 31.699219 45.367188 31.699219 45.066406 L 31.933594 43.199219 C 32.332031 39.535156 33.898438 36.464844 36.632812 34 C 39.367188 31.535156 42.566406 30.300781 46.234375 30.300781 C 49.933594 30.300781 53.167969 31.535156 55.933594 33.964844 C 58.699219 36.398438 60.265625 39.433594 60.601562 43.101562 L 60.832031 45.066406 C 60.898438 45.433594 61.132812 45.632812 61.535156 45.632812 L 66.964844 45.632812 C 69.964844 45.632812 72.535156 46.734375 74.699219 48.898438 C 76.867188 51.101562 77.964844 53.699219 77.964844 56.734375 C 77.964844 59.535156 77.035156 62 75.132812 64.101562 C 73.234375 66.199219 70.898438 67.367188 68.132812 67.632812 C 66.535156 67.632812 65.535156 67.933594 65.101562 68.566406 L 57.832031 76.566406 C 57.300781 77.167969 57.101562 77.867188 57.199219 78.632812 C 57.300781 79.398438 57.632812 80.132812 58.234375 80.734375 C 58.667969 81.300781 59.332031 81.566406 60.199219 81.5 C 61.066406 81.433594 61.734375 81 62.199219 80.234375 L 68.800781 73.332031 C 71.535156 73.066406 74.066406 72.167969 76.398438 70.601562 C 78.699219 69.035156 80.535156 67.035156 81.898438 64.601562 C 83.265625 62.167969 83.898438 59.535156 83.898438 56.734375 C 83.898438 54.632812 83.433594 52.332031 82.464844 49.800781 C 85.035156 46.535156 86.300781 42.867188 86.300781 38.734375 C 86.300781 35.464844 85.5 32.5 83.933594 29.765625 C 82.332031 27.035156 80.199219 24.898438 77.464844 23.332031 C 74.734375 21.765625 71.765625 21 68.535156 21 C 63.300781 21 58.964844 22.898438 55.535156 26.699219 C 52.632812 25.265625 49.566406 24.535156 46.300781 24.535156 C 41.535156 24.535156 37.300781 26 33.667969 28.964844 C 30.035156 31.933594 27.667969 35.734375 26.632812 40.398438 C 22.832031 41.265625 19.734375 43.199219 17.332031 46.234375 C 14.933594 49.265625 13.699219 52.765625 13.699219 56.734375 Z M 26.367188 81.734375 C 26.367188 82.199219 26.433594 82.566406 26.535156 82.800781 C 26.800781 83.5 27.300781 84 28 84.265625 C 28.765625 84.601562 29.5 84.632812 30.265625 84.332031 C 31.035156 84.066406 31.535156 83.535156 31.765625 82.832031 C 32.101562 82.101562 32.132812 81.367188 31.832031 80.601562 C 31.535156 79.832031 31.035156 79.332031 30.300781 79.066406 C 29.535156 78.800781 28.832031 78.800781 28.101562 79.066406 C 27.398438 79.332031 26.867188 79.832031 26.535156 80.566406 C 26.433594 80.832031 26.367188 81.234375 26.367188 81.734375 Z M 32.5 73.601562 C 32.5 74.367188 32.867188 75.101562 33.566406 75.832031 C 35 77.035156 36.367188 76.867188 37.765625 75.332031 L 45.066406 67.199219 C 45.566406 66.632812 45.765625 65.933594 45.667969 65.167969 C 45.566406 64.398438 45.234375 63.765625 44.632812 63.265625 C 44.035156 62.800781 43.332031 62.632812 42.535156 62.734375 C 41.734375 62.832031 41.101562 63.167969 40.566406 63.699219 L 33.234375 71.632812 C 32.734375 72.332031 32.5 73 32.5 73.601562 Z M 34.632812 90.035156 C 34.632812 90.433594 34.734375 90.800781 34.898438 91.101562 C 35.199219 91.867188 35.632812 92.367188 36.265625 92.632812 C 36.667969 92.800781 37.066406 92.867188 37.5 92.867188 C 37.734375 92.867188 38.101562 92.800781 38.566406 92.667969 C 39.265625 92.367188 39.765625 91.867188 40.035156 91.167969 C 40.367188 90.5 40.398438 89.800781 40.101562 89.035156 C 39.832031 88.265625 39.332031 87.765625 38.601562 87.5 C 37.867188 87.132812 37.132812 87.101562 36.398438 87.398438 C 35.699219 87.699219 35.132812 88.234375 34.765625 89 C 34.699219 89.332031 34.632812 89.667969 34.632812 90.035156 Z M 40.199219 82.066406 L 40.199219 82.5 C 40.265625 83.300781 40.601562 83.964844 41.265625 84.5 C 41.734375 85.101562 42.398438 85.367188 43.265625 85.300781 C 44.101562 85.234375 44.765625 84.800781 45.265625 84.035156 L 59.332031 67.667969 C 59.867188 67.066406 60.066406 66.367188 60 65.535156 C 59.933594 64.734375 59.535156 64.101562 58.832031 63.632812 C 58.265625 63.167969 57.566406 62.933594 56.832031 63 C 56.066406 63.066406 55.433594 63.398438 54.898438 64 L 40.832031 80.398438 C 40.398438 80.832031 40.199219 81.367188 40.199219 82.066406 Z M 52.300781 84.832031 C 52.066406 85.601562 52.066406 86.265625 52.300781 86.898438 C 52.601562 87.632812 53.101562 88.167969 53.800781 88.535156 C 54.167969 88.699219 54.566406 88.765625 55 88.765625 C 55.199219 88.765625 55.535156 88.699219 56 88.566406 C 56.765625 88.265625 57.265625 87.765625 57.535156 87.035156 C 57.867188 86.265625 57.898438 85.566406 57.632812 84.832031 C 57.367188 84.132812 56.867188 83.632812 56.167969 83.367188 C 55.398438 83 54.667969 82.964844 53.964844 83.265625 C 53.234375 83.566406 52.667969 84.101562 52.300781 84.832031 Z M 60.300781 30.101562 C 62.566406 27.832031 65.332031 26.699219 68.566406 26.699219 C 71.933594 26.699219 74.765625 27.867188 77.101562 30.199219 C 79.433594 32.535156 80.601562 35.398438 80.601562 38.734375 C 80.601562 40.800781 80.035156 42.832031 78.867188 44.800781 C 75.632812 41.535156 71.667969 39.933594 67.035156 39.933594 L 66 39.933594 C 65.167969 36.132812 63.265625 32.867188 60.300781 30.101562 Z M 60.300781 30.101562 "/>
</g>
</svg>
