<?xml version="1.0" encoding="UTF-8"?>
<svg xmlns="http://www.w3.org/2000/svg" xmlns:xlink="http://www.w3.org/1999/xlink" width="100px" height="100px" viewBox="0 0 100 100" version="1.1">
<g id="surface1">
<path style=" stroke:none;fill-rule:nonzero;fill:rgb(0%,0%,0%);fill-opacity:1;" d="M 13.566406 56.367188 C 13.566406 60.800781 15.101562 64.632812 18.199219 67.800781 C 21.300781 70.964844 25.066406 72.699219 29.535156 72.898438 C 29.898438 72.898438 30.101562 72.699219 30.101562 72.332031 L 30.101562 67.765625 C 30.101562 67.367188 29.898438 67.167969 29.535156 67.167969 C 26.632812 66.933594 24.199219 65.800781 22.234375 63.699219 C 20.265625 61.632812 19.265625 59.167969 19.265625 56.332031 C 19.265625 53.566406 20.199219 51.199219 22.066406 49.132812 C 23.933594 47.066406 26.265625 45.898438 29.066406 45.566406 L 30.832031 45.332031 C 31.265625 45.332031 31.5 45.132812 31.5 44.765625 L 31.734375 43.035156 C 32.101562 39.433594 33.601562 36.398438 36.300781 34 C 39 31.566406 42.167969 30.367188 45.800781 30.367188 C 49.433594 30.367188 52.601562 31.566406 55.300781 34 C 58 36.398438 59.566406 39.433594 59.933594 43.066406 L 60.199219 45 C 60.199219 45.398438 60.398438 45.601562 60.800781 45.601562 L 66.167969 45.601562 C 69.167969 45.601562 71.734375 46.667969 73.898438 48.765625 C 76.035156 50.867188 77.132812 53.398438 77.132812 56.367188 C 77.132812 59.199219 76.132812 61.667969 74.167969 63.734375 C 72.199219 65.800781 69.734375 66.964844 66.867188 67.199219 C 66.433594 67.199219 66.199219 67.398438 66.199219 67.800781 L 66.199219 72.367188 C 66.199219 72.734375 66.433594 72.933594 66.867188 72.933594 C 71.300781 72.800781 75.066406 71.101562 78.132812 67.898438 C 81.199219 64.699219 82.734375 60.867188 82.734375 56.398438 C 82.734375 53.5 82 50.800781 80.566406 48.300781 C 83.265625 45.867188 85.035156 42.964844 85.832031 39.566406 L 85.832031 39.132812 L 86.464844 36.5 L 83.933594 35.800781 C 81.234375 35 79.132812 33.464844 77.632812 31.300781 C 76.132812 29.101562 75.398438 26.832031 75.398438 24.535156 C 75.398438 23.667969 75.5 22.800781 75.667969 21.933594 L 76.332031 19.265625 L 73.5 18.433594 L 73 18.300781 C 71.433594 18 70.066406 17.832031 68.832031 17.832031 C 67.566406 17.832031 66.300781 17.964844 65.035156 18.265625 C 63.734375 18.566406 62.398438 19 61.035156 19.632812 C 59.632812 20.265625 58.300781 21.132812 57.035156 22.300781 C 55.765625 23.464844 54.632812 24.832031 53.699219 26.398438 C 51.234375 25.300781 48.601562 24.765625 45.832031 24.765625 C 41.132812 24.765625 36.964844 26.234375 33.332031 29.132812 C 29.699219 32.035156 27.433594 35.765625 26.433594 40.332031 C 22.699219 41.199219 19.601562 43.101562 17.199219 46.066406 C 14.765625 49.101562 13.566406 52.535156 13.566406 56.367188 Z M 31.566406 78.933594 C 31.566406 79.433594 31.734375 79.933594 32.066406 80.433594 C 32.398438 80.933594 32.898438 81.300781 33.566406 81.535156 C 34.300781 81.765625 35 81.734375 35.699219 81.367188 C 36.398438 81 36.832031 80.433594 37.066406 79.667969 L 38 76.132812 C 38.234375 75.433594 38.167969 74.765625 37.765625 74.066406 C 37.367188 73.367188 36.800781 72.933594 36.066406 72.699219 C 35.300781 72.5 34.566406 72.601562 33.898438 72.964844 C 33.234375 73.332031 32.765625 73.964844 32.5 74.734375 L 31.734375 78.035156 C 31.632812 78.566406 31.566406 78.867188 31.566406 78.933594 Z M 35.898438 63.167969 C 35.898438 63.535156 36 63.933594 36.234375 64.367188 C 36.464844 64.933594 37.066406 65.367188 38 65.632812 C 38.800781 65.832031 39.535156 65.765625 40.199219 65.433594 C 40.832031 65.101562 41.300781 64.5 41.535156 63.699219 L 42.464844 60.265625 C 42.699219 59.5 42.632812 58.765625 42.234375 58.132812 C 41.832031 57.464844 41.265625 57.035156 40.535156 56.832031 C 39.734375 56.632812 38.964844 56.699219 38.300781 57.066406 C 37.632812 57.433594 37.199219 58 36.964844 58.800781 L 36.066406 62.167969 C 35.964844 62.601562 35.898438 62.933594 35.898438 63.167969 Z M 40.066406 89.332031 C 40.066406 89.898438 40.234375 90.433594 40.566406 90.964844 C 40.898438 91.5 41.398438 91.867188 42.066406 92.066406 C 42.433594 92.167969 42.667969 92.234375 42.832031 92.234375 C 43.132812 92.234375 43.535156 92.132812 44.101562 91.898438 C 44.765625 91.632812 45.234375 91 45.535156 90.066406 L 46.535156 86.566406 C 46.765625 85.867188 46.699219 85.167969 46.300781 84.464844 C 45.898438 83.765625 45.332031 83.332031 44.601562 83.101562 C 43.800781 82.898438 43.035156 82.964844 42.367188 83.367188 C 41.699219 83.765625 41.234375 84.332031 41 85.132812 L 40.167969 88.5 C 40.101562 88.765625 40.066406 89.066406 40.066406 89.332031 Z M 44.5 73.433594 C 44.5 73.933594 44.667969 74.433594 45 74.933594 C 45.332031 75.433594 45.832031 75.800781 46.535156 76.035156 C 47.265625 76.265625 48 76.199219 48.667969 75.832031 C 49.332031 75.464844 49.765625 74.898438 50 74.101562 L 50.898438 70.632812 C 51.132812 69.933594 51.066406 69.234375 50.699219 68.566406 C 50.332031 67.898438 49.800781 67.433594 49.066406 67.199219 C 48.265625 67 47.5 67.101562 46.800781 67.464844 C 46.101562 67.832031 45.632812 68.464844 45.398438 69.234375 L 44.601562 72.566406 Z M 53.867188 79.300781 C 53.867188 80.566406 54.566406 81.367188 56 81.800781 C 56.300781 81.867188 56.566406 81.898438 56.800781 81.898438 C 57.300781 81.898438 57.699219 81.832031 58.035156 81.667969 C 58.734375 81.398438 59.234375 80.765625 59.5 79.765625 L 60.398438 76.367188 C 60.601562 75.535156 60.535156 74.800781 60.132812 74.132812 C 59.734375 73.464844 59.167969 73.066406 58.367188 72.898438 C 57.601562 72.667969 56.867188 72.734375 56.234375 73.132812 C 55.601562 73.535156 55.132812 74.101562 54.898438 74.832031 L 54 78.300781 C 54 78.367188 53.964844 78.535156 53.933594 78.800781 C 53.867188 79.035156 53.867188 79.199219 53.867188 79.300781 Z M 58.5 63.265625 C 58.5 63.800781 58.667969 64.300781 59 64.800781 C 59.332031 65.300781 59.867188 65.667969 60.535156 65.867188 C 61 65.964844 61.265625 66.035156 61.300781 66.035156 C 61.601562 66.035156 62 65.933594 62.566406 65.699219 C 63.265625 65.433594 63.734375 64.800781 64.035156 63.867188 L 64.964844 60.398438 C 65.167969 59.667969 65.066406 58.964844 64.699219 58.300781 C 64.332031 57.632812 63.699219 57.199219 62.933594 56.964844 C 62.199219 56.734375 61.5 56.800781 60.832031 57.199219 C 60.167969 57.601562 59.734375 58.167969 59.5 58.933594 L 58.632812 62.464844 C 58.535156 62.765625 58.5 63.066406 58.5 63.265625 Z M 58.601562 29.367188 C 59.667969 27.5 61.132812 26.035156 63.035156 25 C 64.933594 23.964844 66.933594 23.433594 69.066406 23.433594 L 69.765625 23.433594 C 69.734375 23.734375 69.734375 24.132812 69.734375 24.699219 C 69.734375 27.867188 70.601562 30.867188 72.332031 33.734375 C 74.066406 36.601562 76.5 38.765625 79.566406 40.265625 C 78.832031 41.699219 77.964844 42.933594 76.964844 43.933594 C 73.867188 41.234375 70.234375 39.898438 66.132812 39.898438 L 65.066406 39.898438 C 64.234375 35.933594 62.101562 32.433594 58.601562 29.367188 Z M 58.601562 29.367188 "/>
</g>
</svg>
