<?xml version="1.0" encoding="UTF-8"?>
<svg xmlns="http://www.w3.org/2000/svg" xmlns:xlink="http://www.w3.org/1999/xlink" width="100px" height="100px" viewBox="0 0 100 100" version="1.1">
<g id="surface1">
<path style=" stroke:none;fill-rule:nonzero;fill:rgb(0%,0%,0%);fill-opacity:1;" d="M 13.800781 56.332031 C 13.800781 52.464844 14.964844 49.066406 17.332031 46.066406 C 19.699219 43.066406 22.734375 41.167969 26.464844 40.332031 C 27.234375 36.898438 28.800781 33.898438 31.132812 31.332031 C 33.464844 28.765625 36.300781 26.933594 39.566406 25.832031 C 41.632812 25.132812 43.765625 24.765625 46 24.765625 C 48.699219 24.765625 51.332031 25.300781 53.832031 26.367188 C 54.765625 24.800781 55.867188 23.433594 57.132812 22.300781 C 58.398438 21.167969 59.699219 20.265625 61.035156 19.667969 C 62.367188 19.066406 63.699219 18.601562 64.964844 18.300781 C 66.234375 18 67.5 17.867188 68.699219 17.867188 C 69.964844 17.867188 71.332031 18.035156 72.800781 18.398438 L 75.535156 19.234375 C 76 19.433594 76.132812 19.667969 76 19.964844 L 75.535156 21.964844 C 75.300781 23 75.199219 23.964844 75.199219 24.832031 C 75.199219 25.867188 75.367188 26.933594 75.699219 28 C 76.035156 29.066406 76.5 30.101562 77.167969 31.132812 C 77.800781 32.167969 78.699219 33.066406 79.832031 33.898438 C 80.964844 34.734375 82.234375 35.367188 83.667969 35.800781 L 85.734375 36.535156 C 86.066406 36.632812 86.234375 36.800781 86.234375 37.066406 C 86.234375 37.132812 86.199219 37.199219 86.167969 37.300781 L 85.566406 39.535156 C 84.667969 43.132812 82.964844 45.964844 80.566406 48.101562 C 81.898438 50.433594 82.632812 52.933594 82.734375 55.566406 C 82.765625 55.734375 82.765625 55.964844 82.765625 56.332031 C 82.765625 59.300781 82.035156 62.066406 80.535156 64.601562 C 79.066406 67.132812 77.035156 69.132812 74.535156 70.601562 C 72 72.066406 69.234375 72.832031 66.265625 72.832031 L 30.234375 72.832031 C 27.265625 72.832031 24.5 72.101562 21.964844 70.601562 C 19.433594 69.101562 17.464844 67.101562 16 64.601562 C 14.535156 62.101562 13.800781 59.332031 13.800781 56.332031 Z M 19.5 56.332031 C 19.5 59.300781 20.566406 61.867188 22.699219 64.035156 C 24.832031 66.199219 27.332031 67.300781 30.234375 67.300781 L 66.265625 67.300781 C 69.234375 67.300781 71.765625 66.234375 73.867188 64.066406 C 75.964844 61.898438 77.035156 59.332031 77.035156 56.332031 C 77.035156 53.398438 75.964844 50.898438 73.832031 48.800781 C 71.699219 46.699219 69.167969 45.632812 66.234375 45.632812 L 60.300781 45.632812 L 59.964844 43.132812 C 59.632812 39.765625 58.234375 36.867188 55.765625 34.5 C 53.300781 32.132812 50.367188 30.800781 47 30.5 C 46.898438 30.5 46.734375 30.5 46.5 30.464844 C 46.265625 30.433594 46.132812 30.433594 46 30.433594 C 44.300781 30.433594 42.601562 30.765625 40.867188 31.398438 L 40.867188 31.332031 C 38.433594 32.265625 36.367188 33.800781 34.734375 35.898438 C 33.066406 38 32.066406 40.398438 31.734375 43.132812 L 31.5 45.535156 L 29.234375 45.632812 C 26.433594 45.964844 24.101562 47.132812 22.234375 49.167969 C 20.367188 51.199219 19.5 53.566406 19.5 56.332031 Z M 58.667969 29.300781 C 62.199219 32.332031 64.398438 35.867188 65.234375 39.898438 L 66.300781 39.898438 C 70.433594 39.898438 73.964844 41.199219 76.867188 43.832031 C 77.964844 42.800781 78.800781 41.601562 79.398438 40.265625 C 76.367188 38.832031 73.964844 36.632812 72.199219 33.699219 C 70.464844 30.765625 69.566406 27.667969 69.566406 24.433594 L 69.566406 23.632812 C 69.398438 23.601562 69.132812 23.601562 68.765625 23.601562 C 66.832031 23.566406 64.933594 24.035156 63.101562 25.066406 C 61.265625 26.066406 59.765625 27.464844 58.667969 29.300781 Z M 58.667969 29.300781 "/>
</g>
</svg>
