<?xml version="1.0" encoding="UTF-8"?>
<svg xmlns="http://www.w3.org/2000/svg" xmlns:xlink="http://www.w3.org/1999/xlink" width="100px" height="100px" viewBox="0 0 100 100" version="1.1">
<g id="surface1">
<path style=" stroke:none;fill-rule:nonzero;fill:rgb(0%,0%,0%);fill-opacity:1;" d="M 13.535156 56.433594 C 13.535156 60.167969 14.632812 63.5 16.867188 66.433594 C 19.101562 69.367188 21.933594 71.332031 25.433594 72.332031 C 25.734375 72.398438 26 72.300781 26.234375 72.066406 L 30 67.398438 C 27.066406 67.398438 24.566406 66.332031 22.433594 64.167969 C 20.300781 62 19.234375 59.433594 19.234375 56.433594 C 19.234375 53.632812 20.167969 51.234375 22.035156 49.199219 C 23.898438 47.167969 26.265625 46.035156 29.066406 45.765625 L 30.734375 45.535156 C 31.132812 45.535156 31.367188 45.332031 31.367188 44.898438 L 31.632812 43.132812 C 32.035156 39.5 33.601562 36.464844 36.332031 34.035156 C 39.035156 31.601562 42.234375 30.367188 45.867188 30.367188 C 49.5 30.367188 52.667969 31.601562 55.398438 34.035156 C 58.132812 36.464844 59.699219 39.5 60.101562 43.101562 L 60.332031 45.035156 C 60.332031 45.398438 60.535156 45.601562 60.933594 45.601562 L 66.332031 45.601562 C 69.265625 45.601562 71.800781 46.667969 73.933594 48.800781 C 76.066406 50.933594 77.132812 53.464844 77.132812 56.398438 C 77.132812 59.234375 76.199219 61.699219 74.332031 63.800781 C 72.464844 65.898438 70.167969 67.066406 67.433594 67.300781 C 65.933594 67.5 64.964844 67.800781 64.566406 68.234375 L 56.800781 77.933594 C 56.265625 78.5 56.066406 79.199219 56.167969 80.035156 C 56.234375 80.832031 56.601562 81.464844 57.199219 82 C 57.800781 82.535156 58.433594 82.765625 59.101562 82.765625 C 59.867188 82.765625 60.566406 82.367188 61.234375 81.5 L 68.035156 72.867188 C 70.101562 72.667969 72.035156 72.066406 73.898438 71.132812 C 75.734375 70.199219 77.332031 68.964844 78.632812 67.535156 C 79.933594 66.066406 81 64.367188 81.765625 62.433594 C 82.535156 60.5 82.933594 58.5 82.933594 56.398438 C 82.933594 53.5 82.167969 50.800781 80.667969 48.265625 C 83.367188 45.800781 85.132812 42.898438 85.933594 39.535156 L 85.933594 39.234375 L 86.601562 36.667969 L 84.066406 35.800781 C 82.167969 35.234375 80.535156 34.300781 79.167969 33.035156 C 77.800781 31.765625 76.867188 30.367188 76.300781 28.933594 C 75.734375 27.5 75.433594 26.035156 75.433594 24.566406 C 75.433594 23.699219 75.535156 22.832031 75.699219 21.898438 L 76.332031 19.300781 L 73.566406 18.535156 C 73.535156 18.535156 73.5 18.535156 73.464844 18.5 C 73.433594 18.464844 73.398438 18.433594 73.332031 18.433594 C 73.265625 18.433594 73.234375 18.398438 73.199219 18.367188 C 73.035156 18.332031 73 18.300781 73 18.300781 C 71.535156 17.933594 70.167969 17.765625 68.832031 17.765625 C 67.566406 17.800781 66.300781 17.933594 65 18.234375 C 63.699219 18.535156 62.398438 18.964844 61 19.601562 C 59.601562 20.234375 58.265625 21.132812 57 22.300781 C 55.734375 23.464844 54.601562 24.832031 53.667969 26.433594 C 51.167969 25.332031 48.566406 24.800781 45.867188 24.800781 C 41.167969 24.800781 36.964844 26.265625 33.332031 29.167969 C 29.699219 32.066406 27.332031 35.800781 26.300781 40.367188 C 22.535156 41.265625 19.464844 43.234375 17.101562 46.199219 C 14.734375 49.167969 13.535156 52.566406 13.535156 56.433594 Z M 25.898438 83.066406 C 25.898438 83.5 25.964844 83.832031 26.132812 84.101562 C 26.433594 84.832031 26.898438 85.332031 27.566406 85.632812 C 28.300781 85.964844 29.035156 86 29.800781 85.734375 C 30.566406 85.464844 31.066406 84.964844 31.332031 84.265625 C 31.667969 83.535156 31.667969 82.800781 31.367188 82.035156 C 31.066406 81.265625 30.566406 80.765625 29.867188 80.535156 C 29.132812 80.199219 28.398438 80.167969 27.667969 80.464844 C 26.933594 80.734375 26.433594 81.265625 26.167969 81.964844 C 25.964844 82.234375 25.898438 82.632812 25.898438 83.066406 Z M 32.035156 74.898438 L 32.035156 75.265625 C 32.101562 76.035156 32.464844 76.632812 33.132812 77.101562 C 33.566406 77.601562 34.167969 77.832031 34.933594 77.832031 C 35.699219 77.800781 36.433594 77.464844 37.132812 76.765625 L 44.898438 67.035156 C 45.367188 66.464844 45.535156 65.765625 45.464844 64.964844 C 45.367188 64.167969 45.066406 63.535156 44.464844 63.035156 C 43.867188 62.566406 43.199219 62.367188 42.367188 62.433594 C 41.566406 62.5 40.933594 62.898438 40.464844 63.566406 L 32.734375 73.101562 C 32.265625 73.632812 32.035156 74.234375 32.035156 74.898438 Z M 33.964844 92.265625 C 34.265625 92.964844 34.765625 93.464844 35.5 93.765625 C 35.867188 93.933594 36.234375 94.035156 36.601562 94.035156 C 36.800781 94.035156 37.132812 93.964844 37.601562 93.832031 C 38.300781 93.535156 38.800781 93.066406 39.066406 92.367188 C 39.332031 91.632812 39.332031 90.933594 39.101562 90.199219 C 38.867188 89.5 38.367188 88.964844 37.632812 88.601562 C 36.898438 88.332031 36.199219 88.332031 35.535156 88.601562 C 34.867188 88.867188 34.367188 89.367188 34.035156 90.066406 C 33.667969 90.734375 33.632812 91.433594 33.964844 92.265625 Z M 39.265625 83.398438 L 39.265625 83.667969 C 39.332031 84.398438 39.699219 85.066406 40.332031 85.601562 C 40.964844 86.132812 41.601562 86.398438 42.199219 86.398438 C 42.933594 86.398438 43.601562 86.035156 44.199219 85.265625 L 58.566406 67.398438 C 59.035156 66.832031 59.265625 66.132812 59.199219 65.332031 C 59.132812 64.535156 58.800781 63.867188 58.234375 63.398438 C 57.566406 62.933594 56.832031 62.734375 56.035156 62.800781 C 55.234375 62.867188 54.601562 63.199219 54.132812 63.800781 L 39.898438 81.667969 C 39.464844 82.167969 39.265625 82.765625 39.265625 83.398438 Z M 50.964844 87.101562 C 50.964844 87.464844 51.035156 87.832031 51.199219 88.199219 C 51.464844 88.964844 52 89.464844 52.765625 89.765625 C 53.535156 90.066406 54.199219 90.066406 54.800781 89.832031 C 55.535156 89.535156 56.035156 89.035156 56.332031 88.300781 C 56.667969 87.566406 56.699219 86.867188 56.433594 86.167969 C 56.167969 85.464844 55.667969 84.964844 54.933594 84.632812 C 54.199219 84.367188 53.464844 84.367188 52.765625 84.632812 C 52.035156 84.898438 51.535156 85.367188 51.199219 86.035156 C 51.035156 86.398438 50.964844 86.765625 50.964844 87.101562 Z M 58.566406 29.367188 C 59.601562 27.464844 61.066406 26 62.898438 24.964844 C 64.734375 23.964844 66.699219 23.464844 68.765625 23.5 C 69.167969 23.5 69.464844 23.5 69.632812 23.535156 L 69.632812 24.535156 C 69.632812 27.765625 70.535156 30.832031 72.300781 33.699219 C 74.066406 36.601562 76.5 38.765625 79.601562 40.234375 C 78.765625 41.800781 77.898438 43.035156 76.964844 43.964844 C 74 41.332031 70.433594 40.035156 66.234375 40.035156 L 65.167969 40.035156 C 64.199219 35.800781 62 32.234375 58.566406 29.367188 Z M 58.566406 29.367188 "/>
</g>
</svg>
