<?xml version="1.0" encoding="UTF-8"?>
<svg xmlns="http://www.w3.org/2000/svg" xmlns:xlink="http://www.w3.org/1999/xlink" width="100px" height="100px" viewBox="0 0 100 100" version="1.1">
<g id="surface1">
<path style=" stroke:none;fill-rule:nonzero;fill:rgb(0%,0%,0%);fill-opacity:1;" d="M 14.167969 56.300781 C 14.167969 60.734375 15.699219 64.566406 18.800781 67.734375 C 21.898438 70.933594 25.667969 72.632812 30.132812 72.867188 C 30.535156 72.867188 30.734375 72.667969 30.734375 72.265625 L 30.734375 67.832031 C 30.734375 67.433594 30.535156 67.234375 30.132812 67.234375 C 27.265625 67.101562 24.867188 65.964844 22.867188 63.832031 C 20.867188 61.699219 19.867188 59.199219 19.867188 56.300781 C 19.867188 53.535156 20.800781 51.132812 22.667969 49.066406 C 24.535156 47.035156 26.867188 45.832031 29.667969 45.5 L 31.398438 45.265625 C 31.832031 45.265625 32.066406 45.066406 32.066406 44.667969 L 32.332031 42.964844 C 32.699219 39.367188 34.199219 36.332031 36.898438 33.933594 C 39.601562 31.5 42.765625 30.300781 46.398438 30.300781 C 50.035156 30.300781 53.199219 31.535156 55.933594 33.964844 C 58.667969 36.398438 60.199219 39.398438 60.601562 43 L 60.832031 44.933594 C 60.832031 45.332031 61.035156 45.535156 61.433594 45.535156 L 66.832031 45.535156 C 69.867188 45.535156 72.433594 46.601562 74.566406 48.699219 C 76.699219 50.800781 77.765625 53.332031 77.765625 56.332031 C 77.765625 59.234375 76.765625 61.734375 74.765625 63.867188 C 72.765625 66 70.332031 67.132812 67.5 67.265625 C 67.066406 67.265625 66.867188 67.464844 66.867188 67.867188 L 66.867188 72.300781 C 66.867188 72.699219 67.066406 72.898438 67.5 72.898438 C 70.433594 72.800781 73.101562 72 75.535156 70.5 C 77.964844 69 79.898438 67 81.300781 64.5 C 82.699219 62 83.398438 59.265625 83.398438 56.367188 C 83.398438 53.898438 82.933594 51.667969 81.964844 49.667969 C 84.601562 46.464844 85.898438 42.800781 85.898438 38.601562 C 85.898438 35.464844 85.101562 32.535156 83.535156 29.867188 C 81.964844 27.167969 79.832031 25.035156 77.132812 23.464844 C 74.433594 21.898438 71.535156 21.101562 68.398438 21.101562 C 63.199219 21.101562 58.898438 23.035156 55.464844 26.867188 C 52.734375 25.398438 49.734375 24.667969 46.433594 24.667969 C 41.734375 24.667969 37.535156 26.132812 33.898438 29.066406 C 30.265625 32 27.898438 35.734375 26.867188 40.265625 C 23.199219 41.132812 20.167969 43.066406 17.765625 46.066406 C 15.367188 49.035156 14.167969 52.464844 14.167969 56.300781 Z M 32.066406 79.566406 C 32.367188 80.300781 32.867188 80.800781 33.601562 81.101562 C 34.265625 81.433594 34.964844 81.464844 35.667969 81.167969 C 36.398438 80.898438 36.867188 80.398438 37.167969 79.667969 C 37.464844 78.933594 37.464844 78.199219 37.199219 77.5 C 36.933594 76.765625 36.433594 76.265625 35.734375 75.933594 C 35.066406 75.667969 34.398438 75.667969 33.699219 75.964844 C 33 76.265625 32.5 76.734375 32.167969 77.398438 C 31.800781 77.964844 31.765625 78.699219 32.066406 79.566406 Z M 34.167969 70.132812 C 34.167969 70.667969 34.332031 71.167969 34.667969 71.667969 C 35 72.167969 35.535156 72.5 36.199219 72.699219 C 36.933594 72.933594 37.667969 72.867188 38.367188 72.5 C 39.066406 72.132812 39.535156 71.535156 39.800781 70.667969 L 43.066406 60.300781 C 43.300781 59.5 43.234375 58.734375 42.800781 58.066406 C 42.398438 57.398438 41.765625 56.964844 40.964844 56.800781 C 40.234375 56.566406 39.535156 56.632812 38.898438 57 C 38.234375 57.367188 37.800781 57.933594 37.566406 58.667969 L 34.234375 69.265625 Z M 40.367188 88.800781 C 40.367188 89.035156 40.433594 89.367188 40.566406 89.765625 C 40.867188 90.5 41.398438 91.035156 42.101562 91.265625 C 42.367188 91.433594 42.734375 91.535156 43.199219 91.535156 C 43.398438 91.535156 43.734375 91.464844 44.199219 91.332031 C 44.933594 91.066406 45.464844 90.566406 45.765625 89.832031 C 46.101562 89.101562 46.101562 88.367188 45.765625 87.632812 C 45.433594 86.898438 44.933594 86.398438 44.265625 86.101562 C 43.601562 85.800781 42.898438 85.800781 42.199219 86.066406 C 41.566406 86.332031 41.101562 86.734375 40.800781 87.265625 C 40.5 87.800781 40.367188 88.300781 40.367188 88.800781 Z M 42.832031 79.898438 C 42.832031 80.5 43 81 43.332031 81.5 C 43.667969 81.964844 44.199219 82.300781 44.933594 82.433594 C 45 82.433594 45.132812 82.464844 45.300781 82.5 C 45.464844 82.535156 45.632812 82.566406 45.734375 82.566406 C 47.167969 82.464844 48.066406 81.765625 48.433594 80.5 L 54.300781 60.265625 C 54.535156 59.464844 54.464844 58.734375 54.101562 58.101562 C 53.734375 57.464844 53.167969 57.035156 52.433594 56.800781 C 51.667969 56.566406 50.933594 56.632812 50.265625 57 C 49.601562 57.367188 49.167969 57.933594 48.933594 58.667969 L 42.933594 78.898438 C 42.933594 78.964844 42.933594 79.101562 42.898438 79.234375 C 42.867188 79.367188 42.867188 79.5 42.867188 79.601562 C 42.832031 79.734375 42.832031 79.832031 42.832031 79.898438 Z M 54.300781 78.566406 C 54.300781 78.898438 54.367188 79.265625 54.464844 79.632812 C 54.734375 80.332031 55.234375 80.832031 56 81.101562 C 56.300781 81.234375 56.699219 81.332031 57.199219 81.332031 C 57.601562 81.332031 57.933594 81.265625 58.167969 81.132812 C 58.933594 80.832031 59.433594 80.367188 59.699219 79.699219 C 59.964844 78.964844 59.964844 78.265625 59.699219 77.535156 C 59.433594 76.832031 58.964844 76.300781 58.300781 75.933594 C 57.566406 75.667969 56.832031 75.667969 56.132812 75.964844 C 55.398438 76.265625 54.898438 76.734375 54.566406 77.398438 C 54.398438 77.765625 54.300781 78.132812 54.300781 78.566406 Z M 56.699219 70.101562 C 56.699219 71.300781 57.398438 72.132812 58.765625 72.601562 C 59.234375 72.734375 59.566406 72.800781 59.765625 72.800781 C 60.167969 72.800781 60.535156 72.699219 60.898438 72.535156 C 61.464844 72.234375 61.933594 71.632812 62.234375 70.699219 L 65.5 60.332031 C 65.765625 59.566406 65.667969 58.832031 65.300781 58.199219 C 64.898438 57.535156 64.332031 57.101562 63.601562 56.867188 C 62.832031 56.632812 62.132812 56.699219 61.464844 57.066406 C 60.832031 57.433594 60.367188 58 60.132812 58.734375 L 56.867188 69.167969 C 56.734375 69.699219 56.699219 70.035156 56.699219 70.101562 Z M 60.132812 30.066406 C 62.433594 27.867188 65.167969 26.765625 68.398438 26.765625 C 71.632812 26.765625 74.433594 27.933594 76.734375 30.234375 C 79.035156 32.535156 80.199219 35.332031 80.199219 38.566406 C 80.199219 40.632812 79.632812 42.667969 78.464844 44.699219 C 75.199219 41.433594 71.332031 39.800781 66.832031 39.800781 L 65.734375 39.800781 C 64.699219 35.933594 62.832031 32.699219 60.132812 30.066406 Z M 60.132812 30.066406 "/>
</g>
</svg>
