<?xml version="1.0" encoding="UTF-8"?>
<svg xmlns="http://www.w3.org/2000/svg" xmlns:xlink="http://www.w3.org/1999/xlink" width="100px" height="100px" viewBox="0 0 100 100" version="1.1">
<g id="surface1">
<path style=" stroke:none;fill-rule:nonzero;fill:rgb(0%,0%,0%);fill-opacity:1;" d="M 14.265625 56.300781 C 14.265625 60 15.367188 63.332031 17.566406 66.234375 C 19.765625 69.132812 22.632812 71.101562 26.101562 72.066406 L 23.964844 77.667969 C 23.800781 78.132812 23.964844 78.398438 24.433594 78.398438 L 31.5 78.398438 L 28.035156 92.367188 L 28.964844 92.367188 L 42.199219 73.632812 C 42.332031 73.5 42.332031 73.332031 42.234375 73.167969 C 42.132812 73 41.964844 72.933594 41.734375 72.933594 L 34.5 72.933594 L 42.734375 57.566406 C 42.964844 57.101562 42.800781 56.832031 42.265625 56.832031 L 32.464844 56.832031 C 32.167969 56.832031 31.933594 57 31.699219 57.300781 L 28.132812 66.867188 C 25.765625 66.300781 23.800781 65 22.234375 63.066406 C 20.667969 61.132812 19.898438 58.867188 19.898438 56.332031 C 19.898438 53.566406 20.832031 51.167969 22.699219 49.132812 C 24.566406 47.101562 26.898438 45.933594 29.699219 45.601562 L 31.464844 45.464844 C 31.867188 45.464844 32.066406 45.265625 32.066406 44.867188 L 32.300781 43.101562 C 32.535156 40.734375 33.300781 38.601562 34.601562 36.632812 C 35.898438 34.699219 37.601562 33.167969 39.667969 32.066406 C 41.734375 30.964844 43.964844 30.398438 46.367188 30.398438 C 49.964844 30.398438 53.132812 31.632812 55.832031 34.066406 C 58.535156 36.5 60.066406 39.5 60.464844 43.101562 L 60.734375 44.964844 C 60.734375 45.367188 60.933594 45.601562 61.300781 45.601562 L 66.699219 45.601562 C 69.667969 45.601562 72.199219 46.667969 74.367188 48.800781 C 76.535156 50.933594 77.601562 53.433594 77.601562 56.367188 C 77.601562 59.234375 76.601562 61.734375 74.601562 63.867188 C 72.601562 66 70.167969 67.101562 67.332031 67.265625 C 66.898438 67.265625 66.667969 67.464844 66.667969 67.867188 L 66.667969 72.332031 C 66.667969 72.699219 66.898438 72.898438 67.332031 72.898438 C 70.234375 72.832031 72.898438 72.035156 75.332031 70.5 C 77.765625 69 79.699219 67 81.066406 64.5 C 82.433594 62 83.167969 59.300781 83.167969 56.398438 C 83.167969 53.964844 82.699219 51.734375 81.765625 49.699219 C 84.367188 46.601562 85.667969 42.933594 85.667969 38.667969 C 85.667969 36.300781 85.199219 34.066406 84.265625 31.933594 C 83.332031 29.800781 82.101562 27.933594 80.535156 26.367188 C 78.964844 24.800781 77.132812 23.566406 74.964844 22.632812 C 72.832031 21.699219 70.566406 21.234375 68.234375 21.234375 C 63.101562 21.234375 58.800781 23.167969 55.367188 27 C 52.667969 25.566406 49.667969 24.832031 46.367188 24.832031 C 41.667969 24.832031 37.5 26.300781 33.867188 29.199219 C 30.234375 32.101562 27.898438 35.832031 26.867188 40.367188 C 23.199219 41.234375 20.167969 43.132812 17.765625 46.132812 C 15.367188 49.132812 14.265625 52.464844 14.265625 56.300781 Z M 40.699219 89.234375 C 40.699219 89.765625 40.867188 90.300781 41.199219 90.765625 C 41.535156 91.234375 42.035156 91.601562 42.699219 91.800781 L 43.535156 91.898438 C 44.933594 91.898438 45.800781 91.234375 46.199219 89.898438 L 54.300781 60.265625 C 54.5 59.5 54.433594 58.765625 54.066406 58.132812 C 53.699219 57.464844 53.167969 57.035156 52.433594 56.800781 C 51.667969 56.566406 50.933594 56.632812 50.265625 57 C 49.601562 57.367188 49.132812 57.933594 48.933594 58.667969 L 40.765625 88.332031 C 40.734375 88.898438 40.699219 89.199219 40.699219 89.234375 Z M 54.5 79.132812 C 54.5 80.464844 55.199219 81.367188 56.566406 81.800781 C 57.132812 81.867188 57.433594 81.898438 57.433594 81.898438 C 57.800781 81.898438 58.199219 81.832031 58.601562 81.632812 C 59.265625 81.332031 59.734375 80.734375 60 79.800781 L 65.464844 60.300781 C 65.667969 59.535156 65.601562 58.800781 65.199219 58.167969 C 64.832031 57.5 64.265625 57.066406 63.5 56.832031 C 62.734375 56.601562 62 56.667969 61.332031 57.035156 C 60.667969 57.398438 60.234375 57.964844 60.035156 58.699219 L 54.632812 78.332031 C 54.566406 78.800781 54.5 79.066406 54.5 79.132812 Z M 60.066406 30.132812 C 62.332031 28 65.066406 26.933594 68.332031 26.933594 C 71.566406 26.933594 74.332031 28.066406 76.601562 30.332031 C 78.898438 32.601562 80.035156 35.367188 80.035156 38.601562 C 80.035156 40.699219 79.464844 42.765625 78.332031 44.765625 C 75.132812 41.566406 71.265625 39.964844 66.734375 39.964844 L 65.667969 39.964844 C 64.734375 36.132812 62.867188 32.867188 60.066406 30.132812 Z M 60.066406 30.132812 "/>
</g>
</svg>
