<?xml version="1.0" encoding="UTF-8"?>
<svg xmlns="http://www.w3.org/2000/svg" xmlns:xlink="http://www.w3.org/1999/xlink" width="100px" height="100px" viewBox="0 0 100 100" version="1.1">
<g id="surface1">
<path style=" stroke:none;fill-rule:nonzero;fill:rgb(0%,0%,0%);fill-opacity:1;" d="M 14.101562 56.632812 L 14.101562 56.566406 C 14.101562 52.699219 15.300781 49.265625 17.699219 46.265625 C 20.101562 43.265625 23.167969 41.300781 26.832031 40.464844 C 27.867188 35.898438 30.199219 32.167969 33.832031 29.234375 C 37.464844 26.300781 41.667969 24.832031 46.398438 24.832031 C 49.699219 24.832031 52.734375 25.566406 55.464844 27.035156 C 57.132812 25.265625 59.101562 23.867188 61.332031 22.867188 C 63.566406 21.867188 65.898438 21.367188 68.300781 21.367188 C 71.464844 21.367188 74.398438 22.167969 77.101562 23.734375 C 79.800781 25.300781 81.933594 27.433594 83.5 30.132812 C 85.066406 32.832031 85.867188 35.765625 85.867188 38.933594 C 85.867188 43.035156 84.601562 46.699219 82.066406 49.898438 C 83.035156 51.933594 83.5 54.167969 83.5 56.632812 C 83.5 59.566406 82.800781 62.300781 81.367188 64.800781 C 79.964844 67.300781 78.035156 69.332031 75.566406 70.832031 C 73.132812 72.332031 70.433594 73.132812 67.5 73.234375 C 67.066406 73.234375 66.832031 73.035156 66.832031 72.667969 L 66.832031 68.199219 C 66.832031 67.800781 67.066406 67.601562 67.5 67.601562 C 70.367188 67.464844 72.765625 66.300781 74.765625 64.167969 C 76.765625 62.035156 77.765625 59.5 77.765625 56.632812 C 77.765625 53.667969 76.699219 51.132812 74.535156 49 C 72.398438 46.867188 69.832031 45.800781 66.832031 45.800781 L 61.464844 45.800781 C 61.066406 45.800781 60.867188 45.601562 60.867188 45.199219 L 60.601562 43.234375 C 60.234375 39.632812 58.667969 36.601562 55.933594 34.167969 C 53.199219 31.734375 50 30.5 46.398438 30.5 C 42.734375 30.5 39.566406 31.734375 36.867188 34.167969 C 34.167969 36.601562 32.632812 39.632812 32.300781 43.234375 L 32.035156 45.199219 C 31.933594 45.5 31.667969 45.667969 31.300781 45.667969 L 29.601562 45.800781 C 26.800781 46.132812 24.433594 47.300781 22.566406 49.332031 C 20.699219 51.367188 19.765625 53.800781 19.765625 56.601562 L 19.765625 56.734375 C 19.800781 56.765625 19.832031 56.800781 19.867188 56.800781 C 19.898438 59.632812 20.898438 62.101562 22.867188 64.199219 C 23.800781 65.167969 24.832031 65.933594 25.933594 66.433594 L 25.933594 66.5 C 27.199219 67.132812 28.566406 67.535156 30.066406 67.632812 C 30.433594 67.632812 30.632812 67.832031 30.632812 68.199219 L 30.632812 72.667969 C 30.632812 73.035156 30.433594 73.234375 30.066406 73.234375 C 28.433594 73.167969 26.832031 72.832031 25.300781 72.265625 C 22.765625 71.367188 20.566406 70 18.734375 68.066406 C 16.898438 66.132812 15.566406 63.933594 14.800781 61.398438 C 14.332031 59.832031 14.101562 58.265625 14.101562 56.632812 Z M 32.433594 80.535156 C 32.433594 80.433594 32.464844 80.300781 32.5 80.101562 C 32.535156 79.898438 32.566406 79.765625 32.566406 79.699219 L 32.867188 77.765625 C 33.101562 76.964844 33.566406 76.367188 34.234375 76 C 34.933594 75.601562 35.667969 75.5 36.5 75.734375 C 37.265625 75.964844 37.800781 76.433594 38.199219 77.101562 C 38.566406 77.800781 38.632812 78.5 38.433594 79.199219 L 37.964844 81.199219 C 37.632812 82.667969 36.800781 83.398438 35.433594 83.398438 C 35.332031 83.398438 35.167969 83.398438 34.933594 83.367188 C 34.699219 83.332031 34.566406 83.332031 34.5 83.332031 C 33.800781 83.132812 33.300781 82.765625 32.964844 82.234375 C 32.601562 81.632812 32.433594 81.101562 32.433594 80.535156 Z M 34.898438 70.699219 C 34.898438 69.898438 35.167969 69.265625 35.667969 68.734375 C 36.167969 68.199219 36.832031 67.964844 37.632812 67.964844 C 38.433594 67.964844 39.066406 68.234375 39.601562 68.734375 C 40.132812 69.234375 40.367188 69.898438 40.367188 70.699219 C 40.367188 71.464844 40.101562 72.132812 39.601562 72.632812 C 39.101562 73.132812 38.433594 73.398438 37.632812 73.398438 C 36.867188 73.398438 36.234375 73.132812 35.734375 72.601562 C 35.199219 72.066406 34.898438 71.433594 34.898438 70.699219 Z M 40.367188 90.632812 C 40.367188 90.5 40.398438 90.265625 40.5 89.867188 L 40.933594 87.898438 C 41.167969 87.132812 41.632812 86.601562 42.300781 86.199219 C 43 85.832031 43.699219 85.765625 44.398438 85.964844 C 45.167969 86.101562 45.765625 86.535156 46.167969 87.199219 C 46.566406 87.867188 46.667969 88.632812 46.433594 89.464844 L 46 91.398438 C 45.632812 92.765625 44.765625 93.464844 43.332031 93.464844 C 43.167969 93.464844 42.898438 93.433594 42.535156 93.332031 C 41.800781 93.132812 41.265625 92.765625 40.898438 92.234375 C 40.535156 91.699219 40.367188 91.199219 40.367188 90.632812 Z M 43 80.933594 C 43 80.167969 43.265625 79.535156 43.765625 79 C 44.300781 78.5 44.933594 78.234375 45.734375 78.234375 C 46.535156 78.234375 47.167969 78.5 47.699219 79 C 48.234375 79.5 48.464844 80.167969 48.464844 80.933594 C 48.464844 81.734375 48.199219 82.367188 47.699219 82.898438 C 47.167969 83.433594 46.535156 83.667969 45.734375 83.667969 C 44.964844 83.667969 44.332031 83.398438 43.800781 82.867188 C 43.265625 82.332031 43 81.699219 43 80.933594 Z M 45.066406 73.367188 C 45.066406 73.066406 45.101562 72.765625 45.167969 72.5 L 45.933594 69.5 C 46.167969 68.699219 46.632812 68.101562 47.300781 67.734375 C 47.964844 67.367188 48.699219 67.234375 49.433594 67.464844 C 50.234375 67.699219 50.800781 68.132812 51.199219 68.800781 C 51.601562 69.464844 51.667969 70.167969 51.433594 70.898438 L 50.566406 73.898438 C 50.300781 74.800781 49.832031 75.433594 49.199219 75.765625 C 48.566406 76.101562 47.832031 76.167969 47.066406 75.964844 C 46.398438 75.832031 45.898438 75.5 45.566406 74.964844 C 45.167969 74.398438 45.035156 73.867188 45.066406 73.367188 Z M 54.265625 80.535156 C 54.265625 80.433594 54.265625 80.265625 54.300781 80.066406 C 54.332031 79.867188 54.332031 79.734375 54.332031 79.699219 L 54.632812 77.765625 C 54.867188 76.964844 55.332031 76.367188 56 76 C 56.699219 75.601562 57.433594 75.5 58.234375 75.734375 C 59 75.964844 59.566406 76.433594 59.933594 77.101562 C 60.332031 77.800781 60.398438 78.5 60.167969 79.199219 L 59.699219 81.199219 C 59.367188 82.667969 58.535156 83.398438 57.167969 83.398438 C 57.066406 83.398438 56.898438 83.398438 56.667969 83.367188 C 56.433594 83.332031 56.300781 83.332031 56.234375 83.332031 C 55.566406 83.132812 55.066406 82.765625 54.734375 82.234375 C 54.398438 81.699219 54.265625 81.101562 54.265625 80.535156 Z M 56.734375 70.699219 C 56.734375 69.898438 57 69.265625 57.5 68.734375 C 58 68.199219 58.667969 67.964844 59.464844 67.964844 C 60.265625 67.964844 60.898438 68.234375 61.433594 68.734375 C 61.964844 69.265625 62.199219 69.898438 62.199219 70.699219 C 62.199219 71.464844 61.933594 72.132812 61.433594 72.632812 C 60.898438 73.167969 60.265625 73.398438 59.464844 73.398438 C 58.667969 73.398438 58.035156 73.132812 57.535156 72.601562 C 57.035156 72.101562 56.734375 71.464844 56.734375 70.699219 Z M 60.199219 30.332031 C 63 32.867188 64.867188 36.132812 65.867188 40.101562 L 66.898438 40.101562 C 71.5 40.101562 75.398438 41.699219 78.632812 44.898438 C 79.667969 43.066406 80.199219 41.066406 80.199219 38.867188 C 80.199219 35.601562 79.035156 32.832031 76.734375 30.535156 C 74.433594 28.265625 71.632812 27.101562 68.367188 27.101562 C 65.132812 27.132812 62.433594 28.199219 60.199219 30.332031 Z M 60.199219 30.332031 "/>
</g>
</svg>
