<?xml version="1.0" encoding="UTF-8"?>
<svg xmlns="http://www.w3.org/2000/svg" xmlns:xlink="http://www.w3.org/1999/xlink" width="100px" height="100px" viewBox="0 0 100 100" version="1.1">
<g id="surface1">
<path style=" stroke:none;fill-rule:nonzero;fill:rgb(0%,0%,0%);fill-opacity:1;" d="M 15.5 56.535156 C 15.5 60.933594 17.066406 64.734375 20.167969 67.898438 C 23.265625 71.101562 27.035156 72.765625 31.433594 72.898438 C 31.832031 72.898438 32.035156 72.699219 32.035156 72.332031 L 32.035156 67.898438 C 32.035156 67.5 31.832031 67.300781 31.433594 67.300781 C 28.632812 67.167969 26.199219 66.035156 24.199219 63.898438 C 22.199219 61.765625 21.167969 59.332031 21.167969 56.5 C 21.167969 53.699219 22.101562 51.265625 24 49.199219 C 25.898438 47.132812 28.199219 45.964844 31 45.734375 L 32.765625 45.5 C 33.167969 45.5 33.398438 45.300781 33.398438 44.898438 L 33.632812 43.234375 C 33.964844 39.601562 35.464844 36.535156 38.167969 34.066406 C 40.867188 31.601562 44.035156 30.367188 47.699219 30.367188 C 51.300781 30.367188 54.464844 31.601562 57.167969 34.035156 C 59.867188 36.464844 61.433594 39.464844 61.832031 43.066406 L 62.066406 45 C 62.066406 45.398438 62.265625 45.601562 62.699219 45.601562 L 68.035156 45.601562 C 71.035156 45.601562 73.601562 46.667969 75.765625 48.832031 C 77.898438 50.964844 79 53.535156 79 56.5 C 79 59.300781 78 61.765625 76 63.898438 C 74 66 71.566406 67.132812 68.734375 67.300781 C 68.300781 67.300781 68.066406 67.5 68.066406 67.898438 L 68.066406 72.332031 C 68.066406 72.699219 68.300781 72.898438 68.734375 72.898438 C 73.167969 72.765625 76.933594 71.101562 80 67.898438 C 83.066406 64.699219 84.601562 60.933594 84.601562 56.5 C 84.601562 53.535156 83.867188 50.765625 82.367188 48.234375 C 80.898438 45.699219 78.867188 43.699219 76.332031 42.234375 C 73.800781 40.765625 71.035156 40.035156 68.066406 40.035156 L 67.035156 40.035156 C 65.933594 35.566406 63.601562 31.933594 60 29.066406 C 56.433594 26.234375 52.332031 24.800781 47.734375 24.800781 C 43.035156 24.800781 38.867188 26.265625 35.234375 29.167969 C 31.601562 32.066406 29.265625 35.800781 28.234375 40.332031 C 24.464844 41.300781 21.433594 43.265625 19.066406 46.234375 C 16.699219 49.199219 15.5 52.667969 15.5 56.535156 Z M 33.5 79.933594 C 33.5 80.5 33.667969 81.066406 34.035156 81.632812 C 34.398438 82.199219 34.933594 82.566406 35.601562 82.800781 C 36.367188 83.035156 37.066406 83 37.734375 82.667969 C 38.367188 82.367188 38.832031 81.734375 39.035156 80.800781 L 39.5 78.765625 C 39.667969 78 39.566406 77.300781 39.199219 76.667969 C 38.832031 76.035156 38.265625 75.566406 37.464844 75.332031 C 36.734375 75.101562 36 75.199219 35.332031 75.601562 C 34.667969 76 34.199219 76.601562 34 77.367188 L 33.535156 79.332031 C 33.535156 79.433594 33.5 79.632812 33.5 79.933594 Z M 36.035156 70.265625 C 36.035156 70.964844 36.300781 71.601562 36.867188 72.167969 C 37.398438 72.734375 38 73 38.734375 73 C 39.535156 73 40.199219 72.734375 40.734375 72.199219 C 41.265625 71.667969 41.535156 71.035156 41.535156 70.234375 C 41.535156 69.464844 41.265625 68.800781 40.734375 68.265625 C 40.199219 67.734375 39.535156 67.464844 38.734375 67.464844 C 37.964844 67.464844 37.332031 67.734375 36.800781 68.234375 C 36.300781 68.832031 36.035156 69.5 36.035156 70.265625 Z M 38.066406 62.699219 C 38.035156 63.234375 38.167969 63.734375 38.535156 64.199219 C 38.867188 64.699219 39.398438 65.035156 40.132812 65.265625 C 40.832031 65.464844 41.5 65.398438 42.199219 65.035156 C 42.898438 64.667969 43.332031 64.101562 43.566406 63.332031 L 44.5 60.332031 C 44.734375 59.535156 44.667969 58.800781 44.265625 58.167969 C 43.867188 57.535156 43.265625 57.101562 42.464844 56.867188 C 41.734375 56.632812 41.035156 56.699219 40.367188 57.101562 C 39.699219 57.464844 39.234375 58.035156 39 58.765625 L 38.199219 61.832031 C 38.199219 61.898438 38.167969 62.035156 38.132812 62.234375 C 38.101562 62.398438 38.066406 62.566406 38.066406 62.699219 Z M 41.964844 90.332031 C 41.964844 90.933594 42.132812 91.464844 42.464844 92 C 42.800781 92.535156 43.332031 92.898438 44.066406 93.101562 C 44.332031 93.167969 44.632812 93.199219 44.898438 93.199219 C 46.332031 93.199219 47.199219 92.535156 47.535156 91.167969 L 48 89.199219 C 48.199219 88.332031 48.101562 87.601562 47.734375 86.933594 C 47.332031 86.265625 46.765625 85.867188 46 85.699219 C 45.300781 85.464844 44.601562 85.535156 43.898438 85.933594 C 43.199219 86.332031 42.765625 86.898438 42.535156 87.632812 L 42.066406 89.601562 C 42 89.898438 41.964844 90.132812 41.964844 90.332031 Z M 44.535156 80.667969 C 44.535156 81.398438 44.800781 82.035156 45.367188 82.601562 C 45.898438 83.132812 46.535156 83.398438 47.265625 83.398438 C 48.066406 83.398438 48.699219 83.132812 49.234375 82.632812 C 49.765625 82.101562 50 81.464844 50 80.667969 C 50 79.898438 49.734375 79.265625 49.234375 78.734375 C 48.699219 78.199219 48.066406 77.964844 47.265625 77.964844 C 46.464844 77.964844 45.832031 78.234375 45.300781 78.734375 C 44.765625 79.234375 44.535156 79.898438 44.535156 80.667969 Z M 46.632812 73.101562 C 46.601562 73.601562 46.734375 74.132812 47.066406 74.667969 C 47.398438 75.199219 47.898438 75.535156 48.566406 75.667969 C 49.332031 75.867188 50.035156 75.800781 50.699219 75.464844 C 51.367188 75.132812 51.800781 74.5 52.066406 73.601562 L 52.964844 70.601562 C 53.199219 69.867188 53.132812 69.167969 52.734375 68.5 C 52.332031 67.832031 51.765625 67.398438 50.964844 67.167969 C 50.234375 66.933594 49.535156 67.035156 48.832031 67.433594 C 48.132812 67.832031 47.699219 68.433594 47.464844 69.199219 L 46.699219 72.199219 C 46.667969 72.464844 46.632812 72.765625 46.632812 73.101562 Z M 55.832031 80.265625 C 55.832031 80.800781 56 81.332031 56.332031 81.867188 C 56.667969 82.398438 57.199219 82.765625 57.867188 82.964844 C 57.964844 82.964844 58.132812 83 58.332031 83.035156 C 58.535156 83.066406 58.667969 83.101562 58.800781 83.101562 C 60.167969 83.101562 61 82.367188 61.332031 80.898438 L 61.800781 78.898438 C 62.035156 78.199219 61.964844 77.5 61.566406 76.800781 C 61.199219 76.101562 60.632812 75.667969 59.867188 75.433594 C 59.035156 75.234375 58.265625 75.300781 57.601562 75.699219 C 56.933594 76.101562 56.464844 76.667969 56.234375 77.464844 L 55.933594 79.433594 C 55.933594 79.5 55.898438 79.667969 55.867188 79.832031 C 55.832031 80 55.832031 80.132812 55.832031 80.265625 Z M 58.300781 70.398438 C 58.300781 71.132812 58.566406 71.800781 59.132812 72.300781 C 59.632812 72.832031 60.265625 73.101562 61.035156 73.101562 C 61.832031 73.101562 62.464844 72.832031 63 72.332031 C 63.535156 71.832031 63.765625 71.167969 63.765625 70.398438 C 63.765625 69.601562 63.5 68.964844 63 68.433594 C 62.5 67.898438 61.832031 67.667969 61.035156 67.667969 C 60.234375 67.667969 59.601562 67.933594 59.066406 68.433594 C 58.566406 68.964844 58.300781 69.601562 58.300781 70.398438 Z M 60.332031 62.699219 C 60.332031 63.265625 60.5 63.800781 60.867188 64.300781 C 61.234375 64.800781 61.765625 65.167969 62.5 65.367188 C 62.566406 65.367188 62.699219 65.398438 62.898438 65.433594 C 63.101562 65.464844 63.265625 65.5 63.367188 65.5 C 63.699219 65.5 64.101562 65.398438 64.566406 65.199219 C 65.265625 64.832031 65.734375 64.234375 65.933594 63.464844 L 66.734375 60.464844 C 66.933594 59.699219 66.867188 59 66.464844 58.367188 C 66.101562 57.699219 65.535156 57.265625 64.765625 57.035156 C 64 56.800781 63.300781 56.867188 62.632812 57.234375 C 62 57.601562 61.535156 58.132812 61.332031 58.933594 L 60.398438 61.964844 C 60.398438 62.035156 60.367188 62.167969 60.332031 62.367188 C 60.332031 62.464844 60.332031 62.601562 60.332031 62.699219 Z M 60.332031 62.699219 "/>
</g>
</svg>
