<?xml version="1.0" encoding="UTF-8"?>
<svg xmlns="http://www.w3.org/2000/svg" xmlns:xlink="http://www.w3.org/1999/xlink" width="100px" height="100px" viewBox="0 0 100 100" version="1.1">
<g id="surface1">
<path style=" stroke:none;fill-rule:nonzero;fill:rgb(0%,0%,0%);fill-opacity:1;" d="M 15.433594 56.433594 C 15.433594 60.167969 16.535156 63.464844 18.699219 66.398438 C 20.867188 69.300781 23.699219 71.300781 27.199219 72.367188 C 27.5 72.433594 27.765625 72.332031 28 72.101562 L 31.867188 67.332031 C 28.898438 67.332031 26.367188 66.265625 24.265625 64.132812 C 22.167969 62 21.101562 59.433594 21.101562 56.433594 C 21.101562 53.632812 22.035156 51.167969 23.898438 49.101562 C 25.765625 47.035156 28.101562 45.867188 30.898438 45.632812 L 32.667969 45.398438 C 33.035156 45.398438 33.199219 45.265625 33.199219 44.964844 L 33.464844 43.132812 C 33.867188 39.464844 35.433594 36.433594 38.101562 34.035156 C 40.765625 31.632812 43.933594 30.433594 47.601562 30.433594 C 51.265625 30.433594 54.464844 31.632812 57.167969 34.066406 C 59.898438 36.5 61.398438 39.535156 61.734375 43.132812 L 61.964844 45.066406 C 62.035156 45.433594 62.300781 45.632812 62.699219 45.632812 L 68.101562 45.632812 C 71.101562 45.632812 73.667969 46.699219 75.765625 48.800781 C 77.867188 50.898438 78.933594 53.433594 78.933594 56.433594 C 78.933594 59.199219 78 61.632812 76.132812 63.699219 C 74.265625 65.765625 71.964844 66.964844 69.234375 67.300781 C 68.832031 67.300781 68.300781 67.367188 67.601562 67.5 C 66.964844 67.566406 66.5 67.800781 66.234375 68.265625 L 58.367188 77.566406 C 57.898438 78.167969 57.699219 78.867188 57.832031 79.667969 C 57.933594 80.464844 58.300781 81.101562 58.867188 81.566406 C 59.234375 81.964844 59.832031 82.199219 60.734375 82.199219 C 61.601562 82.199219 62.300781 81.800781 62.765625 81.035156 L 69.832031 72.898438 C 73.964844 72.464844 77.464844 70.699219 80.332031 67.535156 C 83.199219 64.367188 84.601562 60.667969 84.601562 56.433594 C 84.601562 54.199219 84.167969 52.035156 83.300781 50 C 82.433594 47.964844 81.265625 46.199219 79.800781 44.734375 C 78.332031 43.265625 76.566406 42.101562 74.535156 41.234375 C 72.5 40.367188 70.367188 39.933594 68.101562 39.933594 L 67.035156 39.933594 C 65.933594 35.535156 63.566406 31.898438 59.964844 29.066406 C 56.367188 26.234375 52.234375 24.832031 47.566406 24.832031 C 44.464844 24.832031 41.535156 25.5 38.800781 26.832031 C 36.066406 28.167969 33.765625 30 31.867188 32.367188 C 29.964844 34.734375 28.734375 37.433594 28.101562 40.433594 C 24.367188 41.265625 21.300781 43.167969 18.933594 46.167969 C 16.601562 49.132812 15.433594 52.566406 15.433594 56.433594 Z M 26.699219 83.167969 C 26.699219 83.367188 26.765625 83.699219 26.898438 84.167969 C 27.199219 84.867188 27.667969 85.367188 28.367188 85.632812 C 29.101562 85.964844 29.832031 86 30.601562 85.699219 C 31.367188 85.398438 31.867188 84.898438 32.132812 84.199219 C 32.464844 83.464844 32.5 82.765625 32.199219 82.035156 C 31.898438 81.332031 31.398438 80.832031 30.667969 80.601562 C 29.933594 80.234375 29.199219 80.199219 28.5 80.5 C 27.800781 80.800781 27.300781 81.300781 26.964844 82.066406 C 26.800781 82.398438 26.699219 82.765625 26.699219 83.167969 Z M 32.867188 75.035156 L 32.867188 75.367188 C 32.933594 76.132812 33.265625 76.734375 33.867188 77.234375 C 34.632812 77.667969 35.300781 77.867188 35.933594 77.867188 C 36.667969 77.867188 37.367188 77.5 37.964844 76.765625 L 45.699219 67.535156 C 46.167969 66.964844 46.398438 66.234375 46.367188 65.332031 C 46.300781 64.632812 45.964844 64.035156 45.433594 63.566406 C 44.898438 63.101562 44.332031 62.832031 43.699219 62.832031 C 43.5 62.832031 43.367188 62.832031 43.234375 62.867188 C 42.464844 63 41.832031 63.367188 41.367188 63.964844 L 33.5 73.199219 C 33.066406 73.734375 32.867188 74.332031 32.867188 75.035156 Z M 35.433594 90.765625 C 35.433594 91.167969 35.535156 91.535156 35.699219 91.832031 C 35.964844 92.535156 36.464844 93.066406 37.167969 93.398438 C 37.535156 93.566406 37.898438 93.632812 38.265625 93.632812 C 38.667969 93.632812 39.035156 93.566406 39.300781 93.398438 C 40.066406 93.101562 40.601562 92.632812 40.867188 92.035156 C 41.199219 91.300781 41.234375 90.566406 40.933594 89.800781 C 40.667969 89.035156 40.167969 88.535156 39.433594 88.265625 C 38.699219 87.933594 37.964844 87.898438 37.199219 88.199219 C 36.433594 88.5 35.933594 89 35.699219 89.699219 C 35.5 90 35.433594 90.367188 35.433594 90.765625 Z M 41 82.933594 L 41 83.300781 C 41.066406 84.035156 41.433594 84.632812 42.035156 85.132812 C 42.632812 85.632812 43.265625 85.867188 43.867188 85.867188 C 44.632812 85.867188 45.300781 85.5 45.964844 84.765625 L 60.464844 67.300781 C 60.832031 66.898438 61.035156 66.300781 61.035156 65.566406 L 61.035156 65.167969 C 60.964844 64.398438 60.632812 63.832031 60.132812 63.398438 C 59.632812 62.964844 59.035156 62.734375 58.398438 62.734375 L 57.964844 62.734375 C 57.199219 62.765625 56.566406 63.132812 56.132812 63.765625 L 41.632812 81.101562 C 41.167969 81.699219 41 82.300781 41 82.933594 Z M 52.699219 86.765625 C 52.699219 87.066406 52.765625 87.398438 52.898438 87.765625 C 53.199219 88.5 53.699219 89.035156 54.433594 89.332031 C 54.898438 89.464844 55.234375 89.535156 55.464844 89.535156 C 55.933594 89.535156 56.332031 89.433594 56.601562 89.265625 C 57.332031 88.964844 57.867188 88.5 58.132812 87.867188 C 58.464844 87.300781 58.5 86.566406 58.199219 85.632812 C 57.933594 84.933594 57.433594 84.464844 56.734375 84.167969 L 55.535156 83.867188 C 55.234375 83.933594 54.898438 84 54.464844 84.101562 C 53.734375 84.367188 53.234375 84.867188 52.964844 85.566406 C 52.800781 86 52.699219 86.398438 52.699219 86.765625 Z M 52.699219 86.765625 "/>
</g>
</svg>
