<?xml version="1.0" encoding="UTF-8"?>
<svg xmlns="http://www.w3.org/2000/svg" xmlns:xlink="http://www.w3.org/1999/xlink" width="100px" height="100px" viewBox="0 0 100 100" version="1.1">
<g id="surface1">
<path style=" stroke:none;fill-rule:nonzero;fill:rgb(0%,0%,0%);fill-opacity:1;" d="M 15.464844 56.367188 C 15.464844 52.535156 16.667969 49.132812 19.066406 46.132812 C 21.464844 43.132812 24.5 41.234375 28.167969 40.367188 C 29.199219 35.832031 31.566406 32.101562 35.199219 29.167969 C 38.832031 26.234375 43 24.800781 47.699219 24.800781 C 52.300781 24.800781 56.367188 26.234375 59.964844 29.066406 C 63.566406 31.898438 65.898438 35.566406 66.964844 40.035156 L 68.035156 40.035156 C 71 40.035156 73.765625 40.765625 76.300781 42.199219 C 78.832031 43.632812 80.867188 45.632812 82.332031 48.132812 C 83.800781 50.632812 84.566406 53.398438 84.566406 56.367188 C 84.566406 59.300781 83.867188 62 82.464844 64.5 C 81.066406 67 79.132812 69 76.699219 70.5 C 74.265625 72 71.601562 72.800781 68.699219 72.867188 C 68.265625 72.867188 68.035156 72.667969 68.035156 72.300781 L 68.035156 67.867188 C 68.035156 67.464844 68.265625 67.265625 68.699219 67.265625 C 71.535156 67.132812 73.964844 66 75.964844 63.867188 C 77.964844 61.734375 78.964844 59.234375 78.964844 56.332031 C 78.964844 53.433594 77.867188 50.933594 75.699219 48.800781 C 73.535156 46.667969 70.964844 45.601562 68 45.601562 L 62.632812 45.601562 C 62.234375 45.601562 62.035156 45.398438 62.035156 45.035156 L 61.765625 43.101562 C 61.398438 39.5 59.832031 36.464844 57.132812 34.066406 C 54.398438 31.632812 51.265625 30.433594 47.632812 30.433594 C 44 30.433594 40.800781 31.632812 38.132812 34.066406 C 35.433594 36.5 33.933594 39.5 33.601562 43.101562 L 33.367188 44.867188 C 33.367188 45.265625 33.132812 45.5 32.699219 45.5 L 30.933594 45.601562 C 28.167969 45.933594 25.832031 47.132812 23.933594 49.167969 C 22.035156 51.199219 21.101562 53.601562 21.101562 56.367188 C 21.101562 59.265625 22.101562 61.765625 24.101562 63.898438 C 26.101562 66.035156 28.535156 67.167969 31.367188 67.300781 C 31.734375 67.300781 31.933594 67.5 31.933594 67.898438 L 31.933594 72.332031 C 31.933594 72.699219 31.734375 72.898438 31.367188 72.898438 C 26.898438 72.699219 23.132812 71 20.035156 67.800781 C 16.933594 64.601562 15.464844 60.800781 15.464844 56.367188 Z M 33.300781 78.667969 C 33.300781 78.535156 33.332031 78.300781 33.433594 78 L 38.867188 58.765625 C 39.066406 58.132812 39.433594 57.632812 39.933594 57.300781 C 40.433594 56.964844 40.964844 56.800781 41.464844 56.800781 C 41.699219 56.800781 41.964844 56.832031 42.265625 56.898438 C 43.066406 57.035156 43.667969 57.464844 44.066406 58.132812 C 44.464844 58.800781 44.566406 59.535156 44.332031 60.367188 L 38.898438 79.464844 C 38.5 80.898438 37.566406 81.601562 36.167969 81.601562 C 36.035156 81.601562 35.933594 81.566406 35.800781 81.535156 C 35.601562 81.464844 35.5 81.433594 35.464844 81.433594 C 34.734375 81.234375 34.199219 80.867188 33.832031 80.332031 C 33.464844 79.765625 33.300781 79.234375 33.300781 78.667969 Z M 42.035156 88.035156 L 50.167969 58.800781 C 50.300781 58.167969 50.632812 57.667969 51.167969 57.332031 C 51.699219 57 52.234375 56.832031 52.800781 56.832031 C 53.101562 56.832031 53.398438 56.867188 53.699219 56.933594 C 54.433594 57.132812 54.964844 57.566406 55.332031 58.234375 C 55.699219 58.898438 55.765625 59.601562 55.566406 60.367188 L 47.464844 89.632812 C 47.332031 90.199219 47.035156 90.667969 46.5 91.066406 C 45.964844 91.464844 45.433594 91.667969 44.800781 91.667969 C 44.5 91.667969 44.199219 91.601562 43.964844 91.5 C 43.300781 91.332031 42.734375 90.898438 42.234375 90.199219 C 41.867188 89.601562 41.800781 88.898438 42.035156 88.035156 Z M 55.800781 78.734375 C 55.800781 78.601562 55.832031 78.367188 55.933594 77.964844 L 61.367188 58.734375 C 61.566406 58.101562 61.898438 57.601562 62.367188 57.265625 C 62.867188 56.933594 63.367188 56.765625 63.898438 56.765625 C 64.167969 56.765625 64.464844 56.800781 64.765625 56.867188 C 65.464844 57.066406 65.964844 57.398438 66.300781 57.898438 C 66.632812 58.398438 66.800781 58.933594 66.800781 59.464844 C 66.800781 59.566406 66.765625 59.734375 66.734375 59.933594 C 66.699219 60.132812 66.667969 60.265625 66.667969 60.332031 L 61.234375 79.433594 C 61.101562 80.066406 60.800781 80.601562 60.300781 80.964844 C 59.800781 81.332031 59.234375 81.535156 58.601562 81.535156 L 57.800781 81.367188 C 57.132812 81.167969 56.632812 80.832031 56.265625 80.300781 C 55.964844 79.800781 55.800781 79.265625 55.800781 78.734375 Z M 55.800781 78.734375 "/>
</g>
</svg>
