<?xml version="1.0" encoding="UTF-8"?>
<svg xmlns="http://www.w3.org/2000/svg" xmlns:xlink="http://www.w3.org/1999/xlink" width="100px" height="100px" viewBox="0 0 100 100" version="1.1">
<g id="surface1">
<path style=" stroke:none;fill-rule:nonzero;fill:rgb(0%,0%,0%);fill-opacity:1;" d="M 39.265625 49.699219 C 39.265625 52.332031 39.898438 54.734375 41.167969 56.933594 C 42.433594 59.132812 44.167969 60.898438 46.398438 62.167969 C 48.632812 63.433594 51.035156 64.101562 53.667969 64.101562 C 54.300781 64.101562 54.832031 63.867188 55.265625 63.367188 C 55.699219 62.898438 55.933594 62.332031 55.933594 61.667969 C 55.933594 61.035156 55.699219 60.5 55.265625 60.066406 C 54.832031 59.632812 54.300781 59.433594 53.632812 59.433594 C 50.933594 59.433594 48.632812 58.5 46.734375 56.601562 C 44.832031 54.699219 43.898438 52.398438 43.898438 49.699219 C 43.898438 47.101562 44.800781 44.867188 46.566406 42.964844 C 48.332031 41.066406 50.433594 40.101562 52.832031 40.101562 L 51.734375 41.167969 C 51.234375 41.667969 51 42.199219 51.035156 42.800781 C 51.035156 43.398438 51.265625 43.933594 51.699219 44.398438 C 52.132812 44.867188 52.667969 45.101562 53.332031 45.101562 C 54 45.101562 54.566406 44.867188 55.035156 44.398438 L 60.066406 39.398438 C 60.5 39.035156 60.734375 38.5 60.734375 37.699219 C 60.734375 36.964844 60.5 36.433594 60.066406 36.132812 L 55.035156 31.035156 C 54.601562 30.566406 54.066406 30.332031 53.398438 30.332031 C 52.734375 30.332031 52.199219 30.566406 51.734375 31.035156 C 51.265625 31.5 51.035156 32.035156 51.035156 32.699219 C 51.035156 33.398438 51.265625 33.964844 51.765625 34.398438 L 52.765625 35.332031 C 48.933594 35.601562 45.734375 37.101562 43.132812 39.832031 C 40.566406 42.566406 39.265625 45.867188 39.265625 49.699219 Z M 39.265625 49.699219 "/>
</g>
</svg>
