<?xml version="1.0" encoding="UTF-8"?>
<svg xmlns="http://www.w3.org/2000/svg" xmlns:xlink="http://www.w3.org/1999/xlink" width="100px" height="100px" viewBox="0 0 100 100" version="1.1">
<g id="surface1">
<path style=" stroke:none;fill-rule:nonzero;fill:rgb(0%,0%,0%);fill-opacity:1;" d="M 32.566406 51.765625 C 32.566406 54.898438 33.367188 57.832031 34.933594 60.5 C 36.5 63.167969 38.632812 65.300781 41.300781 66.832031 C 43.964844 68.398438 46.867188 69.167969 50 69.167969 C 53.199219 69.167969 56.101562 68.398438 58.765625 66.867188 C 61.433594 65.332031 63.535156 63.234375 65.066406 60.566406 C 66.601562 57.898438 67.367188 54.964844 67.367188 51.800781 C 67.367188 51 67.101562 50.332031 66.566406 49.765625 C 66.035156 49.199219 65.398438 48.933594 64.601562 48.933594 C 63.832031 48.933594 63.167969 49.199219 62.601562 49.765625 C 62.035156 50.332031 61.765625 51 61.765625 51.800781 C 61.765625 55.066406 60.601562 57.867188 58.300781 60.167969 C 56 62.464844 53.199219 63.632812 49.933594 63.632812 C 46.699219 63.632812 43.964844 62.464844 41.699219 60.167969 C 39.433594 57.867188 38.300781 55.066406 38.300781 51.800781 C 38.300781 48.964844 39.167969 46.398438 40.933594 44.101562 C 42.699219 41.800781 44.734375 40.566406 47.066406 40.433594 L 45.800781 41.667969 C 45.265625 42.265625 45 42.898438 45 43.601562 C 45 44.332031 45.265625 45 45.800781 45.601562 C 47 46.765625 48.367188 46.765625 49.832031 45.601562 L 55.964844 39.535156 C 56.5 39.132812 56.765625 38.433594 56.765625 37.464844 C 56.765625 36.601562 56.5 35.964844 55.964844 35.566406 L 49.898438 29.332031 C 49.300781 28.800781 48.667969 28.535156 48 28.535156 C 47.167969 28.535156 46.464844 28.800781 45.898438 29.367188 C 45.332031 29.933594 45.066406 30.601562 45.066406 31.367188 C 45.066406 32.167969 45.332031 32.867188 45.867188 33.398438 L 47.132812 34.601562 C 42.964844 35.332031 39.5 37.332031 36.734375 40.601562 C 33.964844 43.867188 32.566406 47.566406 32.566406 51.765625 Z M 32.566406 51.765625 "/>
</g>
</svg>
