<?xml version="1.0" encoding="UTF-8"?>
<svg xmlns="http://www.w3.org/2000/svg" xmlns:xlink="http://www.w3.org/1999/xlink" width="100px" height="100px" viewBox="0 0 100 100" version="1.1">
<g id="surface1">
<path style=" stroke:none;fill-rule:nonzero;fill:rgb(0%,0%,0%);fill-opacity:1;" d="M 36.699219 40.765625 C 36.699219 39.898438 37.132812 38.800781 37.964844 37.398438 C 38.800781 36 39.632812 34.832031 40.398438 33.933594 C 40.601562 33.699219 40.867188 33.367188 41.167969 33 C 41.464844 32.632812 41.667969 32.433594 41.699219 32.398438 L 42.933594 33.832031 C 43.867188 34.867188 44.699219 36.035156 45.464844 37.398438 C 46.234375 38.765625 46.632812 39.867188 46.632812 40.765625 C 46.632812 42.132812 46.167969 43.332031 45.199219 44.300781 C 44.265625 45.265625 43.101562 45.765625 41.699219 45.765625 C 40.332031 45.765625 39.132812 45.265625 38.167969 44.300781 C 37.199219 43.300781 36.699219 42.132812 36.699219 40.765625 Z M 47.101562 54.601562 C 47.101562 53.632812 47.367188 52.535156 47.898438 51.234375 C 48.433594 49.964844 49.101562 48.765625 49.898438 47.699219 C 51.433594 45.667969 52.867188 43.964844 54.265625 42.601562 C 54.398438 42.5 54.699219 42.234375 55.132812 41.800781 L 55.964844 42.601562 C 57.265625 43.832031 58.734375 45.535156 60.367188 47.667969 C 61.234375 48.800781 61.898438 50 62.433594 51.265625 C 62.964844 52.535156 63.234375 53.632812 63.234375 54.601562 C 63.234375 56.898438 62.464844 58.800781 60.898438 60.367188 C 59.332031 61.933594 57.398438 62.699219 55.132812 62.699219 C 52.867188 62.699219 50.964844 61.898438 49.398438 60.332031 C 47.832031 58.765625 47.101562 56.832031 47.101562 54.601562 Z M 52.167969 31.601562 C 52.167969 30.167969 53.265625 28.265625 55.5 25.933594 L 56.332031 26.867188 C 56.964844 27.601562 57.535156 28.398438 58.035156 29.332031 C 58.535156 30.234375 58.800781 31 58.800781 31.601562 C 58.800781 32.535156 58.464844 33.265625 57.832031 33.898438 C 57.199219 34.5 56.433594 34.832031 55.5 34.832031 C 54.535156 34.832031 53.734375 34.535156 53.101562 33.898438 C 52.5 33.265625 52.167969 32.5 52.167969 31.601562 Z M 52.167969 31.601562 "/>
</g>
</svg>
