<?xml version="1.0" encoding="UTF-8"?>
<svg xmlns="http://www.w3.org/2000/svg" xmlns:xlink="http://www.w3.org/1999/xlink" width="100px" height="100px" viewBox="0 0 100 100" version="1.1">
<g id="surface1">
<path style=" stroke:none;fill-rule:nonzero;fill:rgb(0%,0%,0%);fill-opacity:1;" d="M 32.699219 50.832031 C 32.699219 53.898438 33.464844 56.765625 35.035156 59.398438 C 36.601562 62.035156 38.699219 64.167969 41.367188 65.734375 C 44.035156 67.300781 46.898438 68.101562 50 68.101562 C 53.101562 68.101562 56 67.300781 58.699219 65.734375 C 61.398438 64.167969 63.535156 62.035156 65.101562 59.398438 C 66.667969 56.734375 67.464844 53.898438 67.464844 50.832031 C 67.464844 48.832031 66.898438 46.464844 65.734375 43.699219 C 64.566406 40.933594 63.167969 38.367188 61.535156 36.035156 C 60.066406 34.132812 58.332031 32.035156 56.332031 29.765625 C 54.332031 27.5 50.832031 24 50.035156 23.199219 L 45.765625 27.5 C 43.699219 29.5 41.699219 31.800781 39.800781 34.433594 C 37.898438 37.066406 36.234375 39.898438 34.832031 42.933594 C 33.367188 45.964844 32.699219 48.601562 32.699219 50.832031 Z M 32.699219 50.832031 "/>
</g>
</svg>
