<?xml version="1.0" encoding="UTF-8"?>
<svg xmlns="http://www.w3.org/2000/svg" xmlns:xlink="http://www.w3.org/1999/xlink" width="100px" height="100px" viewBox="0 0 100 100" version="1.1">
<g id="surface1">
<path style=" stroke:none;fill-rule:nonzero;fill:rgb(0%,0%,0%);fill-opacity:1;" d="M 13.632812 56.5 C 13.632812 52.632812 14.832031 49.199219 17.234375 46.199219 C 19.632812 43.199219 22.699219 41.234375 26.367188 40.398438 C 27.398438 35.832031 29.734375 32.101562 33.367188 29.167969 C 37 26.234375 41.199219 24.765625 45.933594 24.765625 C 48.632812 24.765625 51.101562 25.199219 53.265625 26.101562 C 53.265625 26.132812 53.265625 26.132812 53.300781 26.167969 C 56.101562 27.234375 58.566406 28.964844 60.667969 31.332031 L 60.765625 31.332031 C 63.035156 33.765625 64.535156 36.667969 65.332031 40.066406 L 66.367188 40.066406 C 69.964844 40.066406 73.101562 41.035156 75.800781 42.933594 L 75.800781 42.898438 C 77.566406 44.101562 79.066406 45.566406 80.265625 47.332031 C 81.464844 49.101562 82.265625 51.035156 82.699219 53.132812 C 82.832031 53.832031 82.898438 54.398438 82.964844 54.867188 L 82.964844 55.066406 C 82.964844 55.101562 82.964844 55.265625 83 55.632812 C 83.035156 56 83.035156 56.265625 83.035156 56.433594 L 83.035156 56.535156 C 83.035156 59.464844 82.332031 62.199219 80.898438 64.699219 C 79.5 67.199219 77.566406 69.234375 75.101562 70.734375 C 72.667969 72.234375 69.964844 73.035156 67.035156 73.132812 C 66.601562 73.132812 66.367188 72.933594 66.367188 72.566406 L 66.367188 68.101562 C 66.367188 67.667969 66.601562 67.464844 67.035156 67.464844 C 69.898438 67.332031 72.300781 66.199219 74.300781 64.066406 C 76.300781 61.933594 77.300781 59.433594 77.300781 56.535156 C 77.300781 53.566406 76.234375 51.035156 74.066406 48.898438 C 71.933594 46.765625 69.367188 45.699219 66.367188 45.699219 L 61 45.699219 C 60.601562 45.699219 60.398438 45.5 60.398438 45.132812 L 60.132812 43.167969 C 59.800781 39.832031 58.398438 36.964844 55.898438 34.535156 C 55.867188 34.5 55.867188 34.464844 55.832031 34.433594 C 55.800781 34.398438 55.765625 34.367188 55.765625 34.332031 C 55.734375 34.300781 55.699219 34.265625 55.632812 34.265625 C 55.632812 34.199219 55.601562 34.167969 55.566406 34.167969 C 53.132812 31.964844 50.300781 30.699219 47.035156 30.433594 C 46.800781 30.398438 46.433594 30.398438 45.898438 30.398438 C 42.234375 30.398438 39.066406 31.632812 36.367188 34.066406 C 33.667969 36.5 32.132812 39.535156 31.800781 43.132812 L 31.535156 45.101562 C 31.433594 45.398438 31.167969 45.566406 30.800781 45.566406 L 29.167969 45.667969 C 26.367188 46 24 47.199219 22.132812 49.234375 C 20.265625 51.265625 19.332031 53.699219 19.332031 56.5 L 19.332031 56.632812 L 19.433594 56.632812 C 19.464844 58.234375 19.800781 59.734375 20.433594 61.132812 C 21.101562 62.566406 21.964844 63.765625 23.101562 64.765625 C 23.800781 65.367188 24.601562 65.898438 25.566406 66.367188 L 25.566406 66.398438 C 26.898438 67.035156 28.234375 67.398438 29.601562 67.464844 C 29.964844 67.464844 30.167969 67.667969 30.167969 68.066406 L 30.167969 72.535156 C 30.167969 72.898438 29.964844 73.101562 29.601562 73.101562 C 27.867188 73 26.234375 72.667969 24.667969 72.101562 L 24.667969 72.132812 C 21.898438 71.167969 19.535156 69.566406 17.632812 67.367188 C 15.734375 65.167969 14.464844 62.566406 13.933594 59.667969 L 13.933594 59.566406 C 13.898438 59.535156 13.898438 59.5 13.898438 59.433594 C 13.699219 58.566406 13.632812 57.566406 13.632812 56.5 Z M 31.964844 80.398438 C 31.964844 80.300781 32 80.167969 32.035156 79.964844 C 32.066406 79.800781 32.101562 79.667969 32.101562 79.566406 L 32.398438 77.601562 C 32.632812 76.800781 33.066406 76.234375 33.765625 75.832031 C 34.464844 75.433594 35.199219 75.367188 36.035156 75.566406 C 36.800781 75.800781 37.332031 76.265625 37.734375 76.933594 C 38.101562 77.632812 38.167969 78.332031 37.964844 79.035156 L 37.5 81.035156 C 37.167969 82.5 36.332031 83.234375 34.964844 83.234375 C 34.867188 83.234375 34.699219 83.199219 34.5 83.167969 C 34.300781 83.132812 34.167969 83.101562 34.035156 83.101562 C 33.332031 82.898438 32.832031 82.535156 32.5 82 C 32.132812 81.5 31.964844 80.964844 31.964844 80.398438 Z M 34.433594 70.601562 C 34.433594 69.800781 34.699219 69.167969 35.199219 68.632812 C 35.699219 68.101562 36.367188 67.867188 37.167969 67.867188 C 37.964844 67.867188 38.601562 68.132812 39.132812 68.632812 C 39.667969 69.132812 39.898438 69.800781 39.898438 70.601562 C 39.898438 71.367188 39.632812 72 39.132812 72.535156 C 38.632812 73.066406 37.964844 73.300781 37.167969 73.300781 C 36.398438 73.300781 35.765625 73.035156 35.265625 72.5 C 34.734375 71.964844 34.433594 71.332031 34.433594 70.601562 Z M 39.898438 90.566406 C 39.898438 90.433594 39.933594 90.199219 40.035156 89.800781 L 40.464844 87.832031 C 40.699219 87.066406 41.167969 86.5 41.832031 86.132812 C 42.535156 85.734375 43.234375 85.667969 43.933594 85.898438 C 44.699219 86.035156 45.300781 86.464844 45.699219 87.132812 C 46.101562 87.800781 46.199219 88.566406 45.964844 89.398438 L 45.535156 91.367188 C 45.199219 92.734375 44.300781 93.398438 42.867188 93.398438 C 42.632812 93.398438 42.332031 93.367188 42.066406 93.300781 C 41.332031 93.101562 40.800781 92.734375 40.433594 92.199219 C 40.101562 91.667969 39.898438 91.132812 39.898438 90.566406 Z M 42.535156 80.867188 C 42.535156 80.101562 42.800781 79.433594 43.300781 78.933594 C 43.832031 78.398438 44.464844 78.167969 45.265625 78.167969 C 46.066406 78.167969 46.699219 78.433594 47.234375 78.933594 C 47.765625 79.464844 48 80.101562 48 80.867188 C 48 81.667969 47.734375 82.300781 47.234375 82.832031 C 46.699219 83.367188 46.066406 83.601562 45.265625 83.601562 C 44.5 83.601562 43.867188 83.332031 43.332031 82.800781 C 42.800781 82.265625 42.535156 81.632812 42.535156 80.867188 Z M 44.601562 73.300781 C 44.601562 72.964844 44.632812 72.667969 44.699219 72.398438 L 45.464844 69.398438 C 45.699219 68.632812 46.167969 68.035156 46.832031 67.632812 C 47.535156 67.234375 48.234375 67.132812 48.964844 67.367188 C 49.765625 67.601562 50.332031 68.035156 50.734375 68.699219 C 51.132812 69.367188 51.199219 70.066406 50.964844 70.800781 L 50.101562 73.800781 C 49.832031 74.734375 49.367188 75.332031 48.734375 75.667969 C 48.101562 76 47.367188 76.066406 46.601562 75.867188 C 45.933594 75.734375 45.433594 75.398438 45.101562 74.867188 C 44.699219 74.332031 44.566406 73.800781 44.601562 73.300781 Z M 53.800781 80.433594 C 53.800781 80.332031 53.800781 80.167969 53.832031 80 C 53.867188 79.832031 53.867188 79.699219 53.867188 79.632812 L 54.167969 77.667969 C 54.398438 76.867188 54.832031 76.300781 55.535156 75.898438 C 56.234375 75.5 56.964844 75.433594 57.800781 75.632812 C 58.566406 75.867188 59.132812 76.332031 59.5 77 C 59.898438 77.699219 59.964844 78.398438 59.734375 79.101562 L 59.265625 81.101562 C 58.933594 82.566406 58.101562 83.300781 56.734375 83.300781 C 56.632812 83.300781 56.464844 83.265625 56.265625 83.234375 C 56.066406 83.199219 55.898438 83.167969 55.800781 83.167969 C 55.132812 82.964844 54.632812 82.601562 54.300781 82.066406 C 54 81.535156 53.800781 81 53.800781 80.433594 Z M 56.265625 70.632812 C 56.265625 69.832031 56.535156 69.199219 57.035156 68.667969 C 57.566406 68.132812 58.199219 67.898438 59 67.898438 C 59.800781 67.898438 60.433594 68.167969 60.964844 68.667969 C 61.5 69.199219 61.734375 69.832031 61.734375 70.632812 C 61.734375 71.398438 61.464844 72.066406 60.964844 72.566406 C 60.464844 73.066406 59.832031 73.332031 59.035156 73.332031 C 58.234375 73.332031 57.601562 73.066406 57.101562 72.535156 C 56.566406 72.035156 56.265625 71.398438 56.265625 70.632812 Z M 56.265625 70.632812 "/>
</g>
</svg>
