<?xml version="1.0" encoding="UTF-8"?>
<svg xmlns="http://www.w3.org/2000/svg" xmlns:xlink="http://www.w3.org/1999/xlink" width="100px" height="100px" viewBox="0 0 100 100" version="1.1">
<g id="surface1">
<path style=" stroke:none;fill-rule:nonzero;fill:rgb(0%,0%,0%);fill-opacity:1;" d="M 15.464844 56.5 C 15.464844 52.632812 16.632812 49.234375 19 46.234375 C 21.367188 43.234375 24.398438 41.300781 28.132812 40.367188 C 29.167969 35.832031 31.5 32.101562 35.132812 29.167969 C 38.765625 26.234375 42.933594 24.800781 47.632812 24.800781 C 52.234375 24.800781 56.300781 26.234375 59.898438 29.066406 C 63.5 31.898438 65.832031 35.566406 66.898438 40.035156 L 67.964844 40.035156 C 70.933594 40.035156 73.699219 40.765625 76.234375 42.234375 C 78.765625 43.699219 80.800781 45.699219 82.265625 48.234375 C 83.734375 50.765625 84.5 53.535156 84.5 56.5 C 84.5 60.898438 82.964844 64.734375 79.867188 67.898438 C 76.800781 71.101562 73.035156 72.765625 68.601562 72.898438 C 68.167969 72.898438 67.933594 72.699219 67.933594 72.332031 L 67.933594 67.898438 C 67.933594 67.5 68.167969 67.300781 68.601562 67.300781 C 71.433594 67.167969 73.867188 66.035156 75.867188 63.898438 C 77.867188 61.765625 78.867188 59.300781 78.867188 56.464844 C 78.867188 53.5 77.800781 50.964844 75.632812 48.800781 C 73.464844 46.632812 70.898438 45.566406 67.898438 45.566406 L 62.535156 45.566406 C 62.132812 45.566406 61.933594 45.367188 61.933594 45 L 61.667969 43.066406 C 61.300781 39.464844 59.734375 36.433594 57.035156 34 C 54.300781 31.566406 51.167969 30.332031 47.535156 30.332031 C 43.867188 30.332031 40.699219 31.566406 38 34.035156 C 35.300781 36.5 33.765625 39.535156 33.433594 43.199219 L 33.234375 44.867188 C 33.234375 45.265625 33 45.5 32.566406 45.5 L 30.800781 45.734375 C 28.035156 45.964844 25.699219 47.101562 23.800781 49.199219 C 21.898438 51.300781 20.964844 53.699219 20.964844 56.5 C 20.964844 59.332031 21.964844 61.800781 23.964844 63.933594 C 25.964844 66.066406 28.398438 67.167969 31.234375 67.332031 C 31.601562 67.332031 31.800781 67.535156 31.800781 67.933594 L 31.800781 72.367188 C 31.800781 72.734375 31.601562 72.933594 31.234375 72.933594 C 26.765625 72.800781 23 71.132812 19.898438 67.933594 C 17 64.734375 15.464844 60.898438 15.464844 56.5 Z M 33.800781 82.167969 C 33.800781 81.398438 34.066406 80.734375 34.632812 80.167969 C 35.167969 79.667969 35.800781 79.398438 36.535156 79.398438 C 37.300781 79.398438 37.964844 79.667969 38.5 80.167969 C 39.035156 80.667969 39.300781 81.332031 39.300781 82.132812 C 39.300781 82.933594 39.035156 83.566406 38.5 84.101562 C 37.964844 84.632812 37.332031 84.867188 36.535156 84.867188 C 35.765625 84.867188 35.101562 84.601562 34.566406 84.101562 C 34.066406 83.601562 33.800781 82.933594 33.800781 82.167969 Z M 36.667969 70.066406 C 36.667969 69.332031 36.933594 68.667969 37.464844 68.132812 C 38 67.601562 38.632812 67.332031 39.433594 67.332031 C 40.199219 67.332031 40.867188 67.601562 41.398438 68.132812 C 41.933594 68.667969 42.199219 69.332031 42.199219 70.066406 C 42.199219 70.867188 41.933594 71.535156 41.398438 72.066406 C 40.867188 72.632812 40.234375 72.898438 39.433594 72.898438 C 38.667969 72.898438 38 72.632812 37.464844 72.066406 C 36.933594 71.535156 36.667969 70.867188 36.667969 70.066406 Z M 43 88.699219 C 43 87.933594 43.265625 87.265625 43.832031 86.667969 C 44.367188 86.132812 45 85.867188 45.734375 85.867188 C 46.535156 85.867188 47.199219 86.132812 47.765625 86.699219 C 48.332031 87.265625 48.601562 87.933594 48.601562 88.699219 C 48.601562 89.464844 48.332031 90.132812 47.765625 90.667969 C 47.199219 91.199219 46.535156 91.464844 45.734375 91.464844 C 44.964844 91.464844 44.332031 91.199219 43.800781 90.667969 C 43.300781 90.101562 43 89.464844 43 88.699219 Z M 45.898438 76.5 C 45.898438 75.699219 46.167969 75.035156 46.699219 74.433594 C 47.234375 73.898438 47.898438 73.632812 48.632812 73.632812 C 49.398438 73.632812 50.066406 73.898438 50.632812 74.464844 C 51.199219 75.035156 51.464844 75.699219 51.464844 76.5 C 51.464844 77.265625 51.199219 77.933594 50.632812 78.5 C 50.066406 79.066406 49.398438 79.332031 48.632812 79.332031 C 47.867188 79.332031 47.234375 79.066406 46.699219 78.5 C 46.167969 77.933594 45.898438 77.265625 45.898438 76.5 Z M 47.300781 64.433594 C 47.300781 63.667969 47.566406 63 48.132812 62.433594 C 48.734375 61.898438 49.367188 61.632812 50.035156 61.632812 C 50.832031 61.632812 51.5 61.898438 52.066406 62.464844 C 52.632812 63.035156 52.898438 63.667969 52.898438 64.464844 C 52.898438 65.234375 52.632812 65.898438 52.066406 66.433594 C 51.5 66.964844 50.832031 67.234375 50.035156 67.234375 C 49.265625 67.234375 48.632812 66.964844 48.101562 66.433594 C 47.566406 65.867188 47.300781 65.199219 47.300781 64.433594 Z M 55.199219 82.167969 C 55.199219 81.398438 55.464844 80.734375 56 80.167969 C 56.535156 79.667969 57.199219 79.398438 58 79.398438 C 58.800781 79.398438 59.433594 79.667969 59.964844 80.167969 C 60.5 80.699219 60.734375 81.332031 60.734375 82.132812 C 60.734375 82.933594 60.464844 83.566406 59.964844 84.101562 C 59.433594 84.632812 58.800781 84.867188 58 84.867188 C 57.199219 84.867188 56.535156 84.601562 56 84.066406 C 55.464844 83.566406 55.199219 82.933594 55.199219 82.167969 Z M 58.035156 70.066406 C 58.035156 69.332031 58.300781 68.699219 58.867188 68.132812 C 59.433594 67.566406 60.101562 67.300781 60.867188 67.300781 C 61.632812 67.300781 62.300781 67.566406 62.832031 68.101562 C 63.367188 68.632812 63.632812 69.300781 63.632812 70.035156 C 63.632812 70.832031 63.367188 71.5 62.832031 72.035156 C 62.300781 72.601562 61.667969 72.867188 60.867188 72.867188 C 60.066406 72.867188 59.398438 72.601562 58.867188 72.035156 C 58.332031 71.5 58.035156 70.832031 58.035156 70.066406 Z M 58.035156 70.066406 "/>
</g>
</svg>
