<?xml version="1.0" encoding="UTF-8"?>
<svg xmlns="http://www.w3.org/2000/svg" xmlns:xlink="http://www.w3.org/1999/xlink" width="100px" height="100px" viewBox="0 0 100 100" version="1.1">
<g id="surface1">
<path style=" stroke:none;fill-rule:nonzero;fill:rgb(0%,0%,0%);fill-opacity:1;" d="M 17.898438 53.933594 C 20.066406 53.832031 21.898438 53 23.398438 51.433594 C 24.898438 49.867188 25.667969 48 25.667969 45.832031 C 25.667969 48 26.398438 49.867188 27.898438 51.433594 C 29.398438 53 31.234375 53.832031 33.398438 53.933594 C 31.234375 54.035156 29.398438 54.867188 27.898438 56.433594 C 26.398438 58 25.667969 59.867188 25.667969 62.035156 C 25.667969 59.867188 24.933594 58 23.398438 56.433594 C 21.898438 54.867188 20.066406 54.035156 17.898438 53.933594 Z M 25.667969 29.933594 C 29.867188 29.734375 33.433594 28.101562 36.367188 25.035156 C 39.300781 21.964844 40.765625 18.332031 40.765625 14.101562 C 40.765625 18.332031 42.234375 21.964844 45.167969 25.035156 C 48.101562 28.101562 51.667969 29.699219 55.898438 29.933594 C 53.132812 30.066406 50.601562 30.832031 48.265625 32.300781 C 45.964844 33.734375 44.132812 35.667969 42.765625 38.066406 C 41.433594 40.464844 40.765625 43.035156 40.765625 45.832031 C 40.765625 41.601562 39.300781 37.933594 36.367188 34.867188 C 33.433594 31.765625 29.867188 30.132812 25.667969 29.933594 Z M 36.734375 65.832031 C 39.898438 65.699219 42.601562 64.464844 44.800781 62.167969 C 47 59.867188 48.101562 57.132812 48.101562 53.933594 C 48.101562 57.132812 49.199219 59.867188 51.398438 62.167969 C 53.601562 64.464844 56.265625 65.699219 59.433594 65.832031 C 56.265625 65.964844 53.601562 67.199219 51.398438 69.5 C 49.199219 71.800781 48.101562 74.535156 48.101562 77.734375 C 48.101562 74.535156 47 71.800781 44.800781 69.5 C 42.566406 67.199219 39.898438 66 36.734375 65.832031 Z M 59.433594 50.035156 C 62.601562 49.898438 65.265625 48.667969 67.464844 46.367188 C 69.667969 44.066406 70.734375 41.332031 70.734375 38.101562 C 70.734375 41.300781 71.832031 44.035156 74.035156 46.332031 C 76.234375 48.632812 78.933594 49.867188 82.101562 50 C 78.933594 50.132812 76.234375 51.367188 74.035156 53.667969 C 71.832031 55.964844 70.734375 58.699219 70.734375 61.898438 C 70.734375 58.699219 69.632812 55.964844 67.464844 53.667969 C 65.265625 51.398438 62.601562 50.167969 59.433594 50.035156 Z M 59.433594 50.035156 "/>
</g>
</svg>
