<?xml version="1.0" encoding="UTF-8" standalone="no"?>
<svg
   xmlns:dc="http://purl.org/dc/elements/1.1/"
   xmlns:cc="http://creativecommons.org/ns#"
   xmlns:rdf="http://www.w3.org/1999/02/22-rdf-syntax-ns#"
   xmlns:svg="http://www.w3.org/2000/svg"
   xmlns="http://www.w3.org/2000/svg"
   xmlns:sodipodi="http://sodipodi.sourceforge.net/DTD/sodipodi-0.dtd"
   xmlns:inkscape="http://www.inkscape.org/namespaces/inkscape"
   width="100px"
   height="100px"
   viewBox="0 0 100 100"
   version="1.1"
   id="svg5"
   sodipodi:docname="wi-showers.svg"
   inkscape:version="1.0.2 (e86c870879, 2021-01-15)">
  <metadata
     id="metadata11">
    <rdf:RDF>
      <cc:Work
         rdf:about="">
        <dc:format>image/svg+xml</dc:format>
        <dc:type
           rdf:resource="http://purl.org/dc/dcmitype/StillImage" />
      </cc:Work>
    </rdf:RDF>
  </metadata>
  <defs
     id="defs9" />
  <sodipodi:namedview
     pagecolor="#ffffff"
     bordercolor="#666666"
     borderopacity="1"
     objecttolerance="10"
     gridtolerance="10"
     guidetolerance="10"
     inkscape:pageopacity="0"
     inkscape:pageshadow="2"
     inkscape:window-width="1920"
     inkscape:window-height="1016"
     id="namedview7"
     showgrid="false"
     inkscape:zoom="7.94"
     inkscape:cx="50"
     inkscape:cy="50"
     inkscape:window-x="0"
     inkscape:window-y="0"
     inkscape:window-maximized="1"
     inkscape:current-layer="surface1" />
  <g
     id="surface1">
    <path
       style=" stroke:none;fill-rule:nonzero;fill:rgb(0%,0%,0%);fill-opacity:1;"
       d="M 60.367188,63.265625"
       id="path27" />
    <path
       style="stroke:none;fill-rule:nonzero;fill:#0000ff;fill-opacity:1"
       d="m 60.367188,63.265625 c 0,-0.09766 0.06641,-0.398437 0.167968,-0.867187 l 1,-3.433594 c 0.132813,-0.699219 0.429688,-1.230469 0.964844,-1.566406 0.535156,-0.332032 1.066406,-0.5 1.632812,-0.464844 0.132813,-0.03516 0.433594,0 0.800782,0.101562 0.734375,0.164063 1.300781,0.597656 1.734375,1.265625 0.398437,0.566407 0.464843,1.265625 0.230469,2.164063 l -0.796876,3.433594 c -0.433593,1.433593 -1.269531,2.167968 -2.535156,2.167968 C 63.367188,66.066406 63,66 62.433594,65.867188 c -0.699219,-0.199219 -1.199219,-0.566407 -1.535156,-1.035157 -0.363282,-0.53125 -0.53125,-1.03125 -0.53125,-1.566406 z"
       id="path25" />
    <path
       style="stroke:none;fill-rule:nonzero;fill:#0000ff;fill-opacity:1"
       d="m 55.765625,79.132812 c 0,-0.234374 0.03516,-0.5 0.101563,-0.800781 l 0.933593,-3.296875 c 0.234375,-0.800781 0.664063,-1.402344 1.367188,-1.800781 0.699219,-0.402344 1.367187,-0.5 2.097656,-0.300781 0.769531,0.234375 1.367187,0.667968 1.769531,1.367187 0.398438,0.664063 0.5,1.367188 0.296875,2.097657 l -0.964843,3.535156 c -0.332032,1.367187 -1.199219,2.03125 -2.632813,2.03125 -0.300781,0 -0.601563,-0.03125 -0.867187,-0.09766 -0.667969,-0.132813 -1.167969,-0.46875 -1.535157,-1 C 56,80.265625 55.800781,79.699219 55.765625,79.132812 Z"
       id="path23" />
    <path
       style="stroke:none;fill-rule:nonzero;fill:#0000ff;fill-opacity:1"
       d="m 46.367188,73.535156 c 0,-0.203125 0.03125,-0.46875 0.132812,-0.835937 l 0.898438,-3.433594 c 0.234374,-0.765625 0.667968,-1.332031 1.367187,-1.699219 0.667969,-0.398437 1.402344,-0.464844 2.167969,-0.234375 0.765625,0.203125 1.300781,0.632813 1.699218,1.300781 C 53,69.300781 53.066406,70 52.832031,70.800781 l -0.796875,3.300781 c -0.433594,1.5 -1.234375,2.265626 -2.402344,2.265626 -0.132812,0 -0.5,-0.06641 -1.03125,-0.199219 -0.734374,-0.132813 -1.269531,-0.46875 -1.636718,-1 -0.398438,-0.5 -0.597656,-1.066407 -0.597656,-1.632813 z"
       id="path21" />
    <path
       style="stroke:none;fill-rule:nonzero;fill:#0000ff;fill-opacity:1"
       d="m 41.898438,89.433594 c 0,-0.101563 0.03516,-0.234375 0.06641,-0.433594 0.03516,-0.199219 0.07031,-0.300781 0.07031,-0.398438 L 43,85.300781 C 43.199219,84.5 43.667969,83.898438 44.332031,83.5 45,83.101562 45.734375,83 46.5,83.234375 c 0.765625,0.230469 1.300781,0.664063 1.699219,1.367187 0.402343,0.699219 0.433593,1.398438 0.234375,2.164063 l -0.832032,3.46875 c -0.367187,1.367187 -1.234374,2.03125 -2.667968,2.03125 -0.167969,0 -0.433594,-0.03125 -0.800782,-0.132813 C 43.398438,92 42.867188,91.667969 42.5,91.132812 42.101562,90.601562 41.898438,90.035156 41.898438,89.433594 Z"
       id="path19" />
    <path
       style="stroke:none;fill-rule:nonzero;fill:#0000ff;fill-opacity:1"
       d="m 37.800781,62.933594 c 0,-0.06641 0,-0.199219 0.03125,-0.367188 0.03516,-0.167968 0.03516,-0.265625 0.03516,-0.300781 l 1,-3.5 c 0.199218,-0.632813 0.566406,-1.132813 1.066406,-1.5 0.5,-0.332031 1.03125,-0.5 1.566406,-0.5 0.06641,0 0.167969,0 0.265625,0 0.101563,0 0.199219,0.03516 0.300781,0.03516 0.101563,0.03125 0.199219,0.03125 0.265625,0.03125 0.769531,0.234375 1.335938,0.667969 1.703125,1.335938 0.398438,0.664062 0.464844,1.367187 0.230469,2.132812 l -0.800781,3.332031 c -0.230469,0.933594 -0.664063,1.566407 -1.332032,1.96875 C 41.464844,66 40.734375,66 39.964844,65.667969 c -0.730469,-0.203125 -1.265625,-0.566407 -1.632813,-1.132813 -0.367187,-0.570312 -0.53125,-1.070312 -0.53125,-1.601562 z"
       id="path17" />
    <path
       style="stroke:none;fill-rule:nonzero;fill:#0000ff;fill-opacity:1"
       d="m 33.398438,79 c 0,-0.101562 0.03516,-0.265625 0.06641,-0.433594 0.03516,-0.167968 0.07031,-0.300781 0.07031,-0.367187 l 0.898438,-3.433594 c 0.234375,-0.730469 0.667968,-1.332031 1.332031,-1.699219 0.667969,-0.398437 1.367187,-0.464844 2.132813,-0.234375 0.769531,0.234375 1.335937,0.667969 1.734374,1.335938 0.402344,0.664062 0.46875,1.367187 0.234376,2.132812 l -0.800782,3.367188 c -0.433594,1.464843 -1.265625,2.199219 -2.53125,2.199219 -0.101562,0 -0.167968,0 -0.300781,0 -0.101563,0 -0.234375,-0.03516 -0.367187,-0.03516 -0.132813,-0.03125 -0.234376,-0.03125 -0.332032,-0.03125 C 34.832031,81.601562 34.300781,81.199219 33.933594,80.667969 33.566406,80.132812 33.398438,79.535156 33.398438,79 Z"
       id="path15" />
    <path
       style=" stroke:none;fill-rule:nonzero;fill:rgb(0%,0%,0%);fill-opacity:1;"
       d="m 15.332031,56.433594 c 0,-3.867188 1.203125,-7.265625 3.632813,-10.265625 2.402344,-3 5.5,-4.933594 9.269531,-5.769531 0.964844,-4.597657 3.265625,-8.332032 6.898437,-11.296876 3.632813,-2.96875 7.800782,-4.433593 12.535157,-4.433593 4.632812,0 8.765625,1.433593 12.398437,4.265625 3.601563,2.832031 5.96875,6.5 7.066406,11 h 1.132813 c 3,0 5.769531,0.734375 8.269531,2.199218 2.53125,1.46875 4.5,3.46875 5.964844,6 1.433594,2.535157 2.167969,5.300782 2.167969,8.300782 0,4.464844 -1.535157,8.265625 -4.566407,11.464844 -3.066406,3.203124 -6.800781,4.867187 -11.234374,5 -0.402344,0 -0.601563,-0.199219 -0.601563,-0.566407 v -4.464843 c 0,-0.367188 0.199219,-0.566407 0.601563,-0.566407 2.800781,-0.234375 5.234374,-1.402343 7.234374,-3.5 2,-2.101562 3,-4.566406 3,-7.402343 0,-2.964844 -1.066406,-5.53125 -3.203124,-7.699219 -2.132813,-2.132813 -4.664063,-3.234375 -7.632813,-3.234375 h -5.433594 c -0.398437,0 -0.632812,-0.199219 -0.730469,-0.597656 l -0.234374,-1.902344 c -0.234376,-2.363282 -1,-4.53125 -2.332032,-6.464844 C 58.199219,34.566406 56.5,33.066406 54.433594,31.964844 c -2.066406,-1.097656 -4.332032,-1.632813 -6.734375,-1.632813 -3.664063,0 -6.832031,1.203125 -9.53125,3.632813 -2.703125,2.433594 -4.234375,5.46875 -4.566407,9.070312 l -0.234374,1.796875 c 0,0.300781 -0.167969,0.46875 -0.535157,0.46875 l -1.796875,0.367188 C 28.234375,45.898438 25.867188,47.035156 24,49.101562 c -1.898438,2.066407 -2.832031,4.5 -2.832031,7.332032 0,2.898437 1,5.398437 2.964843,7.5 1.96875,2.101562 4.367188,3.234375 7.234376,3.398437 0.398437,0 0.597656,0.203125 0.597656,0.566407 v 4.46875 c 0,0.367187 -0.199219,0.566406 -0.597656,0.566406 -2.199219,-0.101563 -4.265626,-0.601563 -6.265626,-1.5 -2,-0.898438 -3.703124,-2.101563 -5.101562,-3.566406 -1.433594,-1.46875 -2.566406,-3.167969 -3.398438,-5.167969 -0.835937,-2 -1.269531,-4.066407 -1.269531,-6.265625 z"
       id="path2" />
  </g>
</svg>
