<?xml version="1.0" encoding="UTF-8"?>
<svg xmlns="http://www.w3.org/2000/svg" xmlns:xlink="http://www.w3.org/1999/xlink" width="100px" height="100px" viewBox="0 0 100 100" version="1.1">
<g id="surface1">
<path style=" stroke:none;fill-rule:nonzero;fill:rgb(0%,0%,0%);fill-opacity:1;" d="M 14.566406 48.734375 C 14.566406 47.933594 14.832031 47.234375 15.398438 46.667969 C 15.964844 46.132812 16.667969 45.867188 17.398438 45.867188 L 24.199219 45.867188 C 24.964844 45.867188 25.601562 46.132812 26.132812 46.699219 C 26.632812 47.265625 26.898438 47.933594 26.898438 48.734375 C 26.898438 49.535156 26.667969 50.199219 26.167969 50.765625 C 25.667969 51.332031 25 51.601562 24.234375 51.601562 L 17.433594 51.601562 C 16.667969 51.601562 16 51.332031 15.433594 50.765625 C 14.867188 50.199219 14.566406 49.535156 14.566406 48.734375 Z M 24.101562 71.832031 C 24.101562 71.066406 24.367188 70.398438 24.867188 69.800781 L 29.765625 65.035156 C 30.265625 64.5 30.933594 64.265625 31.734375 64.265625 C 32.535156 64.265625 33.199219 64.535156 33.734375 65.035156 C 34.265625 65.535156 34.535156 66.167969 34.535156 66.933594 C 34.535156 67.734375 34.265625 68.464844 33.734375 69.066406 L 29 73.800781 C 27.632812 74.867188 26.265625 74.867188 24.898438 73.800781 C 24.367188 73.265625 24.101562 72.601562 24.101562 71.832031 Z M 24.101562 25.699219 C 24.101562 24.933594 24.367188 24.265625 24.867188 23.667969 C 25.535156 23.101562 26.234375 22.832031 27 22.832031 C 27.734375 22.832031 28.398438 23.101562 28.964844 23.632812 L 33.734375 28.535156 C 34.265625 29.035156 34.535156 29.699219 34.535156 30.5 C 34.535156 31.300781 34.265625 31.964844 33.734375 32.5 C 33.199219 33.035156 32.535156 33.300781 31.734375 33.300781 C 30.933594 33.300781 30.265625 33.035156 29.765625 32.5 L 24.898438 27.734375 C 24.367188 27.199219 24.101562 26.5 24.101562 25.699219 Z M 32.601562 48.734375 C 32.601562 45.632812 33.367188 42.734375 34.933594 40.066406 C 36.5 37.398438 38.601562 35.265625 41.300781 33.699219 C 44 32.132812 46.867188 31.367188 49.964844 31.367188 C 52.300781 31.367188 54.535156 31.832031 56.699219 32.765625 C 58.832031 33.699219 60.699219 34.933594 62.234375 36.5 C 63.800781 38.066406 65.035156 39.898438 65.933594 42.035156 C 66.832031 44.167969 67.300781 46.433594 67.300781 48.765625 C 67.300781 51.898438 66.535156 54.800781 64.964844 57.464844 C 63.398438 60.132812 61.300781 62.234375 58.632812 63.800781 C 55.964844 65.367188 53.066406 66.132812 49.933594 66.132812 C 46.800781 66.132812 43.898438 65.367188 41.234375 63.800781 C 38.566406 62.234375 36.464844 60.132812 34.898438 57.464844 C 33.398438 54.765625 32.601562 51.867188 32.601562 48.734375 Z M 47.132812 74.667969 C 47.132812 73.867188 47.398438 73.199219 47.964844 72.667969 C 48.535156 72.132812 49.199219 71.867188 49.964844 71.867188 C 50.765625 71.867188 51.464844 72.132812 52 72.667969 C 52.535156 73.199219 52.800781 73.867188 52.800781 74.667969 L 52.800781 81.300781 C 52.800781 82.101562 52.535156 82.800781 51.964844 83.367188 C 51.398438 83.933594 50.734375 84.199219 49.964844 84.199219 C 49.199219 84.199219 48.5 83.933594 47.964844 83.367188 C 47.398438 82.800781 47.132812 82.101562 47.132812 81.300781 Z M 47.132812 23 L 47.132812 16.199219 C 47.132812 15.433594 47.398438 14.765625 47.964844 14.199219 C 48.535156 13.632812 49.199219 13.332031 50 13.332031 C 50.800781 13.332031 51.433594 13.601562 52 14.167969 C 52.566406 14.734375 52.832031 15.398438 52.832031 16.167969 L 52.832031 23 C 52.832031 23.765625 52.566406 24.398438 52 24.933594 C 51.433594 25.464844 50.765625 25.699219 50 25.699219 C 49.234375 25.699219 48.535156 25.433594 48 24.933594 C 47.464844 24.433594 47.132812 23.765625 47.132812 23 Z M 47.5 37.398438 C 50.398438 37.765625 52.832031 39.035156 54.800781 41.234375 C 56.765625 43.433594 57.765625 46.035156 57.765625 49 C 57.765625 51.765625 56.898438 54.199219 55.167969 56.332031 C 53.433594 58.433594 51.234375 59.800781 48.566406 60.367188 C 49.234375 60.433594 49.734375 60.5 50.035156 60.5 C 53.265625 60.5 56.066406 59.332031 58.367188 57.035156 C 60.667969 54.734375 61.832031 51.964844 61.832031 48.699219 C 61.832031 45.5 60.667969 42.765625 58.367188 40.464844 C 56.066406 38.199219 53.300781 37.066406 50.035156 37.066406 C 49.132812 37.132812 48.300781 37.234375 47.5 37.398438 Z M 65.535156 66.933594 C 65.535156 66.167969 65.800781 65.535156 66.300781 65.066406 C 66.800781 64.535156 67.433594 64.300781 68.167969 64.300781 C 68.964844 64.300781 69.632812 64.566406 70.167969 65.066406 L 75.035156 69.832031 C 75.566406 70.398438 75.832031 71.101562 75.832031 71.867188 C 75.832031 72.632812 75.566406 73.300781 75.035156 73.832031 C 73.699219 74.867188 72.367188 74.867188 71.035156 73.832031 L 66.300781 69.101562 C 65.800781 68.5 65.535156 67.800781 65.535156 66.933594 Z M 65.535156 30.535156 C 65.535156 29.699219 65.800781 29.035156 66.300781 28.566406 L 71.035156 23.667969 C 71.601562 23.132812 72.265625 22.867188 73 22.867188 C 73.800781 22.867188 74.464844 23.132812 75 23.699219 C 75.566406 24.265625 75.832031 24.933594 75.832031 25.699219 C 75.832031 26.535156 75.566406 27.234375 75.035156 27.765625 L 70.167969 32.535156 C 69.566406 33.066406 68.898438 33.332031 68.167969 33.332031 C 67.398438 33.332031 66.800781 33.066406 66.300781 32.535156 C 65.800781 32 65.535156 31.332031 65.535156 30.535156 Z M 73.066406 48.734375 C 73.066406 47.933594 73.332031 47.265625 73.867188 46.667969 C 74.398438 46.132812 75.035156 45.867188 75.765625 45.867188 L 82.5 45.867188 C 83.265625 45.867188 83.933594 46.167969 84.5 46.734375 C 85.066406 47.300781 85.367188 47.964844 85.367188 48.734375 C 85.367188 49.5 85.066406 50.167969 84.5 50.734375 C 83.933594 51.300781 83.265625 51.566406 82.5 51.566406 L 75.765625 51.566406 C 75 51.566406 74.332031 51.300781 73.832031 50.734375 C 73.332031 50.167969 73.066406 49.535156 73.066406 48.734375 Z M 73.066406 48.734375 "/>
</g>
</svg>
