<?xml version="1.0" encoding="UTF-8" standalone="no"?>
<svg
   xmlns:dc="http://purl.org/dc/elements/1.1/"
   xmlns:cc="http://creativecommons.org/ns#"
   xmlns:rdf="http://www.w3.org/1999/02/22-rdf-syntax-ns#"
   xmlns:svg="http://www.w3.org/2000/svg"
   xmlns="http://www.w3.org/2000/svg"
   xmlns:sodipodi="http://sodipodi.sourceforge.net/DTD/sodipodi-0.dtd"
   xmlns:inkscape="http://www.inkscape.org/namespaces/inkscape"
   width="100px"
   height="100px"
   viewBox="0 0 100 100"
   version="1.1"
   id="svg8713"
   sodipodi:docname="wi-sunrise.svg"
   inkscape:version="1.0.2 (e86c870879, 2021-01-15)">
  <metadata
     id="metadata8719">
    <rdf:RDF>
      <cc:Work
         rdf:about="">
        <dc:format>image/svg+xml</dc:format>
        <dc:type
           rdf:resource="http://purl.org/dc/dcmitype/StillImage" />
      </cc:Work>
    </rdf:RDF>
  </metadata>
  <defs
     id="defs8717" />
  <sodipodi:namedview
     pagecolor="#ffffff"
     bordercolor="#666666"
     borderopacity="1"
     objecttolerance="10"
     gridtolerance="10"
     guidetolerance="10"
     inkscape:pageopacity="0"
     inkscape:pageshadow="2"
     inkscape:window-width="1920"
     inkscape:window-height="1016"
     id="namedview8715"
     showgrid="false"
     inkscape:zoom="7.94"
     inkscape:cx="25.755668"
     inkscape:cy="50"
     inkscape:window-x="0"
     inkscape:window-y="0"
     inkscape:window-maximized="1"
     inkscape:current-layer="surface1" />
  <g
     id="surface1">
    <path
       style=" stroke:none;fill-rule:nonzero;fill:rgb(0%,0%,0%);fill-opacity:1;"
       d="M 76.632812,51.199219"
       id="path8735" />
    <path
       style="stroke:none;fill-rule:nonzero;fill:#ff8c00;fill-opacity:1"
       d="m 76.632812,51.199219 c 0,-0.898438 0.300782,-1.664063 0.902344,-2.300781 0.597656,-0.632813 1.332032,-0.964844 2.199219,-0.964844 h 7.832031 c 0.898438,0 1.667969,0.332031 2.300782,0.964844 0.632812,0.636718 0.964843,1.433593 0.964843,2.300781 0,0.933593 -0.332031,1.699219 -0.964843,2.367187 -0.632813,0.667969 -1.402344,1 -2.300782,1 h -7.832031 c -0.902344,0 -1.632813,-0.332031 -2.234375,-0.964844 -0.566406,-0.667968 -0.867188,-1.46875 -0.867188,-2.402343 z"
       id="path8733" />
    <path
       style="stroke:none;fill-rule:nonzero;fill:#ff8c00;fill-opacity:1"
       d="m 67.933594,30.132812 c 0,-0.832031 0.300781,-1.597656 0.898437,-2.300781 l 5.402344,-5.5 c 0.632813,-0.632812 1.433594,-0.964843 2.332031,-0.964843 0.898438,0 1.699219,0.332031 2.300782,0.964843 0.632812,0.632813 0.933593,1.402344 0.933593,2.300781 0,0.96875 -0.300781,1.765626 -0.867187,2.433594 l -5.601563,5.367188 c -0.699219,0.632812 -1.5,0.964844 -2.332031,0.964844 -0.898438,0 -1.632812,-0.296876 -2.199219,-0.933594 -0.566406,-0.632813 -0.867187,-1.398438 -0.867187,-2.332032 z"
       id="path8731" />
    <path
       style="stroke:none;fill-rule:nonzero;fill:#ff8c00;fill-opacity:1"
       d="m 46.765625,21.332031 v -7.664062 c 0,-0.96875 0.300781,-1.734375 0.933594,-2.367188 0.632812,-0.632812 1.433593,-0.933593 2.367187,-0.933593 0.933594,0 1.699219,0.300781 2.332032,0.933593 0.636718,0.632813 0.933593,1.464844 0.933593,2.398438 v 7.667969 c 0,0.964843 -0.296875,1.734374 -0.933593,2.367187 -0.597657,0.597656 -1.398438,0.933594 -2.332032,0.933594 -0.964844,0 -1.734375,-0.300781 -2.367187,-0.933594 -0.632813,-0.632813 -0.933594,-1.433594 -0.933594,-2.402344 z"
       id="path8729" />
    <path
       style="stroke:none;fill-rule:nonzero;fill:#ff8c00;fill-opacity:1"
       d="m 30,51.199219 c 0,3.234375 0.699219,6.167969 2.066406,8.800781 0.06641,0.398438 0.367188,0.601562 0.832032,0.601562 h 6.269531 c 0.230469,0 0.398437,-0.101562 0.5,-0.269531 0.09766,-0.199219 0.06641,-0.398437 -0.06641,-0.632812 -2.136718,-2.566407 -3.203124,-5.398438 -3.203124,-8.5 0,-3.734375 1.335937,-6.933594 4,-9.566407 2.667968,-2.632812 5.867187,-3.933593 9.636718,-3.933593 3.730469,0 6.898438,1.300781 9.53125,3.933593 2.632813,2.632813 3.96875,5.800782 3.96875,9.566407 0,3.132812 -1.070312,5.96875 -3.167968,8.5 -0.132813,0.234375 -0.167969,0.433593 -0.101563,0.632812 0.06641,0.203125 0.234375,0.269531 0.5,0.269531 h 6.335937 c 0.433594,0 0.699219,-0.203124 0.765626,-0.601562 C 69.332031,57.433594 70,54.5 70,51.199219 70,48.5 69.464844,45.898438 68.398438,43.464844 67.332031,41 65.898438,38.898438 64.132812,37.101562 c -1.765624,-1.769531 -3.898437,-3.203124 -6.367187,-4.269531 -2.464844,-1.066406 -5.03125,-1.566406 -7.730469,-1.566406 -2.703125,0 -5.300781,0.535156 -7.769531,1.566406 -2.464844,1.066407 -4.597656,2.46875 -6.398437,4.269531 C 34.066406,38.867188 32.632812,41 31.566406,43.464844 30.535156,45.898438 30,48.464844 30,51.199219 Z"
       id="path8727" />
    <path
       style="stroke:none;fill-rule:nonzero;fill:#3a5b46;fill-opacity:1"
       d="m 26.933594,69.601562 c 0,-0.933593 0.332031,-1.703124 0.964844,-2.269531 0.601562,-0.566406 1.335937,-0.867187 2.269531,-0.867187 h 8.765625 l 10.367187,-9.730469 c 0.332031,-0.269531 0.699219,-0.269531 1.132813,0 l 10.53125,9.730469 h 9.234375 c 0.902343,0 1.667969,0.300781 2.300781,0.933594 0.632812,0.601562 0.964844,1.367187 0.964844,2.234374 0,0.902344 -0.332032,1.667969 -0.964844,2.300782 -0.632812,0.632812 -1.398438,0.964844 -2.300781,0.964844 H 58.933594 c -0.332032,0 -0.667969,-0.06641 -0.96875,-0.230469 l -8.03125,-7.566407 -7.96875,7.566407 c -0.265625,0.164062 -0.566406,0.230469 -0.929688,0.230469 H 30.167969 c -0.902344,0 -1.667969,-0.332032 -2.300781,-0.964844 C 27.234375,71.265625 26.933594,70.5 26.933594,69.601562 Z"
       id="path8725" />
    <path
       style="stroke:none;fill-rule:nonzero;fill:#ff8c00;fill-opacity:1"
       d="m 20.265625,24.601562 c 0,-0.902343 0.300781,-1.667968 0.867187,-2.269531 0.765626,-0.664062 1.535157,-1 2.367188,-1 0.867188,0 1.632812,0.335938 2.265625,0.96875 l 5.46875,5.5 c 0.632813,0.734375 0.933594,1.5 0.933594,2.300781 0,0.933594 -0.300781,1.730469 -0.902344,2.332032 -0.597656,0.601562 -1.332031,0.933594 -2.199219,0.933594 -0.800781,0 -1.601562,-0.332032 -2.332031,-0.96875 L 21.132812,27.035156 C 20.566406,26.332031 20.265625,25.5 20.265625,24.601562 Z"
       id="path8723" />
    <path
       style="stroke:none;fill-rule:nonzero;fill:#ff8c00;fill-opacity:1"
       d="m 9.167969,51.199219 c 0,-0.832031 0.332031,-1.597657 1,-2.300781 0.730469,-0.632813 1.53125,-0.964844 2.332031,-0.964844 h 7.765625 c 0.902344,0 1.632813,0.332031 2.234375,0.964844 0.601562,0.636718 0.898438,1.433593 0.898438,2.300781 0,0.96875 -0.296876,1.765625 -0.898438,2.402343 -0.601562,0.632813 -1.367188,0.964844 -2.234375,0.964844 H 12.5 c -0.898438,0 -1.667969,-0.332031 -2.332031,-1 -0.667969,-0.699218 -1,-1.5 -1,-2.367187 z"
       id="path8710" />
  </g>
</svg>
