<?xml version="1.0" encoding="UTF-8"?>
<svg xmlns="http://www.w3.org/2000/svg" xmlns:xlink="http://www.w3.org/1999/xlink" width="100px" height="100px" viewBox="0 0 100 100" version="1.1">
<g id="surface1">
<path style=" stroke:none;fill-rule:nonzero;fill:rgb(0%,0%,0%);fill-opacity:1;" d="M 15.433594 56.367188 C 15.433594 60.066406 16.535156 63.367188 18.734375 66.265625 C 20.933594 69.167969 23.765625 71.167969 27.265625 72.234375 L 25.101562 77.832031 C 25 78.300781 25.167969 78.566406 25.566406 78.566406 L 32.667969 78.566406 L 29.199219 91.167969 L 30.132812 91.167969 L 43.367188 73.765625 C 43.5 73.632812 43.5 73.464844 43.433594 73.300781 C 43.367188 73.132812 43.199219 73.066406 42.964844 73.066406 L 35.699219 73.066406 L 43.964844 57.601562 C 44.167969 57.132812 44.035156 56.898438 43.5 56.898438 L 33.699219 56.898438 C 33.398438 56.898438 33.132812 57.066406 32.964844 57.367188 L 29.332031 66.933594 C 26.964844 66.332031 25 65.035156 23.433594 63.066406 C 21.867188 61.101562 21.101562 58.867188 21.101562 56.367188 C 21.101562 53.601562 22.035156 51.199219 23.898438 49.167969 C 25.765625 47.132812 28.101562 45.964844 30.898438 45.632812 L 32.632812 45.398438 C 33.066406 45.398438 33.300781 45.199219 33.300781 44.832031 L 33.535156 43.101562 C 33.867188 39.5 35.367188 36.464844 38.066406 34.035156 C 40.765625 31.601562 43.933594 30.367188 47.566406 30.367188 C 51.199219 30.367188 54.367188 31.601562 57.066406 34.035156 C 59.800781 36.464844 61.332031 39.5 61.734375 43.101562 L 61.933594 45.035156 C 61.933594 45.433594 62.132812 45.632812 62.566406 45.632812 L 67.933594 45.632812 C 70.964844 45.632812 73.535156 46.699219 75.667969 48.800781 C 77.800781 50.898438 78.867188 53.433594 78.867188 56.398438 C 78.867188 59.234375 77.867188 61.699219 75.898438 63.765625 C 73.933594 65.832031 71.5 66.964844 68.601562 67.199219 C 68.167969 67.199219 67.933594 67.398438 67.933594 67.832031 L 67.933594 72.398438 C 67.933594 72.765625 68.167969 72.964844 68.601562 72.964844 C 70.765625 72.898438 72.832031 72.398438 74.800781 71.5 C 76.765625 70.601562 78.464844 69.398438 79.867188 67.933594 C 81.265625 66.464844 82.398438 64.734375 83.234375 62.699219 C 84.066406 60.699219 84.5 58.601562 84.5 56.433594 C 84.5 53.433594 83.765625 50.667969 82.265625 48.132812 C 80.765625 45.601562 78.765625 43.601562 76.234375 42.132812 C 73.699219 40.667969 70.933594 39.933594 67.964844 39.933594 L 66.898438 39.933594 C 65.800781 35.5 63.464844 31.867188 59.867188 29.066406 C 56.265625 26.265625 52.199219 24.832031 47.601562 24.832031 C 42.898438 24.832031 38.699219 26.300781 35.066406 29.199219 C 31.433594 32.101562 29.101562 35.832031 28.066406 40.398438 C 24.398438 41.265625 21.367188 43.167969 18.964844 46.167969 C 16.566406 49.167969 15.433594 52.535156 15.433594 56.367188 Z M 42.632812 89.234375 C 42.632812 89.765625 42.800781 90.265625 43.132812 90.765625 C 43.464844 91.265625 44 91.632812 44.667969 91.832031 C 45.132812 91.933594 45.398438 92 45.5 92 C 45.800781 92 46.199219 91.898438 46.765625 91.667969 C 47.464844 91.367188 47.933594 90.765625 48.167969 89.933594 L 49.101562 86.433594 C 49.300781 85.699219 49.234375 85 48.832031 84.332031 C 48.433594 83.667969 47.867188 83.234375 47.066406 83 C 46.332031 82.800781 45.632812 82.867188 44.964844 83.265625 C 44.300781 83.667969 43.832031 84.234375 43.601562 85.035156 L 42.699219 88.367188 C 42.667969 88.933594 42.632812 89.234375 42.632812 89.234375 Z M 47.101562 73.332031 C 47.101562 73.800781 47.265625 74.300781 47.601562 74.800781 C 47.933594 75.300781 48.433594 75.667969 49.101562 75.898438 C 49.832031 76.132812 50.566406 76.101562 51.234375 75.734375 C 51.898438 75.367188 52.332031 74.800781 52.566406 74 L 53.566406 70.535156 C 53.765625 69.800781 53.667969 69.101562 53.300781 68.433594 C 52.898438 67.765625 52.300781 67.300781 51.535156 67.066406 C 50.765625 66.867188 50.066406 66.933594 49.367188 67.332031 C 48.667969 67.734375 48.234375 68.300781 48 69.066406 L 47.199219 72.433594 C 47.132812 73 47.101562 73.300781 47.101562 73.332031 Z M 56.5 78.832031 C 56.5 79.398438 56.667969 79.964844 57.035156 80.535156 C 57.398438 81.101562 57.933594 81.464844 58.601562 81.699219 C 58.667969 81.699219 58.800781 81.734375 59 81.765625 C 59.167969 81.800781 59.300781 81.832031 59.398438 81.832031 C 59.832031 81.832031 60.265625 81.765625 60.667969 81.566406 C 61.300781 81.332031 61.765625 80.699219 62.035156 79.667969 L 62.867188 76.300781 C 63.101562 75.535156 63.035156 74.800781 62.667969 74.101562 C 62.300781 73.398438 61.734375 72.933594 61 72.699219 C 60.167969 72.5 59.398438 72.601562 58.734375 72.964844 C 58.066406 73.367188 57.632812 73.964844 57.5 74.734375 L 56.601562 78.167969 C 56.535156 78.367188 56.5 78.601562 56.5 78.832031 Z M 61.035156 62.867188 C 61 63.398438 61.167969 63.898438 61.535156 64.433594 C 61.898438 64.964844 62.433594 65.367188 63.167969 65.699219 C 63.433594 65.832031 63.699219 65.898438 64.035156 65.898438 C 64.398438 65.898438 64.765625 65.800781 65.167969 65.632812 C 65.867188 65.300781 66.332031 64.667969 66.632812 63.734375 L 67.601562 60.300781 C 67.667969 59.867188 67.699219 59.632812 67.699219 59.566406 C 67.699219 59 67.535156 58.464844 67.167969 57.933594 C 66.800781 57.398438 66.265625 57.035156 65.535156 56.832031 C 65.464844 56.832031 65.332031 56.800781 65.167969 56.765625 C 64.964844 56.667969 64.832031 56.667969 64.734375 56.667969 C 64.167969 56.667969 63.632812 56.832031 63.101562 57.167969 C 62.566406 57.5 62.199219 58.035156 62 58.765625 L 61.101562 62.132812 C 61.066406 62.398438 61.035156 62.632812 61.035156 62.867188 Z M 61.035156 62.867188 "/>
</g>
</svg>
