<?xml version="1.0" encoding="UTF-8"?>
<svg xmlns="http://www.w3.org/2000/svg" xmlns:xlink="http://www.w3.org/1999/xlink" width="100px" height="100px" viewBox="0 0 100 100" version="1.1">
<g id="surface1">
<path style=" stroke:none;fill-rule:nonzero;fill:rgb(0%,0%,0%);fill-opacity:1;" d="M 21.167969 41.535156 C 21.167969 38.398438 22.167969 35.632812 24.167969 33.199219 C 26.167969 30.765625 28.734375 29.167969 31.867188 28.433594 C 32.632812 24.734375 34.5 21.667969 37.535156 19.265625 C 40.566406 16.867188 44.035156 15.667969 47.933594 15.667969 C 51.667969 15.667969 55.035156 16.832031 57.933594 19.132812 C 60.867188 21.433594 62.765625 24.433594 63.667969 28.132812 L 64.601562 28.132812 C 67.132812 28.132812 69.464844 28.667969 71.667969 29.765625 C 73.867188 30.867188 75.601562 32.332031 76.898438 34.234375 C 78.199219 36.132812 78.867188 38.167969 78.867188 40.367188 C 78.867188 44.101562 77.433594 47.300781 74.566406 49.898438 C 74.566406 51.066406 74.199219 52.398438 73.5 53.898438 C 72.765625 55.398438 71.832031 56.765625 70.601562 58 C 69.398438 59.234375 68.167969 59.964844 66.933594 60.265625 C 66.535156 62.332031 65.566406 64.066406 64.066406 65.5 C 62.566406 66.933594 60.765625 67.867188 58.632812 68.332031 C 59.632812 69.332031 60.132812 70.5 60.132812 71.867188 C 60.132812 73.5 59.566406 74.898438 58.398438 76.066406 C 57.234375 77.234375 55.832031 77.800781 54.167969 77.800781 C 52.535156 77.800781 51.132812 77.234375 49.964844 76.066406 C 48.800781 74.898438 48.199219 73.5 48.199219 71.867188 C 48.199219 71.667969 48.234375 71.398438 48.332031 71 C 48.433594 70.601562 48.464844 70.300781 48.464844 70.101562 L 48.199219 70.101562 C 46.234375 70.101562 44.566406 69.398438 43.167969 68 C 41.765625 66.601562 41.066406 64.898438 41.066406 62.964844 C 41.066406 62.199219 41.464844 61.035156 42.300781 59.433594 C 40.667969 58.566406 39.367188 57.199219 38.398438 55.234375 L 34.234375 55.234375 C 30.601562 54.933594 27.5 53.464844 24.964844 50.898438 C 22.433594 48.300781 21.167969 45.167969 21.167969 41.535156 Z M 21.167969 41.535156 "/>
</g>
</svg>
