<?xml version="1.0" encoding="UTF-8"?>
<svg xmlns="http://www.w3.org/2000/svg" xmlns:xlink="http://www.w3.org/1999/xlink" width="100px" height="100px" viewBox="0 0 100 100" version="1.1">
<g id="surface1">
<path style=" stroke:none;fill-rule:nonzero;fill:rgb(0%,0%,0%);fill-opacity:1;" d="M 9.601562 51.566406 C 9.601562 50.632812 9.933594 49.898438 10.601562 49.300781 C 11.167969 48.699219 11.933594 48.433594 12.867188 48.433594 L 20.566406 48.433594 C 21.464844 48.433594 22.199219 48.734375 22.800781 49.332031 C 23.367188 49.933594 23.667969 50.667969 23.667969 51.566406 C 23.667969 52.5 23.367188 53.300781 22.765625 53.933594 C 22.167969 54.566406 21.433594 54.898438 20.566406 54.898438 L 12.898438 54.898438 C 12 54.898438 11.234375 54.566406 10.601562 53.898438 C 9.933594 53.234375 9.601562 52.464844 9.601562 51.566406 Z M 20.566406 25.367188 C 20.566406 24.433594 20.832031 23.667969 21.398438 23.101562 C 22.066406 22.433594 22.832031 22.101562 23.734375 22.101562 C 24.699219 22.101562 25.433594 22.433594 26 23.101562 L 31.398438 28.535156 C 32.933594 30 32.933594 31.5 31.398438 33.035156 C 30.765625 33.667969 30.066406 33.964844 29.234375 33.964844 C 28.5 33.964844 27.765625 33.667969 26.964844 33.035156 L 21.433594 27.632812 C 20.867188 27.035156 20.566406 26.265625 20.566406 25.367188 Z M 27.132812 69.632812 C 27.132812 68.765625 27.464844 68 28.132812 67.332031 C 28.734375 66.734375 29.5 66.433594 30.398438 66.433594 L 41.132812 66.433594 C 41.5 66.433594 41.800781 66.5 42.066406 66.699219 L 49.898438 74.101562 L 57.867188 66.667969 C 58.101562 66.5 58.433594 66.398438 58.832031 66.398438 L 69.832031 66.398438 C 70.734375 66.398438 71.5 66.699219 72.132812 67.332031 C 72.765625 67.964844 73.101562 68.734375 73.101562 69.601562 C 73.101562 70.5 72.765625 71.265625 72.132812 71.898438 C 71.5 72.535156 70.734375 72.867188 69.832031 72.867188 L 60.898438 72.867188 L 50.433594 82.332031 C 50.035156 82.632812 49.667969 82.632812 49.332031 82.332031 L 39.066406 72.867188 L 30.398438 72.867188 C 29.5 72.867188 28.734375 72.535156 28.101562 71.898438 C 27.464844 71.300781 27.132812 70.535156 27.132812 69.632812 Z M 30.265625 51.566406 C 30.265625 54.867188 30.898438 57.800781 32.199219 60.300781 C 32.398438 60.667969 32.699219 60.832031 33.101562 60.832031 L 39.332031 60.832031 C 39.601562 60.832031 39.765625 60.765625 39.832031 60.601562 C 39.898438 60.433594 39.800781 60.234375 39.601562 60 C 37.632812 57.535156 36.632812 54.699219 36.632812 51.566406 C 36.632812 47.898438 37.933594 44.765625 40.566406 42.199219 C 43.199219 39.632812 46.367188 38.332031 50.066406 38.332031 C 53.734375 38.332031 56.867188 39.632812 59.5 42.199219 C 62.101562 44.800781 63.433594 47.898438 63.433594 51.535156 C 63.433594 54.667969 62.433594 57.5 60.464844 59.964844 C 60.234375 60.199219 60.167969 60.398438 60.234375 60.566406 C 60.300781 60.734375 60.464844 60.800781 60.734375 60.800781 L 67 60.800781 C 67.433594 60.800781 67.699219 60.632812 67.800781 60.265625 C 69.167969 57.667969 69.867188 54.734375 69.867188 51.535156 C 69.867188 48.898438 69.332031 46.332031 68.300781 43.898438 C 67.265625 41.464844 65.832031 39.332031 64.066406 37.566406 C 62.300781 35.800781 60.199219 34.398438 57.765625 33.332031 C 55.332031 32.265625 52.765625 31.765625 50.101562 31.765625 C 47.433594 31.765625 44.867188 32.300781 42.433594 33.332031 C 40 34.398438 37.898438 35.800781 36.132812 37.566406 C 34.367188 39.332031 32.964844 41.433594 31.898438 43.898438 C 30.832031 46.367188 30.265625 48.933594 30.265625 51.566406 Z M 46.800781 22.199219 L 46.800781 14.433594 C 46.800781 13.535156 47.132812 12.765625 47.765625 12.132812 C 48.398438 11.5 49.167969 11.167969 50.066406 11.167969 C 50.964844 11.167969 51.734375 11.5 52.367188 12.132812 C 53 12.765625 53.332031 13.535156 53.332031 14.433594 L 53.332031 22.167969 C 53.332031 23.066406 53 23.832031 52.367188 24.464844 C 51.734375 25.101562 50.964844 25.433594 50.066406 25.433594 C 49.167969 25.433594 48.398438 25.101562 47.765625 24.464844 C 47.101562 23.832031 46.800781 23.101562 46.800781 22.199219 Z M 67.699219 30.800781 C 67.699219 29.867188 68 29.101562 68.566406 28.566406 L 74 23.132812 C 74.535156 22.464844 75.300781 22.132812 76.265625 22.132812 C 77.167969 22.132812 77.933594 22.464844 78.535156 23.101562 C 79.132812 23.734375 79.433594 24.5 79.433594 25.398438 C 79.433594 26.332031 79.167969 27.101562 78.601562 27.667969 L 73.066406 33.101562 C 72.300781 33.734375 71.535156 34.035156 70.765625 34.035156 C 69.898438 34.035156 69.167969 33.734375 68.566406 33.101562 C 68 32.464844 67.699219 31.699219 67.699219 30.800781 Z M 76.332031 51.566406 C 76.332031 50.667969 76.632812 49.933594 77.199219 49.332031 C 77.765625 48.734375 78.535156 48.433594 79.433594 48.433594 L 87.167969 48.433594 C 88.066406 48.433594 88.832031 48.734375 89.464844 49.332031 C 90.101562 49.933594 90.433594 50.667969 90.433594 51.566406 C 90.433594 52.464844 90.101562 53.234375 89.464844 53.898438 C 88.832031 54.566406 88.066406 54.898438 87.167969 54.898438 L 79.433594 54.898438 C 78.566406 54.898438 77.832031 54.566406 77.234375 53.933594 C 76.632812 53.300781 76.332031 52.5 76.332031 51.566406 Z M 76.332031 51.566406 "/>
</g>
</svg>
