<?xml version="1.0" encoding="UTF-8"?>
<svg xmlns="http://www.w3.org/2000/svg" xmlns:xlink="http://www.w3.org/1999/xlink" width="100px" height="100px" viewBox="0 0 100 100" version="1.1">
<g id="surface1">
<path style=" stroke:none;fill-rule:nonzero;fill:rgb(0%,0%,0%);fill-opacity:1;" d="M 10.332031 56.566406 C 10.332031 57.367188 10.632812 58.066406 11.265625 58.632812 C 11.800781 59.265625 12.5 59.566406 13.367188 59.566406 L 62.332031 59.566406 C 63.300781 59.566406 64.101562 59.898438 64.765625 60.566406 C 65.433594 61.234375 65.765625 62.066406 65.765625 63.035156 C 65.765625 64 65.433594 64.800781 64.765625 65.433594 C 64.101562 66.066406 63.300781 66.398438 62.300781 66.398438 C 61.332031 66.398438 60.5 66.066406 59.867188 65.433594 C 59.332031 64.832031 58.667969 64.566406 57.867188 64.566406 C 57.035156 64.566406 56.332031 64.867188 55.734375 65.433594 C 55.132812 66 54.832031 66.699219 54.832031 67.464844 C 54.832031 68.300781 55.132812 69 55.765625 69.566406 C 57.632812 71.398438 59.832031 72.332031 62.300781 72.332031 C 64.898438 72.332031 67.132812 71.433594 69 69.632812 C 70.867188 67.832031 71.765625 65.667969 71.765625 63.066406 C 71.765625 60.464844 70.832031 58.265625 68.964844 56.398438 C 67.101562 54.535156 64.867188 53.601562 62.300781 53.601562 L 13.367188 53.601562 C 12.535156 53.601562 11.832031 53.898438 11.234375 54.464844 C 10.632812 55.035156 10.332031 55.734375 10.332031 56.566406 Z M 10.332031 45.632812 C 10.332031 46.398438 10.632812 47.066406 11.265625 47.667969 C 11.832031 48.265625 12.535156 48.535156 13.367188 48.535156 L 80.167969 48.535156 C 82.765625 48.535156 85 47.632812 86.867188 45.800781 C 88.734375 44 89.667969 41.800781 89.667969 39.234375 C 89.667969 36.667969 88.734375 34.433594 86.867188 32.601562 C 85 30.765625 82.765625 29.832031 80.167969 29.832031 C 77.601562 29.832031 75.433594 30.734375 73.667969 32.5 C 73.066406 33.035156 72.765625 33.765625 72.765625 34.734375 C 72.765625 35.601562 73.066406 36.300781 73.632812 36.832031 C 74.199219 37.367188 74.898438 37.632812 75.734375 37.632812 C 76.535156 37.632812 77.234375 37.367188 77.832031 36.832031 C 78.464844 36.132812 79.234375 35.800781 80.167969 35.800781 C 81.132812 35.800781 81.933594 36.132812 82.601562 36.800781 C 83.265625 37.464844 83.601562 38.265625 83.601562 39.234375 C 83.601562 40.199219 83.265625 41 82.601562 41.632812 C 81.933594 42.265625 81.132812 42.601562 80.167969 42.601562 L 13.367188 42.601562 C 12.535156 42.601562 11.832031 42.898438 11.234375 43.464844 C 10.632812 44.101562 10.332031 44.800781 10.332031 45.632812 Z M 15.566406 68.699219 C 15.566406 69.5 15.832031 70.132812 16.367188 70.632812 C 16.898438 71.167969 17.566406 71.433594 18.300781 71.433594 C 19.101562 71.433594 19.800781 71.167969 20.367188 70.667969 C 20.933594 70.167969 21.199219 69.5 21.199219 68.699219 C 21.199219 67.933594 20.898438 67.265625 20.332031 66.699219 C 19.765625 66.132812 19.066406 65.867188 18.300781 65.867188 C 17.566406 65.867188 16.898438 66.132812 16.367188 66.699219 C 15.832031 67.265625 15.566406 67.933594 15.566406 68.699219 Z M 18.734375 35.601562 C 18.734375 36.398438 19 37.035156 19.535156 37.535156 C 20.066406 38.066406 20.734375 38.332031 21.464844 38.332031 C 22.265625 38.332031 22.964844 38.066406 23.5 37.566406 C 24.066406 37.035156 24.332031 36.398438 24.332031 35.601562 C 24.332031 34.832031 24.066406 34.167969 23.5 33.601562 C 22.964844 33.066406 22.265625 32.765625 21.5 32.765625 C 20.765625 32.765625 20.101562 33.035156 19.566406 33.601562 C 19 34.167969 18.734375 34.832031 18.734375 35.601562 Z M 28.832031 27.898438 C 28.832031 28.699219 29.101562 29.332031 29.632812 29.832031 C 30.167969 30.398438 30.832031 30.667969 31.566406 30.667969 C 32.367188 30.667969 33.066406 30.398438 33.632812 29.898438 C 34.199219 29.367188 34.464844 28.734375 34.464844 27.933594 C 34.464844 27.167969 34.167969 26.5 33.601562 25.933594 C 33.066406 25.367188 32.367188 25.101562 31.566406 25.101562 C 30.832031 25.101562 30.167969 25.367188 29.632812 25.933594 C 29.101562 26.464844 28.832031 27.132812 28.832031 27.898438 Z M 29.132812 66.566406 C 29.132812 67.332031 29.398438 68 29.964844 68.5 C 30.5 69.035156 31.132812 69.300781 31.867188 69.300781 C 32.667969 69.300781 33.367188 69.035156 33.933594 68.535156 C 34.5 68 34.765625 67.367188 34.765625 66.566406 C 34.765625 65.800781 34.464844 65.132812 33.898438 64.566406 C 33.332031 64 32.632812 63.734375 31.867188 63.734375 C 31.132812 63.734375 30.464844 64 29.933594 64.566406 C 29.398438 65.132812 29.132812 65.800781 29.132812 66.566406 Z M 43.066406 33.800781 C 43.066406 34.601562 43.332031 35.234375 43.867188 35.734375 C 44.398438 36.265625 45.066406 36.535156 45.800781 36.535156 C 46.601562 36.535156 47.300781 36.265625 47.867188 35.765625 C 48.433594 35.265625 48.699219 34.601562 48.699219 33.800781 C 48.699219 33.035156 48.398438 32.367188 47.832031 31.800781 C 47.265625 31.234375 46.566406 30.964844 45.800781 30.964844 C 45.035156 30.964844 44.398438 31.234375 43.867188 31.800781 C 43.332031 32.367188 43.066406 33.035156 43.066406 33.800781 Z M 44.132812 70.433594 C 44.132812 71.199219 44.398438 71.832031 44.964844 72.367188 C 45.5 72.898438 46.132812 73.167969 46.867188 73.167969 C 47.667969 73.167969 48.367188 72.898438 48.933594 72.398438 C 49.5 71.867188 49.765625 71.234375 49.765625 70.433594 C 49.765625 69.667969 49.464844 69 48.898438 68.433594 C 48.332031 67.867188 47.632812 67.601562 46.867188 67.601562 C 46.132812 67.601562 45.464844 67.867188 44.933594 68.433594 C 44.398438 69 44.132812 69.667969 44.132812 70.433594 Z M 59.066406 33.265625 C 59.066406 34.035156 59.332031 34.667969 59.867188 35.167969 C 60.433594 35.734375 61.066406 36 61.800781 36 C 62.601562 36 63.300781 35.734375 63.867188 35.234375 C 64.433594 34.699219 64.699219 34.066406 64.699219 33.265625 C 64.699219 32.5 64.398438 31.832031 63.832031 31.265625 C 63.265625 30.699219 62.566406 30.433594 61.800781 30.433594 C 61.066406 30.433594 60.433594 30.699219 59.867188 31.265625 C 59.367188 31.832031 59.066406 32.5 59.066406 33.265625 Z M 76.035156 56.800781 C 76.035156 57.601562 76.300781 58.234375 76.832031 58.734375 C 77.367188 59.265625 78.035156 59.535156 78.765625 59.535156 C 79.566406 59.535156 80.265625 59.265625 80.800781 58.765625 C 81.367188 58.234375 81.632812 57.601562 81.632812 56.800781 C 81.632812 56.035156 81.367188 55.367188 80.800781 54.800781 C 80.234375 54.234375 79.566406 53.964844 78.765625 53.964844 C 78 53.964844 77.367188 54.234375 76.832031 54.800781 C 76.332031 55.367188 76.035156 56.035156 76.035156 56.800781 Z M 76.035156 56.800781 "/>
</g>
</svg>
