<?xml version="1.0" encoding="UTF-8"?>
<svg xmlns="http://www.w3.org/2000/svg" xmlns:xlink="http://www.w3.org/1999/xlink" width="100px" height="100px" viewBox="0 0 100 100" version="1.1">
<g id="surface1">
<path style=" stroke:none;fill-rule:nonzero;fill:rgb(0%,0%,0%);fill-opacity:1;" d="M 10.332031 56.566406 C 10.332031 57.367188 10.632812 58.066406 11.265625 58.632812 C 11.800781 59.265625 12.5 59.566406 13.367188 59.566406 L 62.332031 59.566406 C 63.300781 59.566406 64.101562 59.898438 64.765625 60.566406 C 65.433594 61.234375 65.765625 62.066406 65.765625 63.035156 C 65.765625 64 65.433594 64.800781 64.765625 65.433594 C 64.101562 66.066406 63.300781 66.398438 62.300781 66.398438 C 61.332031 66.398438 60.5 66.066406 59.867188 65.433594 C 59.332031 64.832031 58.667969 64.566406 57.867188 64.566406 C 57.035156 64.566406 56.332031 64.867188 55.734375 65.433594 C 55.132812 66 54.832031 66.699219 54.832031 67.464844 C 54.832031 68.300781 55.132812 69 55.765625 69.566406 C 57.632812 71.398438 59.832031 72.332031 62.300781 72.332031 C 64.898438 72.332031 67.132812 71.433594 69 69.632812 C 70.867188 67.832031 71.765625 65.667969 71.765625 63.066406 C 71.765625 60.464844 70.832031 58.265625 68.964844 56.398438 C 67.101562 54.535156 64.867188 53.601562 62.300781 53.601562 L 13.367188 53.601562 C 12.535156 53.601562 11.832031 53.898438 11.234375 54.464844 C 10.632812 55.035156 10.332031 55.734375 10.332031 56.566406 Z M 10.332031 45.632812 C 10.332031 46.398438 10.632812 47.066406 11.265625 47.667969 C 11.832031 48.265625 12.535156 48.535156 13.367188 48.535156 L 80.167969 48.535156 C 82.765625 48.535156 85 47.632812 86.867188 45.800781 C 88.734375 44 89.667969 41.800781 89.667969 39.234375 C 89.667969 36.667969 88.734375 34.433594 86.867188 32.601562 C 85 30.765625 82.765625 29.832031 80.167969 29.832031 C 77.601562 29.832031 75.433594 30.734375 73.667969 32.5 C 73.066406 33.035156 72.765625 33.765625 72.765625 34.734375 C 72.765625 35.601562 73.066406 36.300781 73.632812 36.832031 C 74.199219 37.367188 74.898438 37.632812 75.734375 37.632812 C 76.535156 37.632812 77.234375 37.367188 77.832031 36.832031 C 78.464844 36.132812 79.234375 35.800781 80.167969 35.800781 C 81.132812 35.800781 81.933594 36.132812 82.601562 36.800781 C 83.265625 37.464844 83.601562 38.265625 83.601562 39.234375 C 83.601562 40.199219 83.265625 41 82.601562 41.632812 C 81.933594 42.265625 81.132812 42.601562 80.167969 42.601562 L 13.367188 42.601562 C 12.535156 42.601562 11.832031 42.898438 11.234375 43.464844 C 10.632812 44.101562 10.332031 44.800781 10.332031 45.632812 Z M 10.332031 45.632812 "/>
</g>
</svg>
