<?xml version="1.0" encoding="UTF-8" standalone="no"?>
<svg
   xmlns:dc="http://purl.org/dc/elements/1.1/"
   xmlns:cc="http://creativecommons.org/ns#"
   xmlns:rdf="http://www.w3.org/1999/02/22-rdf-syntax-ns#"
   xmlns:svg="http://www.w3.org/2000/svg"
   xmlns="http://www.w3.org/2000/svg"
   xmlns:sodipodi="http://sodipodi.sourceforge.net/DTD/sodipodi-0.dtd"
   xmlns:inkscape="http://www.inkscape.org/namespaces/inkscape"
   width="100px"
   height="100px"
   viewBox="0 0 100 100"
   version="1.1"
   id="svg9388"
   sodipodi:docname="wi-sunset.svg"
   inkscape:version="1.0.2 (e86c870879, 2021-01-15)">
  <metadata
     id="metadata9394">
    <rdf:RDF>
      <cc:Work
         rdf:about="">
        <dc:format>image/svg+xml</dc:format>
        <dc:type
           rdf:resource="http://purl.org/dc/dcmitype/StillImage" />
      </cc:Work>
    </rdf:RDF>
  </metadata>
  <defs
     id="defs9392" />
  <sodipodi:namedview
     pagecolor="#ffffff"
     bordercolor="#666666"
     borderopacity="1"
     objecttolerance="10"
     gridtolerance="10"
     guidetolerance="10"
     inkscape:pageopacity="0"
     inkscape:pageshadow="2"
     inkscape:window-width="1920"
     inkscape:window-height="1016"
     id="namedview9390"
     showgrid="false"
     inkscape:zoom="7.94"
     inkscape:cx="25.755668"
     inkscape:cy="50"
     inkscape:window-x="0"
     inkscape:window-y="0"
     inkscape:window-maximized="1"
     inkscape:current-layer="svg9388" />
  <g
     id="surface1">
    <path
       style=" stroke:none;fill-rule:nonzero;fill:rgb(0%,0%,0%);fill-opacity:1;"
       d="M 76.332031,51.566406"
       id="path9410" />
    <path
       style="stroke:none;fill-rule:nonzero;fill:#ff8c00;fill-opacity:1"
       d="m 76.332031,51.566406 c 0,-0.898437 0.300781,-1.632812 0.867188,-2.234375 0.566406,-0.597656 1.335937,-0.898437 2.234375,-0.898437 h 7.734375 c 0.898437,0 1.664062,0.300781 2.296875,0.898437 0.636718,0.601563 0.96875,1.335938 0.96875,2.234375 0,0.898438 -0.332032,1.667969 -0.96875,2.332032 -0.632813,0.667968 -1.398438,1 -2.296875,1 h -7.734375 c -0.867188,0 -1.601563,-0.332032 -2.199219,-0.964844 C 76.632812,53.300781 76.332031,52.5 76.332031,51.566406 Z"
       id="path9408" />
    <path
       style="stroke:none;fill-rule:nonzero;fill:#ff8c00;fill-opacity:1"
       d="m 67.699219,30.800781 c 0,-0.933593 0.300781,-1.699219 0.867187,-2.234375 L 74,23.132812 c 0.535156,-0.667968 1.300781,-1 2.265625,-1 0.902344,0 1.667969,0.332032 2.269531,0.96875 0.597656,0.632813 0.898438,1.398438 0.898438,2.296876 0,0.933593 -0.265625,1.703124 -0.832032,2.269531 l -5.535156,5.433593 c -0.765625,0.632813 -1.53125,0.933594 -2.300781,0.933594 -0.867187,0 -1.597656,-0.300781 -2.199219,-0.933594 C 68,32.464844 67.699219,31.699219 67.699219,30.800781 Z"
       id="path9406" />
    <path
       style="stroke:none;fill-rule:nonzero;fill:#ff8c00;fill-opacity:1"
       d="m 46.800781,22.199219 v -7.765625 c 0,-0.898438 0.332031,-1.667969 0.964844,-2.300782 0.632813,-0.632812 1.402344,-0.964843 2.300781,-0.964843 0.898438,0 1.667969,0.332031 2.300782,0.964843 0.632812,0.632813 0.964843,1.402344 0.964843,2.300782 v 7.734375 c 0,0.898437 -0.332031,1.664062 -0.964843,2.296875 -0.632813,0.636718 -1.402344,0.96875 -2.300782,0.96875 -0.898437,0 -1.667968,-0.332032 -2.300781,-0.96875 -0.664063,-0.632813 -0.964844,-1.363282 -0.964844,-2.265625 z"
       id="path9404" />
    <path
       style="stroke:none;fill-rule:nonzero;fill:#ff8c00;fill-opacity:1"
       d="m 30.265625,51.566406 c 0,3.300782 0.632813,6.234375 1.933594,8.734375 0.199219,0.367188 0.5,0.53125 0.902343,0.53125 h 6.230469 c 0.269531,0 0.433594,-0.06641 0.5,-0.230469 0.06641,-0.167968 -0.03125,-0.367187 -0.230469,-0.601562 -1.96875,-2.464844 -2.96875,-5.300781 -2.96875,-8.433594 0,-3.667968 1.300782,-6.800781 3.933594,-9.367187 2.632813,-2.566407 5.800782,-3.867188 9.5,-3.867188 3.667969,0 6.800782,1.300781 9.433594,3.867188 2.601562,2.601562 3.933594,5.699219 3.933594,9.335937 0,3.132813 -1,5.964844 -2.96875,8.429688 -0.230469,0.234375 -0.296875,0.433594 -0.230469,0.601562 0.06641,0.167969 0.230469,0.234375 0.5,0.234375 H 67 c 0.433594,0 0.699219,-0.167969 0.800781,-0.535156 1.367188,-2.597656 2.066407,-5.53125 2.066407,-8.730469 0,-2.636718 -0.535157,-5.203125 -1.566407,-7.636718 -1.035156,-2.433594 -2.46875,-4.566407 -4.234375,-6.332032 -1.765625,-1.765625 -3.867187,-3.167968 -6.300781,-4.234375 -2.433594,-1.066406 -5,-1.566406 -7.664063,-1.566406 -2.667968,0 -5.234374,0.535156 -7.667968,1.566406 -2.433594,1.066407 -4.535156,2.46875 -6.300782,4.234375 -1.765624,1.765625 -3.167968,3.867188 -4.234374,6.332032 -1.066407,2.46875 -1.632813,5.035156 -1.632813,7.667968 z"
       id="path9402" />
    <path
       style="stroke:none;fill-rule:nonzero;fill:#3a5b46;fill-opacity:1"
       d="m 27.132812,69.632812 c 0,-0.867187 0.332032,-1.632812 1,-2.300781 0.601563,-0.597656 1.367188,-0.898437 2.265626,-0.898437 h 10.734374 c 0.367188,0 0.667969,0.06641 0.933594,0.265625 l 7.832032,7.402343 7.96875,-7.433593 C 58.101562,66.5 58.433594,66.398438 58.832031,66.398438 h 11 c 0.902344,0 1.667969,0.300781 2.300781,0.933593 0.632813,0.632813 0.96875,1.402344 0.96875,2.269531 0,0.898438 -0.335937,1.664063 -0.96875,2.296876 -0.632812,0.636718 -1.398437,0.96875 -2.300781,0.96875 h -8.933593 l -10.464844,9.464843 c -0.398438,0.300781 -0.765625,0.300781 -1.101563,0 L 39.066406,72.867188 h -8.667968 c -0.898438,0 -1.664063,-0.332032 -2.296876,-0.96875 -0.636718,-0.597657 -0.96875,-1.363282 -0.96875,-2.265626 z"
       id="path9400" />
    <path
       style="stroke:none;fill-rule:nonzero;fill:#ff8c00;fill-opacity:1"
       d="m 20.566406,25.367188 c 0,-0.933594 0.265625,-1.699219 0.832032,-2.265626 0.667968,-0.667968 1.433593,-1 2.335937,-1 0.964844,0 1.699219,0.332032 2.265625,1 l 5.398438,5.433594 c 1.535156,1.464844 1.535156,2.964844 0,4.5 -0.632813,0.632813 -1.332032,0.929688 -2.164063,0.929688 -0.734375,0 -1.46875,-0.296875 -2.269531,-0.929688 l -5.53125,-5.402344 c -0.566406,-0.597656 -0.867188,-1.367187 -0.867188,-2.265624 z"
       id="path9398" />
    <path
       style="stroke:none;fill-rule:nonzero;fill:#ff8c00;fill-opacity:1"
       d="m 9.601562,51.566406 c 0,-0.933594 0.332032,-1.667968 1,-2.265625 0.566407,-0.601562 1.332032,-0.867187 2.265626,-0.867187 h 7.699218 c 0.898438,0 1.632813,0.300781 2.234375,0.898437 0.566407,0.601563 0.867188,1.335938 0.867188,2.234375 0,0.933594 -0.300781,1.734375 -0.902344,2.367188 -0.597656,0.632812 -1.332031,0.964844 -2.199219,0.964844 h -7.667968 c -0.898438,0 -1.664063,-0.332032 -2.296876,-1 -0.667968,-0.664063 -1,-1.433594 -1,-2.332032 z"
       id="path9385" />
  </g>
</svg>
