<?xml version="1.0" encoding="UTF-8"?>
<svg xmlns="http://www.w3.org/2000/svg" xmlns:xlink="http://www.w3.org/1999/xlink" width="100px" height="100px" viewBox="0 0 100 100" version="1.1">
<g id="surface1">
<path style=" stroke:none;fill-rule:nonzero;fill:rgb(0%,0%,0%);fill-opacity:1;" d="M 15.464844 56.367188 C 15.464844 52.535156 16.667969 49.132812 19.066406 46.132812 C 21.464844 43.132812 24.5 41.234375 28.167969 40.367188 C 29.199219 35.832031 31.535156 32.101562 35.167969 29.199219 C 38.800781 26.300781 43 24.832031 47.699219 24.832031 C 52.300781 24.832031 56.367188 26.265625 59.964844 29.066406 C 63.535156 31.898438 65.898438 35.535156 67 40 L 68.035156 40 C 71 40 73.765625 40.734375 76.300781 42.167969 C 78.832031 43.601562 80.867188 45.601562 82.332031 48.101562 C 83.800781 50.601562 84.566406 53.367188 84.566406 56.332031 C 84.566406 60.800781 83.035156 64.632812 79.964844 67.832031 C 76.898438 71.035156 73.132812 72.734375 68.699219 72.867188 C 68.265625 72.867188 68.035156 72.667969 68.035156 72.300781 L 68.035156 67.867188 C 68.035156 67.464844 68.265625 67.265625 68.699219 67.265625 C 71.566406 67.132812 73.964844 66 75.964844 63.867188 C 77.964844 61.734375 78.964844 59.234375 78.964844 56.332031 C 78.964844 53.433594 77.898438 50.933594 75.699219 48.800781 C 73.535156 46.667969 70.964844 45.601562 68 45.601562 L 62.667969 45.601562 C 62.265625 45.601562 62.035156 45.398438 62.035156 45.035156 L 61.800781 43.101562 C 61.433594 39.535156 59.898438 36.5 57.199219 34.066406 C 54.464844 31.632812 51.300781 30.398438 47.699219 30.398438 C 44.066406 30.398438 40.867188 31.601562 38.167969 34.035156 C 35.464844 36.464844 33.933594 39.464844 33.566406 43.066406 L 33.367188 44.867188 C 33.367188 45.265625 33.132812 45.464844 32.699219 45.464844 L 30.933594 45.566406 C 28.199219 45.699219 25.898438 46.800781 23.964844 48.898438 C 22.035156 51 21.101562 53.464844 21.101562 56.300781 C 21.101562 59.199219 22.101562 61.699219 24.101562 63.832031 C 26.101562 65.964844 28.535156 67.101562 31.367188 67.234375 C 31.734375 67.234375 31.933594 67.433594 31.933594 67.832031 L 31.933594 72.265625 C 31.933594 72.632812 31.734375 72.832031 31.367188 72.832031 C 26.898438 72.632812 23.132812 70.933594 20.035156 67.734375 C 16.933594 64.535156 15.464844 60.800781 15.464844 56.367188 Z M 35.234375 59.300781 C 35.234375 58.5 35.632812 57.398438 36.464844 56 C 37.265625 54.601562 38.035156 53.5 38.734375 52.632812 C 39.433594 51.832031 39.867188 51.367188 40 51.234375 L 41.199219 52.566406 C 42.066406 53.5 42.867188 54.601562 43.601562 55.964844 C 44.332031 57.300781 44.699219 58.433594 44.699219 59.300781 C 44.699219 60.601562 44.265625 61.699219 43.367188 62.566406 C 42.464844 63.433594 41.367188 63.867188 40.035156 63.867188 C 38.734375 63.867188 37.601562 63.433594 36.667969 62.535156 C 35.699219 61.667969 35.234375 60.566406 35.234375 59.300781 Z M 45.167969 72.601562 C 45.167969 71.667969 45.433594 70.632812 45.964844 69.398438 C 46.5 68.167969 47.132812 67.066406 47.933594 66 C 48.535156 65.132812 49.265625 64.199219 50.167969 63.199219 C 51.035156 62.199219 51.699219 61.464844 52.167969 61.035156 C 52.398438 60.832031 52.667969 60.566406 52.964844 60.265625 L 53.765625 61.035156 C 55.035156 62.132812 56.433594 63.765625 58 65.898438 C 58.800781 67 59.433594 68.167969 59.964844 69.367188 C 60.5 70.566406 60.734375 71.632812 60.734375 72.601562 C 60.734375 74.734375 59.964844 76.566406 58.464844 78.101562 C 56.964844 79.632812 55.101562 80.367188 52.933594 80.367188 C 50.800781 80.367188 48.964844 79.601562 47.433594 78.132812 C 45.898438 76.601562 45.167969 74.765625 45.167969 72.601562 Z M 50.066406 50.398438 C 50.066406 49 51.132812 47.234375 53.300781 45.066406 L 54.101562 45.898438 C 54.699219 46.601562 55.199219 47.398438 55.699219 48.265625 C 56.167969 49.132812 56.433594 49.832031 56.433594 50.398438 C 56.433594 51.265625 56.132812 52 55.5 52.601562 C 54.898438 53.199219 54.167969 53.535156 53.300781 53.535156 C 52.398438 53.535156 51.632812 53.234375 51 52.601562 C 50.367188 52 50.066406 51.265625 50.066406 50.398438 Z M 50.066406 50.398438 "/>
</g>
</svg>
