<?xml version="1.0" encoding="UTF-8"?>
<svg xmlns="http://www.w3.org/2000/svg" xmlns:xlink="http://www.w3.org/1999/xlink" width="100px" height="100px" viewBox="0 0 100 100" version="1.1">
<g id="surface1">
<path style=" stroke:none;fill-rule:nonzero;fill:rgb(0%,0%,0%);fill-opacity:1;" d="M 24.867188 48.035156 C 24.867188 47.398438 25.101562 46.832031 25.535156 46.367188 C 25.964844 45.898438 26.5 45.667969 27.132812 45.667969 C 27.765625 45.667969 28.332031 45.898438 28.765625 46.367188 C 29.199219 46.832031 29.433594 47.367188 29.433594 48.035156 C 29.433594 48.667969 29.199219 49.199219 28.765625 49.632812 C 28.332031 50.066406 27.765625 50.300781 27.167969 50.300781 C 26.566406 50.300781 26 50.066406 25.566406 49.632812 C 25.066406 49.167969 24.867188 48.632812 24.867188 48.035156 Z M 31.464844 48.035156 C 31.464844 47.398438 31.699219 46.832031 32.132812 46.367188 C 32.566406 45.898438 33.101562 45.667969 33.734375 45.667969 L 44.5 45.667969 L 36.898438 38.066406 C 36.433594 37.667969 36.199219 37.132812 36.199219 36.5 C 36.199219 35.867188 36.433594 35.332031 36.898438 34.867188 C 37.367188 34.398438 37.898438 34.167969 38.535156 34.167969 C 39.167969 34.167969 39.699219 34.398438 40.167969 34.867188 L 47.734375 42.433594 L 47.734375 31.734375 C 47.734375 31.101562 47.964844 30.535156 48.433594 30.066406 C 48.898438 29.601562 49.433594 29.367188 50.101562 29.367188 C 50.734375 29.367188 51.265625 29.601562 51.699219 30.066406 C 52.132812 30.535156 52.367188 31.066406 52.367188 31.734375 L 52.367188 42.5 L 60 34.832031 C 60.464844 34.367188 61 34.132812 61.601562 34.132812 C 62.199219 34.132812 62.765625 34.367188 63.234375 34.832031 C 63.632812 35.300781 63.832031 35.832031 63.832031 36.464844 C 63.832031 37.101562 63.632812 37.632812 63.234375 38.035156 L 55.632812 45.632812 L 66.398438 45.632812 C 67 45.632812 67.535156 45.867188 67.964844 46.332031 C 68.398438 46.800781 68.632812 47.332031 68.632812 48 C 68.632812 48.601562 68.398438 49.132812 67.964844 49.566406 C 67.535156 50 67 50.234375 66.398438 50.234375 L 55.632812 50.234375 L 63.265625 57.867188 C 63.667969 58.265625 63.867188 58.800781 63.867188 59.433594 C 63.867188 60.066406 63.667969 60.601562 63.265625 61.066406 C 62.800781 61.535156 62.234375 61.765625 61.632812 61.765625 C 61.035156 61.765625 60.464844 61.535156 60.035156 61.066406 L 52.398438 53.398438 L 52.398438 64.199219 C 52.398438 64.832031 52.167969 65.398438 51.734375 65.832031 C 51.300781 66.265625 50.765625 66.5 50.132812 66.5 C 49.5 66.5 48.933594 66.265625 48.464844 65.832031 C 48 65.398438 47.765625 64.832031 47.765625 64.199219 L 47.765625 53.464844 L 40.199219 61.035156 C 39.734375 61.5 39.199219 61.734375 38.566406 61.734375 C 37.933594 61.734375 37.398438 61.5 36.933594 61.035156 C 36.464844 60.566406 36.234375 60.035156 36.234375 59.398438 C 36.234375 58.765625 36.464844 58.265625 36.933594 57.832031 L 44.601562 50.199219 L 33.800781 50.199219 C 33.167969 50.199219 32.632812 49.964844 32.199219 49.535156 C 31.667969 49.167969 31.464844 48.632812 31.464844 48.035156 Z M 31.5 64.167969 C 31.5 63.566406 31.734375 63 32.199219 62.566406 C 32.601562 62.101562 33.132812 61.867188 33.765625 61.867188 C 34.398438 61.867188 34.933594 62.101562 35.398438 62.566406 C 35.867188 63.035156 36.101562 63.566406 36.101562 64.167969 C 36.101562 64.765625 35.867188 65.332031 35.398438 65.765625 C 34.933594 66.234375 34.398438 66.464844 33.765625 66.464844 C 33.132812 66.464844 32.601562 66.234375 32.199219 65.765625 C 31.734375 65.332031 31.5 64.800781 31.5 64.167969 Z M 31.5 31.800781 C 31.5 31.199219 31.734375 30.632812 32.199219 30.199219 C 32.601562 29.734375 33.132812 29.5 33.765625 29.5 C 34.398438 29.5 34.933594 29.734375 35.398438 30.199219 C 35.867188 30.667969 36.101562 31.199219 36.101562 31.800781 C 36.101562 32.398438 35.867188 32.964844 35.398438 33.433594 C 34.933594 33.898438 34.398438 34.132812 33.765625 34.132812 C 33.132812 34.132812 32.601562 33.898438 32.199219 33.433594 C 31.734375 32.964844 31.5 32.398438 31.5 31.800781 Z M 47.667969 70.832031 C 47.667969 70.234375 47.898438 69.699219 48.367188 69.265625 C 48.832031 68.832031 49.367188 68.601562 50.035156 68.601562 C 50.667969 68.601562 51.199219 68.832031 51.632812 69.265625 C 52.066406 69.699219 52.300781 70.234375 52.300781 70.832031 C 52.300781 71.464844 52.066406 72.035156 51.632812 72.464844 C 51.199219 72.898438 50.667969 73.132812 50.035156 73.132812 C 49.398438 73.132812 48.832031 72.898438 48.367188 72.464844 C 47.898438 72.035156 47.667969 71.5 47.667969 70.832031 Z M 47.667969 25.132812 C 47.667969 24.5 47.898438 23.933594 48.367188 23.5 C 48.832031 23.066406 49.367188 22.832031 50.035156 22.832031 C 50.667969 22.832031 51.199219 23.066406 51.632812 23.5 C 52.066406 23.933594 52.300781 24.5 52.300781 25.132812 C 52.300781 25.734375 52.066406 26.265625 51.632812 26.699219 C 51.199219 27.132812 50.667969 27.367188 50.035156 27.367188 C 49.398438 27.367188 48.832031 27.132812 48.367188 26.699219 C 47.898438 26.265625 47.667969 25.734375 47.667969 25.132812 Z M 63.898438 64.167969 C 63.898438 63.566406 64.132812 63 64.601562 62.566406 C 65 62.101562 65.535156 61.867188 66.167969 61.867188 C 66.800781 61.867188 67.332031 62.101562 67.800781 62.566406 C 68.265625 63.035156 68.5 63.566406 68.5 64.167969 C 68.5 64.765625 68.265625 65.332031 67.800781 65.765625 C 67.332031 66.234375 66.800781 66.464844 66.167969 66.464844 C 65.535156 66.464844 65 66.234375 64.601562 65.765625 C 64.132812 65.332031 63.898438 64.800781 63.898438 64.167969 Z M 63.898438 31.800781 C 63.898438 31.199219 64.132812 30.632812 64.601562 30.199219 C 65 29.734375 65.535156 29.5 66.167969 29.5 C 66.800781 29.5 67.332031 29.734375 67.800781 30.199219 C 68.265625 30.667969 68.5 31.199219 68.5 31.800781 C 68.5 32.398438 68.265625 32.964844 67.800781 33.433594 C 67.332031 33.898438 66.800781 34.132812 66.167969 34.132812 C 65.535156 34.132812 65 33.898438 64.601562 33.433594 C 64.132812 32.964844 63.898438 32.398438 63.898438 31.800781 Z M 70.566406 48.035156 C 70.566406 47.398438 70.800781 46.832031 71.234375 46.367188 C 71.667969 45.898438 72.234375 45.667969 72.867188 45.667969 C 73.464844 45.667969 74 45.898438 74.433594 46.367188 C 74.867188 46.832031 75.101562 47.367188 75.101562 48.035156 C 75.101562 48.632812 74.867188 49.167969 74.433594 49.601562 C 74 50.035156 73.464844 50.265625 72.867188 50.265625 C 72.234375 50.265625 71.667969 50.035156 71.234375 49.601562 C 70.800781 49.167969 70.566406 48.632812 70.566406 48.035156 Z M 70.566406 48.035156 "/>
</g>
</svg>
