<?xml version="1.0" encoding="UTF-8"?>
<svg xmlns="http://www.w3.org/2000/svg" xmlns:xlink="http://www.w3.org/1999/xlink" width="100px" height="100px" viewBox="0 0 100 100" version="1.1">
<g id="surface1">
<path style=" stroke:none;fill-rule:nonzero;fill:rgb(0%,0%,0%);fill-opacity:1;" d="M 21.132812 41.601562 C 21.132812 38.464844 22.132812 35.667969 24.101562 33.199219 C 26.066406 30.734375 28.566406 29.167969 31.601562 28.5 C 32.433594 24.765625 34.332031 21.667969 37.332031 19.265625 C 40.332031 16.867188 43.734375 15.667969 47.601562 15.667969 C 51.332031 15.667969 54.699219 16.832031 57.667969 19.167969 C 60.632812 21.5 62.535156 24.5 63.433594 28.132812 L 64.332031 28.132812 C 68.066406 28.132812 71.265625 29.433594 73.933594 32.066406 C 76.566406 34.667969 77.898438 37.867188 77.898438 41.566406 C 77.898438 43.566406 77.5 45.464844 76.667969 47.234375 C 75.832031 49 74.699219 50.535156 73.234375 51.800781 L 73.234375 51.898438 C 73.234375 53.867188 72.601562 55.632812 71.367188 57.199219 C 70.132812 58.765625 68.566406 59.734375 66.699219 60.167969 C 66.234375 62.234375 65.199219 64 63.667969 65.433594 C 62.132812 66.867188 60.300781 67.765625 58.234375 68.101562 C 59.199219 69.234375 59.667969 70.5 59.667969 71.867188 C 59.667969 73.464844 59.101562 74.832031 57.964844 76 C 56.832031 77.132812 55.464844 77.734375 53.867188 77.734375 C 52.265625 77.734375 50.898438 77.167969 49.765625 76 C 48.632812 74.867188 48.066406 73.464844 48.066406 71.867188 C 48.066406 71.234375 48.167969 70.601562 48.398438 69.964844 L 48.066406 69.964844 C 46.132812 69.964844 44.464844 69.265625 43.066406 67.867188 C 41.667969 66.464844 40.964844 64.800781 40.964844 62.867188 C 40.964844 61.535156 41.300781 60.332031 41.964844 59.300781 C 40.234375 58.332031 39 56.964844 38.234375 55.132812 L 33.964844 55.132812 L 33.964844 55.101562 C 30.398438 54.867188 27.367188 53.464844 24.867188 50.867188 C 22.367188 48.265625 21.132812 45.199219 21.132812 41.601562 Z M 25.800781 40.765625 C 25.800781 43.433594 26.734375 45.699219 28.601562 47.566406 C 30.464844 49.433594 32.734375 50.367188 35.367188 50.367188 C 37 50.367188 38.535156 50 39.933594 49.234375 C 40.332031 51.699219 41.5 53.765625 43.398438 55.433594 C 45.300781 57.101562 47.566406 57.898438 50.132812 57.898438 C 53.035156 57.898438 55.5 56.867188 57.535156 54.832031 C 58.898438 56.433594 60.601562 57.199219 62.667969 57.199219 C 64.566406 57.199219 66.167969 56.535156 67.535156 55.199219 C 68.867188 53.867188 69.535156 52.234375 69.535156 50.332031 C 70.867188 49.433594 71.933594 48.300781 72.699219 46.867188 C 73.464844 45.464844 73.867188 43.933594 73.867188 42.300781 C 73.867188 39.667969 72.933594 37.398438 71.035156 35.566406 C 69.132812 33.734375 66.867188 32.800781 64.199219 32.800781 C 62.332031 32.800781 60.632812 33.300781 59.101562 34.265625 C 59.300781 33.464844 59.367188 32.566406 59.367188 31.632812 C 59.367188 28.433594 58.234375 25.699219 55.933594 23.433594 C 53.632812 21.167969 50.867188 20.066406 47.632812 20.066406 C 44.5 20.066406 41.800781 21.167969 39.535156 23.300781 C 37.265625 25.433594 36.066406 28.101562 35.964844 31.199219 C 35.898438 31.199219 35.800781 31.199219 35.699219 31.199219 C 35.566406 31.199219 35.464844 31.199219 35.398438 31.199219 C 32.765625 31.199219 30.535156 32.132812 28.632812 34 C 26.734375 35.867188 25.800781 38.167969 25.800781 40.765625 Z M 25.800781 40.765625 "/>
</g>
</svg>
