<?xml version="1.0" encoding="UTF-8"?>
<svg xmlns="http://www.w3.org/2000/svg" xmlns:xlink="http://www.w3.org/1999/xlink" width="100px" height="100px" viewBox="0 0 100 100" version="1.1">
<g id="surface1">
<path style=" stroke:none;fill-rule:nonzero;fill:rgb(0%,0%,0%);fill-opacity:1;" d="M 15.433594 56.367188 C 15.433594 60.066406 16.535156 63.367188 18.734375 66.265625 C 20.933594 69.167969 23.800781 71.167969 27.332031 72.234375 L 25.132812 77.832031 C 25.035156 78.300781 25.199219 78.566406 25.601562 78.566406 L 32.699219 78.566406 L 29.433594 92.898438 L 30.367188 92.898438 L 43.433594 73.734375 C 43.566406 73.601562 43.566406 73.433594 43.464844 73.265625 C 43.367188 73.101562 43.199219 73.035156 42.964844 73.035156 L 35.699219 73.035156 L 43.964844 57.566406 C 44.199219 57.101562 44.035156 56.832031 43.5 56.832031 L 33.699219 56.832031 C 33.398438 56.832031 33.132812 57 32.933594 57.332031 L 29.367188 66.898438 C 27 66.300781 25.035156 65 23.464844 63.035156 C 21.898438 61.066406 21.132812 58.832031 21.132812 56.332031 C 21.132812 53.566406 22.066406 51.167969 23.964844 49.101562 C 25.867188 47.066406 28.199219 45.867188 30.964844 45.535156 L 32.734375 45.300781 C 33.167969 45.300781 33.398438 45.101562 33.398438 44.699219 L 33.632812 43 C 34 39.398438 35.5 36.367188 38.199219 33.933594 C 40.898438 31.5 44.066406 30.265625 47.699219 30.265625 C 51.332031 30.265625 54.5 31.5 57.199219 33.933594 C 59.933594 36.367188 61.464844 39.398438 61.867188 43 L 62.101562 44.933594 C 62.101562 45.300781 62.300781 45.5 62.699219 45.5 L 68.035156 45.5 C 71.066406 45.5 73.632812 46.566406 75.765625 48.667969 C 77.898438 50.765625 79 53.332031 79 56.265625 C 79 59.101562 78 61.566406 76.035156 63.632812 C 74.066406 65.699219 71.601562 66.867188 68.699219 67.101562 C 68.265625 67.101562 68.035156 67.300781 68.035156 67.699219 L 68.035156 72.265625 C 68.035156 72.632812 68.265625 72.832031 68.699219 72.832031 C 73.132812 72.699219 76.898438 71 80 67.800781 C 83.101562 64.601562 84.632812 60.765625 84.632812 56.300781 C 84.632812 53.300781 83.898438 50.535156 82.398438 48 C 80.933594 45.464844 78.898438 43.464844 76.367188 42 C 73.800781 40.535156 71.035156 39.800781 68.035156 39.800781 L 67 39.800781 C 65.898438 35.367188 63.535156 31.734375 59.964844 28.933594 C 56.398438 26.132812 52.300781 24.699219 47.699219 24.699219 C 43 24.699219 38.800781 26.167969 35.167969 29.066406 C 31.535156 31.964844 29.199219 35.699219 28.167969 40.265625 C 24.464844 41.132812 21.433594 43.035156 19.035156 46.035156 C 16.632812 49.035156 15.433594 52.535156 15.433594 56.367188 Z M 42.566406 88.734375 C 42.566406 90.035156 43.199219 90.898438 44.5 91.300781 C 44.535156 91.300781 44.667969 91.300781 44.867188 91.332031 C 45.066406 91.367188 45.234375 91.367188 45.332031 91.367188 C 45.898438 91.367188 46.433594 91.199219 46.964844 90.867188 C 47.5 90.535156 47.867188 90 48.035156 89.265625 L 55.535156 60.300781 C 55.734375 59.5 55.667969 58.800781 55.300781 58.132812 C 54.933594 57.5 54.398438 57.066406 53.632812 56.832031 C 53.066406 56.765625 52.765625 56.734375 52.765625 56.734375 C 52.234375 56.734375 51.699219 56.898438 51.199219 57.234375 C 50.699219 57.566406 50.332031 58.066406 50.167969 58.734375 L 42.632812 87.800781 C 42.601562 88.132812 42.566406 88.433594 42.566406 88.734375 Z M 56.433594 78.535156 C 56.433594 78.964844 56.535156 79.398438 56.765625 79.800781 C 57.234375 80.535156 57.800781 81.035156 58.464844 81.265625 C 58.832031 81.367188 59.167969 81.433594 59.464844 81.433594 C 59.765625 81.433594 60.132812 81.367188 60.535156 81.167969 C 61.234375 80.867188 61.699219 80.234375 61.933594 79.265625 L 66.734375 60.367188 C 66.832031 59.898438 66.898438 59.601562 66.898438 59.464844 C 66.898438 58.964844 66.734375 58.464844 66.367188 57.964844 C 66 57.464844 65.5 57.101562 64.832031 56.898438 C 64.265625 56.832031 63.964844 56.800781 63.964844 56.800781 C 63.398438 56.800781 62.867188 56.964844 62.398438 57.300781 C 61.933594 57.632812 61.601562 58.132812 61.398438 58.800781 L 56.535156 77.800781 C 56.535156 77.867188 56.535156 77.964844 56.5 78.167969 C 56.433594 78.332031 56.433594 78.433594 56.433594 78.535156 Z M 56.433594 78.535156 "/>
</g>
</svg>
