<?xml version="1.0" encoding="UTF-8"?>
<svg xmlns="http://www.w3.org/2000/svg" xmlns:xlink="http://www.w3.org/1999/xlink" width="100px" height="100px" viewBox="0 0 100 100" version="1.1">
<g id="surface1">
<path style=" stroke:none;fill-rule:nonzero;fill:rgb(0%,0%,0%);fill-opacity:1;" d="M 33.035156 65.199219 C 33.035156 62.367188 33.699219 59.734375 35 57.265625 C 36.300781 54.800781 38.132812 52.765625 40.5 51.132812 L 40.5 18.066406 C 40.5 15.398438 41.398438 13.132812 43.234375 11.300781 C 45.066406 9.464844 47.332031 8.5 50 8.5 C 52.699219 8.5 54.964844 9.433594 56.800781 11.265625 C 58.632812 13.132812 59.566406 15.367188 59.566406 18.035156 L 59.566406 51.101562 C 61.933594 52.734375 63.734375 54.800781 65.035156 57.234375 C 66.332031 59.667969 66.964844 62.332031 66.964844 65.167969 C 66.964844 68.234375 66.199219 71.101562 64.699219 73.699219 C 63.199219 76.300781 61.132812 78.367188 58.535156 79.867188 C 55.933594 81.367188 53.101562 82.132812 50 82.132812 C 46.933594 82.132812 44.101562 81.367188 41.5 79.867188 C 38.898438 78.367188 36.832031 76.300781 35.300781 73.699219 C 33.765625 71.101562 33.035156 68.265625 33.035156 65.199219 Z M 38.898438 65.199219 C 38.898438 68.300781 40 70.964844 42.167969 73.167969 C 44.332031 75.367188 46.964844 76.464844 50.035156 76.464844 C 53.132812 76.464844 55.800781 75.367188 58.035156 73.132812 C 60.265625 70.898438 61.398438 68.265625 61.398438 65.234375 C 61.398438 63.167969 60.867188 61.234375 59.800781 59.464844 C 58.734375 57.699219 57.265625 56.332031 55.398438 55.367188 L 54.464844 54.898438 C 54.132812 54.765625 53.964844 54.433594 53.964844 53.933594 L 53.964844 18.066406 C 53.964844 17 53.601562 16.101562 52.832031 15.367188 C 52.066406 14.667969 51.132812 14.300781 50 14.300781 C 48.933594 14.300781 48 14.667969 47.234375 15.367188 C 46.464844 16.066406 46.101562 16.964844 46.101562 18.066406 L 46.101562 53.867188 C 46.101562 54.367188 45.933594 54.699219 45.632812 54.832031 L 44.734375 55.300781 C 42.898438 56.265625 41.464844 57.632812 40.433594 59.398438 C 39.398438 61.167969 38.898438 63.066406 38.898438 65.199219 Z M 38.898438 65.199219 "/>
</g>
</svg>
