<?xml version="1.0" encoding="UTF-8" standalone="no"?>
<svg
   xmlns:dc="http://purl.org/dc/elements/1.1/"
   xmlns:cc="http://creativecommons.org/ns#"
   xmlns:rdf="http://www.w3.org/1999/02/22-rdf-syntax-ns#"
   xmlns:svg="http://www.w3.org/2000/svg"
   xmlns="http://www.w3.org/2000/svg"
   xmlns:sodipodi="http://sodipodi.sourceforge.net/DTD/sodipodi-0.dtd"
   xmlns:inkscape="http://www.inkscape.org/namespaces/inkscape"
   width="100px"
   height="100px"
   viewBox="0 0 100 100"
   version="1.1"
   id="svg5"
   sodipodi:docname="wi-thermometer.svg"
   inkscape:version="1.0.2 (e86c870879, 2021-01-15)">
  <metadata
     id="metadata11">
    <rdf:RDF>
      <cc:Work
         rdf:about="">
        <dc:format>image/svg+xml</dc:format>
        <dc:type
           rdf:resource="http://purl.org/dc/dcmitype/StillImage" />
      </cc:Work>
    </rdf:RDF>
  </metadata>
  <defs
     id="defs9" />
  <sodipodi:namedview
     pagecolor="#ffffff"
     bordercolor="#666666"
     borderopacity="1"
     objecttolerance="10"
     gridtolerance="10"
     guidetolerance="10"
     inkscape:pageopacity="0"
     inkscape:pageshadow="2"
     inkscape:window-width="1920"
     inkscape:window-height="1016"
     id="namedview7"
     showgrid="false"
     inkscape:zoom="7.94"
     inkscape:cx="25.755668"
     inkscape:cy="50"
     inkscape:window-x="0"
     inkscape:window-y="0"
     inkscape:window-maximized="1"
     inkscape:current-layer="surface1" />
  <g
     id="surface1">
    <path
       id="path2"
       style="stroke:none;fill-rule:nonzero;fill:#28170b;fill-opacity:1"
       d="M 50 8.5 C 47.332031 8.5 45.066406 9.4648442 43.234375 11.300781 C 41.398438 13.132812 40.5 15.398438 40.5 18.066406 L 40.5 51.132812 C 38.132812 52.765625 36.300781 54.800781 35 57.265625 C 33.699219 59.734375 33.035156 62.367188 33.035156 65.199219 C 33.035156 68.265625 33.765625 71.101562 35.300781 73.699219 C 36.832031 76.300781 38.898438 78.367188 41.5 79.867188 C 44.101562 81.367188 46.933594 82.132812 50 82.132812 C 53.101562 82.132812 55.933594 81.367188 58.535156 79.867188 C 61.132812 78.367188 63.199219 76.300781 64.699219 73.699219 C 66.199219 71.101562 66.964844 68.234375 66.964844 65.167969 C 66.964844 62.332031 66.332031 59.667969 65.035156 57.234375 C 63.734375 54.800781 61.933594 52.734375 59.566406 51.101562 L 59.566406 18.035156 C 59.566406 15.367188 58.632812 13.132812 56.800781 11.265625 C 54.964844 9.433594 52.699219 8.5 50 8.5 z M 50 14.300781 C 51.132812 14.300781 52.066406 14.667968 52.832031 15.367188 C 53.601562 16.101562 53.964844 17 53.964844 18.066406 L 53.964844 53.933594 C 53.964844 54.433594 54.132812 54.765625 54.464844 54.898438 L 55.398438 55.367188 C 57.265625 56.332031 58.734375 57.699219 59.800781 59.464844 C 60.867188 61.234375 61.398438 63.167969 61.398438 65.234375 C 61.398438 68.265625 60.265625 70.898438 58.035156 73.132812 C 55.800781 75.367188 53.132812 76.464844 50.035156 76.464844 C 46.964844 76.464844 44.332031 75.367188 42.167969 73.167969 C 40 70.964844 38.898438 68.300781 38.898438 65.199219 C 38.898438 63.066406 39.398438 61.167969 40.433594 59.398438 C 41.464844 57.632812 42.898438 56.265625 44.734375 55.300781 L 45.632812 54.832031 C 45.933594 54.699219 46.101562 54.367188 46.101562 53.867188 L 46.101562 18.066406 C 46.101562 16.964844 46.464844 16.066406 47.234375 15.367188 C 48 14.667968 48.933594 14.300781 50 14.300781 z " />
    <path
       style="stroke:none;fill-rule:nonzero;fill:#28170b;fill-opacity:1"
       d="M 41.5,65.199219"
       id="path37" />
    <path
       style="stroke:none;fill-rule:nonzero;fill:#ff0000;fill-opacity:1"
       d="m 41.5,65.199219 c 0,2.367187 0.800781,4.402343 2.433594,6.066406 1.632812,1.667969 3.566406,2.5 5.867187,2.5 2.300781,0 4.265625,-0.832031 5.964844,-2.5 1.699219,-1.664063 2.535156,-3.699219 2.535156,-6.03125 0,-2.101563 -0.734375,-3.96875 -2.167969,-5.566406 -1.433593,-1.601563 -3.199218,-2.566407 -5.265624,-2.835938 v -24.53125 c 0,-0.199219 -0.101563,-0.433593 -0.332032,-0.632812 -0.234375,-0.234375 -0.46875,-0.335938 -0.734375,-0.335938 -0.300781,0 -0.535156,0.101563 -0.699219,0.269531 C 48.933594,31.800781 48.832031,32 48.832031,32.300781 V 56.765625 C 46.800781,57.066406 45.066406,58 43.632812,59.601562 42.199219,61.234375 41.5,63.066406 41.5,65.199219 Z"
       id="path35" />
  </g>
</svg>
