<?xml version="1.0" encoding="UTF-8"?>
<svg xmlns="http://www.w3.org/2000/svg" xmlns:xlink="http://www.w3.org/1999/xlink" width="100px" height="100px" viewBox="0 0 100 100" version="1.1">
<g id="surface1">
<path style=" stroke:none;fill-rule:nonzero;fill:rgb(0%,0%,0%);fill-opacity:1;" d="M 14.167969 42.265625 L 14.167969 41.199219 C 14.167969 40.867188 14.265625 40.601562 14.5 40.367188 C 14.734375 40.132812 15 40.035156 15.332031 40.035156 L 40.601562 40.035156 C 40.933594 40.035156 41.199219 40.132812 41.433594 40.367188 C 41.667969 40.601562 41.765625 40.867188 41.765625 41.199219 L 41.765625 42.265625 C 41.765625 42.601562 41.667969 42.867188 41.433594 43.101562 C 41.199219 43.332031 40.933594 43.433594 40.601562 43.433594 L 39.132812 43.433594 L 39.132812 48.933594 L 46.199219 48.933594 C 46.265625 48 46.667969 47.199219 47.367188 46.566406 C 48.066406 45.933594 48.898438 45.601562 49.867188 45.601562 C 50.832031 45.601562 51.632812 45.933594 52.332031 46.566406 C 53.035156 47.199219 53.398438 48 53.5 48.933594 L 57.898438 48.933594 L 57.898438 37.632812 C 57.433594 37.601562 57.066406 37.433594 56.734375 37.101562 C 56.398438 36.765625 56.234375 36.332031 56.234375 35.867188 L 56.234375 34.832031 C 56.234375 34.367188 56.398438 33.933594 56.765625 33.566406 C 57.132812 33.199219 57.566406 33.035156 58.066406 33.035156 L 64.699219 33.035156 C 65.199219 33.035156 65.632812 33.199219 65.964844 33.566406 C 66.300781 33.933594 66.464844 34.332031 66.464844 34.832031 L 66.464844 35.867188 C 66.464844 36.332031 66.300781 36.765625 66 37.101562 C 65.699219 37.433594 65.332031 37.632812 64.867188 37.632812 L 64.867188 48.933594 L 70.066406 48.933594 C 70.964844 48.933594 71.765625 49.265625 72.433594 49.933594 C 73.101562 50.601562 73.433594 51.398438 73.433594 52.300781 L 73.433594 62.066406 L 85.867188 78.300781 L 70.066406 78.300781 L 70.066406 68.167969 L 67.699219 68.167969 C 68.066406 69.035156 68.234375 69.964844 68.234375 70.933594 C 68.234375 72.964844 67.535156 74.667969 66.101562 76.132812 C 64.667969 77.566406 62.933594 78.300781 60.933594 78.300781 C 58.898438 78.300781 57.199219 77.566406 55.734375 76.132812 C 54.300781 74.699219 53.566406 72.964844 53.566406 70.933594 C 53.566406 69.964844 53.734375 69.035156 54.101562 68.167969 L 50.765625 68.167969 C 51.132812 69.066406 51.332031 70 51.332031 70.933594 C 51.332031 72.964844 50.601562 74.667969 49.167969 76.132812 C 47.734375 77.601562 46 78.300781 43.964844 78.300781 C 41.933594 78.300781 40.234375 77.566406 38.800781 76.132812 C 37.367188 74.699219 36.667969 72.964844 36.667969 70.933594 C 36.667969 69.964844 36.832031 69.035156 37.199219 68.167969 L 33.234375 68.167969 C 33.632812 69.132812 33.832031 70.066406 33.832031 70.933594 C 33.832031 72.964844 33.101562 74.667969 31.667969 76.132812 C 30.234375 77.601562 28.5 78.300781 26.464844 78.300781 C 24.433594 78.300781 22.734375 77.566406 21.265625 76.132812 C 19.800781 74.699219 19.101562 72.964844 19.101562 70.933594 C 19.101562 69.964844 19.300781 69.035156 19.667969 68.132812 C 18.867188 68 18.167969 67.632812 17.632812 67 C 17.101562 66.367188 16.832031 65.632812 16.832031 64.800781 L 16.832031 61.933594 L 16.765625 61.933594 L 16.765625 43.433594 L 15.332031 43.433594 C 15 43.433594 14.734375 43.332031 14.5 43.101562 C 14.265625 42.867188 14.167969 42.601562 14.167969 42.265625 Z M 21 55.398438 C 21 56.101562 21.234375 56.699219 21.734375 57.199219 C 22.234375 57.699219 22.832031 57.933594 23.535156 57.933594 L 28.332031 57.933594 C 29.035156 57.933594 29.632812 57.699219 30.101562 57.199219 C 30.566406 56.699219 30.832031 56.101562 30.832031 55.398438 L 30.832031 47.734375 C 30.832031 47.035156 30.601562 46.464844 30.101562 45.964844 C 29.601562 45.464844 29.035156 45.234375 28.332031 45.234375 L 23.566406 45.234375 C 22.867188 45.234375 22.265625 45.464844 21.765625 46 C 21.265625 46.5 21.035156 47.066406 21.035156 47.734375 L 21.035156 55.398438 Z M 52.601562 18.101562 C 52.601562 19.464844 53.132812 20.632812 54.167969 21.566406 C 54.167969 22.234375 54.464844 23 55.035156 23.832031 C 55.601562 24.667969 56.234375 25.167969 56.898438 25.300781 C 57.035156 26.035156 57.398438 26.667969 57.933594 27.199219 C 58.464844 27.699219 59.132812 28.035156 59.898438 28.199219 C 59.535156 28.566406 59.367188 29 59.367188 29.5 C 59.367188 30.101562 59.566406 30.601562 59.964844 31 C 60.367188 31.398438 60.867188 31.601562 61.464844 31.601562 C 62.066406 31.601562 62.566406 31.398438 63 30.964844 C 63.433594 30.566406 63.632812 30.035156 63.632812 29.464844 C 63.632812 29.398438 63.632812 29.300781 63.601562 29.167969 C 63.566406 29.035156 63.566406 28.898438 63.566406 28.832031 L 63.667969 28.832031 C 64.367188 28.832031 64.964844 28.566406 65.464844 28.066406 C 65.964844 27.566406 66.234375 26.933594 66.234375 26.234375 C 66.234375 25.898438 66.101562 25.5 65.832031 24.964844 C 66.398438 24.667969 66.867188 24.132812 67.199219 23.398438 L 68.699219 23.398438 C 70 23.332031 71.132812 22.832031 72.035156 21.898438 C 72.964844 20.964844 73.433594 19.867188 73.433594 18.535156 C 73.433594 17.398438 73.066406 16.398438 72.332031 15.535156 C 71.601562 14.667969 70.667969 14.101562 69.566406 13.800781 C 69.300781 12.464844 68.601562 11.367188 67.5 10.5 C 66.398438 9.632812 65.132812 9.199219 63.765625 9.199219 C 62.398438 9.199219 61.199219 9.632812 60.167969 10.464844 C 59.132812 11.300781 58.433594 12.398438 58.101562 13.699219 L 57.734375 13.699219 C 56.367188 13.699219 55.167969 14.132812 54.132812 15 C 53.101562 15.832031 52.601562 16.898438 52.601562 18.101562 Z M 52.601562 18.101562 "/>
</g>
</svg>
