<?xml version="1.0" encoding="UTF-8"?>
<svg xmlns="http://www.w3.org/2000/svg" xmlns:xlink="http://www.w3.org/1999/xlink" width="100px" height="100px" viewBox="0 0 100 100" version="1.1">
<g id="surface1">
<path style=" stroke:none;fill-rule:nonzero;fill:rgb(0%,0%,0%);fill-opacity:1;" d="M 41.601562 65.199219 C 41.601562 67.566406 42.398438 69.601562 44.035156 71.265625 C 45.667969 72.933594 47.601562 73.765625 49.898438 73.765625 C 52.199219 73.765625 54.167969 72.933594 55.867188 71.265625 C 57.566406 69.601562 58.398438 67.566406 58.398438 65.234375 C 58.398438 63.132812 57.667969 61.265625 56.234375 59.667969 C 54.800781 58.066406 53.035156 57.101562 51 56.832031 L 51 32.300781 C 51 32.101562 50.898438 31.867188 50.667969 31.667969 C 50.433594 31.433594 50.199219 31.332031 49.933594 31.332031 C 49.632812 31.332031 49.398438 31.433594 49.234375 31.601562 C 49.066406 31.800781 48.964844 32 48.964844 32.300781 L 48.964844 56.765625 C 46.933594 57.066406 45.199219 58 43.765625 59.601562 C 42.300781 61.234375 41.601562 63.066406 41.601562 65.199219 Z M 41.601562 65.199219 "/>
</g>
</svg>
