<?xml version="1.0" encoding="UTF-8"?>
<svg xmlns="http://www.w3.org/2000/svg" xmlns:xlink="http://www.w3.org/1999/xlink" width="100px" height="100px" viewBox="0 0 100 100" version="1.1">
<g id="surface1">
<path style=" stroke:none;fill-rule:nonzero;fill:rgb(0%,0%,0%);fill-opacity:1;" d="M 16.898438 70.800781 C 16.898438 70.265625 17.101562 69.800781 17.464844 69.398438 C 17.867188 69 18.300781 68.800781 18.832031 68.800781 L 20.167969 68.800781 C 19.464844 66.601562 18.867188 64.300781 18.398438 61.898438 C 17.699219 58.234375 17.332031 54.898438 17.332031 51.933594 C 17.332031 46.234375 18.332031 40.867188 20.367188 35.898438 C 22.433594 31.035156 25.300781 26.867188 29 23.367188 C 32.734375 19.832031 37.066406 17.132812 42 15.300781 C 47.035156 13.398438 52.464844 12.433594 58.367188 12.433594 C 61.898438 12.433594 65.234375 12.734375 68.367188 13.367188 C 71.5 14.101562 74.535156 15.234375 77.464844 16.800781 L 83.132812 19.832031 L 76.867188 21.132812 C 74.933594 21.566406 73.601562 22.433594 72.867188 23.734375 C 72.332031 24.800781 72.367188 26.035156 72.964844 27.433594 L 74.332031 30.601562 L 70.933594 30.765625 C 69.5 30.867188 68.167969 31.167969 67 31.667969 C 65.898438 32.199219 65.265625 32.734375 65.066406 33.332031 C 64.699219 34.101562 65.101562 35.199219 66.265625 36.667969 L 68.964844 39.867188 L 64.765625 40.464844 C 59.601562 41.234375 55.367188 42.300781 52.066406 43.667969 C 48.765625 45.035156 46.167969 46.800781 44.234375 48.964844 C 42.367188 51.035156 40.964844 53.699219 40.066406 56.867188 C 39.167969 60.066406 38.667969 64.035156 38.566406 68.832031 L 56.101562 68.832031 L 56.101562 59.566406 L 54.832031 60.332031 C 54.367188 60.632812 53.867188 60.699219 53.332031 60.566406 C 52.765625 60.433594 52.367188 60.132812 52.101562 59.632812 C 51.800781 59.167969 51.734375 58.667969 51.832031 58.132812 C 51.933594 57.601562 52.234375 57.167969 52.734375 56.867188 L 65.464844 48.933594 L 65.535156 48.867188 C 65.566406 48.867188 65.566406 48.867188 65.566406 48.832031 L 65.632812 48.832031 C 65.667969 48.832031 65.699219 48.832031 65.734375 48.800781 C 65.964844 48.734375 66.199219 48.632812 66.5 48.566406 L 66.699219 48.566406 C 66.734375 48.601562 66.765625 48.632812 66.800781 48.632812 L 67.035156 48.632812 C 67.035156 48.667969 67.066406 48.667969 67.101562 48.667969 L 67.199219 48.667969 L 67.265625 48.699219 L 67.332031 48.699219 C 67.367188 48.734375 67.398438 48.765625 67.398438 48.800781 L 67.464844 48.800781 C 67.5 48.800781 67.5 48.800781 67.5 48.832031 C 67.566406 48.832031 67.601562 48.832031 67.601562 48.867188 C 67.632812 48.867188 67.667969 48.867188 67.699219 48.898438 L 67.765625 48.933594 L 80.5 56.765625 C 80.964844 57.066406 81.265625 57.5 81.398438 58.035156 C 81.5 58.601562 81.433594 59.101562 81.132812 59.566406 C 80.867188 60.035156 80.464844 60.332031 79.898438 60.433594 C 79.332031 60.535156 78.832031 60.464844 78.398438 60.167969 L 77.367188 59.535156 L 77.367188 68.765625 L 80.566406 68.765625 C 81.101562 68.765625 81.535156 68.964844 81.898438 69.367188 C 82.265625 69.765625 82.433594 70.234375 82.433594 70.765625 C 82.464844 71.332031 82.265625 71.800781 81.898438 72.199219 C 81.535156 72.601562 81.066406 72.800781 80.566406 72.800781 L 18.832031 72.800781 C 18.300781 72.800781 17.832031 72.601562 17.464844 72.234375 C 17.101562 71.867188 16.898438 71.398438 16.898438 70.800781 Z M 22.066406 51.933594 C 22.066406 54.300781 22.398438 57.332031 23.066406 61.035156 C 23.566406 63.734375 24.167969 66.101562 24.867188 68.101562 L 33.832031 68.101562 C 34 63.265625 34.5 59.265625 35.332031 56.132812 C 36.5 51.898438 38.265625 48.433594 40.667969 45.832031 C 43.101562 43.101562 46.300781 40.933594 50.300781 39.300781 C 53.035156 38.167969 56.5 37.199219 60.667969 36.398438 L 60.398438 35.566406 C 60.066406 34.035156 60.167969 32.667969 60.699219 31.464844 C 61.433594 29.765625 62.867188 28.398438 64.964844 27.433594 C 65.199219 27.332031 65.398438 27.234375 65.601562 27.199219 C 62.734375 26.535156 59.832031 26.367188 56.933594 26.734375 C 53.632812 27.132812 50.535156 28.101562 47.667969 29.566406 C 43.964844 31.5 40.632812 34.265625 37.632812 37.832031 C 37.300781 38.234375 36.867188 38.433594 36.367188 38.433594 C 35.964844 38.433594 35.632812 38.332031 35.332031 38.101562 C 35 37.800781 34.800781 37.433594 34.765625 36.964844 C 34.734375 36.5 34.832031 36.101562 35.132812 35.734375 C 38.464844 31.765625 42.167969 28.734375 46.265625 26.632812 C 49.535156 25 53.035156 23.933594 56.734375 23.464844 C 58.632812 23.234375 60.464844 23.199219 62.300781 23.398438 C 64.101562 23.601562 65.367188 23.800781 66.101562 23.964844 C 66.832031 24.132812 67.332031 24.265625 67.601562 24.367188 L 67.867188 24.464844 C 68.035156 23.433594 68.300781 22.5 68.667969 21.667969 C 69.199219 20.699219 69.898438 19.800781 70.800781 19 C 69.800781 18.699219 68.632812 18.367188 67.332031 18.066406 C 64.667969 17.464844 61.667969 17.199219 58.367188 17.199219 C 53.101562 17.199219 48.199219 18.066406 43.632812 19.765625 C 39.167969 21.464844 35.367188 23.832031 32.234375 26.898438 C 28.964844 29.933594 26.464844 33.566406 24.800781 37.765625 C 22.964844 42.167969 22.066406 46.898438 22.066406 51.933594 Z M 60.167969 68.800781 L 73.101562 68.800781 L 73.101562 57.066406 L 66.5 53.035156 L 60.167969 57 Z M 60.167969 68.800781 "/>
</g>
</svg>
