<?xml version="1.0" encoding="UTF-8"?>
<svg xmlns="http://www.w3.org/2000/svg" xmlns:xlink="http://www.w3.org/1999/xlink" width="100px" height="100px" viewBox="0 0 100 100" version="1.1">
<g id="surface1">
<path style=" stroke:none;fill-rule:nonzero;fill:rgb(0%,0%,0%);fill-opacity:1;" d="M 12.464844 48.234375 C 12.464844 41.433594 14.167969 35.132812 17.535156 29.367188 C 20.898438 23.601562 25.464844 19.035156 31.234375 15.667969 C 37 12.300781 43.265625 10.632812 50.035156 10.632812 C 55.101562 10.632812 59.964844 11.632812 64.601562 13.601562 C 69.234375 15.566406 73.199219 18.265625 76.566406 21.601562 C 79.933594 24.933594 82.601562 28.933594 84.566406 33.601562 C 86.535156 38.265625 87.535156 43.101562 87.535156 48.234375 C 87.535156 53.300781 86.535156 58.167969 84.566406 62.800781 C 82.601562 67.433594 79.898438 71.433594 76.566406 74.765625 C 73.234375 78.101562 69.234375 80.765625 64.601562 82.734375 C 59.964844 84.699219 55.132812 85.699219 50.035156 85.699219 C 44.933594 85.699219 40.035156 84.699219 35.398438 82.734375 C 30.765625 80.765625 26.765625 78.066406 23.398438 74.734375 C 20.035156 71.398438 17.398438 67.398438 15.398438 62.800781 C 13.398438 58.199219 12.464844 53.332031 12.464844 48.234375 Z M 20.734375 48.234375 C 20.734375 56.132812 23.601562 63 29.367188 68.832031 C 35.132812 74.601562 42 77.464844 50.035156 77.464844 C 55.300781 77.464844 60.199219 76.167969 64.667969 73.535156 C 69.132812 70.898438 72.734375 67.367188 75.367188 62.867188 C 78 58.367188 79.332031 53.5 79.332031 48.234375 C 79.332031 42.964844 78 38.066406 75.367188 33.566406 C 72.734375 29.066406 69.167969 25.5 64.667969 22.867188 C 60.167969 20.234375 55.300781 18.933594 50.035156 18.933594 C 44.765625 18.933594 39.867188 20.234375 35.398438 22.867188 C 30.933594 25.5 27.332031 29.066406 24.667969 33.566406 C 22 38.066406 20.734375 42.964844 20.734375 48.234375 Z M 47.132812 48.234375 L 47.132812 26.035156 C 47.132812 25.265625 47.398438 24.601562 47.933594 24.066406 C 48.464844 23.535156 49.132812 23.265625 49.898438 23.265625 C 50.667969 23.265625 51.332031 23.535156 51.867188 24.066406 C 52.398438 24.601562 52.667969 25.265625 52.667969 26.035156 L 52.667969 47.433594 L 59.832031 60.234375 C 60.234375 60.933594 60.300781 61.667969 60.101562 62.398438 C 59.898438 63.132812 59.464844 63.699219 58.800781 64.101562 C 58.433594 64.300781 58 64.398438 57.433594 64.398438 C 56.332031 64.398438 55.5 63.933594 55 63.035156 L 47.667969 50.035156 C 47.332031 49.5 47.132812 48.933594 47.132812 48.234375 Z M 47.132812 48.234375 "/>
</g>
</svg>
