<?xml version="1.0" encoding="UTF-8"?>
<svg xmlns="http://www.w3.org/2000/svg" xmlns:xlink="http://www.w3.org/1999/xlink" width="100px" height="100px" viewBox="0 0 100 100" version="1.1">
<g id="surface1">
<path style=" stroke:none;fill-rule:nonzero;fill:rgb(0%,0%,0%);fill-opacity:1;" d="M 13.765625 50.632812 C 13.765625 52.933594 14.964844 54.898438 17.367188 56.535156 C 21.765625 59.632812 28.398438 61.167969 37.300781 61.167969 C 41.300781 61.167969 45 60.832031 48.433594 60.132812 C 52.035156 59.367188 55 58.132812 57.265625 56.464844 C 59.535156 54.800781 60.699219 52.867188 60.699219 50.601562 C 60.699219 49.898438 60.566406 49.234375 60.300781 48.535156 C 64.933594 47.398438 68.566406 45.867188 71.199219 43.933594 C 73.832031 42 75.167969 39.765625 75.167969 37.265625 C 75.167969 36.632812 75.066406 35.964844 74.867188 35.265625 C 82.5 32.566406 86.300781 28.933594 86.300781 24.332031 C 86.300781 21.398438 84.632812 18.800781 81.332031 16.535156 C 74.832031 12.199219 65.300781 10.035156 52.734375 10.035156 C 46.800781 10.035156 41.433594 10.566406 36.632812 11.601562 C 31.398438 12.667969 27.199219 14.332031 24 16.601562 C 20.800781 18.867188 19.199219 21.464844 19.199219 24.367188 C 19.199219 26.101562 19.734375 27.667969 20.800781 29.101562 C 16.867188 31.332031 14.898438 34.066406 14.898438 37.300781 C 14.898438 39.800781 16.132812 42 18.566406 43.898438 C 15.367188 45.765625 13.765625 48 13.765625 50.632812 Z M 15.765625 65.632812 C 15.765625 68.066406 17.265625 70 20.265625 71.367188 C 23.265625 72.734375 27.066406 73.433594 31.632812 73.433594 C 36.265625 73.433594 40.066406 72.734375 43.101562 71.367188 C 46.132812 70 47.632812 68.066406 47.632812 65.632812 C 47.632812 64.734375 47.332031 63.964844 46.765625 63.332031 C 46.199219 62.699219 45.433594 62.398438 44.535156 62.398438 C 43.800781 62.398438 43.132812 62.667969 42.535156 63.167969 C 41.933594 63.667969 41.566406 64.332031 41.398438 65.066406 C 40.734375 65.601562 39.535156 66.066406 37.734375 66.5 C 35.933594 66.933594 33.898438 67.167969 31.632812 67.167969 C 27.964844 67.167969 24.964844 66.632812 22.699219 65.601562 C 23.234375 65.066406 23.5 64.398438 23.566406 63.601562 C 23.632812 62.800781 23.433594 62.101562 23.066406 61.535156 C 22.535156 60.832031 21.867188 60.367188 21.035156 60.199219 C 20.199219 60.035156 19.433594 60.199219 18.699219 60.632812 C 16.734375 62 15.765625 63.632812 15.765625 65.632812 Z M 20.035156 50.632812 C 20.035156 50.601562 20.234375 50.398438 20.667969 50.035156 C 20.964844 49.734375 21.601562 49.367188 22.535156 48.898438 C 23.464844 48.433594 24.566406 48.066406 25.734375 47.734375 L 26.132812 47.535156 C 31.535156 49.332031 37.832031 50.234375 45.035156 50.234375 C 48.199219 50.234375 51.066406 50.066406 53.632812 49.699219 L 54.5 50.464844 C 54.199219 51 53.5 51.535156 52.398438 52.132812 C 51.066406 52.832031 49 53.5 46.199219 54.035156 C 43.398438 54.566406 40.433594 54.867188 37.300781 54.867188 C 34.167969 54.867188 31.199219 54.601562 28.398438 54.035156 C 25.601562 53.464844 23.5 52.832031 22.132812 52.132812 C 21 51.667969 20.300781 51.167969 20.035156 50.632812 Z M 20.398438 78.699219 C 20.398438 80.800781 21.601562 82.433594 24 83.566406 C 26.398438 84.699219 29.367188 85.265625 32.898438 85.265625 C 36.5 85.265625 39.535156 84.699219 41.964844 83.566406 C 44.398438 82.433594 45.632812 80.800781 45.632812 78.699219 C 45.632812 77.867188 45.332031 77.101562 44.699219 76.464844 C 44.066406 75.832031 43.332031 75.5 42.5 75.5 C 40.933594 75.5 39.898438 76.300781 39.433594 77.898438 C 38.132812 78.699219 35.964844 79.132812 32.898438 79.132812 C 30.234375 79.132812 28.101562 78.734375 26.5 77.898438 C 26 76.300781 25 75.5 23.433594 75.5 C 22.601562 75.5 21.867188 75.800781 21.300781 76.433594 C 20.734375 77.066406 20.398438 77.800781 20.398438 78.699219 Z M 21.101562 37.300781 C 21.101562 37.035156 21.265625 36.734375 21.601562 36.367188 C 22.398438 35.367188 24 34.367188 26.332031 33.433594 C 32.734375 36.867188 41.535156 38.566406 52.699219 38.566406 C 58.398438 38.566406 63.765625 38.035156 68.765625 37 L 68.765625 37.300781 C 68.765625 37.800781 68.464844 38.300781 67.832031 38.800781 C 66.464844 40 63.933594 41.132812 60.199219 42.234375 C 56.167969 43.433594 51.101562 44.035156 45 44.035156 C 38.867188 44.035156 33.800781 43.433594 29.765625 42.234375 C 25.898438 41.167969 23.332031 40.035156 22.035156 38.832031 C 21.398438 38.332031 21.101562 37.832031 21.101562 37.300781 Z M 25.433594 24.367188 C 25.433594 23.765625 25.832031 23.132812 26.601562 22.398438 C 28.101562 21 31.101562 19.667969 35.535156 18.367188 C 40.300781 16.964844 46 16.265625 52.667969 16.265625 C 59.367188 16.265625 65.132812 16.964844 69.964844 18.367188 C 74.464844 19.667969 77.433594 21.035156 78.898438 22.433594 C 79.632812 23.167969 80.035156 23.832031 80.035156 24.398438 C 80.035156 24.964844 79.667969 25.566406 78.898438 26.265625 C 77.433594 27.667969 74.464844 29.035156 69.964844 30.367188 C 65.132812 31.765625 59.398438 32.464844 52.667969 32.464844 C 46 32.464844 40.265625 31.765625 35.535156 30.367188 C 31.066406 29.035156 28.066406 27.667969 26.601562 26.234375 C 25.832031 25.535156 25.433594 24.933594 25.433594 24.367188 Z M 25.433594 24.367188 "/>
</g>
</svg>
