<?xml version="1.0" encoding="UTF-8"?>
<svg xmlns="http://www.w3.org/2000/svg" xmlns:xlink="http://www.w3.org/1999/xlink" width="100px" height="100px" viewBox="0 0 100 100" version="1.1">
<g id="surface1">
<path style=" stroke:none;fill-rule:nonzero;fill:rgb(0%,0%,0%);fill-opacity:1;" d="M 15.464844 48.832031 C 15.5 47.699219 16.066406 45.964844 17.132812 43.566406 C 18.199219 41.167969 19.667969 38.632812 21.566406 35.898438 C 27.765625 27.199219 36.535156 22.632812 47.832031 22.132812 L 47.832031 20.699219 C 47.832031 20 48.066406 19.464844 48.535156 19.035156 C 49 18.601562 49.535156 18.398438 50.132812 18.398438 C 50.765625 18.398438 51.300781 18.601562 51.800781 19.035156 C 52.265625 19.464844 52.535156 20.035156 52.535156 20.699219 L 52.535156 22.167969 C 55.800781 22.300781 58.867188 22.800781 61.699219 23.667969 C 64.535156 24.535156 67 25.632812 69.101562 27 C 71.199219 28.367188 73 29.765625 74.464844 31.234375 C 75.964844 32.667969 77.300781 34.234375 78.464844 35.933594 C 79.832031 37.898438 81.035156 40.035156 82 42.265625 C 82.964844 44.5 83.667969 46.300781 84.035156 47.632812 C 84.398438 48.964844 84.601562 49.632812 84.632812 49.667969 L 84.632812 50.300781 C 84.632812 50.898438 84.398438 51.367188 83.933594 51.765625 C 83.464844 52.167969 82.933594 52.332031 82.300781 52.332031 C 81.265625 52.332031 80.601562 52.035156 80.300781 51.464844 C 77.699219 48.535156 74.867188 47.101562 71.800781 47.101562 C 70.667969 47.167969 69.5 47.433594 68.367188 47.867188 C 67.234375 48.300781 66.300781 48.765625 65.632812 49.265625 C 64.933594 49.734375 64.300781 50.234375 63.699219 50.734375 C 63.101562 51.234375 62.800781 51.464844 62.765625 51.5 C 62.132812 52.066406 61.535156 52.367188 61 52.367188 C 60.234375 52.367188 59.667969 52.167969 59.265625 51.765625 C 56.832031 49.332031 54.632812 47.867188 52.566406 47.367188 L 52.566406 73.167969 L 52.535156 73.867188 L 52.398438 74.632812 L 52.199219 75.464844 L 51.898438 76.332031 L 51.464844 77.234375 L 50.898438 78.101562 L 50.199219 78.933594 C 48.5 80.898438 46.101562 81.867188 42.933594 81.867188 C 39.566406 81.867188 37.035156 80.898438 35.332031 78.933594 C 34.933594 78.535156 34.601562 78.101562 34.300781 77.667969 C 34 77.199219 33.765625 76.765625 33.601562 76.300781 C 33.433594 75.867188 33.300781 75.433594 33.199219 75.035156 C 33.101562 74.632812 33.035156 74.234375 33 73.832031 C 32.933594 73.332031 32.898438 73 32.898438 72.734375 C 32.898438 72.464844 32.898438 72.199219 32.898438 71.964844 C 32.898438 71.734375 32.933594 71.566406 32.933594 71.535156 C 32.933594 70.933594 33.199219 70.398438 33.699219 69.964844 C 34.234375 69.535156 34.832031 69.367188 35.535156 69.5 C 36.132812 69.5 36.601562 69.765625 37 70.265625 C 37.398438 70.765625 37.601562 71.398438 37.601562 72.132812 C 37.398438 73.5 37.667969 74.667969 38.433594 75.632812 C 39.132812 76.601562 40.601562 77.101562 42.832031 77.101562 C 44.566406 77.101562 45.832031 76.699219 46.601562 75.898438 C 47.035156 75.464844 47.367188 74.933594 47.566406 74.300781 C 47.765625 73.667969 47.867188 73.167969 47.832031 72.734375 L 47.800781 72.101562 L 47.800781 47.566406 C 45.367188 48.167969 43.199219 49.433594 41.367188 51.367188 C 41.234375 51.632812 40.964844 51.898438 40.601562 52.132812 C 40.234375 52.367188 39.898438 52.5 39.601562 52.5 C 39 52.5 38.332031 52.132812 37.601562 51.367188 C 34.933594 48.398438 32.101562 46.933594 29.101562 47 C 27.765625 47.035156 26.5 47.234375 25.367188 47.667969 C 24.199219 48.101562 23.332031 48.535156 22.734375 48.964844 C 22.167969 49.398438 21.535156 49.898438 20.933594 50.464844 C 20.332031 51.035156 19.964844 51.367188 19.867188 51.433594 C 19.167969 51.898438 18.601562 52.167969 18.167969 52.167969 C 17.734375 52.167969 17.167969 51.964844 16.566406 51.601562 C 16.035156 51.265625 15.699219 50.898438 15.566406 50.535156 C 15.464844 50.132812 15.433594 49.566406 15.464844 48.832031 Z M 22.433594 44.101562 C 24.699219 42.898438 26.832031 42.332031 28.832031 42.332031 L 29.101562 42.332031 C 32.933594 42.332031 36.433594 43.800781 39.601562 46.765625 C 40.867188 45.667969 42.398438 44.699219 44.234375 43.832031 C 46.035156 42.964844 48 42.464844 50.132812 42.332031 L 50.398438 42.332031 C 54.234375 42.332031 57.734375 43.800781 60.898438 46.765625 C 62.167969 45.667969 63.699219 44.699219 65.535156 43.832031 C 67.332031 42.964844 69.300781 42.464844 71.433594 42.332031 L 71.734375 42.332031 C 73.601562 42.332031 75.566406 42.832031 77.566406 43.800781 C 76.101562 40.933594 75.101562 39.101562 74.632812 38.265625 C 68.667969 30.464844 60.398438 26.566406 49.867188 26.566406 C 44.601562 26.566406 39.898438 27.566406 35.734375 29.566406 C 31.601562 31.566406 28.199219 34.464844 25.566406 38.265625 C 24.800781 39.398438 23.734375 41.367188 22.433594 44.101562 Z M 22.433594 44.101562 "/>
</g>
</svg>
