<?xml version="1.0" encoding="UTF-8"?>
<svg xmlns="http://www.w3.org/2000/svg" xmlns:xlink="http://www.w3.org/1999/xlink" width="100px" height="100px" viewBox="0 0 100 100" version="1.1">
<g id="surface1">
<path style=" stroke:none;fill-rule:nonzero;fill:rgb(0%,0%,0%);fill-opacity:1;" d="M 24.632812 75.367188 C 24.234375 74.464844 24.332031 73.566406 24.933594 72.667969 L 29.601562 63.765625 C 29.632812 63.632812 29.765625 63.464844 29.964844 63.265625 C 30.101562 63.132812 30.535156 62.800781 31.234375 62.300781 C 31.300781 62.265625 32.066406 61.699219 33.5 60.632812 C 35.101562 59.566406 36.933594 58.234375 39.101562 56.667969 L 45.101562 46.734375 C 45.667969 45.832031 46.464844 45.367188 47.5 45.367188 L 49.832031 45.367188 C 49.300781 46 48.800781 46.667969 48.332031 47.367188 C 47.867188 48.066406 47.433594 49.035156 47.066406 50.199219 C 46.667969 51.398438 46.464844 52.566406 46.464844 53.765625 C 46.464844 54.964844 46.765625 56.332031 47.398438 57.933594 C 48.035156 59.5 49 61.066406 50.332031 62.566406 C 51.234375 63.601562 51.800781 64.632812 52 65.667969 C 52.199219 66.699219 52.066406 67.601562 51.667969 68.433594 C 51.265625 69.265625 50.601562 70.101562 49.699219 70.898438 C 48.800781 71.699219 47.832031 72.398438 46.765625 73 C 45.699219 73.601562 44.5 74.167969 43.199219 74.734375 C 41.898438 75.300781 40.699219 75.734375 39.699219 76.101562 C 38.667969 76.433594 37.632812 76.765625 36.601562 77.066406 L 27.199219 77.066406 C 26.667969 77.066406 26.132812 76.898438 25.667969 76.601562 C 25.167969 76.300781 24.832031 75.898438 24.632812 75.367188 Z M 33.800781 25.800781 C 33.800781 24.265625 34.300781 22.867188 35.300781 21.667969 C 36.300781 20.433594 37.601562 19.667969 39.167969 19.265625 C 39.535156 17.398438 40.5 15.867188 42 14.667969 C 43.5 13.464844 45.265625 12.867188 47.199219 12.867188 C 49.066406 12.867188 50.734375 13.433594 52.199219 14.601562 C 53.667969 15.765625 54.632812 17.265625 55.066406 19.101562 L 55.535156 19.101562 C 57.433594 19.101562 59.101562 19.699219 60.535156 20.898438 C 61.933594 22.101562 62.667969 23.535156 62.667969 25.234375 C 62.667969 27.101562 61.933594 28.667969 60.5 30 C 60.5 30.898438 60.101562 31.964844 59.300781 33.101562 C 58.5 34.265625 57.632812 34.933594 56.699219 35.132812 C 56.5 36.167969 56 37.035156 55.265625 37.734375 C 54.5 38.464844 53.601562 38.933594 52.535156 39.167969 C 53.035156 39.699219 53.265625 40.300781 53.265625 40.964844 C 53.265625 41.800781 52.964844 42.5 52.398438 43.066406 C 51.800781 43.632812 51.101562 43.898438 50.265625 43.898438 C 49.464844 43.898438 48.765625 43.601562 48.167969 43.035156 C 47.566406 42.464844 47.300781 41.765625 47.300781 40.964844 C 47.300781 40.867188 47.332031 40.699219 47.367188 40.5 C 47.398438 40.300781 47.433594 40.132812 47.433594 40.066406 L 47.332031 40.066406 C 46.367188 40.066406 45.535156 39.699219 44.832031 39 C 44.132812 38.300781 43.765625 37.464844 43.765625 36.5 C 43.765625 36.101562 43.964844 35.5 44.367188 34.734375 C 43.566406 34.332031 42.933594 33.632812 42.464844 32.632812 L 40.367188 32.632812 C 38.566406 32.464844 37 31.734375 35.734375 30.464844 C 34.464844 29.199219 33.800781 27.632812 33.800781 25.800781 Z M 49.199219 51.601562 C 49.199219 51.066406 49.265625 50.464844 49.433594 49.800781 C 49.601562 49.132812 49.800781 48.632812 49.964844 48.234375 C 50.132812 47.832031 50.367188 47.332031 50.667969 46.734375 C 50.964844 46.132812 51.167969 45.699219 51.300781 45.367188 L 52.566406 45.367188 C 53.5 45.367188 54.199219 45.734375 54.765625 46.433594 L 55 46.765625 L 59.367188 55.035156 L 74.867188 72.464844 L 75 72.566406 C 75.699219 73.464844 75.800781 74.433594 75.265625 75.5 C 74.765625 76.535156 73.933594 77.035156 72.765625 77.035156 L 54 77.035156 C 54.566406 76.5 55.066406 76.066406 55.464844 75.734375 C 55.867188 75.367188 56.367188 74.832031 56.964844 74.101562 C 57.566406 73.367188 58.066406 72.667969 58.367188 72.066406 C 58.667969 71.464844 58.933594 70.667969 59.132812 69.765625 C 59.332031 68.867188 59.367188 68 59.167969 67.132812 C 58.964844 66.300781 58.566406 65.367188 57.898438 64.332031 C 57.265625 63.300781 56.367188 62.300781 55.199219 61.300781 C 54.066406 60.300781 53.066406 59.332031 52.265625 58.367188 C 51.464844 57.433594 50.832031 56.566406 50.398438 55.832031 C 49.964844 55.101562 49.632812 54.332031 49.433594 53.566406 C 49.300781 52.800781 49.199219 52.132812 49.199219 51.601562 Z M 49.199219 51.601562 "/>
</g>
</svg>
