<?xml version="1.0" encoding="UTF-8"?>
<svg xmlns="http://www.w3.org/2000/svg" xmlns:xlink="http://www.w3.org/1999/xlink" width="100px" height="100px" viewBox="0 0 100 100" version="1.1">
<g id="surface1">
<path style=" stroke:none;fill-rule:nonzero;fill:rgb(0%,0%,0%);fill-opacity:1;" d="M 12.464844 48.332031 C 12.464844 41.535156 14.167969 35.234375 17.535156 29.464844 C 20.898438 23.699219 25.464844 19.132812 31.234375 15.765625 C 37 12.398438 43.265625 10.734375 50.035156 10.734375 C 55.101562 10.734375 59.964844 11.734375 64.601562 13.699219 C 69.234375 15.667969 73.199219 18.367188 76.566406 21.699219 C 79.933594 25.035156 82.601562 29.035156 84.566406 33.699219 C 86.535156 38.367188 87.535156 43.199219 87.535156 48.332031 C 87.535156 53.398438 86.535156 58.265625 84.566406 62.898438 C 82.601562 67.535156 79.898438 71.535156 76.566406 74.867188 C 73.234375 78.199219 69.234375 80.867188 64.601562 82.832031 C 59.964844 84.800781 55.132812 85.800781 50.035156 85.800781 C 44.933594 85.800781 40.035156 84.800781 35.398438 82.832031 C 30.765625 80.867188 26.765625 78.167969 23.398438 74.832031 C 20.035156 71.5 17.398438 67.5 15.398438 62.898438 C 13.398438 58.300781 12.464844 53.433594 12.464844 48.332031 Z M 20.734375 48.332031 C 20.734375 56.234375 23.601562 63.101562 29.367188 68.933594 C 35.132812 74.699219 42 77.566406 50.035156 77.566406 C 55.300781 77.566406 60.199219 76.265625 64.667969 73.632812 C 69.132812 71 72.734375 67.464844 75.367188 62.964844 C 78 58.464844 79.332031 53.601562 79.332031 48.332031 C 79.332031 43.066406 78 38.167969 75.367188 33.667969 C 72.734375 29.167969 69.167969 25.601562 64.667969 22.964844 C 60.167969 20.332031 55.300781 19.035156 50.035156 19.035156 C 44.765625 19.035156 39.867188 20.332031 35.398438 22.964844 C 30.933594 25.601562 27.332031 29.167969 24.667969 33.667969 C 22 38.167969 20.734375 43.066406 20.734375 48.332031 Z M 37.035156 67.832031 L 49.535156 24.132812 C 49.566406 23.800781 49.734375 23.632812 50.035156 23.632812 C 50.332031 23.632812 50.5 23.800781 50.535156 24.132812 L 63 67.832031 C 63.132812 68.199219 63.101562 68.464844 62.933594 68.667969 C 62.765625 68.867188 62.5 68.867188 62.132812 68.667969 L 50.566406 64.332031 C 50.234375 64.199219 49.898438 64.199219 49.601562 64.332031 L 37.933594 68.667969 C 37.601562 68.867188 37.367188 68.867188 37.234375 68.667969 C 37.101562 68.464844 36.964844 68.167969 37.035156 67.832031 Z M 37.035156 67.832031 "/>
</g>
</svg>
