<?xml version="1.0" encoding="UTF-8"?>
<svg xmlns="http://www.w3.org/2000/svg" xmlns:xlink="http://www.w3.org/1999/xlink" width="100px" height="100px" viewBox="0 0 100 100" version="1.1">
<g id="surface1">
<path style=" stroke:none;fill-rule:nonzero;fill:rgb(0%,0%,0%);fill-opacity:1;" d="M 10.5 45 C 10.5 45.601562 10.699219 46.035156 11.066406 46.332031 C 11.464844 46.699219 11.933594 46.898438 12.464844 46.898438 L 47.132812 46.898438 C 47.734375 46.898438 48.234375 47.101562 48.667969 47.535156 C 49.101562 47.933594 49.332031 48.464844 49.332031 49.066406 C 49.332031 49.667969 49.101562 50.199219 48.667969 50.632812 C 48.234375 51.066406 47.734375 51.300781 47.132812 51.300781 C 46.535156 51.300781 46 51.066406 45.566406 50.601562 C 45.167969 50.234375 44.699219 50.066406 44.234375 50.066406 C 43.699219 50.066406 43.234375 50.234375 42.867188 50.601562 C 42.5 50.964844 42.332031 51.398438 42.332031 51.898438 C 42.332031 52.433594 42.535156 52.898438 42.898438 53.265625 C 44.101562 54.464844 45.5 55.035156 47.132812 55.035156 C 48.765625 55.035156 50.167969 54.464844 51.332031 53.300781 C 52.5 52.132812 53.066406 50.734375 53.066406 49.066406 C 53.066406 47.433594 52.5 46 51.332031 44.832031 C 50.167969 43.667969 48.765625 43.066406 47.132812 43.066406 L 12.5 43.066406 C 11.964844 43.066406 11.5 43.265625 11.101562 43.632812 C 10.699219 44.035156 10.5 44.464844 10.5 45 Z M 10.5 38.265625 C 10.5 38.832031 10.699219 39.265625 11.066406 39.566406 C 11.464844 39.933594 11.933594 40.101562 12.464844 40.101562 L 58.5 40.101562 C 60.132812 40.101562 61.566406 39.5 62.734375 38.367188 C 63.898438 37.199219 64.464844 35.800781 64.464844 34.132812 C 64.464844 32.5 63.898438 31.101562 62.734375 29.933594 C 61.566406 28.765625 60.167969 28.199219 58.5 28.199219 C 56.867188 28.199219 55.464844 28.765625 54.265625 29.898438 C 53.898438 30.300781 53.734375 30.800781 53.734375 31.300781 C 53.734375 31.832031 53.898438 32.300781 54.265625 32.632812 C 54.632812 32.964844 55.066406 33.132812 55.601562 33.132812 C 56.101562 33.132812 56.566406 32.964844 56.964844 32.601562 C 57.367188 32.199219 57.867188 32 58.464844 32 C 59.035156 32 59.566406 32.199219 60 32.601562 C 60.433594 33 60.667969 33.5 60.667969 34.101562 C 60.667969 34.699219 60.433594 35.234375 60 35.667969 C 59.566406 36.101562 59.066406 36.332031 58.464844 36.332031 L 12.5 36.332031 C 11.964844 36.332031 11.5 36.535156 11.101562 36.898438 C 10.699219 37.265625 10.5 37.734375 10.5 38.265625 Z M 53.234375 72.667969 L 61.433594 72.667969 L 66.898438 46.199219 L 58.734375 46.199219 Z M 67.199219 62.933594 C 67.199219 64.667969 67.464844 66.199219 68 67.535156 C 68.535156 68.867188 69.265625 69.933594 70.199219 70.699219 C 71.101562 71.464844 72.132812 72.035156 73.199219 72.433594 C 74.265625 72.832031 75.464844 73 76.699219 73 C 78.734375 73 80.566406 72.601562 82.167969 71.734375 C 83.765625 70.898438 85.035156 69.867188 85.933594 68.632812 C 86.832031 67.398438 87.601562 66 88.199219 64.464844 C 88.800781 62.898438 89.199219 61.5 89.433594 60.234375 C 89.632812 58.964844 89.734375 57.800781 89.734375 56.734375 C 89.734375 53.5 88.832031 51 87.066406 49.234375 C 85.300781 47.464844 82.933594 46.566406 79.964844 46.566406 C 76.535156 46.566406 73.535156 48.101562 70.964844 51.132812 C 68.464844 54.199219 67.199219 58.132812 67.199219 62.933594 Z M 74.035156 63.265625 C 74.035156 62.734375 74.066406 62.101562 74.167969 61.300781 C 74.265625 60.535156 74.433594 59.601562 74.699219 58.5 C 74.964844 57.433594 75.300781 56.433594 75.699219 55.5 C 76.101562 54.601562 76.667969 53.832031 77.433594 53.199219 C 78.167969 52.566406 79 52.234375 79.933594 52.234375 C 80.832031 52.234375 81.535156 52.535156 82.101562 53.132812 C 82.632812 53.734375 82.898438 54.601562 82.898438 55.765625 C 82.898438 58.964844 82.332031 61.699219 81.234375 63.933594 C 80.132812 66.167969 78.734375 67.300781 77.132812 67.300781 C 75.066406 67.300781 74.035156 65.964844 74.035156 63.265625 Z M 74.035156 63.265625 "/>
</g>
</svg>
