<?xml version="1.0" encoding="UTF-8"?>
<svg xmlns="http://www.w3.org/2000/svg" xmlns:xlink="http://www.w3.org/1999/xlink" width="100px" height="100px" viewBox="0 0 100 100" version="1.1">
<g id="surface1">
<path style=" stroke:none;fill-rule:nonzero;fill:rgb(0%,0%,0%);fill-opacity:1;" d="M 16.601562 45 C 16.601562 45.601562 16.800781 46.035156 17.167969 46.332031 C 17.566406 46.699219 18.035156 46.898438 18.566406 46.898438 L 53.234375 46.898438 C 53.800781 46.898438 54.332031 47.101562 54.765625 47.535156 C 55.199219 47.933594 55.433594 48.464844 55.433594 49.066406 C 55.433594 49.667969 55.199219 50.199219 54.765625 50.632812 C 54.332031 51.066406 53.832031 51.300781 53.234375 51.300781 C 52.632812 51.300781 52.101562 51.066406 51.667969 50.601562 C 51.265625 50.234375 50.800781 50.066406 50.332031 50.066406 C 49.800781 50.066406 49.332031 50.234375 48.964844 50.601562 C 48.601562 50.964844 48.433594 51.398438 48.433594 51.898438 C 48.433594 52.433594 48.632812 52.898438 49 53.265625 C 50.199219 54.464844 51.601562 55.035156 53.234375 55.035156 C 54.867188 55.035156 56.265625 54.464844 57.433594 53.300781 C 58.601562 52.132812 59.167969 50.734375 59.167969 49.066406 C 59.167969 47.433594 58.601562 46 57.433594 44.832031 C 56.265625 43.667969 54.867188 43.066406 53.234375 43.066406 L 18.566406 43.066406 C 18.035156 43.066406 17.566406 43.265625 17.167969 43.632812 C 16.800781 44.035156 16.601562 44.464844 16.601562 45 Z M 16.601562 38.265625 C 16.601562 38.832031 16.800781 39.265625 17.167969 39.566406 C 17.566406 39.933594 18.035156 40.101562 18.566406 40.101562 L 64.601562 40.101562 C 66.234375 40.101562 67.667969 39.5 68.832031 38.367188 C 70 37.199219 70.566406 35.800781 70.566406 34.132812 C 70.566406 32.5 70 31.101562 68.832031 29.933594 C 67.667969 28.765625 66.265625 28.199219 64.601562 28.199219 C 62.964844 28.199219 61.566406 28.765625 60.367188 29.898438 C 60 30.300781 59.832031 30.800781 59.832031 31.300781 C 59.832031 31.832031 60 32.300781 60.367188 32.632812 C 60.734375 32.964844 61.167969 33.132812 61.699219 33.132812 C 62.199219 33.132812 62.667969 32.964844 63.066406 32.601562 C 63.464844 32.199219 63.964844 32 64.566406 32 C 65.132812 32 65.667969 32.199219 66.101562 32.601562 C 66.535156 33 66.765625 33.5 66.765625 34.101562 C 66.765625 34.699219 66.535156 35.234375 66.101562 35.667969 C 65.667969 36.101562 65.167969 36.332031 64.566406 36.332031 L 18.566406 36.332031 C 18.035156 36.332031 17.566406 36.535156 17.167969 36.898438 C 16.800781 37.265625 16.601562 37.734375 16.601562 38.265625 Z M 59.933594 67.832031 L 71.832031 67.832031 L 70.765625 73 L 78.101562 73 L 79.300781 67.832031 L 82.667969 67.832031 L 83.867188 61.5 L 80.535156 61.5 L 83.535156 47.035156 L 76.132812 47.035156 L 61.367188 60.898438 Z M 67.433594 61.5 L 74.898438 54.132812 L 75 54.132812 L 73.367188 61.5 Z M 67.433594 61.5 "/>
</g>
</svg>
