<?xml version="1.0" encoding="UTF-8"?>
<svg xmlns="http://www.w3.org/2000/svg" xmlns:xlink="http://www.w3.org/1999/xlink" width="100px" height="100px" viewBox="0 0 100 100" version="1.1">
<g id="surface1">
<path style=" stroke:none;fill-rule:nonzero;fill:rgb(0%,0%,0%);fill-opacity:1;" d="M 10.234375 45 C 10.234375 45.601562 10.433594 46.035156 10.800781 46.332031 C 11.199219 46.699219 11.667969 46.898438 12.199219 46.898438 L 46.867188 46.898438 C 47.433594 46.898438 47.964844 47.101562 48.398438 47.535156 C 48.832031 47.933594 49.066406 48.464844 49.066406 49.066406 C 49.066406 49.667969 48.832031 50.199219 48.398438 50.632812 C 47.964844 51.066406 47.464844 51.300781 46.867188 51.300781 C 46.265625 51.300781 45.734375 51.066406 45.300781 50.601562 C 44.867188 50.234375 44.433594 50.066406 43.964844 50.066406 C 43.433594 50.066406 42.964844 50.234375 42.601562 50.601562 C 42.234375 50.964844 42.066406 51.398438 42.066406 51.898438 C 42.066406 52.433594 42.265625 52.898438 42.632812 53.265625 C 43.832031 54.464844 45.234375 55.035156 46.898438 55.035156 C 48.566406 55.035156 49.933594 54.464844 51.101562 53.300781 C 52.265625 52.132812 52.832031 50.734375 52.832031 49.066406 C 52.832031 47.433594 52.265625 46 51.101562 44.832031 C 49.933594 43.667969 48.535156 43.066406 46.898438 43.066406 L 12.199219 43.066406 C 11.667969 43.066406 11.199219 43.265625 10.800781 43.632812 C 10.433594 44.035156 10.234375 44.464844 10.234375 45 Z M 10.234375 38.265625 C 10.234375 38.832031 10.433594 39.265625 10.800781 39.566406 C 11.199219 39.933594 11.667969 40.101562 12.199219 40.101562 L 58.234375 40.101562 C 59.867188 40.101562 61.300781 39.5 62.464844 38.367188 C 63.632812 37.199219 64.199219 35.800781 64.199219 34.132812 C 64.199219 32.5 63.632812 31.101562 62.464844 29.933594 C 61.300781 28.765625 59.898438 28.199219 58.234375 28.199219 C 56.601562 28.199219 55.199219 28.765625 54 29.898438 C 53.632812 30.300781 53.464844 30.800781 53.464844 31.300781 C 53.464844 31.832031 53.632812 32.300781 54 32.632812 C 54.367188 32.964844 54.800781 33.132812 55.332031 33.132812 C 55.832031 33.132812 56.300781 32.964844 56.699219 32.601562 C 57.101562 32.199219 57.601562 32 58.199219 32 C 58.765625 32 59.300781 32.199219 59.734375 32.601562 C 60.167969 33 60.398438 33.5 60.398438 34.101562 C 60.398438 34.699219 60.167969 35.234375 59.734375 35.667969 C 59.300781 36.101562 58.800781 36.332031 58.199219 36.332031 L 12.199219 36.332031 C 11.667969 36.332031 11.199219 36.535156 10.800781 36.898438 C 10.433594 37.265625 10.234375 37.734375 10.234375 38.265625 Z M 53.199219 73 L 61.433594 73 L 66.933594 46.367188 L 58.699219 46.367188 Z M 65.035156 73 L 87.101562 73 L 88.433594 66.667969 L 76.199219 66.667969 L 76.199219 66.601562 C 76.867188 66.300781 77.832031 65.867188 79.066406 65.367188 C 80.332031 64.867188 81.367188 64.433594 82.234375 64.101562 C 83.101562 63.765625 84.035156 63.265625 85.101562 62.632812 C 86.167969 62 87.035156 61.367188 87.667969 60.699219 C 88.300781 60.035156 88.867188 59.199219 89.332031 58.199219 C 89.800781 57.199219 90.035156 56.066406 90.035156 54.867188 C 90.035156 53 89.566406 51.464844 88.601562 50.199219 C 87.632812 48.933594 86.433594 48.066406 85 47.535156 C 83.566406 47 81.933594 46.765625 80.167969 46.765625 C 76.933594 46.765625 74.300781 47.632812 72.265625 49.367188 C 70.234375 51.101562 69 53.667969 68.601562 57.066406 L 75.5 57.066406 C 75.5 55.800781 75.867188 54.765625 76.601562 53.898438 C 77.332031 53.035156 78.367188 52.632812 79.699219 52.632812 C 80.699219 52.632812 81.433594 52.898438 81.933594 53.433594 C 82.433594 53.964844 82.667969 54.566406 82.667969 55.265625 C 82.667969 56.332031 82.300781 57.199219 81.566406 57.800781 C 80.832031 58.398438 79.464844 59.199219 77.398438 60.199219 C 77.265625 60.234375 77.167969 60.265625 77.132812 60.332031 C 74.167969 61.765625 72.332031 62.667969 71.632812 63.101562 C 69 64.667969 67.167969 66.632812 66.132812 68.898438 C 65.601562 70.101562 65.234375 71.464844 65.035156 73 Z M 65.035156 73 "/>
</g>
</svg>
