<?xml version="1.0" encoding="UTF-8"?>
<svg xmlns="http://www.w3.org/2000/svg" xmlns:xlink="http://www.w3.org/1999/xlink" width="100px" height="100px" viewBox="0 0 100 100" version="1.1">
<g id="surface1">
<path style=" stroke:none;fill-rule:nonzero;fill:rgb(0%,0%,0%);fill-opacity:1;" d="M 19.199219 45 C 19.199219 45.601562 19.398438 46.035156 19.765625 46.332031 C 20.167969 46.699219 20.632812 46.898438 21.167969 46.898438 L 55.832031 46.898438 C 56.398438 46.898438 56.933594 47.101562 57.367188 47.535156 C 57.800781 47.933594 58.035156 48.464844 58.035156 49.066406 C 58.035156 49.667969 57.800781 50.199219 57.367188 50.632812 C 56.933594 51.066406 56.433594 51.300781 55.832031 51.300781 C 55.234375 51.300781 54.699219 51.066406 54.265625 50.601562 C 53.867188 50.234375 53.398438 50.066406 52.933594 50.066406 C 52.398438 50.066406 51.933594 50.234375 51.566406 50.601562 C 51.199219 50.964844 51.035156 51.398438 51.035156 51.898438 C 51.035156 52.433594 51.234375 52.898438 51.601562 53.265625 C 52.800781 54.464844 54.199219 55.035156 55.832031 55.035156 C 57.464844 55.035156 58.867188 54.464844 60.035156 53.300781 C 61.199219 52.132812 61.765625 50.734375 61.765625 49.066406 C 61.765625 47.433594 61.199219 46 60.035156 44.832031 C 58.867188 43.667969 57.464844 43.066406 55.832031 43.066406 L 21.167969 43.066406 C 20.632812 43.066406 20.167969 43.265625 19.765625 43.632812 C 19.367188 44.035156 19.199219 44.464844 19.199219 45 Z M 19.199219 38.265625 C 19.199219 38.832031 19.398438 39.265625 19.765625 39.566406 C 20.167969 39.933594 20.632812 40.101562 21.167969 40.101562 L 67.199219 40.101562 C 68.832031 40.101562 70.265625 39.5 71.433594 38.367188 C 72.601562 37.199219 73.167969 35.800781 73.167969 34.132812 C 73.167969 32.5 72.601562 31.101562 71.433594 29.933594 C 70.265625 28.765625 68.867188 28.199219 67.199219 28.199219 C 65.566406 28.199219 64.167969 28.765625 62.964844 29.898438 C 62.601562 30.300781 62.433594 30.800781 62.433594 31.300781 C 62.433594 31.832031 62.601562 32.300781 62.964844 32.632812 C 63.332031 32.964844 63.765625 33.132812 64.300781 33.132812 C 64.800781 33.132812 65.265625 32.964844 65.667969 32.601562 C 66.066406 32.199219 66.566406 32 67.167969 32 C 67.734375 32 68.265625 32.199219 68.699219 32.601562 C 69.132812 33 69.367188 33.5 69.367188 34.101562 C 69.367188 34.699219 69.132812 35.234375 68.699219 35.667969 C 68.265625 36.101562 67.765625 36.332031 67.167969 36.332031 L 21.167969 36.332031 C 20.632812 36.332031 20.167969 36.535156 19.765625 36.898438 C 19.367188 37.265625 19.199219 37.734375 19.199219 38.265625 Z M 62.167969 72.832031 L 70.398438 72.832031 L 75.898438 46.234375 L 67.667969 46.234375 Z M 62.167969 72.832031 "/>
</g>
</svg>
