<?xml version="1.0" encoding="UTF-8"?>
<svg xmlns="http://www.w3.org/2000/svg" xmlns:xlink="http://www.w3.org/1999/xlink" width="100px" height="100px" viewBox="0 0 100 100" version="1.1">
<g id="surface1">
<path style=" stroke:none;fill-rule:nonzero;fill:rgb(0%,0%,0%);fill-opacity:1;" d="M 15.601562 45 C 15.601562 45.601562 15.800781 46.035156 16.167969 46.332031 C 16.566406 46.699219 17.035156 46.898438 17.566406 46.898438 L 52.234375 46.898438 C 52.800781 46.898438 53.332031 47.101562 53.765625 47.535156 C 54.199219 47.933594 54.433594 48.464844 54.433594 49.066406 C 54.433594 49.667969 54.199219 50.199219 53.765625 50.632812 C 53.332031 51.066406 52.832031 51.300781 52.234375 51.300781 C 51.632812 51.300781 51.101562 51.066406 50.667969 50.601562 C 50.234375 50.234375 49.800781 50.066406 49.332031 50.066406 C 48.800781 50.066406 48.332031 50.234375 47.964844 50.601562 C 47.601562 50.964844 47.433594 51.398438 47.433594 51.898438 C 47.433594 52.433594 47.632812 52.898438 48 53.265625 C 49.199219 54.464844 50.601562 55.035156 52.265625 55.035156 C 53.933594 55.035156 55.300781 54.464844 56.464844 53.300781 C 57.632812 52.132812 58.199219 50.734375 58.199219 49.066406 C 58.199219 47.433594 57.632812 46 56.464844 44.832031 C 55.300781 43.667969 53.898438 43.066406 52.265625 43.066406 L 17.566406 43.066406 C 17.035156 43.066406 16.566406 43.265625 16.167969 43.632812 C 15.800781 44.035156 15.601562 44.464844 15.601562 45 Z M 15.601562 38.265625 C 15.601562 38.832031 15.800781 39.265625 16.167969 39.566406 C 16.566406 39.933594 17.035156 40.101562 17.566406 40.101562 L 63.601562 40.101562 C 65.234375 40.101562 66.667969 39.5 67.832031 38.367188 C 69 37.199219 69.566406 35.800781 69.566406 34.132812 C 69.566406 32.5 69 31.101562 67.832031 29.933594 C 66.667969 28.765625 65.265625 28.199219 63.601562 28.199219 C 61.964844 28.199219 60.566406 28.765625 59.367188 29.898438 C 59 30.300781 58.832031 30.800781 58.832031 31.300781 C 58.832031 31.832031 59 32.300781 59.367188 32.632812 C 59.734375 32.964844 60.167969 33.132812 60.699219 33.132812 C 61.199219 33.132812 61.667969 32.964844 62.066406 32.601562 C 62.464844 32.199219 62.964844 32 63.566406 32 C 64.132812 32 64.667969 32.199219 65.101562 32.601562 C 65.535156 33 65.765625 33.5 65.765625 34.101562 C 65.765625 34.699219 65.535156 35.234375 65.101562 35.667969 C 64.667969 36.101562 64.167969 36.332031 63.566406 36.332031 L 17.566406 36.332031 C 17.035156 36.332031 16.566406 36.535156 16.167969 36.898438 C 15.800781 37.265625 15.601562 37.734375 15.601562 38.265625 Z M 58.566406 73 L 66.800781 73 L 72.300781 46.367188 L 64.066406 46.367188 Z M 71 73 L 79.199219 73 L 84.699219 46.367188 L 76.535156 46.367188 Z M 71 73 "/>
</g>
</svg>
