<?xml version="1.0" encoding="UTF-8"?>
<svg xmlns="http://www.w3.org/2000/svg" xmlns:xlink="http://www.w3.org/1999/xlink" width="100px" height="100px" viewBox="0 0 100 100" version="1.1">
<g id="surface1">
<path style=" stroke:none;fill-rule:nonzero;fill:rgb(0%,0%,0%);fill-opacity:1;" d="M 16.964844 45 C 16.964844 45.601562 17.167969 46.035156 17.535156 46.332031 C 17.933594 46.699219 18.398438 46.898438 18.933594 46.898438 L 53.601562 46.898438 C 54.199219 46.898438 54.699219 47.101562 55.132812 47.535156 C 55.566406 47.933594 55.800781 48.464844 55.800781 49.066406 C 55.800781 49.667969 55.566406 50.199219 55.132812 50.632812 C 54.699219 51.066406 54.199219 51.300781 53.601562 51.300781 C 53 51.300781 52.464844 51.066406 52.035156 50.601562 C 51.601562 50.234375 51.167969 50.066406 50.699219 50.066406 C 50.167969 50.066406 49.699219 50.234375 49.332031 50.601562 C 48.964844 50.964844 48.800781 51.398438 48.800781 51.898438 C 48.800781 52.433594 49 52.898438 49.367188 53.265625 C 50.566406 54.464844 51.964844 55.035156 53.601562 55.035156 C 55.234375 55.035156 56.632812 54.464844 57.800781 53.300781 C 58.964844 52.132812 59.535156 50.734375 59.535156 49.066406 C 59.535156 47.433594 58.964844 46 57.800781 44.832031 C 56.632812 43.667969 55.234375 43.066406 53.601562 43.066406 L 18.933594 43.066406 C 18.398438 43.066406 17.933594 43.265625 17.535156 43.632812 C 17.132812 44.035156 16.964844 44.464844 16.964844 45 Z M 16.964844 38.265625 C 16.964844 38.832031 17.167969 39.265625 17.535156 39.566406 C 17.933594 39.933594 18.398438 40.101562 18.933594 40.101562 L 64.964844 40.101562 C 66.601562 40.101562 68.035156 39.5 69.199219 38.367188 C 70.367188 37.199219 70.933594 35.800781 70.933594 34.132812 C 70.933594 32.5 70.367188 31.101562 69.199219 29.933594 C 68.035156 28.765625 66.632812 28.199219 64.964844 28.199219 C 63.332031 28.199219 61.933594 28.765625 60.734375 29.898438 C 60.367188 30.300781 60.199219 30.800781 60.199219 31.300781 C 60.199219 31.832031 60.367188 32.300781 60.734375 32.632812 C 61.101562 32.964844 61.535156 33.132812 62.066406 33.132812 C 62.566406 33.132812 63.035156 32.964844 63.433594 32.601562 C 63.832031 32.199219 64.332031 32 64.933594 32 C 65.5 32 66.035156 32.199219 66.464844 32.601562 C 66.898438 33 67.132812 33.5 67.132812 34.101562 C 67.132812 34.699219 66.898438 35.234375 66.464844 35.667969 C 66.035156 36.101562 65.535156 36.332031 64.933594 36.332031 L 18.933594 36.332031 C 18.398438 36.332031 17.933594 36.535156 17.535156 36.898438 C 17.132812 37.265625 16.964844 37.734375 16.964844 38.265625 Z M 60.601562 65.867188 C 60.667969 67.167969 60.964844 68.300781 61.535156 69.265625 C 62.101562 70.234375 62.832031 70.964844 63.765625 71.5 C 64.699219 72.035156 65.699219 72.398438 66.765625 72.632812 C 67.832031 72.867188 69 73 70.234375 73 C 72.132812 73 73.867188 72.632812 75.398438 71.933594 C 76.964844 71.234375 78.199219 70.332031 79.167969 69.234375 C 80.132812 68.132812 80.933594 66.898438 81.601562 65.464844 C 82.265625 64.035156 82.699219 62.667969 82.964844 61.367188 C 83.234375 60.066406 83.367188 58.765625 83.367188 57.535156 C 83.367188 54 82.464844 51.300781 80.667969 49.433594 C 78.867188 47.535156 76.464844 46.601562 73.433594 46.601562 C 70.332031 46.601562 67.699219 47.535156 65.566406 49.433594 C 63.433594 51.332031 62.332031 53.832031 62.332031 56.898438 C 62.332031 59.101562 63.035156 60.898438 64.433594 62.300781 C 65.832031 63.699219 67.632812 64.398438 69.867188 64.398438 C 71.066406 64.398438 72.199219 64.167969 73.367188 63.667969 C 74.5 63.199219 75.300781 62.566406 75.765625 61.867188 L 75.867188 61.867188 C 75.464844 63.464844 74.832031 64.800781 73.933594 65.933594 C 73.035156 67.066406 71.867188 67.632812 70.398438 67.632812 C 69.433594 67.632812 68.800781 67.535156 68.433594 67.300781 C 68.035156 66.933594 67.734375 66.464844 67.632812 65.898438 L 60.601562 65.898438 Z M 69.167969 56.265625 C 69.167969 55.234375 69.5 54.332031 70.132812 53.566406 C 70.765625 52.800781 71.734375 52.433594 73 52.433594 C 74.132812 52.433594 75 52.734375 75.566406 53.300781 C 76.167969 53.867188 76.464844 54.734375 76.464844 55.832031 C 76.464844 56.132812 76.398438 56.5 76.265625 56.867188 C 76.132812 57.234375 75.933594 57.632812 75.667969 58.066406 C 75.398438 58.464844 75 58.832031 74.433594 59.101562 C 73.867188 59.367188 73.265625 59.5 72.566406 59.5 C 71.867188 59.5 71.265625 59.367188 70.765625 59.132812 C 70.265625 58.898438 69.933594 58.566406 69.699219 58.167969 C 69.464844 57.765625 69.332031 57.433594 69.234375 57.132812 C 69.132812 56.832031 69.167969 56.535156 69.167969 56.265625 Z M 69.167969 56.265625 "/>
</g>
</svg>
