<?xml version="1.0" encoding="UTF-8"?>
<svg xmlns="http://www.w3.org/2000/svg" xmlns:xlink="http://www.w3.org/1999/xlink" width="100px" height="100px" viewBox="0 0 100 100" version="1.1">
<g id="surface1">
<path style=" stroke:none;fill-rule:nonzero;fill:rgb(0%,0%,0%);fill-opacity:1;" d="M 16.464844 45 C 16.464844 45.601562 16.667969 46.035156 17.035156 46.332031 C 17.433594 46.699219 17.898438 46.898438 18.433594 46.898438 L 53.101562 46.898438 C 53.667969 46.898438 54.199219 47.101562 54.632812 47.535156 C 55.066406 47.933594 55.300781 48.464844 55.300781 49.066406 C 55.300781 49.667969 55.066406 50.199219 54.632812 50.632812 C 54.199219 51.066406 53.699219 51.300781 53.101562 51.300781 C 52.5 51.300781 51.964844 51.066406 51.535156 50.601562 C 51.132812 50.234375 50.667969 50.066406 50.199219 50.066406 C 49.667969 50.066406 49.199219 50.234375 48.832031 50.601562 C 48.464844 50.964844 48.300781 51.398438 48.300781 51.898438 C 48.300781 52.433594 48.5 52.898438 48.867188 53.265625 C 50.066406 54.464844 51.464844 55.035156 53.101562 55.035156 C 54.734375 55.035156 56.132812 54.464844 57.300781 53.300781 C 58.464844 52.132812 59.035156 50.734375 59.035156 49.066406 C 59.035156 47.433594 58.464844 46 57.300781 44.832031 C 56.132812 43.667969 54.734375 43.066406 53.101562 43.066406 L 18.433594 43.066406 C 17.898438 43.066406 17.433594 43.265625 17.035156 43.632812 C 16.632812 44.035156 16.464844 44.464844 16.464844 45 Z M 16.464844 38.265625 C 16.464844 38.832031 16.667969 39.265625 17.035156 39.566406 C 17.433594 39.933594 17.898438 40.101562 18.433594 40.101562 L 64.464844 40.101562 C 66.101562 40.101562 67.535156 39.5 68.699219 38.367188 C 69.867188 37.199219 70.433594 35.800781 70.433594 34.132812 C 70.433594 32.5 69.867188 31.101562 68.699219 29.933594 C 67.535156 28.765625 66.132812 28.199219 64.464844 28.199219 C 62.832031 28.199219 61.433594 28.765625 60.234375 29.898438 C 59.867188 30.300781 59.699219 30.800781 59.699219 31.300781 C 59.699219 31.832031 59.867188 32.300781 60.234375 32.632812 C 60.601562 32.964844 61.035156 33.132812 61.566406 33.132812 C 62.066406 33.132812 62.535156 32.964844 62.933594 32.601562 C 63.332031 32.199219 63.832031 32 64.464844 32 C 65.035156 32 65.566406 32.199219 66 32.601562 C 66.433594 33 66.667969 33.5 66.667969 34.101562 C 66.667969 34.699219 66.433594 35.234375 66 35.667969 C 65.566406 36.101562 65.066406 36.332031 64.464844 36.332031 L 18.433594 36.332031 C 17.898438 36.332031 17.433594 36.535156 17.035156 36.898438 C 16.632812 37.265625 16.464844 37.734375 16.464844 38.265625 Z M 58.867188 72.832031 L 80.933594 72.832031 L 82.265625 66.535156 L 70 66.535156 L 70 66.433594 C 70.667969 66.132812 71.632812 65.699219 72.867188 65.199219 C 74.132812 64.699219 75.167969 64.265625 76.035156 63.933594 C 76.898438 63.601562 77.867188 63.101562 78.933594 62.464844 C 80 61.832031 80.832031 61.199219 81.5 60.566406 C 82.132812 59.933594 82.699219 59.101562 83.167969 58.066406 C 83.632812 57.035156 83.867188 55.933594 83.867188 54.734375 C 83.867188 52.867188 83.398438 51.332031 82.433594 50.066406 C 81.464844 48.800781 80.265625 47.898438 78.832031 47.367188 C 77.398438 46.832031 75.765625 46.566406 74 46.566406 C 70.765625 46.566406 68.132812 47.433594 66.066406 49.167969 C 64 50.898438 62.800781 53.464844 62.398438 56.867188 L 69.367188 56.867188 C 69.367188 55.632812 69.734375 54.601562 70.433594 53.734375 C 71.167969 52.867188 72.167969 52.464844 73.464844 52.464844 C 74.464844 52.464844 75.199219 52.734375 75.699219 53.265625 C 76.199219 53.800781 76.464844 54.398438 76.464844 55.066406 C 76.464844 55.464844 76.433594 55.832031 76.367188 56.132812 C 76.300781 56.433594 76.132812 56.765625 75.867188 57.066406 C 75.601562 57.367188 75.367188 57.601562 75.167969 57.800781 C 74.964844 58 74.601562 58.234375 74.035156 58.566406 C 73.464844 58.867188 73.035156 59.132812 72.699219 59.300781 C 72.367188 59.464844 71.800781 59.734375 70.933594 60.132812 C 68 61.566406 66.167969 62.5 65.464844 62.898438 C 62.800781 64.5 60.964844 66.464844 59.933594 68.832031 C 59.398438 70.035156 59.035156 71.367188 58.867188 72.832031 Z M 58.867188 72.832031 "/>
</g>
</svg>
