<?xml version="1.0" encoding="UTF-8"?>
<svg xmlns="http://www.w3.org/2000/svg" xmlns:xlink="http://www.w3.org/1999/xlink" width="100px" height="100px" viewBox="0 0 100 100" version="1.1">
<g id="surface1">
<path style=" stroke:none;fill-rule:nonzero;fill:rgb(0%,0%,0%);fill-opacity:1;" d="M 16.699219 45 C 16.699219 45.601562 16.898438 46.035156 17.265625 46.332031 C 17.667969 46.699219 18.132812 46.898438 18.667969 46.898438 L 53.332031 46.898438 C 53.898438 46.898438 54.433594 47.101562 54.867188 47.535156 C 55.300781 47.933594 55.535156 48.464844 55.535156 49.066406 C 55.535156 49.667969 55.300781 50.199219 54.867188 50.632812 C 54.433594 51.066406 53.933594 51.300781 53.332031 51.300781 C 52.734375 51.300781 52.199219 51.066406 51.765625 50.601562 C 51.332031 50.234375 50.898438 50.066406 50.433594 50.066406 C 49.898438 50.066406 49.433594 50.234375 49.066406 50.601562 C 48.699219 50.964844 48.535156 51.398438 48.535156 51.898438 C 48.535156 52.433594 48.734375 52.898438 49.101562 53.265625 C 50.300781 54.464844 51.699219 55.035156 53.367188 55.035156 C 55.035156 55.035156 56.398438 54.464844 57.566406 53.300781 C 58.734375 52.132812 59.300781 50.734375 59.300781 49.066406 C 59.300781 47.433594 58.734375 46 57.566406 44.832031 C 56.398438 43.667969 55 43.066406 53.367188 43.066406 L 18.667969 43.066406 C 18.132812 43.066406 17.667969 43.265625 17.265625 43.632812 C 16.898438 44.035156 16.699219 44.464844 16.699219 45 Z M 16.699219 38.265625 C 16.699219 38.832031 16.898438 39.265625 17.265625 39.566406 C 17.667969 39.933594 18.132812 40.101562 18.667969 40.101562 L 64.699219 40.101562 C 66.332031 40.101562 67.765625 39.5 68.933594 38.367188 C 70.101562 37.199219 70.667969 35.800781 70.667969 34.132812 C 70.667969 32.5 70.101562 31.101562 68.933594 29.933594 C 67.765625 28.765625 66.367188 28.199219 64.699219 28.199219 C 63.066406 28.199219 61.667969 28.765625 60.464844 29.898438 C 60.101562 30.300781 59.933594 30.800781 59.933594 31.300781 C 59.933594 31.832031 60.101562 32.300781 60.464844 32.632812 C 60.832031 32.964844 61.265625 33.132812 61.800781 33.132812 C 62.300781 33.132812 62.765625 32.964844 63.167969 32.601562 C 63.566406 32.199219 64.066406 32 64.667969 32 C 65.234375 32 65.765625 32.199219 66.199219 32.601562 C 66.632812 33 66.867188 33.5 66.867188 34.101562 C 66.867188 34.699219 66.632812 35.234375 66.199219 35.667969 C 65.765625 36.101562 65.265625 36.332031 64.667969 36.332031 L 18.667969 36.332031 C 18.132812 36.332031 17.667969 36.535156 17.265625 36.898438 C 16.898438 37.265625 16.699219 37.734375 16.699219 38.265625 Z M 60.898438 63 C 60.898438 64.734375 61.167969 66.265625 61.699219 67.566406 C 62.234375 68.867188 62.964844 69.933594 63.898438 70.699219 C 64.832031 71.464844 65.832031 72.035156 66.933594 72.433594 C 68.035156 72.800781 69.199219 73 70.433594 73 C 72.132812 73 73.699219 72.699219 75.132812 72.132812 C 76.566406 71.566406 77.699219 70.800781 78.632812 69.832031 C 79.535156 68.867188 80.332031 67.800781 81 66.667969 C 81.667969 65.535156 82.167969 64.332031 82.5 63.066406 C 82.832031 61.800781 83.101562 60.667969 83.265625 59.632812 C 83.433594 58.601562 83.5 57.632812 83.5 56.765625 C 83.5 53.535156 82.601562 51.035156 80.832031 49.265625 C 79.066406 47.5 76.699219 46.601562 73.765625 46.601562 C 72.132812 46.601562 70.535156 47 69 47.765625 C 67.464844 48.535156 66.101562 49.632812 64.898438 51.035156 C 63.699219 52.433594 62.734375 54.167969 62.035156 56.234375 C 61.265625 58.300781 60.898438 60.566406 60.898438 63 Z M 67.734375 63.199219 C 67.734375 62.699219 67.765625 62.066406 67.867188 61.265625 C 67.964844 60.5 68.132812 59.566406 68.398438 58.5 C 68.667969 57.433594 69 56.433594 69.398438 55.535156 C 69.800781 54.632812 70.367188 53.867188 71.132812 53.234375 C 71.867188 52.601562 72.699219 52.265625 73.632812 52.265625 C 74.535156 52.265625 75.265625 52.566406 75.800781 53.132812 C 76.332031 53.699219 76.566406 54.601562 76.566406 55.765625 C 76.566406 58.964844 76 61.699219 74.898438 63.933594 C 73.800781 66.167969 72.433594 67.300781 70.800781 67.300781 C 68.765625 67.300781 67.734375 65.933594 67.734375 63.199219 Z M 67.734375 63.199219 "/>
</g>
</svg>
