<?xml version="1.0" encoding="UTF-8"?>
<svg xmlns="http://www.w3.org/2000/svg" xmlns:xlink="http://www.w3.org/1999/xlink" width="100px" height="100px" viewBox="0 0 100 100" version="1.1">
<g id="surface1">
<path style=" stroke:none;fill-rule:nonzero;fill:rgb(0%,0%,0%);fill-opacity:1;" d="M 16.632812 45 C 16.632812 45.601562 16.832031 46.035156 17.199219 46.332031 C 17.601562 46.699219 18.066406 46.898438 18.601562 46.898438 L 53.265625 46.898438 C 53.867188 46.898438 54.367188 47.101562 54.800781 47.535156 C 55.234375 47.933594 55.464844 48.464844 55.464844 49.066406 C 55.464844 49.667969 55.234375 50.199219 54.800781 50.632812 C 54.367188 51.066406 53.867188 51.300781 53.265625 51.300781 C 52.667969 51.300781 52.132812 51.066406 51.699219 50.601562 C 51.265625 50.234375 50.832031 50.066406 50.367188 50.066406 C 49.832031 50.066406 49.367188 50.234375 49 50.601562 C 48.632812 50.964844 48.464844 51.398438 48.464844 51.898438 C 48.464844 52.433594 48.667969 52.898438 49.035156 53.265625 C 50.234375 54.464844 51.632812 55.035156 53.300781 55.035156 C 54.933594 55.035156 56.332031 54.464844 57.5 53.300781 C 58.667969 52.132812 59.234375 50.734375 59.234375 49.066406 C 59.234375 47.433594 58.667969 46 57.5 44.832031 C 56.332031 43.667969 54.933594 43.066406 53.300781 43.066406 L 18.601562 43.066406 C 18.066406 43.066406 17.601562 43.265625 17.199219 43.632812 C 16.832031 44.035156 16.632812 44.464844 16.632812 45 Z M 16.632812 38.265625 C 16.632812 38.832031 16.832031 39.265625 17.199219 39.566406 C 17.601562 39.933594 18.066406 40.101562 18.601562 40.101562 L 64.632812 40.101562 C 66.265625 40.101562 67.699219 39.5 68.867188 38.367188 C 70.035156 37.199219 70.601562 35.800781 70.601562 34.132812 C 70.601562 32.5 70.035156 31.101562 68.867188 29.933594 C 67.699219 28.765625 66.300781 28.199219 64.632812 28.199219 C 63 28.199219 61.601562 28.765625 60.398438 29.898438 C 60.035156 30.300781 59.867188 30.800781 59.867188 31.300781 C 59.867188 31.832031 60.035156 32.300781 60.398438 32.632812 C 60.765625 32.964844 61.199219 33.132812 61.734375 33.132812 C 62.234375 33.132812 62.699219 32.964844 63.101562 32.601562 C 63.5 32.199219 64 32 64.601562 32 C 65.167969 32 65.699219 32.199219 66.132812 32.601562 C 66.566406 33 66.800781 33.5 66.800781 34.101562 C 66.800781 34.699219 66.566406 35.234375 66.132812 35.667969 C 65.699219 36.101562 65.199219 36.332031 64.601562 36.332031 L 18.601562 36.332031 C 18.066406 36.332031 17.601562 36.535156 17.199219 36.898438 C 16.832031 37.265625 16.632812 37.734375 16.632812 38.265625 Z M 59.964844 65.566406 C 59.964844 68 60.933594 69.867188 62.832031 71.101562 C 64.734375 72.367188 67.300781 73 70.535156 73 C 72.5 73 74.265625 72.800781 75.765625 72.398438 C 77.300781 72 78.464844 71.5 79.332031 70.933594 C 80.199219 70.367188 80.867188 69.667969 81.398438 68.867188 C 81.933594 68.066406 82.265625 67.332031 82.433594 66.667969 C 82.601562 66 82.699219 65.332031 82.699219 64.632812 C 82.699219 63.265625 82.300781 62.066406 81.5 61.101562 C 80.699219 60.101562 79.667969 59.464844 78.367188 59.199219 L 78.433594 59.101562 L 78.433594 59.132812 C 79.933594 58.933594 81.167969 58.265625 82.167969 57.132812 C 83.132812 56.035156 83.632812 54.699219 83.632812 53.167969 C 83.632812 51.898438 83.332031 50.800781 82.765625 49.898438 C 82.199219 49 81.398438 48.300781 80.398438 47.867188 C 79.398438 47.398438 78.367188 47.066406 77.332031 46.867188 C 76.300781 46.667969 75.167969 46.566406 73.964844 46.566406 C 72.367188 46.566406 70.964844 46.734375 69.699219 47.035156 C 68.433594 47.332031 67.398438 47.765625 66.601562 48.265625 C 65.800781 48.765625 65.167969 49.367188 64.632812 50.035156 C 64.101562 50.699219 63.734375 51.367188 63.535156 52.035156 C 63.332031 52.699219 63.234375 53.398438 63.234375 54.101562 C 63.234375 55.234375 63.535156 56.234375 64.132812 57.101562 C 64.734375 57.964844 65.566406 58.535156 66.632812 58.867188 L 66.632812 58.964844 C 64.765625 59.167969 63.167969 59.867188 61.898438 61 C 60.601562 62.234375 59.964844 63.734375 59.964844 65.566406 Z M 67 64.800781 C 67 63.632812 67.464844 62.765625 68.398438 62.234375 C 69.332031 61.699219 70.464844 61.433594 71.765625 61.433594 C 73.132812 61.433594 74.101562 61.734375 74.734375 62.367188 C 75.332031 62.964844 75.667969 63.632812 75.667969 64.367188 L 75.667969 64.800781 C 75.667969 65.734375 75.234375 66.433594 74.398438 66.933594 C 73.566406 67.398438 72.464844 67.667969 71.167969 67.667969 L 71.265625 67.632812 C 70.800781 67.632812 70.367188 67.601562 69.933594 67.535156 C 69.5 67.464844 69.035156 67.332031 68.566406 67.167969 C 68.101562 66.964844 67.734375 66.699219 67.433594 66.300781 C 67.167969 65.867188 67 65.367188 67 64.800781 Z M 69.535156 54.566406 C 69.535156 53.5 69.933594 52.734375 70.765625 52.265625 C 71.601562 51.800781 72.601562 51.535156 73.765625 51.535156 C 74.765625 51.535156 75.601562 51.765625 76.300781 52.199219 C 77 52.632812 77.332031 53.367188 77.332031 54.300781 C 77.332031 54.535156 77.265625 54.800781 77.167969 55.066406 C 77.066406 55.332031 76.867188 55.632812 76.601562 55.964844 C 76.332031 56.300781 75.898438 56.566406 75.300781 56.765625 C 74.699219 56.964844 73.964844 57.066406 73.101562 57.066406 C 71.765625 57.066406 70.832031 56.800781 70.300781 56.300781 C 69.800781 55.832031 69.535156 55.234375 69.535156 54.566406 Z M 69.535156 54.566406 "/>
</g>
</svg>
