<?xml version="1.0" encoding="UTF-8"?>
<svg xmlns="http://www.w3.org/2000/svg" xmlns:xlink="http://www.w3.org/1999/xlink" width="100px" height="100px" viewBox="0 0 100 100" version="1.1">
<g id="surface1">
<path style=" stroke:none;fill-rule:nonzero;fill:rgb(0%,0%,0%);fill-opacity:1;" d="M 16.398438 45 C 16.398438 45.601562 16.601562 46.035156 16.964844 46.332031 C 17.367188 46.699219 17.832031 46.898438 18.367188 46.898438 L 53.035156 46.898438 C 53.632812 46.898438 54.132812 47.101562 54.566406 47.535156 C 55 47.933594 55.234375 48.464844 55.234375 49.066406 C 55.234375 49.667969 55 50.199219 54.566406 50.632812 C 54.132812 51.066406 53.632812 51.300781 53.035156 51.300781 C 52.433594 51.300781 51.898438 51.066406 51.464844 50.601562 C 51.035156 50.234375 50.601562 50.066406 50.132812 50.066406 C 49.601562 50.066406 49.132812 50.234375 48.765625 50.601562 C 48.398438 50.964844 48.234375 51.398438 48.234375 51.898438 C 48.234375 52.433594 48.433594 52.898438 48.800781 53.265625 C 50 54.464844 51.398438 55.035156 53.066406 55.035156 C 54.699219 55.035156 56.101562 54.464844 57.265625 53.300781 C 58.433594 52.132812 59 50.734375 59 49.066406 C 59 47.433594 58.433594 46 57.265625 44.832031 C 56.101562 43.667969 54.699219 43.066406 53.066406 43.066406 L 18.367188 43.066406 C 17.832031 43.066406 17.367188 43.265625 16.964844 43.632812 C 16.601562 44.035156 16.398438 44.464844 16.398438 45 Z M 16.398438 38.265625 C 16.398438 38.832031 16.601562 39.265625 16.964844 39.566406 C 17.367188 39.933594 17.832031 40.101562 18.367188 40.101562 L 64.398438 40.101562 C 66.035156 40.101562 67.464844 39.5 68.632812 38.367188 C 69.800781 37.199219 70.367188 35.800781 70.367188 34.132812 C 70.367188 32.5 69.800781 31.101562 68.632812 29.933594 C 67.464844 28.765625 66.066406 28.199219 64.398438 28.199219 C 62.765625 28.199219 61.367188 28.765625 60.167969 29.898438 C 59.800781 30.300781 59.632812 30.800781 59.632812 31.300781 C 59.632812 31.832031 59.800781 32.300781 60.167969 32.632812 C 60.535156 32.964844 60.964844 33.132812 61.5 33.132812 C 62 33.132812 62.464844 32.964844 62.867188 32.601562 C 63.265625 32.199219 63.765625 32 64.367188 32 C 64.933594 32 65.464844 32.199219 65.898438 32.601562 C 66.332031 33 66.566406 33.5 66.566406 34.101562 C 66.566406 34.699219 66.332031 35.234375 65.898438 35.667969 C 65.464844 36.101562 64.964844 36.332031 64.367188 36.332031 L 18.367188 36.332031 C 17.832031 36.332031 17.367188 36.535156 16.964844 36.898438 C 16.601562 37.265625 16.398438 37.734375 16.398438 38.265625 Z M 61.101562 62.398438 C 61.101562 65.601562 61.933594 68.167969 63.601562 70.101562 C 65.265625 72.035156 67.800781 73 71.234375 73 C 74.398438 73 77 72.035156 79.066406 70.101562 C 81.132812 68.167969 82.132812 65.632812 82.132812 62.5 C 82.132812 60.367188 81.398438 58.601562 79.898438 57.265625 C 78.398438 55.933594 76.601562 55.265625 74.398438 55.265625 C 71.964844 55.265625 70.066406 56.101562 68.667969 57.765625 L 68.601562 57.765625 C 69.699219 53.898438 71.535156 51.964844 74.101562 51.964844 C 74.933594 51.964844 75.566406 52.132812 76.035156 52.433594 C 76.433594 52.734375 76.699219 53.167969 76.800781 53.800781 L 83.832031 53.800781 C 83.800781 52.765625 83.566406 51.832031 83.199219 51 C 82.800781 50.167969 82.332031 49.464844 81.734375 48.933594 C 81.132812 48.398438 80.433594 47.933594 79.632812 47.601562 C 78.832031 47.234375 78 47 77.132812 46.832031 C 76.265625 46.699219 75.398438 46.601562 74.464844 46.601562 C 72.398438 46.601562 70.535156 47 68.867188 47.800781 C 67.199219 48.601562 65.933594 49.601562 64.964844 50.765625 C 64.035156 51.933594 63.234375 53.265625 62.601562 54.765625 C 61.964844 56.265625 61.566406 57.632812 61.332031 58.867188 C 61.199219 60.132812 61.101562 61.300781 61.101562 62.398438 Z M 67.933594 63.898438 C 67.933594 62.667969 68.332031 61.734375 69.167969 61.101562 C 69.964844 60.464844 70.898438 60.132812 71.898438 60.132812 C 72.535156 60.132812 73.066406 60.234375 73.5 60.398438 C 73.933594 60.566406 74.265625 60.800781 74.5 61.035156 C 74.734375 61.265625 74.898438 61.566406 75 61.933594 C 75.132812 62.300781 75.199219 62.566406 75.234375 62.765625 C 75.265625 62.964844 75.265625 63.167969 75.265625 63.398438 C 75.265625 64.433594 74.898438 65.332031 74.199219 66.035156 C 73.5 66.734375 72.535156 67.101562 71.367188 67.101562 C 70.332031 67.101562 69.535156 66.800781 68.867188 66.199219 C 68.265625 65.632812 67.933594 64.867188 67.933594 63.898438 Z M 67.933594 63.898438 "/>
</g>
</svg>
