<?xml version="1.0" encoding="UTF-8"?>
<svg xmlns="http://www.w3.org/2000/svg" xmlns:xlink="http://www.w3.org/1999/xlink" width="100px" height="100px" viewBox="0 0 100 100" version="1.1">
<g id="surface1">
<path style=" stroke:none;fill-rule:nonzero;fill:rgb(0%,0%,0%);fill-opacity:1;" d="M 16.765625 45 C 16.765625 45.601562 16.964844 46.035156 17.332031 46.332031 C 17.734375 46.699219 18.199219 46.898438 18.734375 46.898438 L 53.398438 46.898438 C 53.964844 46.898438 54.5 47.101562 54.933594 47.535156 C 55.367188 47.933594 55.601562 48.464844 55.601562 49.066406 C 55.601562 49.667969 55.367188 50.199219 54.933594 50.632812 C 54.5 51.066406 54 51.300781 53.398438 51.300781 C 52.800781 51.300781 52.265625 51.066406 51.832031 50.601562 C 51.433594 50.234375 50.964844 50.066406 50.5 50.066406 C 49.964844 50.066406 49.5 50.234375 49.132812 50.601562 C 48.765625 50.964844 48.601562 51.398438 48.601562 51.898438 C 48.601562 52.433594 48.800781 52.898438 49.167969 53.265625 C 50.367188 54.464844 51.765625 55.035156 53.398438 55.035156 C 55.035156 55.035156 56.433594 54.464844 57.601562 53.300781 C 58.765625 52.132812 59.332031 50.734375 59.332031 49.066406 C 59.332031 47.433594 58.765625 46 57.601562 44.832031 C 56.433594 43.667969 55.035156 43.066406 53.398438 43.066406 L 18.734375 43.066406 C 18.199219 43.066406 17.734375 43.265625 17.332031 43.632812 C 16.964844 44.035156 16.765625 44.464844 16.765625 45 Z M 16.765625 38.265625 C 16.765625 38.832031 16.964844 39.265625 17.332031 39.566406 C 17.734375 39.933594 18.199219 40.101562 18.734375 40.101562 L 64.765625 40.101562 C 66.398438 40.101562 67.832031 39.5 69 38.367188 C 70.167969 37.199219 70.734375 35.800781 70.734375 34.132812 C 70.734375 32.5 70.167969 31.101562 69 29.933594 C 67.832031 28.765625 66.433594 28.199219 64.765625 28.199219 C 63.132812 28.199219 61.734375 28.765625 60.535156 29.898438 C 60.199219 30.300781 60 30.765625 60 31.265625 C 60 31.800781 60.167969 32.265625 60.535156 32.601562 C 60.898438 32.933594 61.332031 33.101562 61.867188 33.101562 C 62.367188 33.101562 62.832031 32.933594 63.234375 32.566406 C 63.632812 32.167969 64.132812 31.964844 64.734375 31.964844 C 65.300781 31.964844 65.832031 32.167969 66.265625 32.566406 C 66.699219 32.964844 66.933594 33.464844 66.933594 34.066406 C 66.933594 34.667969 66.699219 35.199219 66.265625 35.632812 C 65.832031 36.066406 65.332031 36.300781 64.734375 36.300781 L 18.734375 36.300781 C 18.199219 36.300781 17.734375 36.5 17.332031 36.867188 C 16.964844 37.265625 16.765625 37.734375 16.765625 38.265625 Z M 60.398438 65.066406 C 60.398438 65.964844 60.566406 66.832031 60.933594 67.699219 C 61.300781 68.566406 61.832031 69.367188 62.601562 70.199219 C 63.367188 71 64.433594 71.632812 65.800781 72.132812 C 67.167969 72.632812 68.800781 72.867188 70.667969 72.867188 C 74.699219 72.867188 77.601562 72.066406 79.433594 70.464844 C 81.265625 68.867188 82.167969 66.699219 82.167969 63.964844 C 82.167969 62.765625 81.832031 61.667969 81.167969 60.667969 C 80.5 59.667969 79.601562 59.101562 78.535156 58.964844 L 78.535156 58.898438 C 79.964844 58.632812 81.167969 58 82.101562 56.964844 C 83.035156 55.933594 83.535156 54.667969 83.535156 53.234375 C 83.535156 52.199219 83.332031 51.300781 82.964844 50.5 C 82.601562 49.699219 82.101562 49.066406 81.5 48.566406 C 80.898438 48.066406 80.199219 47.667969 79.367188 47.332031 C 78.535156 47 77.699219 46.800781 76.867188 46.667969 C 76.035156 46.535156 75.132812 46.464844 74.199219 46.464844 C 71.132812 46.464844 68.601562 47.199219 66.601562 48.699219 C 64.632812 50.199219 63.398438 52.433594 62.933594 55.398438 L 69.699219 55.398438 C 69.832031 54.367188 70.265625 53.566406 70.964844 53 C 71.667969 52.433594 72.535156 52.132812 73.566406 52.132812 C 74.535156 52.132812 75.265625 52.332031 75.832031 52.734375 C 76.398438 53.132812 76.667969 53.699219 76.667969 54.398438 C 76.667969 55.964844 75.265625 56.734375 72.433594 56.734375 L 70.867188 56.734375 L 69.898438 61.398438 L 71.367188 61.398438 C 73.632812 61.398438 74.765625 62.167969 74.765625 63.734375 C 74.765625 64.765625 74.398438 65.566406 73.632812 66.132812 C 72.867188 66.699219 71.964844 66.964844 70.867188 66.964844 C 69.601562 66.964844 68.667969 66.601562 68.101562 65.832031 C 67.535156 65.132812 67.300781 64.132812 67.398438 62.867188 L 60.5 62.867188 C 60.433594 63.535156 60.398438 64.234375 60.398438 65.066406 Z M 60.398438 65.066406 "/>
</g>
</svg>
