<?xml version="1.0" encoding="UTF-8"?>
<svg xmlns="http://www.w3.org/2000/svg" xmlns:xlink="http://www.w3.org/1999/xlink" width="100px" height="100px" viewBox="0 0 100 100" version="1.1">
<g id="surface1">
<path style=" stroke:none;fill-rule:nonzero;fill:rgb(0%,0%,0%);fill-opacity:1;" d="M 15.5 51.667969 C 15.5 50.933594 15.765625 50.300781 16.265625 49.800781 C 16.800781 49.300781 17.433594 49.066406 18.167969 49.066406 L 58.433594 49.066406 C 59.167969 49.066406 59.765625 49.300781 60.234375 49.800781 C 60.699219 50.300781 60.964844 50.933594 60.964844 51.699219 C 60.964844 52.433594 60.734375 53.035156 60.234375 53.5 C 59.765625 53.964844 59.167969 54.234375 58.433594 54.234375 L 18.167969 54.234375 C 17.433594 54.234375 16.765625 54 16.265625 53.5 C 15.734375 53 15.5 52.398438 15.5 51.667969 Z M 23.535156 42 C 23.535156 41.265625 23.800781 40.667969 24.300781 40.167969 C 24.800781 39.667969 25.433594 39.398438 26.167969 39.398438 L 66.464844 39.398438 C 67.167969 39.398438 67.765625 39.667969 68.265625 40.167969 C 68.765625 40.667969 69 41.265625 69 42 C 69 42.734375 68.765625 43.332031 68.265625 43.867188 C 67.765625 44.367188 67.167969 44.632812 66.464844 44.632812 L 26.199219 44.632812 C 25.464844 44.632812 24.832031 44.367188 24.332031 43.867188 C 23.832031 43.367188 23.535156 42.734375 23.535156 42 Z M 28.933594 61.132812 C 28.933594 60.433594 29.199219 59.832031 29.734375 59.332031 C 30.199219 58.867188 30.800781 58.601562 31.535156 58.601562 L 71.867188 58.601562 C 72.601562 58.601562 73.234375 58.832031 73.734375 59.332031 C 74.234375 59.800781 74.464844 60.398438 74.464844 61.132812 C 74.464844 61.867188 74.199219 62.5 73.699219 63 C 73.199219 63.5 72.566406 63.765625 71.832031 63.765625 L 31.535156 63.765625 C 30.800781 63.765625 30.199219 63.5 29.667969 63 C 29.132812 62.5 28.933594 61.867188 28.933594 61.132812 Z M 64.199219 51.667969 C 64.199219 50.898438 64.433594 50.265625 64.933594 49.765625 C 65.433594 49.265625 66.066406 49.035156 66.832031 49.035156 L 81.898438 49.035156 C 82.667969 49.035156 83.300781 49.265625 83.800781 49.765625 C 84.300781 50.265625 84.535156 50.898438 84.535156 51.632812 C 84.535156 52.367188 84.300781 52.964844 83.800781 53.433594 C 83.300781 53.898438 82.667969 54.167969 81.933594 54.167969 L 66.867188 54.167969 C 66.101562 54.167969 65.464844 53.933594 64.964844 53.433594 C 64.433594 53 64.199219 52.398438 64.199219 51.667969 Z M 64.199219 51.667969 "/>
</g>
</svg>
