<?xml version="1.0" encoding="UTF-8"?>
<svg xmlns="http://www.w3.org/2000/svg" xmlns:xlink="http://www.w3.org/1999/xlink" width="100px" height="100px" viewBox="0 0 100 100" version="1.1">
<g id="surface1">
<path style=" stroke:none;fill-rule:nonzero;fill:rgb(0%,0%,0%);fill-opacity:1;" d="M 16.101562 45 C 16.101562 45.601562 16.300781 46.035156 16.667969 46.332031 C 17.066406 46.699219 17.535156 46.898438 18.066406 46.898438 L 52.734375 46.898438 C 53.300781 46.898438 53.832031 47.101562 54.265625 47.535156 C 54.699219 47.933594 54.933594 48.464844 54.933594 49.066406 C 54.933594 49.667969 54.699219 50.199219 54.265625 50.632812 C 53.832031 51.066406 53.332031 51.300781 52.734375 51.300781 C 52.132812 51.300781 51.601562 51.066406 51.167969 50.601562 C 50.765625 50.234375 50.300781 50.066406 49.832031 50.066406 C 49.300781 50.066406 48.832031 50.234375 48.464844 50.601562 C 48.101562 50.964844 47.933594 51.398438 47.933594 51.898438 C 47.933594 52.433594 48.132812 52.898438 48.5 53.265625 C 49.699219 54.464844 51.101562 55.035156 52.734375 55.035156 C 54.367188 55.035156 55.765625 54.464844 56.933594 53.300781 C 58.101562 52.132812 58.667969 50.734375 58.667969 49.066406 C 58.667969 47.433594 58.101562 46 56.933594 44.832031 C 55.765625 43.667969 54.367188 43.066406 52.734375 43.066406 L 18.066406 43.066406 C 17.535156 43.066406 17.066406 43.265625 16.667969 43.632812 C 16.300781 44.035156 16.101562 44.464844 16.101562 45 Z M 16.101562 38.265625 C 16.101562 38.832031 16.300781 39.265625 16.667969 39.566406 C 17.066406 39.933594 17.535156 40.101562 18.066406 40.101562 L 64.101562 40.101562 C 65.734375 40.101562 67.167969 39.5 68.332031 38.367188 C 69.5 37.199219 70.066406 35.800781 70.066406 34.132812 C 70.066406 32.5 69.5 31.101562 68.332031 29.933594 C 67.167969 28.765625 65.765625 28.199219 64.101562 28.199219 C 62.464844 28.199219 61.066406 28.765625 59.867188 29.898438 C 59.5 30.300781 59.332031 30.800781 59.332031 31.300781 C 59.332031 31.832031 59.5 32.300781 59.867188 32.632812 C 60.234375 32.964844 60.667969 33.132812 61.199219 33.132812 C 61.699219 33.132812 62.167969 32.964844 62.566406 32.601562 C 62.964844 32.199219 63.464844 32 64.066406 32 C 64.632812 32 65.167969 32.199219 65.601562 32.601562 C 66.035156 33 66.265625 33.5 66.265625 34.101562 C 66.265625 34.699219 66.035156 35.234375 65.601562 35.667969 C 65.167969 36.101562 64.667969 36.332031 64.066406 36.332031 L 18.066406 36.332031 C 17.535156 36.332031 17.066406 36.535156 16.667969 36.898438 C 16.300781 37.265625 16.101562 37.734375 16.101562 38.265625 Z M 62.832031 73 L 71.066406 73 C 71.933594 68.699219 73.5 64.832031 75.699219 61.433594 C 77.933594 58.035156 80.332031 55.300781 82.898438 53.300781 L 84.167969 47.066406 L 64.300781 47.066406 L 62.933594 53.367188 L 74.566406 53.367188 C 67.964844 60 64.066406 66.535156 62.832031 73 Z M 62.832031 73 "/>
</g>
</svg>
