<?xml version="1.0" encoding="UTF-8"?>
<svg xmlns="http://www.w3.org/2000/svg" xmlns:xlink="http://www.w3.org/1999/xlink" width="100px" height="100px" viewBox="0 0 100 100" version="1.1">
<g id="surface1">
<path style=" stroke:none;fill-rule:nonzero;fill:rgb(0%,0%,0%);fill-opacity:1;" d="M 16.566406 45 C 16.566406 45.601562 16.765625 46.035156 17.132812 46.332031 C 17.535156 46.699219 18 46.898438 18.535156 46.898438 L 53.199219 46.898438 C 53.800781 46.898438 54.300781 47.101562 54.734375 47.535156 C 55.167969 47.933594 55.398438 48.464844 55.398438 49.066406 C 55.398438 49.667969 55.167969 50.199219 54.734375 50.632812 C 54.300781 51.066406 53.800781 51.300781 53.199219 51.300781 C 52.601562 51.300781 52.066406 51.066406 51.632812 50.601562 C 51.199219 50.234375 50.765625 50.066406 50.300781 50.066406 C 49.765625 50.066406 49.300781 50.234375 48.933594 50.601562 C 48.566406 50.964844 48.398438 51.398438 48.398438 51.898438 C 48.398438 52.433594 48.601562 52.898438 48.964844 53.265625 C 50.167969 54.464844 51.566406 55.035156 53.234375 55.035156 C 54.867188 55.035156 56.265625 54.464844 57.433594 53.300781 C 58.601562 52.132812 59.167969 50.734375 59.167969 49.066406 C 59.167969 47.433594 58.601562 46 57.433594 44.832031 C 56.265625 43.667969 54.867188 43.066406 53.234375 43.066406 L 18.535156 43.066406 C 18 43.066406 17.535156 43.265625 17.132812 43.632812 C 16.765625 44.035156 16.566406 44.464844 16.566406 45 Z M 16.566406 38.265625 C 16.566406 38.832031 16.765625 39.265625 17.132812 39.566406 C 17.535156 39.933594 18 40.101562 18.535156 40.101562 L 64.566406 40.101562 C 66.199219 40.101562 67.632812 39.5 68.800781 38.367188 C 69.964844 37.199219 70.535156 35.800781 70.535156 34.132812 C 70.535156 32.5 69.964844 31.101562 68.800781 29.933594 C 67.632812 28.765625 66.234375 28.199219 64.566406 28.199219 C 62.933594 28.199219 61.535156 28.765625 60.332031 29.898438 C 60 30.300781 59.800781 30.765625 59.800781 31.265625 C 59.800781 31.800781 59.964844 32.265625 60.332031 32.601562 C 60.699219 32.933594 61.132812 33.101562 61.667969 33.101562 C 62.167969 33.101562 62.632812 32.933594 63.035156 32.566406 C 63.433594 32.167969 63.933594 31.964844 64.535156 31.964844 C 65.101562 31.964844 65.632812 32.167969 66.066406 32.566406 C 66.5 32.964844 66.734375 33.464844 66.734375 34.066406 C 66.734375 34.667969 66.5 35.199219 66.066406 35.632812 C 65.632812 36.066406 65.132812 36.300781 64.535156 36.300781 L 18.535156 36.300781 C 18 36.300781 17.535156 36.5 17.132812 36.867188 C 16.765625 37.265625 16.566406 37.734375 16.566406 38.265625 Z M 60.132812 64.601562 C 60.066406 65.667969 60.167969 66.667969 60.535156 67.632812 C 60.867188 68.601562 61.433594 69.5 62.199219 70.332031 C 62.964844 71.167969 64.035156 71.800781 65.464844 72.300781 C 66.867188 72.800781 68.535156 73.035156 70.433594 73.035156 C 72.367188 73.035156 74.066406 72.765625 75.535156 72.265625 C 77 71.765625 78.199219 71.132812 79.035156 70.367188 C 79.867188 69.632812 80.535156 68.734375 81.066406 67.734375 C 81.601562 66.734375 81.964844 65.832031 82.132812 65 C 82.300781 64.167969 82.398438 63.367188 82.398438 62.535156 C 82.398438 60.300781 81.699219 58.5 80.265625 57.167969 C 78.832031 55.832031 77 55.132812 74.765625 55.132812 C 72.464844 55.132812 70.832031 55.601562 69.933594 56.566406 L 69.867188 56.566406 L 71.035156 53.167969 L 82.535156 53.167969 L 83.832031 46.898438 L 66.367188 46.898438 L 61.535156 61.765625 L 68.199219 61.765625 C 68.734375 60.632812 69.964844 60.066406 71.898438 60.066406 C 72.964844 60.066406 73.832031 60.332031 74.464844 60.898438 C 75.101562 61.464844 75.433594 62.265625 75.433594 63.398438 C 75.433594 64.535156 75.035156 65.433594 74.265625 66.132812 C 73.5 66.832031 72.367188 67.167969 70.933594 67.167969 C 69.898438 67.167969 69.066406 66.964844 68.5 66.601562 C 67.800781 66.234375 67.398438 65.566406 67.300781 64.601562 Z M 60.132812 64.601562 "/>
</g>
</svg>
